%TF.GenerationSoftware,KiCad,Pcbnew,9.0.7+1*%
%TF.CreationDate,Date%
%TF.ProjectId,LE_BMS_A_V2,4c455f42-4d53-45f4-915f-56322e6b6963,+ (Unreleased)*%
%TF.SameCoordinates,Original*%
%TF.FileFunction,Legend,Bot*%
%TF.FilePolarity,Positive*%
%FSLAX46Y46*%
G04 Gerber Fmt 4.6, Leading zero omitted, Abs format (unit mm)*
G04 Created by KiCad*
%MOMM*%
%LPD*%
G01*
G04 APERTURE LIST*
G04 Aperture macros list*
%AMRoundRect*
0 Rectangle with rounded corners*
0 $1 Rounding radius*
0 $2 $3 $4 $5 $6 $7 $8 $9 X,Y pos of 4 corners*
0 Add a 4 corners polygon primitive as box body*
4,1,4,$2,$3,$4,$5,$6,$7,$8,$9,$2,$3,0*
0 Add four circle primitives for the rounded corners*
1,1,$1+$1,$2,$3*
1,1,$1+$1,$4,$5*
1,1,$1+$1,$6,$7*
1,1,$1+$1,$8,$9*
0 Add four rect primitives between the rounded corners*
20,1,$1+$1,$2,$3,$4,$5,0*
20,1,$1+$1,$4,$5,$6,$7,0*
20,1,$1+$1,$6,$7,$8,$9,0*
20,1,$1+$1,$8,$9,$2,$3,0*%
G04 Aperture macros list end*
%ADD10C,5.700000*%
%ADD11C,2.604000*%
%ADD12RoundRect,0.264706X-0.635294X-0.760294X0.635294X-0.760294X0.635294X0.760294X-0.635294X0.760294X0*%
%ADD13O,1.800000X2.050000*%
%ADD14RoundRect,0.102000X0.754000X-0.754000X0.754000X0.754000X-0.754000X0.754000X-0.754000X-0.754000X0*%
%ADD15C,1.712000*%
%ADD16RoundRect,0.050000X1.000000X1.000000X-1.000000X1.000000X-1.000000X-1.000000X1.000000X-1.000000X0*%
%ADD17C,2.100000*%
%ADD18C,0.750000*%
%ADD19O,1.254000X2.354000*%
%ADD20O,1.254000X2.054000*%
%ADD21C,3.400000*%
%ADD22RoundRect,0.102000X-0.724000X-0.724000X0.724000X-0.724000X0.724000X0.724000X-0.724000X0.724000X0*%
%ADD23C,1.652000*%
%ADD24C,2.634000*%
%ADD25C,2.304000*%
%ADD26RoundRect,0.102000X-0.754000X0.754000X-0.754000X-0.754000X0.754000X-0.754000X0.754000X0.754000X0*%
G04 APERTURE END LIST*
%LPC*%
D10*
%TO.C,H3*%
X117150000Y-122610000D03*
%TD*%
D11*
%TO.C,J4*%
X186000000Y-105240000D03*
X186000000Y-100160000D03*
%TD*%
D12*
%TO.C,J6*%
X171300000Y-120200000D03*
D13*
X173800000Y-120200000D03*
X176300000Y-120200000D03*
X178800000Y-120200000D03*
%TD*%
D14*
%TO.C,PS1*%
X172550000Y-106420000D03*
D15*
X172550000Y-103880000D03*
X172550000Y-101340000D03*
X172550000Y-98800000D03*
%TD*%
D16*
%TO.C,BT1*%
X118142546Y-72400000D03*
D17*
X138942546Y-72400000D03*
%TD*%
D10*
%TO.C,H1*%
X117150000Y-50610000D03*
%TD*%
D18*
%TO.C,J1*%
X146400000Y-52080000D03*
X140620000Y-52080000D03*
D19*
X147830000Y-52580000D03*
X139190000Y-52580000D03*
D20*
X147830000Y-48400000D03*
X139190000Y-48400000D03*
%TD*%
D21*
%TO.C,J5*%
X127100000Y-124000000D03*
X139800000Y-124000000D03*
D22*
X137006000Y-121460000D03*
D23*
X135990000Y-119680000D03*
X134974000Y-121460000D03*
X133958000Y-119680000D03*
X132942000Y-121460000D03*
X131926000Y-119680000D03*
X130910000Y-121460000D03*
X129894000Y-119680000D03*
D24*
X125320000Y-120570000D03*
X141580000Y-120570000D03*
%TD*%
D12*
%TO.C,J2*%
X155700000Y-120200000D03*
D13*
X158200000Y-120200000D03*
X160700000Y-120200000D03*
X163200000Y-120200000D03*
%TD*%
D25*
%TO.C,J3*%
X187000000Y-71150000D03*
X187000000Y-68650000D03*
X187000000Y-66150000D03*
X187000000Y-63650000D03*
X187000000Y-61150000D03*
X187000000Y-58650000D03*
%TD*%
D10*
%TO.C,H4*%
X189150000Y-122610000D03*
%TD*%
%TO.C,H2*%
X189150000Y-50610000D03*
%TD*%
D25*
%TO.C,J7*%
X187000000Y-90350000D03*
X187000000Y-87850000D03*
X187000000Y-85350000D03*
X187000000Y-82850000D03*
X187000000Y-80350000D03*
X187000000Y-77850000D03*
%TD*%
D26*
%TO.C,PS2*%
X141200000Y-98660000D03*
D15*
X141200000Y-101200000D03*
X141200000Y-103740000D03*
X141200000Y-106280000D03*
%TD*%
%LPD*%
M02*
