M48
; DRILL file {KiCad 9.0.7+1} date 2026-05-16T13:21:04+0000
; FORMAT={-:-/ absolute / metric / decimal}
; #@! TF.CreationDate,2026-05-16T13:21:04+00:00
; #@! TF.GenerationSoftware,Kicad,Pcbnew,9.0.7+1
; #@! TF.FileFunction,Plated,1,4,PTH
FMAT,2
METRIC
; #@! TA.AperFunction,Plated,PTH,ComponentDrill
T1C0.200
; #@! TA.AperFunction,Plated,PTH,ViaDrill
T2C0.250
; #@! TA.AperFunction,Plated,PTH,ComponentDrill
T3C0.650
; #@! TA.AperFunction,Plated,PTH,ComponentDrill
T4C0.940
; #@! TA.AperFunction,Plated,PTH,ComponentDrill
T5C0.950
; #@! TA.AperFunction,Plated,PTH,ComponentDrill
T6C1.000
; #@! TA.AperFunction,Plated,PTH,ComponentDrill
T7C1.400
; #@! TA.AperFunction,Plated,PTH,ComponentDrill
T8C1.600
; #@! TA.AperFunction,Plated,PTH,ComponentDrill
T9C1.620
; #@! TA.AperFunction,Plated,PTH,ComponentDrill
T10C3.200
%
G90
G05
T1
X89.15Y-61.25
X89.15Y-62.75
X89.9Y-60.5
X89.9Y-62.0
X89.9Y-63.5
X90.65Y-61.25
X90.65Y-62.75
X91.4Y-60.5
X91.4Y-62.0
X91.4Y-63.5
X92.15Y-61.25
X92.15Y-62.75
T2
X55.7Y-112.1
X61.6Y-113.8
X62.6Y-101.6
X63.3Y-109.1
X63.3Y-113.8
X66.2Y-101.6
X73.0Y-120.2
X79.16Y-59.05
X79.26Y-55.65
X80.86Y-59.05
X81.06Y-55.65
X84.36Y-57.95
X84.46Y-56.65
X85.5Y-100.0
X85.5Y-103.3
X85.5Y-112.4
X91.3Y-114.0
X93.1Y-108.9
X93.1Y-114.0
X94.475Y-91.1
X95.575Y-88.3
X97.275Y-88.3
X97.275Y-95.2
X98.275Y-91.062
X99.56Y-56.65
X99.975Y-87.8
X101.575Y-88.8
X101.96Y-56.65
X105.26Y-54.45
X105.775Y-89.1
X105.775Y-93.2
X107.475Y-91.1
X109.36Y-54.95
X113.7Y-120.4
T4
X59.144Y-120.18
X60.16Y-121.96
X61.176Y-120.18
X62.192Y-121.96
X63.208Y-120.18
X64.224Y-121.96
X65.24Y-120.18
X66.256Y-121.96
T5
X84.95Y-120.85
X87.45Y-120.85
X89.95Y-120.85
X92.45Y-120.85
X100.55Y-120.85
X103.05Y-120.85
X105.55Y-120.85
X108.05Y-120.85
T6
X70.45Y-102.25
X70.45Y-104.79
X70.45Y-107.33
X70.45Y-109.87
X101.837Y-102.387
X101.837Y-104.927
X101.837Y-107.468
X101.837Y-110.007
T7
X112.9Y-64.3
X112.9Y-66.8
X112.9Y-69.3
X112.9Y-71.8
X112.9Y-74.3
X112.9Y-76.8
X112.9Y-79.3
X112.9Y-81.8
X112.9Y-84.3
X112.9Y-86.8
X112.9Y-89.3
X112.9Y-91.8
T8
X112.2Y-103.56
X112.2Y-108.64
T9
X54.57Y-121.07
X70.83Y-121.07
T10
X46.4Y-54.2
X46.4Y-126.2
X118.4Y-54.2
X118.4Y-126.2
T3
G00X45.54Y-80.38
M15
G01X44.74Y-80.38
M16
G05
G00X45.54Y-89.02
M15
G01X44.74Y-89.02
M16
G05
G00X49.87Y-80.38
M15
G01X48.77Y-80.38
M16
G05
G00X49.87Y-89.02
M15
G01X48.77Y-89.02
M16
G05
M30
