%TF.GenerationSoftware,KiCad,Pcbnew,9.0.7+1*%
%TF.CreationDate,Date%
%TF.ProjectId,LE_BMS_A_V2,4c455f42-4d53-45f4-915f-56322e6b6963,+ (Unreleased)*%
%TF.SameCoordinates,Original*%
%TF.FileFunction,Copper,L4,Bot*%
%TF.FilePolarity,Positive*%
%FSLAX46Y46*%
G04 Gerber Fmt 4.6, Leading zero omitted, Abs format (unit mm)*
G04 Created by KiCad*
%MOMM*%
%LPD*%
G01*
G04 APERTURE LIST*
G04 Aperture macros list*
%AMRoundRect*
0 Rectangle with rounded corners*
0 $1 Rounding radius*
0 $2 $3 $4 $5 $6 $7 $8 $9 X,Y pos of 4 corners*
0 Add a 4 corners polygon primitive as box body*
4,1,4,$2,$3,$4,$5,$6,$7,$8,$9,$2,$3,0*
0 Add four circle primitives for the rounded corners*
1,1,$1+$1,$2,$3*
1,1,$1+$1,$4,$5*
1,1,$1+$1,$6,$7*
1,1,$1+$1,$8,$9*
0 Add four rect primitives between the rounded corners*
20,1,$1+$1,$2,$3,$4,$5,0*
20,1,$1+$1,$4,$5,$6,$7,0*
20,1,$1+$1,$6,$7,$8,$9,0*
20,1,$1+$1,$8,$9,$2,$3,0*%
G04 Aperture macros list end*
%TA.AperFunction,ComponentPad*%
%ADD10C,5.600000*%
%TD*%
%TA.AperFunction,ComponentPad*%
%ADD11R,2.000000X2.000000*%
%TD*%
%TA.AperFunction,ComponentPad*%
%ADD12C,2.000000*%
%TD*%
%TA.AperFunction,ComponentPad*%
%ADD13C,2.400000*%
%TD*%
%TA.AperFunction,ComponentPad*%
%ADD14RoundRect,0.250000X-0.600000X-0.725000X0.600000X-0.725000X0.600000X0.725000X-0.600000X0.725000X0*%
%TD*%
%TA.AperFunction,ComponentPad*%
%ADD15O,1.700000X1.950000*%
%TD*%
%TA.AperFunction,HeatsinkPad*%
%ADD16C,0.600000*%
%TD*%
%TA.AperFunction,ComponentPad*%
%ADD17R,1.508000X1.508000*%
%TD*%
%TA.AperFunction,ComponentPad*%
%ADD18C,1.508000*%
%TD*%
%TA.AperFunction,ComponentPad*%
%ADD19O,2.150000X1.050000*%
%TD*%
%TA.AperFunction,ComponentPad*%
%ADD20O,1.850000X1.050000*%
%TD*%
%TA.AperFunction,ComponentPad*%
%ADD21R,1.448000X1.448000*%
%TD*%
%TA.AperFunction,ComponentPad*%
%ADD22C,1.448000*%
%TD*%
%TA.AperFunction,ComponentPad*%
%ADD23C,2.430000*%
%TD*%
%TA.AperFunction,ComponentPad*%
%ADD24C,2.100000*%
%TD*%
%TA.AperFunction,ViaPad*%
%ADD25C,0.550000*%
%TD*%
%TA.AperFunction,Conductor*%
%ADD26C,1.000000*%
%TD*%
%TA.AperFunction,Conductor*%
%ADD27C,1.800000*%
%TD*%
G04 APERTURE END LIST*
D10*
%TO.P,H3,1,1*%
%TO.N,unconnected-(H3-Pad1)*%
X117150000Y-122610000D03*
%TD*%
D11*
%TO.P,REF\u002A\u002A,1*%
%TO.N,N/C*%
X127150000Y-64210000D03*
D12*
%TO.P,REF\u002A\u002A,2*%
X147950000Y-64210000D03*
%TD*%
D13*
%TO.P,J4,1*%
%TO.N,+5V_CAN1*%
X182950000Y-105050000D03*
%TO.P,J4,2*%
%TO.N,GND_CAN1*%
X182950000Y-99970000D03*
%TD*%
D14*
%TO.P,J6,1,Pin_1*%
%TO.N,/Project Architecture/Section B - Title B/CAN1_H*%
X171300000Y-117260000D03*
D15*
%TO.P,J6,2,Pin_2*%
%TO.N,/Project Architecture/Section B - Title B/CAN1_L*%
X173800000Y-117260000D03*
%TO.P,J6,3,Pin_3*%
%TO.N,GND_CAN1*%
X176300000Y-117260000D03*
%TO.P,J6,4,Pin_4*%
%TO.N,+5V_CAN1*%
X178800000Y-117260000D03*
%TD*%
D16*
%TO.P,U1,41,GND*%
%TO.N,GND*%
X159900000Y-57660000D03*
X159900000Y-59160000D03*
X160650000Y-56910000D03*
X160650000Y-58410000D03*
X160650000Y-59910000D03*
X161400000Y-57660000D03*
X161400000Y-59160000D03*
X162150000Y-56910000D03*
X162150000Y-58410000D03*
X162150000Y-59910000D03*
X162900000Y-57660000D03*
X162900000Y-59160000D03*
%TD*%
D10*
%TO.P,H1,1,1*%
%TO.N,unconnected-(H1-Pad1)*%
X117150000Y-50610000D03*
%TD*%
D17*
%TO.P,PS1,1,-VIN*%
%TO.N,GND_CAN1*%
X172587500Y-106417500D03*
D18*
%TO.P,PS1,2,+VIN*%
%TO.N,+5V_CAN1*%
X172587500Y-103877500D03*
%TO.P,PS1,3,-VOUT*%
%TO.N,GND*%
X172587500Y-101337500D03*
%TO.P,PS1,4,+VOUT*%
%TO.N,+5V*%
X172587500Y-98797500D03*
%TD*%
D19*
%TO.P,J1,SH1,SHIELD*%
%TO.N,GND*%
X120070000Y-76790000D03*
%TO.P,J1,SH2,SHIELD*%
X120070000Y-85430000D03*
D20*
%TO.P,J1,SH3,SHIELD*%
X115890000Y-76790000D03*
%TO.P,J1,SH4,SHIELD*%
X115890000Y-85430000D03*
%TD*%
D21*
%TO.P,J5,1,1*%
%TO.N,unconnected-(J5-Pad1)*%
X137006000Y-118370000D03*
D22*
%TO.P,J5,2,2*%
%TO.N,unconnected-(J5-Pad2)*%
X135990000Y-116590000D03*
%TO.P,J5,3,3*%
%TO.N,GND_CAN2*%
X134974000Y-118370000D03*
%TO.P,J5,4,4*%
%TO.N,unconnected-(J5-Pad4)*%
X133958000Y-116590000D03*
%TO.P,J5,5,5*%
%TO.N,unconnected-(J5-Pad5)*%
X132942000Y-118370000D03*
%TO.P,J5,6,6*%
%TO.N,unconnected-(J5-Pad6)*%
X131926000Y-116590000D03*
%TO.P,J5,7,7*%
%TO.N,/Project Architecture/Section B - Title B/CAN2_H*%
X130910000Y-118370000D03*
%TO.P,J5,8,8*%
%TO.N,/Project Architecture/Section B - Title B/CAN2_L*%
X129894000Y-116590000D03*
D23*
%TO.P,J5,SH1,SHIELD*%
%TO.N,GND_CAN2*%
X125320000Y-117480000D03*
%TO.P,J5,SH2,SHIELD*%
X141580000Y-117480000D03*
%TD*%
D14*
%TO.P,J2,1,Pin_1*%
%TO.N,/Project Architecture/Section B - Title B/CAN1_H*%
X155700000Y-117260000D03*
D15*
%TO.P,J2,2,Pin_2*%
%TO.N,/Project Architecture/Section B - Title B/CAN1_L*%
X158200000Y-117260000D03*
%TO.P,J2,3,Pin_3*%
%TO.N,GND_CAN1*%
X160700000Y-117260000D03*
%TO.P,J2,4,Pin_4*%
%TO.N,+5V_CAN1*%
X163200000Y-117260000D03*
%TD*%
D10*
%TO.P,H4,1,1*%
%TO.N,unconnected-(H4-Pad1)*%
X189150000Y-122610000D03*
%TD*%
D24*
%TO.P,J3,1*%
%TO.N,unconnected-(J3-Pad1)*%
X183650000Y-88210000D03*
%TO.P,J3,2*%
%TO.N,unconnected-(J3-Pad2)*%
X183650000Y-85710000D03*
%TO.P,J3,3*%
%TO.N,unconnected-(J3-Pad3)*%
X183650000Y-83210000D03*
%TO.P,J3,4*%
%TO.N,unconnected-(J3-Pad4)*%
X183650000Y-80710000D03*
%TO.P,J3,5*%
%TO.N,unconnected-(J3-Pad5)*%
X183650000Y-78210000D03*
%TO.P,J3,6*%
%TO.N,unconnected-(J3-Pad6)*%
X183650000Y-75710000D03*
%TO.P,J3,7*%
%TO.N,unconnected-(J3-Pad7)*%
X183650000Y-73210000D03*
%TO.P,J3,8*%
%TO.N,unconnected-(J3-Pad8)*%
X183650000Y-70710000D03*
%TO.P,J3,9*%
%TO.N,unconnected-(J3-Pad9)*%
X183650000Y-68210000D03*
%TO.P,J3,10*%
%TO.N,unconnected-(J3-Pad10)*%
X183650000Y-65710000D03*
%TO.P,J3,11*%
%TO.N,unconnected-(J3-Pad11)*%
X183650000Y-63210000D03*
%TO.P,J3,12*%
%TO.N,unconnected-(J3-Pad12)*%
X183650000Y-60710000D03*
%TD*%
D10*
%TO.P,H2,1,1*%
%TO.N,unconnected-(H2-Pad1)*%
X189150000Y-50610000D03*
%TD*%
D17*
%TO.P,PS2,1,-VIN*%
%TO.N,GND*%
X141200000Y-98660000D03*
D18*
%TO.P,PS2,2,+VIN*%
%TO.N,+5V*%
X141200000Y-101200000D03*
%TO.P,PS2,3,-VOUT*%
%TO.N,GND_CAN2*%
X141200000Y-103740000D03*
%TO.P,PS2,4,+VOUT*%
%TO.N,+5V_CAN2*%
X141200000Y-106280000D03*
%TD*%
D25*
%TO.N,GND*%
X172325000Y-85210000D03*
X176010000Y-50860000D03*
X156250000Y-96410000D03*
X168025000Y-91610000D03*
X155210000Y-53060000D03*
X180110000Y-51360000D03*
X150010000Y-52060000D03*
X170310000Y-53060000D03*
X168025000Y-84710000D03*
X170725000Y-84210000D03*
X156250000Y-99710000D03*
X172710000Y-53060000D03*
X151810000Y-52060000D03*
X166325000Y-84710000D03*
%TO.N,+3V3*%
X133350000Y-98010000D03*
X178225000Y-87510000D03*
X149910000Y-55460000D03*
X165225000Y-87510000D03*
X151610000Y-55460000D03*
X176525000Y-89610000D03*
X155110000Y-54360000D03*
X136950000Y-98010000D03*
X176525000Y-85510000D03*
X169025000Y-87472500D03*
%TO.N,+5V_CAN1*%
X163850000Y-110410000D03*
X163850000Y-105310000D03*
%TO.N,+5V_CAN2*%
X134050000Y-110210000D03*
X134050000Y-105510000D03*
%TO.N,GND_CAN1*%
X184450000Y-116810000D03*
X156250000Y-108810000D03*
X162050000Y-110410000D03*
%TO.N,GND_CAN2*%
X143750000Y-116610000D03*
X126450000Y-108510000D03*
X132350000Y-110210000D03*
%TD*%
D26*
%TO.N,+5V*%
X170185000Y-101200000D02*
X172587500Y-98797500D01*
X141200000Y-101200000D02*
X170185000Y-101200000D01*
D27*
%TO.N,+5V_CAN1*%
X164525000Y-120535000D02*
X164550000Y-120510000D01*
X164550000Y-120510000D02*
X177050000Y-120510000D01*
X163200000Y-117260000D02*
X163200000Y-119210000D01*
X178800000Y-118760000D02*
X178800000Y-117260000D01*
X177050000Y-120510000D02*
X178800000Y-118760000D01*
X163200000Y-119210000D02*
X164525000Y-120535000D01*
%TO.N,GND_CAN1*%
X160700000Y-117260000D02*
X160700000Y-115060000D01*
X176300000Y-115260000D02*
X176300000Y-117260000D01*
X174050000Y-113010000D02*
X176300000Y-115260000D01*
X162750000Y-113010000D02*
X174050000Y-113010000D01*
X160700000Y-115060000D02*
X162750000Y-113010000D01*
%TD*%
M02*
