M48
; DRILL file {KiCad 9.0.7+1} date 2026-05-18T09:15:34+0000
; FORMAT={-:-/ absolute / metric / decimal}
; #@! TF.CreationDate,2026-05-18T09:15:34+00:00
; #@! TF.GenerationSoftware,Kicad,Pcbnew,9.0.7+1
; #@! TF.FileFunction,Plated,1,4,PTH
FMAT,2
METRIC
; #@! TA.AperFunction,Plated,PTH,ComponentDrill
T1C0.200
; #@! TA.AperFunction,Plated,PTH,ViaDrill
T2C0.250
; #@! TA.AperFunction,Plated,PTH,ComponentDrill
T3C0.650
; #@! TA.AperFunction,Plated,PTH,ComponentDrill
T4C0.940
; #@! TA.AperFunction,Plated,PTH,ComponentDrill
T5C0.950
; #@! TA.AperFunction,Plated,PTH,ComponentDrill
T6C1.000
; #@! TA.AperFunction,Plated,PTH,ComponentDrill
T7C1.400
; #@! TA.AperFunction,Plated,PTH,ComponentDrill
T8C1.500
; #@! TA.AperFunction,Plated,PTH,ComponentDrill
T9C1.600
; #@! TA.AperFunction,Plated,PTH,ComponentDrill
T10C1.620
; #@! TA.AperFunction,Plated,PTH,ComponentDrill
T11C3.200
%
G90
G05
T1
X160.0Y-58.7
X160.0Y-60.2
X160.75Y-57.95
X160.75Y-59.45
X160.75Y-60.95
X161.5Y-58.7
X161.5Y-60.2
X162.25Y-57.95
X162.25Y-59.45
X162.25Y-60.95
X163.0Y-58.7
X163.0Y-60.2
T2
X114.955Y-95.325
X116.245Y-94.325
X117.5Y-91.25
X118.785Y-86.525
X118.858Y-84.725
X121.555Y-85.625
X123.2Y-49.7
X123.2Y-52.6
X123.3Y-55.4
X123.3Y-58.7
X124.055Y-94.925
X124.055Y-96.525
X125.95Y-56.45
X126.45Y-108.51
X126.5Y-96.3
X126.5Y-99.6
X126.7Y-51.2
X129.35Y-55.4
X129.4Y-49.8
X129.4Y-52.6
X129.4Y-58.65
X132.1Y-57.9
X132.35Y-110.21
X133.0Y-51.2
X133.35Y-98.01
X134.05Y-105.51
X134.05Y-110.21
X136.65Y-55.35
X136.9Y-96.2
X136.95Y-98.01
X138.0Y-103.7
X138.0Y-105.5
X138.7Y-97.7
X143.75Y-116.61
X144.7Y-89.1
X145.4Y-55.4
X145.9Y-86.9
X146.671Y-88.829
X150.01Y-56.5
X150.11Y-53.1
X150.2Y-79.5
X151.5Y-72.2
X151.71Y-56.5
X151.9Y-92.2
X151.91Y-53.1
X152.9Y-68.1
X154.0Y-91.7
X154.2Y-80.5
X154.8Y-81.6
X154.8Y-83.0
X154.8Y-85.6
X155.21Y-55.4
X155.31Y-54.1
X155.55Y-56.65
X156.25Y-96.41
X156.25Y-99.71
X156.25Y-108.81
X158.8Y-96.2
X162.05Y-110.41
X162.5Y-82.8
X163.5Y-76.1
X163.85Y-105.31
X163.85Y-110.41
X163.9Y-96.4
X164.7Y-73.6
X165.975Y-88.6
X166.0Y-95.4
X166.9Y-98.1
X167.075Y-85.8
X167.1Y-65.6
X167.1Y-66.85
X167.1Y-68.05
X167.1Y-69.25
X168.575Y-73.575
X168.775Y-85.8
X168.775Y-92.7
X169.775Y-88.562
X170.15Y-70.6
X170.41Y-54.1
X171.475Y-85.3
X172.81Y-54.1
X173.075Y-86.3
X175.9Y-100.7
X175.9Y-106.2
X176.0Y-104.4
X176.11Y-51.9
X177.275Y-86.6
X177.275Y-90.7
X178.975Y-88.6
X180.21Y-52.4
X181.7Y-49.8
X184.45Y-116.81
T4
X129.894Y-119.68
X130.91Y-121.46
X131.926Y-119.68
X132.942Y-121.46
X133.958Y-119.68
X134.974Y-121.46
X135.99Y-119.68
X137.006Y-121.46
T5
X155.7Y-120.2
X158.2Y-120.2
X160.7Y-120.2
X163.2Y-120.2
X171.3Y-120.2
X173.8Y-120.2
X176.3Y-120.2
X178.8Y-120.2
T6
X141.2Y-98.66
X141.2Y-101.2
X141.2Y-103.74
X141.2Y-106.28
X172.588Y-98.797
X172.588Y-101.337
X172.588Y-103.877
X172.588Y-106.417
T7
X187.0Y-58.65
X187.0Y-61.15
X187.0Y-63.65
X187.0Y-66.15
X187.0Y-68.65
X187.0Y-71.15
X187.0Y-77.85
X187.0Y-80.35
X187.0Y-82.85
X187.0Y-85.35
X187.0Y-87.85
X187.0Y-90.35
T8
X118.143Y-72.4
X138.943Y-72.4
T9
X185.95Y-100.06
X185.95Y-105.14
T10
X125.32Y-120.57
X141.58Y-120.57
T11
X117.15Y-50.61
X117.15Y-122.61
X189.15Y-50.61
X189.15Y-122.61
T3
G00X136.96Y-48.8
M15
G01X136.96Y-48.0
M16
G05
G00X136.96Y-53.13
M15
G01X136.96Y-52.03
M16
G05
G00X145.6Y-48.8
M15
G01X145.6Y-48.0
M16
G05
G00X145.6Y-53.13
M15
G01X145.6Y-52.03
M16
G05
M30
