%TF.GenerationSoftware,KiCad,Pcbnew,9.0.7+1*%
%TF.CreationDate,Date%
%TF.ProjectId,LE_BMS_A_V2,4c455f42-4d53-45f4-915f-56322e6b6963,+ (Unreleased)*%
%TF.SameCoordinates,Original*%
%TF.FileFunction,Copper,L3,Inr*%
%TF.FilePolarity,Positive*%
%FSLAX46Y46*%
G04 Gerber Fmt 4.6, Leading zero omitted, Abs format (unit mm)*
G04 Created by KiCad*
%MOMM*%
%LPD*%
G01*
G04 APERTURE LIST*
G04 Aperture macros list*
%AMRoundRect*
0 Rectangle with rounded corners*
0 $1 Rounding radius*
0 $2 $3 $4 $5 $6 $7 $8 $9 X,Y pos of 4 corners*
0 Add a 4 corners polygon primitive as box body*
4,1,4,$2,$3,$4,$5,$6,$7,$8,$9,$2,$3,0*
0 Add four circle primitives for the rounded corners*
1,1,$1+$1,$2,$3*
1,1,$1+$1,$4,$5*
1,1,$1+$1,$6,$7*
1,1,$1+$1,$8,$9*
0 Add four rect primitives between the rounded corners*
20,1,$1+$1,$2,$3,$4,$5,0*
20,1,$1+$1,$4,$5,$6,$7,0*
20,1,$1+$1,$6,$7,$8,$9,0*
20,1,$1+$1,$8,$9,$2,$3,0*%
G04 Aperture macros list end*
%TA.AperFunction,ComponentPad*%
%ADD10C,5.600000*%
%TD*%
%TA.AperFunction,ComponentPad*%
%ADD11C,2.400000*%
%TD*%
%TA.AperFunction,ComponentPad*%
%ADD12RoundRect,0.250000X-0.600000X-0.725000X0.600000X-0.725000X0.600000X0.725000X-0.600000X0.725000X0*%
%TD*%
%TA.AperFunction,ComponentPad*%
%ADD13O,1.700000X1.950000*%
%TD*%
%TA.AperFunction,HeatsinkPad*%
%ADD14C,0.600000*%
%TD*%
%TA.AperFunction,ComponentPad*%
%ADD15R,1.508000X1.508000*%
%TD*%
%TA.AperFunction,ComponentPad*%
%ADD16C,1.508000*%
%TD*%
%TA.AperFunction,ComponentPad*%
%ADD17O,2.150000X1.050000*%
%TD*%
%TA.AperFunction,ComponentPad*%
%ADD18O,1.850000X1.050000*%
%TD*%
%TA.AperFunction,ComponentPad*%
%ADD19R,1.448000X1.448000*%
%TD*%
%TA.AperFunction,ComponentPad*%
%ADD20C,1.448000*%
%TD*%
%TA.AperFunction,ComponentPad*%
%ADD21C,2.430000*%
%TD*%
%TA.AperFunction,ComponentPad*%
%ADD22C,2.100000*%
%TD*%
%TA.AperFunction,ViaPad*%
%ADD23C,0.550000*%
%TD*%
G04 APERTURE END LIST*
D10*
%TO.N,unconnected-(H3-Pad1)*%
%TO.C,H3*%
X46400000Y-126200000D03*
%TD*%
D11*
%TO.N,+5V_CAN1*%
%TO.C,J4*%
X112200000Y-108640000D03*
%TO.N,GND_CAN1*%
X112200000Y-103560000D03*
%TD*%
D12*
%TO.N,/Project Architecture/Section B - Title B/CAN1_H*%
%TO.C,J6*%
X100550000Y-120850000D03*
D13*
%TO.N,/Project Architecture/Section B - Title B/CAN1_L*%
X103050000Y-120850000D03*
%TO.N,GND_CAN1*%
X105550000Y-120850000D03*
%TO.N,+5V_CAN1*%
X108050000Y-120850000D03*
%TD*%
D14*
%TO.N,GND*%
%TO.C,U1*%
X89150000Y-61250000D03*
X89150000Y-62750000D03*
X89900000Y-60500000D03*
X89900000Y-62000000D03*
X89900000Y-63500000D03*
X90650000Y-61250000D03*
X90650000Y-62750000D03*
X91400000Y-60500000D03*
X91400000Y-62000000D03*
X91400000Y-63500000D03*
X92150000Y-61250000D03*
X92150000Y-62750000D03*
%TD*%
D10*
%TO.N,unconnected-(H1-Pad1)*%
%TO.C,H1*%
X46400000Y-54200000D03*
%TD*%
D15*
%TO.N,GND_CAN1*%
%TO.C,PS1*%
X101837500Y-110007500D03*
D16*
%TO.N,+5V_CAN1*%
X101837500Y-107467500D03*
%TO.N,GND*%
X101837500Y-104927500D03*
%TO.N,+5V*%
X101837500Y-102387500D03*
%TD*%
D17*
%TO.N,GND*%
%TO.C,J1*%
X49320000Y-80380000D03*
X49320000Y-89020000D03*
D18*
X45140000Y-80380000D03*
X45140000Y-89020000D03*
%TD*%
D19*
%TO.N,unconnected-(J5-Pad1)*%
%TO.C,J5*%
X66256000Y-121960000D03*
D20*
%TO.N,unconnected-(J5-Pad2)*%
X65240000Y-120180000D03*
%TO.N,GND_CAN2*%
X64224000Y-121960000D03*
%TO.N,unconnected-(J5-Pad4)*%
X63208000Y-120180000D03*
%TO.N,unconnected-(J5-Pad5)*%
X62192000Y-121960000D03*
%TO.N,unconnected-(J5-Pad6)*%
X61176000Y-120180000D03*
%TO.N,/Project Architecture/Section B - Title B/CAN2_H*%
X60160000Y-121960000D03*
%TO.N,/Project Architecture/Section B - Title B/CAN2_L*%
X59144000Y-120180000D03*
D21*
%TO.N,GND_CAN2*%
X54570000Y-121070000D03*
X70830000Y-121070000D03*
%TD*%
D12*
%TO.N,/Project Architecture/Section B - Title B/CAN1_H*%
%TO.C,J2*%
X84950000Y-120850000D03*
D13*
%TO.N,/Project Architecture/Section B - Title B/CAN1_L*%
X87450000Y-120850000D03*
%TO.N,GND_CAN1*%
X89950000Y-120850000D03*
%TO.N,+5V_CAN1*%
X92450000Y-120850000D03*
%TD*%
D10*
%TO.N,unconnected-(H4-Pad1)*%
%TO.C,H4*%
X118400000Y-126200000D03*
%TD*%
D22*
%TO.N,unconnected-(J3-Pad1)*%
%TO.C,J3*%
X112900000Y-91800000D03*
%TO.N,unconnected-(J3-Pad2)*%
X112900000Y-89300000D03*
%TO.N,unconnected-(J3-Pad3)*%
X112900000Y-86800000D03*
%TO.N,unconnected-(J3-Pad4)*%
X112900000Y-84300000D03*
%TO.N,unconnected-(J3-Pad5)*%
X112900000Y-81800000D03*
%TO.N,unconnected-(J3-Pad6)*%
X112900000Y-79300000D03*
%TO.N,unconnected-(J3-Pad7)*%
X112900000Y-76800000D03*
%TO.N,unconnected-(J3-Pad8)*%
X112900000Y-74300000D03*
%TO.N,unconnected-(J3-Pad9)*%
X112900000Y-71800000D03*
%TO.N,unconnected-(J3-Pad10)*%
X112900000Y-69300000D03*
%TO.N,unconnected-(J3-Pad11)*%
X112900000Y-66800000D03*
%TO.N,unconnected-(J3-Pad12)*%
X112900000Y-64300000D03*
%TD*%
D10*
%TO.N,unconnected-(H2-Pad1)*%
%TO.C,H2*%
X118400000Y-54200000D03*
%TD*%
D15*
%TO.N,GND*%
%TO.C,PS2*%
X70450000Y-102250000D03*
D16*
%TO.N,+5V*%
X70450000Y-104790000D03*
%TO.N,GND_CAN2*%
X70450000Y-107330000D03*
%TO.N,+5V_CAN2*%
X70450000Y-109870000D03*
%TD*%
D23*
%TO.N,GND*%
X101575000Y-88800000D03*
X105260000Y-54450000D03*
X85500000Y-100000000D03*
X97275000Y-95200000D03*
X84460000Y-56650000D03*
X109360000Y-54950000D03*
X79260000Y-55650000D03*
X99560000Y-56650000D03*
X97275000Y-88300000D03*
X99975000Y-87800000D03*
X85500000Y-103300000D03*
X101960000Y-56650000D03*
X81060000Y-55650000D03*
X95575000Y-88300000D03*
%TO.N,+3V3*%
X62600000Y-101600000D03*
X107475000Y-91100000D03*
X79160000Y-59050000D03*
X94475000Y-91100000D03*
X80860000Y-59050000D03*
X105775000Y-93200000D03*
X84360000Y-57950000D03*
X66200000Y-101600000D03*
X105775000Y-89100000D03*
X98275000Y-91062500D03*
%TO.N,+5V_CAN1*%
X93100000Y-114000000D03*
X93100000Y-108900000D03*
%TO.N,+5V_CAN2*%
X63300000Y-113800000D03*
X63300000Y-109100000D03*
%TO.N,GND_CAN1*%
X113700000Y-120400000D03*
X85500000Y-112400000D03*
X91300000Y-114000000D03*
%TO.N,GND_CAN2*%
X73000000Y-120200000D03*
X55700000Y-112100000D03*
X61600000Y-113800000D03*
%TD*%
%TA.AperFunction,Conductor*%
%TO.N,+5V_CAN1*%
G36*
X60900251Y-121068318D02*
G01*
X60900358Y-121067784D01*
X61084940Y-121104499D01*
X61084944Y-121104500D01*
X61084945Y-121104500D01*
X61267056Y-121104500D01*
X61267057Y-121104499D01*
X61342154Y-121089562D01*
X61451642Y-121067784D01*
X61451876Y-121068960D01*
X61515382Y-121068388D01*
X61574498Y-121105631D01*
X61604095Y-121168922D01*
X61594775Y-121238167D01*
X61569203Y-121275356D01*
X61473893Y-121370666D01*
X61372722Y-121522078D01*
X61372717Y-121522087D01*
X61303028Y-121690332D01*
X61303026Y-121690340D01*
X61297617Y-121717533D01*
X61265232Y-121779444D01*
X61204516Y-121814019D01*
X61134747Y-121810279D01*
X61078075Y-121769412D01*
X61054383Y-121717533D01*
X61048973Y-121690340D01*
X61048972Y-121690333D01*
X60979281Y-121522085D01*
X60979280Y-121522084D01*
X60979277Y-121522078D01*
X60878106Y-121370666D01*
X60878103Y-121370662D01*
X60782797Y-121275356D01*
X60749312Y-121214033D01*
X60754296Y-121144341D01*
X60796168Y-121088408D01*
X60861632Y-121063991D01*
X60900251Y-121068318D01*
G37*
%TD.AperFunction*%
%TA.AperFunction,Conductor*%
G36*
X62932251Y-121068318D02*
G01*
X62932358Y-121067784D01*
X63116940Y-121104499D01*
X63116944Y-121104500D01*
X63116945Y-121104500D01*
X63299056Y-121104500D01*
X63299057Y-121104499D01*
X63374154Y-121089562D01*
X63483642Y-121067784D01*
X63483758Y-121068367D01*
X63487162Y-121066509D01*
X63517237Y-121068659D01*
X63547382Y-121068388D01*
X63551728Y-121071126D01*
X63556854Y-121071493D01*
X63580992Y-121089562D01*
X63606498Y-121105631D01*
X63608674Y-121110284D01*
X63612788Y-121113364D01*
X63623324Y-121141613D01*
X63636095Y-121168922D01*
X63635409Y-121174014D01*
X63637205Y-121178828D01*
X63630796Y-121208285D01*
X63626775Y-121238167D01*
X63623149Y-121243439D01*
X63622353Y-121247101D01*
X63601203Y-121275356D01*
X63505893Y-121370666D01*
X63404722Y-121522078D01*
X63404717Y-121522087D01*
X63335028Y-121690332D01*
X63335026Y-121690340D01*
X63329617Y-121717533D01*
X63297232Y-121779444D01*
X63236516Y-121814019D01*
X63166747Y-121810279D01*
X63110075Y-121769412D01*
X63086383Y-121717533D01*
X63080973Y-121690340D01*
X63080972Y-121690333D01*
X63011281Y-121522085D01*
X63011280Y-121522084D01*
X63011277Y-121522078D01*
X62910106Y-121370666D01*
X62910103Y-121370662D01*
X62814797Y-121275356D01*
X62781312Y-121214033D01*
X62786296Y-121144341D01*
X62828168Y-121088408D01*
X62893632Y-121063991D01*
X62932251Y-121068318D01*
G37*
%TD.AperFunction*%
%TA.AperFunction,Conductor*%
G36*
X64964251Y-121068318D02*
G01*
X64964358Y-121067784D01*
X65148940Y-121104499D01*
X65148944Y-121104500D01*
X65207500Y-121104500D01*
X65274539Y-121124185D01*
X65320294Y-121176989D01*
X65331500Y-121228500D01*
X65331500Y-121594516D01*
X65311815Y-121661555D01*
X65259011Y-121707310D01*
X65189853Y-121717254D01*
X65126297Y-121688229D01*
X65092939Y-121641969D01*
X65043282Y-121522088D01*
X65043282Y-121522087D01*
X65043281Y-121522085D01*
X65043279Y-121522082D01*
X65043277Y-121522078D01*
X64942106Y-121370666D01*
X64942103Y-121370662D01*
X64846797Y-121275356D01*
X64813312Y-121214033D01*
X64818296Y-121144341D01*
X64860168Y-121088408D01*
X64925632Y-121063991D01*
X64964251Y-121068318D01*
G37*
%TD.AperFunction*%
%TA.AperFunction,Conductor*%
G36*
X60201253Y-120329720D02*
G01*
X60257925Y-120370586D01*
X60281617Y-120422466D01*
X60287026Y-120449659D01*
X60287028Y-120449667D01*
X60356717Y-120617912D01*
X60356722Y-120617921D01*
X60457893Y-120769333D01*
X60457896Y-120769337D01*
X60553202Y-120864643D01*
X60586687Y-120925966D01*
X60581703Y-120995658D01*
X60539831Y-121051591D01*
X60474367Y-121076008D01*
X60435748Y-121071682D01*
X60435642Y-121072216D01*
X60251059Y-121035500D01*
X60251055Y-121035500D01*
X60068945Y-121035500D01*
X60068940Y-121035500D01*
X59884358Y-121072216D01*
X59884125Y-121071044D01*
X59820592Y-121071604D01*
X59761484Y-121034349D01*
X59731900Y-120971051D01*
X59741234Y-120901808D01*
X59766794Y-120864645D01*
X59862106Y-120769334D01*
X59963281Y-120617915D01*
X60032972Y-120449667D01*
X60038383Y-120422466D01*
X60070767Y-120360555D01*
X60131483Y-120325981D01*
X60201253Y-120329720D01*
G37*
%TD.AperFunction*%
%TA.AperFunction,Conductor*%
G36*
X62233253Y-120329720D02*
G01*
X62289925Y-120370586D01*
X62313617Y-120422466D01*
X62319026Y-120449659D01*
X62319028Y-120449667D01*
X62388717Y-120617912D01*
X62388722Y-120617921D01*
X62489893Y-120769333D01*
X62489896Y-120769337D01*
X62585202Y-120864643D01*
X62618687Y-120925966D01*
X62613703Y-120995658D01*
X62571831Y-121051591D01*
X62506367Y-121076008D01*
X62467748Y-121071682D01*
X62467642Y-121072216D01*
X62283059Y-121035500D01*
X62283055Y-121035500D01*
X62100945Y-121035500D01*
X62100940Y-121035500D01*
X61916358Y-121072216D01*
X61916125Y-121071044D01*
X61852592Y-121071604D01*
X61793484Y-121034349D01*
X61763900Y-120971051D01*
X61773234Y-120901808D01*
X61798794Y-120864645D01*
X61894106Y-120769334D01*
X61995281Y-120617915D01*
X62064972Y-120449667D01*
X62070383Y-120422466D01*
X62102767Y-120360555D01*
X62163483Y-120325981D01*
X62233253Y-120329720D01*
G37*
%TD.AperFunction*%
%TA.AperFunction,Conductor*%
G36*
X64265253Y-120329720D02*
G01*
X64321925Y-120370586D01*
X64345617Y-120422466D01*
X64351026Y-120449659D01*
X64351028Y-120449667D01*
X64420717Y-120617912D01*
X64420722Y-120617921D01*
X64521893Y-120769333D01*
X64521896Y-120769337D01*
X64617202Y-120864643D01*
X64650687Y-120925966D01*
X64645703Y-120995658D01*
X64603831Y-121051591D01*
X64538367Y-121076008D01*
X64499748Y-121071682D01*
X64499642Y-121072216D01*
X64315059Y-121035500D01*
X64315055Y-121035500D01*
X64132945Y-121035500D01*
X64132940Y-121035500D01*
X63948358Y-121072216D01*
X63948125Y-121071044D01*
X63884592Y-121071604D01*
X63825484Y-121034349D01*
X63795900Y-120971051D01*
X63805234Y-120901808D01*
X63830794Y-120864645D01*
X63926106Y-120769334D01*
X64027281Y-120617915D01*
X64096972Y-120449667D01*
X64102383Y-120422466D01*
X64134767Y-120360555D01*
X64195483Y-120325981D01*
X64265253Y-120329720D01*
G37*
%TD.AperFunction*%
%TA.AperFunction,Conductor*%
G36*
X70127482Y-106219685D02*
G01*
X70173237Y-106272489D01*
X70183181Y-106341647D01*
X70154156Y-106405203D01*
X70107895Y-106438561D01*
X69997881Y-106484129D01*
X69997868Y-106484136D01*
X69841542Y-106588591D01*
X69841538Y-106588594D01*
X69708594Y-106721538D01*
X69708591Y-106721542D01*
X69604136Y-106877868D01*
X69604129Y-106877881D01*
X69532182Y-107051578D01*
X69532179Y-107051590D01*
X69495500Y-107235985D01*
X69495500Y-107424014D01*
X69532179Y-107608409D01*
X69532182Y-107608421D01*
X69604129Y-107782118D01*
X69604136Y-107782131D01*
X69708591Y-107938457D01*
X69708594Y-107938461D01*
X69841538Y-108071405D01*
X69841542Y-108071408D01*
X69997868Y-108175863D01*
X69997881Y-108175870D01*
X70171578Y-108247817D01*
X70171583Y-108247819D01*
X70355985Y-108284499D01*
X70355988Y-108284500D01*
X70355990Y-108284500D01*
X70544012Y-108284500D01*
X70544013Y-108284499D01*
X70728417Y-108247819D01*
X70902125Y-108175867D01*
X71058458Y-108071408D01*
X71191408Y-107938458D01*
X71295867Y-107782125D01*
X71367819Y-107608417D01*
X71404500Y-107424010D01*
X71404500Y-107235990D01*
X71404500Y-107235987D01*
X71404499Y-107235985D01*
X71367820Y-107051590D01*
X71367819Y-107051583D01*
X71367817Y-107051578D01*
X71295870Y-106877881D01*
X71295863Y-106877868D01*
X71191408Y-106721542D01*
X71191405Y-106721538D01*
X71058461Y-106588594D01*
X71058457Y-106588591D01*
X70902131Y-106484136D01*
X70902118Y-106484129D01*
X70792105Y-106438561D01*
X70737701Y-106394720D01*
X70715636Y-106328426D01*
X70732915Y-106260727D01*
X70784052Y-106213116D01*
X70839557Y-106200000D01*
X78276000Y-106200000D01*
X78343039Y-106219685D01*
X78388794Y-106272489D01*
X78400000Y-106324000D01*
X78400000Y-129825500D01*
X78380315Y-129892539D01*
X78327511Y-129938294D01*
X78276000Y-129949500D01*
X46403051Y-129949500D01*
X46396968Y-129949351D01*
X46374856Y-129948264D01*
X46038567Y-129931743D01*
X46026457Y-129930550D01*
X45674532Y-129878347D01*
X45662597Y-129875973D01*
X45317481Y-129789526D01*
X45305837Y-129785994D01*
X44970858Y-129666136D01*
X44959629Y-129661485D01*
X44637999Y-129509366D01*
X44627272Y-129503631D01*
X44322118Y-129320729D01*
X44312000Y-129313969D01*
X44026230Y-129102028D01*
X44016824Y-129094308D01*
X43886809Y-128976469D01*
X43753209Y-128855381D01*
X43744618Y-128846790D01*
X43505691Y-128583175D01*
X43497971Y-128573769D01*
X43286030Y-128287999D01*
X43279270Y-128277881D01*
X43234102Y-128202523D01*
X43096363Y-127972720D01*
X43090639Y-127962012D01*
X42938511Y-127640363D01*
X42933867Y-127629151D01*
X42814000Y-127294147D01*
X42810473Y-127282518D01*
X42724023Y-126937389D01*
X42721652Y-126925467D01*
X42669449Y-126573542D01*
X42668256Y-126561431D01*
X42650649Y-126203032D01*
X42650500Y-126196948D01*
X42650500Y-126031491D01*
X43399500Y-126031491D01*
X43399500Y-126368508D01*
X43437231Y-126703381D01*
X43437233Y-126703397D01*
X43512223Y-127031953D01*
X43512227Y-127031965D01*
X43623532Y-127350054D01*
X43769752Y-127653683D01*
X43769754Y-127653686D01*
X43949054Y-127939039D01*
X44159175Y-128202523D01*
X44397477Y-128440825D01*
X44660961Y-128650946D01*
X44946314Y-128830246D01*
X45249949Y-128976469D01*
X45488848Y-129060063D01*
X45568034Y-129087772D01*
X45568046Y-129087776D01*
X45896606Y-129162767D01*
X46231492Y-129200499D01*
X46231493Y-129200500D01*
X46231496Y-129200500D01*
X46568507Y-129200500D01*
X46568507Y-129200499D01*
X46903394Y-129162767D01*
X47231954Y-129087776D01*
X47550051Y-128976469D01*
X47853686Y-128830246D01*
X48139039Y-128650946D01*
X48402523Y-128440825D01*
X48640825Y-128202523D01*
X48850946Y-127939039D01*
X49030246Y-127653686D01*
X49176469Y-127350051D01*
X49287776Y-127031954D01*
X49362767Y-126703394D01*
X49400500Y-126368504D01*
X49400500Y-126031496D01*
X49362767Y-125696606D01*
X49287776Y-125368046D01*
X49176469Y-125049949D01*
X49030246Y-124746314D01*
X48850946Y-124460961D01*
X48785354Y-124378711D01*
X54499500Y-124378711D01*
X54499500Y-124621288D01*
X54531161Y-124861785D01*
X54593947Y-125096104D01*
X54686773Y-125320205D01*
X54686776Y-125320212D01*
X54808064Y-125530289D01*
X54808066Y-125530292D01*
X54808067Y-125530293D01*
X54955733Y-125722736D01*
X54955739Y-125722743D01*
X55127256Y-125894260D01*
X55127262Y-125894265D01*
X55319711Y-126041936D01*
X55529788Y-126163224D01*
X55753900Y-126256054D01*
X55988211Y-126318838D01*
X56168586Y-126342584D01*
X56228711Y-126350500D01*
X56228712Y-126350500D01*
X56471289Y-126350500D01*
X56519388Y-126344167D01*
X56711789Y-126318838D01*
X56946100Y-126256054D01*
X57170212Y-126163224D01*
X57380289Y-126041936D01*
X57572738Y-125894265D01*
X57744265Y-125722738D01*
X57891936Y-125530289D01*
X58013224Y-125320212D01*
X58106054Y-125096100D01*
X58168838Y-124861789D01*
X58200500Y-124621288D01*
X58200500Y-124378712D01*
X58200500Y-124378711D01*
X67199500Y-124378711D01*
X67199500Y-124621288D01*
X67231161Y-124861785D01*
X67293947Y-125096104D01*
X67386773Y-125320205D01*
X67386776Y-125320212D01*
X67508064Y-125530289D01*
X67508066Y-125530292D01*
X67508067Y-125530293D01*
X67655733Y-125722736D01*
X67655739Y-125722743D01*
X67827256Y-125894260D01*
X67827262Y-125894265D01*
X68019711Y-126041936D01*
X68229788Y-126163224D01*
X68453900Y-126256054D01*
X68688211Y-126318838D01*
X68868586Y-126342584D01*
X68928711Y-126350500D01*
X68928712Y-126350500D01*
X69171289Y-126350500D01*
X69219388Y-126344167D01*
X69411789Y-126318838D01*
X69646100Y-126256054D01*
X69870212Y-126163224D01*
X70080289Y-126041936D01*
X70272738Y-125894265D01*
X70444265Y-125722738D01*
X70591936Y-125530289D01*
X70713224Y-125320212D01*
X70806054Y-125096100D01*
X70868838Y-124861789D01*
X70900500Y-124621288D01*
X70900500Y-124378712D01*
X70868838Y-124138211D01*
X70806054Y-123903900D01*
X70713224Y-123679788D01*
X70591936Y-123469711D01*
X70471092Y-123312224D01*
X70444266Y-123277263D01*
X70444260Y-123277256D01*
X70272743Y-123105739D01*
X70272736Y-123105733D01*
X70080293Y-122958067D01*
X70080292Y-122958066D01*
X70080289Y-122958064D01*
X69870212Y-122836776D01*
X69870205Y-122836773D01*
X69646104Y-122743947D01*
X69411785Y-122681161D01*
X69171289Y-122649500D01*
X69171288Y-122649500D01*
X68928712Y-122649500D01*
X68928711Y-122649500D01*
X68688214Y-122681161D01*
X68453895Y-122743947D01*
X68229794Y-122836773D01*
X68229785Y-122836777D01*
X68019706Y-122958067D01*
X67827263Y-123105733D01*
X67827256Y-123105739D01*
X67655739Y-123277256D01*
X67655733Y-123277263D01*
X67508067Y-123469706D01*
X67386777Y-123679785D01*
X67386773Y-123679794D01*
X67293947Y-123903895D01*
X67231161Y-124138214D01*
X67199500Y-124378711D01*
X58200500Y-124378711D01*
X58168838Y-124138211D01*
X58106054Y-123903900D01*
X58013224Y-123679788D01*
X57891936Y-123469711D01*
X57771092Y-123312224D01*
X57744266Y-123277263D01*
X57744260Y-123277256D01*
X57572743Y-123105739D01*
X57572736Y-123105733D01*
X57380293Y-122958067D01*
X57380292Y-122958066D01*
X57380289Y-122958064D01*
X57170212Y-122836776D01*
X57170205Y-122836773D01*
X56946104Y-122743947D01*
X56711785Y-122681161D01*
X56471289Y-122649500D01*
X56471288Y-122649500D01*
X56228712Y-122649500D01*
X56228711Y-122649500D01*
X55988214Y-122681161D01*
X55753895Y-122743947D01*
X55529794Y-122836773D01*
X55529785Y-122836777D01*
X55319706Y-122958067D01*
X55127263Y-123105733D01*
X55127256Y-123105739D01*
X54955739Y-123277256D01*
X54955733Y-123277263D01*
X54808067Y-123469706D01*
X54686777Y-123679785D01*
X54686773Y-123679794D01*
X54593947Y-123903895D01*
X54531161Y-124138214D01*
X54499500Y-124378711D01*
X48785354Y-124378711D01*
X48640825Y-124197477D01*
X48402523Y-123959175D01*
X48139039Y-123749054D01*
X47853686Y-123569754D01*
X47853683Y-123569752D01*
X47550054Y-123423532D01*
X47231965Y-123312227D01*
X47231953Y-123312223D01*
X46903397Y-123237233D01*
X46903381Y-123237231D01*
X46568508Y-123199500D01*
X46568504Y-123199500D01*
X46231496Y-123199500D01*
X46231491Y-123199500D01*
X45896618Y-123237231D01*
X45896602Y-123237233D01*
X45568046Y-123312223D01*
X45568034Y-123312227D01*
X45249945Y-123423532D01*
X44946316Y-123569752D01*
X44660962Y-123749053D01*
X44397477Y-123959174D01*
X44159174Y-124197477D01*
X43949053Y-124460962D01*
X43769752Y-124746316D01*
X43623532Y-125049945D01*
X43512227Y-125368034D01*
X43512223Y-125368046D01*
X43437233Y-125696602D01*
X43437231Y-125696618D01*
X43399500Y-126031491D01*
X42650500Y-126031491D01*
X42650500Y-120958592D01*
X53154500Y-120958592D01*
X53154500Y-121181407D01*
X53184475Y-121370662D01*
X53189354Y-121401464D01*
X53258205Y-121613363D01*
X53359356Y-121811884D01*
X53490317Y-121992136D01*
X53647864Y-122149683D01*
X53828116Y-122280644D01*
X54026637Y-122381795D01*
X54238536Y-122450646D01*
X54321059Y-122463716D01*
X54458593Y-122485500D01*
X54458598Y-122485500D01*
X54681407Y-122485500D01*
X54803658Y-122466136D01*
X54901464Y-122450646D01*
X55113363Y-122381795D01*
X55311884Y-122280644D01*
X55492136Y-122149683D01*
X55649683Y-121992136D01*
X55780644Y-121811884D01*
X55881795Y-121613363D01*
X55950646Y-121401464D01*
X55966136Y-121303658D01*
X55985500Y-121181407D01*
X55985500Y-120958592D01*
X55955524Y-120769334D01*
X55950646Y-120738536D01*
X55881795Y-120526637D01*
X55780644Y-120328116D01*
X55655403Y-120155737D01*
X55655403Y-120155736D01*
X55649687Y-120147870D01*
X55649683Y-120147864D01*
X55590759Y-120088940D01*
X58219500Y-120088940D01*
X58219500Y-120271059D01*
X58255026Y-120449659D01*
X58255028Y-120449667D01*
X58324717Y-120617912D01*
X58324722Y-120617921D01*
X58425893Y-120769333D01*
X58425896Y-120769337D01*
X58554662Y-120898103D01*
X58554666Y-120898106D01*
X58706078Y-120999277D01*
X58706084Y-120999280D01*
X58706085Y-120999281D01*
X58874333Y-121068972D01*
X58997966Y-121093564D01*
X59052940Y-121104499D01*
X59052944Y-121104500D01*
X59052945Y-121104500D01*
X59235056Y-121104500D01*
X59235057Y-121104499D01*
X59310154Y-121089562D01*
X59419642Y-121067784D01*
X59419876Y-121068960D01*
X59483382Y-121068388D01*
X59542498Y-121105631D01*
X59572095Y-121168922D01*
X59562775Y-121238167D01*
X59537203Y-121275356D01*
X59441893Y-121370666D01*
X59340722Y-121522078D01*
X59340717Y-121522087D01*
X59271028Y-121690332D01*
X59271026Y-121690340D01*
X59235500Y-121868940D01*
X59235500Y-122051059D01*
X59271026Y-122229659D01*
X59271028Y-122229667D01*
X59340717Y-122397912D01*
X59340722Y-122397921D01*
X59441893Y-122549333D01*
X59441896Y-122549337D01*
X59570662Y-122678103D01*
X59570666Y-122678106D01*
X59722078Y-122779277D01*
X59722084Y-122779280D01*
X59722085Y-122779281D01*
X59890333Y-122848972D01*
X60010462Y-122872867D01*
X60068940Y-122884499D01*
X60068944Y-122884500D01*
X60068945Y-122884500D01*
X60251056Y-122884500D01*
X60251057Y-122884499D01*
X60429667Y-122848972D01*
X60597915Y-122779281D01*
X60749334Y-122678106D01*
X60878106Y-122549334D01*
X60979281Y-122397915D01*
X61048972Y-122229667D01*
X61054383Y-122202466D01*
X61086767Y-122140555D01*
X61147483Y-122105981D01*
X61217253Y-122109720D01*
X61273925Y-122150586D01*
X61297617Y-122202466D01*
X61303026Y-122229659D01*
X61303028Y-122229667D01*
X61372717Y-122397912D01*
X61372722Y-122397921D01*
X61473893Y-122549333D01*
X61473896Y-122549337D01*
X61602662Y-122678103D01*
X61602666Y-122678106D01*
X61754078Y-122779277D01*
X61754084Y-122779280D01*
X61754085Y-122779281D01*
X61922333Y-122848972D01*
X62042462Y-122872867D01*
X62100940Y-122884499D01*
X62100944Y-122884500D01*
X62100945Y-122884500D01*
X62283056Y-122884500D01*
X62283057Y-122884499D01*
X62461667Y-122848972D01*
X62629915Y-122779281D01*
X62781334Y-122678106D01*
X62910106Y-122549334D01*
X63011281Y-122397915D01*
X63080972Y-122229667D01*
X63086383Y-122202466D01*
X63118767Y-122140555D01*
X63179483Y-122105981D01*
X63249253Y-122109720D01*
X63305925Y-122150586D01*
X63329617Y-122202466D01*
X63335026Y-122229659D01*
X63335028Y-122229667D01*
X63404717Y-122397912D01*
X63404722Y-122397921D01*
X63505893Y-122549333D01*
X63505896Y-122549337D01*
X63634662Y-122678103D01*
X63634666Y-122678106D01*
X63786078Y-122779277D01*
X63786084Y-122779280D01*
X63786085Y-122779281D01*
X63954333Y-122848972D01*
X64074462Y-122872867D01*
X64132940Y-122884499D01*
X64132944Y-122884500D01*
X64132945Y-122884500D01*
X64315056Y-122884500D01*
X64315057Y-122884499D01*
X64493667Y-122848972D01*
X64661915Y-122779281D01*
X64813334Y-122678106D01*
X64942106Y-122549334D01*
X65043281Y-122397915D01*
X65092939Y-122278029D01*
X65136780Y-122223627D01*
X65203074Y-122201562D01*
X65270773Y-122218841D01*
X65318384Y-122269978D01*
X65331500Y-122325483D01*
X65331500Y-122703752D01*
X65343131Y-122762229D01*
X65343132Y-122762230D01*
X65387447Y-122828552D01*
X65453769Y-122872867D01*
X65453770Y-122872868D01*
X65512247Y-122884499D01*
X65512250Y-122884500D01*
X65512252Y-122884500D01*
X66999750Y-122884500D01*
X66999751Y-122884499D01*
X67014568Y-122881552D01*
X67058229Y-122872868D01*
X67058229Y-122872867D01*
X67058231Y-122872867D01*
X67124552Y-122828552D01*
X67168867Y-122762231D01*
X67168867Y-122762229D01*
X67168868Y-122762229D01*
X67180499Y-122703752D01*
X67180500Y-122703750D01*
X67180500Y-121216249D01*
X67180499Y-121216247D01*
X67168868Y-121157770D01*
X67168867Y-121157769D01*
X67124552Y-121091447D01*
X67072741Y-121056828D01*
X67058230Y-121047132D01*
X67058229Y-121047131D01*
X66999752Y-121035500D01*
X66999748Y-121035500D01*
X65991303Y-121035500D01*
X65924264Y-121015815D01*
X65878509Y-120963011D01*
X65877874Y-120958592D01*
X69414500Y-120958592D01*
X69414500Y-121181407D01*
X69444475Y-121370662D01*
X69449354Y-121401464D01*
X69518205Y-121613363D01*
X69619356Y-121811884D01*
X69750317Y-121992136D01*
X69907864Y-122149683D01*
X70088116Y-122280644D01*
X70286637Y-122381795D01*
X70498536Y-122450646D01*
X70581059Y-122463716D01*
X70718593Y-122485500D01*
X70718598Y-122485500D01*
X70941407Y-122485500D01*
X71063658Y-122466136D01*
X71161464Y-122450646D01*
X71373363Y-122381795D01*
X71571884Y-122280644D01*
X71752136Y-122149683D01*
X71909683Y-121992136D01*
X72040644Y-121811884D01*
X72141795Y-121613363D01*
X72210646Y-121401464D01*
X72226136Y-121303658D01*
X72245500Y-121181407D01*
X72245500Y-120958592D01*
X72215524Y-120769334D01*
X72210646Y-120738536D01*
X72141795Y-120526637D01*
X72040644Y-120328116D01*
X71909683Y-120147864D01*
X71899218Y-120137399D01*
X72524500Y-120137399D01*
X72524500Y-120262601D01*
X72556905Y-120383536D01*
X72619505Y-120491964D01*
X72708036Y-120580495D01*
X72816464Y-120643095D01*
X72937399Y-120675500D01*
X72937401Y-120675500D01*
X73062599Y-120675500D01*
X73062601Y-120675500D01*
X73183536Y-120643095D01*
X73291964Y-120580495D01*
X73380495Y-120491964D01*
X73443095Y-120383536D01*
X73475500Y-120262601D01*
X73475500Y-120137399D01*
X73443095Y-120016464D01*
X73380495Y-119908036D01*
X73291964Y-119819505D01*
X73183536Y-119756905D01*
X73183537Y-119756905D01*
X73128228Y-119742085D01*
X73062601Y-119724500D01*
X72937399Y-119724500D01*
X72871772Y-119742085D01*
X72816463Y-119756905D01*
X72708037Y-119819504D01*
X72708034Y-119819506D01*
X72619506Y-119908034D01*
X72619504Y-119908037D01*
X72556905Y-120016463D01*
X72556905Y-120016464D01*
X72524500Y-120137399D01*
X71899218Y-120137399D01*
X71752136Y-119990317D01*
X71571884Y-119859356D01*
X71373363Y-119758205D01*
X71161464Y-119689354D01*
X71161462Y-119689353D01*
X71161460Y-119689353D01*
X70941407Y-119654500D01*
X70941402Y-119654500D01*
X70718598Y-119654500D01*
X70718593Y-119654500D01*
X70498539Y-119689353D01*
X70498536Y-119689354D01*
X70336243Y-119742087D01*
X70286634Y-119758206D01*
X70088115Y-119859356D01*
X69985275Y-119934074D01*
X69907864Y-119990317D01*
X69907862Y-119990319D01*
X69907861Y-119990319D01*
X69750319Y-120147861D01*
X69750319Y-120147862D01*
X69750317Y-120147864D01*
X69710871Y-120202157D01*
X69619356Y-120328115D01*
X69518206Y-120526634D01*
X69449353Y-120738539D01*
X69414500Y-120958592D01*
X65877874Y-120958592D01*
X65868565Y-120893853D01*
X65897590Y-120830297D01*
X65903622Y-120823819D01*
X65958103Y-120769337D01*
X65958106Y-120769334D01*
X66059281Y-120617915D01*
X66128972Y-120449667D01*
X66164500Y-120271055D01*
X66164500Y-120088945D01*
X66128972Y-119910333D01*
X66059281Y-119742085D01*
X66059280Y-119742084D01*
X66059277Y-119742078D01*
X65958106Y-119590666D01*
X65958103Y-119590662D01*
X65829337Y-119461896D01*
X65829333Y-119461893D01*
X65677921Y-119360722D01*
X65677912Y-119360717D01*
X65509667Y-119291028D01*
X65509659Y-119291026D01*
X65331059Y-119255500D01*
X65331055Y-119255500D01*
X65148945Y-119255500D01*
X65148940Y-119255500D01*
X64970340Y-119291026D01*
X64970332Y-119291028D01*
X64802087Y-119360717D01*
X64802078Y-119360722D01*
X64650666Y-119461893D01*
X64650662Y-119461896D01*
X64521896Y-119590662D01*
X64521893Y-119590666D01*
X64420722Y-119742078D01*
X64420717Y-119742087D01*
X64351028Y-119910332D01*
X64351026Y-119910340D01*
X64345617Y-119937533D01*
X64313232Y-119999444D01*
X64252516Y-120034019D01*
X64182747Y-120030279D01*
X64126075Y-119989412D01*
X64102383Y-119937533D01*
X64096973Y-119910340D01*
X64096972Y-119910333D01*
X64027281Y-119742085D01*
X64027280Y-119742084D01*
X64027277Y-119742078D01*
X63926106Y-119590666D01*
X63926103Y-119590662D01*
X63797337Y-119461896D01*
X63797333Y-119461893D01*
X63645921Y-119360722D01*
X63645912Y-119360717D01*
X63477667Y-119291028D01*
X63477659Y-119291026D01*
X63299059Y-119255500D01*
X63299055Y-119255500D01*
X63116945Y-119255500D01*
X63116940Y-119255500D01*
X62938340Y-119291026D01*
X62938332Y-119291028D01*
X62770087Y-119360717D01*
X62770078Y-119360722D01*
X62618666Y-119461893D01*
X62618662Y-119461896D01*
X62489896Y-119590662D01*
X62489893Y-119590666D01*
X62388722Y-119742078D01*
X62388717Y-119742087D01*
X62319028Y-119910332D01*
X62319026Y-119910340D01*
X62313617Y-119937533D01*
X62281232Y-119999444D01*
X62220516Y-120034019D01*
X62150747Y-120030279D01*
X62094075Y-119989412D01*
X62070383Y-119937533D01*
X62064973Y-119910340D01*
X62064972Y-119910333D01*
X61995281Y-119742085D01*
X61995280Y-119742084D01*
X61995277Y-119742078D01*
X61894106Y-119590666D01*
X61894103Y-119590662D01*
X61765337Y-119461896D01*
X61765333Y-119461893D01*
X61613921Y-119360722D01*
X61613912Y-119360717D01*
X61445667Y-119291028D01*
X61445659Y-119291026D01*
X61267059Y-119255500D01*
X61267055Y-119255500D01*
X61084945Y-119255500D01*
X61084940Y-119255500D01*
X60906340Y-119291026D01*
X60906332Y-119291028D01*
X60738087Y-119360717D01*
X60738078Y-119360722D01*
X60586666Y-119461893D01*
X60586662Y-119461896D01*
X60457896Y-119590662D01*
X60457893Y-119590666D01*
X60356722Y-119742078D01*
X60356717Y-119742087D01*
X60287028Y-119910332D01*
X60287026Y-119910340D01*
X60281617Y-119937533D01*
X60249232Y-119999444D01*
X60188516Y-120034019D01*
X60118747Y-120030279D01*
X60062075Y-119989412D01*
X60038383Y-119937533D01*
X60032973Y-119910340D01*
X60032972Y-119910333D01*
X59963281Y-119742085D01*
X59963280Y-119742084D01*
X59963277Y-119742078D01*
X59862106Y-119590666D01*
X59862103Y-119590662D01*
X59733337Y-119461896D01*
X59733333Y-119461893D01*
X59581921Y-119360722D01*
X59581912Y-119360717D01*
X59413667Y-119291028D01*
X59413659Y-119291026D01*
X59235059Y-119255500D01*
X59235055Y-119255500D01*
X59052945Y-119255500D01*
X59052940Y-119255500D01*
X58874340Y-119291026D01*
X58874332Y-119291028D01*
X58706087Y-119360717D01*
X58706078Y-119360722D01*
X58554666Y-119461893D01*
X58554662Y-119461896D01*
X58425896Y-119590662D01*
X58425893Y-119590666D01*
X58324722Y-119742078D01*
X58324717Y-119742087D01*
X58255028Y-119910332D01*
X58255026Y-119910340D01*
X58219500Y-120088940D01*
X55590759Y-120088940D01*
X55492136Y-119990317D01*
X55311884Y-119859356D01*
X55113363Y-119758205D01*
X54901464Y-119689354D01*
X54901462Y-119689353D01*
X54901460Y-119689353D01*
X54681407Y-119654500D01*
X54681402Y-119654500D01*
X54458598Y-119654500D01*
X54458593Y-119654500D01*
X54238539Y-119689353D01*
X54238536Y-119689354D01*
X54076243Y-119742087D01*
X54026634Y-119758206D01*
X53828115Y-119859356D01*
X53725275Y-119934074D01*
X53647864Y-119990317D01*
X53647862Y-119990319D01*
X53647861Y-119990319D01*
X53490319Y-120147861D01*
X53490319Y-120147862D01*
X53490317Y-120147864D01*
X53450871Y-120202157D01*
X53359356Y-120328115D01*
X53258206Y-120526634D01*
X53189353Y-120738539D01*
X53154500Y-120958592D01*
X42650500Y-120958592D01*
X42650500Y-113737399D01*
X61124500Y-113737399D01*
X61124500Y-113862601D01*
X61156905Y-113983536D01*
X61219505Y-114091964D01*
X61308036Y-114180495D01*
X61416464Y-114243095D01*
X61537399Y-114275500D01*
X61537401Y-114275500D01*
X61662599Y-114275500D01*
X61662601Y-114275500D01*
X61783536Y-114243095D01*
X61891964Y-114180495D01*
X61980495Y-114091964D01*
X62043095Y-113983536D01*
X62075500Y-113862601D01*
X62075500Y-113737399D01*
X62824500Y-113737399D01*
X62824500Y-113862601D01*
X62856905Y-113983536D01*
X62919505Y-114091964D01*
X63008036Y-114180495D01*
X63116464Y-114243095D01*
X63237399Y-114275500D01*
X63237401Y-114275500D01*
X63362599Y-114275500D01*
X63362601Y-114275500D01*
X63483536Y-114243095D01*
X63591964Y-114180495D01*
X63680495Y-114091964D01*
X63743095Y-113983536D01*
X63775500Y-113862601D01*
X63775500Y-113737399D01*
X63743095Y-113616464D01*
X63680495Y-113508036D01*
X63591964Y-113419505D01*
X63483536Y-113356905D01*
X63483537Y-113356905D01*
X63443224Y-113346103D01*
X63362601Y-113324500D01*
X63237399Y-113324500D01*
X63156775Y-113346103D01*
X63116463Y-113356905D01*
X63008037Y-113419504D01*
X63008034Y-113419506D01*
X62919506Y-113508034D01*
X62919504Y-113508037D01*
X62856905Y-113616463D01*
X62856905Y-113616464D01*
X62824500Y-113737399D01*
X62075500Y-113737399D01*
X62043095Y-113616464D01*
X61980495Y-113508036D01*
X61891964Y-113419505D01*
X61783536Y-113356905D01*
X61783537Y-113356905D01*
X61743224Y-113346103D01*
X61662601Y-113324500D01*
X61537399Y-113324500D01*
X61456775Y-113346103D01*
X61416463Y-113356905D01*
X61308037Y-113419504D01*
X61308034Y-113419506D01*
X61219506Y-113508034D01*
X61219504Y-113508037D01*
X61156905Y-113616463D01*
X61156905Y-113616464D01*
X61124500Y-113737399D01*
X42650500Y-113737399D01*
X42650500Y-112037399D01*
X55224500Y-112037399D01*
X55224500Y-112162601D01*
X55256905Y-112283536D01*
X55319505Y-112391964D01*
X55408036Y-112480495D01*
X55516464Y-112543095D01*
X55637399Y-112575500D01*
X55637401Y-112575500D01*
X55762599Y-112575500D01*
X55762601Y-112575500D01*
X55883536Y-112543095D01*
X55991964Y-112480495D01*
X56080495Y-112391964D01*
X56143095Y-112283536D01*
X56175500Y-112162601D01*
X56175500Y-112037399D01*
X56143095Y-111916464D01*
X56080495Y-111808036D01*
X55991964Y-111719505D01*
X55883536Y-111656905D01*
X55883537Y-111656905D01*
X55843224Y-111646103D01*
X55762601Y-111624500D01*
X55637399Y-111624500D01*
X55556775Y-111646103D01*
X55516463Y-111656905D01*
X55408037Y-111719504D01*
X55408034Y-111719506D01*
X55319506Y-111808034D01*
X55319504Y-111808037D01*
X55256905Y-111916463D01*
X55256905Y-111916464D01*
X55224500Y-112037399D01*
X42650500Y-112037399D01*
X42650500Y-109775985D01*
X69495500Y-109775985D01*
X69495500Y-109964014D01*
X69532179Y-110148409D01*
X69532182Y-110148421D01*
X69604129Y-110322118D01*
X69604136Y-110322131D01*
X69708591Y-110478457D01*
X69708594Y-110478461D01*
X69841538Y-110611405D01*
X69841542Y-110611408D01*
X69997868Y-110715863D01*
X69997881Y-110715870D01*
X70171578Y-110787817D01*
X70171583Y-110787819D01*
X70355985Y-110824499D01*
X70355988Y-110824500D01*
X70355990Y-110824500D01*
X70544012Y-110824500D01*
X70544013Y-110824499D01*
X70728417Y-110787819D01*
X70902125Y-110715867D01*
X71058458Y-110611408D01*
X71191408Y-110478458D01*
X71295867Y-110322125D01*
X71367819Y-110148417D01*
X71404500Y-109964010D01*
X71404500Y-109775990D01*
X71404500Y-109775987D01*
X71404499Y-109775985D01*
X71367820Y-109591590D01*
X71367819Y-109591583D01*
X71321805Y-109480495D01*
X71295870Y-109417881D01*
X71295863Y-109417868D01*
X71191408Y-109261542D01*
X71191405Y-109261538D01*
X71058461Y-109128594D01*
X71058457Y-109128591D01*
X70902131Y-109024136D01*
X70902118Y-109024129D01*
X70728421Y-108952182D01*
X70728409Y-108952179D01*
X70544013Y-108915500D01*
X70544010Y-108915500D01*
X70355990Y-108915500D01*
X70355987Y-108915500D01*
X70171590Y-108952179D01*
X70171578Y-108952182D01*
X69997881Y-109024129D01*
X69997868Y-109024136D01*
X69841542Y-109128591D01*
X69841538Y-109128594D01*
X69708594Y-109261538D01*
X69708591Y-109261542D01*
X69604136Y-109417868D01*
X69604129Y-109417881D01*
X69532182Y-109591578D01*
X69532179Y-109591590D01*
X69495500Y-109775985D01*
X42650500Y-109775985D01*
X42650500Y-109037399D01*
X62824500Y-109037399D01*
X62824500Y-109162601D01*
X62856905Y-109283536D01*
X62919505Y-109391964D01*
X63008036Y-109480495D01*
X63116464Y-109543095D01*
X63237399Y-109575500D01*
X63237401Y-109575500D01*
X63362599Y-109575500D01*
X63362601Y-109575500D01*
X63483536Y-109543095D01*
X63591964Y-109480495D01*
X63680495Y-109391964D01*
X63743095Y-109283536D01*
X63775500Y-109162601D01*
X63775500Y-109037399D01*
X63743095Y-108916464D01*
X63680495Y-108808036D01*
X63591964Y-108719505D01*
X63483536Y-108656905D01*
X63483537Y-108656905D01*
X63443224Y-108646103D01*
X63362601Y-108624500D01*
X63237399Y-108624500D01*
X63156775Y-108646103D01*
X63116463Y-108656905D01*
X63008037Y-108719504D01*
X63008034Y-108719506D01*
X62919506Y-108808034D01*
X62919504Y-108808037D01*
X62856905Y-108916463D01*
X62856905Y-108916464D01*
X62824500Y-109037399D01*
X42650500Y-109037399D01*
X42650500Y-106324000D01*
X42670185Y-106256961D01*
X42722989Y-106211206D01*
X42774500Y-106200000D01*
X70060443Y-106200000D01*
X70127482Y-106219685D01*
G37*
%TD.AperFunction*%
%TD*%
%TA.AperFunction,Conductor*%
%TO.N,+5V_CAN1*%
G36*
X101134037Y-106219685D02*
G01*
X101179792Y-106272489D01*
X101189736Y-106341647D01*
X101160711Y-106405203D01*
X101144585Y-106420002D01*
X101144510Y-106420957D01*
X101708091Y-106984537D01*
X101644507Y-107001575D01*
X101530493Y-107067401D01*
X101437401Y-107160493D01*
X101371575Y-107274507D01*
X101354537Y-107338090D01*
X100790957Y-106774510D01*
X100790956Y-106774510D01*
X100764983Y-106810260D01*
X100764982Y-106810262D01*
X100675373Y-106986126D01*
X100614376Y-107173853D01*
X100583500Y-107368802D01*
X100583500Y-107566197D01*
X100614376Y-107761146D01*
X100675373Y-107948873D01*
X100764983Y-108124739D01*
X100790957Y-108160488D01*
X100790957Y-108160489D01*
X101354537Y-107596909D01*
X101371575Y-107660493D01*
X101437401Y-107774507D01*
X101530493Y-107867599D01*
X101644507Y-107933425D01*
X101708090Y-107950462D01*
X101144509Y-108514041D01*
X101144510Y-108514042D01*
X101180255Y-108540012D01*
X101180268Y-108540020D01*
X101356126Y-108629626D01*
X101543853Y-108690623D01*
X101738803Y-108721500D01*
X101936197Y-108721500D01*
X102131146Y-108690623D01*
X102318873Y-108629626D01*
X102494741Y-108540016D01*
X102510487Y-108528575D01*
X110500000Y-108528575D01*
X110500000Y-108751424D01*
X110529085Y-108972354D01*
X110529088Y-108972367D01*
X110586763Y-109187618D01*
X110672045Y-109393502D01*
X110672054Y-109393520D01*
X110783464Y-109586491D01*
X110783473Y-109586504D01*
X110834040Y-109652403D01*
X110834043Y-109652403D01*
X111484152Y-109002293D01*
X111491049Y-109018942D01*
X111578599Y-109149970D01*
X111690030Y-109261401D01*
X111821058Y-109348951D01*
X111837705Y-109355846D01*
X111187595Y-110005955D01*
X111187595Y-110005956D01*
X111253507Y-110056533D01*
X111446485Y-110167949D01*
X111446497Y-110167954D01*
X111652381Y-110253236D01*
X111867632Y-110310911D01*
X111867645Y-110310914D01*
X112088575Y-110340000D01*
X112311425Y-110340000D01*
X112532354Y-110310914D01*
X112532367Y-110310911D01*
X112747618Y-110253236D01*
X112953502Y-110167954D01*
X112953514Y-110167949D01*
X113146498Y-110056530D01*
X113212403Y-110005957D01*
X113212404Y-110005956D01*
X112562294Y-109355846D01*
X112578942Y-109348951D01*
X112709970Y-109261401D01*
X112821401Y-109149970D01*
X112908951Y-109018942D01*
X112915846Y-109002294D01*
X113565956Y-109652404D01*
X113565957Y-109652403D01*
X113616530Y-109586498D01*
X113727949Y-109393514D01*
X113727954Y-109393502D01*
X113813236Y-109187618D01*
X113870911Y-108972367D01*
X113870914Y-108972354D01*
X113900000Y-108751424D01*
X113900000Y-108528575D01*
X113870914Y-108307645D01*
X113870911Y-108307632D01*
X113813236Y-108092381D01*
X113727954Y-107886497D01*
X113727949Y-107886485D01*
X113616533Y-107693507D01*
X113565956Y-107627595D01*
X113565955Y-107627595D01*
X112915846Y-108277704D01*
X112908951Y-108261058D01*
X112821401Y-108130030D01*
X112709970Y-108018599D01*
X112578942Y-107931049D01*
X112562293Y-107924152D01*
X113212403Y-107274043D01*
X113212403Y-107274040D01*
X113146504Y-107223473D01*
X113146491Y-107223464D01*
X112953520Y-107112054D01*
X112953502Y-107112045D01*
X112747618Y-107026763D01*
X112532367Y-106969088D01*
X112532354Y-106969085D01*
X112311425Y-106940000D01*
X112088575Y-106940000D01*
X111867645Y-106969085D01*
X111867632Y-106969088D01*
X111652381Y-107026763D01*
X111446497Y-107112045D01*
X111446479Y-107112054D01*
X111253511Y-107223462D01*
X111187595Y-107274042D01*
X111837706Y-107924152D01*
X111821058Y-107931049D01*
X111690030Y-108018599D01*
X111578599Y-108130030D01*
X111491049Y-108261058D01*
X111484153Y-108277706D01*
X110834042Y-107627595D01*
X110783462Y-107693511D01*
X110672054Y-107886479D01*
X110672045Y-107886497D01*
X110586763Y-108092381D01*
X110529088Y-108307632D01*
X110529085Y-108307645D01*
X110500000Y-108528575D01*
X102510487Y-108528575D01*
X102530488Y-108514042D01*
X102530488Y-108514041D01*
X101966910Y-107950462D01*
X102030493Y-107933425D01*
X102144507Y-107867599D01*
X102237599Y-107774507D01*
X102303425Y-107660493D01*
X102320462Y-107596909D01*
X102884041Y-108160488D01*
X102884043Y-108160488D01*
X102910016Y-108124741D01*
X102999626Y-107948873D01*
X103060623Y-107761146D01*
X103091500Y-107566197D01*
X103091500Y-107368807D01*
X103087158Y-107341392D01*
X103087158Y-107341389D01*
X103060623Y-107173853D01*
X102999626Y-106986126D01*
X102910020Y-106810268D01*
X102910012Y-106810255D01*
X102884042Y-106774510D01*
X102884041Y-106774509D01*
X102320462Y-107338089D01*
X102303425Y-107274507D01*
X102237599Y-107160493D01*
X102144507Y-107067401D01*
X102030493Y-107001575D01*
X101966909Y-106984537D01*
X102530489Y-106420957D01*
X102530257Y-106418017D01*
X102492449Y-106368987D01*
X102486471Y-106299374D01*
X102519077Y-106237579D01*
X102579916Y-106203222D01*
X102608001Y-106200000D01*
X122025500Y-106200000D01*
X122092539Y-106219685D01*
X122138294Y-106272489D01*
X122149500Y-106324000D01*
X122149500Y-126196948D01*
X122149351Y-126203033D01*
X122131743Y-126561432D01*
X122130550Y-126573542D01*
X122078347Y-126925467D01*
X122075973Y-126937402D01*
X121989526Y-127282518D01*
X121985994Y-127294162D01*
X121866142Y-127629127D01*
X121861485Y-127640370D01*
X121709366Y-127962000D01*
X121703629Y-127972732D01*
X121520729Y-128277881D01*
X121513969Y-128287999D01*
X121302028Y-128573769D01*
X121294308Y-128583175D01*
X121055388Y-128846783D01*
X121046783Y-128855388D01*
X120783175Y-129094308D01*
X120773769Y-129102028D01*
X120487999Y-129313969D01*
X120477881Y-129320729D01*
X120172732Y-129503629D01*
X120162000Y-129509366D01*
X119840370Y-129661485D01*
X119829134Y-129666139D01*
X119705442Y-129710397D01*
X119494162Y-129785994D01*
X119482518Y-129789526D01*
X119137402Y-129875973D01*
X119125467Y-129878347D01*
X118773542Y-129930550D01*
X118761432Y-129931743D01*
X118423927Y-129948324D01*
X118403031Y-129949351D01*
X118396949Y-129949500D01*
X79524000Y-129949500D01*
X79456961Y-129929815D01*
X79411206Y-129877011D01*
X79400000Y-129825500D01*
X79400000Y-126031491D01*
X115399500Y-126031491D01*
X115399500Y-126368508D01*
X115437231Y-126703381D01*
X115437233Y-126703397D01*
X115512223Y-127031953D01*
X115512227Y-127031965D01*
X115623532Y-127350054D01*
X115769752Y-127653683D01*
X115769754Y-127653686D01*
X115949054Y-127939039D01*
X116159175Y-128202523D01*
X116397477Y-128440825D01*
X116660961Y-128650946D01*
X116946314Y-128830246D01*
X117249949Y-128976469D01*
X117488848Y-129060063D01*
X117568034Y-129087772D01*
X117568046Y-129087776D01*
X117896606Y-129162767D01*
X118231492Y-129200499D01*
X118231493Y-129200500D01*
X118231496Y-129200500D01*
X118568507Y-129200500D01*
X118568507Y-129200499D01*
X118903394Y-129162767D01*
X119231954Y-129087776D01*
X119550051Y-128976469D01*
X119853686Y-128830246D01*
X120139039Y-128650946D01*
X120402523Y-128440825D01*
X120640825Y-128202523D01*
X120850946Y-127939039D01*
X121030246Y-127653686D01*
X121176469Y-127350051D01*
X121287776Y-127031954D01*
X121362767Y-126703394D01*
X121400500Y-126368504D01*
X121400500Y-126031496D01*
X121362767Y-125696606D01*
X121287776Y-125368046D01*
X121176469Y-125049949D01*
X121030246Y-124746314D01*
X120850946Y-124460961D01*
X120640825Y-124197477D01*
X120402523Y-123959175D01*
X120139039Y-123749054D01*
X119853686Y-123569754D01*
X119853683Y-123569752D01*
X119550054Y-123423532D01*
X119231965Y-123312227D01*
X119231953Y-123312223D01*
X118903397Y-123237233D01*
X118903381Y-123237231D01*
X118568508Y-123199500D01*
X118568504Y-123199500D01*
X118231496Y-123199500D01*
X118231491Y-123199500D01*
X117896618Y-123237231D01*
X117896602Y-123237233D01*
X117568046Y-123312223D01*
X117568034Y-123312227D01*
X117249945Y-123423532D01*
X116946316Y-123569752D01*
X116660962Y-123749053D01*
X116397477Y-123959174D01*
X116159174Y-124197477D01*
X115949053Y-124460962D01*
X115769752Y-124746316D01*
X115623532Y-125049945D01*
X115512227Y-125368034D01*
X115512223Y-125368046D01*
X115437233Y-125696602D01*
X115437231Y-125696618D01*
X115399500Y-126031491D01*
X79400000Y-126031491D01*
X79400000Y-120070730D01*
X83899500Y-120070730D01*
X83899500Y-121629269D01*
X83902353Y-121659699D01*
X83902353Y-121659701D01*
X83947206Y-121787880D01*
X83947207Y-121787882D01*
X84027850Y-121897150D01*
X84137118Y-121977793D01*
X84158089Y-121985131D01*
X84265299Y-122022646D01*
X84295730Y-122025500D01*
X84295734Y-122025500D01*
X85604270Y-122025500D01*
X85634699Y-122022646D01*
X85634701Y-122022646D01*
X85698790Y-122000219D01*
X85762882Y-121977793D01*
X85872150Y-121897150D01*
X85952793Y-121787882D01*
X85989648Y-121682557D01*
X85997646Y-121659701D01*
X85997646Y-121659699D01*
X86000500Y-121629269D01*
X86000500Y-120621530D01*
X86399500Y-120621530D01*
X86399500Y-121078469D01*
X86439868Y-121281412D01*
X86439870Y-121281420D01*
X86457921Y-121325000D01*
X86519059Y-121472598D01*
X86532836Y-121493217D01*
X86634024Y-121644657D01*
X86780342Y-121790975D01*
X86780345Y-121790977D01*
X86952402Y-121905941D01*
X87143580Y-121985130D01*
X87332187Y-122022646D01*
X87346530Y-122025499D01*
X87346534Y-122025500D01*
X87346535Y-122025500D01*
X87553466Y-122025500D01*
X87553467Y-122025499D01*
X87756420Y-121985130D01*
X87947598Y-121905941D01*
X88119655Y-121790977D01*
X88265977Y-121644655D01*
X88380941Y-121472598D01*
X88460130Y-121281420D01*
X88500500Y-121078465D01*
X88500500Y-120621535D01*
X88500499Y-120621530D01*
X88899500Y-120621530D01*
X88899500Y-121078469D01*
X88939868Y-121281412D01*
X88939870Y-121281420D01*
X88957921Y-121325000D01*
X89019059Y-121472598D01*
X89032836Y-121493217D01*
X89134024Y-121644657D01*
X89280342Y-121790975D01*
X89280345Y-121790977D01*
X89452402Y-121905941D01*
X89643580Y-121985130D01*
X89832187Y-122022646D01*
X89846530Y-122025499D01*
X89846534Y-122025500D01*
X89846535Y-122025500D01*
X90053466Y-122025500D01*
X90053467Y-122025499D01*
X90256420Y-121985130D01*
X90447598Y-121905941D01*
X90619655Y-121790977D01*
X90765977Y-121644655D01*
X90880941Y-121472598D01*
X90926748Y-121362009D01*
X90970589Y-121307606D01*
X91036883Y-121285541D01*
X91104582Y-121302820D01*
X91152193Y-121353957D01*
X91159240Y-121371144D01*
X91198904Y-121493216D01*
X91295379Y-121682557D01*
X91420272Y-121854459D01*
X91420276Y-121854464D01*
X91570535Y-122004723D01*
X91570540Y-122004727D01*
X91742442Y-122129620D01*
X91931782Y-122226095D01*
X92133871Y-122291757D01*
X92200000Y-122302231D01*
X92200000Y-121254145D01*
X92266657Y-121292630D01*
X92387465Y-121325000D01*
X92512535Y-121325000D01*
X92633343Y-121292630D01*
X92700000Y-121254145D01*
X92700000Y-122302230D01*
X92766126Y-122291757D01*
X92766129Y-122291757D01*
X92968217Y-122226095D01*
X93157557Y-122129620D01*
X93329459Y-122004727D01*
X93329464Y-122004723D01*
X93479723Y-121854464D01*
X93479727Y-121854459D01*
X93604620Y-121682557D01*
X93701095Y-121493217D01*
X93766757Y-121291130D01*
X93766757Y-121291127D01*
X93797030Y-121100000D01*
X92854146Y-121100000D01*
X92892630Y-121033343D01*
X92925000Y-120912535D01*
X92925000Y-120787465D01*
X92892630Y-120666657D01*
X92854146Y-120600000D01*
X93797030Y-120600000D01*
X93766757Y-120408872D01*
X93766757Y-120408869D01*
X93701095Y-120206782D01*
X93658982Y-120124130D01*
X93658981Y-120124128D01*
X93631773Y-120070730D01*
X99499500Y-120070730D01*
X99499500Y-121629269D01*
X99502353Y-121659699D01*
X99502353Y-121659701D01*
X99547206Y-121787880D01*
X99547207Y-121787882D01*
X99627850Y-121897150D01*
X99737118Y-121977793D01*
X99758089Y-121985131D01*
X99865299Y-122022646D01*
X99895730Y-122025500D01*
X99895734Y-122025500D01*
X101204270Y-122025500D01*
X101234699Y-122022646D01*
X101234701Y-122022646D01*
X101298790Y-122000219D01*
X101362882Y-121977793D01*
X101472150Y-121897150D01*
X101552793Y-121787882D01*
X101589648Y-121682557D01*
X101597646Y-121659701D01*
X101597646Y-121659699D01*
X101600500Y-121629269D01*
X101600500Y-120621530D01*
X101999500Y-120621530D01*
X101999500Y-121078469D01*
X102039868Y-121281412D01*
X102039870Y-121281420D01*
X102057921Y-121325000D01*
X102119059Y-121472598D01*
X102132836Y-121493217D01*
X102234024Y-121644657D01*
X102380342Y-121790975D01*
X102380345Y-121790977D01*
X102552402Y-121905941D01*
X102743580Y-121985130D01*
X102932187Y-122022646D01*
X102946530Y-122025499D01*
X102946534Y-122025500D01*
X102946535Y-122025500D01*
X103153466Y-122025500D01*
X103153467Y-122025499D01*
X103356420Y-121985130D01*
X103547598Y-121905941D01*
X103719655Y-121790977D01*
X103865977Y-121644655D01*
X103980941Y-121472598D01*
X104060130Y-121281420D01*
X104100500Y-121078465D01*
X104100500Y-120621535D01*
X104100499Y-120621530D01*
X104499500Y-120621530D01*
X104499500Y-121078469D01*
X104539868Y-121281412D01*
X104539870Y-121281420D01*
X104557921Y-121325000D01*
X104619059Y-121472598D01*
X104632836Y-121493217D01*
X104734024Y-121644657D01*
X104880342Y-121790975D01*
X104880345Y-121790977D01*
X105052402Y-121905941D01*
X105243580Y-121985130D01*
X105432187Y-122022646D01*
X105446530Y-122025499D01*
X105446534Y-122025500D01*
X105446535Y-122025500D01*
X105653466Y-122025500D01*
X105653467Y-122025499D01*
X105856420Y-121985130D01*
X106047598Y-121905941D01*
X106219655Y-121790977D01*
X106365977Y-121644655D01*
X106480941Y-121472598D01*
X106526748Y-121362009D01*
X106570589Y-121307606D01*
X106636883Y-121285541D01*
X106704582Y-121302820D01*
X106752193Y-121353957D01*
X106759240Y-121371144D01*
X106798904Y-121493216D01*
X106895379Y-121682557D01*
X107020272Y-121854459D01*
X107020276Y-121854464D01*
X107170535Y-122004723D01*
X107170540Y-122004727D01*
X107342442Y-122129620D01*
X107531782Y-122226095D01*
X107733871Y-122291757D01*
X107800000Y-122302231D01*
X107800000Y-121254145D01*
X107866657Y-121292630D01*
X107987465Y-121325000D01*
X108112535Y-121325000D01*
X108233343Y-121292630D01*
X108300000Y-121254145D01*
X108300000Y-122302230D01*
X108366126Y-122291757D01*
X108366129Y-122291757D01*
X108568217Y-122226095D01*
X108757557Y-122129620D01*
X108929459Y-122004727D01*
X108929464Y-122004723D01*
X109079723Y-121854464D01*
X109079727Y-121854459D01*
X109204620Y-121682557D01*
X109301095Y-121493217D01*
X109366757Y-121291130D01*
X109366757Y-121291127D01*
X109397030Y-121100000D01*
X108454146Y-121100000D01*
X108492630Y-121033343D01*
X108525000Y-120912535D01*
X108525000Y-120787465D01*
X108492630Y-120666657D01*
X108454146Y-120600000D01*
X109397030Y-120600000D01*
X109366758Y-120408873D01*
X109353344Y-120367590D01*
X109353343Y-120367588D01*
X109343534Y-120337399D01*
X113224500Y-120337399D01*
X113224500Y-120462601D01*
X113256905Y-120583536D01*
X113319505Y-120691964D01*
X113408036Y-120780495D01*
X113516464Y-120843095D01*
X113637399Y-120875500D01*
X113637401Y-120875500D01*
X113762599Y-120875500D01*
X113762601Y-120875500D01*
X113883536Y-120843095D01*
X113991964Y-120780495D01*
X114080495Y-120691964D01*
X114143095Y-120583536D01*
X114175500Y-120462601D01*
X114175500Y-120337399D01*
X114143095Y-120216464D01*
X114080495Y-120108036D01*
X113991964Y-120019505D01*
X113883536Y-119956905D01*
X113883537Y-119956905D01*
X113843224Y-119946103D01*
X113762601Y-119924500D01*
X113637399Y-119924500D01*
X113556775Y-119946103D01*
X113516463Y-119956905D01*
X113408037Y-120019504D01*
X113408034Y-120019506D01*
X113319506Y-120108034D01*
X113319504Y-120108037D01*
X113256905Y-120216463D01*
X113256905Y-120216464D01*
X113224500Y-120337399D01*
X109343534Y-120337399D01*
X109301095Y-120206782D01*
X109204620Y-120017442D01*
X109079727Y-119845540D01*
X109079723Y-119845535D01*
X108929464Y-119695276D01*
X108929459Y-119695272D01*
X108757557Y-119570379D01*
X108568215Y-119473903D01*
X108366124Y-119408241D01*
X108300000Y-119397768D01*
X108300000Y-120445854D01*
X108233343Y-120407370D01*
X108112535Y-120375000D01*
X107987465Y-120375000D01*
X107866657Y-120407370D01*
X107800000Y-120445854D01*
X107800000Y-119397768D01*
X107799999Y-119397768D01*
X107733875Y-119408241D01*
X107531784Y-119473903D01*
X107342442Y-119570379D01*
X107170540Y-119695272D01*
X107170535Y-119695276D01*
X107020276Y-119845535D01*
X107020272Y-119845540D01*
X106895379Y-120017442D01*
X106798905Y-120206781D01*
X106759240Y-120328856D01*
X106719802Y-120386531D01*
X106655443Y-120413729D01*
X106586597Y-120401814D01*
X106535121Y-120354570D01*
X106526748Y-120337990D01*
X106526504Y-120337400D01*
X106480941Y-120227402D01*
X106365977Y-120055345D01*
X106365975Y-120055342D01*
X106219657Y-119909024D01*
X106124638Y-119845535D01*
X106047598Y-119794059D01*
X105856420Y-119714870D01*
X105856412Y-119714868D01*
X105653469Y-119674500D01*
X105653465Y-119674500D01*
X105446535Y-119674500D01*
X105446530Y-119674500D01*
X105243587Y-119714868D01*
X105243579Y-119714870D01*
X105052403Y-119794058D01*
X104880342Y-119909024D01*
X104734024Y-120055342D01*
X104619058Y-120227403D01*
X104539870Y-120418579D01*
X104539868Y-120418587D01*
X104499500Y-120621530D01*
X104100499Y-120621530D01*
X104060130Y-120418580D01*
X103980941Y-120227402D01*
X103865977Y-120055345D01*
X103865975Y-120055342D01*
X103719657Y-119909024D01*
X103624638Y-119845535D01*
X103547598Y-119794059D01*
X103356420Y-119714870D01*
X103356412Y-119714868D01*
X103153469Y-119674500D01*
X103153465Y-119674500D01*
X102946535Y-119674500D01*
X102946530Y-119674500D01*
X102743587Y-119714868D01*
X102743579Y-119714870D01*
X102552403Y-119794058D01*
X102380342Y-119909024D01*
X102234024Y-120055342D01*
X102119058Y-120227403D01*
X102039870Y-120418579D01*
X102039868Y-120418587D01*
X101999500Y-120621530D01*
X101600500Y-120621530D01*
X101600500Y-120070730D01*
X101597646Y-120040300D01*
X101597646Y-120040298D01*
X101564006Y-119944163D01*
X101552793Y-119912118D01*
X101472150Y-119802850D01*
X101362882Y-119722207D01*
X101362880Y-119722206D01*
X101234700Y-119677353D01*
X101204270Y-119674500D01*
X101204266Y-119674500D01*
X99895734Y-119674500D01*
X99895730Y-119674500D01*
X99865300Y-119677353D01*
X99865298Y-119677353D01*
X99737119Y-119722206D01*
X99737117Y-119722207D01*
X99627850Y-119802850D01*
X99547207Y-119912117D01*
X99547206Y-119912119D01*
X99502353Y-120040298D01*
X99502353Y-120040300D01*
X99499500Y-120070730D01*
X93631773Y-120070730D01*
X93604622Y-120017444D01*
X93479727Y-119845540D01*
X93479723Y-119845535D01*
X93329464Y-119695276D01*
X93329459Y-119695272D01*
X93157557Y-119570379D01*
X92968215Y-119473903D01*
X92766124Y-119408241D01*
X92700000Y-119397768D01*
X92700000Y-120445854D01*
X92633343Y-120407370D01*
X92512535Y-120375000D01*
X92387465Y-120375000D01*
X92266657Y-120407370D01*
X92200000Y-120445854D01*
X92200000Y-119397768D01*
X92199999Y-119397768D01*
X92133875Y-119408241D01*
X91931784Y-119473903D01*
X91742442Y-119570379D01*
X91570540Y-119695272D01*
X91570535Y-119695276D01*
X91420276Y-119845535D01*
X91420272Y-119845540D01*
X91295379Y-120017442D01*
X91198905Y-120206781D01*
X91159240Y-120328856D01*
X91119802Y-120386531D01*
X91055443Y-120413729D01*
X90986597Y-120401814D01*
X90935121Y-120354570D01*
X90926748Y-120337990D01*
X90926504Y-120337400D01*
X90880941Y-120227402D01*
X90765977Y-120055345D01*
X90765975Y-120055342D01*
X90619657Y-119909024D01*
X90524638Y-119845535D01*
X90447598Y-119794059D01*
X90256420Y-119714870D01*
X90256412Y-119714868D01*
X90053469Y-119674500D01*
X90053465Y-119674500D01*
X89846535Y-119674500D01*
X89846530Y-119674500D01*
X89643587Y-119714868D01*
X89643579Y-119714870D01*
X89452403Y-119794058D01*
X89280342Y-119909024D01*
X89134024Y-120055342D01*
X89019058Y-120227403D01*
X88939870Y-120418579D01*
X88939868Y-120418587D01*
X88899500Y-120621530D01*
X88500499Y-120621530D01*
X88460130Y-120418580D01*
X88380941Y-120227402D01*
X88265977Y-120055345D01*
X88265975Y-120055342D01*
X88119657Y-119909024D01*
X88024638Y-119845535D01*
X87947598Y-119794059D01*
X87756420Y-119714870D01*
X87756412Y-119714868D01*
X87553469Y-119674500D01*
X87553465Y-119674500D01*
X87346535Y-119674500D01*
X87346530Y-119674500D01*
X87143587Y-119714868D01*
X87143579Y-119714870D01*
X86952403Y-119794058D01*
X86780342Y-119909024D01*
X86634024Y-120055342D01*
X86519058Y-120227403D01*
X86439870Y-120418579D01*
X86439868Y-120418587D01*
X86399500Y-120621530D01*
X86000500Y-120621530D01*
X86000500Y-120070730D01*
X85997646Y-120040300D01*
X85997646Y-120040298D01*
X85964006Y-119944163D01*
X85952793Y-119912118D01*
X85872150Y-119802850D01*
X85762882Y-119722207D01*
X85762880Y-119722206D01*
X85634700Y-119677353D01*
X85604270Y-119674500D01*
X85604266Y-119674500D01*
X84295734Y-119674500D01*
X84295730Y-119674500D01*
X84265300Y-119677353D01*
X84265298Y-119677353D01*
X84137119Y-119722206D01*
X84137117Y-119722207D01*
X84027850Y-119802850D01*
X83947207Y-119912117D01*
X83947206Y-119912119D01*
X83902353Y-120040298D01*
X83902353Y-120040300D01*
X83899500Y-120070730D01*
X79400000Y-120070730D01*
X79400000Y-113937399D01*
X90824500Y-113937399D01*
X90824500Y-114062601D01*
X90856905Y-114183536D01*
X90919505Y-114291964D01*
X91008036Y-114380495D01*
X91116464Y-114443095D01*
X91237399Y-114475500D01*
X91237401Y-114475500D01*
X91362599Y-114475500D01*
X91362601Y-114475500D01*
X91483536Y-114443095D01*
X91591964Y-114380495D01*
X91680495Y-114291964D01*
X91743095Y-114183536D01*
X91775500Y-114062601D01*
X91775500Y-113937399D01*
X91743095Y-113816464D01*
X91680495Y-113708036D01*
X91591964Y-113619505D01*
X91483536Y-113556905D01*
X91483537Y-113556905D01*
X91443224Y-113546103D01*
X91362601Y-113524500D01*
X91237399Y-113524500D01*
X91156775Y-113546103D01*
X91116463Y-113556905D01*
X91008037Y-113619504D01*
X91008034Y-113619506D01*
X90919506Y-113708034D01*
X90919504Y-113708037D01*
X90856905Y-113816463D01*
X90856905Y-113816464D01*
X90824500Y-113937399D01*
X79400000Y-113937399D01*
X79400000Y-112337399D01*
X85024500Y-112337399D01*
X85024500Y-112462601D01*
X85056905Y-112583536D01*
X85119505Y-112691964D01*
X85208036Y-112780495D01*
X85316464Y-112843095D01*
X85437399Y-112875500D01*
X85437401Y-112875500D01*
X85562599Y-112875500D01*
X85562601Y-112875500D01*
X85683536Y-112843095D01*
X85791964Y-112780495D01*
X85880495Y-112691964D01*
X85943095Y-112583536D01*
X85975500Y-112462601D01*
X85975500Y-112337399D01*
X85943095Y-112216464D01*
X85880495Y-112108036D01*
X85791964Y-112019505D01*
X85683536Y-111956905D01*
X85683537Y-111956905D01*
X85643224Y-111946103D01*
X85562601Y-111924500D01*
X85437399Y-111924500D01*
X85356775Y-111946103D01*
X85316463Y-111956905D01*
X85208037Y-112019504D01*
X85208034Y-112019506D01*
X85119506Y-112108034D01*
X85119504Y-112108037D01*
X85056905Y-112216463D01*
X85056905Y-112216464D01*
X85024500Y-112337399D01*
X79400000Y-112337399D01*
X79400000Y-109233747D01*
X100883000Y-109233747D01*
X100883000Y-110781252D01*
X100894631Y-110839729D01*
X100894632Y-110839730D01*
X100938947Y-110906052D01*
X101005269Y-110950367D01*
X101005270Y-110950368D01*
X101063747Y-110961999D01*
X101063750Y-110962000D01*
X101063752Y-110962000D01*
X102611250Y-110962000D01*
X102611251Y-110961999D01*
X102626068Y-110959052D01*
X102669729Y-110950368D01*
X102669729Y-110950367D01*
X102669731Y-110950367D01*
X102736052Y-110906052D01*
X102780367Y-110839731D01*
X102780367Y-110839729D01*
X102780368Y-110839729D01*
X102791999Y-110781252D01*
X102792000Y-110781250D01*
X102792000Y-109233749D01*
X102791999Y-109233747D01*
X102780368Y-109175270D01*
X102780367Y-109175269D01*
X102736052Y-109108947D01*
X102669730Y-109064632D01*
X102669729Y-109064631D01*
X102611252Y-109053000D01*
X102611248Y-109053000D01*
X101063752Y-109053000D01*
X101063747Y-109053000D01*
X101005270Y-109064631D01*
X101005269Y-109064632D01*
X100938947Y-109108947D01*
X100894632Y-109175269D01*
X100894631Y-109175270D01*
X100883000Y-109233747D01*
X79400000Y-109233747D01*
X79400000Y-106324000D01*
X79419685Y-106256961D01*
X79472489Y-106211206D01*
X79524000Y-106200000D01*
X101066998Y-106200000D01*
X101134037Y-106219685D01*
G37*
%TD.AperFunction*%
%TD*%
%TA.AperFunction,Conductor*%
%TO.N,+3V3*%
G36*
X82253039Y-50470185D02*
G01*
X82298794Y-50522989D01*
X82310000Y-50574500D01*
X82310000Y-55160000D01*
X101710000Y-55160000D01*
X101710000Y-54387399D01*
X104784500Y-54387399D01*
X104784500Y-54512601D01*
X104816905Y-54633536D01*
X104879505Y-54741964D01*
X104968036Y-54830495D01*
X105076464Y-54893095D01*
X105197399Y-54925500D01*
X105197401Y-54925500D01*
X105322599Y-54925500D01*
X105322601Y-54925500D01*
X105443536Y-54893095D01*
X105453402Y-54887399D01*
X108884500Y-54887399D01*
X108884500Y-55012601D01*
X108916905Y-55133536D01*
X108979505Y-55241964D01*
X109068036Y-55330495D01*
X109176464Y-55393095D01*
X109297399Y-55425500D01*
X109297401Y-55425500D01*
X109422599Y-55425500D01*
X109422601Y-55425500D01*
X109543536Y-55393095D01*
X109651964Y-55330495D01*
X109740495Y-55241964D01*
X109803095Y-55133536D01*
X109835500Y-55012601D01*
X109835500Y-54887399D01*
X109803095Y-54766464D01*
X109740495Y-54658036D01*
X109651964Y-54569505D01*
X109543536Y-54506905D01*
X109543537Y-54506905D01*
X109503224Y-54496103D01*
X109422601Y-54474500D01*
X109297399Y-54474500D01*
X109216775Y-54496103D01*
X109176463Y-54506905D01*
X109068037Y-54569504D01*
X109068034Y-54569506D01*
X108979506Y-54658034D01*
X108979504Y-54658037D01*
X108916905Y-54766463D01*
X108916905Y-54766464D01*
X108884500Y-54887399D01*
X105453402Y-54887399D01*
X105551964Y-54830495D01*
X105640495Y-54741964D01*
X105703095Y-54633536D01*
X105735500Y-54512601D01*
X105735500Y-54387399D01*
X105703095Y-54266464D01*
X105640495Y-54158036D01*
X105551964Y-54069505D01*
X105486121Y-54031491D01*
X115399500Y-54031491D01*
X115399500Y-54368508D01*
X115437231Y-54703381D01*
X115437233Y-54703397D01*
X115512223Y-55031953D01*
X115512227Y-55031965D01*
X115623532Y-55350054D01*
X115769752Y-55653683D01*
X115769754Y-55653686D01*
X115949054Y-55939039D01*
X116159175Y-56202523D01*
X116397477Y-56440825D01*
X116660961Y-56650946D01*
X116946314Y-56830246D01*
X117249949Y-56976469D01*
X117488848Y-57060063D01*
X117568034Y-57087772D01*
X117568046Y-57087776D01*
X117896606Y-57162767D01*
X118231492Y-57200499D01*
X118231493Y-57200500D01*
X118231496Y-57200500D01*
X118568507Y-57200500D01*
X118568507Y-57200499D01*
X118903394Y-57162767D01*
X119231954Y-57087776D01*
X119550051Y-56976469D01*
X119853686Y-56830246D01*
X120139039Y-56650946D01*
X120402523Y-56440825D01*
X120640825Y-56202523D01*
X120850946Y-55939039D01*
X121030246Y-55653686D01*
X121176469Y-55350051D01*
X121287776Y-55031954D01*
X121362767Y-54703394D01*
X121400500Y-54368504D01*
X121400500Y-54031496D01*
X121362767Y-53696606D01*
X121287776Y-53368046D01*
X121176469Y-53049949D01*
X121030246Y-52746314D01*
X120850946Y-52460961D01*
X120640825Y-52197477D01*
X120402523Y-51959175D01*
X120139039Y-51749054D01*
X119853686Y-51569754D01*
X119853683Y-51569752D01*
X119550054Y-51423532D01*
X119231965Y-51312227D01*
X119231953Y-51312223D01*
X118903397Y-51237233D01*
X118903381Y-51237231D01*
X118568508Y-51199500D01*
X118568504Y-51199500D01*
X118231496Y-51199500D01*
X118231491Y-51199500D01*
X117896618Y-51237231D01*
X117896602Y-51237233D01*
X117568046Y-51312223D01*
X117568034Y-51312227D01*
X117249945Y-51423532D01*
X116946316Y-51569752D01*
X116660962Y-51749053D01*
X116397477Y-51959174D01*
X116159174Y-52197477D01*
X115949053Y-52460962D01*
X115769752Y-52746316D01*
X115623532Y-53049945D01*
X115512227Y-53368034D01*
X115512223Y-53368046D01*
X115437233Y-53696602D01*
X115437231Y-53696618D01*
X115399500Y-54031491D01*
X105486121Y-54031491D01*
X105443536Y-54006905D01*
X105443537Y-54006905D01*
X105403224Y-53996103D01*
X105322601Y-53974500D01*
X105197399Y-53974500D01*
X105116775Y-53996103D01*
X105076463Y-54006905D01*
X104968037Y-54069504D01*
X104968034Y-54069506D01*
X104879506Y-54158034D01*
X104879504Y-54158037D01*
X104816905Y-54266463D01*
X104816905Y-54266464D01*
X104784500Y-54387399D01*
X101710000Y-54387399D01*
X101710000Y-50574500D01*
X101729685Y-50507461D01*
X101782489Y-50461706D01*
X101834000Y-50450500D01*
X118355830Y-50450500D01*
X118396949Y-50450500D01*
X118403032Y-50450648D01*
X118761433Y-50468256D01*
X118773541Y-50469448D01*
X119125475Y-50521653D01*
X119137389Y-50524023D01*
X119482520Y-50610473D01*
X119494147Y-50614000D01*
X119829151Y-50733867D01*
X119840363Y-50738511D01*
X120162012Y-50890639D01*
X120172720Y-50896363D01*
X120477881Y-51079270D01*
X120487999Y-51086030D01*
X120773769Y-51297971D01*
X120783175Y-51305691D01*
X121046790Y-51544618D01*
X121055381Y-51553209D01*
X121070375Y-51569752D01*
X121294308Y-51816824D01*
X121302028Y-51826230D01*
X121513969Y-52112000D01*
X121520729Y-52122118D01*
X121703629Y-52427267D01*
X121709364Y-52437995D01*
X121729846Y-52481300D01*
X121861485Y-52759629D01*
X121866136Y-52770858D01*
X121965997Y-53049949D01*
X121985994Y-53105837D01*
X121989526Y-53117481D01*
X122075973Y-53462597D01*
X122078347Y-53474532D01*
X122130550Y-53826457D01*
X122131743Y-53838567D01*
X122149351Y-54196966D01*
X122149500Y-54203051D01*
X122149500Y-98076000D01*
X122129815Y-98143039D01*
X122077011Y-98188794D01*
X122025500Y-98200000D01*
X108400000Y-98200000D01*
X108400000Y-105026000D01*
X108380315Y-105093039D01*
X108327511Y-105138794D01*
X108276000Y-105150000D01*
X102916000Y-105150000D01*
X102848961Y-105130315D01*
X102803206Y-105077511D01*
X102792000Y-105026000D01*
X102792000Y-104833487D01*
X102791999Y-104833485D01*
X102755320Y-104649090D01*
X102755319Y-104649083D01*
X102755317Y-104649078D01*
X102683370Y-104475381D01*
X102683363Y-104475368D01*
X102578908Y-104319042D01*
X102578905Y-104319038D01*
X102445961Y-104186094D01*
X102445957Y-104186091D01*
X102289631Y-104081636D01*
X102289618Y-104081629D01*
X102115921Y-104009682D01*
X102115909Y-104009679D01*
X101931513Y-103973000D01*
X101931510Y-103973000D01*
X101743490Y-103973000D01*
X101743487Y-103973000D01*
X101559090Y-104009679D01*
X101559078Y-104009682D01*
X101385381Y-104081629D01*
X101385368Y-104081636D01*
X101229042Y-104186091D01*
X101229038Y-104186094D01*
X101096094Y-104319038D01*
X101096091Y-104319042D01*
X100991636Y-104475368D01*
X100991629Y-104475381D01*
X100919682Y-104649078D01*
X100919679Y-104649090D01*
X100883000Y-104833485D01*
X100883000Y-105026000D01*
X100863315Y-105093039D01*
X100810511Y-105138794D01*
X100759000Y-105150000D01*
X71502686Y-105150000D01*
X71435647Y-105130315D01*
X71389892Y-105077511D01*
X71379948Y-105008353D01*
X71381069Y-105001809D01*
X71404499Y-104884014D01*
X71404500Y-104884012D01*
X71404500Y-104695987D01*
X71404499Y-104695985D01*
X71395171Y-104649090D01*
X71367819Y-104511583D01*
X71352818Y-104475368D01*
X71295870Y-104337881D01*
X71295863Y-104337868D01*
X71191408Y-104181542D01*
X71191405Y-104181538D01*
X71058461Y-104048594D01*
X71058457Y-104048591D01*
X70902131Y-103944136D01*
X70902118Y-103944129D01*
X70728421Y-103872182D01*
X70728409Y-103872179D01*
X70544013Y-103835500D01*
X70544010Y-103835500D01*
X70355990Y-103835500D01*
X70355987Y-103835500D01*
X70171590Y-103872179D01*
X70171578Y-103872182D01*
X69997881Y-103944129D01*
X69997868Y-103944136D01*
X69841542Y-104048591D01*
X69841538Y-104048594D01*
X69708594Y-104181538D01*
X69708591Y-104181542D01*
X69604136Y-104337868D01*
X69604129Y-104337881D01*
X69532182Y-104511578D01*
X69532179Y-104511590D01*
X69495500Y-104695985D01*
X69495500Y-104884014D01*
X69518931Y-105001809D01*
X69512704Y-105071400D01*
X69469841Y-105126578D01*
X69403951Y-105149822D01*
X69397314Y-105150000D01*
X42774500Y-105150000D01*
X42707461Y-105130315D01*
X42661706Y-105077511D01*
X42650500Y-105026000D01*
X42650500Y-103237399D01*
X85024500Y-103237399D01*
X85024500Y-103362601D01*
X85056905Y-103483536D01*
X85119505Y-103591964D01*
X85208036Y-103680495D01*
X85316464Y-103743095D01*
X85437399Y-103775500D01*
X85437401Y-103775500D01*
X85562599Y-103775500D01*
X85562601Y-103775500D01*
X85683536Y-103743095D01*
X85791964Y-103680495D01*
X85880495Y-103591964D01*
X85943095Y-103483536D01*
X85975500Y-103362601D01*
X85975500Y-103237399D01*
X85943095Y-103116464D01*
X85880495Y-103008036D01*
X85791964Y-102919505D01*
X85683536Y-102856905D01*
X85683537Y-102856905D01*
X85643224Y-102846103D01*
X85562601Y-102824500D01*
X85437399Y-102824500D01*
X85356775Y-102846103D01*
X85316463Y-102856905D01*
X85208037Y-102919504D01*
X85208034Y-102919506D01*
X85119506Y-103008034D01*
X85119504Y-103008037D01*
X85056905Y-103116463D01*
X85048307Y-103148552D01*
X85024500Y-103237399D01*
X42650500Y-103237399D01*
X42650500Y-101476247D01*
X69495500Y-101476247D01*
X69495500Y-103023752D01*
X69507131Y-103082229D01*
X69507132Y-103082230D01*
X69551447Y-103148552D01*
X69617769Y-103192867D01*
X69617770Y-103192868D01*
X69676247Y-103204499D01*
X69676250Y-103204500D01*
X69676252Y-103204500D01*
X71223750Y-103204500D01*
X71223751Y-103204499D01*
X71238568Y-103201552D01*
X71282229Y-103192868D01*
X71282229Y-103192867D01*
X71282231Y-103192867D01*
X71348552Y-103148552D01*
X71392867Y-103082231D01*
X71392867Y-103082229D01*
X71392868Y-103082229D01*
X71404499Y-103023752D01*
X71404500Y-103023750D01*
X71404500Y-102293485D01*
X100883000Y-102293485D01*
X100883000Y-102481514D01*
X100919679Y-102665909D01*
X100919682Y-102665921D01*
X100991629Y-102839618D01*
X100991636Y-102839631D01*
X101096091Y-102995957D01*
X101096094Y-102995961D01*
X101229038Y-103128905D01*
X101229042Y-103128908D01*
X101385368Y-103233363D01*
X101385381Y-103233370D01*
X101559078Y-103305317D01*
X101559083Y-103305319D01*
X101743485Y-103341999D01*
X101743488Y-103342000D01*
X101743490Y-103342000D01*
X101931512Y-103342000D01*
X101931513Y-103341999D01*
X102115917Y-103305319D01*
X102250266Y-103249669D01*
X102289618Y-103233370D01*
X102289618Y-103233369D01*
X102289625Y-103233367D01*
X102445958Y-103128908D01*
X102578908Y-102995958D01*
X102683367Y-102839625D01*
X102755319Y-102665917D01*
X102792000Y-102481510D01*
X102792000Y-102293490D01*
X102792000Y-102293487D01*
X102791999Y-102293485D01*
X102772207Y-102193985D01*
X102755319Y-102109083D01*
X102755317Y-102109078D01*
X102683370Y-101935381D01*
X102683363Y-101935368D01*
X102578908Y-101779042D01*
X102578905Y-101779038D01*
X102445961Y-101646094D01*
X102445957Y-101646091D01*
X102289631Y-101541636D01*
X102289618Y-101541629D01*
X102115921Y-101469682D01*
X102115909Y-101469679D01*
X101931513Y-101433000D01*
X101931510Y-101433000D01*
X101743490Y-101433000D01*
X101743487Y-101433000D01*
X101559090Y-101469679D01*
X101559078Y-101469682D01*
X101385381Y-101541629D01*
X101385368Y-101541636D01*
X101229042Y-101646091D01*
X101229038Y-101646094D01*
X101096094Y-101779038D01*
X101096091Y-101779042D01*
X100991636Y-101935368D01*
X100991629Y-101935381D01*
X100919682Y-102109078D01*
X100919679Y-102109090D01*
X100883000Y-102293485D01*
X71404500Y-102293485D01*
X71404500Y-101476249D01*
X71404499Y-101476247D01*
X71392868Y-101417770D01*
X71392867Y-101417769D01*
X71348552Y-101351447D01*
X71282230Y-101307132D01*
X71282229Y-101307131D01*
X71223752Y-101295500D01*
X71223748Y-101295500D01*
X69676252Y-101295500D01*
X69676247Y-101295500D01*
X69617770Y-101307131D01*
X69617769Y-101307132D01*
X69551447Y-101351447D01*
X69507132Y-101417769D01*
X69507131Y-101417770D01*
X69495500Y-101476247D01*
X42650500Y-101476247D01*
X42650500Y-99937399D01*
X85024500Y-99937399D01*
X85024500Y-100062601D01*
X85056905Y-100183536D01*
X85119505Y-100291964D01*
X85208036Y-100380495D01*
X85316464Y-100443095D01*
X85437399Y-100475500D01*
X85437401Y-100475500D01*
X85562599Y-100475500D01*
X85562601Y-100475500D01*
X85683536Y-100443095D01*
X85791964Y-100380495D01*
X85880495Y-100291964D01*
X85943095Y-100183536D01*
X85975500Y-100062601D01*
X85975500Y-99937399D01*
X85943095Y-99816464D01*
X85880495Y-99708036D01*
X85791964Y-99619505D01*
X85683536Y-99556905D01*
X85683537Y-99556905D01*
X85643224Y-99546103D01*
X85562601Y-99524500D01*
X85437399Y-99524500D01*
X85356775Y-99546103D01*
X85316463Y-99556905D01*
X85208037Y-99619504D01*
X85208034Y-99619506D01*
X85119506Y-99708034D01*
X85119504Y-99708037D01*
X85056905Y-99816463D01*
X85056905Y-99816464D01*
X85024500Y-99937399D01*
X42650500Y-99937399D01*
X42650500Y-95137399D01*
X96799500Y-95137399D01*
X96799500Y-95262601D01*
X96831905Y-95383536D01*
X96894505Y-95491964D01*
X96983036Y-95580495D01*
X97091464Y-95643095D01*
X97212399Y-95675500D01*
X97212401Y-95675500D01*
X97337599Y-95675500D01*
X97337601Y-95675500D01*
X97458536Y-95643095D01*
X97566964Y-95580495D01*
X97655495Y-95491964D01*
X97718095Y-95383536D01*
X97750500Y-95262601D01*
X97750500Y-95137399D01*
X97718095Y-95016464D01*
X97655495Y-94908036D01*
X97566964Y-94819505D01*
X97458536Y-94756905D01*
X97458537Y-94756905D01*
X97418224Y-94746103D01*
X97337601Y-94724500D01*
X97212399Y-94724500D01*
X97131775Y-94746103D01*
X97091463Y-94756905D01*
X96983037Y-94819504D01*
X96983034Y-94819506D01*
X96894506Y-94908034D01*
X96894504Y-94908037D01*
X96831905Y-95016463D01*
X96831905Y-95016464D01*
X96799500Y-95137399D01*
X42650500Y-95137399D01*
X42650500Y-89091457D01*
X44014499Y-89091457D01*
X44042379Y-89231614D01*
X44042381Y-89231620D01*
X44097069Y-89363650D01*
X44097074Y-89363659D01*
X44176467Y-89482478D01*
X44176470Y-89482482D01*
X44277517Y-89583529D01*
X44277521Y-89583532D01*
X44396340Y-89662925D01*
X44396346Y-89662928D01*
X44396347Y-89662929D01*
X44528380Y-89717619D01*
X44528384Y-89717619D01*
X44528385Y-89717620D01*
X44668542Y-89745500D01*
X44668545Y-89745500D01*
X45611457Y-89745500D01*
X45705751Y-89726742D01*
X45751620Y-89717619D01*
X45883653Y-89662929D01*
X46002479Y-89583532D01*
X46103532Y-89482479D01*
X46182929Y-89363653D01*
X46237619Y-89231620D01*
X46265399Y-89091964D01*
X46265500Y-89091457D01*
X48044499Y-89091457D01*
X48072379Y-89231614D01*
X48072381Y-89231620D01*
X48127069Y-89363650D01*
X48127074Y-89363659D01*
X48206467Y-89482478D01*
X48206470Y-89482482D01*
X48307517Y-89583529D01*
X48307521Y-89583532D01*
X48426340Y-89662925D01*
X48426346Y-89662928D01*
X48426347Y-89662929D01*
X48558380Y-89717619D01*
X48558384Y-89717619D01*
X48558385Y-89717620D01*
X48698542Y-89745500D01*
X48698545Y-89745500D01*
X49941457Y-89745500D01*
X50035751Y-89726742D01*
X50081620Y-89717619D01*
X50213653Y-89662929D01*
X50332479Y-89583532D01*
X50433532Y-89482479D01*
X50512929Y-89363653D01*
X50567619Y-89231620D01*
X50595399Y-89091964D01*
X50595500Y-89091457D01*
X50595500Y-88948542D01*
X50567620Y-88808385D01*
X50567619Y-88808384D01*
X50567619Y-88808380D01*
X50512929Y-88676347D01*
X50512928Y-88676346D01*
X50512925Y-88676340D01*
X50433532Y-88557521D01*
X50433529Y-88557517D01*
X50332482Y-88456470D01*
X50332478Y-88456467D01*
X50213659Y-88377074D01*
X50213650Y-88377069D01*
X50133407Y-88343832D01*
X50081620Y-88322381D01*
X50081614Y-88322379D01*
X49941457Y-88294500D01*
X49941455Y-88294500D01*
X49113545Y-88294500D01*
X49046506Y-88274815D01*
X49014085Y-88237399D01*
X95099500Y-88237399D01*
X95099500Y-88362601D01*
X95131905Y-88483536D01*
X95194505Y-88591964D01*
X95283036Y-88680495D01*
X95391464Y-88743095D01*
X95512399Y-88775500D01*
X95512401Y-88775500D01*
X95637599Y-88775500D01*
X95637601Y-88775500D01*
X95758536Y-88743095D01*
X95866964Y-88680495D01*
X95955495Y-88591964D01*
X96018095Y-88483536D01*
X96050500Y-88362601D01*
X96050500Y-88237399D01*
X96799500Y-88237399D01*
X96799500Y-88362601D01*
X96831905Y-88483536D01*
X96894505Y-88591964D01*
X96983036Y-88680495D01*
X97091464Y-88743095D01*
X97212399Y-88775500D01*
X97212401Y-88775500D01*
X97337599Y-88775500D01*
X97337601Y-88775500D01*
X97458536Y-88743095D01*
X97468402Y-88737399D01*
X101099500Y-88737399D01*
X101099500Y-88862601D01*
X101131905Y-88983536D01*
X101194505Y-89091964D01*
X101283036Y-89180495D01*
X101391464Y-89243095D01*
X101512399Y-89275500D01*
X101512401Y-89275500D01*
X101637599Y-89275500D01*
X101637601Y-89275500D01*
X101758536Y-89243095D01*
X101866964Y-89180495D01*
X101955495Y-89091964D01*
X102018095Y-88983536D01*
X102050500Y-88862601D01*
X102050500Y-88737399D01*
X102018095Y-88616464D01*
X101955495Y-88508036D01*
X101866964Y-88419505D01*
X101758536Y-88356905D01*
X101758537Y-88356905D01*
X101709748Y-88343832D01*
X101637601Y-88324500D01*
X101512399Y-88324500D01*
X101440252Y-88343832D01*
X101391463Y-88356905D01*
X101283037Y-88419504D01*
X101283034Y-88419506D01*
X101194506Y-88508034D01*
X101194504Y-88508037D01*
X101131905Y-88616463D01*
X101131905Y-88616464D01*
X101099500Y-88737399D01*
X97468402Y-88737399D01*
X97566964Y-88680495D01*
X97655495Y-88591964D01*
X97718095Y-88483536D01*
X97750500Y-88362601D01*
X97750500Y-88237399D01*
X97718095Y-88116464D01*
X97655495Y-88008036D01*
X97566964Y-87919505D01*
X97458536Y-87856905D01*
X97458537Y-87856905D01*
X97449711Y-87854540D01*
X97337601Y-87824500D01*
X97212399Y-87824500D01*
X97131775Y-87846103D01*
X97091463Y-87856905D01*
X96983037Y-87919504D01*
X96983034Y-87919506D01*
X96894506Y-88008034D01*
X96894504Y-88008037D01*
X96831905Y-88116463D01*
X96831905Y-88116464D01*
X96799500Y-88237399D01*
X96050500Y-88237399D01*
X96018095Y-88116464D01*
X95955495Y-88008036D01*
X95866964Y-87919505D01*
X95758536Y-87856905D01*
X95758537Y-87856905D01*
X95718224Y-87846103D01*
X95637601Y-87824500D01*
X95512399Y-87824500D01*
X95431775Y-87846103D01*
X95391463Y-87856905D01*
X95283037Y-87919504D01*
X95283034Y-87919506D01*
X95194506Y-88008034D01*
X95194504Y-88008037D01*
X95131905Y-88116463D01*
X95131905Y-88116464D01*
X95099500Y-88237399D01*
X49014085Y-88237399D01*
X49000751Y-88222011D01*
X48990807Y-88152853D01*
X49019832Y-88089297D01*
X49051545Y-88063113D01*
X49069457Y-88052771D01*
X49142665Y-88010505D01*
X49240505Y-87912665D01*
X49309688Y-87792836D01*
X49324542Y-87737399D01*
X99499500Y-87737399D01*
X99499500Y-87862601D01*
X99531905Y-87983536D01*
X99594505Y-88091964D01*
X99683036Y-88180495D01*
X99791464Y-88243095D01*
X99912399Y-88275500D01*
X99912401Y-88275500D01*
X100037599Y-88275500D01*
X100037601Y-88275500D01*
X100158536Y-88243095D01*
X100266964Y-88180495D01*
X100355495Y-88091964D01*
X100418095Y-87983536D01*
X100450500Y-87862601D01*
X100450500Y-87737399D01*
X100418095Y-87616464D01*
X100355495Y-87508036D01*
X100266964Y-87419505D01*
X100158536Y-87356905D01*
X100158537Y-87356905D01*
X100118224Y-87346103D01*
X100037601Y-87324500D01*
X99912399Y-87324500D01*
X99831775Y-87346103D01*
X99791463Y-87356905D01*
X99683037Y-87419504D01*
X99683034Y-87419506D01*
X99594506Y-87508034D01*
X99594504Y-87508037D01*
X99531905Y-87616463D01*
X99520458Y-87659183D01*
X99499500Y-87737399D01*
X49324542Y-87737399D01*
X49345500Y-87659183D01*
X49345500Y-87520817D01*
X49309688Y-87387164D01*
X49240505Y-87267335D01*
X49142665Y-87169495D01*
X49142664Y-87169494D01*
X49142661Y-87169492D01*
X49022838Y-87100313D01*
X49022837Y-87100312D01*
X49022836Y-87100312D01*
X48889183Y-87064500D01*
X48750817Y-87064500D01*
X48617164Y-87100312D01*
X48617161Y-87100313D01*
X48497338Y-87169492D01*
X48497333Y-87169496D01*
X48399496Y-87267333D01*
X48399492Y-87267338D01*
X48330313Y-87387161D01*
X48330312Y-87387164D01*
X48294500Y-87520817D01*
X48294500Y-87659182D01*
X48330312Y-87792835D01*
X48330313Y-87792838D01*
X48399492Y-87912661D01*
X48399494Y-87912664D01*
X48399495Y-87912665D01*
X48497335Y-88010505D01*
X48497336Y-88010506D01*
X48497338Y-88010507D01*
X48624203Y-88083752D01*
X48623430Y-88085090D01*
X48670666Y-88123154D01*
X48692732Y-88189448D01*
X48675454Y-88257148D01*
X48624317Y-88304759D01*
X48593004Y-88315493D01*
X48558384Y-88322379D01*
X48558379Y-88322381D01*
X48426349Y-88377069D01*
X48426340Y-88377074D01*
X48307521Y-88456467D01*
X48307517Y-88456470D01*
X48206470Y-88557517D01*
X48206467Y-88557521D01*
X48127074Y-88676340D01*
X48127069Y-88676349D01*
X48072381Y-88808379D01*
X48072379Y-88808385D01*
X48044500Y-88948542D01*
X48044500Y-88948545D01*
X48044500Y-89091455D01*
X48044500Y-89091457D01*
X48044499Y-89091457D01*
X46265500Y-89091457D01*
X46265500Y-88948542D01*
X46237620Y-88808385D01*
X46237619Y-88808384D01*
X46237619Y-88808380D01*
X46182929Y-88676347D01*
X46182928Y-88676346D01*
X46182925Y-88676340D01*
X46103532Y-88557521D01*
X46103529Y-88557517D01*
X46002482Y-88456470D01*
X46002478Y-88456467D01*
X45883659Y-88377074D01*
X45883650Y-88377069D01*
X45751620Y-88322381D01*
X45751614Y-88322379D01*
X45611457Y-88294500D01*
X45611455Y-88294500D01*
X44668545Y-88294500D01*
X44668543Y-88294500D01*
X44528385Y-88322379D01*
X44528379Y-88322381D01*
X44396349Y-88377069D01*
X44396340Y-88377074D01*
X44277521Y-88456467D01*
X44277517Y-88456470D01*
X44176470Y-88557517D01*
X44176467Y-88557521D01*
X44097074Y-88676340D01*
X44097069Y-88676349D01*
X44042381Y-88808379D01*
X44042379Y-88808385D01*
X44014500Y-88948542D01*
X44014500Y-88948545D01*
X44014500Y-89091455D01*
X44014500Y-89091457D01*
X44014499Y-89091457D01*
X42650500Y-89091457D01*
X42650500Y-80451457D01*
X44014499Y-80451457D01*
X44042379Y-80591614D01*
X44042381Y-80591620D01*
X44097069Y-80723650D01*
X44097074Y-80723659D01*
X44176467Y-80842478D01*
X44176470Y-80842482D01*
X44277517Y-80943529D01*
X44277521Y-80943532D01*
X44396340Y-81022925D01*
X44396346Y-81022928D01*
X44396347Y-81022929D01*
X44528380Y-81077619D01*
X44528384Y-81077619D01*
X44528385Y-81077620D01*
X44668542Y-81105500D01*
X44668545Y-81105500D01*
X45611457Y-81105500D01*
X45717002Y-81084505D01*
X45751620Y-81077619D01*
X45883653Y-81022929D01*
X46002479Y-80943532D01*
X46103532Y-80842479D01*
X46182929Y-80723653D01*
X46237619Y-80591620D01*
X46265500Y-80451457D01*
X48044499Y-80451457D01*
X48072379Y-80591614D01*
X48072381Y-80591620D01*
X48127069Y-80723650D01*
X48127074Y-80723659D01*
X48206467Y-80842478D01*
X48206470Y-80842482D01*
X48307517Y-80943529D01*
X48307521Y-80943532D01*
X48426340Y-81022925D01*
X48426346Y-81022928D01*
X48426347Y-81022929D01*
X48558380Y-81077619D01*
X48593003Y-81084506D01*
X48654913Y-81116890D01*
X48689487Y-81177606D01*
X48685748Y-81247375D01*
X48644882Y-81304047D01*
X48624126Y-81316115D01*
X48624203Y-81316248D01*
X48497338Y-81389492D01*
X48497333Y-81389496D01*
X48399496Y-81487333D01*
X48399492Y-81487338D01*
X48330313Y-81607161D01*
X48330312Y-81607164D01*
X48294500Y-81740817D01*
X48294500Y-81879182D01*
X48330312Y-82012835D01*
X48330313Y-82012838D01*
X48399492Y-82132661D01*
X48399494Y-82132664D01*
X48399495Y-82132665D01*
X48497335Y-82230505D01*
X48617164Y-82299688D01*
X48750817Y-82335500D01*
X48750819Y-82335500D01*
X48889181Y-82335500D01*
X48889183Y-82335500D01*
X49022836Y-82299688D01*
X49142665Y-82230505D01*
X49240505Y-82132665D01*
X49309688Y-82012836D01*
X49345500Y-81879183D01*
X49345500Y-81740817D01*
X49309688Y-81607164D01*
X49240505Y-81487335D01*
X49142665Y-81389495D01*
X49142664Y-81389494D01*
X49142661Y-81389492D01*
X49051545Y-81336887D01*
X49003330Y-81286321D01*
X48990106Y-81217714D01*
X49016074Y-81152849D01*
X49072988Y-81112320D01*
X49113545Y-81105500D01*
X49941457Y-81105500D01*
X50047002Y-81084505D01*
X50081620Y-81077619D01*
X50213653Y-81022929D01*
X50332479Y-80943532D01*
X50433532Y-80842479D01*
X50512929Y-80723653D01*
X50567619Y-80591620D01*
X50595500Y-80451455D01*
X50595500Y-80308545D01*
X50595500Y-80308542D01*
X50567620Y-80168385D01*
X50567619Y-80168384D01*
X50567619Y-80168380D01*
X50512929Y-80036347D01*
X50512928Y-80036346D01*
X50512925Y-80036340D01*
X50433532Y-79917521D01*
X50433529Y-79917517D01*
X50332482Y-79816470D01*
X50332478Y-79816467D01*
X50213659Y-79737074D01*
X50213650Y-79737069D01*
X50081620Y-79682381D01*
X50081614Y-79682379D01*
X49941457Y-79654500D01*
X49941455Y-79654500D01*
X48698545Y-79654500D01*
X48698543Y-79654500D01*
X48558385Y-79682379D01*
X48558379Y-79682381D01*
X48426349Y-79737069D01*
X48426340Y-79737074D01*
X48307521Y-79816467D01*
X48307517Y-79816470D01*
X48206470Y-79917517D01*
X48206467Y-79917521D01*
X48127074Y-80036340D01*
X48127069Y-80036349D01*
X48072381Y-80168379D01*
X48072379Y-80168385D01*
X48044500Y-80308542D01*
X48044500Y-80308545D01*
X48044500Y-80451455D01*
X48044500Y-80451457D01*
X48044499Y-80451457D01*
X46265500Y-80451457D01*
X46265500Y-80451455D01*
X46265500Y-80308545D01*
X46265500Y-80308542D01*
X46237620Y-80168385D01*
X46237619Y-80168384D01*
X46237619Y-80168380D01*
X46182929Y-80036347D01*
X46182928Y-80036346D01*
X46182925Y-80036340D01*
X46103532Y-79917521D01*
X46103529Y-79917517D01*
X46002482Y-79816470D01*
X46002478Y-79816467D01*
X45883659Y-79737074D01*
X45883650Y-79737069D01*
X45751620Y-79682381D01*
X45751614Y-79682379D01*
X45611457Y-79654500D01*
X45611455Y-79654500D01*
X44668545Y-79654500D01*
X44668543Y-79654500D01*
X44528385Y-79682379D01*
X44528379Y-79682381D01*
X44396349Y-79737069D01*
X44396340Y-79737074D01*
X44277521Y-79816467D01*
X44277517Y-79816470D01*
X44176470Y-79917517D01*
X44176467Y-79917521D01*
X44097074Y-80036340D01*
X44097069Y-80036349D01*
X44042381Y-80168379D01*
X44042379Y-80168385D01*
X44014500Y-80308542D01*
X44014500Y-80308545D01*
X44014500Y-80451455D01*
X44014500Y-80451457D01*
X44014499Y-80451457D01*
X42650500Y-80451457D01*
X42650500Y-61184108D01*
X88649500Y-61184108D01*
X88649500Y-61315892D01*
X88661117Y-61359248D01*
X88683608Y-61443187D01*
X88708882Y-61486962D01*
X88749500Y-61557314D01*
X88842686Y-61650500D01*
X88956814Y-61716392D01*
X89084108Y-61750500D01*
X89084110Y-61750500D01*
X89215890Y-61750500D01*
X89215892Y-61750500D01*
X89259251Y-61738882D01*
X89329097Y-61740543D01*
X89386961Y-61779705D01*
X89414466Y-61843933D01*
X89411118Y-61890748D01*
X89399500Y-61934108D01*
X89399500Y-62065892D01*
X89399500Y-62065893D01*
X89411118Y-62109250D01*
X89409455Y-62179100D01*
X89370292Y-62236962D01*
X89306064Y-62264466D01*
X89259251Y-62261118D01*
X89215892Y-62249500D01*
X89084108Y-62249500D01*
X88956812Y-62283608D01*
X88842686Y-62349500D01*
X88842683Y-62349502D01*
X88749502Y-62442683D01*
X88749500Y-62442686D01*
X88683608Y-62556812D01*
X88679833Y-62570901D01*
X88649500Y-62684108D01*
X88649500Y-62815892D01*
X88661117Y-62859248D01*
X88683608Y-62943187D01*
X88708882Y-62986962D01*
X88749500Y-63057314D01*
X88842686Y-63150500D01*
X88956814Y-63216392D01*
X89084108Y-63250500D01*
X89084110Y-63250500D01*
X89215890Y-63250500D01*
X89215892Y-63250500D01*
X89259251Y-63238882D01*
X89329097Y-63240543D01*
X89386961Y-63279705D01*
X89414466Y-63343933D01*
X89411118Y-63390749D01*
X89399500Y-63434108D01*
X89399500Y-63565891D01*
X89433608Y-63693187D01*
X89466554Y-63750250D01*
X89499500Y-63807314D01*
X89592686Y-63900500D01*
X89706814Y-63966392D01*
X89834108Y-64000500D01*
X89834110Y-64000500D01*
X89965890Y-64000500D01*
X89965892Y-64000500D01*
X90093186Y-63966392D01*
X90207314Y-63900500D01*
X90300500Y-63807314D01*
X90366392Y-63693186D01*
X90400500Y-63565892D01*
X90400500Y-63434108D01*
X90388882Y-63390748D01*
X90390544Y-63320901D01*
X90429705Y-63263038D01*
X90493934Y-63235533D01*
X90540747Y-63238881D01*
X90584108Y-63250500D01*
X90584110Y-63250500D01*
X90715890Y-63250500D01*
X90715892Y-63250500D01*
X90759251Y-63238882D01*
X90829097Y-63240543D01*
X90886961Y-63279705D01*
X90914466Y-63343933D01*
X90911118Y-63390749D01*
X90899500Y-63434108D01*
X90899500Y-63565891D01*
X90933608Y-63693187D01*
X90966554Y-63750250D01*
X90999500Y-63807314D01*
X91092686Y-63900500D01*
X91206814Y-63966392D01*
X91334108Y-64000500D01*
X91334110Y-64000500D01*
X91465890Y-64000500D01*
X91465892Y-64000500D01*
X91593186Y-63966392D01*
X91707314Y-63900500D01*
X91800500Y-63807314D01*
X91866392Y-63693186D01*
X91900500Y-63565892D01*
X91900500Y-63434108D01*
X91888882Y-63390748D01*
X91890544Y-63320901D01*
X91929705Y-63263038D01*
X91993934Y-63235533D01*
X92040747Y-63238881D01*
X92084108Y-63250500D01*
X92084110Y-63250500D01*
X92215890Y-63250500D01*
X92215892Y-63250500D01*
X92343186Y-63216392D01*
X92457314Y-63150500D01*
X92550500Y-63057314D01*
X92616392Y-62943186D01*
X92650500Y-62815892D01*
X92650500Y-62684108D01*
X92616392Y-62556814D01*
X92550500Y-62442686D01*
X92457314Y-62349500D01*
X92384246Y-62307314D01*
X92343187Y-62283608D01*
X92253045Y-62259455D01*
X92215892Y-62249500D01*
X92084108Y-62249500D01*
X92040749Y-62261118D01*
X91970899Y-62259455D01*
X91913037Y-62220292D01*
X91885533Y-62156063D01*
X91888882Y-62109250D01*
X91900500Y-62065892D01*
X91900500Y-61934108D01*
X91888882Y-61890748D01*
X91890544Y-61820901D01*
X91929705Y-61763038D01*
X91993934Y-61735533D01*
X92040747Y-61738881D01*
X92084108Y-61750500D01*
X92084110Y-61750500D01*
X92215890Y-61750500D01*
X92215892Y-61750500D01*
X92343186Y-61716392D01*
X92457314Y-61650500D01*
X92550500Y-61557314D01*
X92616392Y-61443186D01*
X92650500Y-61315892D01*
X92650500Y-61184108D01*
X92616392Y-61056814D01*
X92550500Y-60942686D01*
X92457314Y-60849500D01*
X92384246Y-60807314D01*
X92343187Y-60783608D01*
X92253045Y-60759455D01*
X92215892Y-60749500D01*
X92084108Y-60749500D01*
X92040749Y-60761118D01*
X91970899Y-60759455D01*
X91913037Y-60720292D01*
X91885533Y-60656063D01*
X91888882Y-60609250D01*
X91900500Y-60565892D01*
X91900500Y-60434108D01*
X91866392Y-60306814D01*
X91800500Y-60192686D01*
X91707314Y-60099500D01*
X91650250Y-60066554D01*
X91593187Y-60033608D01*
X91529539Y-60016554D01*
X91465892Y-59999500D01*
X91334108Y-59999500D01*
X91206812Y-60033608D01*
X91092686Y-60099500D01*
X91092683Y-60099502D01*
X90999502Y-60192683D01*
X90999500Y-60192686D01*
X90933608Y-60306812D01*
X90899500Y-60434108D01*
X90899500Y-60565892D01*
X90899500Y-60565893D01*
X90911118Y-60609250D01*
X90909455Y-60679100D01*
X90870292Y-60736962D01*
X90806064Y-60764466D01*
X90759251Y-60761118D01*
X90715892Y-60749500D01*
X90584108Y-60749500D01*
X90540749Y-60761118D01*
X90470899Y-60759455D01*
X90413037Y-60720292D01*
X90385533Y-60656063D01*
X90388882Y-60609250D01*
X90400500Y-60565892D01*
X90400500Y-60434108D01*
X90366392Y-60306814D01*
X90300500Y-60192686D01*
X90207314Y-60099500D01*
X90150250Y-60066554D01*
X90093187Y-60033608D01*
X90029539Y-60016554D01*
X89965892Y-59999500D01*
X89834108Y-59999500D01*
X89706812Y-60033608D01*
X89592686Y-60099500D01*
X89592683Y-60099502D01*
X89499502Y-60192683D01*
X89499500Y-60192686D01*
X89433608Y-60306812D01*
X89399500Y-60434108D01*
X89399500Y-60565892D01*
X89399500Y-60565893D01*
X89411118Y-60609250D01*
X89409455Y-60679100D01*
X89370292Y-60736962D01*
X89306064Y-60764466D01*
X89259251Y-60761118D01*
X89215892Y-60749500D01*
X89084108Y-60749500D01*
X88956812Y-60783608D01*
X88842686Y-60849500D01*
X88842683Y-60849502D01*
X88749502Y-60942683D01*
X88749500Y-60942686D01*
X88683608Y-61056812D01*
X88679833Y-61070901D01*
X88649500Y-61184108D01*
X42650500Y-61184108D01*
X42650500Y-54203051D01*
X42650649Y-54196967D01*
X42658778Y-54031491D01*
X43399500Y-54031491D01*
X43399500Y-54368508D01*
X43437231Y-54703381D01*
X43437233Y-54703397D01*
X43512223Y-55031953D01*
X43512227Y-55031965D01*
X43623532Y-55350054D01*
X43769752Y-55653683D01*
X43769754Y-55653686D01*
X43949054Y-55939039D01*
X44159175Y-56202523D01*
X44397477Y-56440825D01*
X44660961Y-56650946D01*
X44946314Y-56830246D01*
X45249949Y-56976469D01*
X45488848Y-57060063D01*
X45568034Y-57087772D01*
X45568046Y-57087776D01*
X45896606Y-57162767D01*
X46231492Y-57200499D01*
X46231493Y-57200500D01*
X46231496Y-57200500D01*
X46568507Y-57200500D01*
X46568507Y-57200499D01*
X46903394Y-57162767D01*
X47231954Y-57087776D01*
X47550051Y-56976469D01*
X47853686Y-56830246D01*
X48139039Y-56650946D01*
X48218725Y-56587399D01*
X83984500Y-56587399D01*
X83984500Y-56712601D01*
X84016905Y-56833536D01*
X84079505Y-56941964D01*
X84168036Y-57030495D01*
X84276464Y-57093095D01*
X84397399Y-57125500D01*
X84397401Y-57125500D01*
X84522599Y-57125500D01*
X84522601Y-57125500D01*
X84643536Y-57093095D01*
X84751964Y-57030495D01*
X84840495Y-56941964D01*
X84903095Y-56833536D01*
X84935500Y-56712601D01*
X84935500Y-56587399D01*
X99084500Y-56587399D01*
X99084500Y-56712601D01*
X99116905Y-56833536D01*
X99179505Y-56941964D01*
X99268036Y-57030495D01*
X99376464Y-57093095D01*
X99497399Y-57125500D01*
X99497401Y-57125500D01*
X99622599Y-57125500D01*
X99622601Y-57125500D01*
X99743536Y-57093095D01*
X99851964Y-57030495D01*
X99940495Y-56941964D01*
X100003095Y-56833536D01*
X100035500Y-56712601D01*
X100035500Y-56587399D01*
X101484500Y-56587399D01*
X101484500Y-56712601D01*
X101516905Y-56833536D01*
X101579505Y-56941964D01*
X101668036Y-57030495D01*
X101776464Y-57093095D01*
X101897399Y-57125500D01*
X101897401Y-57125500D01*
X102022599Y-57125500D01*
X102022601Y-57125500D01*
X102143536Y-57093095D01*
X102251964Y-57030495D01*
X102340495Y-56941964D01*
X102403095Y-56833536D01*
X102435500Y-56712601D01*
X102435500Y-56587399D01*
X102403095Y-56466464D01*
X102340495Y-56358036D01*
X102251964Y-56269505D01*
X102143536Y-56206905D01*
X102143537Y-56206905D01*
X102103224Y-56196103D01*
X102022601Y-56174500D01*
X101897399Y-56174500D01*
X101816775Y-56196103D01*
X101776463Y-56206905D01*
X101668037Y-56269504D01*
X101668034Y-56269506D01*
X101579506Y-56358034D01*
X101579504Y-56358037D01*
X101516905Y-56466463D01*
X101516905Y-56466464D01*
X101484500Y-56587399D01*
X100035500Y-56587399D01*
X100003095Y-56466464D01*
X99940495Y-56358036D01*
X99851964Y-56269505D01*
X99743536Y-56206905D01*
X99743537Y-56206905D01*
X99703224Y-56196103D01*
X99622601Y-56174500D01*
X99497399Y-56174500D01*
X99416775Y-56196103D01*
X99376463Y-56206905D01*
X99268037Y-56269504D01*
X99268034Y-56269506D01*
X99179506Y-56358034D01*
X99179504Y-56358037D01*
X99116905Y-56466463D01*
X99116905Y-56466464D01*
X99084500Y-56587399D01*
X84935500Y-56587399D01*
X84903095Y-56466464D01*
X84840495Y-56358036D01*
X84751964Y-56269505D01*
X84643536Y-56206905D01*
X84643537Y-56206905D01*
X84603224Y-56196103D01*
X84522601Y-56174500D01*
X84397399Y-56174500D01*
X84316775Y-56196103D01*
X84276463Y-56206905D01*
X84168037Y-56269504D01*
X84168034Y-56269506D01*
X84079506Y-56358034D01*
X84079504Y-56358037D01*
X84016905Y-56466463D01*
X84016905Y-56466464D01*
X83984500Y-56587399D01*
X48218725Y-56587399D01*
X48402523Y-56440825D01*
X48640825Y-56202523D01*
X48850946Y-55939039D01*
X49030246Y-55653686D01*
X49062168Y-55587399D01*
X78784500Y-55587399D01*
X78784500Y-55712601D01*
X78816905Y-55833536D01*
X78879505Y-55941964D01*
X78968036Y-56030495D01*
X79076464Y-56093095D01*
X79197399Y-56125500D01*
X79197401Y-56125500D01*
X79322599Y-56125500D01*
X79322601Y-56125500D01*
X79443536Y-56093095D01*
X79551964Y-56030495D01*
X79640495Y-55941964D01*
X79703095Y-55833536D01*
X79735500Y-55712601D01*
X79735500Y-55587399D01*
X80584500Y-55587399D01*
X80584500Y-55712601D01*
X80616905Y-55833536D01*
X80679505Y-55941964D01*
X80768036Y-56030495D01*
X80876464Y-56093095D01*
X80997399Y-56125500D01*
X80997401Y-56125500D01*
X81122599Y-56125500D01*
X81122601Y-56125500D01*
X81243536Y-56093095D01*
X81351964Y-56030495D01*
X81440495Y-55941964D01*
X81503095Y-55833536D01*
X81535500Y-55712601D01*
X81535500Y-55587399D01*
X81503095Y-55466464D01*
X81440495Y-55358036D01*
X81351964Y-55269505D01*
X81243536Y-55206905D01*
X81243537Y-55206905D01*
X81203224Y-55196103D01*
X81122601Y-55174500D01*
X80997399Y-55174500D01*
X80916775Y-55196103D01*
X80876463Y-55206905D01*
X80768037Y-55269504D01*
X80768034Y-55269506D01*
X80679506Y-55358034D01*
X80679504Y-55358037D01*
X80616905Y-55466463D01*
X80616905Y-55466464D01*
X80584500Y-55587399D01*
X79735500Y-55587399D01*
X79703095Y-55466464D01*
X79640495Y-55358036D01*
X79551964Y-55269505D01*
X79443536Y-55206905D01*
X79443537Y-55206905D01*
X79403224Y-55196103D01*
X79322601Y-55174500D01*
X79197399Y-55174500D01*
X79116775Y-55196103D01*
X79076463Y-55206905D01*
X78968037Y-55269504D01*
X78968034Y-55269506D01*
X78879506Y-55358034D01*
X78879504Y-55358037D01*
X78816905Y-55466463D01*
X78816905Y-55466464D01*
X78784500Y-55587399D01*
X49062168Y-55587399D01*
X49176469Y-55350051D01*
X49287776Y-55031954D01*
X49362767Y-54703394D01*
X49400500Y-54368504D01*
X49400500Y-54031496D01*
X49362767Y-53696606D01*
X49287776Y-53368046D01*
X49176469Y-53049949D01*
X49030246Y-52746314D01*
X48850946Y-52460961D01*
X48640825Y-52197477D01*
X48402523Y-51959175D01*
X48139039Y-51749054D01*
X47853686Y-51569754D01*
X47853683Y-51569752D01*
X47550054Y-51423532D01*
X47231965Y-51312227D01*
X47231953Y-51312223D01*
X46903397Y-51237233D01*
X46903381Y-51237231D01*
X46568508Y-51199500D01*
X46568504Y-51199500D01*
X46231496Y-51199500D01*
X46231491Y-51199500D01*
X45896618Y-51237231D01*
X45896602Y-51237233D01*
X45568046Y-51312223D01*
X45568034Y-51312227D01*
X45249945Y-51423532D01*
X44946316Y-51569752D01*
X44660962Y-51749053D01*
X44397477Y-51959174D01*
X44159174Y-52197477D01*
X43949053Y-52460962D01*
X43769752Y-52746316D01*
X43623532Y-53049945D01*
X43512227Y-53368034D01*
X43512223Y-53368046D01*
X43437233Y-53696602D01*
X43437231Y-53696618D01*
X43399500Y-54031491D01*
X42658778Y-54031491D01*
X42659248Y-54021933D01*
X42668256Y-53838568D01*
X42669449Y-53826457D01*
X42701240Y-53612139D01*
X42721654Y-53474520D01*
X42724022Y-53462613D01*
X42810475Y-53117473D01*
X42813998Y-53105858D01*
X42933869Y-52770840D01*
X42938508Y-52759643D01*
X43090643Y-52437979D01*
X43096358Y-52427287D01*
X43279278Y-52122105D01*
X43286021Y-52112012D01*
X43497979Y-51826219D01*
X43505682Y-51816834D01*
X43744628Y-51553198D01*
X43753198Y-51544628D01*
X44016834Y-51305682D01*
X44026219Y-51297979D01*
X44312012Y-51086021D01*
X44322105Y-51079278D01*
X44627287Y-50896358D01*
X44637979Y-50890643D01*
X44959643Y-50738508D01*
X44970840Y-50733869D01*
X45305858Y-50613998D01*
X45317473Y-50610475D01*
X45662613Y-50524022D01*
X45674520Y-50521654D01*
X46026460Y-50469448D01*
X46038564Y-50468256D01*
X46396967Y-50450648D01*
X46403051Y-50450500D01*
X46444170Y-50450500D01*
X82186000Y-50450500D01*
X82253039Y-50470185D01*
G37*
%TD.AperFunction*%
%TD*%
M02*
