%TF.GenerationSoftware,KiCad,Pcbnew,9.0.7+1*%
%TF.CreationDate,Date%
%TF.ProjectId,LE_BMS_A_V2,4c455f42-4d53-45f4-915f-56322e6b6963,+ (Unreleased)*%
%TF.SameCoordinates,Original*%
%TF.FileFunction,Copper,L4,Bot*%
%TF.FilePolarity,Positive*%
%FSLAX46Y46*%
G04 Gerber Fmt 4.6, Leading zero omitted, Abs format (unit mm)*
G04 Created by KiCad*
%MOMM*%
%LPD*%
G01*
G04 APERTURE LIST*
G04 Aperture macros list*
%AMRoundRect*
0 Rectangle with rounded corners*
0 $1 Rounding radius*
0 $2 $3 $4 $5 $6 $7 $8 $9 X,Y pos of 4 corners*
0 Add a 4 corners polygon primitive as box body*
4,1,4,$2,$3,$4,$5,$6,$7,$8,$9,$2,$3,0*
0 Add four circle primitives for the rounded corners*
1,1,$1+$1,$2,$3*
1,1,$1+$1,$4,$5*
1,1,$1+$1,$6,$7*
1,1,$1+$1,$8,$9*
0 Add four rect primitives between the rounded corners*
20,1,$1+$1,$2,$3,$4,$5,0*
20,1,$1+$1,$4,$5,$6,$7,0*
20,1,$1+$1,$6,$7,$8,$9,0*
20,1,$1+$1,$8,$9,$2,$3,0*%
G04 Aperture macros list end*
%TA.AperFunction,ComponentPad*%
%ADD10C,5.600000*%
%TD*%
%TA.AperFunction,ComponentPad*%
%ADD11C,2.400000*%
%TD*%
%TA.AperFunction,ComponentPad*%
%ADD12RoundRect,0.250000X-0.600000X-0.725000X0.600000X-0.725000X0.600000X0.725000X-0.600000X0.725000X0*%
%TD*%
%TA.AperFunction,ComponentPad*%
%ADD13O,1.700000X1.950000*%
%TD*%
%TA.AperFunction,ComponentPad*%
%ADD14R,1.508000X1.508000*%
%TD*%
%TA.AperFunction,ComponentPad*%
%ADD15C,1.508000*%
%TD*%
%TA.AperFunction,ComponentPad*%
%ADD16R,2.000000X2.000000*%
%TD*%
%TA.AperFunction,ComponentPad*%
%ADD17C,2.000000*%
%TD*%
%TA.AperFunction,ComponentPad*%
%ADD18O,1.050000X2.150000*%
%TD*%
%TA.AperFunction,ComponentPad*%
%ADD19O,1.050000X1.850000*%
%TD*%
%TA.AperFunction,ComponentPad*%
%ADD20R,1.448000X1.448000*%
%TD*%
%TA.AperFunction,ComponentPad*%
%ADD21C,1.448000*%
%TD*%
%TA.AperFunction,ComponentPad*%
%ADD22C,2.430000*%
%TD*%
%TA.AperFunction,ComponentPad*%
%ADD23C,2.100000*%
%TD*%
%TA.AperFunction,ViaPad*%
%ADD24C,0.600000*%
%TD*%
%TA.AperFunction,Conductor*%
%ADD25C,0.250000*%
%TD*%
%TA.AperFunction,Conductor*%
%ADD26C,1.000000*%
%TD*%
%TA.AperFunction,Conductor*%
%ADD27C,1.800000*%
%TD*%
%TA.AperFunction,Conductor*%
%ADD28C,0.400000*%
%TD*%
G04 APERTURE END LIST*
D10*
%TO.P,H3,1,1*%
%TO.N,unconnected-(H3-Pad1)*%
X117150000Y-122610000D03*
%TD*%
D11*
%TO.P,J4,1*%
%TO.N,+5V_CAN1*%
X186000000Y-105240000D03*
%TO.P,J4,2*%
%TO.N,GND_CAN1*%
X186000000Y-100160000D03*
%TD*%
D12*
%TO.P,J6,1,Pin_1*%
%TO.N,/Project Architecture/Section B - Title B/CAN1_H*%
X171300000Y-120200000D03*
D13*
%TO.P,J6,2,Pin_2*%
%TO.N,/Project Architecture/Section B - Title B/CAN1_L*%
X173800000Y-120200000D03*
%TO.P,J6,3,Pin_3*%
%TO.N,GND_CAN1*%
X176300000Y-120200000D03*
%TO.P,J6,4,Pin_4*%
%TO.N,+5V_CAN1*%
X178800000Y-120200000D03*
%TD*%
D14*
%TO.P,PS1,1,-VIN*%
%TO.N,GND_CAN1*%
X172550000Y-106420000D03*
D15*
%TO.P,PS1,2,+VIN*%
%TO.N,+5V_CAN1*%
X172550000Y-103880000D03*
%TO.P,PS1,3,-VOUT*%
%TO.N,GND*%
X172550000Y-101340000D03*
%TO.P,PS1,4,+VOUT*%
%TO.N,+5V*%
X172550000Y-98800000D03*
%TD*%
D16*
%TO.P,BT1,1,+*%
%TO.N,+3V0*%
X118142546Y-72400000D03*
D17*
%TO.P,BT1,2,-*%
%TO.N,GND*%
X138942546Y-72400000D03*
%TD*%
D10*
%TO.P,H1,1,1*%
%TO.N,unconnected-(H1-Pad1)*%
X117150000Y-50610000D03*
%TD*%
D18*
%TO.P,J1,SH1,SHIELD*%
%TO.N,GND*%
X147830000Y-52580000D03*
%TO.P,J1,SH2,SHIELD*%
X139190000Y-52580000D03*
D19*
%TO.P,J1,SH3,SHIELD*%
X147830000Y-48400000D03*
%TO.P,J1,SH4,SHIELD*%
X139190000Y-48400000D03*
%TD*%
D20*
%TO.P,J5,1,1*%
%TO.N,unconnected-(J5-Pad1)*%
X137006000Y-121460000D03*
D21*
%TO.P,J5,2,2*%
%TO.N,unconnected-(J5-Pad2)*%
X135990000Y-119680000D03*
%TO.P,J5,3,3*%
%TO.N,GND_CAN2*%
X134974000Y-121460000D03*
%TO.P,J5,4,4*%
%TO.N,unconnected-(J5-Pad4)*%
X133958000Y-119680000D03*
%TO.P,J5,5,5*%
%TO.N,unconnected-(J5-Pad5)*%
X132942000Y-121460000D03*
%TO.P,J5,6,6*%
%TO.N,unconnected-(J5-Pad6)*%
X131926000Y-119680000D03*
%TO.P,J5,7,7*%
%TO.N,/Project Architecture/Section B - Title B/CAN2_H*%
X130910000Y-121460000D03*
%TO.P,J5,8,8*%
%TO.N,/Project Architecture/Section B - Title B/CAN2_L*%
X129894000Y-119680000D03*
D22*
%TO.P,J5,SH1,SHIELD*%
%TO.N,GND_CAN2*%
X125320000Y-120570000D03*
%TO.P,J5,SH2,SHIELD*%
X141580000Y-120570000D03*
%TD*%
D12*
%TO.P,J2,1,Pin_1*%
%TO.N,/Project Architecture/Section B - Title B/CAN1_H*%
X155700000Y-120200000D03*
D13*
%TO.P,J2,2,Pin_2*%
%TO.N,/Project Architecture/Section B - Title B/CAN1_L*%
X158200000Y-120200000D03*
%TO.P,J2,3,Pin_3*%
%TO.N,GND_CAN1*%
X160700000Y-120200000D03*
%TO.P,J2,4,Pin_4*%
%TO.N,+5V_CAN1*%
X163200000Y-120200000D03*
%TD*%
D23*
%TO.P,J3,1*%
%TO.N,+5V*%
X187000000Y-71150000D03*
%TO.P,J3,2*%
%TO.N,GND*%
X187000000Y-68650000D03*
%TO.P,J3,3*%
%TO.N,/Project Architecture/Section A - Title A/GPIO_A1*%
X187000000Y-66150000D03*
%TO.P,J3,4*%
%TO.N,/Project Architecture/Section A - Title A/GPIO_A2*%
X187000000Y-63650000D03*
%TO.P,J3,5*%
%TO.N,/Project Architecture/Section A - Title A/GPIO_A3*%
X187000000Y-61150000D03*
%TO.P,J3,6*%
%TO.N,/Project Architecture/Section A - Title A/GPIO_A4*%
X187000000Y-58650000D03*
%TD*%
D10*
%TO.P,H4,1,1*%
%TO.N,unconnected-(H4-Pad1)*%
X189150000Y-122610000D03*
%TD*%
%TO.P,H2,1,1*%
%TO.N,unconnected-(H2-Pad1)*%
X189150000Y-50610000D03*
%TD*%
D23*
%TO.P,J7,1*%
%TO.N,+5V*%
X187000000Y-90350000D03*
%TO.P,J7,2*%
%TO.N,GND*%
X187000000Y-87850000D03*
%TO.P,J7,3*%
%TO.N,/Project Architecture/Section A - Title A/GPIO_B1*%
X187000000Y-85350000D03*
%TO.P,J7,4*%
%TO.N,/Project Architecture/Section A - Title A/GPIO_B2*%
X187000000Y-82850000D03*
%TO.P,J7,5*%
%TO.N,/Project Architecture/Section A - Title A/GPIO_B3*%
X187000000Y-80350000D03*
%TO.P,J7,6*%
%TO.N,/Project Architecture/Section A - Title A/GPIO_B4*%
X187000000Y-77850000D03*
%TD*%
D14*
%TO.P,PS2,1,-VIN*%
%TO.N,GND*%
X141200000Y-98660000D03*
D15*
%TO.P,PS2,2,+VIN*%
%TO.N,+5V*%
X141200000Y-101200000D03*
%TO.P,PS2,3,-VOUT*%
%TO.N,GND_CAN2*%
X141200000Y-103740000D03*
%TO.P,PS2,4,+VOUT*%
%TO.N,+5V_CAN2*%
X141200000Y-106280000D03*
%TD*%
D24*
%TO.N,GND*%
X145900000Y-86900000D03*
X124500000Y-52525000D03*
X175900000Y-100700000D03*
X154000000Y-91700000D03*
X173075000Y-86300000D03*
X179150000Y-51200000D03*
X146671015Y-88828985D03*
X124500000Y-49625000D03*
X156250000Y-96410000D03*
X121555000Y-85625000D03*
X182350000Y-65175000D03*
X168775000Y-92700000D03*
X136900000Y-96200000D03*
X160000000Y-59500000D03*
X116245000Y-94325000D03*
X131650000Y-49750000D03*
X160000000Y-61000000D03*
X163000000Y-57950000D03*
X155310000Y-54100000D03*
X126500000Y-96300000D03*
X144700000Y-89100000D03*
X163000000Y-61000000D03*
X124600000Y-55325000D03*
X161500000Y-61000000D03*
X182350000Y-62725000D03*
X151900000Y-92200000D03*
X182950000Y-50262500D03*
X166000000Y-95400000D03*
X150110000Y-53100000D03*
X161500000Y-59500000D03*
X170410000Y-54100000D03*
X131650000Y-52550000D03*
X168775000Y-85800000D03*
X182550000Y-81925000D03*
X182375000Y-57675000D03*
X182550000Y-84375000D03*
X160000000Y-57950000D03*
X171475000Y-85300000D03*
X161500000Y-57950000D03*
X131600000Y-55350000D03*
X135250000Y-51150000D03*
X182350000Y-60175000D03*
X138880000Y-55350000D03*
X150200000Y-79500000D03*
X114955000Y-95325000D03*
X147630000Y-55400000D03*
X156250000Y-99710000D03*
X126500000Y-99600000D03*
X172810000Y-54100000D03*
X182550000Y-79375000D03*
X163000000Y-59500000D03*
X182575000Y-76875000D03*
X128000000Y-51125000D03*
X151910000Y-53100000D03*
X138700000Y-97700000D03*
X167075000Y-85800000D03*
%TO.N,+3V3*%
X133350000Y-98010000D03*
X124055000Y-96525000D03*
X178975000Y-88600000D03*
X118785000Y-86525000D03*
X150010000Y-56500000D03*
X165975000Y-88600000D03*
X151710000Y-56500000D03*
X131650000Y-58600000D03*
X177275000Y-90700000D03*
X124055000Y-94925000D03*
X155210000Y-55400000D03*
X136950000Y-98010000D03*
X177275000Y-86600000D03*
X154200000Y-80500000D03*
X118857500Y-84725000D03*
X166900000Y-98100000D03*
X163900000Y-96400000D03*
X169775000Y-88562500D03*
X124600000Y-58625000D03*
%TO.N,/Project Architecture/Section A - Title A/ESP32_EN*%
X155550000Y-56650000D03*
X127250000Y-56375000D03*
%TO.N,/Project Architecture/Section A - Title A/ESP32_BOOT*%
X134350000Y-57850000D03*
X170150000Y-70600000D03*
%TO.N,+5V*%
X182350000Y-54150000D03*
%TO.N,+5V_CAN1*%
X163850000Y-110410000D03*
X176000000Y-104400000D03*
X163850000Y-105310000D03*
%TO.N,+5V_CAN2*%
X134050000Y-110210000D03*
X138000000Y-105500000D03*
X134050000Y-105510000D03*
%TO.N,/Project Architecture/Section A - Title A/CAN2_INT*%
X168575000Y-73575000D03*
X154800000Y-85600000D03*
%TO.N,/Project Architecture/Section A - Title A/CAN2_MISO*%
X154800000Y-83000000D03*
X163500000Y-76100000D03*
%TO.N,/Project Architecture/Section A - Title A/CAN2_RST*%
X154800000Y-81600000D03*
X164700000Y-73600000D03*
%TO.N,/Project Architecture/Section A - Title A/CAN1_TX*%
X158800000Y-96200000D03*
X162500000Y-82800000D03*
%TO.N,GND_CAN1*%
X184450000Y-116810000D03*
X156250000Y-108810000D03*
X162050000Y-110410000D03*
X175900000Y-106200000D03*
%TO.N,GND_CAN2*%
X143750000Y-116610000D03*
X126450000Y-108510000D03*
X138000000Y-103700000D03*
X132350000Y-110210000D03*
%TO.N,+3V0*%
X117500000Y-91250000D03*
%TO.N,/Project Architecture/Section D - RTC/I2C_SDA*%
X152900000Y-68100000D03*
X151500000Y-72200000D03*
%TO.N,/Project Architecture/Section A - Title A/GPIO_A1*%
X171610000Y-60450000D03*
%TO.N,/Project Architecture/Section A - Title A/GPIO_A2*%
X171610000Y-59180000D03*
%TO.N,/Project Architecture/Section A - Title A/GPIO_A4*%
X171610000Y-56640000D03*
%TO.N,/Project Architecture/Section A - Title A/GPIO_A3*%
X171610000Y-57910000D03*
%TO.N,/Project Architecture/Section A - Title A/GPIO_B3*%
X167100000Y-66850000D03*
%TO.N,/Project Architecture/Section A - Title A/GPIO_B1*%
X167100000Y-69250000D03*
%TO.N,/Project Architecture/Section A - Title A/GPIO_B2*%
X167100000Y-68050000D03*
%TO.N,/Project Architecture/Section A - Title A/GPIO_B4*%
X167100000Y-65600000D03*
%TD*%
D25*
%TO.N,/Project Architecture/Section A - Title A/ESP32_EN*%
X127250000Y-56375000D02*
X141725000Y-56375000D01*
X155200000Y-57300000D02*
X155550000Y-56950000D01*
X141725000Y-56375000D02*
X142650000Y-57300000D01*
X142650000Y-57300000D02*
X155200000Y-57300000D01*
X155550000Y-56950000D02*
X155550000Y-56650000D01*
%TO.N,/Project Architecture/Section A - Title A/ESP32_BOOT*%
X134350000Y-57850000D02*
X134850000Y-58350000D01*
X134850000Y-58350000D02*
X153615631Y-58350000D01*
X165865631Y-70600000D02*
X170150000Y-70600000D01*
X153615631Y-58350000D02*
X165865631Y-70600000D01*
D26*
%TO.N,+5V*%
X141200000Y-101200000D02*
X170187500Y-101200000D01*
X170187500Y-101200000D02*
X177487500Y-93900000D01*
X190100000Y-57650000D02*
X190100000Y-78200000D01*
X183350000Y-55150000D02*
X187600000Y-55150000D01*
X190100000Y-78200000D02*
X190100000Y-71900000D01*
X187600000Y-55150000D02*
X190100000Y-57650000D01*
X177487500Y-93900000D02*
X188200000Y-93900000D01*
X190100000Y-71900000D02*
X189350000Y-71150000D01*
X188200000Y-93900000D02*
X190100000Y-92000000D01*
X189350000Y-71150000D02*
X187000000Y-71150000D01*
X190100000Y-92000000D02*
X190100000Y-78200000D01*
X182350000Y-54150000D02*
X183350000Y-55150000D01*
X187000000Y-93900000D02*
X187000000Y-90350000D01*
D27*
%TO.N,+5V_CAN1*%
X164525000Y-123575000D02*
X164550000Y-123550000D01*
X178800000Y-121800000D02*
X178800000Y-120200000D01*
X177050000Y-123550000D02*
X178800000Y-121800000D01*
X163200000Y-122250000D02*
X164525000Y-123575000D01*
X163200000Y-120200000D02*
X163200000Y-122250000D01*
X164550000Y-123550000D02*
X177050000Y-123550000D01*
D25*
%TO.N,/Project Architecture/Section A - Title A/CAN2_INT*%
X156550000Y-85600000D02*
X154800000Y-85600000D01*
X168575000Y-73575000D02*
X156550000Y-85600000D01*
%TO.N,/Project Architecture/Section A - Title A/CAN2_MISO*%
X154800000Y-83000000D02*
X156600000Y-83000000D01*
X156600000Y-83000000D02*
X163500000Y-76100000D01*
%TO.N,/Project Architecture/Section A - Title A/CAN2_RST*%
X156700000Y-81600000D02*
X164700000Y-73600000D01*
X154800000Y-81600000D02*
X156700000Y-81600000D01*
%TO.N,/Project Architecture/Section A - Title A/CAN1_TX*%
X162500000Y-82800000D02*
X158800000Y-86500000D01*
X158800000Y-86500000D02*
X158800000Y-96200000D01*
D27*
%TO.N,GND_CAN1*%
X176300000Y-118300000D02*
X176300000Y-120200000D01*
X160700000Y-120200000D02*
X160700000Y-118100000D01*
X174800000Y-116800000D02*
X176300000Y-118300000D01*
X162000000Y-116800000D02*
X174800000Y-116800000D01*
X160700000Y-118100000D02*
X162000000Y-116800000D01*
D25*
%TO.N,+3V0*%
X117500000Y-91250000D02*
X117600000Y-91150000D01*
D28*
X117550000Y-91200000D02*
X117500000Y-91250000D01*
X117600000Y-78500000D02*
X117550000Y-78500000D01*
X118142546Y-72400000D02*
X118142546Y-77957454D01*
X117550000Y-78500000D02*
X117550000Y-91200000D01*
X118142546Y-77957454D02*
X117600000Y-78500000D01*
D25*
%TO.N,/Project Architecture/Section D - RTC/I2C_SDA*%
X151500000Y-69500000D02*
X152900000Y-68100000D01*
X151500000Y-72200000D02*
X151500000Y-69500000D01*
%TO.N,/Project Architecture/Section A - Title A/GPIO_A1*%
X173600000Y-60450000D02*
X179300000Y-66150000D01*
X179300000Y-66150000D02*
X187000000Y-66150000D01*
X171610000Y-60450000D02*
X173600000Y-60450000D01*
%TO.N,/Project Architecture/Section A - Title A/GPIO_A2*%
X171610000Y-59180000D02*
X174480000Y-59180000D01*
X174480000Y-59180000D02*
X178950000Y-63650000D01*
X178950000Y-63650000D02*
X187000000Y-63650000D01*
%TO.N,/Project Architecture/Section A - Title A/GPIO_A4*%
X177850000Y-58650000D02*
X187000000Y-58650000D01*
X171610000Y-56640000D02*
X175840000Y-56640000D01*
X175840000Y-56640000D02*
X177850000Y-58650000D01*
%TO.N,/Project Architecture/Section A - Title A/GPIO_A3*%
X171610000Y-57910000D02*
X175260000Y-57910000D01*
X178500000Y-61150000D02*
X187000000Y-61150000D01*
X175260000Y-57910000D02*
X178500000Y-61150000D01*
%TO.N,/Project Architecture/Section A - Title A/GPIO_B3*%
X167100000Y-66850000D02*
X173100000Y-66850000D01*
X173100000Y-66850000D02*
X176900000Y-70650000D01*
X180150000Y-80350000D02*
X187000000Y-80350000D01*
X176900000Y-70650000D02*
X176900000Y-77100000D01*
X176900000Y-77100000D02*
X180150000Y-80350000D01*
%TO.N,/Project Architecture/Section A - Title A/GPIO_B1*%
X170350000Y-69250000D02*
X172750000Y-71650000D01*
X172750000Y-71650000D02*
X172750000Y-78500000D01*
X179600000Y-85350000D02*
X187000000Y-85350000D01*
X172750000Y-78500000D02*
X179600000Y-85350000D01*
X167100000Y-69250000D02*
X170350000Y-69250000D01*
%TO.N,/Project Architecture/Section A - Title A/GPIO_B2*%
X167100000Y-68050000D02*
X171950000Y-68050000D01*
X174950000Y-77650000D02*
X180150000Y-82850000D01*
X180150000Y-82850000D02*
X187000000Y-82850000D01*
X174950000Y-71050000D02*
X174950000Y-77650000D01*
X171950000Y-68050000D02*
X174950000Y-71050000D01*
%TO.N,/Project Architecture/Section A - Title A/GPIO_B4*%
X174100000Y-65600000D02*
X179050000Y-70550000D01*
X180400000Y-77850000D02*
X187000000Y-77850000D01*
X179050000Y-70550000D02*
X179050000Y-76500000D01*
X167100000Y-65600000D02*
X174100000Y-65600000D01*
X179050000Y-76500000D02*
X180400000Y-77850000D01*
%TD*%
M02*
