%TF.GenerationSoftware,KiCad,Pcbnew,9.0.7+1*%
%TF.CreationDate,Date%
%TF.ProjectId,LE_BMS_A_V2,4c455f42-4d53-45f4-915f-56322e6b6963,+ (Unreleased)*%
%TF.SameCoordinates,Original*%
%TF.FileFunction,Copper,L2,Inr*%
%TF.FilePolarity,Positive*%
%FSLAX46Y46*%
G04 Gerber Fmt 4.6, Leading zero omitted, Abs format (unit mm)*
G04 Created by KiCad*
%MOMM*%
%LPD*%
G01*
G04 APERTURE LIST*
G04 Aperture macros list*
%AMRoundRect*
0 Rectangle with rounded corners*
0 $1 Rounding radius*
0 $2 $3 $4 $5 $6 $7 $8 $9 X,Y pos of 4 corners*
0 Add a 4 corners polygon primitive as box body*
4,1,4,$2,$3,$4,$5,$6,$7,$8,$9,$2,$3,0*
0 Add four circle primitives for the rounded corners*
1,1,$1+$1,$2,$3*
1,1,$1+$1,$4,$5*
1,1,$1+$1,$6,$7*
1,1,$1+$1,$8,$9*
0 Add four rect primitives between the rounded corners*
20,1,$1+$1,$2,$3,$4,$5,0*
20,1,$1+$1,$4,$5,$6,$7,0*
20,1,$1+$1,$6,$7,$8,$9,0*
20,1,$1+$1,$8,$9,$2,$3,0*%
G04 Aperture macros list end*
%TA.AperFunction,ComponentPad*%
%ADD10C,5.600000*%
%TD*%
%TA.AperFunction,ComponentPad*%
%ADD11C,2.400000*%
%TD*%
%TA.AperFunction,ComponentPad*%
%ADD12RoundRect,0.250000X-0.600000X-0.725000X0.600000X-0.725000X0.600000X0.725000X-0.600000X0.725000X0*%
%TD*%
%TA.AperFunction,ComponentPad*%
%ADD13O,1.700000X1.950000*%
%TD*%
%TA.AperFunction,HeatsinkPad*%
%ADD14C,0.600000*%
%TD*%
%TA.AperFunction,ComponentPad*%
%ADD15R,1.508000X1.508000*%
%TD*%
%TA.AperFunction,ComponentPad*%
%ADD16C,1.508000*%
%TD*%
%TA.AperFunction,ComponentPad*%
%ADD17O,2.150000X1.050000*%
%TD*%
%TA.AperFunction,ComponentPad*%
%ADD18O,1.850000X1.050000*%
%TD*%
%TA.AperFunction,ComponentPad*%
%ADD19R,1.448000X1.448000*%
%TD*%
%TA.AperFunction,ComponentPad*%
%ADD20C,1.448000*%
%TD*%
%TA.AperFunction,ComponentPad*%
%ADD21C,2.430000*%
%TD*%
%TA.AperFunction,ComponentPad*%
%ADD22C,2.100000*%
%TD*%
%TA.AperFunction,ViaPad*%
%ADD23C,0.550000*%
%TD*%
G04 APERTURE END LIST*
D10*
%TO.N,unconnected-(H3-Pad1)*%
%TO.C,H3*%
X46400000Y-126200000D03*
%TD*%
D11*
%TO.N,+5V_CAN1*%
%TO.C,J4*%
X112200000Y-108640000D03*
%TO.N,GND_CAN1*%
X112200000Y-103560000D03*
%TD*%
D12*
%TO.N,/Project Architecture/Section B - Title B/CAN1_H*%
%TO.C,J6*%
X100550000Y-120850000D03*
D13*
%TO.N,/Project Architecture/Section B - Title B/CAN1_L*%
X103050000Y-120850000D03*
%TO.N,GND_CAN1*%
X105550000Y-120850000D03*
%TO.N,+5V_CAN1*%
X108050000Y-120850000D03*
%TD*%
D14*
%TO.N,GND*%
%TO.C,U1*%
X89150000Y-61250000D03*
X89150000Y-62750000D03*
X89900000Y-60500000D03*
X89900000Y-62000000D03*
X89900000Y-63500000D03*
X90650000Y-61250000D03*
X90650000Y-62750000D03*
X91400000Y-60500000D03*
X91400000Y-62000000D03*
X91400000Y-63500000D03*
X92150000Y-61250000D03*
X92150000Y-62750000D03*
%TD*%
D10*
%TO.N,unconnected-(H1-Pad1)*%
%TO.C,H1*%
X46400000Y-54200000D03*
%TD*%
D15*
%TO.N,GND_CAN1*%
%TO.C,PS1*%
X101837500Y-110007500D03*
D16*
%TO.N,+5V_CAN1*%
X101837500Y-107467500D03*
%TO.N,GND*%
X101837500Y-104927500D03*
%TO.N,+5V*%
X101837500Y-102387500D03*
%TD*%
D17*
%TO.N,GND*%
%TO.C,J1*%
X49320000Y-80380000D03*
X49320000Y-89020000D03*
D18*
X45140000Y-80380000D03*
X45140000Y-89020000D03*
%TD*%
D19*
%TO.N,unconnected-(J5-Pad1)*%
%TO.C,J5*%
X66256000Y-121960000D03*
D20*
%TO.N,unconnected-(J5-Pad2)*%
X65240000Y-120180000D03*
%TO.N,GND_CAN2*%
X64224000Y-121960000D03*
%TO.N,unconnected-(J5-Pad4)*%
X63208000Y-120180000D03*
%TO.N,unconnected-(J5-Pad5)*%
X62192000Y-121960000D03*
%TO.N,unconnected-(J5-Pad6)*%
X61176000Y-120180000D03*
%TO.N,/Project Architecture/Section B - Title B/CAN2_H*%
X60160000Y-121960000D03*
%TO.N,/Project Architecture/Section B - Title B/CAN2_L*%
X59144000Y-120180000D03*
D21*
%TO.N,GND_CAN2*%
X54570000Y-121070000D03*
X70830000Y-121070000D03*
%TD*%
D12*
%TO.N,/Project Architecture/Section B - Title B/CAN1_H*%
%TO.C,J2*%
X84950000Y-120850000D03*
D13*
%TO.N,/Project Architecture/Section B - Title B/CAN1_L*%
X87450000Y-120850000D03*
%TO.N,GND_CAN1*%
X89950000Y-120850000D03*
%TO.N,+5V_CAN1*%
X92450000Y-120850000D03*
%TD*%
D10*
%TO.N,unconnected-(H4-Pad1)*%
%TO.C,H4*%
X118400000Y-126200000D03*
%TD*%
D22*
%TO.N,unconnected-(J3-Pad1)*%
%TO.C,J3*%
X112900000Y-91800000D03*
%TO.N,unconnected-(J3-Pad2)*%
X112900000Y-89300000D03*
%TO.N,unconnected-(J3-Pad3)*%
X112900000Y-86800000D03*
%TO.N,unconnected-(J3-Pad4)*%
X112900000Y-84300000D03*
%TO.N,unconnected-(J3-Pad5)*%
X112900000Y-81800000D03*
%TO.N,unconnected-(J3-Pad6)*%
X112900000Y-79300000D03*
%TO.N,unconnected-(J3-Pad7)*%
X112900000Y-76800000D03*
%TO.N,unconnected-(J3-Pad8)*%
X112900000Y-74300000D03*
%TO.N,unconnected-(J3-Pad9)*%
X112900000Y-71800000D03*
%TO.N,unconnected-(J3-Pad10)*%
X112900000Y-69300000D03*
%TO.N,unconnected-(J3-Pad11)*%
X112900000Y-66800000D03*
%TO.N,unconnected-(J3-Pad12)*%
X112900000Y-64300000D03*
%TD*%
D10*
%TO.N,unconnected-(H2-Pad1)*%
%TO.C,H2*%
X118400000Y-54200000D03*
%TD*%
D15*
%TO.N,GND*%
%TO.C,PS2*%
X70450000Y-102250000D03*
D16*
%TO.N,+5V*%
X70450000Y-104790000D03*
%TO.N,GND_CAN2*%
X70450000Y-107330000D03*
%TO.N,+5V_CAN2*%
X70450000Y-109870000D03*
%TD*%
D23*
%TO.N,GND*%
X101575000Y-88800000D03*
X105260000Y-54450000D03*
X85500000Y-100000000D03*
X97275000Y-95200000D03*
X84460000Y-56650000D03*
X109360000Y-54950000D03*
X79260000Y-55650000D03*
X99560000Y-56650000D03*
X97275000Y-88300000D03*
X99975000Y-87800000D03*
X85500000Y-103300000D03*
X101960000Y-56650000D03*
X81060000Y-55650000D03*
X95575000Y-88300000D03*
%TO.N,+3V3*%
X62600000Y-101600000D03*
X107475000Y-91100000D03*
X79160000Y-59050000D03*
X94475000Y-91100000D03*
X80860000Y-59050000D03*
X105775000Y-93200000D03*
X84360000Y-57950000D03*
X66200000Y-101600000D03*
X105775000Y-89100000D03*
X98275000Y-91062500D03*
%TO.N,+5V_CAN1*%
X93100000Y-114000000D03*
X93100000Y-108900000D03*
%TO.N,+5V_CAN2*%
X63300000Y-113800000D03*
X63300000Y-109100000D03*
%TO.N,GND_CAN1*%
X113700000Y-120400000D03*
X85500000Y-112400000D03*
X91300000Y-114000000D03*
%TO.N,GND_CAN2*%
X73000000Y-120200000D03*
X55700000Y-112100000D03*
X61600000Y-113800000D03*
%TD*%
%TA.AperFunction,Conductor*%
%TO.N,GND_CAN2*%
G36*
X69696475Y-106219685D02*
G01*
X69717486Y-106243933D01*
X70320591Y-106847037D01*
X70257007Y-106864075D01*
X70142993Y-106929901D01*
X70049901Y-107022993D01*
X69984075Y-107137007D01*
X69967037Y-107200590D01*
X69403457Y-106637010D01*
X69403456Y-106637010D01*
X69377483Y-106672760D01*
X69377482Y-106672762D01*
X69287873Y-106848626D01*
X69226876Y-107036353D01*
X69196000Y-107231302D01*
X69196000Y-107428697D01*
X69226876Y-107623646D01*
X69287873Y-107811373D01*
X69377483Y-107987239D01*
X69403457Y-108022988D01*
X69403457Y-108022989D01*
X69967037Y-107459408D01*
X69984075Y-107522993D01*
X70049901Y-107637007D01*
X70142993Y-107730099D01*
X70257007Y-107795925D01*
X70320590Y-107812962D01*
X69757009Y-108376541D01*
X69757010Y-108376542D01*
X69792755Y-108402512D01*
X69792768Y-108402520D01*
X69968626Y-108492126D01*
X70156353Y-108553123D01*
X70351303Y-108584000D01*
X70548697Y-108584000D01*
X70743646Y-108553123D01*
X70931373Y-108492126D01*
X71107241Y-108402516D01*
X71142988Y-108376543D01*
X71142988Y-108376541D01*
X70579410Y-107812962D01*
X70642993Y-107795925D01*
X70757007Y-107730099D01*
X70850099Y-107637007D01*
X70915925Y-107522993D01*
X70932962Y-107459409D01*
X71496541Y-108022988D01*
X71496543Y-108022988D01*
X71522516Y-107987241D01*
X71612126Y-107811373D01*
X71673123Y-107623646D01*
X71704000Y-107428697D01*
X71704000Y-107231302D01*
X71673123Y-107036353D01*
X71612126Y-106848626D01*
X71522520Y-106672768D01*
X71522512Y-106672755D01*
X71496542Y-106637010D01*
X71496541Y-106637009D01*
X70932962Y-107200589D01*
X70915925Y-107137007D01*
X70850099Y-107022993D01*
X70757007Y-106929901D01*
X70642993Y-106864075D01*
X70579409Y-106847037D01*
X71176275Y-106250171D01*
X71210355Y-106215598D01*
X71270563Y-106200000D01*
X78276000Y-106200000D01*
X78343039Y-106219685D01*
X78388794Y-106272489D01*
X78400000Y-106324000D01*
X78400000Y-129825500D01*
X78380315Y-129892539D01*
X78327511Y-129938294D01*
X78276000Y-129949500D01*
X46403051Y-129949500D01*
X46396968Y-129949351D01*
X46374856Y-129948264D01*
X46038567Y-129931743D01*
X46026457Y-129930550D01*
X45674532Y-129878347D01*
X45662597Y-129875973D01*
X45317481Y-129789526D01*
X45305837Y-129785994D01*
X44970858Y-129666136D01*
X44959629Y-129661485D01*
X44637999Y-129509366D01*
X44627272Y-129503631D01*
X44322118Y-129320729D01*
X44312000Y-129313969D01*
X44026230Y-129102028D01*
X44016824Y-129094308D01*
X43886809Y-128976469D01*
X43753209Y-128855381D01*
X43744618Y-128846790D01*
X43505691Y-128583175D01*
X43497971Y-128573769D01*
X43286030Y-128287999D01*
X43279270Y-128277881D01*
X43234102Y-128202523D01*
X43096363Y-127972720D01*
X43090639Y-127962012D01*
X42938511Y-127640363D01*
X42933867Y-127629151D01*
X42814000Y-127294147D01*
X42810473Y-127282518D01*
X42724023Y-126937389D01*
X42721652Y-126925467D01*
X42669449Y-126573542D01*
X42668256Y-126561431D01*
X42650649Y-126203032D01*
X42650500Y-126196948D01*
X42650500Y-126031491D01*
X43399500Y-126031491D01*
X43399500Y-126368508D01*
X43437231Y-126703381D01*
X43437233Y-126703397D01*
X43512223Y-127031953D01*
X43512227Y-127031965D01*
X43623532Y-127350054D01*
X43769752Y-127653683D01*
X43769754Y-127653686D01*
X43949054Y-127939039D01*
X44159175Y-128202523D01*
X44397477Y-128440825D01*
X44660961Y-128650946D01*
X44946314Y-128830246D01*
X45249949Y-128976469D01*
X45488848Y-129060063D01*
X45568034Y-129087772D01*
X45568046Y-129087776D01*
X45896606Y-129162767D01*
X46231492Y-129200499D01*
X46231493Y-129200500D01*
X46231496Y-129200500D01*
X46568507Y-129200500D01*
X46568507Y-129200499D01*
X46903394Y-129162767D01*
X47231954Y-129087776D01*
X47550051Y-128976469D01*
X47853686Y-128830246D01*
X48139039Y-128650946D01*
X48402523Y-128440825D01*
X48640825Y-128202523D01*
X48850946Y-127939039D01*
X49030246Y-127653686D01*
X49176469Y-127350051D01*
X49287776Y-127031954D01*
X49362767Y-126703394D01*
X49400500Y-126368504D01*
X49400500Y-126031496D01*
X49362767Y-125696606D01*
X49287776Y-125368046D01*
X49176469Y-125049949D01*
X49030246Y-124746314D01*
X48850946Y-124460961D01*
X48785354Y-124378711D01*
X54499500Y-124378711D01*
X54499500Y-124621288D01*
X54531161Y-124861785D01*
X54593947Y-125096104D01*
X54686773Y-125320205D01*
X54686776Y-125320212D01*
X54808064Y-125530289D01*
X54808066Y-125530292D01*
X54808067Y-125530293D01*
X54955733Y-125722736D01*
X54955739Y-125722743D01*
X55127256Y-125894260D01*
X55127262Y-125894265D01*
X55319711Y-126041936D01*
X55529788Y-126163224D01*
X55753900Y-126256054D01*
X55988211Y-126318838D01*
X56168586Y-126342584D01*
X56228711Y-126350500D01*
X56228712Y-126350500D01*
X56471289Y-126350500D01*
X56519388Y-126344167D01*
X56711789Y-126318838D01*
X56946100Y-126256054D01*
X57170212Y-126163224D01*
X57380289Y-126041936D01*
X57572738Y-125894265D01*
X57744265Y-125722738D01*
X57891936Y-125530289D01*
X58013224Y-125320212D01*
X58106054Y-125096100D01*
X58168838Y-124861789D01*
X58200500Y-124621288D01*
X58200500Y-124378712D01*
X58200500Y-124378711D01*
X67199500Y-124378711D01*
X67199500Y-124621288D01*
X67231161Y-124861785D01*
X67293947Y-125096104D01*
X67386773Y-125320205D01*
X67386776Y-125320212D01*
X67508064Y-125530289D01*
X67508066Y-125530292D01*
X67508067Y-125530293D01*
X67655733Y-125722736D01*
X67655739Y-125722743D01*
X67827256Y-125894260D01*
X67827262Y-125894265D01*
X68019711Y-126041936D01*
X68229788Y-126163224D01*
X68453900Y-126256054D01*
X68688211Y-126318838D01*
X68868586Y-126342584D01*
X68928711Y-126350500D01*
X68928712Y-126350500D01*
X69171289Y-126350500D01*
X69219388Y-126344167D01*
X69411789Y-126318838D01*
X69646100Y-126256054D01*
X69870212Y-126163224D01*
X70080289Y-126041936D01*
X70272738Y-125894265D01*
X70444265Y-125722738D01*
X70591936Y-125530289D01*
X70713224Y-125320212D01*
X70806054Y-125096100D01*
X70868838Y-124861789D01*
X70900500Y-124621288D01*
X70900500Y-124378712D01*
X70868838Y-124138211D01*
X70806054Y-123903900D01*
X70713224Y-123679788D01*
X70591936Y-123469711D01*
X70471092Y-123312224D01*
X70444266Y-123277263D01*
X70444260Y-123277256D01*
X70272743Y-123105739D01*
X70272736Y-123105733D01*
X70080293Y-122958067D01*
X70080292Y-122958066D01*
X70080289Y-122958064D01*
X69870212Y-122836776D01*
X69870205Y-122836773D01*
X69646104Y-122743947D01*
X69411785Y-122681161D01*
X69171289Y-122649500D01*
X69171288Y-122649500D01*
X68928712Y-122649500D01*
X68928711Y-122649500D01*
X68688214Y-122681161D01*
X68453895Y-122743947D01*
X68229794Y-122836773D01*
X68229785Y-122836777D01*
X68019706Y-122958067D01*
X67827263Y-123105733D01*
X67827256Y-123105739D01*
X67655739Y-123277256D01*
X67655733Y-123277263D01*
X67508067Y-123469706D01*
X67386777Y-123679785D01*
X67386773Y-123679794D01*
X67293947Y-123903895D01*
X67231161Y-124138214D01*
X67199500Y-124378711D01*
X58200500Y-124378711D01*
X58168838Y-124138211D01*
X58106054Y-123903900D01*
X58013224Y-123679788D01*
X57891936Y-123469711D01*
X57771092Y-123312224D01*
X57744266Y-123277263D01*
X57744260Y-123277256D01*
X57572743Y-123105739D01*
X57572736Y-123105733D01*
X57380293Y-122958067D01*
X57380292Y-122958066D01*
X57380289Y-122958064D01*
X57170212Y-122836776D01*
X57170205Y-122836773D01*
X56946104Y-122743947D01*
X56711785Y-122681161D01*
X56471289Y-122649500D01*
X56471288Y-122649500D01*
X56228712Y-122649500D01*
X56228711Y-122649500D01*
X55988214Y-122681161D01*
X55753895Y-122743947D01*
X55529794Y-122836773D01*
X55529785Y-122836777D01*
X55319706Y-122958067D01*
X55127263Y-123105733D01*
X55127256Y-123105739D01*
X54955739Y-123277256D01*
X54955733Y-123277263D01*
X54808067Y-123469706D01*
X54686777Y-123679785D01*
X54686773Y-123679794D01*
X54593947Y-123903895D01*
X54531161Y-124138214D01*
X54499500Y-124378711D01*
X48785354Y-124378711D01*
X48640825Y-124197477D01*
X48402523Y-123959175D01*
X48139039Y-123749054D01*
X47853686Y-123569754D01*
X47853683Y-123569752D01*
X47550054Y-123423532D01*
X47231965Y-123312227D01*
X47231953Y-123312223D01*
X46903397Y-123237233D01*
X46903381Y-123237231D01*
X46568508Y-123199500D01*
X46568504Y-123199500D01*
X46231496Y-123199500D01*
X46231491Y-123199500D01*
X45896618Y-123237231D01*
X45896602Y-123237233D01*
X45568046Y-123312223D01*
X45568034Y-123312227D01*
X45249945Y-123423532D01*
X44946316Y-123569752D01*
X44660962Y-123749053D01*
X44397477Y-123959174D01*
X44159174Y-124197477D01*
X43949053Y-124460962D01*
X43769752Y-124746316D01*
X43623532Y-125049945D01*
X43512227Y-125368034D01*
X43512223Y-125368046D01*
X43437233Y-125696602D01*
X43437231Y-125696618D01*
X43399500Y-126031491D01*
X42650500Y-126031491D01*
X42650500Y-120957599D01*
X52855000Y-120957599D01*
X52855000Y-121182400D01*
X52855001Y-121182417D01*
X52884342Y-121405287D01*
X52884345Y-121405300D01*
X52942529Y-121622450D01*
X53028561Y-121830149D01*
X53028566Y-121830160D01*
X53140963Y-122024836D01*
X53140969Y-122024844D01*
X53193343Y-122093101D01*
X53846499Y-121439945D01*
X53852188Y-121453679D01*
X53940832Y-121586345D01*
X54053655Y-121699168D01*
X54186321Y-121787812D01*
X54200053Y-121793500D01*
X53546897Y-122446655D01*
X53546897Y-122446656D01*
X53615155Y-122499030D01*
X53615163Y-122499036D01*
X53809839Y-122611433D01*
X53809850Y-122611438D01*
X54017549Y-122697470D01*
X54234699Y-122755654D01*
X54234712Y-122755657D01*
X54457582Y-122784998D01*
X54457600Y-122785000D01*
X54682400Y-122785000D01*
X54682417Y-122784998D01*
X54905287Y-122755657D01*
X54905300Y-122755654D01*
X55122450Y-122697470D01*
X55330149Y-122611438D01*
X55330160Y-122611433D01*
X55524839Y-122499034D01*
X55524847Y-122499028D01*
X55593101Y-122446655D01*
X54939946Y-121793500D01*
X54953679Y-121787812D01*
X55086345Y-121699168D01*
X55199168Y-121586345D01*
X55287812Y-121453679D01*
X55293500Y-121439946D01*
X55946655Y-122093101D01*
X55999028Y-122024847D01*
X55999034Y-122024839D01*
X56111433Y-121830160D01*
X56111438Y-121830149D01*
X56197470Y-121622450D01*
X56255654Y-121405300D01*
X56255657Y-121405287D01*
X56284998Y-121182417D01*
X56285000Y-121182400D01*
X56285000Y-120957599D01*
X56284998Y-120957582D01*
X56255657Y-120734712D01*
X56255654Y-120734699D01*
X56197470Y-120517549D01*
X56111438Y-120309850D01*
X56111433Y-120309839D01*
X56016179Y-120144855D01*
X56016178Y-120144854D01*
X55999032Y-120115156D01*
X55999030Y-120115155D01*
X55978915Y-120088940D01*
X58219500Y-120088940D01*
X58219500Y-120271059D01*
X58255026Y-120449659D01*
X58255028Y-120449667D01*
X58324717Y-120617912D01*
X58324722Y-120617921D01*
X58425893Y-120769333D01*
X58425896Y-120769337D01*
X58554662Y-120898103D01*
X58554666Y-120898106D01*
X58706078Y-120999277D01*
X58706084Y-120999280D01*
X58706085Y-120999281D01*
X58874333Y-121068972D01*
X58997966Y-121093564D01*
X59052940Y-121104499D01*
X59052944Y-121104500D01*
X59052945Y-121104500D01*
X59235056Y-121104500D01*
X59235057Y-121104499D01*
X59300677Y-121091447D01*
X59419642Y-121067784D01*
X59419876Y-121068960D01*
X59483382Y-121068388D01*
X59542498Y-121105631D01*
X59572095Y-121168922D01*
X59562775Y-121238167D01*
X59537203Y-121275356D01*
X59441893Y-121370666D01*
X59340722Y-121522078D01*
X59340717Y-121522087D01*
X59271028Y-121690332D01*
X59271026Y-121690340D01*
X59235500Y-121868940D01*
X59235500Y-122051059D01*
X59271026Y-122229659D01*
X59271028Y-122229667D01*
X59340717Y-122397912D01*
X59340722Y-122397921D01*
X59441893Y-122549333D01*
X59441896Y-122549337D01*
X59570662Y-122678103D01*
X59570666Y-122678106D01*
X59722078Y-122779277D01*
X59722084Y-122779280D01*
X59722085Y-122779281D01*
X59890333Y-122848972D01*
X60010462Y-122872867D01*
X60068940Y-122884499D01*
X60068944Y-122884500D01*
X60068945Y-122884500D01*
X60251056Y-122884500D01*
X60251057Y-122884499D01*
X60429667Y-122848972D01*
X60597915Y-122779281D01*
X60749334Y-122678106D01*
X60878106Y-122549334D01*
X60979281Y-122397915D01*
X61048972Y-122229667D01*
X61054383Y-122202466D01*
X61086767Y-122140555D01*
X61147483Y-122105981D01*
X61217253Y-122109720D01*
X61273925Y-122150586D01*
X61297617Y-122202466D01*
X61303026Y-122229659D01*
X61303028Y-122229667D01*
X61372717Y-122397912D01*
X61372722Y-122397921D01*
X61473893Y-122549333D01*
X61473896Y-122549337D01*
X61602662Y-122678103D01*
X61602666Y-122678106D01*
X61754078Y-122779277D01*
X61754084Y-122779280D01*
X61754085Y-122779281D01*
X61922333Y-122848972D01*
X62042462Y-122872867D01*
X62100940Y-122884499D01*
X62100944Y-122884500D01*
X62100945Y-122884500D01*
X62283056Y-122884500D01*
X62283057Y-122884499D01*
X62461667Y-122848972D01*
X62629915Y-122779281D01*
X62781334Y-122678106D01*
X62910106Y-122549334D01*
X62928985Y-122521078D01*
X62982596Y-122476273D01*
X63051920Y-122467564D01*
X63114948Y-122497718D01*
X63142572Y-122533672D01*
X63177139Y-122601511D01*
X63198934Y-122631511D01*
X63765531Y-122064914D01*
X63786029Y-122141413D01*
X63847906Y-122248587D01*
X63935413Y-122336094D01*
X64042587Y-122397971D01*
X64119084Y-122418468D01*
X63552486Y-122985064D01*
X63552487Y-122985065D01*
X63582473Y-123006851D01*
X63582482Y-123006857D01*
X63754144Y-123094323D01*
X63937382Y-123153861D01*
X63937381Y-123153861D01*
X64127670Y-123184000D01*
X64320330Y-123184000D01*
X64510618Y-123153861D01*
X64693855Y-123094323D01*
X64865516Y-123006858D01*
X64895511Y-122985065D01*
X64895511Y-122985064D01*
X64328915Y-122418467D01*
X64405413Y-122397971D01*
X64512587Y-122336094D01*
X64600094Y-122248587D01*
X64661971Y-122141413D01*
X64682468Y-122064915D01*
X65264722Y-122647169D01*
X65274610Y-122649247D01*
X65324367Y-122698298D01*
X65337578Y-122734308D01*
X65343132Y-122762229D01*
X65343132Y-122762230D01*
X65387447Y-122828552D01*
X65453769Y-122872867D01*
X65453770Y-122872868D01*
X65512247Y-122884499D01*
X65512250Y-122884500D01*
X65512252Y-122884500D01*
X66999750Y-122884500D01*
X66999751Y-122884499D01*
X67014568Y-122881552D01*
X67058229Y-122872868D01*
X67058229Y-122872867D01*
X67058231Y-122872867D01*
X67124552Y-122828552D01*
X67168867Y-122762231D01*
X67168867Y-122762229D01*
X67168868Y-122762229D01*
X67180499Y-122703752D01*
X67180500Y-122703750D01*
X67180500Y-121216249D01*
X67180499Y-121216247D01*
X67168868Y-121157770D01*
X67168867Y-121157769D01*
X67124552Y-121091447D01*
X67072453Y-121056636D01*
X67072452Y-121056635D01*
X67058231Y-121047132D01*
X67058229Y-121047131D01*
X66999752Y-121035500D01*
X66999748Y-121035500D01*
X65991303Y-121035500D01*
X65924264Y-121015815D01*
X65878509Y-120963011D01*
X65877731Y-120957599D01*
X69115000Y-120957599D01*
X69115000Y-121182400D01*
X69115001Y-121182417D01*
X69144342Y-121405287D01*
X69144345Y-121405300D01*
X69202529Y-121622450D01*
X69288561Y-121830149D01*
X69288566Y-121830160D01*
X69400963Y-122024836D01*
X69400969Y-122024844D01*
X69453343Y-122093101D01*
X70106499Y-121439945D01*
X70112188Y-121453679D01*
X70200832Y-121586345D01*
X70313655Y-121699168D01*
X70446321Y-121787812D01*
X70460053Y-121793500D01*
X69806897Y-122446655D01*
X69806897Y-122446656D01*
X69875155Y-122499030D01*
X69875163Y-122499036D01*
X70069839Y-122611433D01*
X70069850Y-122611438D01*
X70277549Y-122697470D01*
X70494699Y-122755654D01*
X70494712Y-122755657D01*
X70717582Y-122784998D01*
X70717600Y-122785000D01*
X70942400Y-122785000D01*
X70942417Y-122784998D01*
X71165287Y-122755657D01*
X71165300Y-122755654D01*
X71382450Y-122697470D01*
X71590149Y-122611438D01*
X71590160Y-122611433D01*
X71784839Y-122499034D01*
X71784847Y-122499028D01*
X71853101Y-122446655D01*
X71199946Y-121793500D01*
X71213679Y-121787812D01*
X71346345Y-121699168D01*
X71459168Y-121586345D01*
X71547812Y-121453679D01*
X71553500Y-121439946D01*
X72206655Y-122093101D01*
X72259028Y-122024847D01*
X72259034Y-122024839D01*
X72371433Y-121830160D01*
X72371438Y-121830149D01*
X72457470Y-121622450D01*
X72515654Y-121405300D01*
X72515657Y-121405287D01*
X72544998Y-121182417D01*
X72545000Y-121182400D01*
X72545000Y-120957599D01*
X72544998Y-120957582D01*
X72515657Y-120734712D01*
X72515654Y-120734699D01*
X72457470Y-120517549D01*
X72371438Y-120309850D01*
X72371433Y-120309839D01*
X72259036Y-120115163D01*
X72259030Y-120115155D01*
X72206655Y-120046897D01*
X71553499Y-120700052D01*
X71547812Y-120686321D01*
X71459168Y-120553655D01*
X71346345Y-120440832D01*
X71213679Y-120352188D01*
X71199946Y-120346499D01*
X71853101Y-119693343D01*
X71853101Y-119693342D01*
X71784844Y-119640969D01*
X71784836Y-119640963D01*
X71590160Y-119528566D01*
X71590149Y-119528561D01*
X71382450Y-119442529D01*
X71165300Y-119384345D01*
X71165287Y-119384342D01*
X70942417Y-119355001D01*
X70942400Y-119355000D01*
X70717600Y-119355000D01*
X70717582Y-119355001D01*
X70494712Y-119384342D01*
X70494699Y-119384345D01*
X70277549Y-119442529D01*
X70069850Y-119528561D01*
X70069839Y-119528566D01*
X69875161Y-119640964D01*
X69875146Y-119640974D01*
X69806896Y-119693343D01*
X70460053Y-120346499D01*
X70446321Y-120352188D01*
X70313655Y-120440832D01*
X70200832Y-120553655D01*
X70112188Y-120686321D01*
X70106499Y-120700052D01*
X69453343Y-120046896D01*
X69400974Y-120115146D01*
X69400964Y-120115161D01*
X69288566Y-120309839D01*
X69288561Y-120309850D01*
X69202529Y-120517549D01*
X69144345Y-120734699D01*
X69144342Y-120734712D01*
X69115001Y-120957582D01*
X69115000Y-120957599D01*
X65877731Y-120957599D01*
X65868565Y-120893853D01*
X65897590Y-120830297D01*
X65903622Y-120823819D01*
X65958103Y-120769337D01*
X65958106Y-120769334D01*
X66059281Y-120617915D01*
X66128972Y-120449667D01*
X66164500Y-120271055D01*
X66164500Y-120088945D01*
X66128972Y-119910333D01*
X66059281Y-119742085D01*
X66059280Y-119742084D01*
X66059277Y-119742078D01*
X65958106Y-119590666D01*
X65958103Y-119590662D01*
X65829337Y-119461896D01*
X65829333Y-119461893D01*
X65677921Y-119360722D01*
X65677912Y-119360717D01*
X65509667Y-119291028D01*
X65509659Y-119291026D01*
X65331059Y-119255500D01*
X65331055Y-119255500D01*
X65148945Y-119255500D01*
X65148940Y-119255500D01*
X64970340Y-119291026D01*
X64970332Y-119291028D01*
X64802087Y-119360717D01*
X64802078Y-119360722D01*
X64650666Y-119461893D01*
X64650662Y-119461896D01*
X64521896Y-119590662D01*
X64521893Y-119590666D01*
X64420722Y-119742078D01*
X64420717Y-119742087D01*
X64351028Y-119910332D01*
X64351026Y-119910340D01*
X64345617Y-119937533D01*
X64313232Y-119999444D01*
X64252516Y-120034019D01*
X64182747Y-120030279D01*
X64126075Y-119989412D01*
X64102383Y-119937533D01*
X64096973Y-119910340D01*
X64096972Y-119910333D01*
X64027281Y-119742085D01*
X64027280Y-119742084D01*
X64027277Y-119742078D01*
X63926106Y-119590666D01*
X63926103Y-119590662D01*
X63797337Y-119461896D01*
X63797333Y-119461893D01*
X63645921Y-119360722D01*
X63645912Y-119360717D01*
X63477667Y-119291028D01*
X63477659Y-119291026D01*
X63299059Y-119255500D01*
X63299055Y-119255500D01*
X63116945Y-119255500D01*
X63116940Y-119255500D01*
X62938340Y-119291026D01*
X62938332Y-119291028D01*
X62770087Y-119360717D01*
X62770078Y-119360722D01*
X62618666Y-119461893D01*
X62618662Y-119461896D01*
X62489896Y-119590662D01*
X62489893Y-119590666D01*
X62388722Y-119742078D01*
X62388717Y-119742087D01*
X62319028Y-119910332D01*
X62319026Y-119910340D01*
X62313617Y-119937533D01*
X62281232Y-119999444D01*
X62220516Y-120034019D01*
X62150747Y-120030279D01*
X62094075Y-119989412D01*
X62070383Y-119937533D01*
X62064973Y-119910340D01*
X62064972Y-119910333D01*
X61995281Y-119742085D01*
X61995280Y-119742084D01*
X61995277Y-119742078D01*
X61894106Y-119590666D01*
X61894103Y-119590662D01*
X61765337Y-119461896D01*
X61765333Y-119461893D01*
X61613921Y-119360722D01*
X61613912Y-119360717D01*
X61445667Y-119291028D01*
X61445659Y-119291026D01*
X61267059Y-119255500D01*
X61267055Y-119255500D01*
X61084945Y-119255500D01*
X61084940Y-119255500D01*
X60906340Y-119291026D01*
X60906332Y-119291028D01*
X60738087Y-119360717D01*
X60738078Y-119360722D01*
X60586666Y-119461893D01*
X60586662Y-119461896D01*
X60457896Y-119590662D01*
X60457893Y-119590666D01*
X60356722Y-119742078D01*
X60356717Y-119742087D01*
X60287028Y-119910332D01*
X60287026Y-119910340D01*
X60281617Y-119937533D01*
X60249232Y-119999444D01*
X60188516Y-120034019D01*
X60118747Y-120030279D01*
X60062075Y-119989412D01*
X60038383Y-119937533D01*
X60032973Y-119910340D01*
X60032972Y-119910333D01*
X59963281Y-119742085D01*
X59963280Y-119742084D01*
X59963277Y-119742078D01*
X59862106Y-119590666D01*
X59862103Y-119590662D01*
X59733337Y-119461896D01*
X59733333Y-119461893D01*
X59581921Y-119360722D01*
X59581912Y-119360717D01*
X59413667Y-119291028D01*
X59413659Y-119291026D01*
X59235059Y-119255500D01*
X59235055Y-119255500D01*
X59052945Y-119255500D01*
X59052940Y-119255500D01*
X58874340Y-119291026D01*
X58874332Y-119291028D01*
X58706087Y-119360717D01*
X58706078Y-119360722D01*
X58554666Y-119461893D01*
X58554662Y-119461896D01*
X58425896Y-119590662D01*
X58425893Y-119590666D01*
X58324722Y-119742078D01*
X58324717Y-119742087D01*
X58255028Y-119910332D01*
X58255026Y-119910340D01*
X58219500Y-120088940D01*
X55978915Y-120088940D01*
X55946655Y-120046897D01*
X55293499Y-120700052D01*
X55287812Y-120686321D01*
X55199168Y-120553655D01*
X55086345Y-120440832D01*
X54953679Y-120352188D01*
X54939946Y-120346499D01*
X55593101Y-119693343D01*
X55593101Y-119693342D01*
X55524844Y-119640969D01*
X55524836Y-119640963D01*
X55330160Y-119528566D01*
X55330149Y-119528561D01*
X55122450Y-119442529D01*
X54905300Y-119384345D01*
X54905287Y-119384342D01*
X54682417Y-119355001D01*
X54682400Y-119355000D01*
X54457600Y-119355000D01*
X54457582Y-119355001D01*
X54234712Y-119384342D01*
X54234699Y-119384345D01*
X54017549Y-119442529D01*
X53809850Y-119528561D01*
X53809839Y-119528566D01*
X53615161Y-119640964D01*
X53615146Y-119640974D01*
X53546896Y-119693343D01*
X54200053Y-120346499D01*
X54186321Y-120352188D01*
X54053655Y-120440832D01*
X53940832Y-120553655D01*
X53852188Y-120686321D01*
X53846499Y-120700052D01*
X53193343Y-120046896D01*
X53140974Y-120115146D01*
X53140964Y-120115161D01*
X53028566Y-120309839D01*
X53028561Y-120309850D01*
X52942529Y-120517549D01*
X52884345Y-120734699D01*
X52884342Y-120734712D01*
X52855001Y-120957582D01*
X52855000Y-120957599D01*
X42650500Y-120957599D01*
X42650500Y-113737399D01*
X62824500Y-113737399D01*
X62824500Y-113862601D01*
X62856905Y-113983536D01*
X62919505Y-114091964D01*
X63008036Y-114180495D01*
X63116464Y-114243095D01*
X63237399Y-114275500D01*
X63237401Y-114275500D01*
X63362599Y-114275500D01*
X63362601Y-114275500D01*
X63483536Y-114243095D01*
X63591964Y-114180495D01*
X63680495Y-114091964D01*
X63743095Y-113983536D01*
X63775500Y-113862601D01*
X63775500Y-113737399D01*
X63743095Y-113616464D01*
X63680495Y-113508036D01*
X63591964Y-113419505D01*
X63483536Y-113356905D01*
X63483537Y-113356905D01*
X63443224Y-113346103D01*
X63362601Y-113324500D01*
X63237399Y-113324500D01*
X63156775Y-113346103D01*
X63116463Y-113356905D01*
X63008037Y-113419504D01*
X63008034Y-113419506D01*
X62919506Y-113508034D01*
X62919504Y-113508037D01*
X62856905Y-113616463D01*
X62856905Y-113616464D01*
X62824500Y-113737399D01*
X42650500Y-113737399D01*
X42650500Y-109775985D01*
X69495500Y-109775985D01*
X69495500Y-109964014D01*
X69532179Y-110148409D01*
X69532182Y-110148421D01*
X69604129Y-110322118D01*
X69604136Y-110322131D01*
X69708591Y-110478457D01*
X69708594Y-110478461D01*
X69841538Y-110611405D01*
X69841542Y-110611408D01*
X69997868Y-110715863D01*
X69997881Y-110715870D01*
X70171578Y-110787817D01*
X70171583Y-110787819D01*
X70355985Y-110824499D01*
X70355988Y-110824500D01*
X70355990Y-110824500D01*
X70544012Y-110824500D01*
X70544013Y-110824499D01*
X70728417Y-110787819D01*
X70902125Y-110715867D01*
X71058458Y-110611408D01*
X71191408Y-110478458D01*
X71295867Y-110322125D01*
X71367819Y-110148417D01*
X71404500Y-109964010D01*
X71404500Y-109775990D01*
X71404500Y-109775987D01*
X71404499Y-109775985D01*
X71367820Y-109591590D01*
X71367819Y-109591583D01*
X71321805Y-109480495D01*
X71295870Y-109417881D01*
X71295863Y-109417868D01*
X71191408Y-109261542D01*
X71191405Y-109261538D01*
X71058461Y-109128594D01*
X71058457Y-109128591D01*
X70902131Y-109024136D01*
X70902118Y-109024129D01*
X70728421Y-108952182D01*
X70728409Y-108952179D01*
X70544013Y-108915500D01*
X70544010Y-108915500D01*
X70355990Y-108915500D01*
X70355987Y-108915500D01*
X70171590Y-108952179D01*
X70171578Y-108952182D01*
X69997881Y-109024129D01*
X69997868Y-109024136D01*
X69841542Y-109128591D01*
X69841538Y-109128594D01*
X69708594Y-109261538D01*
X69708591Y-109261542D01*
X69604136Y-109417868D01*
X69604129Y-109417881D01*
X69532182Y-109591578D01*
X69532179Y-109591590D01*
X69495500Y-109775985D01*
X42650500Y-109775985D01*
X42650500Y-109037399D01*
X62824500Y-109037399D01*
X62824500Y-109162601D01*
X62856905Y-109283536D01*
X62919505Y-109391964D01*
X63008036Y-109480495D01*
X63116464Y-109543095D01*
X63237399Y-109575500D01*
X63237401Y-109575500D01*
X63362599Y-109575500D01*
X63362601Y-109575500D01*
X63483536Y-109543095D01*
X63591964Y-109480495D01*
X63680495Y-109391964D01*
X63743095Y-109283536D01*
X63775500Y-109162601D01*
X63775500Y-109037399D01*
X63743095Y-108916464D01*
X63680495Y-108808036D01*
X63591964Y-108719505D01*
X63483536Y-108656905D01*
X63483537Y-108656905D01*
X63443224Y-108646103D01*
X63362601Y-108624500D01*
X63237399Y-108624500D01*
X63156775Y-108646103D01*
X63116463Y-108656905D01*
X63008037Y-108719504D01*
X63008034Y-108719506D01*
X62919506Y-108808034D01*
X62919504Y-108808037D01*
X62856905Y-108916463D01*
X62856905Y-108916464D01*
X62824500Y-109037399D01*
X42650500Y-109037399D01*
X42650500Y-106324000D01*
X42670185Y-106256961D01*
X42722989Y-106211206D01*
X42774500Y-106200000D01*
X69629436Y-106200000D01*
X69696475Y-106219685D01*
G37*
%TD.AperFunction*%
%TD*%
%TA.AperFunction,Conductor*%
%TO.N,GND_CAN1*%
G36*
X122092539Y-99169685D02*
G01*
X122138294Y-99222489D01*
X122149500Y-99274000D01*
X122149500Y-126196948D01*
X122149351Y-126203033D01*
X122131743Y-126561432D01*
X122130550Y-126573542D01*
X122078347Y-126925467D01*
X122075973Y-126937402D01*
X121989526Y-127282518D01*
X121985994Y-127294162D01*
X121866142Y-127629127D01*
X121861485Y-127640370D01*
X121709366Y-127962000D01*
X121703629Y-127972732D01*
X121520729Y-128277881D01*
X121513969Y-128287999D01*
X121302028Y-128573769D01*
X121294308Y-128583175D01*
X121055388Y-128846783D01*
X121046783Y-128855388D01*
X120783175Y-129094308D01*
X120773769Y-129102028D01*
X120487999Y-129313969D01*
X120477881Y-129320729D01*
X120172732Y-129503629D01*
X120162000Y-129509366D01*
X119840370Y-129661485D01*
X119829134Y-129666139D01*
X119705442Y-129710397D01*
X119494162Y-129785994D01*
X119482518Y-129789526D01*
X119137402Y-129875973D01*
X119125467Y-129878347D01*
X118773542Y-129930550D01*
X118761432Y-129931743D01*
X118423927Y-129948324D01*
X118403031Y-129949351D01*
X118396949Y-129949500D01*
X79524000Y-129949500D01*
X79456961Y-129929815D01*
X79411206Y-129877011D01*
X79400000Y-129825500D01*
X79400000Y-126031491D01*
X115399500Y-126031491D01*
X115399500Y-126368508D01*
X115437231Y-126703381D01*
X115437233Y-126703397D01*
X115512223Y-127031953D01*
X115512227Y-127031965D01*
X115623532Y-127350054D01*
X115769752Y-127653683D01*
X115769754Y-127653686D01*
X115949054Y-127939039D01*
X116159175Y-128202523D01*
X116397477Y-128440825D01*
X116660961Y-128650946D01*
X116946314Y-128830246D01*
X117249949Y-128976469D01*
X117488848Y-129060063D01*
X117568034Y-129087772D01*
X117568046Y-129087776D01*
X117896606Y-129162767D01*
X118231492Y-129200499D01*
X118231493Y-129200500D01*
X118231496Y-129200500D01*
X118568507Y-129200500D01*
X118568507Y-129200499D01*
X118903394Y-129162767D01*
X119231954Y-129087776D01*
X119550051Y-128976469D01*
X119853686Y-128830246D01*
X120139039Y-128650946D01*
X120402523Y-128440825D01*
X120640825Y-128202523D01*
X120850946Y-127939039D01*
X121030246Y-127653686D01*
X121176469Y-127350051D01*
X121287776Y-127031954D01*
X121362767Y-126703394D01*
X121400500Y-126368504D01*
X121400500Y-126031496D01*
X121362767Y-125696606D01*
X121287776Y-125368046D01*
X121176469Y-125049949D01*
X121030246Y-124746314D01*
X120850946Y-124460961D01*
X120640825Y-124197477D01*
X120402523Y-123959175D01*
X120139039Y-123749054D01*
X119853686Y-123569754D01*
X119853683Y-123569752D01*
X119550054Y-123423532D01*
X119231965Y-123312227D01*
X119231953Y-123312223D01*
X118903397Y-123237233D01*
X118903381Y-123237231D01*
X118568508Y-123199500D01*
X118568504Y-123199500D01*
X118231496Y-123199500D01*
X118231491Y-123199500D01*
X117896618Y-123237231D01*
X117896602Y-123237233D01*
X117568046Y-123312223D01*
X117568034Y-123312227D01*
X117249945Y-123423532D01*
X116946316Y-123569752D01*
X116660962Y-123749053D01*
X116397477Y-123959174D01*
X116159174Y-124197477D01*
X115949053Y-124460962D01*
X115769752Y-124746316D01*
X115623532Y-125049945D01*
X115512227Y-125368034D01*
X115512223Y-125368046D01*
X115437233Y-125696602D01*
X115437231Y-125696618D01*
X115399500Y-126031491D01*
X79400000Y-126031491D01*
X79400000Y-120070730D01*
X83899500Y-120070730D01*
X83899500Y-121629269D01*
X83902353Y-121659699D01*
X83902353Y-121659701D01*
X83947206Y-121787880D01*
X83947207Y-121787882D01*
X84027850Y-121897150D01*
X84137118Y-121977793D01*
X84158089Y-121985131D01*
X84265299Y-122022646D01*
X84295730Y-122025500D01*
X84295734Y-122025500D01*
X85604270Y-122025500D01*
X85634699Y-122022646D01*
X85634701Y-122022646D01*
X85698790Y-122000219D01*
X85762882Y-121977793D01*
X85872150Y-121897150D01*
X85952793Y-121787882D01*
X85989648Y-121682557D01*
X85997646Y-121659701D01*
X85997646Y-121659699D01*
X86000500Y-121629269D01*
X86000500Y-120621530D01*
X86399500Y-120621530D01*
X86399500Y-121078469D01*
X86439868Y-121281412D01*
X86439870Y-121281420D01*
X86457921Y-121325000D01*
X86519059Y-121472598D01*
X86532836Y-121493217D01*
X86634024Y-121644657D01*
X86780342Y-121790975D01*
X86780345Y-121790977D01*
X86952402Y-121905941D01*
X87143580Y-121985130D01*
X87332187Y-122022646D01*
X87346530Y-122025499D01*
X87346534Y-122025500D01*
X87346535Y-122025500D01*
X87553466Y-122025500D01*
X87553467Y-122025499D01*
X87756420Y-121985130D01*
X87947598Y-121905941D01*
X88119655Y-121790977D01*
X88265977Y-121644655D01*
X88380941Y-121472598D01*
X88426748Y-121362009D01*
X88470589Y-121307606D01*
X88536883Y-121285541D01*
X88604582Y-121302820D01*
X88652193Y-121353957D01*
X88659240Y-121371144D01*
X88698904Y-121493216D01*
X88795379Y-121682557D01*
X88920272Y-121854459D01*
X88920276Y-121854464D01*
X89070535Y-122004723D01*
X89070540Y-122004727D01*
X89242442Y-122129620D01*
X89431782Y-122226095D01*
X89633871Y-122291757D01*
X89700000Y-122302231D01*
X89700000Y-121254145D01*
X89766657Y-121292630D01*
X89887465Y-121325000D01*
X90012535Y-121325000D01*
X90133343Y-121292630D01*
X90200000Y-121254145D01*
X90200000Y-122302230D01*
X90266126Y-122291757D01*
X90266129Y-122291757D01*
X90468217Y-122226095D01*
X90657557Y-122129620D01*
X90829459Y-122004727D01*
X90829464Y-122004723D01*
X90979723Y-121854464D01*
X90979727Y-121854459D01*
X91104620Y-121682557D01*
X91201095Y-121493217D01*
X91240759Y-121371144D01*
X91280196Y-121313469D01*
X91344555Y-121286270D01*
X91413401Y-121298184D01*
X91464877Y-121345428D01*
X91473251Y-121362009D01*
X91519057Y-121472596D01*
X91634024Y-121644657D01*
X91780342Y-121790975D01*
X91780345Y-121790977D01*
X91952402Y-121905941D01*
X92143580Y-121985130D01*
X92332187Y-122022646D01*
X92346530Y-122025499D01*
X92346534Y-122025500D01*
X92346535Y-122025500D01*
X92553466Y-122025500D01*
X92553467Y-122025499D01*
X92756420Y-121985130D01*
X92947598Y-121905941D01*
X93119655Y-121790977D01*
X93265977Y-121644655D01*
X93380941Y-121472598D01*
X93460130Y-121281420D01*
X93500500Y-121078465D01*
X93500500Y-120621535D01*
X93460130Y-120418580D01*
X93380941Y-120227402D01*
X93320353Y-120136725D01*
X93320352Y-120136722D01*
X93276257Y-120070730D01*
X99499500Y-120070730D01*
X99499500Y-121629269D01*
X99502353Y-121659699D01*
X99502353Y-121659701D01*
X99547206Y-121787880D01*
X99547207Y-121787882D01*
X99627850Y-121897150D01*
X99737118Y-121977793D01*
X99758089Y-121985131D01*
X99865299Y-122022646D01*
X99895730Y-122025500D01*
X99895734Y-122025500D01*
X101204270Y-122025500D01*
X101234699Y-122022646D01*
X101234701Y-122022646D01*
X101298790Y-122000219D01*
X101362882Y-121977793D01*
X101472150Y-121897150D01*
X101552793Y-121787882D01*
X101589648Y-121682557D01*
X101597646Y-121659701D01*
X101597646Y-121659699D01*
X101600500Y-121629269D01*
X101600500Y-120621530D01*
X101999500Y-120621530D01*
X101999500Y-121078469D01*
X102039868Y-121281412D01*
X102039870Y-121281420D01*
X102057921Y-121325000D01*
X102119059Y-121472598D01*
X102132836Y-121493217D01*
X102234024Y-121644657D01*
X102380342Y-121790975D01*
X102380345Y-121790977D01*
X102552402Y-121905941D01*
X102743580Y-121985130D01*
X102932187Y-122022646D01*
X102946530Y-122025499D01*
X102946534Y-122025500D01*
X102946535Y-122025500D01*
X103153466Y-122025500D01*
X103153467Y-122025499D01*
X103356420Y-121985130D01*
X103547598Y-121905941D01*
X103719655Y-121790977D01*
X103865977Y-121644655D01*
X103980941Y-121472598D01*
X104026748Y-121362009D01*
X104070589Y-121307606D01*
X104136883Y-121285541D01*
X104204582Y-121302820D01*
X104252193Y-121353957D01*
X104259240Y-121371144D01*
X104298904Y-121493216D01*
X104395379Y-121682557D01*
X104520272Y-121854459D01*
X104520276Y-121854464D01*
X104670535Y-122004723D01*
X104670540Y-122004727D01*
X104842442Y-122129620D01*
X105031782Y-122226095D01*
X105233871Y-122291757D01*
X105300000Y-122302231D01*
X105300000Y-121254145D01*
X105366657Y-121292630D01*
X105487465Y-121325000D01*
X105612535Y-121325000D01*
X105733343Y-121292630D01*
X105800000Y-121254145D01*
X105800000Y-122302230D01*
X105866126Y-122291757D01*
X105866129Y-122291757D01*
X106068217Y-122226095D01*
X106257557Y-122129620D01*
X106429459Y-122004727D01*
X106429464Y-122004723D01*
X106579723Y-121854464D01*
X106579727Y-121854459D01*
X106704620Y-121682557D01*
X106801095Y-121493217D01*
X106840759Y-121371144D01*
X106880196Y-121313469D01*
X106944555Y-121286270D01*
X107013401Y-121298184D01*
X107064877Y-121345428D01*
X107073251Y-121362009D01*
X107119057Y-121472596D01*
X107234024Y-121644657D01*
X107380342Y-121790975D01*
X107380345Y-121790977D01*
X107552402Y-121905941D01*
X107743580Y-121985130D01*
X107932187Y-122022646D01*
X107946530Y-122025499D01*
X107946534Y-122025500D01*
X107946535Y-122025500D01*
X108153466Y-122025500D01*
X108153467Y-122025499D01*
X108356420Y-121985130D01*
X108547598Y-121905941D01*
X108719655Y-121790977D01*
X108865977Y-121644655D01*
X108980941Y-121472598D01*
X109060130Y-121281420D01*
X109100500Y-121078465D01*
X109100500Y-120621535D01*
X109060130Y-120418580D01*
X108980941Y-120227402D01*
X108865977Y-120055345D01*
X108865975Y-120055342D01*
X108719657Y-119909024D01*
X108624638Y-119845535D01*
X108547598Y-119794059D01*
X108356420Y-119714870D01*
X108356412Y-119714868D01*
X108153469Y-119674500D01*
X108153465Y-119674500D01*
X107946535Y-119674500D01*
X107946530Y-119674500D01*
X107743587Y-119714868D01*
X107743579Y-119714870D01*
X107552403Y-119794058D01*
X107380342Y-119909024D01*
X107234024Y-120055342D01*
X107119057Y-120227404D01*
X107073251Y-120337990D01*
X107029409Y-120392394D01*
X106963115Y-120414458D01*
X106895416Y-120397178D01*
X106847806Y-120346041D01*
X106840759Y-120328855D01*
X106801095Y-120206782D01*
X106704620Y-120017442D01*
X106579727Y-119845540D01*
X106579723Y-119845535D01*
X106429464Y-119695276D01*
X106429459Y-119695272D01*
X106257557Y-119570379D01*
X106068215Y-119473903D01*
X105866124Y-119408241D01*
X105800000Y-119397768D01*
X105800000Y-120445854D01*
X105733343Y-120407370D01*
X105612535Y-120375000D01*
X105487465Y-120375000D01*
X105366657Y-120407370D01*
X105300000Y-120445854D01*
X105300000Y-119397768D01*
X105299999Y-119397768D01*
X105233875Y-119408241D01*
X105031784Y-119473903D01*
X104842442Y-119570379D01*
X104670540Y-119695272D01*
X104670535Y-119695276D01*
X104520276Y-119845535D01*
X104520272Y-119845540D01*
X104395379Y-120017442D01*
X104298905Y-120206781D01*
X104259240Y-120328856D01*
X104219802Y-120386531D01*
X104155443Y-120413729D01*
X104086597Y-120401814D01*
X104035121Y-120354570D01*
X104026748Y-120337990D01*
X104022964Y-120328855D01*
X103980941Y-120227402D01*
X103865977Y-120055345D01*
X103865975Y-120055342D01*
X103719657Y-119909024D01*
X103624638Y-119845535D01*
X103547598Y-119794059D01*
X103356420Y-119714870D01*
X103356412Y-119714868D01*
X103153469Y-119674500D01*
X103153465Y-119674500D01*
X102946535Y-119674500D01*
X102946530Y-119674500D01*
X102743587Y-119714868D01*
X102743579Y-119714870D01*
X102552403Y-119794058D01*
X102380342Y-119909024D01*
X102234024Y-120055342D01*
X102119058Y-120227403D01*
X102039870Y-120418579D01*
X102039868Y-120418587D01*
X101999500Y-120621530D01*
X101600500Y-120621530D01*
X101600500Y-120070730D01*
X101597646Y-120040300D01*
X101597646Y-120040298D01*
X101552793Y-119912119D01*
X101552792Y-119912117D01*
X101472150Y-119802850D01*
X101362882Y-119722207D01*
X101362880Y-119722206D01*
X101234700Y-119677353D01*
X101204270Y-119674500D01*
X101204266Y-119674500D01*
X99895734Y-119674500D01*
X99895730Y-119674500D01*
X99865300Y-119677353D01*
X99865298Y-119677353D01*
X99737119Y-119722206D01*
X99737117Y-119722207D01*
X99627850Y-119802850D01*
X99547207Y-119912117D01*
X99547206Y-119912119D01*
X99502353Y-120040298D01*
X99502353Y-120040300D01*
X99499500Y-120070730D01*
X93276257Y-120070730D01*
X93265980Y-120055349D01*
X93265974Y-120055341D01*
X93119657Y-119909024D01*
X93024638Y-119845535D01*
X92947598Y-119794059D01*
X92756420Y-119714870D01*
X92756412Y-119714868D01*
X92553469Y-119674500D01*
X92553465Y-119674500D01*
X92346535Y-119674500D01*
X92346530Y-119674500D01*
X92143587Y-119714868D01*
X92143579Y-119714870D01*
X91952403Y-119794058D01*
X91780342Y-119909024D01*
X91634024Y-120055342D01*
X91519057Y-120227404D01*
X91473251Y-120337990D01*
X91429409Y-120392394D01*
X91363115Y-120414458D01*
X91295416Y-120397178D01*
X91247806Y-120346041D01*
X91240759Y-120328855D01*
X91201095Y-120206782D01*
X91104620Y-120017442D01*
X90979727Y-119845540D01*
X90979723Y-119845535D01*
X90829464Y-119695276D01*
X90829459Y-119695272D01*
X90657557Y-119570379D01*
X90468215Y-119473903D01*
X90266124Y-119408241D01*
X90200000Y-119397768D01*
X90200000Y-120445854D01*
X90133343Y-120407370D01*
X90012535Y-120375000D01*
X89887465Y-120375000D01*
X89766657Y-120407370D01*
X89700000Y-120445854D01*
X89700000Y-119397768D01*
X89699999Y-119397768D01*
X89633875Y-119408241D01*
X89431784Y-119473903D01*
X89242442Y-119570379D01*
X89070540Y-119695272D01*
X89070535Y-119695276D01*
X88920276Y-119845535D01*
X88920272Y-119845540D01*
X88795379Y-120017442D01*
X88698905Y-120206781D01*
X88659240Y-120328856D01*
X88619802Y-120386531D01*
X88555443Y-120413729D01*
X88486597Y-120401814D01*
X88435121Y-120354570D01*
X88426748Y-120337990D01*
X88422964Y-120328855D01*
X88380941Y-120227402D01*
X88265977Y-120055345D01*
X88265975Y-120055342D01*
X88119657Y-119909024D01*
X88024638Y-119845535D01*
X87947598Y-119794059D01*
X87756420Y-119714870D01*
X87756412Y-119714868D01*
X87553469Y-119674500D01*
X87553465Y-119674500D01*
X87346535Y-119674500D01*
X87346530Y-119674500D01*
X87143587Y-119714868D01*
X87143579Y-119714870D01*
X86952403Y-119794058D01*
X86780342Y-119909024D01*
X86634024Y-120055342D01*
X86519058Y-120227403D01*
X86439870Y-120418579D01*
X86439868Y-120418587D01*
X86399500Y-120621530D01*
X86000500Y-120621530D01*
X86000500Y-120070730D01*
X85997646Y-120040300D01*
X85997646Y-120040298D01*
X85952793Y-119912119D01*
X85952792Y-119912117D01*
X85872150Y-119802850D01*
X85762882Y-119722207D01*
X85762880Y-119722206D01*
X85634700Y-119677353D01*
X85604270Y-119674500D01*
X85604266Y-119674500D01*
X84295734Y-119674500D01*
X84295730Y-119674500D01*
X84265300Y-119677353D01*
X84265298Y-119677353D01*
X84137119Y-119722206D01*
X84137117Y-119722207D01*
X84027850Y-119802850D01*
X83947207Y-119912117D01*
X83947206Y-119912119D01*
X83902353Y-120040298D01*
X83902353Y-120040300D01*
X83899500Y-120070730D01*
X79400000Y-120070730D01*
X79400000Y-113937399D01*
X92624500Y-113937399D01*
X92624500Y-114062601D01*
X92656905Y-114183536D01*
X92719505Y-114291964D01*
X92808036Y-114380495D01*
X92916464Y-114443095D01*
X93037399Y-114475500D01*
X93037401Y-114475500D01*
X93162599Y-114475500D01*
X93162601Y-114475500D01*
X93283536Y-114443095D01*
X93391964Y-114380495D01*
X93480495Y-114291964D01*
X93543095Y-114183536D01*
X93575500Y-114062601D01*
X93575500Y-113937399D01*
X93543095Y-113816464D01*
X93480495Y-113708036D01*
X93391964Y-113619505D01*
X93283536Y-113556905D01*
X93283537Y-113556905D01*
X93243224Y-113546103D01*
X93162601Y-113524500D01*
X93037399Y-113524500D01*
X92956775Y-113546103D01*
X92916463Y-113556905D01*
X92808037Y-113619504D01*
X92808034Y-113619506D01*
X92719506Y-113708034D01*
X92719504Y-113708037D01*
X92656905Y-113816463D01*
X92656905Y-113816464D01*
X92624500Y-113937399D01*
X79400000Y-113937399D01*
X79400000Y-108837399D01*
X92624500Y-108837399D01*
X92624500Y-108962601D01*
X92656905Y-109083536D01*
X92719505Y-109191964D01*
X92808036Y-109280495D01*
X92916464Y-109343095D01*
X93037399Y-109375500D01*
X93037401Y-109375500D01*
X93162599Y-109375500D01*
X93162601Y-109375500D01*
X93283536Y-109343095D01*
X93391964Y-109280495D01*
X93466804Y-109205655D01*
X100583500Y-109205655D01*
X100583500Y-109757500D01*
X101404488Y-109757500D01*
X101371575Y-109814507D01*
X101337500Y-109941674D01*
X101337500Y-110073326D01*
X101371575Y-110200493D01*
X101404488Y-110257500D01*
X100583500Y-110257500D01*
X100583500Y-110809344D01*
X100589901Y-110868872D01*
X100589903Y-110868879D01*
X100640145Y-111003586D01*
X100640149Y-111003593D01*
X100726309Y-111118687D01*
X100726312Y-111118690D01*
X100841406Y-111204850D01*
X100841413Y-111204854D01*
X100976120Y-111255096D01*
X100976127Y-111255098D01*
X101035655Y-111261499D01*
X101035672Y-111261500D01*
X101587500Y-111261500D01*
X101587500Y-110440512D01*
X101644507Y-110473425D01*
X101771674Y-110507500D01*
X101903326Y-110507500D01*
X102030493Y-110473425D01*
X102087500Y-110440512D01*
X102087500Y-111261500D01*
X102639328Y-111261500D01*
X102639344Y-111261499D01*
X102698872Y-111255098D01*
X102698879Y-111255096D01*
X102833586Y-111204854D01*
X102833593Y-111204850D01*
X102948687Y-111118690D01*
X102948690Y-111118687D01*
X103034850Y-111003593D01*
X103034854Y-111003586D01*
X103085096Y-110868879D01*
X103085098Y-110868872D01*
X103091499Y-110809344D01*
X103091500Y-110809327D01*
X103091500Y-110257500D01*
X102270512Y-110257500D01*
X102303425Y-110200493D01*
X102337500Y-110073326D01*
X102337500Y-109941674D01*
X102303425Y-109814507D01*
X102270512Y-109757500D01*
X103091500Y-109757500D01*
X103091500Y-109205672D01*
X103091499Y-109205655D01*
X103085098Y-109146127D01*
X103085096Y-109146120D01*
X103034854Y-109011413D01*
X103034850Y-109011406D01*
X102948690Y-108896312D01*
X102948687Y-108896309D01*
X102833593Y-108810149D01*
X102833586Y-108810145D01*
X102698879Y-108759903D01*
X102698872Y-108759901D01*
X102639344Y-108753500D01*
X102087500Y-108753500D01*
X102087500Y-109574488D01*
X102030493Y-109541575D01*
X101903326Y-109507500D01*
X101771674Y-109507500D01*
X101644507Y-109541575D01*
X101587500Y-109574488D01*
X101587500Y-108753500D01*
X101035655Y-108753500D01*
X100976127Y-108759901D01*
X100976120Y-108759903D01*
X100841413Y-108810145D01*
X100841406Y-108810149D01*
X100726312Y-108896309D01*
X100726309Y-108896312D01*
X100640149Y-109011406D01*
X100640145Y-109011413D01*
X100589903Y-109146120D01*
X100589901Y-109146127D01*
X100583500Y-109205655D01*
X93466804Y-109205655D01*
X93480495Y-109191964D01*
X93506963Y-109146120D01*
X93510294Y-109140351D01*
X93523401Y-109117646D01*
X93543095Y-109083536D01*
X93575500Y-108962601D01*
X93575500Y-108837399D01*
X93543095Y-108716464D01*
X93480495Y-108608036D01*
X93402237Y-108529778D01*
X110799500Y-108529778D01*
X110799500Y-108750221D01*
X110833985Y-108967952D01*
X110902103Y-109177603D01*
X110902104Y-109177606D01*
X111002187Y-109374025D01*
X111131752Y-109552358D01*
X111131756Y-109552363D01*
X111287636Y-109708243D01*
X111287641Y-109708247D01*
X111355433Y-109757500D01*
X111465978Y-109837815D01*
X111594375Y-109903237D01*
X111662393Y-109937895D01*
X111662396Y-109937896D01*
X111767221Y-109971955D01*
X111872049Y-110006015D01*
X112089778Y-110040500D01*
X112089779Y-110040500D01*
X112310221Y-110040500D01*
X112310222Y-110040500D01*
X112527951Y-110006015D01*
X112737606Y-109937895D01*
X112934022Y-109837815D01*
X113112365Y-109708242D01*
X113268242Y-109552365D01*
X113397815Y-109374022D01*
X113497895Y-109177606D01*
X113566015Y-108967951D01*
X113600500Y-108750222D01*
X113600500Y-108529778D01*
X113566015Y-108312049D01*
X113497895Y-108102394D01*
X113497895Y-108102393D01*
X113463237Y-108034375D01*
X113397815Y-107905978D01*
X113381260Y-107883192D01*
X113268247Y-107727641D01*
X113268243Y-107727636D01*
X113112363Y-107571756D01*
X113112358Y-107571752D01*
X112934025Y-107442187D01*
X112934024Y-107442186D01*
X112934022Y-107442185D01*
X112871096Y-107410122D01*
X112737606Y-107342104D01*
X112737603Y-107342103D01*
X112527952Y-107273985D01*
X112419086Y-107256742D01*
X112310222Y-107239500D01*
X112089778Y-107239500D01*
X112017201Y-107250995D01*
X111872047Y-107273985D01*
X111662396Y-107342103D01*
X111662393Y-107342104D01*
X111465974Y-107442187D01*
X111287641Y-107571752D01*
X111287636Y-107571756D01*
X111131756Y-107727636D01*
X111131752Y-107727641D01*
X111002187Y-107905974D01*
X110902104Y-108102393D01*
X110902103Y-108102396D01*
X110833985Y-108312047D01*
X110799500Y-108529778D01*
X93402237Y-108529778D01*
X93391964Y-108519505D01*
X93283536Y-108456905D01*
X93283537Y-108456905D01*
X93243224Y-108446103D01*
X93162601Y-108424500D01*
X93037399Y-108424500D01*
X92956775Y-108446103D01*
X92916463Y-108456905D01*
X92808037Y-108519504D01*
X92808034Y-108519506D01*
X92719506Y-108608034D01*
X92719504Y-108608037D01*
X92656905Y-108716463D01*
X92656905Y-108716464D01*
X92624500Y-108837399D01*
X79400000Y-108837399D01*
X79400000Y-107373485D01*
X100883000Y-107373485D01*
X100883000Y-107561514D01*
X100919679Y-107745909D01*
X100919682Y-107745921D01*
X100991629Y-107919618D01*
X100991636Y-107919631D01*
X101096091Y-108075957D01*
X101096094Y-108075961D01*
X101229038Y-108208905D01*
X101229042Y-108208908D01*
X101385368Y-108313363D01*
X101385381Y-108313370D01*
X101559078Y-108385317D01*
X101559083Y-108385319D01*
X101743485Y-108421999D01*
X101743488Y-108422000D01*
X101743490Y-108422000D01*
X101931512Y-108422000D01*
X101931513Y-108421999D01*
X101956250Y-108417078D01*
X102025579Y-108403289D01*
X102070022Y-108394448D01*
X102115917Y-108385319D01*
X102289625Y-108313367D01*
X102445958Y-108208908D01*
X102578908Y-108075958D01*
X102683367Y-107919625D01*
X102755319Y-107745917D01*
X102792000Y-107561510D01*
X102792000Y-107373490D01*
X102792000Y-107373487D01*
X102791999Y-107373485D01*
X102772207Y-107273985D01*
X102755319Y-107189083D01*
X102755317Y-107189078D01*
X102683370Y-107015381D01*
X102683363Y-107015368D01*
X102578908Y-106859042D01*
X102578905Y-106859038D01*
X102445961Y-106726094D01*
X102445957Y-106726091D01*
X102289631Y-106621636D01*
X102289618Y-106621629D01*
X102115921Y-106549682D01*
X102115909Y-106549679D01*
X101931513Y-106513000D01*
X101931510Y-106513000D01*
X101743490Y-106513000D01*
X101743487Y-106513000D01*
X101559090Y-106549679D01*
X101559078Y-106549682D01*
X101385381Y-106621629D01*
X101385368Y-106621636D01*
X101229042Y-106726091D01*
X101229038Y-106726094D01*
X101096094Y-106859038D01*
X101096091Y-106859042D01*
X100991636Y-107015368D01*
X100991629Y-107015381D01*
X100919682Y-107189078D01*
X100919679Y-107189090D01*
X100883000Y-107373485D01*
X79400000Y-107373485D01*
X79400000Y-106324000D01*
X79419685Y-106256961D01*
X79472489Y-106211206D01*
X79524000Y-106200000D01*
X109400000Y-106200000D01*
X109400000Y-103448575D01*
X110500000Y-103448575D01*
X110500000Y-103671424D01*
X110529085Y-103892354D01*
X110529088Y-103892367D01*
X110586763Y-104107618D01*
X110672045Y-104313502D01*
X110672054Y-104313520D01*
X110783464Y-104506491D01*
X110783473Y-104506504D01*
X110834040Y-104572403D01*
X110834043Y-104572403D01*
X111484152Y-103922293D01*
X111491049Y-103938942D01*
X111578599Y-104069970D01*
X111690030Y-104181401D01*
X111821058Y-104268951D01*
X111837705Y-104275846D01*
X111187595Y-104925955D01*
X111187595Y-104925956D01*
X111253507Y-104976533D01*
X111446485Y-105087949D01*
X111446497Y-105087954D01*
X111652381Y-105173236D01*
X111867632Y-105230911D01*
X111867645Y-105230914D01*
X112088575Y-105260000D01*
X112311425Y-105260000D01*
X112532354Y-105230914D01*
X112532367Y-105230911D01*
X112747618Y-105173236D01*
X112953502Y-105087954D01*
X112953514Y-105087949D01*
X113146498Y-104976530D01*
X113212403Y-104925957D01*
X113212404Y-104925956D01*
X112562294Y-104275846D01*
X112578942Y-104268951D01*
X112709970Y-104181401D01*
X112821401Y-104069970D01*
X112908951Y-103938942D01*
X112915846Y-103922294D01*
X113565956Y-104572404D01*
X113565957Y-104572403D01*
X113616530Y-104506498D01*
X113727949Y-104313514D01*
X113727954Y-104313502D01*
X113813236Y-104107618D01*
X113870911Y-103892367D01*
X113870914Y-103892354D01*
X113900000Y-103671424D01*
X113900000Y-103448575D01*
X113870914Y-103227645D01*
X113870911Y-103227632D01*
X113813236Y-103012381D01*
X113727954Y-102806497D01*
X113727949Y-102806485D01*
X113616533Y-102613507D01*
X113565956Y-102547595D01*
X113565955Y-102547595D01*
X112915846Y-103197704D01*
X112908951Y-103181058D01*
X112821401Y-103050030D01*
X112709970Y-102938599D01*
X112578942Y-102851049D01*
X112562293Y-102844152D01*
X113212403Y-102194043D01*
X113212403Y-102194040D01*
X113146504Y-102143473D01*
X113146491Y-102143464D01*
X112953520Y-102032054D01*
X112953502Y-102032045D01*
X112747618Y-101946763D01*
X112532367Y-101889088D01*
X112532354Y-101889085D01*
X112311425Y-101860000D01*
X112088575Y-101860000D01*
X111867645Y-101889085D01*
X111867632Y-101889088D01*
X111652381Y-101946763D01*
X111446497Y-102032045D01*
X111446479Y-102032054D01*
X111253511Y-102143462D01*
X111187595Y-102194042D01*
X111837706Y-102844152D01*
X111821058Y-102851049D01*
X111690030Y-102938599D01*
X111578599Y-103050030D01*
X111491049Y-103181058D01*
X111484153Y-103197706D01*
X110834042Y-102547595D01*
X110783462Y-102613511D01*
X110672054Y-102806479D01*
X110672045Y-102806497D01*
X110586763Y-103012381D01*
X110529088Y-103227632D01*
X110529085Y-103227645D01*
X110500000Y-103448575D01*
X109400000Y-103448575D01*
X109400000Y-99274000D01*
X109419685Y-99206961D01*
X109472489Y-99161206D01*
X109524000Y-99150000D01*
X122025500Y-99150000D01*
X122092539Y-99169685D01*
G37*
%TD.AperFunction*%
%TD*%
%TA.AperFunction,Conductor*%
%TO.N,GND*%
G36*
X82253039Y-50470185D02*
G01*
X82298794Y-50522989D01*
X82310000Y-50574500D01*
X82310000Y-55160000D01*
X101710000Y-55160000D01*
X101710000Y-54031491D01*
X115399500Y-54031491D01*
X115399500Y-54368508D01*
X115437231Y-54703381D01*
X115437233Y-54703397D01*
X115512223Y-55031953D01*
X115512227Y-55031965D01*
X115623532Y-55350054D01*
X115769752Y-55653683D01*
X115769754Y-55653686D01*
X115949054Y-55939039D01*
X116159175Y-56202523D01*
X116397477Y-56440825D01*
X116660961Y-56650946D01*
X116946314Y-56830246D01*
X117249949Y-56976469D01*
X117488848Y-57060063D01*
X117568034Y-57087772D01*
X117568046Y-57087776D01*
X117896606Y-57162767D01*
X118231492Y-57200499D01*
X118231493Y-57200500D01*
X118231496Y-57200500D01*
X118568507Y-57200500D01*
X118568507Y-57200499D01*
X118903394Y-57162767D01*
X119231954Y-57087776D01*
X119550051Y-56976469D01*
X119853686Y-56830246D01*
X120139039Y-56650946D01*
X120402523Y-56440825D01*
X120640825Y-56202523D01*
X120850946Y-55939039D01*
X121030246Y-55653686D01*
X121176469Y-55350051D01*
X121287776Y-55031954D01*
X121362767Y-54703394D01*
X121400500Y-54368504D01*
X121400500Y-54031496D01*
X121362767Y-53696606D01*
X121287776Y-53368046D01*
X121176469Y-53049949D01*
X121030246Y-52746314D01*
X120850946Y-52460961D01*
X120640825Y-52197477D01*
X120402523Y-51959175D01*
X120139039Y-51749054D01*
X119853686Y-51569754D01*
X119853683Y-51569752D01*
X119550054Y-51423532D01*
X119231965Y-51312227D01*
X119231953Y-51312223D01*
X118903397Y-51237233D01*
X118903381Y-51237231D01*
X118568508Y-51199500D01*
X118568504Y-51199500D01*
X118231496Y-51199500D01*
X118231491Y-51199500D01*
X117896618Y-51237231D01*
X117896602Y-51237233D01*
X117568046Y-51312223D01*
X117568034Y-51312227D01*
X117249945Y-51423532D01*
X116946316Y-51569752D01*
X116660962Y-51749053D01*
X116397477Y-51959174D01*
X116159174Y-52197477D01*
X115949053Y-52460962D01*
X115769752Y-52746316D01*
X115623532Y-53049945D01*
X115512227Y-53368034D01*
X115512223Y-53368046D01*
X115437233Y-53696602D01*
X115437231Y-53696618D01*
X115399500Y-54031491D01*
X101710000Y-54031491D01*
X101710000Y-50574500D01*
X101729685Y-50507461D01*
X101782489Y-50461706D01*
X101834000Y-50450500D01*
X118355830Y-50450500D01*
X118396949Y-50450500D01*
X118403032Y-50450648D01*
X118761433Y-50468256D01*
X118773541Y-50469448D01*
X119125475Y-50521653D01*
X119137389Y-50524023D01*
X119482520Y-50610473D01*
X119494147Y-50614000D01*
X119829151Y-50733867D01*
X119840363Y-50738511D01*
X120162012Y-50890639D01*
X120172720Y-50896363D01*
X120477881Y-51079270D01*
X120487999Y-51086030D01*
X120773769Y-51297971D01*
X120783175Y-51305691D01*
X121046790Y-51544618D01*
X121055381Y-51553209D01*
X121070375Y-51569752D01*
X121294308Y-51816824D01*
X121302028Y-51826230D01*
X121513969Y-52112000D01*
X121520729Y-52122118D01*
X121703629Y-52427267D01*
X121709364Y-52437995D01*
X121729846Y-52481300D01*
X121861485Y-52759629D01*
X121866136Y-52770858D01*
X121965997Y-53049949D01*
X121985994Y-53105837D01*
X121989526Y-53117481D01*
X122075973Y-53462597D01*
X122078347Y-53474532D01*
X122130550Y-53826457D01*
X122131743Y-53838567D01*
X122149351Y-54196966D01*
X122149500Y-54203051D01*
X122149500Y-98076000D01*
X122129815Y-98143039D01*
X122077011Y-98188794D01*
X122025500Y-98200000D01*
X108400000Y-98200000D01*
X108400000Y-105026000D01*
X108380315Y-105093039D01*
X108327511Y-105138794D01*
X108276000Y-105150000D01*
X103215500Y-105150000D01*
X103148461Y-105130315D01*
X103102706Y-105077511D01*
X103091500Y-105026000D01*
X103091500Y-104828802D01*
X103060623Y-104633853D01*
X102999626Y-104446126D01*
X102910020Y-104270268D01*
X102910012Y-104270255D01*
X102884042Y-104234510D01*
X102884041Y-104234509D01*
X102320462Y-104798089D01*
X102303425Y-104734507D01*
X102237599Y-104620493D01*
X102144507Y-104527401D01*
X102030493Y-104461575D01*
X101966909Y-104444537D01*
X102530489Y-103880957D01*
X102494739Y-103854983D01*
X102318873Y-103765373D01*
X102131146Y-103704376D01*
X101936197Y-103673500D01*
X101738803Y-103673500D01*
X101543853Y-103704376D01*
X101356126Y-103765373D01*
X101180262Y-103854982D01*
X101180260Y-103854983D01*
X101144510Y-103880956D01*
X101144510Y-103880957D01*
X101708091Y-104444537D01*
X101644507Y-104461575D01*
X101530493Y-104527401D01*
X101437401Y-104620493D01*
X101371575Y-104734507D01*
X101354537Y-104798090D01*
X100790957Y-104234510D01*
X100790956Y-104234510D01*
X100764983Y-104270260D01*
X100764982Y-104270262D01*
X100675373Y-104446126D01*
X100614376Y-104633853D01*
X100583500Y-104828802D01*
X100583500Y-105026000D01*
X100563815Y-105093039D01*
X100511011Y-105138794D01*
X100459500Y-105150000D01*
X71502686Y-105150000D01*
X71435647Y-105130315D01*
X71389892Y-105077511D01*
X71379948Y-105008353D01*
X71381069Y-105001809D01*
X71404499Y-104884014D01*
X71404500Y-104884012D01*
X71404500Y-104695987D01*
X71404499Y-104695985D01*
X71391024Y-104628242D01*
X71367819Y-104511583D01*
X71367817Y-104511578D01*
X71295870Y-104337881D01*
X71295863Y-104337868D01*
X71191408Y-104181542D01*
X71191405Y-104181538D01*
X71058458Y-104048591D01*
X71032606Y-104031318D01*
X70902130Y-103944136D01*
X70902118Y-103944129D01*
X70728421Y-103872182D01*
X70728409Y-103872179D01*
X70544013Y-103835500D01*
X70544010Y-103835500D01*
X70355990Y-103835500D01*
X70355987Y-103835500D01*
X70171590Y-103872179D01*
X70171578Y-103872182D01*
X69997881Y-103944129D01*
X69997868Y-103944136D01*
X69841542Y-104048591D01*
X69841538Y-104048594D01*
X69708594Y-104181538D01*
X69708591Y-104181542D01*
X69604136Y-104337868D01*
X69604129Y-104337881D01*
X69532182Y-104511578D01*
X69532179Y-104511590D01*
X69495500Y-104695985D01*
X69495500Y-104884014D01*
X69518931Y-105001809D01*
X69512704Y-105071400D01*
X69469841Y-105126578D01*
X69403951Y-105149822D01*
X69397314Y-105150000D01*
X42774500Y-105150000D01*
X42707461Y-105130315D01*
X42661706Y-105077511D01*
X42650500Y-105026000D01*
X42650500Y-101537399D01*
X62124500Y-101537399D01*
X62124500Y-101662601D01*
X62156905Y-101783536D01*
X62219505Y-101891964D01*
X62308036Y-101980495D01*
X62416464Y-102043095D01*
X62537399Y-102075500D01*
X62537401Y-102075500D01*
X62662599Y-102075500D01*
X62662601Y-102075500D01*
X62783536Y-102043095D01*
X62891964Y-101980495D01*
X62980495Y-101891964D01*
X63043095Y-101783536D01*
X63075500Y-101662601D01*
X63075500Y-101537399D01*
X65724500Y-101537399D01*
X65724500Y-101662601D01*
X65756905Y-101783536D01*
X65819505Y-101891964D01*
X65908036Y-101980495D01*
X66016464Y-102043095D01*
X66137399Y-102075500D01*
X66137401Y-102075500D01*
X66262599Y-102075500D01*
X66262601Y-102075500D01*
X66383536Y-102043095D01*
X66491964Y-101980495D01*
X66580495Y-101891964D01*
X66643095Y-101783536D01*
X66675500Y-101662601D01*
X66675500Y-101537399D01*
X66659301Y-101476944D01*
X66659301Y-101476942D01*
X66651587Y-101448155D01*
X69196000Y-101448155D01*
X69196000Y-102000000D01*
X70016988Y-102000000D01*
X69984075Y-102057007D01*
X69950000Y-102184174D01*
X69950000Y-102315826D01*
X69984075Y-102442993D01*
X70016988Y-102500000D01*
X69196000Y-102500000D01*
X69196000Y-103051844D01*
X69202401Y-103111372D01*
X69202403Y-103111379D01*
X69252645Y-103246086D01*
X69252649Y-103246093D01*
X69338809Y-103361187D01*
X69338812Y-103361190D01*
X69453906Y-103447350D01*
X69453913Y-103447354D01*
X69588620Y-103497596D01*
X69588627Y-103497598D01*
X69648155Y-103503999D01*
X69648172Y-103504000D01*
X70200000Y-103504000D01*
X70200000Y-102683012D01*
X70257007Y-102715925D01*
X70384174Y-102750000D01*
X70515826Y-102750000D01*
X70642993Y-102715925D01*
X70700000Y-102683012D01*
X70700000Y-103504000D01*
X71251828Y-103504000D01*
X71251844Y-103503999D01*
X71311372Y-103497598D01*
X71311379Y-103497596D01*
X71446086Y-103447354D01*
X71446093Y-103447350D01*
X71561187Y-103361190D01*
X71561190Y-103361187D01*
X71647350Y-103246093D01*
X71647354Y-103246086D01*
X71697596Y-103111379D01*
X71697598Y-103111372D01*
X71703999Y-103051844D01*
X71704000Y-103051827D01*
X71704000Y-102500000D01*
X70883012Y-102500000D01*
X70915925Y-102442993D01*
X70950000Y-102315826D01*
X70950000Y-102293485D01*
X100883000Y-102293485D01*
X100883000Y-102481514D01*
X100919679Y-102665909D01*
X100919682Y-102665921D01*
X100991629Y-102839618D01*
X100991636Y-102839631D01*
X101096091Y-102995957D01*
X101096094Y-102995961D01*
X101229038Y-103128905D01*
X101229042Y-103128908D01*
X101385368Y-103233363D01*
X101385381Y-103233370D01*
X101559078Y-103305317D01*
X101559083Y-103305319D01*
X101743485Y-103341999D01*
X101743488Y-103342000D01*
X101743490Y-103342000D01*
X101931512Y-103342000D01*
X101931513Y-103341999D01*
X102115917Y-103305319D01*
X102289625Y-103233367D01*
X102445958Y-103128908D01*
X102578908Y-102995958D01*
X102683367Y-102839625D01*
X102755319Y-102665917D01*
X102792000Y-102481510D01*
X102792000Y-102293490D01*
X102792000Y-102293487D01*
X102791999Y-102293485D01*
X102772207Y-102193985D01*
X102755319Y-102109083D01*
X102741409Y-102075500D01*
X102683370Y-101935381D01*
X102683363Y-101935368D01*
X102578908Y-101779042D01*
X102578905Y-101779038D01*
X102445961Y-101646094D01*
X102445957Y-101646091D01*
X102289631Y-101541636D01*
X102289618Y-101541629D01*
X102115921Y-101469682D01*
X102115909Y-101469679D01*
X101931513Y-101433000D01*
X101931510Y-101433000D01*
X101743490Y-101433000D01*
X101743487Y-101433000D01*
X101559090Y-101469679D01*
X101559078Y-101469682D01*
X101385381Y-101541629D01*
X101385368Y-101541636D01*
X101229042Y-101646091D01*
X101229038Y-101646094D01*
X101096094Y-101779038D01*
X101096091Y-101779042D01*
X100991636Y-101935368D01*
X100991629Y-101935381D01*
X100919682Y-102109078D01*
X100919679Y-102109090D01*
X100883000Y-102293485D01*
X70950000Y-102293485D01*
X70950000Y-102184174D01*
X70915925Y-102057007D01*
X70883012Y-102000000D01*
X71704000Y-102000000D01*
X71704000Y-101448172D01*
X71703999Y-101448155D01*
X71697598Y-101388627D01*
X71697596Y-101388620D01*
X71647354Y-101253913D01*
X71647350Y-101253906D01*
X71561190Y-101138812D01*
X71561187Y-101138809D01*
X71446093Y-101052649D01*
X71446086Y-101052645D01*
X71311379Y-101002403D01*
X71311372Y-101002401D01*
X71251844Y-100996000D01*
X70700000Y-100996000D01*
X70700000Y-101816988D01*
X70642993Y-101784075D01*
X70515826Y-101750000D01*
X70384174Y-101750000D01*
X70257007Y-101784075D01*
X70200000Y-101816988D01*
X70200000Y-100996000D01*
X69648155Y-100996000D01*
X69588627Y-101002401D01*
X69588620Y-101002403D01*
X69453913Y-101052645D01*
X69453906Y-101052649D01*
X69338812Y-101138809D01*
X69338809Y-101138812D01*
X69252649Y-101253906D01*
X69252645Y-101253913D01*
X69202403Y-101388620D01*
X69202401Y-101388627D01*
X69196000Y-101448155D01*
X66651587Y-101448155D01*
X66643096Y-101416468D01*
X66643095Y-101416464D01*
X66580495Y-101308036D01*
X66491964Y-101219505D01*
X66383536Y-101156905D01*
X66383537Y-101156905D01*
X66316013Y-101138812D01*
X66262601Y-101124500D01*
X66137399Y-101124500D01*
X66083987Y-101138812D01*
X66016463Y-101156905D01*
X65908037Y-101219504D01*
X65908034Y-101219506D01*
X65819506Y-101308034D01*
X65819504Y-101308037D01*
X65756905Y-101416463D01*
X65756905Y-101416464D01*
X65724500Y-101537399D01*
X63075500Y-101537399D01*
X63043095Y-101416464D01*
X62980495Y-101308036D01*
X62891964Y-101219505D01*
X62783536Y-101156905D01*
X62783537Y-101156905D01*
X62716013Y-101138812D01*
X62662601Y-101124500D01*
X62537399Y-101124500D01*
X62483987Y-101138812D01*
X62416463Y-101156905D01*
X62308037Y-101219504D01*
X62308034Y-101219506D01*
X62219506Y-101308034D01*
X62219504Y-101308037D01*
X62156905Y-101416463D01*
X62156905Y-101416464D01*
X62124500Y-101537399D01*
X42650500Y-101537399D01*
X42650500Y-93137399D01*
X105299500Y-93137399D01*
X105299500Y-93262601D01*
X105331905Y-93383536D01*
X105394505Y-93491964D01*
X105483036Y-93580495D01*
X105591464Y-93643095D01*
X105712399Y-93675500D01*
X105712401Y-93675500D01*
X105837599Y-93675500D01*
X105837601Y-93675500D01*
X105958536Y-93643095D01*
X106066964Y-93580495D01*
X106155495Y-93491964D01*
X106218095Y-93383536D01*
X106250500Y-93262601D01*
X106250500Y-93137399D01*
X106218095Y-93016464D01*
X106155495Y-92908036D01*
X106066964Y-92819505D01*
X105958536Y-92756905D01*
X105958537Y-92756905D01*
X105918224Y-92746103D01*
X105837601Y-92724500D01*
X105712399Y-92724500D01*
X105631775Y-92746103D01*
X105591463Y-92756905D01*
X105483037Y-92819504D01*
X105483034Y-92819506D01*
X105394506Y-92908034D01*
X105394504Y-92908037D01*
X105331905Y-93016463D01*
X105331905Y-93016464D01*
X105299500Y-93137399D01*
X42650500Y-93137399D01*
X42650500Y-91037399D01*
X93999500Y-91037399D01*
X93999500Y-91162601D01*
X94031905Y-91283536D01*
X94094505Y-91391964D01*
X94183036Y-91480495D01*
X94291464Y-91543095D01*
X94412399Y-91575500D01*
X94412401Y-91575500D01*
X94537599Y-91575500D01*
X94537601Y-91575500D01*
X94658536Y-91543095D01*
X94766964Y-91480495D01*
X94855495Y-91391964D01*
X94918095Y-91283536D01*
X94950500Y-91162601D01*
X94950500Y-91037399D01*
X94940452Y-90999899D01*
X97799500Y-90999899D01*
X97799500Y-91125101D01*
X97831905Y-91246036D01*
X97894505Y-91354464D01*
X97983036Y-91442995D01*
X98091464Y-91505595D01*
X98212399Y-91538000D01*
X98212401Y-91538000D01*
X98337599Y-91538000D01*
X98337601Y-91538000D01*
X98458536Y-91505595D01*
X98566964Y-91442995D01*
X98655495Y-91354464D01*
X98718095Y-91246036D01*
X98750500Y-91125101D01*
X98750500Y-91037399D01*
X106999500Y-91037399D01*
X106999500Y-91162601D01*
X107031905Y-91283536D01*
X107094505Y-91391964D01*
X107183036Y-91480495D01*
X107291464Y-91543095D01*
X107412399Y-91575500D01*
X107412401Y-91575500D01*
X107537599Y-91575500D01*
X107537601Y-91575500D01*
X107658536Y-91543095D01*
X107766964Y-91480495D01*
X107855495Y-91391964D01*
X107918095Y-91283536D01*
X107950500Y-91162601D01*
X107950500Y-91037399D01*
X107918095Y-90916464D01*
X107855495Y-90808036D01*
X107766964Y-90719505D01*
X107658536Y-90656905D01*
X107658537Y-90656905D01*
X107618224Y-90646103D01*
X107537601Y-90624500D01*
X107412399Y-90624500D01*
X107331775Y-90646103D01*
X107291463Y-90656905D01*
X107183037Y-90719504D01*
X107183034Y-90719506D01*
X107094506Y-90808034D01*
X107094504Y-90808037D01*
X107031905Y-90916463D01*
X107031905Y-90916464D01*
X106999500Y-91037399D01*
X98750500Y-91037399D01*
X98750500Y-90999899D01*
X98718095Y-90878964D01*
X98655495Y-90770536D01*
X98566964Y-90682005D01*
X98458536Y-90619405D01*
X98458537Y-90619405D01*
X98418224Y-90608603D01*
X98337601Y-90587000D01*
X98212399Y-90587000D01*
X98131775Y-90608603D01*
X98091463Y-90619405D01*
X97983037Y-90682004D01*
X97983034Y-90682006D01*
X97894506Y-90770534D01*
X97894504Y-90770537D01*
X97831905Y-90878963D01*
X97831905Y-90878964D01*
X97799500Y-90999899D01*
X94940452Y-90999899D01*
X94918095Y-90916464D01*
X94855495Y-90808036D01*
X94766964Y-90719505D01*
X94658536Y-90656905D01*
X94658537Y-90656905D01*
X94618224Y-90646103D01*
X94537601Y-90624500D01*
X94412399Y-90624500D01*
X94331775Y-90646103D01*
X94291463Y-90656905D01*
X94183037Y-90719504D01*
X94183034Y-90719506D01*
X94094506Y-90808034D01*
X94094504Y-90808037D01*
X94031905Y-90916463D01*
X94031905Y-90916464D01*
X93999500Y-91037399D01*
X42650500Y-91037399D01*
X42650500Y-88770000D01*
X43744647Y-88770000D01*
X44530382Y-88770000D01*
X44479936Y-88820446D01*
X44437149Y-88894555D01*
X44415000Y-88977213D01*
X44415000Y-89062787D01*
X44437149Y-89145445D01*
X44479936Y-89219554D01*
X44530382Y-89270000D01*
X43744647Y-89270000D01*
X43754387Y-89318974D01*
X43754390Y-89318983D01*
X43831652Y-89505513D01*
X43831659Y-89505526D01*
X43943829Y-89673399D01*
X43943832Y-89673403D01*
X44086596Y-89816167D01*
X44086600Y-89816170D01*
X44254473Y-89928340D01*
X44254486Y-89928347D01*
X44441016Y-90005609D01*
X44441025Y-90005612D01*
X44639041Y-90044999D01*
X44639045Y-90045000D01*
X44890000Y-90045000D01*
X44890000Y-89345000D01*
X45390000Y-89345000D01*
X45390000Y-90045000D01*
X45640955Y-90045000D01*
X45640958Y-90044999D01*
X45838974Y-90005612D01*
X45838983Y-90005609D01*
X46025513Y-89928347D01*
X46025526Y-89928340D01*
X46193399Y-89816170D01*
X46193403Y-89816167D01*
X46336167Y-89673403D01*
X46336170Y-89673399D01*
X46448340Y-89505526D01*
X46448347Y-89505513D01*
X46525609Y-89318983D01*
X46525612Y-89318974D01*
X46535353Y-89270000D01*
X45749618Y-89270000D01*
X45800064Y-89219554D01*
X45842851Y-89145445D01*
X45865000Y-89062787D01*
X45865000Y-88977213D01*
X45842851Y-88894555D01*
X45800064Y-88820446D01*
X45749618Y-88770000D01*
X46535353Y-88770000D01*
X47774647Y-88770000D01*
X48560382Y-88770000D01*
X48509936Y-88820446D01*
X48467149Y-88894555D01*
X48445000Y-88977213D01*
X48445000Y-89062787D01*
X48467149Y-89145445D01*
X48509936Y-89219554D01*
X48560382Y-89270000D01*
X47774647Y-89270000D01*
X47784387Y-89318974D01*
X47784390Y-89318983D01*
X47861652Y-89505513D01*
X47861659Y-89505526D01*
X47973829Y-89673399D01*
X47973832Y-89673403D01*
X48116596Y-89816167D01*
X48116600Y-89816170D01*
X48284473Y-89928340D01*
X48284486Y-89928347D01*
X48471016Y-90005609D01*
X48471025Y-90005612D01*
X48669041Y-90044999D01*
X48669045Y-90045000D01*
X49070000Y-90045000D01*
X49070000Y-89345000D01*
X49570000Y-89345000D01*
X49570000Y-90045000D01*
X49970955Y-90045000D01*
X49970958Y-90044999D01*
X50168974Y-90005612D01*
X50168983Y-90005609D01*
X50355513Y-89928347D01*
X50355526Y-89928340D01*
X50523399Y-89816170D01*
X50523403Y-89816167D01*
X50666167Y-89673403D01*
X50666170Y-89673399D01*
X50778340Y-89505526D01*
X50778347Y-89505513D01*
X50855609Y-89318983D01*
X50855612Y-89318974D01*
X50865353Y-89270000D01*
X50079618Y-89270000D01*
X50130064Y-89219554D01*
X50172851Y-89145445D01*
X50195000Y-89062787D01*
X50195000Y-89037399D01*
X105299500Y-89037399D01*
X105299500Y-89162601D01*
X105331905Y-89283536D01*
X105394505Y-89391964D01*
X105483036Y-89480495D01*
X105591464Y-89543095D01*
X105712399Y-89575500D01*
X105712401Y-89575500D01*
X105837599Y-89575500D01*
X105837601Y-89575500D01*
X105958536Y-89543095D01*
X106066964Y-89480495D01*
X106155495Y-89391964D01*
X106218095Y-89283536D01*
X106250500Y-89162601D01*
X106250500Y-89037399D01*
X106218095Y-88916464D01*
X106155495Y-88808036D01*
X106066964Y-88719505D01*
X105958536Y-88656905D01*
X105958537Y-88656905D01*
X105918224Y-88646103D01*
X105837601Y-88624500D01*
X105712399Y-88624500D01*
X105631775Y-88646103D01*
X105591463Y-88656905D01*
X105483037Y-88719504D01*
X105483034Y-88719506D01*
X105394506Y-88808034D01*
X105394504Y-88808037D01*
X105331905Y-88916463D01*
X105331905Y-88916464D01*
X105299500Y-89037399D01*
X50195000Y-89037399D01*
X50195000Y-88977213D01*
X50172851Y-88894555D01*
X50130064Y-88820446D01*
X50079618Y-88770000D01*
X50865353Y-88770000D01*
X50855612Y-88721025D01*
X50855609Y-88721016D01*
X50778347Y-88534486D01*
X50778340Y-88534473D01*
X50666170Y-88366600D01*
X50666167Y-88366596D01*
X50523403Y-88223832D01*
X50523399Y-88223829D01*
X50355526Y-88111659D01*
X50355513Y-88111652D01*
X50168983Y-88034390D01*
X50168974Y-88034387D01*
X49970958Y-87995000D01*
X49570000Y-87995000D01*
X49570000Y-88695000D01*
X49070000Y-88695000D01*
X49070000Y-88124049D01*
X49089685Y-88057010D01*
X49104203Y-88038535D01*
X49116522Y-88025598D01*
X49142665Y-88010505D01*
X49240505Y-87912665D01*
X49309688Y-87792836D01*
X49345500Y-87659183D01*
X49345500Y-87520817D01*
X49309688Y-87387164D01*
X49240505Y-87267335D01*
X49142665Y-87169495D01*
X49142664Y-87169494D01*
X49142661Y-87169492D01*
X49022838Y-87100313D01*
X49022837Y-87100312D01*
X49022836Y-87100312D01*
X48889183Y-87064500D01*
X48750817Y-87064500D01*
X48617164Y-87100312D01*
X48617161Y-87100313D01*
X48497338Y-87169492D01*
X48497333Y-87169496D01*
X48399496Y-87267333D01*
X48399492Y-87267338D01*
X48330313Y-87387161D01*
X48330312Y-87387164D01*
X48294500Y-87520817D01*
X48294500Y-87659182D01*
X48330312Y-87792835D01*
X48330313Y-87792838D01*
X48399315Y-87912354D01*
X48415788Y-87980255D01*
X48392935Y-88046281D01*
X48339381Y-88088915D01*
X48284483Y-88111654D01*
X48284473Y-88111659D01*
X48116600Y-88223829D01*
X48116596Y-88223832D01*
X47973832Y-88366596D01*
X47973829Y-88366600D01*
X47861659Y-88534473D01*
X47861652Y-88534486D01*
X47784390Y-88721016D01*
X47784387Y-88721025D01*
X47774647Y-88770000D01*
X46535353Y-88770000D01*
X46525612Y-88721025D01*
X46525609Y-88721016D01*
X46448347Y-88534486D01*
X46448340Y-88534473D01*
X46336170Y-88366600D01*
X46336167Y-88366596D01*
X46193403Y-88223832D01*
X46193399Y-88223829D01*
X46025526Y-88111659D01*
X46025513Y-88111652D01*
X45838983Y-88034390D01*
X45838974Y-88034387D01*
X45640958Y-87995000D01*
X45390000Y-87995000D01*
X45390000Y-88695000D01*
X44890000Y-88695000D01*
X44890000Y-87995000D01*
X44639041Y-87995000D01*
X44441025Y-88034387D01*
X44441016Y-88034390D01*
X44254486Y-88111652D01*
X44254473Y-88111659D01*
X44086600Y-88223829D01*
X44086596Y-88223832D01*
X43943832Y-88366596D01*
X43943829Y-88366600D01*
X43831659Y-88534473D01*
X43831652Y-88534486D01*
X43754390Y-88721016D01*
X43754387Y-88721025D01*
X43744647Y-88770000D01*
X42650500Y-88770000D01*
X42650500Y-80130000D01*
X43744647Y-80130000D01*
X44530382Y-80130000D01*
X44479936Y-80180446D01*
X44437149Y-80254555D01*
X44415000Y-80337213D01*
X44415000Y-80422787D01*
X44437149Y-80505445D01*
X44479936Y-80579554D01*
X44530382Y-80630000D01*
X43744647Y-80630000D01*
X43754387Y-80678974D01*
X43754390Y-80678983D01*
X43831652Y-80865513D01*
X43831659Y-80865526D01*
X43943829Y-81033399D01*
X43943832Y-81033403D01*
X44086596Y-81176167D01*
X44086600Y-81176170D01*
X44254473Y-81288340D01*
X44254486Y-81288347D01*
X44441016Y-81365609D01*
X44441025Y-81365612D01*
X44639041Y-81404999D01*
X44639045Y-81405000D01*
X44890000Y-81405000D01*
X44890000Y-80705000D01*
X45390000Y-80705000D01*
X45390000Y-81405000D01*
X45640955Y-81405000D01*
X45640958Y-81404999D01*
X45838974Y-81365612D01*
X45838983Y-81365609D01*
X46025513Y-81288347D01*
X46025526Y-81288340D01*
X46193399Y-81176170D01*
X46193403Y-81176167D01*
X46336167Y-81033403D01*
X46336170Y-81033399D01*
X46448340Y-80865526D01*
X46448347Y-80865513D01*
X46525609Y-80678983D01*
X46525612Y-80678974D01*
X46535353Y-80630000D01*
X45749618Y-80630000D01*
X45800064Y-80579554D01*
X45842851Y-80505445D01*
X45865000Y-80422787D01*
X45865000Y-80337213D01*
X45842851Y-80254555D01*
X45800064Y-80180446D01*
X45749618Y-80130000D01*
X46535353Y-80130000D01*
X47774647Y-80130000D01*
X48560382Y-80130000D01*
X48509936Y-80180446D01*
X48467149Y-80254555D01*
X48445000Y-80337213D01*
X48445000Y-80422787D01*
X48467149Y-80505445D01*
X48509936Y-80579554D01*
X48560382Y-80630000D01*
X47774647Y-80630000D01*
X47784387Y-80678974D01*
X47784390Y-80678983D01*
X47861652Y-80865513D01*
X47861659Y-80865526D01*
X47973829Y-81033399D01*
X47973832Y-81033403D01*
X48116596Y-81176167D01*
X48116600Y-81176170D01*
X48284473Y-81288340D01*
X48284480Y-81288344D01*
X48339379Y-81311083D01*
X48393783Y-81354924D01*
X48415849Y-81421218D01*
X48399316Y-81487644D01*
X48330312Y-81607163D01*
X48330312Y-81607164D01*
X48294500Y-81740817D01*
X48294500Y-81879182D01*
X48330312Y-82012835D01*
X48330313Y-82012838D01*
X48399492Y-82132661D01*
X48399494Y-82132664D01*
X48399495Y-82132665D01*
X48497335Y-82230505D01*
X48617164Y-82299688D01*
X48750817Y-82335500D01*
X48750819Y-82335500D01*
X48889181Y-82335500D01*
X48889183Y-82335500D01*
X49022836Y-82299688D01*
X49142665Y-82230505D01*
X49240505Y-82132665D01*
X49309688Y-82012836D01*
X49345500Y-81879183D01*
X49345500Y-81740817D01*
X49309688Y-81607164D01*
X49275096Y-81547249D01*
X49240507Y-81487338D01*
X49240503Y-81487333D01*
X49142664Y-81389494D01*
X49131999Y-81383337D01*
X49083784Y-81332769D01*
X49070000Y-81275950D01*
X49070000Y-80705000D01*
X49570000Y-80705000D01*
X49570000Y-81405000D01*
X49970955Y-81405000D01*
X49970958Y-81404999D01*
X50168974Y-81365612D01*
X50168983Y-81365609D01*
X50355513Y-81288347D01*
X50355526Y-81288340D01*
X50523399Y-81176170D01*
X50523403Y-81176167D01*
X50666167Y-81033403D01*
X50666170Y-81033399D01*
X50778340Y-80865526D01*
X50778347Y-80865513D01*
X50855609Y-80678983D01*
X50855612Y-80678974D01*
X50865353Y-80630000D01*
X50079618Y-80630000D01*
X50130064Y-80579554D01*
X50172851Y-80505445D01*
X50195000Y-80422787D01*
X50195000Y-80337213D01*
X50172851Y-80254555D01*
X50130064Y-80180446D01*
X50079618Y-80130000D01*
X50865353Y-80130000D01*
X50855612Y-80081025D01*
X50855609Y-80081016D01*
X50778347Y-79894486D01*
X50778340Y-79894473D01*
X50666170Y-79726600D01*
X50666167Y-79726596D01*
X50523403Y-79583832D01*
X50523399Y-79583829D01*
X50355526Y-79471659D01*
X50355513Y-79471652D01*
X50168983Y-79394390D01*
X50168974Y-79394387D01*
X49970958Y-79355000D01*
X49570000Y-79355000D01*
X49570000Y-80055000D01*
X49070000Y-80055000D01*
X49070000Y-79355000D01*
X48669041Y-79355000D01*
X48471025Y-79394387D01*
X48471016Y-79394390D01*
X48284486Y-79471652D01*
X48284473Y-79471659D01*
X48116600Y-79583829D01*
X48116596Y-79583832D01*
X47973832Y-79726596D01*
X47973829Y-79726600D01*
X47861659Y-79894473D01*
X47861652Y-79894486D01*
X47784390Y-80081016D01*
X47784387Y-80081025D01*
X47774647Y-80130000D01*
X46535353Y-80130000D01*
X46525612Y-80081025D01*
X46525609Y-80081016D01*
X46448347Y-79894486D01*
X46448340Y-79894473D01*
X46336170Y-79726600D01*
X46336167Y-79726596D01*
X46193403Y-79583832D01*
X46193399Y-79583829D01*
X46025526Y-79471659D01*
X46025513Y-79471652D01*
X45838983Y-79394390D01*
X45838974Y-79394387D01*
X45640958Y-79355000D01*
X45390000Y-79355000D01*
X45390000Y-80055000D01*
X44890000Y-80055000D01*
X44890000Y-79355000D01*
X44639041Y-79355000D01*
X44441025Y-79394387D01*
X44441016Y-79394390D01*
X44254486Y-79471652D01*
X44254473Y-79471659D01*
X44086600Y-79583829D01*
X44086596Y-79583832D01*
X43943832Y-79726596D01*
X43943829Y-79726600D01*
X43831659Y-79894473D01*
X43831652Y-79894486D01*
X43754390Y-80081016D01*
X43754387Y-80081025D01*
X43744647Y-80130000D01*
X42650500Y-80130000D01*
X42650500Y-58987399D01*
X78684500Y-58987399D01*
X78684500Y-59112601D01*
X78716905Y-59233536D01*
X78779505Y-59341964D01*
X78868036Y-59430495D01*
X78976464Y-59493095D01*
X79097399Y-59525500D01*
X79097401Y-59525500D01*
X79222599Y-59525500D01*
X79222601Y-59525500D01*
X79343536Y-59493095D01*
X79451964Y-59430495D01*
X79540495Y-59341964D01*
X79603095Y-59233536D01*
X79635500Y-59112601D01*
X79635500Y-58987399D01*
X80384500Y-58987399D01*
X80384500Y-59112601D01*
X80416905Y-59233536D01*
X80479505Y-59341964D01*
X80568036Y-59430495D01*
X80676464Y-59493095D01*
X80797399Y-59525500D01*
X80797401Y-59525500D01*
X80922599Y-59525500D01*
X80922601Y-59525500D01*
X81043536Y-59493095D01*
X81151964Y-59430495D01*
X81240495Y-59341964D01*
X81303095Y-59233536D01*
X81335500Y-59112601D01*
X81335500Y-58987399D01*
X81303095Y-58866464D01*
X81240495Y-58758036D01*
X81151964Y-58669505D01*
X81043536Y-58606905D01*
X81043537Y-58606905D01*
X81003224Y-58596103D01*
X80922601Y-58574500D01*
X80797399Y-58574500D01*
X80716775Y-58596103D01*
X80676463Y-58606905D01*
X80568037Y-58669504D01*
X80568034Y-58669506D01*
X80479506Y-58758034D01*
X80479504Y-58758037D01*
X80416905Y-58866463D01*
X80416905Y-58866464D01*
X80384500Y-58987399D01*
X79635500Y-58987399D01*
X79603095Y-58866464D01*
X79540495Y-58758036D01*
X79451964Y-58669505D01*
X79343536Y-58606905D01*
X79343537Y-58606905D01*
X79303224Y-58596103D01*
X79222601Y-58574500D01*
X79097399Y-58574500D01*
X79016775Y-58596103D01*
X78976463Y-58606905D01*
X78868037Y-58669504D01*
X78868034Y-58669506D01*
X78779506Y-58758034D01*
X78779504Y-58758037D01*
X78716905Y-58866463D01*
X78716905Y-58866464D01*
X78684500Y-58987399D01*
X42650500Y-58987399D01*
X42650500Y-57887399D01*
X83884500Y-57887399D01*
X83884500Y-58012601D01*
X83916905Y-58133536D01*
X83979505Y-58241964D01*
X84068036Y-58330495D01*
X84176464Y-58393095D01*
X84297399Y-58425500D01*
X84297401Y-58425500D01*
X84422599Y-58425500D01*
X84422601Y-58425500D01*
X84543536Y-58393095D01*
X84651964Y-58330495D01*
X84740495Y-58241964D01*
X84803095Y-58133536D01*
X84835500Y-58012601D01*
X84835500Y-57887399D01*
X84803095Y-57766464D01*
X84740495Y-57658036D01*
X84651964Y-57569505D01*
X84543536Y-57506905D01*
X84543537Y-57506905D01*
X84503224Y-57496103D01*
X84422601Y-57474500D01*
X84297399Y-57474500D01*
X84216775Y-57496103D01*
X84176463Y-57506905D01*
X84068037Y-57569504D01*
X84068034Y-57569506D01*
X83979506Y-57658034D01*
X83979504Y-57658037D01*
X83916905Y-57766463D01*
X83916905Y-57766464D01*
X83884500Y-57887399D01*
X42650500Y-57887399D01*
X42650500Y-54203051D01*
X42650649Y-54196967D01*
X42658778Y-54031491D01*
X43399500Y-54031491D01*
X43399500Y-54368508D01*
X43437231Y-54703381D01*
X43437233Y-54703397D01*
X43512223Y-55031953D01*
X43512227Y-55031965D01*
X43623532Y-55350054D01*
X43769752Y-55653683D01*
X43769754Y-55653686D01*
X43949054Y-55939039D01*
X44159175Y-56202523D01*
X44397477Y-56440825D01*
X44660961Y-56650946D01*
X44946314Y-56830246D01*
X45249949Y-56976469D01*
X45488848Y-57060063D01*
X45568034Y-57087772D01*
X45568046Y-57087776D01*
X45896606Y-57162767D01*
X46231492Y-57200499D01*
X46231493Y-57200500D01*
X46231496Y-57200500D01*
X46568507Y-57200500D01*
X46568507Y-57200499D01*
X46903394Y-57162767D01*
X47231954Y-57087776D01*
X47550051Y-56976469D01*
X47853686Y-56830246D01*
X48139039Y-56650946D01*
X48402523Y-56440825D01*
X48640825Y-56202523D01*
X48850946Y-55939039D01*
X49030246Y-55653686D01*
X49176469Y-55350051D01*
X49287776Y-55031954D01*
X49362767Y-54703394D01*
X49400500Y-54368504D01*
X49400500Y-54031496D01*
X49362767Y-53696606D01*
X49287776Y-53368046D01*
X49176469Y-53049949D01*
X49030246Y-52746314D01*
X48850946Y-52460961D01*
X48640825Y-52197477D01*
X48402523Y-51959175D01*
X48139039Y-51749054D01*
X47853686Y-51569754D01*
X47853683Y-51569752D01*
X47550054Y-51423532D01*
X47231965Y-51312227D01*
X47231953Y-51312223D01*
X46903397Y-51237233D01*
X46903381Y-51237231D01*
X46568508Y-51199500D01*
X46568504Y-51199500D01*
X46231496Y-51199500D01*
X46231491Y-51199500D01*
X45896618Y-51237231D01*
X45896602Y-51237233D01*
X45568046Y-51312223D01*
X45568034Y-51312227D01*
X45249945Y-51423532D01*
X44946316Y-51569752D01*
X44660962Y-51749053D01*
X44397477Y-51959174D01*
X44159174Y-52197477D01*
X43949053Y-52460962D01*
X43769752Y-52746316D01*
X43623532Y-53049945D01*
X43512227Y-53368034D01*
X43512223Y-53368046D01*
X43437233Y-53696602D01*
X43437231Y-53696618D01*
X43399500Y-54031491D01*
X42658778Y-54031491D01*
X42659248Y-54021933D01*
X42668256Y-53838568D01*
X42669449Y-53826457D01*
X42701240Y-53612139D01*
X42721654Y-53474520D01*
X42724022Y-53462613D01*
X42810475Y-53117473D01*
X42813998Y-53105858D01*
X42933869Y-52770840D01*
X42938508Y-52759643D01*
X43090643Y-52437979D01*
X43096358Y-52427287D01*
X43279278Y-52122105D01*
X43286021Y-52112012D01*
X43497979Y-51826219D01*
X43505682Y-51816834D01*
X43744628Y-51553198D01*
X43753198Y-51544628D01*
X44016834Y-51305682D01*
X44026219Y-51297979D01*
X44312012Y-51086021D01*
X44322105Y-51079278D01*
X44627287Y-50896358D01*
X44637979Y-50890643D01*
X44959643Y-50738508D01*
X44970840Y-50733869D01*
X45305858Y-50613998D01*
X45317473Y-50610475D01*
X45662613Y-50524022D01*
X45674520Y-50521654D01*
X46026460Y-50469448D01*
X46038564Y-50468256D01*
X46396967Y-50450648D01*
X46403051Y-50450500D01*
X46444170Y-50450500D01*
X82186000Y-50450500D01*
X82253039Y-50470185D01*
G37*
%TD.AperFunction*%
%TD*%
M02*
