M48
; DRILL file {KiCad 9.0.7+1} date 2026-05-25T13:13:05+0000
; FORMAT={-:-/ absolute / metric / decimal}
; #@! TF.CreationDate,2026-05-25T13:13:05+00:00
; #@! TF.GenerationSoftware,Kicad,Pcbnew,9.0.7+1
; #@! TF.FileFunction,Plated,1,4,PTH
FMAT,2
METRIC
; #@! TA.AperFunction,Plated,PTH,ViaDrill
T1C0.300
; #@! TA.AperFunction,Plated,PTH,ComponentDrill
T2C0.650
; #@! TA.AperFunction,Plated,PTH,ComponentDrill
T3C0.940
; #@! TA.AperFunction,Plated,PTH,ComponentDrill
T4C0.950
; #@! TA.AperFunction,Plated,PTH,ComponentDrill
T5C1.000
; #@! TA.AperFunction,Plated,PTH,ComponentDrill
T6C1.400
; #@! TA.AperFunction,Plated,PTH,ComponentDrill
T7C1.500
; #@! TA.AperFunction,Plated,PTH,ComponentDrill
T8C1.600
; #@! TA.AperFunction,Plated,PTH,ComponentDrill
T9C1.620
; #@! TA.AperFunction,Plated,PTH,ComponentDrill
T10C3.200
%
G90
G05
T1
X114.955Y-95.325
X116.245Y-94.325
X117.5Y-91.25
X118.785Y-86.525
X118.858Y-84.725
X121.555Y-85.625
X124.055Y-94.925
X124.055Y-96.525
X124.5Y-49.625
X124.5Y-52.525
X124.6Y-55.325
X124.6Y-58.625
X126.45Y-108.51
X126.5Y-96.3
X126.5Y-99.6
X127.25Y-56.375
X128.0Y-51.125
X131.6Y-55.35
X131.65Y-49.75
X131.65Y-52.55
X131.65Y-58.6
X132.35Y-110.21
X133.35Y-98.01
X134.05Y-105.51
X134.05Y-110.21
X134.35Y-57.85
X135.25Y-51.15
X136.9Y-96.2
X136.95Y-98.01
X138.0Y-103.7
X138.0Y-105.5
X138.7Y-97.7
X138.88Y-55.35
X143.75Y-116.61
X144.7Y-89.1
X145.9Y-86.9
X146.671Y-88.829
X147.63Y-55.4
X150.01Y-56.5
X150.11Y-53.1
X150.2Y-79.5
X151.5Y-72.2
X151.71Y-56.5
X151.9Y-92.2
X151.91Y-53.1
X152.9Y-68.1
X154.0Y-91.7
X154.2Y-80.5
X154.8Y-81.6
X154.8Y-83.0
X154.8Y-85.6
X155.21Y-55.4
X155.31Y-54.1
X155.55Y-56.65
X156.25Y-96.41
X156.25Y-99.71
X156.25Y-108.81
X158.8Y-96.2
X160.0Y-57.95
X160.0Y-59.5
X160.0Y-61.0
X161.5Y-57.95
X161.5Y-59.5
X161.5Y-61.0
X162.05Y-110.41
X162.5Y-82.8
X163.0Y-57.95
X163.0Y-59.5
X163.0Y-61.0
X163.5Y-76.1
X163.85Y-105.31
X163.85Y-110.41
X163.9Y-96.4
X164.7Y-73.6
X165.975Y-88.6
X166.0Y-95.4
X166.9Y-98.1
X167.075Y-85.8
X167.1Y-65.6
X167.1Y-66.85
X167.1Y-68.05
X167.1Y-69.25
X168.575Y-73.575
X168.775Y-85.8
X168.775Y-92.7
X169.775Y-88.562
X170.15Y-70.6
X170.41Y-54.1
X171.475Y-85.3
X171.61Y-56.64
X171.61Y-57.91
X171.61Y-59.18
X171.61Y-60.45
X172.81Y-54.1
X173.075Y-86.3
X175.9Y-100.7
X175.9Y-106.2
X176.0Y-104.4
X177.275Y-86.6
X177.275Y-90.7
X178.975Y-88.6
X179.15Y-51.2
X182.35Y-54.15
X182.35Y-60.175
X182.35Y-62.725
X182.35Y-65.175
X182.375Y-57.675
X182.55Y-79.375
X182.55Y-81.925
X182.55Y-84.375
X182.575Y-76.875
X182.95Y-50.262
X184.45Y-116.81
T3
X129.894Y-119.68
X130.91Y-121.46
X131.926Y-119.68
X132.942Y-121.46
X133.958Y-119.68
X134.974Y-121.46
X135.99Y-119.68
X137.006Y-121.46
T4
X155.7Y-120.2
X158.2Y-120.2
X160.7Y-120.2
X163.2Y-120.2
X171.3Y-120.2
X173.8Y-120.2
X176.3Y-120.2
X178.8Y-120.2
T5
X141.2Y-98.66
X141.2Y-101.2
X141.2Y-103.74
X141.2Y-106.28
X172.55Y-98.8
X172.55Y-101.34
X172.55Y-103.88
X172.55Y-106.42
T6
X187.0Y-58.65
X187.0Y-61.15
X187.0Y-63.65
X187.0Y-66.15
X187.0Y-68.65
X187.0Y-71.15
X187.0Y-77.85
X187.0Y-80.35
X187.0Y-82.85
X187.0Y-85.35
X187.0Y-87.85
X187.0Y-90.35
T7
X118.143Y-72.4
X138.943Y-72.4
T8
X186.0Y-100.16
X186.0Y-105.24
T9
X125.32Y-120.57
X141.58Y-120.57
T10
X117.15Y-50.61
X117.15Y-122.61
X189.15Y-50.61
X189.15Y-122.61
T2
G00X139.19Y-48.8
M15
G01X139.19Y-48.0
M16
G05
G00X139.19Y-53.13
M15
G01X139.19Y-52.03
M16
G05
G00X147.83Y-48.8
M15
G01X147.83Y-48.0
M16
G05
G00X147.83Y-53.13
M15
G01X147.83Y-52.03
M16
G05
M30
