%TF.GenerationSoftware,KiCad,Pcbnew,9.0.7+1*%
%TF.CreationDate,Date%
%TF.ProjectId,LE_BMS_A_V2,4c455f42-4d53-45f4-915f-56322e6b6963,+ (Unreleased)*%
%TF.SameCoordinates,Original*%
%TF.FileFunction,Soldermask,Top*%
%TF.FilePolarity,Negative*%
%FSLAX46Y46*%
G04 Gerber Fmt 4.6, Leading zero omitted, Abs format (unit mm)*
G04 Created by KiCad*
%MOMM*%
%LPD*%
G01*
G04 APERTURE LIST*
G04 Aperture macros list*
%AMRoundRect*
0 Rectangle with rounded corners*
0 $1 Rounding radius*
0 $2 $3 $4 $5 $6 $7 $8 $9 X,Y pos of 4 corners*
0 Add a 4 corners polygon primitive as box body*
4,1,4,$2,$3,$4,$5,$6,$7,$8,$9,$2,$3,0*
0 Add four circle primitives for the rounded corners*
1,1,$1+$1,$2,$3*
1,1,$1+$1,$4,$5*
1,1,$1+$1,$6,$7*
1,1,$1+$1,$8,$9*
0 Add four rect primitives between the rounded corners*
20,1,$1+$1,$2,$3,$4,$5,0*
20,1,$1+$1,$4,$5,$6,$7,0*
20,1,$1+$1,$6,$7,$8,$9,0*
20,1,$1+$1,$8,$9,$2,$3,0*%
G04 Aperture macros list end*
%ADD10RoundRect,0.102000X-1.075000X-0.475000X1.075000X-0.475000X1.075000X0.475000X-1.075000X0.475000X0*%
%ADD11RoundRect,0.102000X-1.075000X-1.625000X1.075000X-1.625000X1.075000X1.625000X-1.075000X1.625000X0*%
%ADD12RoundRect,0.262500X0.262500X-0.325000X0.262500X0.325000X-0.262500X0.325000X-0.262500X-0.325000X0*%
%ADD13RoundRect,0.187500X-0.187500X1.037500X-0.187500X-1.037500X0.187500X-1.037500X0.187500X1.037500X0*%
%ADD14RoundRect,0.262500X-0.325000X-0.262500X0.325000X-0.262500X0.325000X0.262500X-0.325000X0.262500X0*%
%ADD15RoundRect,0.262500X-0.262500X0.275000X-0.262500X-0.275000X0.262500X-0.275000X0.262500X0.275000X0*%
%ADD16RoundRect,0.262500X-0.262500X0.325000X-0.262500X-0.325000X0.262500X-0.325000X0.262500X0.325000X0*%
%ADD17RoundRect,0.262500X0.325000X0.262500X-0.325000X0.262500X-0.325000X-0.262500X0.325000X-0.262500X0*%
%ADD18C,5.700000*%
%ADD19RoundRect,0.175000X-0.850000X-0.175000X0.850000X-0.175000X0.850000X0.175000X-0.850000X0.175000X0*%
%ADD20C,2.604000*%
%ADD21RoundRect,0.262500X0.275000X0.262500X-0.275000X0.262500X-0.275000X-0.262500X0.275000X-0.262500X0*%
%ADD22RoundRect,0.262500X-0.275000X-0.262500X0.275000X-0.262500X0.275000X0.262500X-0.275000X0.262500X0*%
%ADD23RoundRect,0.264706X-0.635294X-0.760294X0.635294X-0.760294X0.635294X0.760294X-0.635294X0.760294X0*%
%ADD24O,1.800000X2.050000*%
%ADD25RoundRect,0.050000X0.600000X0.900000X-0.600000X0.900000X-0.600000X-0.900000X0.600000X-0.900000X0*%
%ADD26RoundRect,0.050000X-0.750000X-0.450000X0.750000X-0.450000X0.750000X0.450000X-0.750000X0.450000X0*%
%ADD27RoundRect,0.050000X0.450000X-0.750000X0.450000X0.750000X-0.450000X0.750000X-0.450000X-0.750000X0*%
%ADD28RoundRect,0.050000X-0.500000X-0.500000X0.500000X-0.500000X0.500000X0.500000X-0.500000X0.500000X0*%
%ADD29C,0.700000*%
%ADD30RoundRect,0.050000X-0.500000X-0.725000X0.500000X-0.725000X0.500000X0.725000X-0.500000X0.725000X0*%
%ADD31RoundRect,0.050000X-0.325000X-0.700000X0.325000X-0.700000X0.325000X0.700000X-0.325000X0.700000X0*%
%ADD32RoundRect,0.102000X0.754000X-0.754000X0.754000X0.754000X-0.754000X0.754000X-0.754000X-0.754000X0*%
%ADD33C,1.712000*%
%ADD34C,0.750000*%
%ADD35RoundRect,0.102000X-0.575000X0.300000X-0.575000X-0.300000X0.575000X-0.300000X0.575000X0.300000X0*%
%ADD36RoundRect,0.102000X-0.575000X0.150000X-0.575000X-0.150000X0.575000X-0.150000X0.575000X0.150000X0*%
%ADD37O,2.354000X1.254000*%
%ADD38O,2.054000X1.254000*%
%ADD39RoundRect,0.262500X0.262500X-0.275000X0.262500X0.275000X-0.262500X0.275000X-0.262500X-0.275000X0*%
%ADD40C,3.400000*%
%ADD41RoundRect,0.102000X-0.724000X-0.724000X0.724000X-0.724000X0.724000X0.724000X-0.724000X0.724000X0*%
%ADD42C,1.652000*%
%ADD43C,2.634000*%
%ADD44RoundRect,0.050000X-0.350000X-0.350000X0.350000X-0.350000X0.350000X0.350000X-0.350000X0.350000X0*%
%ADD45RoundRect,0.125000X0.125000X-0.662500X0.125000X0.662500X-0.125000X0.662500X-0.125000X-0.662500X0*%
%ADD46C,2.304000*%
%ADD47RoundRect,0.102000X-0.754000X0.754000X-0.754000X-0.754000X0.754000X-0.754000X0.754000X0.754000X0*%
G04 APERTURE END LIST*
D10*
%TO.C,U5*%
X99975000Y-88800000D03*
X99975000Y-91100000D03*
X99975000Y-93400000D03*
D11*
X105775000Y-91100000D03*
%TD*%
D12*
%TO.C,C4*%
X51400000Y-72762500D03*
X51400000Y-71037500D03*
%TD*%
D13*
%TO.C,U3*%
X93127500Y-101650000D03*
X90587500Y-101650000D03*
X88047500Y-101650000D03*
X85507500Y-101650000D03*
X85507500Y-110700000D03*
X88047500Y-110700000D03*
X90587500Y-110700000D03*
X93127500Y-110700000D03*
%TD*%
D12*
%TO.C,C3*%
X79326802Y-58212500D03*
X79326802Y-56487500D03*
%TD*%
%TO.C,C18*%
X68000000Y-103962500D03*
X68000000Y-102237500D03*
%TD*%
D14*
%TO.C,C23*%
X89150000Y-89795000D03*
X90875000Y-89795000D03*
%TD*%
D15*
%TO.C,R1*%
X51350000Y-60812500D03*
X51350000Y-62637500D03*
%TD*%
D16*
%TO.C,C8*%
X57775000Y-86125000D03*
X57775000Y-87850000D03*
%TD*%
D17*
%TO.C,C12*%
X63362500Y-113000000D03*
X61637500Y-113000000D03*
%TD*%
D18*
%TO.C,H3*%
X46400000Y-126200000D03*
%TD*%
D19*
%TO.C,U6*%
X80200000Y-86090000D03*
X80200000Y-87360000D03*
X80200000Y-88630000D03*
X80200000Y-89900000D03*
X85150000Y-89900000D03*
X85150000Y-88630000D03*
X85150000Y-87360000D03*
X85150000Y-86090000D03*
%TD*%
D14*
%TO.C,C14*%
X67412500Y-85250000D03*
X69137500Y-85250000D03*
%TD*%
D12*
%TO.C,C6*%
X95300000Y-101662500D03*
X95300000Y-99937500D03*
%TD*%
D20*
%TO.C,J4*%
X112200000Y-108640000D03*
X112200000Y-103560000D03*
%TD*%
D15*
%TO.C,R4*%
X52123198Y-86462500D03*
X52123198Y-88287500D03*
%TD*%
D21*
%TO.C,R8*%
X75812500Y-118600000D03*
X73987500Y-118600000D03*
%TD*%
D16*
%TO.C,C5*%
X109360000Y-52287500D03*
X109360000Y-54012500D03*
%TD*%
D15*
%TO.C,R3*%
X52123198Y-81662500D03*
X52123198Y-83487500D03*
%TD*%
D22*
%TO.C,R5*%
X114587500Y-118800000D03*
X116412500Y-118800000D03*
%TD*%
D23*
%TO.C,J6*%
X100550000Y-120850000D03*
D24*
X103050000Y-120850000D03*
X105550000Y-120850000D03*
X108050000Y-120850000D03*
%TD*%
D22*
%TO.C,R11*%
X75362500Y-90915000D03*
X77187500Y-90915000D03*
%TD*%
D17*
%TO.C,C13*%
X69137500Y-93450000D03*
X67412500Y-93450000D03*
%TD*%
D12*
%TO.C,C19*%
X97275000Y-91062500D03*
X97275000Y-89337500D03*
%TD*%
D25*
%TO.C,Y1*%
X69528985Y-91350000D03*
X69528985Y-87350000D03*
X67128985Y-87350000D03*
X67128985Y-91350000D03*
%TD*%
D16*
%TO.C,C15*%
X104287500Y-108037500D03*
X104287500Y-109762500D03*
%TD*%
D26*
%TO.C,U1*%
X83260000Y-56650000D03*
X83260000Y-57920000D03*
X83260000Y-59190000D03*
X83260000Y-60460000D03*
X83260000Y-61730000D03*
X83260000Y-63000000D03*
X83260000Y-64270000D03*
X83260000Y-65540000D03*
X83260000Y-66810000D03*
X83260000Y-68080000D03*
X83260000Y-69350000D03*
X83260000Y-70620000D03*
X83260000Y-71890000D03*
X83260000Y-73160000D03*
D27*
X85025000Y-74410000D03*
X86295000Y-74410000D03*
X87565000Y-74410000D03*
X88835000Y-74410000D03*
X90105000Y-74410000D03*
X91375000Y-74410000D03*
X92645000Y-74410000D03*
X93915000Y-74410000D03*
X95185000Y-74410000D03*
X96455000Y-74410000D03*
X97725000Y-74410000D03*
X98995000Y-74410000D03*
D26*
X100760000Y-73160000D03*
X100760000Y-71890000D03*
X100760000Y-70620000D03*
X100760000Y-69350000D03*
X100760000Y-68080000D03*
X100760000Y-66810000D03*
X100760000Y-65540000D03*
X100760000Y-64270000D03*
X100760000Y-63000000D03*
X100760000Y-61730000D03*
X100760000Y-60460000D03*
X100760000Y-59190000D03*
X100760000Y-57920000D03*
X100760000Y-56650000D03*
D28*
X89150000Y-60500000D03*
D29*
X89150000Y-61250000D03*
D28*
X89150000Y-62000000D03*
D29*
X89150000Y-62750000D03*
D28*
X89150000Y-63500000D03*
D29*
X89900000Y-60500000D03*
X89900000Y-62000000D03*
X89900000Y-63500000D03*
D28*
X90650000Y-60500000D03*
D29*
X90650000Y-61250000D03*
D28*
X90650000Y-62000000D03*
D29*
X90650000Y-62750000D03*
D28*
X90650000Y-63500000D03*
D29*
X91400000Y-60500000D03*
X91400000Y-62000000D03*
X91400000Y-63500000D03*
D28*
X92150000Y-60500000D03*
D29*
X92150000Y-61250000D03*
D28*
X92150000Y-62000000D03*
D29*
X92150000Y-62750000D03*
D28*
X92150000Y-63500000D03*
%TD*%
D22*
%TO.C,R7*%
X73987500Y-117000000D03*
X75812500Y-117000000D03*
%TD*%
D13*
%TO.C,U4*%
X63360000Y-101575000D03*
X60820000Y-101575000D03*
X58280000Y-101575000D03*
X55740000Y-101575000D03*
X55740000Y-110625000D03*
X58280000Y-110625000D03*
X60820000Y-110625000D03*
X63360000Y-110625000D03*
%TD*%
D18*
%TO.C,H1*%
X46400000Y-54200000D03*
%TD*%
D30*
%TO.C,S1*%
X46750000Y-70425000D03*
X48450000Y-70425000D03*
X46750000Y-75575000D03*
X48450000Y-75575000D03*
D31*
X45575000Y-73000000D03*
%TD*%
D22*
%TO.C,R10*%
X75362500Y-88405000D03*
X77187500Y-88405000D03*
%TD*%
D21*
%TO.C,R6*%
X116412500Y-117200000D03*
X114587500Y-117200000D03*
%TD*%
D30*
%TO.C,S2*%
X46700000Y-61550000D03*
X48400000Y-61550000D03*
X46700000Y-66700000D03*
X48400000Y-66700000D03*
D31*
X45525000Y-64125000D03*
%TD*%
D32*
%TO.C,PS1*%
X101837500Y-110007500D03*
D33*
X101837500Y-107467500D03*
X101837500Y-104927500D03*
X101837500Y-102387500D03*
%TD*%
D34*
%TO.C,J1*%
X48820000Y-81810000D03*
X48820000Y-87590000D03*
D35*
X49885000Y-81500000D03*
X49885000Y-82300000D03*
D36*
X49885000Y-83450000D03*
X49885000Y-84450000D03*
X49885000Y-84950000D03*
X49885000Y-85950000D03*
D35*
X49885000Y-87900000D03*
X49885000Y-87100000D03*
D36*
X49885000Y-86450000D03*
X49885000Y-85450000D03*
X49885000Y-83950000D03*
X49885000Y-82950000D03*
D37*
X49320000Y-80380000D03*
X49320000Y-89020000D03*
D38*
X45140000Y-80380000D03*
X45140000Y-89020000D03*
%TD*%
D39*
%TO.C,R2*%
X51400000Y-76412500D03*
X51400000Y-74587500D03*
%TD*%
D17*
%TO.C,C11*%
X93062500Y-113200000D03*
X91337500Y-113200000D03*
%TD*%
D40*
%TO.C,J5*%
X56350000Y-124500000D03*
X69050000Y-124500000D03*
D41*
X66256000Y-121960000D03*
D42*
X65240000Y-120180000D03*
X64224000Y-121960000D03*
X63208000Y-120180000D03*
X62192000Y-121960000D03*
X61176000Y-120180000D03*
X60160000Y-121960000D03*
X59144000Y-120180000D03*
D43*
X54570000Y-121070000D03*
X70830000Y-121070000D03*
%TD*%
D17*
%TO.C,C10*%
X75762500Y-120200000D03*
X74037500Y-120200000D03*
%TD*%
D23*
%TO.C,J2*%
X84950000Y-120850000D03*
D24*
X87450000Y-120850000D03*
X89950000Y-120850000D03*
X92450000Y-120850000D03*
%TD*%
D14*
%TO.C,C22*%
X89150000Y-87285000D03*
X90875000Y-87285000D03*
%TD*%
D16*
%TO.C,C17*%
X104287500Y-102537500D03*
X104287500Y-104262500D03*
%TD*%
D17*
%TO.C,C9*%
X116362500Y-120400000D03*
X114637500Y-120400000D03*
%TD*%
D18*
%TO.C,H4*%
X118400000Y-126200000D03*
%TD*%
D44*
%TO.C,D1*%
X105245000Y-52600000D03*
X105245000Y-53700000D03*
X107075000Y-53700000D03*
X107075000Y-52600000D03*
%TD*%
D12*
%TO.C,C1*%
X81026802Y-58212500D03*
X81026802Y-56487500D03*
%TD*%
%TO.C,C20*%
X68100000Y-109062500D03*
X68100000Y-107337500D03*
%TD*%
D45*
%TO.C,U2*%
X59375000Y-92075000D03*
X60025000Y-92075000D03*
X60675000Y-92075000D03*
X61325000Y-92075000D03*
X61975000Y-92075000D03*
X62625000Y-92075000D03*
X63275000Y-92075000D03*
X63925000Y-92075000D03*
X64575000Y-92075000D03*
X65225000Y-92075000D03*
X65225000Y-86350000D03*
X64575000Y-86350000D03*
X63925000Y-86350000D03*
X63275000Y-86350000D03*
X62625000Y-86350000D03*
X61975000Y-86350000D03*
X61325000Y-86350000D03*
X60675000Y-86350000D03*
X60025000Y-86350000D03*
X59375000Y-86350000D03*
%TD*%
D12*
%TO.C,C7*%
X65300000Y-101562500D03*
X65300000Y-99837500D03*
%TD*%
D46*
%TO.C,J3*%
X112900000Y-91800000D03*
X112900000Y-89300000D03*
X112900000Y-86800000D03*
X112900000Y-84300000D03*
X112900000Y-81800000D03*
X112900000Y-79300000D03*
X112900000Y-76800000D03*
X112900000Y-74300000D03*
X112900000Y-71800000D03*
X112900000Y-69300000D03*
X112900000Y-66800000D03*
X112900000Y-64300000D03*
%TD*%
D18*
%TO.C,H2*%
X118400000Y-54200000D03*
%TD*%
D17*
%TO.C,C16*%
X99937500Y-95200000D03*
X98212500Y-95200000D03*
%TD*%
D12*
%TO.C,C21*%
X95575000Y-91062500D03*
X95575000Y-89337500D03*
%TD*%
D22*
%TO.C,R9*%
X75362500Y-85895000D03*
X77187500Y-85895000D03*
%TD*%
D47*
%TO.C,PS2*%
X70450000Y-102250000D03*
D33*
X70450000Y-104790000D03*
X70450000Y-107330000D03*
X70450000Y-109870000D03*
%TD*%
D16*
%TO.C,C2*%
X51350000Y-64462500D03*
X51350000Y-66187500D03*
%TD*%
M02*
