%TF.GenerationSoftware,KiCad,Pcbnew,9.0.7+1*%
%TF.CreationDate,Date%
%TF.ProjectId,LE_BMS_A_V2,4c455f42-4d53-45f4-915f-56322e6b6963,+ (Unreleased)*%
%TF.SameCoordinates,Original*%
%TF.FileFunction,Copper,L1,Top*%
%TF.FilePolarity,Positive*%
%FSLAX46Y46*%
G04 Gerber Fmt 4.6, Leading zero omitted, Abs format (unit mm)*
G04 Created by KiCad*
%MOMM*%
%LPD*%
G01*
G04 APERTURE LIST*
G04 Aperture macros list*
%AMRoundRect*
0 Rectangle with rounded corners*
0 $1 Rounding radius*
0 $2 $3 $4 $5 $6 $7 $8 $9 X,Y pos of 4 corners*
0 Add a 4 corners polygon primitive as box body*
4,1,4,$2,$3,$4,$5,$6,$7,$8,$9,$2,$3,0*
0 Add four circle primitives for the rounded corners*
1,1,$1+$1,$2,$3*
1,1,$1+$1,$4,$5*
1,1,$1+$1,$6,$7*
1,1,$1+$1,$8,$9*
0 Add four rect primitives between the rounded corners*
20,1,$1+$1,$2,$3,$4,$5,0*
20,1,$1+$1,$4,$5,$6,$7,0*
20,1,$1+$1,$6,$7,$8,$9,0*
20,1,$1+$1,$8,$9,$2,$3,0*%
G04 Aperture macros list end*
%TA.AperFunction,SMDPad,CuDef*%
%ADD10R,2.150000X0.950000*%
%TD*%
%TA.AperFunction,SMDPad,CuDef*%
%ADD11R,2.150000X3.250000*%
%TD*%
%TA.AperFunction,SMDPad,CuDef*%
%ADD12RoundRect,0.237500X0.237500X-0.300000X0.237500X0.300000X-0.237500X0.300000X-0.237500X-0.300000X0*%
%TD*%
%TA.AperFunction,SMDPad,CuDef*%
%ADD13RoundRect,0.162500X-0.162500X1.012500X-0.162500X-1.012500X0.162500X-1.012500X0.162500X1.012500X0*%
%TD*%
%TA.AperFunction,SMDPad,CuDef*%
%ADD14RoundRect,0.237500X-0.300000X-0.237500X0.300000X-0.237500X0.300000X0.237500X-0.300000X0.237500X0*%
%TD*%
%TA.AperFunction,SMDPad,CuDef*%
%ADD15RoundRect,0.237500X-0.237500X0.250000X-0.237500X-0.250000X0.237500X-0.250000X0.237500X0.250000X0*%
%TD*%
%TA.AperFunction,SMDPad,CuDef*%
%ADD16RoundRect,0.237500X-0.237500X0.300000X-0.237500X-0.300000X0.237500X-0.300000X0.237500X0.300000X0*%
%TD*%
%TA.AperFunction,SMDPad,CuDef*%
%ADD17RoundRect,0.237500X0.300000X0.237500X-0.300000X0.237500X-0.300000X-0.237500X0.300000X-0.237500X0*%
%TD*%
%TA.AperFunction,ComponentPad*%
%ADD18C,5.600000*%
%TD*%
%TA.AperFunction,SMDPad,CuDef*%
%ADD19RoundRect,0.150000X-0.825000X-0.150000X0.825000X-0.150000X0.825000X0.150000X-0.825000X0.150000X0*%
%TD*%
%TA.AperFunction,ComponentPad*%
%ADD20R,2.000000X2.000000*%
%TD*%
%TA.AperFunction,ComponentPad*%
%ADD21C,2.000000*%
%TD*%
%TA.AperFunction,ComponentPad*%
%ADD22C,2.400000*%
%TD*%
%TA.AperFunction,SMDPad,CuDef*%
%ADD23RoundRect,0.237500X0.250000X0.237500X-0.250000X0.237500X-0.250000X-0.237500X0.250000X-0.237500X0*%
%TD*%
%TA.AperFunction,SMDPad,CuDef*%
%ADD24RoundRect,0.237500X-0.250000X-0.237500X0.250000X-0.237500X0.250000X0.237500X-0.250000X0.237500X0*%
%TD*%
%TA.AperFunction,ComponentPad*%
%ADD25RoundRect,0.250000X-0.600000X-0.725000X0.600000X-0.725000X0.600000X0.725000X-0.600000X0.725000X0*%
%TD*%
%TA.AperFunction,ComponentPad*%
%ADD26O,1.700000X1.950000*%
%TD*%
%TA.AperFunction,SMDPad,CuDef*%
%ADD27R,1.200000X1.800000*%
%TD*%
%TA.AperFunction,SMDPad,CuDef*%
%ADD28R,1.500000X0.900000*%
%TD*%
%TA.AperFunction,SMDPad,CuDef*%
%ADD29R,0.900000X1.500000*%
%TD*%
%TA.AperFunction,HeatsinkPad*%
%ADD30R,1.000000X1.000000*%
%TD*%
%TA.AperFunction,HeatsinkPad*%
%ADD31C,0.600000*%
%TD*%
%TA.AperFunction,SMDPad,CuDef*%
%ADD32R,1.000000X1.450000*%
%TD*%
%TA.AperFunction,SMDPad,CuDef*%
%ADD33R,0.650000X1.400000*%
%TD*%
%TA.AperFunction,ComponentPad*%
%ADD34R,1.508000X1.508000*%
%TD*%
%TA.AperFunction,ComponentPad*%
%ADD35C,1.508000*%
%TD*%
%TA.AperFunction,SMDPad,CuDef*%
%ADD36R,1.150000X0.600000*%
%TD*%
%TA.AperFunction,SMDPad,CuDef*%
%ADD37R,1.150000X0.300000*%
%TD*%
%TA.AperFunction,ComponentPad*%
%ADD38O,2.150000X1.050000*%
%TD*%
%TA.AperFunction,ComponentPad*%
%ADD39O,1.850000X1.050000*%
%TD*%
%TA.AperFunction,SMDPad,CuDef*%
%ADD40RoundRect,0.237500X0.237500X-0.250000X0.237500X0.250000X-0.237500X0.250000X-0.237500X-0.250000X0*%
%TD*%
%TA.AperFunction,ComponentPad*%
%ADD41R,1.448000X1.448000*%
%TD*%
%TA.AperFunction,ComponentPad*%
%ADD42C,1.448000*%
%TD*%
%TA.AperFunction,ComponentPad*%
%ADD43C,2.430000*%
%TD*%
%TA.AperFunction,SMDPad,CuDef*%
%ADD44R,0.700000X0.700000*%
%TD*%
%TA.AperFunction,SMDPad,CuDef*%
%ADD45RoundRect,0.100000X0.100000X-0.637500X0.100000X0.637500X-0.100000X0.637500X-0.100000X-0.637500X0*%
%TD*%
%TA.AperFunction,ComponentPad*%
%ADD46C,2.100000*%
%TD*%
%TA.AperFunction,ViaPad*%
%ADD47C,0.550000*%
%TD*%
%TA.AperFunction,Conductor*%
%ADD48C,0.500000*%
%TD*%
%TA.AperFunction,Conductor*%
%ADD49C,0.300000*%
%TD*%
%TA.AperFunction,Conductor*%
%ADD50C,0.250000*%
%TD*%
%TA.AperFunction,Conductor*%
%ADD51C,0.200000*%
%TD*%
G04 APERTURE END LIST*
D10*
%TO.P,U5,1,GND*%
%TO.N,GND*%
X170725000Y-85210000D03*
%TO.P,U5,2,OUT*%
%TO.N,+3V3*%
X170725000Y-87510000D03*
%TO.P,U5,3,IN*%
%TO.N,+5V*%
X170725000Y-89810000D03*
D11*
%TO.P,U5,4,OUT-1*%
%TO.N,+3V3*%
X176525000Y-87510000D03*
%TD*%
D12*
%TO.P,C4,1*%
%TO.N,/Project Architecture/Section A - Title A/ESP32_BOOT*%
X122150000Y-69172500D03*
%TO.P,C4,2*%
%TO.N,GND*%
X122150000Y-67447500D03*
%TD*%
D13*
%TO.P,U3,1,VCC1*%
%TO.N,+3V3*%
X163877500Y-98060000D03*
%TO.P,U3,2,RXD*%
%TO.N,/Project Architecture/Section A - Title A/CAN1_RX*%
X161337500Y-98060000D03*
%TO.P,U3,3,TXD*%
%TO.N,/Project Architecture/Section A - Title A/CAN1_TX*%
X158797500Y-98060000D03*
%TO.P,U3,4,GND1*%
%TO.N,GND*%
X156257500Y-98060000D03*
%TO.P,U3,5,GND2*%
%TO.N,GND_CAN1*%
X156257500Y-107110000D03*
%TO.P,U3,6,CANL*%
%TO.N,/Project Architecture/Section B - Title B/CAN1_L*%
X158797500Y-107110000D03*
%TO.P,U3,7,CANH*%
%TO.N,/Project Architecture/Section B - Title B/CAN1_H*%
X161337500Y-107110000D03*
%TO.P,U3,8,VCC2*%
%TO.N,+5V_CAN1*%
X163877500Y-107110000D03*
%TD*%
D12*
%TO.P,C3,1*%
%TO.N,+3V3*%
X150076802Y-54622500D03*
%TO.P,C3,2*%
%TO.N,GND*%
X150076802Y-52897500D03*
%TD*%
%TO.P,C18,1*%
%TO.N,+5V*%
X138750000Y-100372500D03*
%TO.P,C18,2*%
%TO.N,GND*%
X138750000Y-98647500D03*
%TD*%
D14*
%TO.P,C23,1*%
%TO.N,+3V3*%
X159900000Y-86205000D03*
%TO.P,C23,2*%
%TO.N,GND*%
X161625000Y-86205000D03*
%TD*%
D15*
%TO.P,R1,1*%
%TO.N,+3V3*%
X122100000Y-57222500D03*
%TO.P,R1,2*%
%TO.N,/Project Architecture/Section A - Title A/ESP32_EN*%
X122100000Y-59047500D03*
%TD*%
D16*
%TO.P,C8,1*%
%TO.N,+3V3*%
X128525000Y-82535000D03*
%TO.P,C8,2*%
%TO.N,GND*%
X128525000Y-84260000D03*
%TD*%
D17*
%TO.P,C12,1*%
%TO.N,+5V_CAN2*%
X134112500Y-109410000D03*
%TO.P,C12,2*%
%TO.N,GND_CAN2*%
X132387500Y-109410000D03*
%TD*%
D18*
%TO.P,H3,1,1*%
%TO.N,unconnected-(H3-Pad1)*%
X117150000Y-122610000D03*
%TD*%
D19*
%TO.P,U6,1,32KHZ*%
%TO.N,unconnected-(U6-32KHZ-Pad1)*%
X150950000Y-82500000D03*
%TO.P,U6,2,VCC*%
%TO.N,+3V3*%
X150950000Y-83770000D03*
%TO.P,U6,3,~{INT}/SQW*%
%TO.N,/Project Architecture/Section A - Title A/RTC_INT*%
X150950000Y-85040000D03*
%TO.P,U6,4,~{RST}*%
%TO.N,/Project Architecture/Section A - Title A/RTC_RST*%
X150950000Y-86310000D03*
%TO.P,U6,5,GND*%
%TO.N,GND*%
X155900000Y-86310000D03*
%TO.P,U6,6,VBAT*%
%TO.N,+3V0*%
X155900000Y-85040000D03*
%TO.P,U6,7,SDA*%
%TO.N,/Project Architecture/Section A - Title A/SDA*%
X155900000Y-83770000D03*
%TO.P,U6,8,SCL*%
%TO.N,/Project Architecture/Section A - Title A/SCL*%
X155900000Y-82500000D03*
%TD*%
D14*
%TO.P,C14,1*%
%TO.N,/Project Architecture/Section B - Title B/CAN_OSC2*%
X138162500Y-81660000D03*
%TO.P,C14,2*%
%TO.N,GND*%
X139887500Y-81660000D03*
%TD*%
D20*
%TO.P,REF\u002A\u002A,1*%
%TO.N,N/C*%
X127150000Y-64210000D03*
D21*
%TO.P,REF\u002A\u002A,2*%
X147950000Y-64210000D03*
%TD*%
D12*
%TO.P,C6,1*%
%TO.N,+3V3*%
X166050000Y-98072500D03*
%TO.P,C6,2*%
%TO.N,GND*%
X166050000Y-96347500D03*
%TD*%
D22*
%TO.P,J4,1*%
%TO.N,+5V_CAN1*%
X182950000Y-105050000D03*
%TO.P,J4,2*%
%TO.N,GND_CAN1*%
X182950000Y-99970000D03*
%TD*%
D15*
%TO.P,R4,1*%
%TO.N,/Project Architecture/Section A - Title A/USB_CC2*%
X122873198Y-82872500D03*
%TO.P,R4,2*%
%TO.N,GND*%
X122873198Y-84697500D03*
%TD*%
D23*
%TO.P,R8,1*%
%TO.N,Net-(C10-Pad1)*%
X146562500Y-115010000D03*
%TO.P,R8,2*%
%TO.N,/Project Architecture/Section B - Title B/CAN2_L*%
X144737500Y-115010000D03*
%TD*%
D16*
%TO.P,C5,1*%
%TO.N,+5V*%
X180110000Y-48697500D03*
%TO.P,C5,2*%
%TO.N,GND*%
X180110000Y-50422500D03*
%TD*%
D15*
%TO.P,R3,1*%
%TO.N,GND*%
X122873198Y-78072500D03*
%TO.P,R3,2*%
%TO.N,/Project Architecture/Section A - Title A/USB_CC1*%
X122873198Y-79897500D03*
%TD*%
D24*
%TO.P,R5,1*%
%TO.N,/Project Architecture/Section B - Title B/CAN1_H*%
X185337500Y-115210000D03*
%TO.P,R5,2*%
%TO.N,Net-(C9-Pad1)*%
X187162500Y-115210000D03*
%TD*%
D25*
%TO.P,J6,1,Pin_1*%
%TO.N,/Project Architecture/Section B - Title B/CAN1_H*%
X171300000Y-117260000D03*
D26*
%TO.P,J6,2,Pin_2*%
%TO.N,/Project Architecture/Section B - Title B/CAN1_L*%
X173800000Y-117260000D03*
%TO.P,J6,3,Pin_3*%
%TO.N,GND_CAN1*%
X176300000Y-117260000D03*
%TO.P,J6,4,Pin_4*%
%TO.N,+5V_CAN1*%
X178800000Y-117260000D03*
%TD*%
D24*
%TO.P,R11,1*%
%TO.N,+3V3*%
X146112500Y-87325000D03*
%TO.P,R11,2*%
%TO.N,/Project Architecture/Section A - Title A/RTC_INT*%
X147937500Y-87325000D03*
%TD*%
D17*
%TO.P,C13,1*%
%TO.N,/Project Architecture/Section B - Title B/CAN_OSC1*%
X139887500Y-89860000D03*
%TO.P,C13,2*%
%TO.N,GND*%
X138162500Y-89860000D03*
%TD*%
D12*
%TO.P,C19,1*%
%TO.N,+3V3*%
X168025000Y-87472500D03*
%TO.P,C19,2*%
%TO.N,GND*%
X168025000Y-85747500D03*
%TD*%
D27*
%TO.P,Y1,1,XTAL_1*%
%TO.N,/Project Architecture/Section B - Title B/CAN_OSC1*%
X140278985Y-87760000D03*
%TO.P,Y1,2,GND_1*%
%TO.N,GND*%
X140278985Y-83760000D03*
%TO.P,Y1,3,XTAL_2*%
%TO.N,/Project Architecture/Section B - Title B/CAN_OSC2*%
X137878985Y-83760000D03*
%TO.P,Y1,4,GND_2*%
%TO.N,GND*%
X137878985Y-87760000D03*
%TD*%
D16*
%TO.P,C15,1*%
%TO.N,+5V_CAN1*%
X175037500Y-104447500D03*
%TO.P,C15,2*%
%TO.N,GND_CAN1*%
X175037500Y-106172500D03*
%TD*%
D28*
%TO.P,U1,1,GND*%
%TO.N,GND*%
X154010000Y-53060000D03*
%TO.P,U1,2,3V3*%
%TO.N,+3V3*%
X154010000Y-54330000D03*
%TO.P,U1,3,EN*%
%TO.N,/Project Architecture/Section A - Title A/ESP32_EN*%
X154010000Y-55600000D03*
%TO.P,U1,4,IO4*%
%TO.N,unconnected-(U1-IO4-Pad4)*%
X154010000Y-56870000D03*
%TO.P,U1,5,IO5*%
%TO.N,unconnected-(U1-IO5-Pad5)*%
X154010000Y-58140000D03*
%TO.P,U1,6,IO6*%
%TO.N,unconnected-(U1-IO6-Pad6)*%
X154010000Y-59410000D03*
%TO.P,U1,7,IO7*%
%TO.N,unconnected-(U1-IO7-Pad7)*%
X154010000Y-60680000D03*
%TO.P,U1,8,IO15*%
%TO.N,unconnected-(U1-IO15-Pad8)*%
X154010000Y-61950000D03*
%TO.P,U1,9,IO16*%
%TO.N,unconnected-(U1-IO16-Pad9)*%
X154010000Y-63220000D03*
%TO.P,U1,10,IO17*%
%TO.N,unconnected-(U1-IO17-Pad10)*%
X154010000Y-64490000D03*
%TO.P,U1,11,IO18*%
%TO.N,unconnected-(U1-IO18-Pad11)*%
X154010000Y-65760000D03*
%TO.P,U1,12,IO8*%
%TO.N,unconnected-(U1-IO8-Pad12)*%
X154010000Y-67030000D03*
%TO.P,U1,13,USB_D-/IO19*%
%TO.N,/Project Architecture/Section A - Title A/ESP32_USB_D-*%
X154010000Y-68300000D03*
%TO.P,U1,14,USB_D+/IO20*%
%TO.N,/Project Architecture/Section A - Title A/ESP32_USB_D+*%
X154010000Y-69570000D03*
D29*
%TO.P,U1,15,IO3*%
%TO.N,unconnected-(U1-IO3-Pad15)*%
X155775000Y-70820000D03*
%TO.P,U1,16,IO46*%
%TO.N,unconnected-(U1-IO46-Pad16)*%
X157045000Y-70820000D03*
%TO.P,U1,17,IO9*%
%TO.N,/Project Architecture/Section A - Title A/CAN2_INT*%
X158315000Y-70820000D03*
%TO.P,U1,18,IO10*%
%TO.N,/Project Architecture/Section A - Title A/CAN2_CS*%
X159585000Y-70820000D03*
%TO.P,U1,19,IO11*%
%TO.N,/Project Architecture/Section A - Title A/CAN2_MOSI*%
X160855000Y-70820000D03*
%TO.P,U1,20,IO12*%
%TO.N,/Project Architecture/Section A - Title A/CAN2_SCK*%
X162125000Y-70820000D03*
%TO.P,U1,21,IO13*%
%TO.N,/Project Architecture/Section A - Title A/CAN2_MISO*%
X163395000Y-70820000D03*
%TO.P,U1,22,IO14*%
%TO.N,/Project Architecture/Section A - Title A/CAN2_RST*%
X164665000Y-70820000D03*
%TO.P,U1,23,IO21*%
%TO.N,/Project Architecture/Section A - Title A/CAN1_RX*%
X165935000Y-70820000D03*
%TO.P,U1,24,IO47*%
%TO.N,/Project Architecture/Section A - Title A/CAN1_TX*%
X167205000Y-70820000D03*
%TO.P,U1,25,IO48*%
%TO.N,unconnected-(U1-IO48-Pad25)*%
X168475000Y-70820000D03*
%TO.P,U1,26,IO45*%
%TO.N,unconnected-(U1-IO45-Pad26)*%
X169745000Y-70820000D03*
D28*
%TO.P,U1,27,IO0*%
%TO.N,/Project Architecture/Section A - Title A/ESP32_BOOT*%
X171510000Y-69570000D03*
%TO.P,U1,28,NC*%
%TO.N,unconnected-(U1-NC-Pad28)*%
X171510000Y-68300000D03*
%TO.P,U1,29,NC*%
%TO.N,unconnected-(U1-NC-Pad29)*%
X171510000Y-67030000D03*
%TO.P,U1,30,NC*%
%TO.N,unconnected-(U1-NC-Pad30)*%
X171510000Y-65760000D03*
%TO.P,U1,31,IO38*%
%TO.N,unconnected-(U1-IO38-Pad31)*%
X171510000Y-64490000D03*
%TO.P,U1,32,MTCK/IO39*%
%TO.N,unconnected-(U1-MTCK{slash}IO39-Pad32)*%
X171510000Y-63220000D03*
%TO.P,U1,33,MTDO/IO40*%
%TO.N,unconnected-(U1-MTDO{slash}IO40-Pad33)*%
X171510000Y-61950000D03*
%TO.P,U1,34,MTDI/IO41*%
%TO.N,unconnected-(U1-MTDI{slash}IO41-Pad34)*%
X171510000Y-60680000D03*
%TO.P,U1,35,MTMS/IO42*%
%TO.N,unconnected-(U1-MTMS{slash}IO42-Pad35)*%
X171510000Y-59410000D03*
%TO.P,U1,36,RXD0/IO44*%
%TO.N,unconnected-(U1-RXD0{slash}IO44-Pad36)*%
X171510000Y-58140000D03*
%TO.P,U1,37,TXD0/IO43*%
%TO.N,unconnected-(U1-TXD0{slash}IO43-Pad37)*%
X171510000Y-56870000D03*
%TO.P,U1,38,IO2*%
%TO.N,unconnected-(U1-IO2-Pad38)*%
X171510000Y-55600000D03*
%TO.P,U1,39,IO1*%
%TO.N,/Project Architecture/Section A - Title A/LED_DOUT*%
X171510000Y-54330000D03*
%TO.P,U1,40,GND*%
%TO.N,GND*%
X171510000Y-53060000D03*
D30*
%TO.P,U1,41,GND*%
X159900000Y-56910000D03*
D31*
X159900000Y-57660000D03*
D30*
X159900000Y-58410000D03*
D31*
X159900000Y-59160000D03*
D30*
X159900000Y-59910000D03*
D31*
X160650000Y-56910000D03*
X160650000Y-58410000D03*
X160650000Y-59910000D03*
D30*
X161400000Y-56910000D03*
D31*
X161400000Y-57660000D03*
D30*
X161400000Y-58410000D03*
D31*
X161400000Y-59160000D03*
D30*
X161400000Y-59910000D03*
D31*
X162150000Y-56910000D03*
X162150000Y-58410000D03*
X162150000Y-59910000D03*
D30*
X162900000Y-56910000D03*
D31*
X162900000Y-57660000D03*
D30*
X162900000Y-58410000D03*
D31*
X162900000Y-59160000D03*
D30*
X162900000Y-59910000D03*
%TD*%
D24*
%TO.P,R7,1*%
%TO.N,/Project Architecture/Section B - Title B/CAN2_H*%
X144737500Y-113410000D03*
%TO.P,R7,2*%
%TO.N,Net-(C10-Pad1)*%
X146562500Y-113410000D03*
%TD*%
D13*
%TO.P,U4,1,VCC1*%
%TO.N,+3V3*%
X134110000Y-97985000D03*
%TO.P,U4,2,RXD*%
%TO.N,/Project Architecture/Section B - Title B/CAN2_RX*%
X131570000Y-97985000D03*
%TO.P,U4,3,TXD*%
%TO.N,/Project Architecture/Section B - Title B/CAN2_TX*%
X129030000Y-97985000D03*
%TO.P,U4,4,GND1*%
%TO.N,GND*%
X126490000Y-97985000D03*
%TO.P,U4,5,GND2*%
%TO.N,GND_CAN2*%
X126490000Y-107035000D03*
%TO.P,U4,6,CANL*%
%TO.N,/Project Architecture/Section B - Title B/CAN2_L*%
X129030000Y-107035000D03*
%TO.P,U4,7,CANH*%
%TO.N,/Project Architecture/Section B - Title B/CAN2_H*%
X131570000Y-107035000D03*
%TO.P,U4,8,VCC2*%
%TO.N,+5V_CAN2*%
X134110000Y-107035000D03*
%TD*%
D18*
%TO.P,H1,1,1*%
%TO.N,unconnected-(H1-Pad1)*%
X117150000Y-50610000D03*
%TD*%
D32*
%TO.P,S1,1,NO_1*%
%TO.N,/Project Architecture/Section A - Title A/ESP32_BOOT*%
X117500000Y-66835000D03*
%TO.P,S1,2,COM_1*%
%TO.N,GND*%
X119200000Y-66835000D03*
%TO.P,S1,3,NO_2*%
%TO.N,/Project Architecture/Section A - Title A/ESP32_BOOT*%
X117500000Y-71985000D03*
%TO.P,S1,4,COM_2*%
%TO.N,GND*%
X119200000Y-71985000D03*
D33*
%TO.P,S1,G1,GND*%
X116325000Y-69410000D03*
%TD*%
D24*
%TO.P,R10,1*%
%TO.N,+3V3*%
X146112500Y-84815000D03*
%TO.P,R10,2*%
%TO.N,/Project Architecture/Section A - Title A/SDA*%
X147937500Y-84815000D03*
%TD*%
D23*
%TO.P,R6,1*%
%TO.N,Net-(C9-Pad1)*%
X187162500Y-113610000D03*
%TO.P,R6,2*%
%TO.N,/Project Architecture/Section B - Title B/CAN1_L*%
X185337500Y-113610000D03*
%TD*%
D32*
%TO.P,S2,1,NO_1*%
%TO.N,/Project Architecture/Section A - Title A/ESP32_EN*%
X117450000Y-57960000D03*
%TO.P,S2,2,COM_1*%
%TO.N,GND*%
X119150000Y-57960000D03*
%TO.P,S2,3,NO_2*%
%TO.N,/Project Architecture/Section A - Title A/ESP32_EN*%
X117450000Y-63110000D03*
%TO.P,S2,4,COM_2*%
%TO.N,GND*%
X119150000Y-63110000D03*
D33*
%TO.P,S2,G1,GND*%
X116275000Y-60535000D03*
%TD*%
D34*
%TO.P,PS1,1,-VIN*%
%TO.N,GND_CAN1*%
X172587500Y-106417500D03*
D35*
%TO.P,PS1,2,+VIN*%
%TO.N,+5V_CAN1*%
X172587500Y-103877500D03*
%TO.P,PS1,3,-VOUT*%
%TO.N,GND*%
X172587500Y-101337500D03*
%TO.P,PS1,4,+VOUT*%
%TO.N,+5V*%
X172587500Y-98797500D03*
%TD*%
D36*
%TO.P,J1,A1_B12,GND*%
%TO.N,GND*%
X120635000Y-77910000D03*
%TO.P,J1,A4_B9,VBUS*%
%TO.N,VBUS*%
X120635000Y-78710000D03*
D37*
%TO.P,J1,A5,CC1*%
%TO.N,/Project Architecture/Section A - Title A/USB_CC1*%
X120635000Y-79860000D03*
%TO.P,J1,A6,DP1*%
%TO.N,/Project Architecture/Section A - Title A/ESP32_USB_D+*%
X120635000Y-80860000D03*
%TO.P,J1,A7,DN1*%
%TO.N,/Project Architecture/Section A - Title A/ESP32_USB_D-*%
X120635000Y-81360000D03*
%TO.P,J1,A8,SBU1*%
%TO.N,unconnected-(J1-SBU1-PadA8)*%
X120635000Y-82360000D03*
D36*
%TO.P,J1,B1_A12,GND*%
%TO.N,GND*%
X120635000Y-84310000D03*
%TO.P,J1,B4_A9,VBUS*%
%TO.N,VBUS*%
X120635000Y-83510000D03*
D37*
%TO.P,J1,B5,CC2*%
%TO.N,/Project Architecture/Section A - Title A/USB_CC2*%
X120635000Y-82860000D03*
%TO.P,J1,B6,DP2*%
%TO.N,/Project Architecture/Section A - Title A/ESP32_USB_D+*%
X120635000Y-81860000D03*
%TO.P,J1,B7,DN2*%
%TO.N,/Project Architecture/Section A - Title A/ESP32_USB_D-*%
X120635000Y-80360000D03*
%TO.P,J1,B8,SBU2*%
%TO.N,unconnected-(J1-SBU2-PadB8)*%
X120635000Y-79360000D03*
D38*
%TO.P,J1,SH1,SHIELD*%
%TO.N,GND*%
X120070000Y-76790000D03*
%TO.P,J1,SH2,SHIELD*%
X120070000Y-85430000D03*
D39*
%TO.P,J1,SH3,SHIELD*%
X115890000Y-76790000D03*
%TO.P,J1,SH4,SHIELD*%
X115890000Y-85430000D03*
%TD*%
D40*
%TO.P,R2,1*%
%TO.N,+3V3*%
X122150000Y-72822500D03*
%TO.P,R2,2*%
%TO.N,/Project Architecture/Section A - Title A/ESP32_BOOT*%
X122150000Y-70997500D03*
%TD*%
D17*
%TO.P,C11,1*%
%TO.N,+5V_CAN1*%
X163812500Y-109610000D03*
%TO.P,C11,2*%
%TO.N,GND_CAN1*%
X162087500Y-109610000D03*
%TD*%
D41*
%TO.P,J5,1,1*%
%TO.N,unconnected-(J5-Pad1)*%
X137006000Y-118370000D03*
D42*
%TO.P,J5,2,2*%
%TO.N,unconnected-(J5-Pad2)*%
X135990000Y-116590000D03*
%TO.P,J5,3,3*%
%TO.N,GND_CAN2*%
X134974000Y-118370000D03*
%TO.P,J5,4,4*%
%TO.N,unconnected-(J5-Pad4)*%
X133958000Y-116590000D03*
%TO.P,J5,5,5*%
%TO.N,unconnected-(J5-Pad5)*%
X132942000Y-118370000D03*
%TO.P,J5,6,6*%
%TO.N,unconnected-(J5-Pad6)*%
X131926000Y-116590000D03*
%TO.P,J5,7,7*%
%TO.N,/Project Architecture/Section B - Title B/CAN2_H*%
X130910000Y-118370000D03*
%TO.P,J5,8,8*%
%TO.N,/Project Architecture/Section B - Title B/CAN2_L*%
X129894000Y-116590000D03*
D43*
%TO.P,J5,SH1,SHIELD*%
%TO.N,GND_CAN2*%
X125320000Y-117480000D03*
%TO.P,J5,SH2,SHIELD*%
X141580000Y-117480000D03*
%TD*%
D17*
%TO.P,C10,1*%
%TO.N,Net-(C10-Pad1)*%
X146512500Y-116610000D03*
%TO.P,C10,2*%
%TO.N,GND_CAN2*%
X144787500Y-116610000D03*
%TD*%
D25*
%TO.P,J2,1,Pin_1*%
%TO.N,/Project Architecture/Section B - Title B/CAN1_H*%
X155700000Y-117260000D03*
D26*
%TO.P,J2,2,Pin_2*%
%TO.N,/Project Architecture/Section B - Title B/CAN1_L*%
X158200000Y-117260000D03*
%TO.P,J2,3,Pin_3*%
%TO.N,GND_CAN1*%
X160700000Y-117260000D03*
%TO.P,J2,4,Pin_4*%
%TO.N,+5V_CAN1*%
X163200000Y-117260000D03*
%TD*%
D14*
%TO.P,C22,1*%
%TO.N,+3V0*%
X159900000Y-83695000D03*
%TO.P,C22,2*%
%TO.N,GND*%
X161625000Y-83695000D03*
%TD*%
D16*
%TO.P,C17,1*%
%TO.N,+5V*%
X175037500Y-98947500D03*
%TO.P,C17,2*%
%TO.N,GND*%
X175037500Y-100672500D03*
%TD*%
D17*
%TO.P,C9,1*%
%TO.N,Net-(C9-Pad1)*%
X187112500Y-116810000D03*
%TO.P,C9,2*%
%TO.N,GND_CAN1*%
X185387500Y-116810000D03*
%TD*%
D18*
%TO.P,H4,1,1*%
%TO.N,unconnected-(H4-Pad1)*%
X189150000Y-122610000D03*
%TD*%
D44*
%TO.P,D1,1,DOUT*%
%TO.N,unconnected-(D1-DOUT-Pad1)*%
X175995000Y-49010000D03*
%TO.P,D1,2,VSS*%
%TO.N,GND*%
X175995000Y-50110000D03*
%TO.P,D1,3,DIN*%
%TO.N,/Project Architecture/Section A - Title A/LED_DOUT*%
X177825000Y-50110000D03*
%TO.P,D1,4,VDD*%
%TO.N,+5V*%
X177825000Y-49010000D03*
%TD*%
D12*
%TO.P,C1,1*%
%TO.N,+3V3*%
X151776802Y-54622500D03*
%TO.P,C1,2*%
%TO.N,GND*%
X151776802Y-52897500D03*
%TD*%
%TO.P,C20,1*%
%TO.N,+5V_CAN2*%
X138850000Y-105472500D03*
%TO.P,C20,2*%
%TO.N,GND_CAN2*%
X138850000Y-103747500D03*
%TD*%
D45*
%TO.P,U2,1,TXCAN*%
%TO.N,/Project Architecture/Section B - Title B/CAN2_TX*%
X130125000Y-88485000D03*
%TO.P,U2,2,RXCAN*%
%TO.N,/Project Architecture/Section B - Title B/CAN2_RX*%
X130775000Y-88485000D03*
%TO.P,U2,3,CLKOUT/SOF*%
%TO.N,unconnected-(U2-CLKOUT{slash}SOF-Pad3)*%
X131425000Y-88485000D03*
%TO.P,U2,4,~{TX0RTS}*%
%TO.N,unconnected-(U2-~{TX0RTS}-Pad4)*%
X132075000Y-88485000D03*
%TO.P,U2,5,~{TX1RTS}*%
%TO.N,unconnected-(U2-~{TX1RTS}-Pad5)*%
X132725000Y-88485000D03*
%TO.P,U2,6,NC*%
%TO.N,unconnected-(U2-NC-Pad6)*%
X133375000Y-88485000D03*
%TO.P,U2,7,~{TX2RTS}*%
%TO.N,unconnected-(U2-~{TX2RTS}-Pad7)*%
X134025000Y-88485000D03*
%TO.P,U2,8,OSC2*%
%TO.N,/Project Architecture/Section B - Title B/CAN_OSC2*%
X134675000Y-88485000D03*
%TO.P,U2,9,OSC1*%
%TO.N,/Project Architecture/Section B - Title B/CAN_OSC1*%
X135325000Y-88485000D03*
%TO.P,U2,10,VSS*%
%TO.N,GND*%
X135975000Y-88485000D03*
%TO.P,U2,11,~{RX1BF}*%
%TO.N,unconnected-(U2-~{RX1BF}-Pad11)*%
X135975000Y-82760000D03*
%TO.P,U2,12,~{RX0BF}*%
%TO.N,unconnected-(U2-~{RX0BF}-Pad12)*%
X135325000Y-82760000D03*
%TO.P,U2,13,~{INT}*%
%TO.N,/Project Architecture/Section A - Title A/CAN2_INT*%
X134675000Y-82760000D03*
%TO.P,U2,14,SCK*%
%TO.N,/Project Architecture/Section A - Title A/CAN2_SCK*%
X134025000Y-82760000D03*
%TO.P,U2,15,NC*%
%TO.N,unconnected-(U2-NC-Pad15)*%
X133375000Y-82760000D03*
%TO.P,U2,16,SI*%
%TO.N,/Project Architecture/Section A - Title A/CAN2_MOSI*%
X132725000Y-82760000D03*
%TO.P,U2,17,SO*%
%TO.N,/Project Architecture/Section A - Title A/CAN2_MISO*%
X132075000Y-82760000D03*
%TO.P,U2,18,~{CS}*%
%TO.N,/Project Architecture/Section A - Title A/CAN2_CS*%
X131425000Y-82760000D03*
%TO.P,U2,19,~{RESET}*%
%TO.N,/Project Architecture/Section A - Title A/CAN2_RST*%
X130775000Y-82760000D03*
%TO.P,U2,20,VDD*%
%TO.N,+3V3*%
X130125000Y-82760000D03*
%TD*%
D12*
%TO.P,C7,1*%
%TO.N,+3V3*%
X136050000Y-97972500D03*
%TO.P,C7,2*%
%TO.N,GND*%
X136050000Y-96247500D03*
%TD*%
D46*
%TO.P,J3,1*%
%TO.N,unconnected-(J3-Pad1)*%
X183650000Y-88210000D03*
%TO.P,J3,2*%
%TO.N,unconnected-(J3-Pad2)*%
X183650000Y-85710000D03*
%TO.P,J3,3*%
%TO.N,unconnected-(J3-Pad3)*%
X183650000Y-83210000D03*
%TO.P,J3,4*%
%TO.N,unconnected-(J3-Pad4)*%
X183650000Y-80710000D03*
%TO.P,J3,5*%
%TO.N,unconnected-(J3-Pad5)*%
X183650000Y-78210000D03*
%TO.P,J3,6*%
%TO.N,unconnected-(J3-Pad6)*%
X183650000Y-75710000D03*
%TO.P,J3,7*%
%TO.N,unconnected-(J3-Pad7)*%
X183650000Y-73210000D03*
%TO.P,J3,8*%
%TO.N,unconnected-(J3-Pad8)*%
X183650000Y-70710000D03*
%TO.P,J3,9*%
%TO.N,unconnected-(J3-Pad9)*%
X183650000Y-68210000D03*
%TO.P,J3,10*%
%TO.N,unconnected-(J3-Pad10)*%
X183650000Y-65710000D03*
%TO.P,J3,11*%
%TO.N,unconnected-(J3-Pad11)*%
X183650000Y-63210000D03*
%TO.P,J3,12*%
%TO.N,unconnected-(J3-Pad12)*%
X183650000Y-60710000D03*
%TD*%
D18*
%TO.P,H2,1,1*%
%TO.N,unconnected-(H2-Pad1)*%
X189150000Y-50610000D03*
%TD*%
D17*
%TO.P,C16,1*%
%TO.N,+5V*%
X170687500Y-91610000D03*
%TO.P,C16,2*%
%TO.N,GND*%
X168962500Y-91610000D03*
%TD*%
D12*
%TO.P,C21,1*%
%TO.N,+3V3*%
X166325000Y-87472500D03*
%TO.P,C21,2*%
%TO.N,GND*%
X166325000Y-85747500D03*
%TD*%
D24*
%TO.P,R9,1*%
%TO.N,/Project Architecture/Section A - Title A/SCL*%
X146112500Y-82305000D03*
%TO.P,R9,2*%
%TO.N,+3V3*%
X147937500Y-82305000D03*
%TD*%
D34*
%TO.P,PS2,1,-VIN*%
%TO.N,GND*%
X141200000Y-98660000D03*
D35*
%TO.P,PS2,2,+VIN*%
%TO.N,+5V*%
X141200000Y-101200000D03*
%TO.P,PS2,3,-VOUT*%
%TO.N,GND_CAN2*%
X141200000Y-103740000D03*
%TO.P,PS2,4,+VOUT*%
%TO.N,+5V_CAN2*%
X141200000Y-106280000D03*
%TD*%
D16*
%TO.P,C2,1*%
%TO.N,/Project Architecture/Section A - Title A/ESP32_EN*%
X122100000Y-60872500D03*
%TO.P,C2,2*%
%TO.N,GND*%
X122100000Y-62597500D03*
%TD*%
D47*
%TO.N,GND*%
X172325000Y-85210000D03*
X176010000Y-50860000D03*
X156250000Y-96410000D03*
X168025000Y-91610000D03*
X155210000Y-53060000D03*
X180110000Y-51360000D03*
X150010000Y-52060000D03*
X170310000Y-53060000D03*
X168025000Y-84710000D03*
X170725000Y-84210000D03*
X156250000Y-99710000D03*
X172710000Y-53060000D03*
X151810000Y-52060000D03*
X166325000Y-84710000D03*
%TO.N,+3V3*%
X133350000Y-98010000D03*
X178225000Y-87510000D03*
X149910000Y-55460000D03*
X165225000Y-87510000D03*
X151610000Y-55460000D03*
X176525000Y-89610000D03*
X155110000Y-54360000D03*
X136950000Y-98010000D03*
X176525000Y-85510000D03*
X169025000Y-87472500D03*
%TO.N,+5V_CAN1*%
X163850000Y-110410000D03*
X163850000Y-105310000D03*
%TO.N,+5V_CAN2*%
X134050000Y-110210000D03*
X134050000Y-105510000D03*
%TO.N,GND_CAN1*%
X184450000Y-116810000D03*
X156250000Y-108810000D03*
X162050000Y-110410000D03*
%TO.N,GND_CAN2*%
X143750000Y-116610000D03*
X126450000Y-108510000D03*
X132350000Y-110210000D03*
%TD*%
D48*
%TO.N,GND*%
X171510000Y-53060000D02*
X170310000Y-53060000D01*
X156257500Y-98060000D02*
X156257500Y-99702500D01*
X180110000Y-50422500D02*
X180110000Y-51360000D01*
X150076802Y-52897500D02*
X151776802Y-52897500D01*
X151776802Y-52093198D02*
X151810000Y-52060000D01*
X150076802Y-52126802D02*
X150010000Y-52060000D01*
X151776802Y-52897500D02*
X151776802Y-52093198D01*
X170725000Y-85210000D02*
X172325000Y-85210000D01*
D49*
X175995000Y-50110000D02*
X175995000Y-50845000D01*
D48*
X168962500Y-91610000D02*
X168025000Y-91610000D01*
D49*
X175995000Y-50845000D02*
X176010000Y-50860000D01*
D48*
X170725000Y-85210000D02*
X170725000Y-84210000D01*
X156257500Y-98060000D02*
X156257500Y-96417500D01*
X152647500Y-52897500D02*
X152810000Y-53060000D01*
X150076802Y-52897500D02*
X150076802Y-52126802D01*
X152810000Y-53060000D02*
X154010000Y-53060000D01*
X168025000Y-85747500D02*
X168025000Y-84710000D01*
X166325000Y-85747500D02*
X166325000Y-84710000D01*
X154010000Y-53060000D02*
X155210000Y-53060000D01*
X171510000Y-53060000D02*
X172710000Y-53060000D01*
X156257500Y-99702500D02*
X156250000Y-99710000D01*
X156257500Y-96417500D02*
X156250000Y-96410000D01*
X151776802Y-52897500D02*
X152647500Y-52897500D01*
%TO.N,+3V3*%
X176525000Y-87510000D02*
X176525000Y-85510000D01*
X152740000Y-54330000D02*
X154010000Y-54330000D01*
X169025000Y-87472500D02*
X170687500Y-87472500D01*
X166037500Y-98060000D02*
X166050000Y-98072500D01*
X134110000Y-97985000D02*
X136037500Y-97985000D01*
X166325000Y-87472500D02*
X165262500Y-87472500D01*
X170687500Y-87472500D02*
X170725000Y-87510000D01*
X170725000Y-87510000D02*
X176525000Y-87510000D01*
X150076802Y-54622500D02*
X150076802Y-55293198D01*
X168025000Y-87472500D02*
X169025000Y-87472500D01*
X165262500Y-87472500D02*
X165225000Y-87510000D01*
X176525000Y-87510000D02*
X178225000Y-87510000D01*
X151776802Y-55293198D02*
X151610000Y-55460000D01*
X163877500Y-98060000D02*
X166037500Y-98060000D01*
X151776802Y-54622500D02*
X150076802Y-54622500D01*
X136037500Y-97985000D02*
X136050000Y-97972500D01*
X151776802Y-54622500D02*
X151776802Y-55293198D01*
X154010000Y-54330000D02*
X155080000Y-54330000D01*
X136087500Y-98010000D02*
X136950000Y-98010000D01*
X152447500Y-54622500D02*
X152740000Y-54330000D01*
X136050000Y-97972500D02*
X136087500Y-98010000D01*
X150076802Y-55293198D02*
X149910000Y-55460000D01*
X155080000Y-54330000D02*
X155110000Y-54360000D01*
X133375000Y-97985000D02*
X133350000Y-98010000D01*
X151776802Y-54622500D02*
X152447500Y-54622500D01*
X176525000Y-87510000D02*
X176525000Y-89610000D01*
X166325000Y-87472500D02*
X168025000Y-87472500D01*
X134110000Y-97985000D02*
X133375000Y-97985000D01*
%TO.N,+5V*%
X177825000Y-49010000D02*
X179797500Y-49010000D01*
X179797500Y-49010000D02*
X180110000Y-48697500D01*
X170687500Y-91610000D02*
X170687500Y-89847500D01*
X170687500Y-89847500D02*
X170725000Y-89810000D01*
D50*
%TO.N,Net-(C9-Pad1)*%
X187112500Y-116810000D02*
X187112500Y-115260000D01*
X187162500Y-113610000D02*
X187162500Y-115210000D01*
X187112500Y-115260000D02*
X187162500Y-115210000D01*
%TO.N,Net-(C10-Pad1)*%
X146512500Y-115060000D02*
X146562500Y-115010000D01*
X146512500Y-116610000D02*
X146512500Y-115060000D01*
X146562500Y-115010000D02*
X146562500Y-113410000D01*
D48*
%TO.N,+5V_CAN1*%
X163877500Y-105337500D02*
X163850000Y-105310000D01*
X163812500Y-109610000D02*
X163850000Y-109647500D01*
X163877500Y-107110000D02*
X163877500Y-105337500D01*
X163877500Y-109545000D02*
X163812500Y-109610000D01*
X163850000Y-109647500D02*
X163850000Y-110410000D01*
X163877500Y-107110000D02*
X163877500Y-109545000D01*
%TO.N,+5V_CAN2*%
X134112500Y-109410000D02*
X134112500Y-107037500D01*
X134112500Y-109410000D02*
X134112500Y-110147500D01*
X134110000Y-107035000D02*
X134110000Y-105570000D01*
X134110000Y-105570000D02*
X134050000Y-105510000D01*
X134112500Y-110147500D02*
X134050000Y-110210000D01*
X134112500Y-107037500D02*
X134110000Y-107035000D01*
D51*
%TO.N,/Project Architecture/Section B - Title B/CAN_OSC1*%
X139125000Y-86260000D02*
X140278985Y-87413985D01*
X135925000Y-86260000D02*
X139125000Y-86260000D01*
X135325000Y-86860000D02*
X135925000Y-86260000D01*
X135325000Y-88485000D02*
X135325000Y-86860000D01*
X140278985Y-87413985D02*
X140278985Y-87760000D01*
%TO.N,/Project Architecture/Section B - Title B/CAN_OSC2*%
X135825000Y-85560000D02*
X134675000Y-86710000D01*
X137878985Y-85306015D02*
X137625000Y-85560000D01*
X137625000Y-85560000D02*
X135825000Y-85560000D01*
X137878985Y-83760000D02*
X137878985Y-85306015D01*
X134675000Y-86710000D02*
X134675000Y-88485000D01*
D49*
%TO.N,/Project Architecture/Section A - Title A/LED_DOUT*%
X177825000Y-52045000D02*
X177825000Y-50110000D01*
X171510000Y-54330000D02*
X175540000Y-54330000D01*
X175540000Y-54330000D02*
X177825000Y-52045000D01*
D51*
%TO.N,VBUS*%
X120110000Y-83510000D02*
X120635000Y-83510000D01*
X120070000Y-78710000D02*
X119190000Y-79590000D01*
X120635000Y-78710000D02*
X120070000Y-78710000D01*
X119190000Y-82590000D02*
X120110000Y-83510000D01*
X119190000Y-79590000D02*
X119190000Y-82590000D01*
%TO.N,/Project Architecture/Section A - Title A/ESP32_USB_D+*%
X119750000Y-81810000D02*
X119750000Y-81010000D01*
X152474999Y-69160000D02*
X152260000Y-69160000D01*
X119750000Y-81010000D02*
X119900000Y-80860000D01*
X154010000Y-69570000D02*
X152884999Y-69570000D01*
X120635000Y-81860000D02*
X119800000Y-81860000D01*
X121060000Y-81860000D02*
X121085000Y-81835000D01*
X152884999Y-69570000D02*
X152474999Y-69160000D01*
X120635000Y-81860000D02*
X121060000Y-81860000D01*
X119800000Y-81860000D02*
X119750000Y-81810000D01*
X119900000Y-80860000D02*
X120635000Y-80860000D01*
%TO.N,/Project Architecture/Section A - Title A/USB_CC1*%
X122835698Y-79860000D02*
X122873198Y-79897500D01*
X120635000Y-79860000D02*
X122835698Y-79860000D01*
%TO.N,/Project Architecture/Section A - Title A/ESP32_USB_D-*%
X152474999Y-68710000D02*
X152260000Y-68710000D01*
X154010000Y-68300000D02*
X152884999Y-68300000D01*
X121400000Y-80360000D02*
X121550000Y-80510000D01*
X121060000Y-81360000D02*
X121085000Y-81385000D01*
X121550000Y-80510000D02*
X121550000Y-81360000D01*
X152884999Y-68300000D02*
X152474999Y-68710000D01*
X120635000Y-81360000D02*
X121550000Y-81360000D01*
X120635000Y-81360000D02*
X121060000Y-81360000D01*
X120635000Y-80360000D02*
X121400000Y-80360000D01*
%TO.N,/Project Architecture/Section A - Title A/USB_CC2*%
X122860698Y-82860000D02*
X122873198Y-82872500D01*
X120635000Y-82860000D02*
X122860698Y-82860000D01*
%TO.N,/Project Architecture/Section B - Title B/CAN1_H*%
X159850000Y-105110000D02*
X160250000Y-105510000D01*
X157350000Y-112910000D02*
X157350000Y-105410000D01*
X172350000Y-116210000D02*
X171300000Y-117260000D01*
X155700000Y-117260000D02*
X156750000Y-118310000D01*
X157350000Y-119810000D02*
X164950000Y-119810000D01*
X156750000Y-113510000D02*
X157350000Y-112910000D01*
X160250000Y-106610000D02*
X160750000Y-107110000D01*
X169950000Y-114810000D02*
X171650000Y-114810000D01*
X172350000Y-118310000D02*
X172350000Y-119110000D01*
X173150000Y-119910000D02*
X179250000Y-119910000D01*
X184450000Y-114710000D02*
X184837500Y-114710000D01*
X155700000Y-117260000D02*
X156750000Y-116210000D01*
X160250000Y-105510000D02*
X160250000Y-106610000D01*
X171650000Y-114810000D02*
X172350000Y-115510000D01*
X172350000Y-119110000D02*
X173150000Y-119910000D01*
X156750000Y-118310000D02*
X156750000Y-119210000D01*
X156750000Y-119210000D02*
X157350000Y-119810000D01*
X171300000Y-117260000D02*
X172350000Y-118310000D01*
X156750000Y-116210000D02*
X156750000Y-113510000D01*
X172350000Y-115510000D02*
X172350000Y-116210000D01*
X179250000Y-119910000D02*
X184450000Y-114710000D01*
X164950000Y-119810000D02*
X169950000Y-114810000D01*
X160750000Y-107110000D02*
X161337500Y-107110000D01*
X157350000Y-105410000D02*
X157650000Y-105110000D01*
X157650000Y-105110000D02*
X159850000Y-105110000D01*
X184837500Y-114710000D02*
X185337500Y-115210000D01*
%TO.N,/Project Architecture/Section B - Title B/CAN1_L*%
X169750000Y-114410000D02*
X171850000Y-114410000D01*
X157150000Y-119010000D02*
X157550000Y-119410000D01*
X184737500Y-114210000D02*
X185337500Y-113610000D01*
X157150000Y-116210000D02*
X158200000Y-117260000D01*
X159850000Y-106610000D02*
X159850000Y-105760000D01*
X157950000Y-105510000D02*
X157750000Y-105710000D01*
X157750000Y-113110000D02*
X157150000Y-113710000D01*
X157550000Y-119410000D02*
X164750000Y-119410000D01*
X157150000Y-113710000D02*
X157150000Y-116210000D01*
X164750000Y-119410000D02*
X169750000Y-114410000D01*
X178950000Y-119510000D02*
X184250000Y-114210000D01*
X158200000Y-117260000D02*
X157150000Y-118310000D01*
X173800000Y-117260000D02*
X172750000Y-118310000D01*
X158797500Y-107110000D02*
X159350000Y-107110000D01*
X184250000Y-114210000D02*
X184737500Y-114210000D01*
X172750000Y-115310000D02*
X172750000Y-116210000D01*
X159350000Y-107110000D02*
X159850000Y-106610000D01*
X173350000Y-119510000D02*
X178950000Y-119510000D01*
X172750000Y-116210000D02*
X173800000Y-117260000D01*
X157150000Y-118310000D02*
X157150000Y-119010000D01*
X171850000Y-114410000D02*
X172750000Y-115310000D01*
X159600000Y-105510000D02*
X157950000Y-105510000D01*
X172750000Y-118910000D02*
X173350000Y-119510000D01*
X157750000Y-105710000D02*
X157750000Y-113110000D01*
X159850000Y-105760000D02*
X159600000Y-105510000D01*
X172750000Y-118310000D02*
X172750000Y-118910000D01*
%TO.N,/Project Architecture/Section B - Title B/CAN2_L*%
X130150000Y-112810000D02*
X131750000Y-114410000D01*
X130150000Y-106410000D02*
X130150000Y-106510000D01*
X129894000Y-117416000D02*
X129500000Y-117810000D01*
X127950000Y-105810000D02*
X128750000Y-105010000D01*
X128750000Y-105010000D02*
X129950000Y-105010000D01*
X129950000Y-105010000D02*
X130150000Y-105210000D01*
X130150000Y-106410000D02*
X130150000Y-112810000D01*
X130150000Y-105210000D02*
X130150000Y-106410000D01*
X129500000Y-117810000D02*
X128650000Y-117810000D01*
X128650000Y-117810000D02*
X127950000Y-117110000D01*
X127950000Y-117110000D02*
X127950000Y-105810000D01*
X131750000Y-114410000D02*
X144137500Y-114410000D01*
X144137500Y-114410000D02*
X144737500Y-115010000D01*
X129894000Y-116590000D02*
X129894000Y-117416000D01*
X129625000Y-107035000D02*
X129030000Y-107035000D01*
X130150000Y-106510000D02*
X129625000Y-107035000D01*
%TO.N,/Project Architecture/Section B - Title B/CAN2_H*%
X127550000Y-117310000D02*
X128450000Y-118210000D01*
X130550000Y-105044314D02*
X130115686Y-104610000D01*
X128450000Y-118210000D02*
X130750000Y-118210000D01*
X130550000Y-112610000D02*
X131950000Y-114010000D01*
X131950000Y-114010000D02*
X144137500Y-114010000D01*
X144137500Y-114010000D02*
X144737500Y-113410000D01*
X130550000Y-106510000D02*
X130550000Y-112610000D01*
X130550000Y-106510000D02*
X130550000Y-105044314D01*
X130115686Y-104610000D02*
X128517157Y-104610000D01*
X128517157Y-104610000D02*
X127550000Y-105577157D01*
X127550000Y-105577157D02*
X127550000Y-117310000D01*
X131570000Y-107035000D02*
X131075000Y-107035000D01*
X130750000Y-118210000D02*
X130910000Y-118370000D01*
X131075000Y-107035000D02*
X130550000Y-106510000D01*
D48*
%TO.N,GND_CAN1*%
X162087500Y-110372500D02*
X162050000Y-110410000D01*
X162087500Y-109610000D02*
X162087500Y-110372500D01*
X156257500Y-108802500D02*
X156250000Y-108810000D01*
D50*
X185387500Y-116810000D02*
X184450000Y-116810000D01*
D48*
X156257500Y-107110000D02*
X156257500Y-108802500D01*
%TO.N,GND_CAN2*%
X126490000Y-107035000D02*
X126490000Y-108470000D01*
X126490000Y-108470000D02*
X126450000Y-108510000D01*
X132387500Y-110172500D02*
X132350000Y-110210000D01*
D50*
X144787500Y-116610000D02*
X143750000Y-116610000D01*
D48*
X132387500Y-109410000D02*
X132387500Y-110172500D01*
%TD*%
M02*
