%TF.GenerationSoftware,KiCad,Pcbnew,9.0.7+1*%
%TF.CreationDate,Date%
%TF.ProjectId,LE_BMS_A_V2,4c455f42-4d53-45f4-915f-56322e6b6963,+ (Unreleased)*%
%TF.SameCoordinates,Original*%
%TF.FileFunction,Soldermask,Bot*%
%TF.FilePolarity,Negative*%
%FSLAX46Y46*%
G04 Gerber Fmt 4.6, Leading zero omitted, Abs format (unit mm)*
G04 Created by KiCad*
%MOMM*%
%LPD*%
G01*
G04 APERTURE LIST*
G04 Aperture macros list*
%AMRoundRect*
0 Rectangle with rounded corners*
0 $1 Rounding radius*
0 $2 $3 $4 $5 $6 $7 $8 $9 X,Y pos of 4 corners*
0 Add a 4 corners polygon primitive as box body*
4,1,4,$2,$3,$4,$5,$6,$7,$8,$9,$2,$3,0*
0 Add four circle primitives for the rounded corners*
1,1,$1+$1,$2,$3*
1,1,$1+$1,$4,$5*
1,1,$1+$1,$6,$7*
1,1,$1+$1,$8,$9*
0 Add four rect primitives between the rounded corners*
20,1,$1+$1,$2,$3,$4,$5,0*
20,1,$1+$1,$4,$5,$6,$7,0*
20,1,$1+$1,$6,$7,$8,$9,0*
20,1,$1+$1,$8,$9,$2,$3,0*%
G04 Aperture macros list end*
%ADD10C,5.700000*%
%ADD11C,2.604000*%
%ADD12RoundRect,0.264706X-0.635294X-0.760294X0.635294X-0.760294X0.635294X0.760294X-0.635294X0.760294X0*%
%ADD13O,1.800000X2.050000*%
%ADD14C,0.700000*%
%ADD15RoundRect,0.102000X0.754000X-0.754000X0.754000X0.754000X-0.754000X0.754000X-0.754000X-0.754000X0*%
%ADD16C,1.712000*%
%ADD17C,0.750000*%
%ADD18O,2.354000X1.254000*%
%ADD19O,2.054000X1.254000*%
%ADD20C,3.400000*%
%ADD21RoundRect,0.102000X-0.724000X-0.724000X0.724000X-0.724000X0.724000X0.724000X-0.724000X0.724000X0*%
%ADD22C,1.652000*%
%ADD23C,2.634000*%
%ADD24C,2.304000*%
%ADD25RoundRect,0.102000X-0.754000X0.754000X-0.754000X-0.754000X0.754000X-0.754000X0.754000X0.754000X0*%
G04 APERTURE END LIST*
D10*
%TO.C,H3*%
X46400000Y-126200000D03*
%TD*%
D11*
%TO.C,J4*%
X112200000Y-108640000D03*
X112200000Y-103560000D03*
%TD*%
D12*
%TO.C,J6*%
X100550000Y-120850000D03*
D13*
X103050000Y-120850000D03*
X105550000Y-120850000D03*
X108050000Y-120850000D03*
%TD*%
D14*
%TO.C,U1*%
X89150000Y-61250000D03*
X89150000Y-62750000D03*
X89900000Y-60500000D03*
X89900000Y-62000000D03*
X89900000Y-63500000D03*
X90650000Y-61250000D03*
X90650000Y-62750000D03*
X91400000Y-60500000D03*
X91400000Y-62000000D03*
X91400000Y-63500000D03*
X92150000Y-61250000D03*
X92150000Y-62750000D03*
%TD*%
D10*
%TO.C,H1*%
X46400000Y-54200000D03*
%TD*%
D15*
%TO.C,PS1*%
X101837500Y-110007500D03*
D16*
X101837500Y-107467500D03*
X101837500Y-104927500D03*
X101837500Y-102387500D03*
%TD*%
D17*
%TO.C,J1*%
X48820000Y-81810000D03*
X48820000Y-87590000D03*
D18*
X49320000Y-80380000D03*
X49320000Y-89020000D03*
D19*
X45140000Y-80380000D03*
X45140000Y-89020000D03*
%TD*%
D20*
%TO.C,J5*%
X56350000Y-124500000D03*
X69050000Y-124500000D03*
D21*
X66256000Y-121960000D03*
D22*
X65240000Y-120180000D03*
X64224000Y-121960000D03*
X63208000Y-120180000D03*
X62192000Y-121960000D03*
X61176000Y-120180000D03*
X60160000Y-121960000D03*
X59144000Y-120180000D03*
D23*
X54570000Y-121070000D03*
X70830000Y-121070000D03*
%TD*%
D12*
%TO.C,J2*%
X84950000Y-120850000D03*
D13*
X87450000Y-120850000D03*
X89950000Y-120850000D03*
X92450000Y-120850000D03*
%TD*%
D10*
%TO.C,H4*%
X118400000Y-126200000D03*
%TD*%
D24*
%TO.C,J3*%
X112900000Y-91800000D03*
X112900000Y-89300000D03*
X112900000Y-86800000D03*
X112900000Y-84300000D03*
X112900000Y-81800000D03*
X112900000Y-79300000D03*
X112900000Y-76800000D03*
X112900000Y-74300000D03*
X112900000Y-71800000D03*
X112900000Y-69300000D03*
X112900000Y-66800000D03*
X112900000Y-64300000D03*
%TD*%
D10*
%TO.C,H2*%
X118400000Y-54200000D03*
%TD*%
D25*
%TO.C,PS2*%
X70450000Y-102250000D03*
D16*
X70450000Y-104790000D03*
X70450000Y-107330000D03*
X70450000Y-109870000D03*
%TD*%
M02*
