M48
; DRILL file {KiCad 9.0.7+1} date 2026-05-16T13:43:24+0000
; FORMAT={-:-/ absolute / metric / decimal}
; #@! TF.CreationDate,2026-05-16T13:43:24+00:00
; #@! TF.GenerationSoftware,Kicad,Pcbnew,9.0.7+1
; #@! TF.FileFunction,Plated,1,4,PTH
FMAT,2
METRIC
; #@! TA.AperFunction,Plated,PTH,ComponentDrill
T1C0.200
; #@! TA.AperFunction,Plated,PTH,ViaDrill
T2C0.250
; #@! TA.AperFunction,Plated,PTH,ComponentDrill
T3C0.650
; #@! TA.AperFunction,Plated,PTH,ComponentDrill
T4C0.940
; #@! TA.AperFunction,Plated,PTH,ComponentDrill
T5C0.950
; #@! TA.AperFunction,Plated,PTH,ComponentDrill
T6C1.000
; #@! TA.AperFunction,Plated,PTH,ComponentDrill
T7C1.400
; #@! TA.AperFunction,Plated,PTH,ComponentDrill
T8C1.500
; #@! TA.AperFunction,Plated,PTH,ComponentDrill
T9C1.600
; #@! TA.AperFunction,Plated,PTH,ComponentDrill
T10C1.620
; #@! TA.AperFunction,Plated,PTH,ComponentDrill
T11C3.200
%
G90
G05
T1
X159.9Y-57.66
X159.9Y-59.16
X160.65Y-56.91
X160.65Y-58.41
X160.65Y-59.91
X161.4Y-57.66
X161.4Y-59.16
X162.15Y-56.91
X162.15Y-58.41
X162.15Y-59.91
X162.9Y-57.66
X162.9Y-59.16
T2
X126.45Y-108.51
X132.35Y-110.21
X133.35Y-98.01
X134.05Y-105.51
X134.05Y-110.21
X136.95Y-98.01
X143.75Y-116.61
X149.91Y-55.46
X150.01Y-52.06
X151.61Y-55.46
X151.81Y-52.06
X155.11Y-54.36
X155.21Y-53.06
X156.25Y-96.41
X156.25Y-99.71
X156.25Y-108.81
X162.05Y-110.41
X163.85Y-105.31
X163.85Y-110.41
X165.225Y-87.51
X166.325Y-84.71
X168.025Y-84.71
X168.025Y-91.61
X169.025Y-87.472
X170.31Y-53.06
X170.725Y-84.21
X172.325Y-85.21
X172.71Y-53.06
X176.01Y-50.86
X176.525Y-85.51
X176.525Y-89.61
X178.225Y-87.51
X180.11Y-51.36
X184.45Y-116.81
T4
X129.894Y-116.59
X130.91Y-118.37
X131.926Y-116.59
X132.942Y-118.37
X133.958Y-116.59
X134.974Y-118.37
X135.99Y-116.59
X137.006Y-118.37
T5
X155.7Y-117.26
X158.2Y-117.26
X160.7Y-117.26
X163.2Y-117.26
X171.3Y-117.26
X173.8Y-117.26
X176.3Y-117.26
X178.8Y-117.26
T6
X141.2Y-98.66
X141.2Y-101.2
X141.2Y-103.74
X141.2Y-106.28
X172.588Y-98.797
X172.588Y-101.337
X172.588Y-103.877
X172.588Y-106.417
T7
X183.65Y-60.71
X183.65Y-63.21
X183.65Y-65.71
X183.65Y-68.21
X183.65Y-70.71
X183.65Y-73.21
X183.65Y-75.71
X183.65Y-78.21
X183.65Y-80.71
X183.65Y-83.21
X183.65Y-85.71
X183.65Y-88.21
T8
X127.15Y-64.21
X147.95Y-64.21
T9
X182.95Y-99.97
X182.95Y-105.05
T10
X125.32Y-117.48
X141.58Y-117.48
T11
X117.15Y-50.61
X117.15Y-122.61
X189.15Y-50.61
X189.15Y-122.61
T3
G00X116.29Y-76.79
M15
G01X115.49Y-76.79
M16
G05
G00X116.29Y-85.43
M15
G01X115.49Y-85.43
M16
G05
G00X120.62Y-76.79
M15
G01X119.52Y-76.79
M16
G05
G00X120.62Y-85.43
M15
G01X119.52Y-85.43
M16
G05
M30
