%TF.GenerationSoftware,KiCad,Pcbnew,9.0.7+1*%
%TF.CreationDate,Date%
%TF.ProjectId,LE_BMS_A_V2,4c455f42-4d53-45f4-915f-56322e6b6963,+ (Unreleased)*%
%TF.SameCoordinates,Original*%
%TF.FileFunction,Copper,L3,Inr*%
%TF.FilePolarity,Positive*%
%FSLAX46Y46*%
G04 Gerber Fmt 4.6, Leading zero omitted, Abs format (unit mm)*
G04 Created by KiCad*
%MOMM*%
%LPD*%
G01*
G04 APERTURE LIST*
G04 Aperture macros list*
%AMRoundRect*
0 Rectangle with rounded corners*
0 $1 Rounding radius*
0 $2 $3 $4 $5 $6 $7 $8 $9 X,Y pos of 4 corners*
0 Add a 4 corners polygon primitive as box body*
4,1,4,$2,$3,$4,$5,$6,$7,$8,$9,$2,$3,0*
0 Add four circle primitives for the rounded corners*
1,1,$1+$1,$2,$3*
1,1,$1+$1,$4,$5*
1,1,$1+$1,$6,$7*
1,1,$1+$1,$8,$9*
0 Add four rect primitives between the rounded corners*
20,1,$1+$1,$2,$3,$4,$5,0*
20,1,$1+$1,$4,$5,$6,$7,0*
20,1,$1+$1,$6,$7,$8,$9,0*
20,1,$1+$1,$8,$9,$2,$3,0*%
G04 Aperture macros list end*
%TA.AperFunction,ComponentPad*%
%ADD10C,5.600000*%
%TD*%
%TA.AperFunction,ComponentPad*%
%ADD11C,2.400000*%
%TD*%
%TA.AperFunction,ComponentPad*%
%ADD12RoundRect,0.250000X-0.600000X-0.725000X0.600000X-0.725000X0.600000X0.725000X-0.600000X0.725000X0*%
%TD*%
%TA.AperFunction,ComponentPad*%
%ADD13O,1.700000X1.950000*%
%TD*%
%TA.AperFunction,ComponentPad*%
%ADD14R,1.508000X1.508000*%
%TD*%
%TA.AperFunction,ComponentPad*%
%ADD15C,1.508000*%
%TD*%
%TA.AperFunction,HeatsinkPad*%
%ADD16C,0.600000*%
%TD*%
%TA.AperFunction,ComponentPad*%
%ADD17R,2.000000X2.000000*%
%TD*%
%TA.AperFunction,ComponentPad*%
%ADD18C,2.000000*%
%TD*%
%TA.AperFunction,ComponentPad*%
%ADD19O,1.050000X2.150000*%
%TD*%
%TA.AperFunction,ComponentPad*%
%ADD20O,1.050000X1.850000*%
%TD*%
%TA.AperFunction,ComponentPad*%
%ADD21R,1.448000X1.448000*%
%TD*%
%TA.AperFunction,ComponentPad*%
%ADD22C,1.448000*%
%TD*%
%TA.AperFunction,ComponentPad*%
%ADD23C,2.430000*%
%TD*%
%TA.AperFunction,ComponentPad*%
%ADD24C,2.100000*%
%TD*%
%TA.AperFunction,ViaPad*%
%ADD25C,0.550000*%
%TD*%
G04 APERTURE END LIST*
D10*
%TO.N,unconnected-(H3-Pad1)*%
%TO.C,H3*%
X117150000Y-122610000D03*
%TD*%
D11*
%TO.N,+5V_CAN1*%
%TO.C,J4*%
X186000000Y-105240000D03*
%TO.N,GND_CAN1*%
X186000000Y-100160000D03*
%TD*%
D12*
%TO.N,/Project Architecture/Section B - Title B/CAN1_H*%
%TO.C,J6*%
X171300000Y-120200000D03*
D13*
%TO.N,/Project Architecture/Section B - Title B/CAN1_L*%
X173800000Y-120200000D03*
%TO.N,GND_CAN1*%
X176300000Y-120200000D03*
%TO.N,+5V_CAN1*%
X178800000Y-120200000D03*
%TD*%
D14*
%TO.N,GND_CAN1*%
%TO.C,PS1*%
X172550000Y-106420000D03*
D15*
%TO.N,+5V_CAN1*%
X172550000Y-103880000D03*
%TO.N,GND*%
X172550000Y-101340000D03*
%TO.N,+5V*%
X172550000Y-98800000D03*
%TD*%
D16*
%TO.N,GND*%
%TO.C,U1*%
X160000000Y-58700000D03*
X160000000Y-60200000D03*
X160750000Y-57950000D03*
X160750000Y-59450000D03*
X160750000Y-60950000D03*
X161500000Y-58700000D03*
X161500000Y-60200000D03*
X162250000Y-57950000D03*
X162250000Y-59450000D03*
X162250000Y-60950000D03*
X163000000Y-58700000D03*
X163000000Y-60200000D03*
%TD*%
D17*
%TO.N,+3V0*%
%TO.C,BT1*%
X118142546Y-72400000D03*
D18*
%TO.N,GND*%
X138942546Y-72400000D03*
%TD*%
D10*
%TO.N,unconnected-(H1-Pad1)*%
%TO.C,H1*%
X117150000Y-50610000D03*
%TD*%
D19*
%TO.N,GND*%
%TO.C,J1*%
X147830000Y-52580000D03*
X139190000Y-52580000D03*
D20*
X147830000Y-48400000D03*
X139190000Y-48400000D03*
%TD*%
D21*
%TO.N,unconnected-(J5-Pad1)*%
%TO.C,J5*%
X137006000Y-121460000D03*
D22*
%TO.N,unconnected-(J5-Pad2)*%
X135990000Y-119680000D03*
%TO.N,GND_CAN2*%
X134974000Y-121460000D03*
%TO.N,unconnected-(J5-Pad4)*%
X133958000Y-119680000D03*
%TO.N,unconnected-(J5-Pad5)*%
X132942000Y-121460000D03*
%TO.N,unconnected-(J5-Pad6)*%
X131926000Y-119680000D03*
%TO.N,/Project Architecture/Section B - Title B/CAN2_H*%
X130910000Y-121460000D03*
%TO.N,/Project Architecture/Section B - Title B/CAN2_L*%
X129894000Y-119680000D03*
D23*
%TO.N,GND_CAN2*%
X125320000Y-120570000D03*
X141580000Y-120570000D03*
%TD*%
D12*
%TO.N,/Project Architecture/Section B - Title B/CAN1_H*%
%TO.C,J2*%
X155700000Y-120200000D03*
D13*
%TO.N,/Project Architecture/Section B - Title B/CAN1_L*%
X158200000Y-120200000D03*
%TO.N,GND_CAN1*%
X160700000Y-120200000D03*
%TO.N,+5V_CAN1*%
X163200000Y-120200000D03*
%TD*%
D24*
%TO.N,+5V*%
%TO.C,J3*%
X187000000Y-71150000D03*
%TO.N,GND*%
X187000000Y-68650000D03*
%TO.N,/Project Architecture/Section A - Title A/GPIO_A1*%
X187000000Y-66150000D03*
%TO.N,/Project Architecture/Section A - Title A/GPIO_A2*%
X187000000Y-63650000D03*
%TO.N,/Project Architecture/Section A - Title A/GPIO_A3*%
X187000000Y-61150000D03*
%TO.N,/Project Architecture/Section A - Title A/GPIO_A4*%
X187000000Y-58650000D03*
%TD*%
D10*
%TO.N,unconnected-(H4-Pad1)*%
%TO.C,H4*%
X189150000Y-122610000D03*
%TD*%
%TO.N,unconnected-(H2-Pad1)*%
%TO.C,H2*%
X189150000Y-50610000D03*
%TD*%
D24*
%TO.N,+5V*%
%TO.C,J7*%
X187000000Y-90350000D03*
%TO.N,GND*%
X187000000Y-87850000D03*
%TO.N,/Project Architecture/Section A - Title A/GPIO_B1*%
X187000000Y-85350000D03*
%TO.N,/Project Architecture/Section A - Title A/GPIO_B2*%
X187000000Y-82850000D03*
%TO.N,/Project Architecture/Section A - Title A/GPIO_B3*%
X187000000Y-80350000D03*
%TO.N,/Project Architecture/Section A - Title A/GPIO_B4*%
X187000000Y-77850000D03*
%TD*%
D14*
%TO.N,GND*%
%TO.C,PS2*%
X141200000Y-98660000D03*
D15*
%TO.N,+5V*%
X141200000Y-101200000D03*
%TO.N,GND_CAN2*%
X141200000Y-103740000D03*
%TO.N,+5V_CAN2*%
X141200000Y-106280000D03*
%TD*%
D25*
%TO.N,GND*%
X145900000Y-86900000D03*
X124500000Y-52525000D03*
X175900000Y-100700000D03*
X154000000Y-91700000D03*
X173075000Y-86300000D03*
X179150000Y-51200000D03*
X146671015Y-88828985D03*
X124500000Y-49625000D03*
X156250000Y-96410000D03*
X121555000Y-85625000D03*
X168775000Y-92700000D03*
X136900000Y-96200000D03*
X116245000Y-94325000D03*
X131650000Y-49750000D03*
X155310000Y-54100000D03*
X126500000Y-96300000D03*
X144700000Y-89100000D03*
X124600000Y-55325000D03*
X151900000Y-92200000D03*
X182950000Y-50262500D03*
X166000000Y-95400000D03*
X150110000Y-53100000D03*
X170410000Y-54100000D03*
X131650000Y-52550000D03*
X168775000Y-85800000D03*
X171475000Y-85300000D03*
X131600000Y-55350000D03*
X135250000Y-51150000D03*
X138880000Y-55350000D03*
X150200000Y-79500000D03*
X114955000Y-95325000D03*
X147630000Y-55400000D03*
X156250000Y-99710000D03*
X126500000Y-99600000D03*
X172810000Y-54100000D03*
X128000000Y-51125000D03*
X151910000Y-53100000D03*
X138700000Y-97700000D03*
X167075000Y-85800000D03*
%TO.N,+3V3*%
X133350000Y-98010000D03*
X124055000Y-96525000D03*
X178975000Y-88600000D03*
X118785000Y-86525000D03*
X150010000Y-56500000D03*
X165975000Y-88600000D03*
X151710000Y-56500000D03*
X131650000Y-58600000D03*
X177275000Y-90700000D03*
X124055000Y-94925000D03*
X155210000Y-55400000D03*
X136950000Y-98010000D03*
X177275000Y-86600000D03*
X154200000Y-80500000D03*
X118857500Y-84725000D03*
X166900000Y-98100000D03*
X163900000Y-96400000D03*
X169775000Y-88562500D03*
X124600000Y-58625000D03*
%TO.N,/Project Architecture/Section A - Title A/ESP32_EN*%
X155550000Y-56650000D03*
X127250000Y-56375000D03*
%TO.N,/Project Architecture/Section A - Title A/ESP32_BOOT*%
X134350000Y-57850000D03*
X170150000Y-70600000D03*
%TO.N,+5V*%
X182350000Y-54150000D03*
%TO.N,+5V_CAN1*%
X163850000Y-110410000D03*
X176000000Y-104400000D03*
X163850000Y-105310000D03*
%TO.N,+5V_CAN2*%
X134050000Y-110210000D03*
X138000000Y-105500000D03*
X134050000Y-105510000D03*
%TO.N,/Project Architecture/Section A - Title A/CAN2_INT*%
X168575000Y-73575000D03*
X154800000Y-85600000D03*
%TO.N,/Project Architecture/Section A - Title A/CAN2_MISO*%
X154800000Y-83000000D03*
X163500000Y-76100000D03*
%TO.N,/Project Architecture/Section A - Title A/CAN2_RST*%
X154800000Y-81600000D03*
X164700000Y-73600000D03*
%TO.N,/Project Architecture/Section A - Title A/CAN1_TX*%
X158800000Y-96200000D03*
X162500000Y-82800000D03*
%TO.N,GND_CAN1*%
X184450000Y-116810000D03*
X156250000Y-108810000D03*
X162050000Y-110410000D03*
X175900000Y-106200000D03*
%TO.N,GND_CAN2*%
X143750000Y-116610000D03*
X126450000Y-108510000D03*
X138000000Y-103700000D03*
X132350000Y-110210000D03*
%TO.N,+3V0*%
X117500000Y-91250000D03*
%TO.N,/Project Architecture/Section D - RTC/I2C_SDA*%
X152900000Y-68100000D03*
X151500000Y-72200000D03*
%TO.N,/Project Architecture/Section A - Title A/GPIO_B3*%
X167100000Y-66850000D03*
%TO.N,/Project Architecture/Section A - Title A/GPIO_B1*%
X167100000Y-69250000D03*
%TO.N,/Project Architecture/Section A - Title A/GPIO_B2*%
X167100000Y-68050000D03*
%TO.N,/Project Architecture/Section A - Title A/GPIO_B4*%
X167100000Y-65600000D03*
%TD*%
%TA.AperFunction,Conductor*%
%TO.N,+5V_CAN2*%
G36*
X140877482Y-102629685D02*
G01*
X140923237Y-102682489D01*
X140933181Y-102751647D01*
X140904156Y-102815203D01*
X140857895Y-102848561D01*
X140747881Y-102894129D01*
X140747868Y-102894136D01*
X140591542Y-102998591D01*
X140591538Y-102998594D01*
X140458594Y-103131538D01*
X140458591Y-103131542D01*
X140354136Y-103287868D01*
X140354129Y-103287881D01*
X140282182Y-103461578D01*
X140282179Y-103461590D01*
X140245500Y-103645985D01*
X140245500Y-103834014D01*
X140282179Y-104018409D01*
X140282182Y-104018421D01*
X140354129Y-104192118D01*
X140354136Y-104192131D01*
X140458591Y-104348457D01*
X140458594Y-104348461D01*
X140591538Y-104481405D01*
X140591542Y-104481408D01*
X140747868Y-104585863D01*
X140747881Y-104585870D01*
X140921578Y-104657817D01*
X140921583Y-104657819D01*
X141105985Y-104694499D01*
X141105988Y-104694500D01*
X141105990Y-104694500D01*
X141294012Y-104694500D01*
X141294013Y-104694499D01*
X141478417Y-104657819D01*
X141652125Y-104585867D01*
X141808458Y-104481408D01*
X141941408Y-104348458D01*
X142045867Y-104192125D01*
X142117819Y-104018417D01*
X142154500Y-103834010D01*
X142154500Y-103645990D01*
X142154500Y-103645987D01*
X142154499Y-103645985D01*
X142152791Y-103637399D01*
X142117819Y-103461583D01*
X142095639Y-103408036D01*
X142045870Y-103287881D01*
X142045863Y-103287868D01*
X141941408Y-103131542D01*
X141941405Y-103131538D01*
X141808461Y-102998594D01*
X141808457Y-102998591D01*
X141652131Y-102894136D01*
X141652118Y-102894129D01*
X141542105Y-102848561D01*
X141487701Y-102804720D01*
X141465636Y-102738426D01*
X141482915Y-102670727D01*
X141534052Y-102623116D01*
X141589557Y-102610000D01*
X149026000Y-102610000D01*
X149093039Y-102629685D01*
X149138794Y-102682489D01*
X149150000Y-102734000D01*
X149150000Y-126235500D01*
X149130315Y-126302539D01*
X149077511Y-126348294D01*
X149026000Y-126359500D01*
X117153051Y-126359500D01*
X117146968Y-126359351D01*
X117124856Y-126358264D01*
X116788567Y-126341743D01*
X116776457Y-126340550D01*
X116424532Y-126288347D01*
X116412597Y-126285973D01*
X116067481Y-126199526D01*
X116055837Y-126195994D01*
X115720858Y-126076136D01*
X115709629Y-126071485D01*
X115387999Y-125919366D01*
X115377272Y-125913631D01*
X115072118Y-125730729D01*
X115062000Y-125723969D01*
X114776230Y-125512028D01*
X114766824Y-125504308D01*
X114636809Y-125386469D01*
X114503209Y-125265381D01*
X114494618Y-125256790D01*
X114255691Y-124993175D01*
X114247971Y-124983769D01*
X114036030Y-124697999D01*
X114029270Y-124687881D01*
X113984102Y-124612523D01*
X113846363Y-124382720D01*
X113840639Y-124372012D01*
X113688511Y-124050363D01*
X113683867Y-124039151D01*
X113564000Y-123704147D01*
X113560473Y-123692518D01*
X113549319Y-123647989D01*
X113474023Y-123347389D01*
X113471652Y-123335467D01*
X113451847Y-123201954D01*
X113419448Y-122983541D01*
X113418256Y-122971431D01*
X113400649Y-122613032D01*
X113400500Y-122606948D01*
X113400500Y-122441491D01*
X114149500Y-122441491D01*
X114149500Y-122778508D01*
X114187231Y-123113381D01*
X114187233Y-123113397D01*
X114262223Y-123441953D01*
X114262227Y-123441965D01*
X114373532Y-123760054D01*
X114519752Y-124063683D01*
X114519754Y-124063686D01*
X114699054Y-124349039D01*
X114909175Y-124612523D01*
X115147477Y-124850825D01*
X115410961Y-125060946D01*
X115696314Y-125240246D01*
X115999949Y-125386469D01*
X116238848Y-125470063D01*
X116318034Y-125497772D01*
X116318046Y-125497776D01*
X116646606Y-125572767D01*
X116981492Y-125610499D01*
X116981493Y-125610500D01*
X116981496Y-125610500D01*
X117318507Y-125610500D01*
X117318507Y-125610499D01*
X117653394Y-125572767D01*
X117981954Y-125497776D01*
X118300051Y-125386469D01*
X118603686Y-125240246D01*
X118889039Y-125060946D01*
X119152523Y-124850825D01*
X119390825Y-124612523D01*
X119600946Y-124349039D01*
X119780246Y-124063686D01*
X119867744Y-123881995D01*
X125299500Y-123881995D01*
X125299500Y-124118004D01*
X125299501Y-124118020D01*
X125330306Y-124352010D01*
X125391394Y-124579993D01*
X125481714Y-124798045D01*
X125481719Y-124798056D01*
X125512186Y-124850825D01*
X125599727Y-125002450D01*
X125599729Y-125002453D01*
X125599730Y-125002454D01*
X125743406Y-125189697D01*
X125743412Y-125189704D01*
X125910295Y-125356587D01*
X125910302Y-125356593D01*
X126020306Y-125441001D01*
X126097550Y-125500273D01*
X126223112Y-125572766D01*
X126301943Y-125618280D01*
X126301948Y-125618282D01*
X126301951Y-125618284D01*
X126520007Y-125708606D01*
X126747986Y-125769693D01*
X126981989Y-125800500D01*
X126981996Y-125800500D01*
X127218004Y-125800500D01*
X127218011Y-125800500D01*
X127452014Y-125769693D01*
X127679993Y-125708606D01*
X127898049Y-125618284D01*
X128102450Y-125500273D01*
X128289699Y-125356592D01*
X128456592Y-125189699D01*
X128600273Y-125002450D01*
X128718284Y-124798049D01*
X128808606Y-124579993D01*
X128869693Y-124352014D01*
X128900500Y-124118011D01*
X128900500Y-123881995D01*
X137999500Y-123881995D01*
X137999500Y-124118004D01*
X137999501Y-124118020D01*
X138030306Y-124352010D01*
X138091394Y-124579993D01*
X138181714Y-124798045D01*
X138181719Y-124798056D01*
X138212186Y-124850825D01*
X138299727Y-125002450D01*
X138299729Y-125002453D01*
X138299730Y-125002454D01*
X138443406Y-125189697D01*
X138443412Y-125189704D01*
X138610295Y-125356587D01*
X138610302Y-125356593D01*
X138720306Y-125441001D01*
X138797550Y-125500273D01*
X138923112Y-125572766D01*
X139001943Y-125618280D01*
X139001948Y-125618282D01*
X139001951Y-125618284D01*
X139220007Y-125708606D01*
X139447986Y-125769693D01*
X139681989Y-125800500D01*
X139681996Y-125800500D01*
X139918004Y-125800500D01*
X139918011Y-125800500D01*
X140152014Y-125769693D01*
X140379993Y-125708606D01*
X140598049Y-125618284D01*
X140802450Y-125500273D01*
X140989699Y-125356592D01*
X141156592Y-125189699D01*
X141300273Y-125002450D01*
X141418284Y-124798049D01*
X141508606Y-124579993D01*
X141569693Y-124352014D01*
X141600500Y-124118011D01*
X141600500Y-123881989D01*
X141569693Y-123647986D01*
X141508606Y-123420007D01*
X141418284Y-123201951D01*
X141418282Y-123201948D01*
X141418280Y-123201943D01*
X141367157Y-123113397D01*
X141300273Y-122997550D01*
X141156592Y-122810301D01*
X141156587Y-122810295D01*
X140989704Y-122643412D01*
X140989697Y-122643406D01*
X140802454Y-122499730D01*
X140802453Y-122499729D01*
X140802450Y-122499727D01*
X140701586Y-122441493D01*
X140598056Y-122381719D01*
X140598045Y-122381714D01*
X140379993Y-122291394D01*
X140334772Y-122279277D01*
X140152014Y-122230307D01*
X140152013Y-122230306D01*
X140152010Y-122230306D01*
X139918020Y-122199501D01*
X139918017Y-122199500D01*
X139918011Y-122199500D01*
X139681989Y-122199500D01*
X139681983Y-122199500D01*
X139681979Y-122199501D01*
X139447989Y-122230306D01*
X139220006Y-122291394D01*
X139001954Y-122381714D01*
X139001943Y-122381719D01*
X138797545Y-122499730D01*
X138610302Y-122643406D01*
X138610295Y-122643412D01*
X138443412Y-122810295D01*
X138443406Y-122810302D01*
X138299730Y-122997545D01*
X138181719Y-123201943D01*
X138181714Y-123201954D01*
X138091394Y-123420006D01*
X138030306Y-123647989D01*
X137999501Y-123881979D01*
X137999500Y-123881995D01*
X128900500Y-123881995D01*
X128900500Y-123881989D01*
X128869693Y-123647986D01*
X128808606Y-123420007D01*
X128718284Y-123201951D01*
X128718282Y-123201948D01*
X128718280Y-123201943D01*
X128667157Y-123113397D01*
X128600273Y-122997550D01*
X128456592Y-122810301D01*
X128456587Y-122810295D01*
X128289704Y-122643412D01*
X128289697Y-122643406D01*
X128102454Y-122499730D01*
X128102453Y-122499729D01*
X128102450Y-122499727D01*
X128001586Y-122441493D01*
X127898056Y-122381719D01*
X127898045Y-122381714D01*
X127679993Y-122291394D01*
X127634772Y-122279277D01*
X127452014Y-122230307D01*
X127452013Y-122230306D01*
X127452010Y-122230306D01*
X127218020Y-122199501D01*
X127218017Y-122199500D01*
X127218011Y-122199500D01*
X126981989Y-122199500D01*
X126981983Y-122199500D01*
X126981979Y-122199501D01*
X126747989Y-122230306D01*
X126520006Y-122291394D01*
X126301954Y-122381714D01*
X126301943Y-122381719D01*
X126097545Y-122499730D01*
X125910302Y-122643406D01*
X125910295Y-122643412D01*
X125743412Y-122810295D01*
X125743406Y-122810302D01*
X125599730Y-122997545D01*
X125481719Y-123201943D01*
X125481714Y-123201954D01*
X125391394Y-123420006D01*
X125330306Y-123647989D01*
X125299501Y-123881979D01*
X125299500Y-123881995D01*
X119867744Y-123881995D01*
X119926469Y-123760051D01*
X120037776Y-123441954D01*
X120112767Y-123113394D01*
X120150500Y-122778504D01*
X120150500Y-122441496D01*
X120112767Y-122106606D01*
X120037776Y-121778046D01*
X120037770Y-121778030D01*
X119977568Y-121605981D01*
X119926469Y-121459949D01*
X119854392Y-121310279D01*
X119780247Y-121156315D01*
X119695904Y-121022085D01*
X119600946Y-120870961D01*
X119390825Y-120607477D01*
X119241940Y-120458592D01*
X123904500Y-120458592D01*
X123904500Y-120681407D01*
X123934523Y-120870962D01*
X123939354Y-120901464D01*
X124008205Y-121113363D01*
X124109356Y-121311884D01*
X124240317Y-121492136D01*
X124397864Y-121649683D01*
X124578116Y-121780644D01*
X124776637Y-121881795D01*
X124988536Y-121950646D01*
X125071059Y-121963716D01*
X125208593Y-121985500D01*
X125208598Y-121985500D01*
X125431407Y-121985500D01*
X125553658Y-121966136D01*
X125651464Y-121950646D01*
X125863363Y-121881795D01*
X126061884Y-121780644D01*
X126242136Y-121649683D01*
X126399683Y-121492136D01*
X126530644Y-121311884D01*
X126631795Y-121113363D01*
X126700646Y-120901464D01*
X126716136Y-120803658D01*
X126735500Y-120681407D01*
X126735500Y-120458592D01*
X126705524Y-120269334D01*
X126700646Y-120238536D01*
X126631795Y-120026637D01*
X126530644Y-119828116D01*
X126405403Y-119655737D01*
X126405403Y-119655736D01*
X126399687Y-119647870D01*
X126399683Y-119647864D01*
X126340759Y-119588940D01*
X128969500Y-119588940D01*
X128969500Y-119771059D01*
X129005026Y-119949659D01*
X129005028Y-119949667D01*
X129074717Y-120117912D01*
X129074722Y-120117921D01*
X129175893Y-120269333D01*
X129175896Y-120269337D01*
X129304662Y-120398103D01*
X129304666Y-120398106D01*
X129456078Y-120499277D01*
X129456084Y-120499280D01*
X129456085Y-120499281D01*
X129624333Y-120568972D01*
X129747966Y-120593564D01*
X129802940Y-120604499D01*
X129802944Y-120604500D01*
X129802945Y-120604500D01*
X129985056Y-120604500D01*
X129985057Y-120604499D01*
X130060154Y-120589562D01*
X130169642Y-120567784D01*
X130169876Y-120568960D01*
X130233382Y-120568388D01*
X130292498Y-120605631D01*
X130322095Y-120668922D01*
X130312775Y-120738167D01*
X130287203Y-120775356D01*
X130191893Y-120870666D01*
X130090722Y-121022078D01*
X130090717Y-121022087D01*
X130021028Y-121190332D01*
X130021026Y-121190340D01*
X129985500Y-121368940D01*
X129985500Y-121551059D01*
X130021026Y-121729659D01*
X130021028Y-121729667D01*
X130090717Y-121897912D01*
X130090722Y-121897921D01*
X130191893Y-122049333D01*
X130191896Y-122049337D01*
X130320662Y-122178103D01*
X130320666Y-122178106D01*
X130472078Y-122279277D01*
X130472084Y-122279280D01*
X130472085Y-122279281D01*
X130640333Y-122348972D01*
X130760462Y-122372867D01*
X130818940Y-122384499D01*
X130818944Y-122384500D01*
X130818945Y-122384500D01*
X131001056Y-122384500D01*
X131001057Y-122384499D01*
X131179667Y-122348972D01*
X131347915Y-122279281D01*
X131499334Y-122178106D01*
X131628106Y-122049334D01*
X131729281Y-121897915D01*
X131798972Y-121729667D01*
X131804383Y-121702466D01*
X131836767Y-121640555D01*
X131897483Y-121605981D01*
X131967253Y-121609720D01*
X132023925Y-121650586D01*
X132047617Y-121702466D01*
X132053026Y-121729659D01*
X132053028Y-121729667D01*
X132122717Y-121897912D01*
X132122722Y-121897921D01*
X132223893Y-122049333D01*
X132223896Y-122049337D01*
X132352662Y-122178103D01*
X132352666Y-122178106D01*
X132504078Y-122279277D01*
X132504084Y-122279280D01*
X132504085Y-122279281D01*
X132672333Y-122348972D01*
X132792462Y-122372867D01*
X132850940Y-122384499D01*
X132850944Y-122384500D01*
X132850945Y-122384500D01*
X133033056Y-122384500D01*
X133033057Y-122384499D01*
X133211667Y-122348972D01*
X133379915Y-122279281D01*
X133531334Y-122178106D01*
X133660106Y-122049334D01*
X133761281Y-121897915D01*
X133830972Y-121729667D01*
X133836383Y-121702466D01*
X133868767Y-121640555D01*
X133929483Y-121605981D01*
X133999253Y-121609720D01*
X134055925Y-121650586D01*
X134079617Y-121702466D01*
X134085026Y-121729659D01*
X134085028Y-121729667D01*
X134154717Y-121897912D01*
X134154722Y-121897921D01*
X134255893Y-122049333D01*
X134255896Y-122049337D01*
X134384662Y-122178103D01*
X134384666Y-122178106D01*
X134536078Y-122279277D01*
X134536084Y-122279280D01*
X134536085Y-122279281D01*
X134704333Y-122348972D01*
X134824462Y-122372867D01*
X134882940Y-122384499D01*
X134882944Y-122384500D01*
X134882945Y-122384500D01*
X135065056Y-122384500D01*
X135065057Y-122384499D01*
X135243667Y-122348972D01*
X135411915Y-122279281D01*
X135563334Y-122178106D01*
X135692106Y-122049334D01*
X135793281Y-121897915D01*
X135842939Y-121778029D01*
X135886780Y-121723627D01*
X135953074Y-121701562D01*
X136020773Y-121718841D01*
X136068384Y-121769978D01*
X136081500Y-121825483D01*
X136081500Y-122203752D01*
X136093131Y-122262229D01*
X136093132Y-122262230D01*
X136137447Y-122328552D01*
X136203769Y-122372867D01*
X136203770Y-122372868D01*
X136262247Y-122384499D01*
X136262250Y-122384500D01*
X136262252Y-122384500D01*
X137749750Y-122384500D01*
X137749751Y-122384499D01*
X137764568Y-122381552D01*
X137808229Y-122372868D01*
X137808229Y-122372867D01*
X137808231Y-122372867D01*
X137874552Y-122328552D01*
X137918867Y-122262231D01*
X137918867Y-122262229D01*
X137918868Y-122262229D01*
X137930499Y-122203752D01*
X137930500Y-122203750D01*
X137930500Y-120716249D01*
X137930499Y-120716247D01*
X137918868Y-120657770D01*
X137918867Y-120657769D01*
X137874552Y-120591447D01*
X137822741Y-120556828D01*
X137808230Y-120547132D01*
X137808229Y-120547131D01*
X137749752Y-120535500D01*
X137749748Y-120535500D01*
X136741303Y-120535500D01*
X136674264Y-120515815D01*
X136628509Y-120463011D01*
X136627874Y-120458592D01*
X140164500Y-120458592D01*
X140164500Y-120681407D01*
X140194523Y-120870962D01*
X140199354Y-120901464D01*
X140268205Y-121113363D01*
X140369356Y-121311884D01*
X140500317Y-121492136D01*
X140657864Y-121649683D01*
X140838116Y-121780644D01*
X141036637Y-121881795D01*
X141248536Y-121950646D01*
X141331059Y-121963716D01*
X141468593Y-121985500D01*
X141468598Y-121985500D01*
X141691407Y-121985500D01*
X141813658Y-121966136D01*
X141911464Y-121950646D01*
X142123363Y-121881795D01*
X142321884Y-121780644D01*
X142502136Y-121649683D01*
X142659683Y-121492136D01*
X142790644Y-121311884D01*
X142891795Y-121113363D01*
X142960646Y-120901464D01*
X142976136Y-120803658D01*
X142995500Y-120681407D01*
X142995500Y-120458592D01*
X142965524Y-120269334D01*
X142960646Y-120238536D01*
X142891795Y-120026637D01*
X142790644Y-119828116D01*
X142659683Y-119647864D01*
X142502136Y-119490317D01*
X142321884Y-119359356D01*
X142123363Y-119258205D01*
X141911464Y-119189354D01*
X141911462Y-119189353D01*
X141911460Y-119189353D01*
X141691407Y-119154500D01*
X141691402Y-119154500D01*
X141468598Y-119154500D01*
X141468593Y-119154500D01*
X141248539Y-119189353D01*
X141248536Y-119189354D01*
X141086243Y-119242087D01*
X141036634Y-119258206D01*
X140838115Y-119359356D01*
X140735275Y-119434074D01*
X140657864Y-119490317D01*
X140657862Y-119490319D01*
X140657861Y-119490319D01*
X140500319Y-119647861D01*
X140500319Y-119647862D01*
X140500317Y-119647864D01*
X140446292Y-119722223D01*
X140369356Y-119828115D01*
X140268206Y-120026634D01*
X140199353Y-120238539D01*
X140164500Y-120458592D01*
X136627874Y-120458592D01*
X136618565Y-120393853D01*
X136647590Y-120330297D01*
X136653622Y-120323819D01*
X136708103Y-120269337D01*
X136708106Y-120269334D01*
X136809281Y-120117915D01*
X136878972Y-119949667D01*
X136914500Y-119771055D01*
X136914500Y-119588945D01*
X136878972Y-119410333D01*
X136809281Y-119242085D01*
X136809280Y-119242084D01*
X136809277Y-119242078D01*
X136708106Y-119090666D01*
X136708103Y-119090662D01*
X136579337Y-118961896D01*
X136579333Y-118961893D01*
X136427921Y-118860722D01*
X136427912Y-118860717D01*
X136259667Y-118791028D01*
X136259659Y-118791026D01*
X136081059Y-118755500D01*
X136081055Y-118755500D01*
X135898945Y-118755500D01*
X135898940Y-118755500D01*
X135720340Y-118791026D01*
X135720332Y-118791028D01*
X135552087Y-118860717D01*
X135552078Y-118860722D01*
X135400666Y-118961893D01*
X135400662Y-118961896D01*
X135271896Y-119090662D01*
X135271893Y-119090666D01*
X135170722Y-119242078D01*
X135170717Y-119242087D01*
X135101028Y-119410332D01*
X135101026Y-119410340D01*
X135095617Y-119437533D01*
X135063232Y-119499444D01*
X135002516Y-119534019D01*
X134932747Y-119530279D01*
X134876075Y-119489412D01*
X134852383Y-119437533D01*
X134846973Y-119410340D01*
X134846972Y-119410333D01*
X134777281Y-119242085D01*
X134777280Y-119242084D01*
X134777277Y-119242078D01*
X134676106Y-119090666D01*
X134676103Y-119090662D01*
X134547337Y-118961896D01*
X134547333Y-118961893D01*
X134395921Y-118860722D01*
X134395912Y-118860717D01*
X134227667Y-118791028D01*
X134227659Y-118791026D01*
X134049059Y-118755500D01*
X134049055Y-118755500D01*
X133866945Y-118755500D01*
X133866940Y-118755500D01*
X133688340Y-118791026D01*
X133688332Y-118791028D01*
X133520087Y-118860717D01*
X133520078Y-118860722D01*
X133368666Y-118961893D01*
X133368662Y-118961896D01*
X133239896Y-119090662D01*
X133239893Y-119090666D01*
X133138722Y-119242078D01*
X133138717Y-119242087D01*
X133069028Y-119410332D01*
X133069026Y-119410340D01*
X133063617Y-119437533D01*
X133031232Y-119499444D01*
X132970516Y-119534019D01*
X132900747Y-119530279D01*
X132844075Y-119489412D01*
X132820383Y-119437533D01*
X132814973Y-119410340D01*
X132814972Y-119410333D01*
X132745281Y-119242085D01*
X132745280Y-119242084D01*
X132745277Y-119242078D01*
X132644106Y-119090666D01*
X132644103Y-119090662D01*
X132515337Y-118961896D01*
X132515333Y-118961893D01*
X132363921Y-118860722D01*
X132363912Y-118860717D01*
X132195667Y-118791028D01*
X132195659Y-118791026D01*
X132017059Y-118755500D01*
X132017055Y-118755500D01*
X131834945Y-118755500D01*
X131834940Y-118755500D01*
X131656340Y-118791026D01*
X131656332Y-118791028D01*
X131488087Y-118860717D01*
X131488078Y-118860722D01*
X131336666Y-118961893D01*
X131336662Y-118961896D01*
X131207896Y-119090662D01*
X131207893Y-119090666D01*
X131106722Y-119242078D01*
X131106717Y-119242087D01*
X131037028Y-119410332D01*
X131037026Y-119410340D01*
X131031617Y-119437533D01*
X130999232Y-119499444D01*
X130938516Y-119534019D01*
X130868747Y-119530279D01*
X130812075Y-119489412D01*
X130788383Y-119437533D01*
X130782973Y-119410340D01*
X130782972Y-119410333D01*
X130713281Y-119242085D01*
X130713280Y-119242084D01*
X130713277Y-119242078D01*
X130612106Y-119090666D01*
X130612103Y-119090662D01*
X130483337Y-118961896D01*
X130483333Y-118961893D01*
X130331921Y-118860722D01*
X130331912Y-118860717D01*
X130163667Y-118791028D01*
X130163659Y-118791026D01*
X129985059Y-118755500D01*
X129985055Y-118755500D01*
X129802945Y-118755500D01*
X129802940Y-118755500D01*
X129624340Y-118791026D01*
X129624332Y-118791028D01*
X129456087Y-118860717D01*
X129456078Y-118860722D01*
X129304666Y-118961893D01*
X129304662Y-118961896D01*
X129175896Y-119090662D01*
X129175893Y-119090666D01*
X129074722Y-119242078D01*
X129074717Y-119242087D01*
X129005028Y-119410332D01*
X129005026Y-119410340D01*
X128969500Y-119588940D01*
X126340759Y-119588940D01*
X126242136Y-119490317D01*
X126061884Y-119359356D01*
X125863363Y-119258205D01*
X125651464Y-119189354D01*
X125651462Y-119189353D01*
X125651460Y-119189353D01*
X125431407Y-119154500D01*
X125431402Y-119154500D01*
X125208598Y-119154500D01*
X125208593Y-119154500D01*
X124988539Y-119189353D01*
X124988536Y-119189354D01*
X124826243Y-119242087D01*
X124776634Y-119258206D01*
X124578115Y-119359356D01*
X124475275Y-119434074D01*
X124397864Y-119490317D01*
X124397862Y-119490319D01*
X124397861Y-119490319D01*
X124240319Y-119647861D01*
X124240319Y-119647862D01*
X124240317Y-119647864D01*
X124186292Y-119722223D01*
X124109356Y-119828115D01*
X124008206Y-120026634D01*
X123939353Y-120238539D01*
X123904500Y-120458592D01*
X119241940Y-120458592D01*
X119152523Y-120369175D01*
X118889039Y-120159054D01*
X118603686Y-119979754D01*
X118603683Y-119979752D01*
X118300054Y-119833532D01*
X117981965Y-119722227D01*
X117981953Y-119722223D01*
X117653397Y-119647233D01*
X117653381Y-119647231D01*
X117318508Y-119609500D01*
X117318504Y-119609500D01*
X116981496Y-119609500D01*
X116981491Y-119609500D01*
X116646618Y-119647231D01*
X116646602Y-119647233D01*
X116318046Y-119722223D01*
X116318034Y-119722227D01*
X115999945Y-119833532D01*
X115696316Y-119979752D01*
X115410962Y-120159053D01*
X115147477Y-120369174D01*
X114909174Y-120607477D01*
X114699053Y-120870962D01*
X114519753Y-121156315D01*
X114373532Y-121459945D01*
X114262227Y-121778034D01*
X114262223Y-121778046D01*
X114187233Y-122106602D01*
X114187231Y-122106618D01*
X114149500Y-122441491D01*
X113400500Y-122441491D01*
X113400500Y-116547399D01*
X143274500Y-116547399D01*
X143274500Y-116672601D01*
X143306905Y-116793536D01*
X143369505Y-116901964D01*
X143458036Y-116990495D01*
X143566464Y-117053095D01*
X143687399Y-117085500D01*
X143687401Y-117085500D01*
X143812599Y-117085500D01*
X143812601Y-117085500D01*
X143933536Y-117053095D01*
X144041964Y-116990495D01*
X144130495Y-116901964D01*
X144193095Y-116793536D01*
X144225500Y-116672601D01*
X144225500Y-116547399D01*
X144193095Y-116426464D01*
X144130495Y-116318036D01*
X144041964Y-116229505D01*
X143933536Y-116166905D01*
X143933537Y-116166905D01*
X143893224Y-116156103D01*
X143812601Y-116134500D01*
X143687399Y-116134500D01*
X143606775Y-116156103D01*
X143566463Y-116166905D01*
X143458037Y-116229504D01*
X143458034Y-116229506D01*
X143369506Y-116318034D01*
X143369504Y-116318037D01*
X143306905Y-116426463D01*
X143306905Y-116426464D01*
X143274500Y-116547399D01*
X113400500Y-116547399D01*
X113400500Y-110147399D01*
X131874500Y-110147399D01*
X131874500Y-110272601D01*
X131906905Y-110393536D01*
X131969505Y-110501964D01*
X132058036Y-110590495D01*
X132166464Y-110653095D01*
X132287399Y-110685500D01*
X132287401Y-110685500D01*
X132412599Y-110685500D01*
X132412601Y-110685500D01*
X132533536Y-110653095D01*
X132641964Y-110590495D01*
X132730495Y-110501964D01*
X132793095Y-110393536D01*
X132825500Y-110272601D01*
X132825500Y-110147399D01*
X132793095Y-110026464D01*
X132730495Y-109918036D01*
X132641964Y-109829505D01*
X132533536Y-109766905D01*
X132533537Y-109766905D01*
X132493224Y-109756103D01*
X132412601Y-109734500D01*
X132287399Y-109734500D01*
X132206775Y-109756103D01*
X132166463Y-109766905D01*
X132058037Y-109829504D01*
X132058034Y-109829506D01*
X131969506Y-109918034D01*
X131969504Y-109918037D01*
X131906905Y-110026463D01*
X131906905Y-110026464D01*
X131874500Y-110147399D01*
X113400500Y-110147399D01*
X113400500Y-108447399D01*
X125974500Y-108447399D01*
X125974500Y-108572601D01*
X126006905Y-108693536D01*
X126069505Y-108801964D01*
X126158036Y-108890495D01*
X126266464Y-108953095D01*
X126387399Y-108985500D01*
X126387401Y-108985500D01*
X126512599Y-108985500D01*
X126512601Y-108985500D01*
X126633536Y-108953095D01*
X126741964Y-108890495D01*
X126830495Y-108801964D01*
X126893095Y-108693536D01*
X126925500Y-108572601D01*
X126925500Y-108447399D01*
X126893095Y-108326464D01*
X126830495Y-108218036D01*
X126741964Y-108129505D01*
X126633536Y-108066905D01*
X126633537Y-108066905D01*
X126593224Y-108056103D01*
X126512601Y-108034500D01*
X126387399Y-108034500D01*
X126306775Y-108056103D01*
X126266463Y-108066905D01*
X126158037Y-108129504D01*
X126158034Y-108129506D01*
X126069506Y-108218034D01*
X126069504Y-108218037D01*
X126006905Y-108326463D01*
X126006905Y-108326464D01*
X125974500Y-108447399D01*
X113400500Y-108447399D01*
X113400500Y-106181302D01*
X139946000Y-106181302D01*
X139946000Y-106378697D01*
X139976876Y-106573646D01*
X140037873Y-106761373D01*
X140127483Y-106937239D01*
X140153457Y-106972988D01*
X140153457Y-106972989D01*
X140717037Y-106409408D01*
X140734075Y-106472993D01*
X140799901Y-106587007D01*
X140892993Y-106680099D01*
X141007007Y-106745925D01*
X141070590Y-106762962D01*
X140507009Y-107326541D01*
X140507010Y-107326542D01*
X140542755Y-107352512D01*
X140542768Y-107352520D01*
X140718626Y-107442126D01*
X140906353Y-107503123D01*
X141101303Y-107534000D01*
X141298697Y-107534000D01*
X141493646Y-107503123D01*
X141681373Y-107442126D01*
X141857241Y-107352516D01*
X141892988Y-107326543D01*
X141892988Y-107326541D01*
X141329410Y-106762962D01*
X141392993Y-106745925D01*
X141507007Y-106680099D01*
X141600099Y-106587007D01*
X141665925Y-106472993D01*
X141682962Y-106409409D01*
X142246541Y-106972988D01*
X142246543Y-106972988D01*
X142272516Y-106937241D01*
X142362126Y-106761373D01*
X142423123Y-106573646D01*
X142454000Y-106378697D01*
X142454000Y-106181302D01*
X142423123Y-105986353D01*
X142362126Y-105798626D01*
X142272520Y-105622768D01*
X142272512Y-105622755D01*
X142246542Y-105587010D01*
X142246541Y-105587009D01*
X141682962Y-106150589D01*
X141665925Y-106087007D01*
X141600099Y-105972993D01*
X141507007Y-105879901D01*
X141392993Y-105814075D01*
X141329409Y-105797037D01*
X141892989Y-105233457D01*
X141857239Y-105207483D01*
X141681373Y-105117873D01*
X141493646Y-105056876D01*
X141298697Y-105026000D01*
X141101303Y-105026000D01*
X140906353Y-105056876D01*
X140718626Y-105117873D01*
X140542762Y-105207482D01*
X140542760Y-105207483D01*
X140507010Y-105233456D01*
X140507010Y-105233457D01*
X141070591Y-105797037D01*
X141007007Y-105814075D01*
X140892993Y-105879901D01*
X140799901Y-105972993D01*
X140734075Y-106087007D01*
X140717037Y-106150590D01*
X140153457Y-105587010D01*
X140153456Y-105587010D01*
X140127483Y-105622760D01*
X140127482Y-105622762D01*
X140037873Y-105798626D01*
X139976876Y-105986353D01*
X139946000Y-106181302D01*
X113400500Y-106181302D01*
X113400500Y-103637399D01*
X137524500Y-103637399D01*
X137524500Y-103762601D01*
X137556905Y-103883536D01*
X137619505Y-103991964D01*
X137708036Y-104080495D01*
X137816464Y-104143095D01*
X137937399Y-104175500D01*
X137937401Y-104175500D01*
X138062599Y-104175500D01*
X138062601Y-104175500D01*
X138183536Y-104143095D01*
X138291964Y-104080495D01*
X138380495Y-103991964D01*
X138443095Y-103883536D01*
X138475500Y-103762601D01*
X138475500Y-103637399D01*
X138443095Y-103516464D01*
X138380495Y-103408036D01*
X138291964Y-103319505D01*
X138183536Y-103256905D01*
X138183537Y-103256905D01*
X138143224Y-103246103D01*
X138062601Y-103224500D01*
X137937399Y-103224500D01*
X137856775Y-103246103D01*
X137816463Y-103256905D01*
X137708037Y-103319504D01*
X137708034Y-103319506D01*
X137619506Y-103408034D01*
X137619504Y-103408037D01*
X137556905Y-103516463D01*
X137556905Y-103516464D01*
X137524500Y-103637399D01*
X113400500Y-103637399D01*
X113400500Y-102734000D01*
X113420185Y-102666961D01*
X113472989Y-102621206D01*
X113524500Y-102610000D01*
X140810443Y-102610000D01*
X140877482Y-102629685D01*
G37*
%TD.AperFunction*%
%TD*%
%TA.AperFunction,Conductor*%
%TO.N,+5V_CAN1*%
G36*
X171849978Y-102629685D02*
G01*
X171895733Y-102682489D01*
X171905677Y-102751647D01*
X171876652Y-102815203D01*
X171857029Y-102833211D01*
X171857010Y-102833457D01*
X172420591Y-103397037D01*
X172357007Y-103414075D01*
X172242993Y-103479901D01*
X172149901Y-103572993D01*
X172084075Y-103687007D01*
X172067037Y-103750590D01*
X171503457Y-103187010D01*
X171503456Y-103187010D01*
X171477483Y-103222760D01*
X171477482Y-103222762D01*
X171387873Y-103398626D01*
X171326876Y-103586353D01*
X171296000Y-103781302D01*
X171296000Y-103978697D01*
X171326876Y-104173646D01*
X171387873Y-104361373D01*
X171477483Y-104537239D01*
X171503457Y-104572988D01*
X171503457Y-104572989D01*
X172067037Y-104009408D01*
X172084075Y-104072993D01*
X172149901Y-104187007D01*
X172242993Y-104280099D01*
X172357007Y-104345925D01*
X172420590Y-104362962D01*
X171857009Y-104926541D01*
X171857010Y-104926542D01*
X171892755Y-104952512D01*
X171892768Y-104952520D01*
X172068626Y-105042126D01*
X172256353Y-105103123D01*
X172451303Y-105134000D01*
X172648697Y-105134000D01*
X172682949Y-105128575D01*
X184300000Y-105128575D01*
X184300000Y-105351424D01*
X184329085Y-105572354D01*
X184329088Y-105572367D01*
X184386763Y-105787618D01*
X184472045Y-105993502D01*
X184472054Y-105993520D01*
X184583464Y-106186491D01*
X184583473Y-106186504D01*
X184634040Y-106252403D01*
X184634043Y-106252403D01*
X185284152Y-105602293D01*
X185291049Y-105618942D01*
X185378599Y-105749970D01*
X185490030Y-105861401D01*
X185621058Y-105948951D01*
X185637705Y-105955846D01*
X184987595Y-106605955D01*
X184987595Y-106605956D01*
X185053507Y-106656533D01*
X185246485Y-106767949D01*
X185246497Y-106767954D01*
X185452381Y-106853236D01*
X185667632Y-106910911D01*
X185667645Y-106910914D01*
X185888575Y-106940000D01*
X186111425Y-106940000D01*
X186332354Y-106910914D01*
X186332367Y-106910911D01*
X186547618Y-106853236D01*
X186753502Y-106767954D01*
X186753514Y-106767949D01*
X186946498Y-106656530D01*
X187012403Y-106605957D01*
X187012404Y-106605956D01*
X186362294Y-105955846D01*
X186378942Y-105948951D01*
X186509970Y-105861401D01*
X186621401Y-105749970D01*
X186708951Y-105618942D01*
X186715846Y-105602294D01*
X187365956Y-106252404D01*
X187365957Y-106252403D01*
X187416530Y-106186498D01*
X187527949Y-105993514D01*
X187527954Y-105993502D01*
X187613236Y-105787618D01*
X187670911Y-105572367D01*
X187670914Y-105572354D01*
X187700000Y-105351424D01*
X187700000Y-105128575D01*
X187670914Y-104907645D01*
X187670911Y-104907632D01*
X187613236Y-104692381D01*
X187527954Y-104486497D01*
X187527949Y-104486485D01*
X187416533Y-104293507D01*
X187365956Y-104227595D01*
X187365955Y-104227595D01*
X186715846Y-104877704D01*
X186708951Y-104861058D01*
X186621401Y-104730030D01*
X186509970Y-104618599D01*
X186378942Y-104531049D01*
X186362293Y-104524152D01*
X187012403Y-103874043D01*
X187012403Y-103874040D01*
X186946504Y-103823473D01*
X186946491Y-103823464D01*
X186753520Y-103712054D01*
X186753502Y-103712045D01*
X186547618Y-103626763D01*
X186332367Y-103569088D01*
X186332354Y-103569085D01*
X186111425Y-103540000D01*
X185888575Y-103540000D01*
X185667645Y-103569085D01*
X185667632Y-103569088D01*
X185452381Y-103626763D01*
X185246497Y-103712045D01*
X185246479Y-103712054D01*
X185053511Y-103823462D01*
X184987595Y-103874042D01*
X185637706Y-104524152D01*
X185621058Y-104531049D01*
X185490030Y-104618599D01*
X185378599Y-104730030D01*
X185291049Y-104861058D01*
X185284153Y-104877706D01*
X184634042Y-104227595D01*
X184583462Y-104293511D01*
X184472054Y-104486479D01*
X184472045Y-104486497D01*
X184386763Y-104692381D01*
X184329088Y-104907632D01*
X184329085Y-104907645D01*
X184300000Y-105128575D01*
X172682949Y-105128575D01*
X172843646Y-105103123D01*
X173031373Y-105042126D01*
X173086510Y-105014032D01*
X173207241Y-104952516D01*
X173242988Y-104926543D01*
X173242988Y-104926541D01*
X172679410Y-104362962D01*
X172742993Y-104345925D01*
X172857007Y-104280099D01*
X172950099Y-104187007D01*
X173015925Y-104072993D01*
X173032962Y-104009409D01*
X173596541Y-104572988D01*
X173596543Y-104572988D01*
X173622516Y-104537241D01*
X173712126Y-104361373D01*
X173773123Y-104173646D01*
X173804000Y-103978697D01*
X173804000Y-103781302D01*
X173773123Y-103586353D01*
X173712126Y-103398626D01*
X173622520Y-103222768D01*
X173622512Y-103222755D01*
X173596542Y-103187010D01*
X173596541Y-103187009D01*
X173032962Y-103750589D01*
X173015925Y-103687007D01*
X172950099Y-103572993D01*
X172857007Y-103479901D01*
X172742993Y-103414075D01*
X172679409Y-103397037D01*
X173242989Y-102833457D01*
X173242929Y-102832704D01*
X173201509Y-102778987D01*
X173195530Y-102709374D01*
X173228136Y-102647579D01*
X173288975Y-102613222D01*
X173317060Y-102610000D01*
X192775500Y-102610000D01*
X192842539Y-102629685D01*
X192888294Y-102682489D01*
X192899500Y-102734000D01*
X192899500Y-122606948D01*
X192899351Y-122613033D01*
X192881743Y-122971432D01*
X192880550Y-122983542D01*
X192828347Y-123335467D01*
X192825973Y-123347402D01*
X192739526Y-123692518D01*
X192735994Y-123704162D01*
X192616142Y-124039127D01*
X192611485Y-124050370D01*
X192459366Y-124372000D01*
X192453629Y-124382732D01*
X192270729Y-124687881D01*
X192263969Y-124697999D01*
X192052028Y-124983769D01*
X192044308Y-124993175D01*
X191805388Y-125256783D01*
X191796783Y-125265388D01*
X191533175Y-125504308D01*
X191523769Y-125512028D01*
X191237999Y-125723969D01*
X191227881Y-125730729D01*
X190922732Y-125913629D01*
X190912000Y-125919366D01*
X190590370Y-126071485D01*
X190579134Y-126076139D01*
X190455442Y-126120397D01*
X190244162Y-126195994D01*
X190232518Y-126199526D01*
X189887402Y-126285973D01*
X189875467Y-126288347D01*
X189523542Y-126340550D01*
X189511432Y-126341743D01*
X189173927Y-126358324D01*
X189153031Y-126359351D01*
X189146949Y-126359500D01*
X150274000Y-126359500D01*
X150206961Y-126339815D01*
X150161206Y-126287011D01*
X150150000Y-126235500D01*
X150150000Y-122441491D01*
X186149500Y-122441491D01*
X186149500Y-122778508D01*
X186187231Y-123113381D01*
X186187233Y-123113397D01*
X186262223Y-123441953D01*
X186262227Y-123441965D01*
X186373532Y-123760054D01*
X186519752Y-124063683D01*
X186519754Y-124063686D01*
X186699054Y-124349039D01*
X186909175Y-124612523D01*
X187147477Y-124850825D01*
X187410961Y-125060946D01*
X187696314Y-125240246D01*
X187999949Y-125386469D01*
X188238848Y-125470063D01*
X188318034Y-125497772D01*
X188318046Y-125497776D01*
X188646606Y-125572767D01*
X188981492Y-125610499D01*
X188981493Y-125610500D01*
X188981496Y-125610500D01*
X189318507Y-125610500D01*
X189318507Y-125610499D01*
X189653394Y-125572767D01*
X189981954Y-125497776D01*
X190300051Y-125386469D01*
X190603686Y-125240246D01*
X190889039Y-125060946D01*
X191152523Y-124850825D01*
X191390825Y-124612523D01*
X191600946Y-124349039D01*
X191780246Y-124063686D01*
X191926469Y-123760051D01*
X192037776Y-123441954D01*
X192112767Y-123113394D01*
X192150500Y-122778504D01*
X192150500Y-122441496D01*
X192112767Y-122106606D01*
X192037776Y-121778046D01*
X191926469Y-121459949D01*
X191780246Y-121156314D01*
X191600946Y-120870961D01*
X191390825Y-120607477D01*
X191152523Y-120369175D01*
X190889039Y-120159054D01*
X190603686Y-119979754D01*
X190603683Y-119979752D01*
X190300054Y-119833532D01*
X189981965Y-119722227D01*
X189981953Y-119722223D01*
X189653397Y-119647233D01*
X189653381Y-119647231D01*
X189318508Y-119609500D01*
X189318504Y-119609500D01*
X188981496Y-119609500D01*
X188981491Y-119609500D01*
X188646618Y-119647231D01*
X188646602Y-119647233D01*
X188318046Y-119722223D01*
X188318034Y-119722227D01*
X187999945Y-119833532D01*
X187696316Y-119979752D01*
X187410962Y-120159053D01*
X187147477Y-120369174D01*
X186909174Y-120607477D01*
X186699053Y-120870962D01*
X186519752Y-121156316D01*
X186373532Y-121459945D01*
X186262227Y-121778034D01*
X186262223Y-121778046D01*
X186187233Y-122106602D01*
X186187231Y-122106618D01*
X186149500Y-122441491D01*
X150150000Y-122441491D01*
X150150000Y-119420730D01*
X154649500Y-119420730D01*
X154649500Y-120979269D01*
X154652353Y-121009699D01*
X154652353Y-121009701D01*
X154697206Y-121137880D01*
X154697207Y-121137882D01*
X154777850Y-121247150D01*
X154887118Y-121327793D01*
X154908089Y-121335131D01*
X155015299Y-121372646D01*
X155045730Y-121375500D01*
X155045734Y-121375500D01*
X156354270Y-121375500D01*
X156384699Y-121372646D01*
X156384701Y-121372646D01*
X156448790Y-121350219D01*
X156512882Y-121327793D01*
X156622150Y-121247150D01*
X156702793Y-121137882D01*
X156739648Y-121032557D01*
X156747646Y-121009701D01*
X156747646Y-121009699D01*
X156750500Y-120979269D01*
X156750500Y-119971530D01*
X157149500Y-119971530D01*
X157149500Y-120428469D01*
X157189868Y-120631412D01*
X157189870Y-120631420D01*
X157207921Y-120675000D01*
X157269059Y-120822598D01*
X157282836Y-120843217D01*
X157384024Y-120994657D01*
X157530342Y-121140975D01*
X157530345Y-121140977D01*
X157702402Y-121255941D01*
X157893580Y-121335130D01*
X158082187Y-121372646D01*
X158096530Y-121375499D01*
X158096534Y-121375500D01*
X158096535Y-121375500D01*
X158303466Y-121375500D01*
X158303467Y-121375499D01*
X158506420Y-121335130D01*
X158697598Y-121255941D01*
X158869655Y-121140977D01*
X159015977Y-120994655D01*
X159130941Y-120822598D01*
X159210130Y-120631420D01*
X159250500Y-120428465D01*
X159250500Y-119971535D01*
X159250499Y-119971530D01*
X159649500Y-119971530D01*
X159649500Y-120428469D01*
X159689868Y-120631412D01*
X159689870Y-120631420D01*
X159707921Y-120675000D01*
X159769059Y-120822598D01*
X159782836Y-120843217D01*
X159884024Y-120994657D01*
X160030342Y-121140975D01*
X160030345Y-121140977D01*
X160202402Y-121255941D01*
X160393580Y-121335130D01*
X160582187Y-121372646D01*
X160596530Y-121375499D01*
X160596534Y-121375500D01*
X160596535Y-121375500D01*
X160803466Y-121375500D01*
X160803467Y-121375499D01*
X161006420Y-121335130D01*
X161197598Y-121255941D01*
X161369655Y-121140977D01*
X161515977Y-120994655D01*
X161630941Y-120822598D01*
X161676748Y-120712009D01*
X161720589Y-120657606D01*
X161786883Y-120635541D01*
X161854582Y-120652820D01*
X161902193Y-120703957D01*
X161909240Y-120721144D01*
X161948904Y-120843216D01*
X162045379Y-121032557D01*
X162170272Y-121204459D01*
X162170276Y-121204464D01*
X162320535Y-121354723D01*
X162320540Y-121354727D01*
X162492442Y-121479620D01*
X162681782Y-121576095D01*
X162883871Y-121641757D01*
X162950000Y-121652231D01*
X162950000Y-120604145D01*
X163016657Y-120642630D01*
X163137465Y-120675000D01*
X163262535Y-120675000D01*
X163383343Y-120642630D01*
X163450000Y-120604145D01*
X163450000Y-121652230D01*
X163516126Y-121641757D01*
X163516129Y-121641757D01*
X163718217Y-121576095D01*
X163907557Y-121479620D01*
X164079459Y-121354727D01*
X164079464Y-121354723D01*
X164229723Y-121204464D01*
X164229727Y-121204459D01*
X164354620Y-121032557D01*
X164451095Y-120843217D01*
X164516757Y-120641130D01*
X164516757Y-120641127D01*
X164547030Y-120450000D01*
X163604146Y-120450000D01*
X163642630Y-120383343D01*
X163675000Y-120262535D01*
X163675000Y-120137465D01*
X163642630Y-120016657D01*
X163604146Y-119950000D01*
X164547030Y-119950000D01*
X164516757Y-119758872D01*
X164516757Y-119758869D01*
X164451095Y-119556782D01*
X164408982Y-119474130D01*
X164408981Y-119474128D01*
X164381773Y-119420730D01*
X170249500Y-119420730D01*
X170249500Y-120979269D01*
X170252353Y-121009699D01*
X170252353Y-121009701D01*
X170297206Y-121137880D01*
X170297207Y-121137882D01*
X170377850Y-121247150D01*
X170487118Y-121327793D01*
X170508089Y-121335131D01*
X170615299Y-121372646D01*
X170645730Y-121375500D01*
X170645734Y-121375500D01*
X171954270Y-121375500D01*
X171984699Y-121372646D01*
X171984701Y-121372646D01*
X172048790Y-121350219D01*
X172112882Y-121327793D01*
X172222150Y-121247150D01*
X172302793Y-121137882D01*
X172339648Y-121032557D01*
X172347646Y-121009701D01*
X172347646Y-121009699D01*
X172350500Y-120979269D01*
X172350500Y-119971530D01*
X172749500Y-119971530D01*
X172749500Y-120428469D01*
X172789868Y-120631412D01*
X172789870Y-120631420D01*
X172807921Y-120675000D01*
X172869059Y-120822598D01*
X172882836Y-120843217D01*
X172984024Y-120994657D01*
X173130342Y-121140975D01*
X173130345Y-121140977D01*
X173302402Y-121255941D01*
X173493580Y-121335130D01*
X173682187Y-121372646D01*
X173696530Y-121375499D01*
X173696534Y-121375500D01*
X173696535Y-121375500D01*
X173903466Y-121375500D01*
X173903467Y-121375499D01*
X174106420Y-121335130D01*
X174297598Y-121255941D01*
X174469655Y-121140977D01*
X174615977Y-120994655D01*
X174730941Y-120822598D01*
X174810130Y-120631420D01*
X174850500Y-120428465D01*
X174850500Y-119971535D01*
X174850499Y-119971530D01*
X175249500Y-119971530D01*
X175249500Y-120428469D01*
X175289868Y-120631412D01*
X175289870Y-120631420D01*
X175307921Y-120675000D01*
X175369059Y-120822598D01*
X175382836Y-120843217D01*
X175484024Y-120994657D01*
X175630342Y-121140975D01*
X175630345Y-121140977D01*
X175802402Y-121255941D01*
X175993580Y-121335130D01*
X176182187Y-121372646D01*
X176196530Y-121375499D01*
X176196534Y-121375500D01*
X176196535Y-121375500D01*
X176403466Y-121375500D01*
X176403467Y-121375499D01*
X176606420Y-121335130D01*
X176797598Y-121255941D01*
X176969655Y-121140977D01*
X177115977Y-120994655D01*
X177230941Y-120822598D01*
X177276748Y-120712009D01*
X177320589Y-120657606D01*
X177386883Y-120635541D01*
X177454582Y-120652820D01*
X177502193Y-120703957D01*
X177509240Y-120721144D01*
X177548904Y-120843216D01*
X177645379Y-121032557D01*
X177770272Y-121204459D01*
X177770276Y-121204464D01*
X177920535Y-121354723D01*
X177920540Y-121354727D01*
X178092442Y-121479620D01*
X178281782Y-121576095D01*
X178483871Y-121641757D01*
X178550000Y-121652231D01*
X178550000Y-120604145D01*
X178616657Y-120642630D01*
X178737465Y-120675000D01*
X178862535Y-120675000D01*
X178983343Y-120642630D01*
X179050000Y-120604145D01*
X179050000Y-121652230D01*
X179116126Y-121641757D01*
X179116129Y-121641757D01*
X179318217Y-121576095D01*
X179507557Y-121479620D01*
X179679459Y-121354727D01*
X179679464Y-121354723D01*
X179829723Y-121204464D01*
X179829727Y-121204459D01*
X179954620Y-121032557D01*
X180051095Y-120843217D01*
X180116757Y-120641130D01*
X180116757Y-120641127D01*
X180147030Y-120450000D01*
X179204146Y-120450000D01*
X179242630Y-120383343D01*
X179275000Y-120262535D01*
X179275000Y-120137465D01*
X179242630Y-120016657D01*
X179204146Y-119950000D01*
X180147030Y-119950000D01*
X180116757Y-119758872D01*
X180116757Y-119758869D01*
X180051095Y-119556782D01*
X179954620Y-119367442D01*
X179829727Y-119195540D01*
X179829723Y-119195535D01*
X179679464Y-119045276D01*
X179679459Y-119045272D01*
X179507557Y-118920379D01*
X179318215Y-118823903D01*
X179116124Y-118758241D01*
X179050000Y-118747768D01*
X179050000Y-119795854D01*
X178983343Y-119757370D01*
X178862535Y-119725000D01*
X178737465Y-119725000D01*
X178616657Y-119757370D01*
X178550000Y-119795854D01*
X178550000Y-118747768D01*
X178549999Y-118747768D01*
X178483875Y-118758241D01*
X178281784Y-118823903D01*
X178092442Y-118920379D01*
X177920540Y-119045272D01*
X177920535Y-119045276D01*
X177770276Y-119195535D01*
X177770272Y-119195540D01*
X177645379Y-119367442D01*
X177548905Y-119556781D01*
X177509240Y-119678856D01*
X177469802Y-119736531D01*
X177405443Y-119763729D01*
X177336597Y-119751814D01*
X177285121Y-119704570D01*
X177276748Y-119687990D01*
X177259865Y-119647231D01*
X177230941Y-119577402D01*
X177115977Y-119405345D01*
X177115975Y-119405342D01*
X176969657Y-119259024D01*
X176874638Y-119195535D01*
X176797598Y-119144059D01*
X176606420Y-119064870D01*
X176606412Y-119064868D01*
X176403469Y-119024500D01*
X176403465Y-119024500D01*
X176196535Y-119024500D01*
X176196530Y-119024500D01*
X175993587Y-119064868D01*
X175993579Y-119064870D01*
X175802403Y-119144058D01*
X175630342Y-119259024D01*
X175484024Y-119405342D01*
X175369058Y-119577403D01*
X175289870Y-119768579D01*
X175289868Y-119768587D01*
X175249500Y-119971530D01*
X174850499Y-119971530D01*
X174810130Y-119768580D01*
X174730941Y-119577402D01*
X174615977Y-119405345D01*
X174615975Y-119405342D01*
X174469657Y-119259024D01*
X174374638Y-119195535D01*
X174297598Y-119144059D01*
X174106420Y-119064870D01*
X174106412Y-119064868D01*
X173903469Y-119024500D01*
X173903465Y-119024500D01*
X173696535Y-119024500D01*
X173696530Y-119024500D01*
X173493587Y-119064868D01*
X173493579Y-119064870D01*
X173302403Y-119144058D01*
X173130342Y-119259024D01*
X172984024Y-119405342D01*
X172869058Y-119577403D01*
X172789870Y-119768579D01*
X172789868Y-119768587D01*
X172749500Y-119971530D01*
X172350500Y-119971530D01*
X172350500Y-119420730D01*
X172347646Y-119390300D01*
X172347646Y-119390298D01*
X172302793Y-119262119D01*
X172302792Y-119262117D01*
X172222150Y-119152850D01*
X172112882Y-119072207D01*
X172112880Y-119072206D01*
X171984700Y-119027353D01*
X171954270Y-119024500D01*
X171954266Y-119024500D01*
X170645734Y-119024500D01*
X170645730Y-119024500D01*
X170615300Y-119027353D01*
X170615298Y-119027353D01*
X170487119Y-119072206D01*
X170487117Y-119072207D01*
X170377850Y-119152850D01*
X170297207Y-119262117D01*
X170297206Y-119262119D01*
X170252353Y-119390298D01*
X170252353Y-119390300D01*
X170249500Y-119420730D01*
X164381773Y-119420730D01*
X164354622Y-119367444D01*
X164229727Y-119195540D01*
X164229723Y-119195535D01*
X164079464Y-119045276D01*
X164079459Y-119045272D01*
X163907557Y-118920379D01*
X163718215Y-118823903D01*
X163516124Y-118758241D01*
X163450000Y-118747768D01*
X163450000Y-119795854D01*
X163383343Y-119757370D01*
X163262535Y-119725000D01*
X163137465Y-119725000D01*
X163016657Y-119757370D01*
X162950000Y-119795854D01*
X162950000Y-118747768D01*
X162949999Y-118747768D01*
X162883875Y-118758241D01*
X162681784Y-118823903D01*
X162492442Y-118920379D01*
X162320540Y-119045272D01*
X162320535Y-119045276D01*
X162170276Y-119195535D01*
X162170272Y-119195540D01*
X162045379Y-119367442D01*
X161948905Y-119556781D01*
X161909240Y-119678856D01*
X161869802Y-119736531D01*
X161805443Y-119763729D01*
X161736597Y-119751814D01*
X161685121Y-119704570D01*
X161676748Y-119687990D01*
X161659865Y-119647231D01*
X161630941Y-119577402D01*
X161515977Y-119405345D01*
X161515975Y-119405342D01*
X161369657Y-119259024D01*
X161274638Y-119195535D01*
X161197598Y-119144059D01*
X161006420Y-119064870D01*
X161006412Y-119064868D01*
X160803469Y-119024500D01*
X160803465Y-119024500D01*
X160596535Y-119024500D01*
X160596530Y-119024500D01*
X160393587Y-119064868D01*
X160393579Y-119064870D01*
X160202403Y-119144058D01*
X160030342Y-119259024D01*
X159884024Y-119405342D01*
X159769058Y-119577403D01*
X159689870Y-119768579D01*
X159689868Y-119768587D01*
X159649500Y-119971530D01*
X159250499Y-119971530D01*
X159210130Y-119768580D01*
X159130941Y-119577402D01*
X159015977Y-119405345D01*
X159015975Y-119405342D01*
X158869657Y-119259024D01*
X158774638Y-119195535D01*
X158697598Y-119144059D01*
X158506420Y-119064870D01*
X158506412Y-119064868D01*
X158303469Y-119024500D01*
X158303465Y-119024500D01*
X158096535Y-119024500D01*
X158096530Y-119024500D01*
X157893587Y-119064868D01*
X157893579Y-119064870D01*
X157702403Y-119144058D01*
X157530342Y-119259024D01*
X157384024Y-119405342D01*
X157269058Y-119577403D01*
X157189870Y-119768579D01*
X157189868Y-119768587D01*
X157149500Y-119971530D01*
X156750500Y-119971530D01*
X156750500Y-119420730D01*
X156747646Y-119390300D01*
X156747646Y-119390298D01*
X156702793Y-119262119D01*
X156702792Y-119262117D01*
X156622150Y-119152850D01*
X156512882Y-119072207D01*
X156512880Y-119072206D01*
X156384700Y-119027353D01*
X156354270Y-119024500D01*
X156354266Y-119024500D01*
X155045734Y-119024500D01*
X155045730Y-119024500D01*
X155015300Y-119027353D01*
X155015298Y-119027353D01*
X154887119Y-119072206D01*
X154887117Y-119072207D01*
X154777850Y-119152850D01*
X154697207Y-119262117D01*
X154697206Y-119262119D01*
X154652353Y-119390298D01*
X154652353Y-119390300D01*
X154649500Y-119420730D01*
X150150000Y-119420730D01*
X150150000Y-116747399D01*
X183974500Y-116747399D01*
X183974500Y-116872601D01*
X184006905Y-116993536D01*
X184069505Y-117101964D01*
X184158036Y-117190495D01*
X184266464Y-117253095D01*
X184387399Y-117285500D01*
X184387401Y-117285500D01*
X184512599Y-117285500D01*
X184512601Y-117285500D01*
X184633536Y-117253095D01*
X184741964Y-117190495D01*
X184830495Y-117101964D01*
X184893095Y-116993536D01*
X184925500Y-116872601D01*
X184925500Y-116747399D01*
X184893095Y-116626464D01*
X184830495Y-116518036D01*
X184741964Y-116429505D01*
X184633536Y-116366905D01*
X184633537Y-116366905D01*
X184593224Y-116356103D01*
X184512601Y-116334500D01*
X184387399Y-116334500D01*
X184306775Y-116356103D01*
X184266463Y-116366905D01*
X184158037Y-116429504D01*
X184158034Y-116429506D01*
X184069506Y-116518034D01*
X184069504Y-116518037D01*
X184006905Y-116626463D01*
X184006905Y-116626464D01*
X183974500Y-116747399D01*
X150150000Y-116747399D01*
X150150000Y-110347399D01*
X161574500Y-110347399D01*
X161574500Y-110472601D01*
X161606905Y-110593536D01*
X161669505Y-110701964D01*
X161758036Y-110790495D01*
X161866464Y-110853095D01*
X161987399Y-110885500D01*
X161987401Y-110885500D01*
X162112599Y-110885500D01*
X162112601Y-110885500D01*
X162233536Y-110853095D01*
X162341964Y-110790495D01*
X162430495Y-110701964D01*
X162493095Y-110593536D01*
X162525500Y-110472601D01*
X162525500Y-110347399D01*
X162493095Y-110226464D01*
X162430495Y-110118036D01*
X162341964Y-110029505D01*
X162233536Y-109966905D01*
X162233537Y-109966905D01*
X162193224Y-109956103D01*
X162112601Y-109934500D01*
X161987399Y-109934500D01*
X161906775Y-109956103D01*
X161866463Y-109966905D01*
X161758037Y-110029504D01*
X161758034Y-110029506D01*
X161669506Y-110118034D01*
X161669504Y-110118037D01*
X161606905Y-110226463D01*
X161606905Y-110226464D01*
X161574500Y-110347399D01*
X150150000Y-110347399D01*
X150150000Y-108747399D01*
X155774500Y-108747399D01*
X155774500Y-108872601D01*
X155806905Y-108993536D01*
X155869505Y-109101964D01*
X155958036Y-109190495D01*
X156066464Y-109253095D01*
X156187399Y-109285500D01*
X156187401Y-109285500D01*
X156312599Y-109285500D01*
X156312601Y-109285500D01*
X156433536Y-109253095D01*
X156541964Y-109190495D01*
X156630495Y-109101964D01*
X156693095Y-108993536D01*
X156725500Y-108872601D01*
X156725500Y-108747399D01*
X156693095Y-108626464D01*
X156630495Y-108518036D01*
X156541964Y-108429505D01*
X156433536Y-108366905D01*
X156433537Y-108366905D01*
X156393224Y-108356103D01*
X156312601Y-108334500D01*
X156187399Y-108334500D01*
X156106775Y-108356103D01*
X156066463Y-108366905D01*
X155958037Y-108429504D01*
X155958034Y-108429506D01*
X155869506Y-108518034D01*
X155869504Y-108518037D01*
X155806905Y-108626463D01*
X155806905Y-108626464D01*
X155774500Y-108747399D01*
X150150000Y-108747399D01*
X150150000Y-105646247D01*
X171595500Y-105646247D01*
X171595500Y-107193752D01*
X171607131Y-107252229D01*
X171607132Y-107252230D01*
X171651447Y-107318552D01*
X171717769Y-107362867D01*
X171717770Y-107362868D01*
X171776247Y-107374499D01*
X171776250Y-107374500D01*
X171776252Y-107374500D01*
X173323750Y-107374500D01*
X173323751Y-107374499D01*
X173338568Y-107371552D01*
X173382229Y-107362868D01*
X173382229Y-107362867D01*
X173382231Y-107362867D01*
X173448552Y-107318552D01*
X173492867Y-107252231D01*
X173492867Y-107252229D01*
X173492868Y-107252229D01*
X173504499Y-107193752D01*
X173504500Y-107193750D01*
X173504500Y-106137399D01*
X175424500Y-106137399D01*
X175424500Y-106262601D01*
X175456905Y-106383536D01*
X175519505Y-106491964D01*
X175608036Y-106580495D01*
X175716464Y-106643095D01*
X175837399Y-106675500D01*
X175837401Y-106675500D01*
X175962599Y-106675500D01*
X175962601Y-106675500D01*
X176083536Y-106643095D01*
X176191964Y-106580495D01*
X176280495Y-106491964D01*
X176343095Y-106383536D01*
X176375500Y-106262601D01*
X176375500Y-106137399D01*
X176343095Y-106016464D01*
X176280495Y-105908036D01*
X176191964Y-105819505D01*
X176083536Y-105756905D01*
X176083537Y-105756905D01*
X176043224Y-105746103D01*
X175962601Y-105724500D01*
X175837399Y-105724500D01*
X175756775Y-105746103D01*
X175716463Y-105756905D01*
X175608037Y-105819504D01*
X175608034Y-105819506D01*
X175519506Y-105908034D01*
X175519504Y-105908037D01*
X175456905Y-106016463D01*
X175456905Y-106016464D01*
X175424500Y-106137399D01*
X173504500Y-106137399D01*
X173504500Y-105646249D01*
X173504499Y-105646247D01*
X173492868Y-105587770D01*
X173492867Y-105587769D01*
X173448552Y-105521447D01*
X173382230Y-105477132D01*
X173382229Y-105477131D01*
X173323752Y-105465500D01*
X173323748Y-105465500D01*
X171776252Y-105465500D01*
X171776247Y-105465500D01*
X171717770Y-105477131D01*
X171717769Y-105477132D01*
X171651447Y-105521447D01*
X171607132Y-105587769D01*
X171607131Y-105587770D01*
X171595500Y-105646247D01*
X150150000Y-105646247D01*
X150150000Y-102734000D01*
X150169685Y-102666961D01*
X150222489Y-102621206D01*
X150274000Y-102610000D01*
X171782939Y-102610000D01*
X171849978Y-102629685D01*
G37*
%TD.AperFunction*%
%TD*%
%TA.AperFunction,Conductor*%
%TO.N,+3V3*%
G36*
X153103039Y-46880185D02*
G01*
X153148794Y-46932989D01*
X153160000Y-46984500D01*
X153160000Y-52610000D01*
X172560000Y-52610000D01*
X172560000Y-51137399D01*
X178674500Y-51137399D01*
X178674500Y-51262601D01*
X178706905Y-51383536D01*
X178769505Y-51491964D01*
X178858036Y-51580495D01*
X178966464Y-51643095D01*
X179087399Y-51675500D01*
X179087401Y-51675500D01*
X179212599Y-51675500D01*
X179212601Y-51675500D01*
X179333536Y-51643095D01*
X179441964Y-51580495D01*
X179530495Y-51491964D01*
X179593095Y-51383536D01*
X179625500Y-51262601D01*
X179625500Y-51137399D01*
X179593095Y-51016464D01*
X179530495Y-50908036D01*
X179441964Y-50819505D01*
X179333536Y-50756905D01*
X179333537Y-50756905D01*
X179287259Y-50744505D01*
X179212601Y-50724500D01*
X179087399Y-50724500D01*
X179012741Y-50744505D01*
X178966463Y-50756905D01*
X178858037Y-50819504D01*
X178858034Y-50819506D01*
X178769506Y-50908034D01*
X178769504Y-50908037D01*
X178706905Y-51016463D01*
X178694596Y-51062400D01*
X178674500Y-51137399D01*
X172560000Y-51137399D01*
X172560000Y-50199899D01*
X182474500Y-50199899D01*
X182474500Y-50325101D01*
X182506905Y-50446036D01*
X182569505Y-50554464D01*
X182658036Y-50642995D01*
X182766464Y-50705595D01*
X182887399Y-50738000D01*
X182887401Y-50738000D01*
X183012599Y-50738000D01*
X183012601Y-50738000D01*
X183133536Y-50705595D01*
X183241964Y-50642995D01*
X183330495Y-50554464D01*
X183393095Y-50446036D01*
X183394313Y-50441491D01*
X186149500Y-50441491D01*
X186149500Y-50778508D01*
X186187231Y-51113381D01*
X186187233Y-51113397D01*
X186262223Y-51441953D01*
X186262227Y-51441965D01*
X186373532Y-51760054D01*
X186519752Y-52063683D01*
X186566498Y-52138079D01*
X186699054Y-52349039D01*
X186909175Y-52612523D01*
X187147477Y-52850825D01*
X187410961Y-53060946D01*
X187696314Y-53240246D01*
X187999949Y-53386469D01*
X188238848Y-53470063D01*
X188318034Y-53497772D01*
X188318046Y-53497776D01*
X188646606Y-53572767D01*
X188981492Y-53610499D01*
X188981493Y-53610500D01*
X188981496Y-53610500D01*
X189318507Y-53610500D01*
X189318507Y-53610499D01*
X189653394Y-53572767D01*
X189981954Y-53497776D01*
X190300051Y-53386469D01*
X190603686Y-53240246D01*
X190889039Y-53060946D01*
X191152523Y-52850825D01*
X191390825Y-52612523D01*
X191600946Y-52349039D01*
X191780246Y-52063686D01*
X191926469Y-51760051D01*
X192037776Y-51441954D01*
X192112767Y-51113394D01*
X192150500Y-50778504D01*
X192150500Y-50441496D01*
X192112767Y-50106606D01*
X192037776Y-49778046D01*
X191926469Y-49459949D01*
X191780246Y-49156314D01*
X191600946Y-48870961D01*
X191390825Y-48607477D01*
X191152523Y-48369175D01*
X190889039Y-48159054D01*
X190603686Y-47979754D01*
X190603683Y-47979752D01*
X190300054Y-47833532D01*
X189981965Y-47722227D01*
X189981953Y-47722223D01*
X189653397Y-47647233D01*
X189653381Y-47647231D01*
X189318508Y-47609500D01*
X189318504Y-47609500D01*
X188981496Y-47609500D01*
X188981491Y-47609500D01*
X188646618Y-47647231D01*
X188646602Y-47647233D01*
X188318046Y-47722223D01*
X188318034Y-47722227D01*
X187999945Y-47833532D01*
X187696316Y-47979752D01*
X187410962Y-48159053D01*
X187147477Y-48369174D01*
X186909174Y-48607477D01*
X186699053Y-48870962D01*
X186519752Y-49156316D01*
X186373532Y-49459945D01*
X186262227Y-49778034D01*
X186262223Y-49778046D01*
X186187233Y-50106602D01*
X186187231Y-50106618D01*
X186149500Y-50441491D01*
X183394313Y-50441491D01*
X183425500Y-50325101D01*
X183425500Y-50199899D01*
X183393095Y-50078964D01*
X183330495Y-49970536D01*
X183241964Y-49882005D01*
X183133536Y-49819405D01*
X183133537Y-49819405D01*
X183092973Y-49808536D01*
X183012601Y-49787000D01*
X182887399Y-49787000D01*
X182807027Y-49808536D01*
X182766463Y-49819405D01*
X182658037Y-49882004D01*
X182658034Y-49882006D01*
X182569506Y-49970534D01*
X182569504Y-49970537D01*
X182506905Y-50078963D01*
X182506905Y-50078964D01*
X182474500Y-50199899D01*
X172560000Y-50199899D01*
X172560000Y-46984500D01*
X172579685Y-46917461D01*
X172632489Y-46871706D01*
X172684000Y-46860500D01*
X189105830Y-46860500D01*
X189146949Y-46860500D01*
X189153032Y-46860648D01*
X189511433Y-46878256D01*
X189523541Y-46879448D01*
X189875475Y-46931653D01*
X189887389Y-46934023D01*
X190232520Y-47020473D01*
X190244147Y-47024000D01*
X190579151Y-47143867D01*
X190590363Y-47148511D01*
X190912012Y-47300639D01*
X190922720Y-47306363D01*
X191227881Y-47489270D01*
X191237996Y-47496028D01*
X191523769Y-47707971D01*
X191533175Y-47715691D01*
X191796790Y-47954618D01*
X191805381Y-47963209D01*
X191820375Y-47979752D01*
X192044308Y-48226824D01*
X192052028Y-48236230D01*
X192263969Y-48522000D01*
X192270729Y-48532118D01*
X192453629Y-48837267D01*
X192459364Y-48847995D01*
X192470460Y-48871455D01*
X192611485Y-49169629D01*
X192616136Y-49180858D01*
X192729476Y-49497620D01*
X192735994Y-49515837D01*
X192739526Y-49527481D01*
X192825973Y-49872597D01*
X192828347Y-49884532D01*
X192880550Y-50236457D01*
X192881743Y-50248567D01*
X192899351Y-50606966D01*
X192899500Y-50613051D01*
X192899500Y-94486000D01*
X192879815Y-94553039D01*
X192827011Y-94598794D01*
X192775500Y-94610000D01*
X179150000Y-94610000D01*
X179150000Y-101436000D01*
X179130315Y-101503039D01*
X179077511Y-101548794D01*
X179026000Y-101560000D01*
X173628500Y-101560000D01*
X173561461Y-101540315D01*
X173515706Y-101487511D01*
X173504500Y-101436000D01*
X173504500Y-101245987D01*
X173504499Y-101245985D01*
X173500970Y-101228242D01*
X173467819Y-101061583D01*
X173467817Y-101061578D01*
X173395870Y-100887881D01*
X173395863Y-100887868D01*
X173291408Y-100731542D01*
X173291405Y-100731538D01*
X173197266Y-100637399D01*
X175424500Y-100637399D01*
X175424500Y-100762601D01*
X175456905Y-100883536D01*
X175519505Y-100991964D01*
X175608036Y-101080495D01*
X175716464Y-101143095D01*
X175837399Y-101175500D01*
X175837401Y-101175500D01*
X175962599Y-101175500D01*
X175962601Y-101175500D01*
X176083536Y-101143095D01*
X176191964Y-101080495D01*
X176280495Y-100991964D01*
X176343095Y-100883536D01*
X176375500Y-100762601D01*
X176375500Y-100637399D01*
X176343095Y-100516464D01*
X176280495Y-100408036D01*
X176191964Y-100319505D01*
X176083536Y-100256905D01*
X176083537Y-100256905D01*
X176040973Y-100245500D01*
X175962601Y-100224500D01*
X175837399Y-100224500D01*
X175759027Y-100245500D01*
X175716463Y-100256905D01*
X175608037Y-100319504D01*
X175608034Y-100319506D01*
X175519506Y-100408034D01*
X175519504Y-100408037D01*
X175456905Y-100516463D01*
X175456905Y-100516464D01*
X175424500Y-100637399D01*
X173197266Y-100637399D01*
X173158461Y-100598594D01*
X173158457Y-100598591D01*
X173002131Y-100494136D01*
X173002118Y-100494129D01*
X172828421Y-100422182D01*
X172828409Y-100422179D01*
X172644013Y-100385500D01*
X172644010Y-100385500D01*
X172455990Y-100385500D01*
X172455987Y-100385500D01*
X172271590Y-100422179D01*
X172271578Y-100422182D01*
X172097881Y-100494129D01*
X172097868Y-100494136D01*
X171941542Y-100598591D01*
X171941538Y-100598594D01*
X171808594Y-100731538D01*
X171808591Y-100731542D01*
X171704136Y-100887868D01*
X171704129Y-100887881D01*
X171632182Y-101061578D01*
X171632179Y-101061590D01*
X171595500Y-101245985D01*
X171595500Y-101436000D01*
X171575815Y-101503039D01*
X171523011Y-101548794D01*
X171471500Y-101560000D01*
X142252686Y-101560000D01*
X142185647Y-101540315D01*
X142139892Y-101487511D01*
X142129948Y-101418353D01*
X142131069Y-101411809D01*
X142154499Y-101294014D01*
X142154500Y-101294012D01*
X142154500Y-101105987D01*
X142154499Y-101105985D01*
X142149428Y-101080493D01*
X142117819Y-100921583D01*
X142103854Y-100887868D01*
X142045870Y-100747881D01*
X142045863Y-100747868D01*
X141941408Y-100591542D01*
X141941405Y-100591538D01*
X141808461Y-100458594D01*
X141808457Y-100458591D01*
X141652131Y-100354136D01*
X141652118Y-100354129D01*
X141478421Y-100282182D01*
X141478409Y-100282179D01*
X141294013Y-100245500D01*
X141294010Y-100245500D01*
X141105990Y-100245500D01*
X141105987Y-100245500D01*
X140921590Y-100282179D01*
X140921578Y-100282182D01*
X140747881Y-100354129D01*
X140747868Y-100354136D01*
X140591542Y-100458591D01*
X140591538Y-100458594D01*
X140458594Y-100591538D01*
X140458591Y-100591542D01*
X140354136Y-100747868D01*
X140354129Y-100747881D01*
X140282182Y-100921578D01*
X140282179Y-100921590D01*
X140245500Y-101105985D01*
X140245500Y-101294014D01*
X140268931Y-101411809D01*
X140262704Y-101481400D01*
X140219841Y-101536578D01*
X140153951Y-101559822D01*
X140147314Y-101560000D01*
X113524500Y-101560000D01*
X113457461Y-101540315D01*
X113411706Y-101487511D01*
X113400500Y-101436000D01*
X113400500Y-99537399D01*
X126024500Y-99537399D01*
X126024500Y-99662601D01*
X126056905Y-99783536D01*
X126119505Y-99891964D01*
X126208036Y-99980495D01*
X126316464Y-100043095D01*
X126437399Y-100075500D01*
X126437401Y-100075500D01*
X126562599Y-100075500D01*
X126562601Y-100075500D01*
X126683536Y-100043095D01*
X126791964Y-99980495D01*
X126880495Y-99891964D01*
X126943095Y-99783536D01*
X126975500Y-99662601D01*
X126975500Y-99647399D01*
X155774500Y-99647399D01*
X155774500Y-99772601D01*
X155806905Y-99893536D01*
X155869505Y-100001964D01*
X155958036Y-100090495D01*
X156066464Y-100153095D01*
X156187399Y-100185500D01*
X156187401Y-100185500D01*
X156312599Y-100185500D01*
X156312601Y-100185500D01*
X156433536Y-100153095D01*
X156541964Y-100090495D01*
X156630495Y-100001964D01*
X156693095Y-99893536D01*
X156725500Y-99772601D01*
X156725500Y-99647399D01*
X156693095Y-99526464D01*
X156630495Y-99418036D01*
X156541964Y-99329505D01*
X156433536Y-99266905D01*
X156433537Y-99266905D01*
X156393224Y-99256103D01*
X156312601Y-99234500D01*
X156187399Y-99234500D01*
X156106775Y-99256103D01*
X156066463Y-99266905D01*
X155958037Y-99329504D01*
X155958034Y-99329506D01*
X155869506Y-99418034D01*
X155869504Y-99418037D01*
X155806905Y-99526463D01*
X155798307Y-99558552D01*
X155774500Y-99647399D01*
X126975500Y-99647399D01*
X126975500Y-99537399D01*
X126943095Y-99416464D01*
X126880495Y-99308036D01*
X126791964Y-99219505D01*
X126683536Y-99156905D01*
X126683537Y-99156905D01*
X126643224Y-99146103D01*
X126562601Y-99124500D01*
X126437399Y-99124500D01*
X126356775Y-99146103D01*
X126316463Y-99156905D01*
X126208037Y-99219504D01*
X126208034Y-99219506D01*
X126119506Y-99308034D01*
X126119504Y-99308037D01*
X126056905Y-99416463D01*
X126040702Y-99476931D01*
X126024500Y-99537399D01*
X113400500Y-99537399D01*
X113400500Y-97637399D01*
X138224500Y-97637399D01*
X138224500Y-97762601D01*
X138256905Y-97883536D01*
X138319505Y-97991964D01*
X138408036Y-98080495D01*
X138516464Y-98143095D01*
X138637399Y-98175500D01*
X138637401Y-98175500D01*
X138762599Y-98175500D01*
X138762601Y-98175500D01*
X138883536Y-98143095D01*
X138991964Y-98080495D01*
X139080495Y-97991964D01*
X139141530Y-97886247D01*
X140245500Y-97886247D01*
X140245500Y-99433752D01*
X140257131Y-99492229D01*
X140257132Y-99492230D01*
X140301447Y-99558552D01*
X140367769Y-99602867D01*
X140367770Y-99602868D01*
X140426247Y-99614499D01*
X140426250Y-99614500D01*
X140426252Y-99614500D01*
X141973750Y-99614500D01*
X141973751Y-99614499D01*
X141988568Y-99611552D01*
X142032229Y-99602868D01*
X142032229Y-99602867D01*
X142032231Y-99602867D01*
X142098552Y-99558552D01*
X142142867Y-99492231D01*
X142142867Y-99492229D01*
X142142868Y-99492229D01*
X142154499Y-99433752D01*
X142154500Y-99433750D01*
X142154500Y-98705985D01*
X171595500Y-98705985D01*
X171595500Y-98894014D01*
X171632179Y-99078409D01*
X171632182Y-99078421D01*
X171704129Y-99252118D01*
X171704136Y-99252131D01*
X171808591Y-99408457D01*
X171808594Y-99408461D01*
X171941538Y-99541405D01*
X171941542Y-99541408D01*
X172097868Y-99645863D01*
X172097881Y-99645870D01*
X172271578Y-99717817D01*
X172271583Y-99717819D01*
X172455985Y-99754499D01*
X172455988Y-99754500D01*
X172455990Y-99754500D01*
X172644012Y-99754500D01*
X172644013Y-99754499D01*
X172828417Y-99717819D01*
X172998424Y-99647400D01*
X173002118Y-99645870D01*
X173002118Y-99645869D01*
X173002125Y-99645867D01*
X173158458Y-99541408D01*
X173291408Y-99408458D01*
X173395867Y-99252125D01*
X173403168Y-99234500D01*
X173467817Y-99078421D01*
X173467819Y-99078417D01*
X173504500Y-98894010D01*
X173504500Y-98705990D01*
X173504500Y-98705987D01*
X173504499Y-98705985D01*
X173467820Y-98521590D01*
X173467819Y-98521583D01*
X173467817Y-98521578D01*
X173395870Y-98347881D01*
X173395863Y-98347868D01*
X173291408Y-98191542D01*
X173291405Y-98191538D01*
X173158461Y-98058594D01*
X173158457Y-98058591D01*
X173002131Y-97954136D01*
X173002118Y-97954129D01*
X172828421Y-97882182D01*
X172828409Y-97882179D01*
X172644013Y-97845500D01*
X172644010Y-97845500D01*
X172455990Y-97845500D01*
X172455987Y-97845500D01*
X172271590Y-97882179D01*
X172271578Y-97882182D01*
X172097881Y-97954129D01*
X172097868Y-97954136D01*
X171941542Y-98058591D01*
X171941538Y-98058594D01*
X171808594Y-98191538D01*
X171808591Y-98191542D01*
X171704136Y-98347868D01*
X171704129Y-98347881D01*
X171632182Y-98521578D01*
X171632179Y-98521590D01*
X171595500Y-98705985D01*
X142154500Y-98705985D01*
X142154500Y-97886249D01*
X142154499Y-97886247D01*
X142142868Y-97827770D01*
X142142867Y-97827769D01*
X142098552Y-97761447D01*
X142032230Y-97717132D01*
X142032229Y-97717131D01*
X141973752Y-97705500D01*
X141973748Y-97705500D01*
X140426252Y-97705500D01*
X140426247Y-97705500D01*
X140367770Y-97717131D01*
X140367769Y-97717132D01*
X140301447Y-97761447D01*
X140257132Y-97827769D01*
X140257131Y-97827770D01*
X140245500Y-97886247D01*
X139141530Y-97886247D01*
X139143095Y-97883536D01*
X139175500Y-97762601D01*
X139175500Y-97637399D01*
X139143095Y-97516464D01*
X139080495Y-97408036D01*
X138991964Y-97319505D01*
X138883536Y-97256905D01*
X138883537Y-97256905D01*
X138843224Y-97246103D01*
X138762601Y-97224500D01*
X138637399Y-97224500D01*
X138556775Y-97246103D01*
X138516463Y-97256905D01*
X138408037Y-97319504D01*
X138408034Y-97319506D01*
X138319506Y-97408034D01*
X138319504Y-97408037D01*
X138256905Y-97516463D01*
X138256905Y-97516464D01*
X138224500Y-97637399D01*
X113400500Y-97637399D01*
X113400500Y-96237399D01*
X126024500Y-96237399D01*
X126024500Y-96362601D01*
X126056905Y-96483536D01*
X126119505Y-96591964D01*
X126208036Y-96680495D01*
X126316464Y-96743095D01*
X126437399Y-96775500D01*
X126437401Y-96775500D01*
X126562599Y-96775500D01*
X126562601Y-96775500D01*
X126683536Y-96743095D01*
X126791964Y-96680495D01*
X126880495Y-96591964D01*
X126943095Y-96483536D01*
X126975500Y-96362601D01*
X126975500Y-96237399D01*
X126948705Y-96137399D01*
X136424500Y-96137399D01*
X136424500Y-96262601D01*
X136456905Y-96383536D01*
X136519505Y-96491964D01*
X136608036Y-96580495D01*
X136716464Y-96643095D01*
X136837399Y-96675500D01*
X136837401Y-96675500D01*
X136962599Y-96675500D01*
X136962601Y-96675500D01*
X137083536Y-96643095D01*
X137191964Y-96580495D01*
X137280495Y-96491964D01*
X137343095Y-96383536D01*
X137352778Y-96347399D01*
X155774500Y-96347399D01*
X155774500Y-96472601D01*
X155806905Y-96593536D01*
X155869505Y-96701964D01*
X155958036Y-96790495D01*
X156066464Y-96853095D01*
X156187399Y-96885500D01*
X156187401Y-96885500D01*
X156312599Y-96885500D01*
X156312601Y-96885500D01*
X156433536Y-96853095D01*
X156541964Y-96790495D01*
X156630495Y-96701964D01*
X156693095Y-96593536D01*
X156725500Y-96472601D01*
X156725500Y-96347399D01*
X156693095Y-96226464D01*
X156641674Y-96137399D01*
X158324500Y-96137399D01*
X158324500Y-96262601D01*
X158356905Y-96383536D01*
X158419505Y-96491964D01*
X158508036Y-96580495D01*
X158616464Y-96643095D01*
X158737399Y-96675500D01*
X158737401Y-96675500D01*
X158862599Y-96675500D01*
X158862601Y-96675500D01*
X158983536Y-96643095D01*
X159091964Y-96580495D01*
X159180495Y-96491964D01*
X159243095Y-96383536D01*
X159275500Y-96262601D01*
X159275500Y-96137399D01*
X159243095Y-96016464D01*
X159180495Y-95908036D01*
X159091964Y-95819505D01*
X158983536Y-95756905D01*
X158983537Y-95756905D01*
X158943224Y-95746103D01*
X158862601Y-95724500D01*
X158737399Y-95724500D01*
X158656775Y-95746103D01*
X158616463Y-95756905D01*
X158508037Y-95819504D01*
X158508034Y-95819506D01*
X158419506Y-95908034D01*
X158419504Y-95908037D01*
X158356905Y-96016463D01*
X158353410Y-96029506D01*
X158324500Y-96137399D01*
X156641674Y-96137399D01*
X156630495Y-96118036D01*
X156541964Y-96029505D01*
X156433536Y-95966905D01*
X156433537Y-95966905D01*
X156393224Y-95956103D01*
X156312601Y-95934500D01*
X156187399Y-95934500D01*
X156106775Y-95956103D01*
X156066463Y-95966905D01*
X155958037Y-96029504D01*
X155958034Y-96029506D01*
X155869506Y-96118034D01*
X155869504Y-96118037D01*
X155806905Y-96226463D01*
X155797223Y-96262598D01*
X155774500Y-96347399D01*
X137352778Y-96347399D01*
X137375500Y-96262601D01*
X137375500Y-96137399D01*
X137343095Y-96016464D01*
X137280495Y-95908036D01*
X137191964Y-95819505D01*
X137083536Y-95756905D01*
X137083537Y-95756905D01*
X137043224Y-95746103D01*
X136962601Y-95724500D01*
X136837399Y-95724500D01*
X136756775Y-95746103D01*
X136716463Y-95756905D01*
X136608037Y-95819504D01*
X136608034Y-95819506D01*
X136519506Y-95908034D01*
X136519504Y-95908037D01*
X136456905Y-96016463D01*
X136453410Y-96029506D01*
X136424500Y-96137399D01*
X126948705Y-96137399D01*
X126943095Y-96116464D01*
X126880495Y-96008036D01*
X126791964Y-95919505D01*
X126683536Y-95856905D01*
X126683537Y-95856905D01*
X126631997Y-95843095D01*
X126562601Y-95824500D01*
X126437399Y-95824500D01*
X126368003Y-95843095D01*
X126316463Y-95856905D01*
X126208037Y-95919504D01*
X126208034Y-95919506D01*
X126119506Y-96008034D01*
X126119504Y-96008037D01*
X126056905Y-96116463D01*
X126051295Y-96137399D01*
X126024500Y-96237399D01*
X113400500Y-96237399D01*
X113400500Y-95262399D01*
X114479500Y-95262399D01*
X114479500Y-95387601D01*
X114511905Y-95508536D01*
X114574505Y-95616964D01*
X114663036Y-95705495D01*
X114771464Y-95768095D01*
X114892399Y-95800500D01*
X114892401Y-95800500D01*
X115017599Y-95800500D01*
X115017601Y-95800500D01*
X115138536Y-95768095D01*
X115246964Y-95705495D01*
X115335495Y-95616964D01*
X115398095Y-95508536D01*
X115430500Y-95387601D01*
X115430500Y-95337399D01*
X165524500Y-95337399D01*
X165524500Y-95462601D01*
X165556905Y-95583536D01*
X165619505Y-95691964D01*
X165708036Y-95780495D01*
X165816464Y-95843095D01*
X165937399Y-95875500D01*
X165937401Y-95875500D01*
X166062599Y-95875500D01*
X166062601Y-95875500D01*
X166183536Y-95843095D01*
X166291964Y-95780495D01*
X166380495Y-95691964D01*
X166443095Y-95583536D01*
X166475500Y-95462601D01*
X166475500Y-95337399D01*
X166443095Y-95216464D01*
X166380495Y-95108036D01*
X166291964Y-95019505D01*
X166183536Y-94956905D01*
X166183537Y-94956905D01*
X166137259Y-94944505D01*
X166062601Y-94924500D01*
X165937399Y-94924500D01*
X165862741Y-94944505D01*
X165816463Y-94956905D01*
X165708037Y-95019504D01*
X165708034Y-95019506D01*
X165619506Y-95108034D01*
X165619504Y-95108037D01*
X165556905Y-95216463D01*
X165544596Y-95262400D01*
X165524500Y-95337399D01*
X115430500Y-95337399D01*
X115430500Y-95262399D01*
X115398095Y-95141464D01*
X115335495Y-95033036D01*
X115246964Y-94944505D01*
X115138536Y-94881905D01*
X115138537Y-94881905D01*
X115098224Y-94871103D01*
X115017601Y-94849500D01*
X114892399Y-94849500D01*
X114811775Y-94871103D01*
X114771463Y-94881905D01*
X114663037Y-94944504D01*
X114663034Y-94944506D01*
X114574506Y-95033034D01*
X114574504Y-95033037D01*
X114511905Y-95141463D01*
X114511905Y-95141464D01*
X114479500Y-95262399D01*
X113400500Y-95262399D01*
X113400500Y-94262399D01*
X115769500Y-94262399D01*
X115769500Y-94387601D01*
X115801905Y-94508536D01*
X115864505Y-94616964D01*
X115953036Y-94705495D01*
X116061464Y-94768095D01*
X116182399Y-94800500D01*
X116182401Y-94800500D01*
X116307599Y-94800500D01*
X116307601Y-94800500D01*
X116428536Y-94768095D01*
X116536964Y-94705495D01*
X116625495Y-94616964D01*
X116688095Y-94508536D01*
X116720500Y-94387601D01*
X116720500Y-94262399D01*
X116688095Y-94141464D01*
X116625495Y-94033036D01*
X116536964Y-93944505D01*
X116428536Y-93881905D01*
X116428537Y-93881905D01*
X116388224Y-93871103D01*
X116307601Y-93849500D01*
X116182399Y-93849500D01*
X116101775Y-93871103D01*
X116061463Y-93881905D01*
X115953037Y-93944504D01*
X115953034Y-93944506D01*
X115864506Y-94033034D01*
X115864504Y-94033037D01*
X115801905Y-94141463D01*
X115801905Y-94141464D01*
X115769500Y-94262399D01*
X113400500Y-94262399D01*
X113400500Y-92137399D01*
X151424500Y-92137399D01*
X151424500Y-92262601D01*
X151456905Y-92383536D01*
X151519505Y-92491964D01*
X151608036Y-92580495D01*
X151716464Y-92643095D01*
X151837399Y-92675500D01*
X151837401Y-92675500D01*
X151962599Y-92675500D01*
X151962601Y-92675500D01*
X152083536Y-92643095D01*
X152093402Y-92637399D01*
X168299500Y-92637399D01*
X168299500Y-92762601D01*
X168331905Y-92883536D01*
X168394505Y-92991964D01*
X168483036Y-93080495D01*
X168591464Y-93143095D01*
X168712399Y-93175500D01*
X168712401Y-93175500D01*
X168837599Y-93175500D01*
X168837601Y-93175500D01*
X168958536Y-93143095D01*
X169066964Y-93080495D01*
X169155495Y-92991964D01*
X169218095Y-92883536D01*
X169250500Y-92762601D01*
X169250500Y-92637399D01*
X169218095Y-92516464D01*
X169155495Y-92408036D01*
X169066964Y-92319505D01*
X168958536Y-92256905D01*
X168958537Y-92256905D01*
X168918224Y-92246103D01*
X168837601Y-92224500D01*
X168712399Y-92224500D01*
X168631775Y-92246103D01*
X168591463Y-92256905D01*
X168483037Y-92319504D01*
X168483034Y-92319506D01*
X168394506Y-92408034D01*
X168394504Y-92408037D01*
X168331905Y-92516463D01*
X168331905Y-92516464D01*
X168299500Y-92637399D01*
X152093402Y-92637399D01*
X152191964Y-92580495D01*
X152280495Y-92491964D01*
X152343095Y-92383536D01*
X152375500Y-92262601D01*
X152375500Y-92137399D01*
X152343095Y-92016464D01*
X152280495Y-91908036D01*
X152191964Y-91819505D01*
X152083536Y-91756905D01*
X152083537Y-91756905D01*
X152074711Y-91754540D01*
X151962601Y-91724500D01*
X151837399Y-91724500D01*
X151756775Y-91746103D01*
X151716463Y-91756905D01*
X151608037Y-91819504D01*
X151608034Y-91819506D01*
X151519506Y-91908034D01*
X151519504Y-91908037D01*
X151456905Y-92016463D01*
X151456905Y-92016464D01*
X151424500Y-92137399D01*
X113400500Y-92137399D01*
X113400500Y-91187399D01*
X117024500Y-91187399D01*
X117024500Y-91312601D01*
X117056905Y-91433536D01*
X117119505Y-91541964D01*
X117208036Y-91630495D01*
X117316464Y-91693095D01*
X117437399Y-91725500D01*
X117437401Y-91725500D01*
X117562599Y-91725500D01*
X117562601Y-91725500D01*
X117683536Y-91693095D01*
X117780006Y-91637399D01*
X153524500Y-91637399D01*
X153524500Y-91762601D01*
X153556905Y-91883536D01*
X153619505Y-91991964D01*
X153708036Y-92080495D01*
X153816464Y-92143095D01*
X153937399Y-92175500D01*
X153937401Y-92175500D01*
X154062599Y-92175500D01*
X154062601Y-92175500D01*
X154183536Y-92143095D01*
X154291964Y-92080495D01*
X154380495Y-91991964D01*
X154443095Y-91883536D01*
X154475500Y-91762601D01*
X154475500Y-91637399D01*
X154443095Y-91516464D01*
X154380495Y-91408036D01*
X154291964Y-91319505D01*
X154183536Y-91256905D01*
X154183537Y-91256905D01*
X154143224Y-91246103D01*
X154062601Y-91224500D01*
X153937399Y-91224500D01*
X153856775Y-91246103D01*
X153816463Y-91256905D01*
X153708037Y-91319504D01*
X153708034Y-91319506D01*
X153619506Y-91408034D01*
X153619504Y-91408037D01*
X153556905Y-91516463D01*
X153556905Y-91516464D01*
X153524500Y-91637399D01*
X117780006Y-91637399D01*
X117791964Y-91630495D01*
X117880495Y-91541964D01*
X117943095Y-91433536D01*
X117975500Y-91312601D01*
X117975500Y-91187399D01*
X117943095Y-91066464D01*
X117880495Y-90958036D01*
X117791964Y-90869505D01*
X117683536Y-90806905D01*
X117683537Y-90806905D01*
X117643224Y-90796103D01*
X117562601Y-90774500D01*
X117437399Y-90774500D01*
X117356775Y-90796103D01*
X117316463Y-90806905D01*
X117208037Y-90869504D01*
X117208034Y-90869506D01*
X117119506Y-90958034D01*
X117119504Y-90958037D01*
X117056905Y-91066463D01*
X117056905Y-91066464D01*
X117024500Y-91187399D01*
X113400500Y-91187399D01*
X113400500Y-89037399D01*
X144224500Y-89037399D01*
X144224500Y-89162601D01*
X144256905Y-89283536D01*
X144319505Y-89391964D01*
X144408036Y-89480495D01*
X144516464Y-89543095D01*
X144637399Y-89575500D01*
X144637401Y-89575500D01*
X144762599Y-89575500D01*
X144762601Y-89575500D01*
X144883536Y-89543095D01*
X144991964Y-89480495D01*
X145080495Y-89391964D01*
X145143095Y-89283536D01*
X145175500Y-89162601D01*
X145175500Y-89037399D01*
X145143095Y-88916464D01*
X145080495Y-88808036D01*
X145038843Y-88766384D01*
X146195515Y-88766384D01*
X146195515Y-88891586D01*
X146227920Y-89012521D01*
X146290520Y-89120949D01*
X146379051Y-89209480D01*
X146487479Y-89272080D01*
X146608414Y-89304485D01*
X146608416Y-89304485D01*
X146733614Y-89304485D01*
X146733616Y-89304485D01*
X146854551Y-89272080D01*
X146962979Y-89209480D01*
X147051510Y-89120949D01*
X147114110Y-89012521D01*
X147146515Y-88891586D01*
X147146515Y-88766384D01*
X147114110Y-88645449D01*
X147051510Y-88537021D01*
X146962979Y-88448490D01*
X146854551Y-88385890D01*
X146854552Y-88385890D01*
X146814239Y-88375088D01*
X146733616Y-88353485D01*
X146608414Y-88353485D01*
X146527790Y-88375088D01*
X146487478Y-88385890D01*
X146379052Y-88448489D01*
X146379049Y-88448491D01*
X146290521Y-88537019D01*
X146290519Y-88537022D01*
X146227920Y-88645448D01*
X146211717Y-88705916D01*
X146195515Y-88766384D01*
X145038843Y-88766384D01*
X144991964Y-88719505D01*
X144883536Y-88656905D01*
X144883537Y-88656905D01*
X144840779Y-88645448D01*
X144762601Y-88624500D01*
X144637399Y-88624500D01*
X144559221Y-88645448D01*
X144516463Y-88656905D01*
X144408037Y-88719504D01*
X144408034Y-88719506D01*
X144319506Y-88808034D01*
X144319504Y-88808037D01*
X144256905Y-88916463D01*
X144256905Y-88916464D01*
X144224500Y-89037399D01*
X113400500Y-89037399D01*
X113400500Y-86837399D01*
X145424500Y-86837399D01*
X145424500Y-86962601D01*
X145456905Y-87083536D01*
X145519505Y-87191964D01*
X145608036Y-87280495D01*
X145716464Y-87343095D01*
X145837399Y-87375500D01*
X145837401Y-87375500D01*
X145962599Y-87375500D01*
X145962601Y-87375500D01*
X146083536Y-87343095D01*
X146191964Y-87280495D01*
X146280495Y-87191964D01*
X146343095Y-87083536D01*
X146375500Y-86962601D01*
X146375500Y-86837399D01*
X146343095Y-86716464D01*
X146280495Y-86608036D01*
X146191964Y-86519505D01*
X146083536Y-86456905D01*
X146083537Y-86456905D01*
X146043224Y-86446103D01*
X145962601Y-86424500D01*
X145837399Y-86424500D01*
X145756775Y-86446103D01*
X145716463Y-86456905D01*
X145608037Y-86519504D01*
X145608034Y-86519506D01*
X145519506Y-86608034D01*
X145519504Y-86608037D01*
X145456905Y-86716463D01*
X145456905Y-86716464D01*
X145424500Y-86837399D01*
X113400500Y-86837399D01*
X113400500Y-85562399D01*
X121079500Y-85562399D01*
X121079500Y-85687601D01*
X121111905Y-85808536D01*
X121174505Y-85916964D01*
X121263036Y-86005495D01*
X121371464Y-86068095D01*
X121492399Y-86100500D01*
X121492401Y-86100500D01*
X121617599Y-86100500D01*
X121617601Y-86100500D01*
X121738536Y-86068095D01*
X121846964Y-86005495D01*
X121935495Y-85916964D01*
X121998095Y-85808536D01*
X122030500Y-85687601D01*
X122030500Y-85562399D01*
X122023801Y-85537399D01*
X154324500Y-85537399D01*
X154324500Y-85662601D01*
X154356905Y-85783536D01*
X154419505Y-85891964D01*
X154508036Y-85980495D01*
X154616464Y-86043095D01*
X154737399Y-86075500D01*
X154737401Y-86075500D01*
X154862599Y-86075500D01*
X154862601Y-86075500D01*
X154983536Y-86043095D01*
X155091964Y-85980495D01*
X155180495Y-85891964D01*
X155243095Y-85783536D01*
X155255458Y-85737399D01*
X166599500Y-85737399D01*
X166599500Y-85862601D01*
X166631905Y-85983536D01*
X166694505Y-86091964D01*
X166783036Y-86180495D01*
X166891464Y-86243095D01*
X167012399Y-86275500D01*
X167012401Y-86275500D01*
X167137599Y-86275500D01*
X167137601Y-86275500D01*
X167258536Y-86243095D01*
X167366964Y-86180495D01*
X167455495Y-86091964D01*
X167518095Y-85983536D01*
X167550500Y-85862601D01*
X167550500Y-85737399D01*
X168299500Y-85737399D01*
X168299500Y-85862601D01*
X168331905Y-85983536D01*
X168394505Y-86091964D01*
X168483036Y-86180495D01*
X168591464Y-86243095D01*
X168712399Y-86275500D01*
X168712401Y-86275500D01*
X168837599Y-86275500D01*
X168837601Y-86275500D01*
X168958536Y-86243095D01*
X168968402Y-86237399D01*
X172599500Y-86237399D01*
X172599500Y-86362601D01*
X172631905Y-86483536D01*
X172694505Y-86591964D01*
X172783036Y-86680495D01*
X172891464Y-86743095D01*
X173012399Y-86775500D01*
X173012401Y-86775500D01*
X173137599Y-86775500D01*
X173137601Y-86775500D01*
X173258536Y-86743095D01*
X173366964Y-86680495D01*
X173455495Y-86591964D01*
X173518095Y-86483536D01*
X173550500Y-86362601D01*
X173550500Y-86237399D01*
X173518095Y-86116464D01*
X173455495Y-86008036D01*
X173366964Y-85919505D01*
X173258536Y-85856905D01*
X173258537Y-85856905D01*
X173218224Y-85846103D01*
X173137601Y-85824500D01*
X173012399Y-85824500D01*
X172931775Y-85846103D01*
X172891463Y-85856905D01*
X172783037Y-85919504D01*
X172783034Y-85919506D01*
X172694506Y-86008034D01*
X172694504Y-86008037D01*
X172631905Y-86116463D01*
X172631905Y-86116464D01*
X172599500Y-86237399D01*
X168968402Y-86237399D01*
X169066964Y-86180495D01*
X169155495Y-86091964D01*
X169218095Y-85983536D01*
X169250500Y-85862601D01*
X169250500Y-85737399D01*
X169218095Y-85616464D01*
X169155495Y-85508036D01*
X169066964Y-85419505D01*
X168958536Y-85356905D01*
X168958537Y-85356905D01*
X168949711Y-85354540D01*
X168837601Y-85324500D01*
X168712399Y-85324500D01*
X168631775Y-85346103D01*
X168591463Y-85356905D01*
X168483037Y-85419504D01*
X168483034Y-85419506D01*
X168394506Y-85508034D01*
X168394504Y-85508037D01*
X168331905Y-85616463D01*
X168331905Y-85616464D01*
X168299500Y-85737399D01*
X167550500Y-85737399D01*
X167518095Y-85616464D01*
X167455495Y-85508036D01*
X167366964Y-85419505D01*
X167258536Y-85356905D01*
X167258537Y-85356905D01*
X167218224Y-85346103D01*
X167137601Y-85324500D01*
X167012399Y-85324500D01*
X166931775Y-85346103D01*
X166891463Y-85356905D01*
X166783037Y-85419504D01*
X166783034Y-85419506D01*
X166694506Y-85508034D01*
X166694504Y-85508037D01*
X166631905Y-85616463D01*
X166631905Y-85616464D01*
X166599500Y-85737399D01*
X155255458Y-85737399D01*
X155275500Y-85662601D01*
X155275500Y-85537399D01*
X155243095Y-85416464D01*
X155180495Y-85308036D01*
X155109858Y-85237399D01*
X170999500Y-85237399D01*
X170999500Y-85362601D01*
X171031905Y-85483536D01*
X171094505Y-85591964D01*
X171183036Y-85680495D01*
X171291464Y-85743095D01*
X171412399Y-85775500D01*
X171412401Y-85775500D01*
X171537599Y-85775500D01*
X171537601Y-85775500D01*
X171658536Y-85743095D01*
X171766964Y-85680495D01*
X171855495Y-85591964D01*
X171918095Y-85483536D01*
X171950500Y-85362601D01*
X171950500Y-85237399D01*
X171918095Y-85116464D01*
X171855495Y-85008036D01*
X171766964Y-84919505D01*
X171658536Y-84856905D01*
X171658537Y-84856905D01*
X171618224Y-84846103D01*
X171537601Y-84824500D01*
X171412399Y-84824500D01*
X171331775Y-84846103D01*
X171291463Y-84856905D01*
X171183037Y-84919504D01*
X171183034Y-84919506D01*
X171094506Y-85008034D01*
X171094504Y-85008037D01*
X171031905Y-85116463D01*
X171023053Y-85149500D01*
X170999500Y-85237399D01*
X155109858Y-85237399D01*
X155091964Y-85219505D01*
X154983536Y-85156905D01*
X154983537Y-85156905D01*
X154943224Y-85146103D01*
X154862601Y-85124500D01*
X154737399Y-85124500D01*
X154656775Y-85146103D01*
X154616463Y-85156905D01*
X154508037Y-85219504D01*
X154508034Y-85219506D01*
X154419506Y-85308034D01*
X154419504Y-85308037D01*
X154356905Y-85416463D01*
X154356905Y-85416464D01*
X154324500Y-85537399D01*
X122023801Y-85537399D01*
X121998095Y-85441464D01*
X121935495Y-85333036D01*
X121846964Y-85244505D01*
X121738536Y-85181905D01*
X121738537Y-85181905D01*
X121698224Y-85171103D01*
X121617601Y-85149500D01*
X121492399Y-85149500D01*
X121411775Y-85171103D01*
X121371463Y-85181905D01*
X121263037Y-85244504D01*
X121263034Y-85244506D01*
X121174506Y-85333034D01*
X121174504Y-85333037D01*
X121111905Y-85441463D01*
X121100632Y-85483536D01*
X121079500Y-85562399D01*
X113400500Y-85562399D01*
X113400500Y-82937399D01*
X154324500Y-82937399D01*
X154324500Y-83062601D01*
X154356905Y-83183536D01*
X154419505Y-83291964D01*
X154508036Y-83380495D01*
X154616464Y-83443095D01*
X154737399Y-83475500D01*
X154737401Y-83475500D01*
X154862599Y-83475500D01*
X154862601Y-83475500D01*
X154983536Y-83443095D01*
X155091964Y-83380495D01*
X155180495Y-83291964D01*
X155243095Y-83183536D01*
X155275500Y-83062601D01*
X155275500Y-82937399D01*
X155243095Y-82816464D01*
X155197447Y-82737399D01*
X162024500Y-82737399D01*
X162024500Y-82862601D01*
X162056905Y-82983536D01*
X162119505Y-83091964D01*
X162208036Y-83180495D01*
X162316464Y-83243095D01*
X162437399Y-83275500D01*
X162437401Y-83275500D01*
X162562599Y-83275500D01*
X162562601Y-83275500D01*
X162683536Y-83243095D01*
X162791964Y-83180495D01*
X162880495Y-83091964D01*
X162943095Y-82983536D01*
X162975500Y-82862601D01*
X162975500Y-82737399D01*
X162943095Y-82616464D01*
X162880495Y-82508036D01*
X162791964Y-82419505D01*
X162683536Y-82356905D01*
X162683537Y-82356905D01*
X162643224Y-82346103D01*
X162562601Y-82324500D01*
X162437399Y-82324500D01*
X162356775Y-82346103D01*
X162316463Y-82356905D01*
X162208037Y-82419504D01*
X162208034Y-82419506D01*
X162119506Y-82508034D01*
X162119504Y-82508037D01*
X162056905Y-82616463D01*
X162056905Y-82616464D01*
X162024500Y-82737399D01*
X155197447Y-82737399D01*
X155180495Y-82708036D01*
X155091964Y-82619505D01*
X154983536Y-82556905D01*
X154983537Y-82556905D01*
X154943224Y-82546103D01*
X154862601Y-82524500D01*
X154737399Y-82524500D01*
X154656775Y-82546103D01*
X154616463Y-82556905D01*
X154508037Y-82619504D01*
X154508034Y-82619506D01*
X154419506Y-82708034D01*
X154419504Y-82708037D01*
X154356905Y-82816463D01*
X154356905Y-82816464D01*
X154324500Y-82937399D01*
X113400500Y-82937399D01*
X113400500Y-81537399D01*
X154324500Y-81537399D01*
X154324500Y-81662601D01*
X154356905Y-81783536D01*
X154419505Y-81891964D01*
X154508036Y-81980495D01*
X154616464Y-82043095D01*
X154737399Y-82075500D01*
X154737401Y-82075500D01*
X154862599Y-82075500D01*
X154862601Y-82075500D01*
X154983536Y-82043095D01*
X155091964Y-81980495D01*
X155180495Y-81891964D01*
X155243095Y-81783536D01*
X155275500Y-81662601D01*
X155275500Y-81537399D01*
X155243095Y-81416464D01*
X155180495Y-81308036D01*
X155091964Y-81219505D01*
X154983536Y-81156905D01*
X154983537Y-81156905D01*
X154943224Y-81146103D01*
X154862601Y-81124500D01*
X154737399Y-81124500D01*
X154656775Y-81146103D01*
X154616463Y-81156905D01*
X154508037Y-81219504D01*
X154508034Y-81219506D01*
X154419506Y-81308034D01*
X154419504Y-81308037D01*
X154356905Y-81416463D01*
X154356905Y-81416464D01*
X154324500Y-81537399D01*
X113400500Y-81537399D01*
X113400500Y-79437399D01*
X149724500Y-79437399D01*
X149724500Y-79562601D01*
X149756905Y-79683536D01*
X149819505Y-79791964D01*
X149908036Y-79880495D01*
X150016464Y-79943095D01*
X150137399Y-79975500D01*
X150137401Y-79975500D01*
X150262599Y-79975500D01*
X150262601Y-79975500D01*
X150383536Y-79943095D01*
X150491964Y-79880495D01*
X150580495Y-79791964D01*
X150643095Y-79683536D01*
X150675500Y-79562601D01*
X150675500Y-79437399D01*
X150643095Y-79316464D01*
X150580495Y-79208036D01*
X150491964Y-79119505D01*
X150383536Y-79056905D01*
X150383537Y-79056905D01*
X150311079Y-79037490D01*
X150262601Y-79024500D01*
X150137399Y-79024500D01*
X150088921Y-79037490D01*
X150016463Y-79056905D01*
X149908037Y-79119504D01*
X149908034Y-79119506D01*
X149819506Y-79208034D01*
X149819504Y-79208037D01*
X149756905Y-79316463D01*
X149756905Y-79316464D01*
X149724500Y-79437399D01*
X113400500Y-79437399D01*
X113400500Y-77751577D01*
X185749500Y-77751577D01*
X185749500Y-77948422D01*
X185780290Y-78142826D01*
X185841117Y-78330029D01*
X185930476Y-78505405D01*
X186046172Y-78664646D01*
X186185354Y-78803828D01*
X186344595Y-78919524D01*
X186413613Y-78954690D01*
X186481960Y-78989515D01*
X186532756Y-79037490D01*
X186549551Y-79105311D01*
X186527014Y-79171446D01*
X186481960Y-79210485D01*
X186344594Y-79280476D01*
X186295063Y-79316463D01*
X186185354Y-79396172D01*
X186185352Y-79396174D01*
X186185351Y-79396174D01*
X186046174Y-79535351D01*
X186046174Y-79535352D01*
X186046172Y-79535354D01*
X186026376Y-79562601D01*
X185930476Y-79694594D01*
X185841117Y-79869970D01*
X185780290Y-80057173D01*
X185749500Y-80251577D01*
X185749500Y-80448422D01*
X185780290Y-80642826D01*
X185841117Y-80830029D01*
X185930476Y-81005405D01*
X186046172Y-81164646D01*
X186185354Y-81303828D01*
X186344595Y-81419524D01*
X186413613Y-81454690D01*
X186481960Y-81489515D01*
X186532756Y-81537490D01*
X186549551Y-81605311D01*
X186527014Y-81671446D01*
X186481960Y-81710485D01*
X186344594Y-81780476D01*
X186253741Y-81846485D01*
X186185354Y-81896172D01*
X186185352Y-81896174D01*
X186185351Y-81896174D01*
X186046174Y-82035351D01*
X186046174Y-82035352D01*
X186046172Y-82035354D01*
X186040549Y-82043094D01*
X185930476Y-82194594D01*
X185841117Y-82369970D01*
X185780290Y-82557173D01*
X185749500Y-82751577D01*
X185749500Y-82948422D01*
X185780290Y-83142826D01*
X185841117Y-83330029D01*
X185915239Y-83475500D01*
X185930476Y-83505405D01*
X186046172Y-83664646D01*
X186185354Y-83803828D01*
X186344595Y-83919524D01*
X186413613Y-83954690D01*
X186481960Y-83989515D01*
X186532756Y-84037490D01*
X186549551Y-84105311D01*
X186527014Y-84171446D01*
X186481960Y-84210485D01*
X186344594Y-84280476D01*
X186253741Y-84346485D01*
X186185354Y-84396172D01*
X186185352Y-84396174D01*
X186185351Y-84396174D01*
X186046174Y-84535351D01*
X186046174Y-84535352D01*
X186046172Y-84535354D01*
X185996485Y-84603741D01*
X185930476Y-84694594D01*
X185841117Y-84869970D01*
X185780290Y-85057173D01*
X185749500Y-85251577D01*
X185749500Y-85448422D01*
X185780290Y-85642826D01*
X185841117Y-85830029D01*
X185917783Y-85980493D01*
X185930476Y-86005405D01*
X186046172Y-86164646D01*
X186185354Y-86303828D01*
X186344595Y-86419524D01*
X186413613Y-86454690D01*
X186481960Y-86489515D01*
X186532756Y-86537490D01*
X186549551Y-86605311D01*
X186527014Y-86671446D01*
X186481960Y-86710485D01*
X186344594Y-86780476D01*
X186266248Y-86837399D01*
X186185354Y-86896172D01*
X186185352Y-86896174D01*
X186185351Y-86896174D01*
X186046174Y-87035351D01*
X186046174Y-87035352D01*
X186046172Y-87035354D01*
X186011166Y-87083536D01*
X185930476Y-87194594D01*
X185841117Y-87369970D01*
X185780290Y-87557173D01*
X185749500Y-87751577D01*
X185749500Y-87948422D01*
X185780290Y-88142826D01*
X185841117Y-88330029D01*
X185901477Y-88448491D01*
X185930476Y-88505405D01*
X186046172Y-88664646D01*
X186185354Y-88803828D01*
X186344595Y-88919524D01*
X186413613Y-88954690D01*
X186481960Y-88989515D01*
X186532756Y-89037490D01*
X186549551Y-89105311D01*
X186527014Y-89171446D01*
X186481960Y-89210485D01*
X186344594Y-89280476D01*
X186253741Y-89346485D01*
X186185354Y-89396172D01*
X186185352Y-89396174D01*
X186185351Y-89396174D01*
X186046174Y-89535351D01*
X186046174Y-89535352D01*
X186046172Y-89535354D01*
X186040549Y-89543094D01*
X185930476Y-89694594D01*
X185841117Y-89869970D01*
X185780290Y-90057173D01*
X185749500Y-90251577D01*
X185749500Y-90448422D01*
X185780290Y-90642826D01*
X185841117Y-90830029D01*
X185861232Y-90869506D01*
X185930476Y-91005405D01*
X186046172Y-91164646D01*
X186185354Y-91303828D01*
X186344595Y-91419524D01*
X186427455Y-91461743D01*
X186519970Y-91508882D01*
X186519972Y-91508882D01*
X186519975Y-91508884D01*
X186620317Y-91541487D01*
X186707173Y-91569709D01*
X186901578Y-91600500D01*
X186901583Y-91600500D01*
X187098422Y-91600500D01*
X187292826Y-91569709D01*
X187480025Y-91508884D01*
X187655405Y-91419524D01*
X187814646Y-91303828D01*
X187953828Y-91164646D01*
X188069524Y-91005405D01*
X188158884Y-90830025D01*
X188219709Y-90642826D01*
X188250500Y-90448422D01*
X188250500Y-90251577D01*
X188219709Y-90057173D01*
X188158882Y-89869970D01*
X188069523Y-89694594D01*
X187953828Y-89535354D01*
X187814646Y-89396172D01*
X187655405Y-89280476D01*
X187518038Y-89210484D01*
X187467243Y-89162511D01*
X187450448Y-89094690D01*
X187472985Y-89028555D01*
X187518039Y-88989515D01*
X187655405Y-88919524D01*
X187814646Y-88803828D01*
X187953828Y-88664646D01*
X188069524Y-88505405D01*
X188158884Y-88330025D01*
X188219709Y-88142826D01*
X188250500Y-87948422D01*
X188250500Y-87751577D01*
X188219709Y-87557173D01*
X188158882Y-87369970D01*
X188069523Y-87194594D01*
X188067611Y-87191962D01*
X187953828Y-87035354D01*
X187814646Y-86896172D01*
X187655405Y-86780476D01*
X187518038Y-86710484D01*
X187467243Y-86662511D01*
X187450448Y-86594690D01*
X187472985Y-86528555D01*
X187518039Y-86489515D01*
X187655405Y-86419524D01*
X187814646Y-86303828D01*
X187953828Y-86164646D01*
X188069524Y-86005405D01*
X188158884Y-85830025D01*
X188219709Y-85642826D01*
X188223884Y-85616464D01*
X188250500Y-85448422D01*
X188250500Y-85251577D01*
X188219709Y-85057173D01*
X188158882Y-84869970D01*
X188069523Y-84694594D01*
X187953828Y-84535354D01*
X187814646Y-84396172D01*
X187655405Y-84280476D01*
X187518038Y-84210484D01*
X187467243Y-84162511D01*
X187450448Y-84094690D01*
X187472985Y-84028555D01*
X187518039Y-83989515D01*
X187655405Y-83919524D01*
X187814646Y-83803828D01*
X187953828Y-83664646D01*
X188069524Y-83505405D01*
X188158884Y-83330025D01*
X188219709Y-83142826D01*
X188250500Y-82948422D01*
X188250500Y-82751577D01*
X188219709Y-82557173D01*
X188158882Y-82369970D01*
X188069523Y-82194594D01*
X187953828Y-82035354D01*
X187814646Y-81896172D01*
X187655405Y-81780476D01*
X187518038Y-81710484D01*
X187467243Y-81662511D01*
X187450448Y-81594690D01*
X187472985Y-81528555D01*
X187518039Y-81489515D01*
X187655405Y-81419524D01*
X187814646Y-81303828D01*
X187953828Y-81164646D01*
X188069524Y-81005405D01*
X188158884Y-80830025D01*
X188219709Y-80642826D01*
X188250500Y-80448422D01*
X188250500Y-80251577D01*
X188219709Y-80057173D01*
X188162302Y-79880495D01*
X188158884Y-79869975D01*
X188158882Y-79869972D01*
X188158882Y-79869970D01*
X188069523Y-79694594D01*
X188061489Y-79683536D01*
X187953828Y-79535354D01*
X187814646Y-79396172D01*
X187655405Y-79280476D01*
X187518038Y-79210484D01*
X187467243Y-79162511D01*
X187450448Y-79094690D01*
X187472985Y-79028555D01*
X187518039Y-78989515D01*
X187655405Y-78919524D01*
X187814646Y-78803828D01*
X187953828Y-78664646D01*
X188069524Y-78505405D01*
X188158884Y-78330025D01*
X188219709Y-78142826D01*
X188250500Y-77948422D01*
X188250500Y-77751577D01*
X188219709Y-77557173D01*
X188158882Y-77369970D01*
X188069523Y-77194594D01*
X187953828Y-77035354D01*
X187814646Y-76896172D01*
X187655405Y-76780476D01*
X187480029Y-76691117D01*
X187292826Y-76630290D01*
X187098422Y-76599500D01*
X187098417Y-76599500D01*
X186901583Y-76599500D01*
X186901578Y-76599500D01*
X186707173Y-76630290D01*
X186519970Y-76691117D01*
X186344594Y-76780476D01*
X186253741Y-76846485D01*
X186185354Y-76896172D01*
X186185352Y-76896174D01*
X186185351Y-76896174D01*
X186046174Y-77035351D01*
X186046174Y-77035352D01*
X186046172Y-77035354D01*
X185996485Y-77103741D01*
X185930476Y-77194594D01*
X185841117Y-77369970D01*
X185780290Y-77557173D01*
X185749500Y-77751577D01*
X113400500Y-77751577D01*
X113400500Y-76037399D01*
X163024500Y-76037399D01*
X163024500Y-76162601D01*
X163056905Y-76283536D01*
X163119505Y-76391964D01*
X163208036Y-76480495D01*
X163316464Y-76543095D01*
X163437399Y-76575500D01*
X163437401Y-76575500D01*
X163562599Y-76575500D01*
X163562601Y-76575500D01*
X163683536Y-76543095D01*
X163791964Y-76480495D01*
X163880495Y-76391964D01*
X163943095Y-76283536D01*
X163975500Y-76162601D01*
X163975500Y-76037399D01*
X163943095Y-75916464D01*
X163880495Y-75808036D01*
X163791964Y-75719505D01*
X163683536Y-75656905D01*
X163683537Y-75656905D01*
X163643224Y-75646103D01*
X163562601Y-75624500D01*
X163437399Y-75624500D01*
X163356775Y-75646103D01*
X163316463Y-75656905D01*
X163208037Y-75719504D01*
X163208034Y-75719506D01*
X163119506Y-75808034D01*
X163119504Y-75808037D01*
X163056905Y-75916463D01*
X163056905Y-75916464D01*
X163024500Y-76037399D01*
X113400500Y-76037399D01*
X113400500Y-71380247D01*
X116942046Y-71380247D01*
X116942046Y-73419752D01*
X116953677Y-73478229D01*
X116953678Y-73478230D01*
X116997993Y-73544552D01*
X117064315Y-73588867D01*
X117064316Y-73588868D01*
X117122793Y-73600499D01*
X117122796Y-73600500D01*
X117122798Y-73600500D01*
X119162296Y-73600500D01*
X119162297Y-73600499D01*
X119177114Y-73597552D01*
X119220775Y-73588868D01*
X119220775Y-73588867D01*
X119220777Y-73588867D01*
X119287098Y-73544552D01*
X119331413Y-73478231D01*
X119331413Y-73478229D01*
X119331414Y-73478229D01*
X119343045Y-73419752D01*
X119343046Y-73419750D01*
X119343046Y-72305513D01*
X137742046Y-72305513D01*
X137742046Y-72494486D01*
X137771605Y-72681118D01*
X137830000Y-72860836D01*
X137915786Y-73029199D01*
X138026856Y-73182073D01*
X138160473Y-73315690D01*
X138313347Y-73426760D01*
X138392893Y-73467290D01*
X138481709Y-73512545D01*
X138481711Y-73512545D01*
X138481714Y-73512547D01*
X138558200Y-73537399D01*
X138661427Y-73570940D01*
X138848060Y-73600500D01*
X138848065Y-73600500D01*
X139037032Y-73600500D01*
X139223664Y-73570940D01*
X139326892Y-73537399D01*
X164224500Y-73537399D01*
X164224500Y-73662601D01*
X164256905Y-73783536D01*
X164319505Y-73891964D01*
X164408036Y-73980495D01*
X164516464Y-74043095D01*
X164637399Y-74075500D01*
X164637401Y-74075500D01*
X164762599Y-74075500D01*
X164762601Y-74075500D01*
X164883536Y-74043095D01*
X164991964Y-73980495D01*
X165080495Y-73891964D01*
X165143095Y-73783536D01*
X165175500Y-73662601D01*
X165175500Y-73537399D01*
X165168801Y-73512399D01*
X168099500Y-73512399D01*
X168099500Y-73637601D01*
X168131905Y-73758536D01*
X168194505Y-73866964D01*
X168283036Y-73955495D01*
X168391464Y-74018095D01*
X168512399Y-74050500D01*
X168512401Y-74050500D01*
X168637599Y-74050500D01*
X168637601Y-74050500D01*
X168758536Y-74018095D01*
X168866964Y-73955495D01*
X168955495Y-73866964D01*
X169018095Y-73758536D01*
X169050500Y-73637601D01*
X169050500Y-73512399D01*
X169018095Y-73391464D01*
X168955495Y-73283036D01*
X168866964Y-73194505D01*
X168758536Y-73131905D01*
X168758537Y-73131905D01*
X168718224Y-73121103D01*
X168637601Y-73099500D01*
X168512399Y-73099500D01*
X168431775Y-73121103D01*
X168391463Y-73131905D01*
X168283037Y-73194504D01*
X168283034Y-73194506D01*
X168194506Y-73283034D01*
X168194504Y-73283037D01*
X168131905Y-73391463D01*
X168122447Y-73426760D01*
X168099500Y-73512399D01*
X165168801Y-73512399D01*
X165143095Y-73416464D01*
X165080495Y-73308036D01*
X164991964Y-73219505D01*
X164883536Y-73156905D01*
X164883537Y-73156905D01*
X164843224Y-73146103D01*
X164762601Y-73124500D01*
X164637399Y-73124500D01*
X164556775Y-73146103D01*
X164516463Y-73156905D01*
X164408037Y-73219504D01*
X164408034Y-73219506D01*
X164319506Y-73308034D01*
X164319504Y-73308037D01*
X164256905Y-73416463D01*
X164254146Y-73426759D01*
X164224500Y-73537399D01*
X139326892Y-73537399D01*
X139403378Y-73512547D01*
X139403669Y-73512399D01*
X139407577Y-73510407D01*
X139571745Y-73426760D01*
X139724619Y-73315690D01*
X139858236Y-73182073D01*
X139969306Y-73029199D01*
X140055093Y-72860832D01*
X140113486Y-72681118D01*
X140129423Y-72580495D01*
X140143046Y-72494486D01*
X140143046Y-72305513D01*
X140118204Y-72148669D01*
X140116419Y-72137399D01*
X151024500Y-72137399D01*
X151024500Y-72262601D01*
X151056905Y-72383536D01*
X151119505Y-72491964D01*
X151208036Y-72580495D01*
X151316464Y-72643095D01*
X151437399Y-72675500D01*
X151437401Y-72675500D01*
X151562599Y-72675500D01*
X151562601Y-72675500D01*
X151683536Y-72643095D01*
X151791964Y-72580495D01*
X151880495Y-72491964D01*
X151943095Y-72383536D01*
X151975500Y-72262601D01*
X151975500Y-72137399D01*
X151943095Y-72016464D01*
X151880495Y-71908036D01*
X151791964Y-71819505D01*
X151683536Y-71756905D01*
X151683537Y-71756905D01*
X151643224Y-71746103D01*
X151562601Y-71724500D01*
X151437399Y-71724500D01*
X151356775Y-71746103D01*
X151316463Y-71756905D01*
X151208037Y-71819504D01*
X151208034Y-71819506D01*
X151119506Y-71908034D01*
X151119504Y-71908037D01*
X151056905Y-72016463D01*
X151056905Y-72016464D01*
X151024500Y-72137399D01*
X140116419Y-72137399D01*
X140113486Y-72118881D01*
X140063372Y-71964648D01*
X140055093Y-71939168D01*
X140055091Y-71939165D01*
X140055091Y-71939163D01*
X139994121Y-71819504D01*
X139969306Y-71770801D01*
X139858236Y-71617927D01*
X139724619Y-71484310D01*
X139571745Y-71373240D01*
X139403382Y-71287454D01*
X139223664Y-71229059D01*
X139037032Y-71199500D01*
X139037027Y-71199500D01*
X138848065Y-71199500D01*
X138848060Y-71199500D01*
X138661427Y-71229059D01*
X138481709Y-71287454D01*
X138313346Y-71373240D01*
X138226125Y-71436610D01*
X138160473Y-71484310D01*
X138160471Y-71484312D01*
X138160470Y-71484312D01*
X138026858Y-71617924D01*
X138026858Y-71617925D01*
X138026856Y-71617927D01*
X137979156Y-71683579D01*
X137915786Y-71770800D01*
X137830000Y-71939163D01*
X137771605Y-72118881D01*
X137742046Y-72305513D01*
X119343046Y-72305513D01*
X119343046Y-71380249D01*
X119343045Y-71380247D01*
X119331414Y-71321770D01*
X119331413Y-71321769D01*
X119287098Y-71255447D01*
X119220776Y-71211132D01*
X119220775Y-71211131D01*
X119162298Y-71199500D01*
X119162294Y-71199500D01*
X117122798Y-71199500D01*
X117122793Y-71199500D01*
X117064316Y-71211131D01*
X117064315Y-71211132D01*
X116997993Y-71255447D01*
X116953678Y-71321769D01*
X116953677Y-71321770D01*
X116942046Y-71380247D01*
X113400500Y-71380247D01*
X113400500Y-70537399D01*
X169674500Y-70537399D01*
X169674500Y-70662601D01*
X169706905Y-70783536D01*
X169769505Y-70891964D01*
X169858036Y-70980495D01*
X169966464Y-71043095D01*
X170087399Y-71075500D01*
X170087401Y-71075500D01*
X170212599Y-71075500D01*
X170212601Y-71075500D01*
X170333536Y-71043095D01*
X170441964Y-70980495D01*
X170530495Y-70891964D01*
X170593095Y-70783536D01*
X170625500Y-70662601D01*
X170625500Y-70537399D01*
X170593095Y-70416464D01*
X170530495Y-70308036D01*
X170441964Y-70219505D01*
X170333536Y-70156905D01*
X170333537Y-70156905D01*
X170293224Y-70146103D01*
X170212601Y-70124500D01*
X170087399Y-70124500D01*
X170006775Y-70146103D01*
X169966463Y-70156905D01*
X169858037Y-70219504D01*
X169858034Y-70219506D01*
X169769506Y-70308034D01*
X169769504Y-70308037D01*
X169706905Y-70416463D01*
X169706905Y-70416464D01*
X169674500Y-70537399D01*
X113400500Y-70537399D01*
X113400500Y-69187399D01*
X166624500Y-69187399D01*
X166624500Y-69312601D01*
X166656905Y-69433536D01*
X166719505Y-69541964D01*
X166808036Y-69630495D01*
X166916464Y-69693095D01*
X167037399Y-69725500D01*
X167037401Y-69725500D01*
X167162599Y-69725500D01*
X167162601Y-69725500D01*
X167283536Y-69693095D01*
X167391964Y-69630495D01*
X167480495Y-69541964D01*
X167543095Y-69433536D01*
X167575500Y-69312601D01*
X167575500Y-69187399D01*
X167543095Y-69066464D01*
X167480495Y-68958036D01*
X167391964Y-68869505D01*
X167283536Y-68806905D01*
X167283537Y-68806905D01*
X167243224Y-68796103D01*
X167162601Y-68774500D01*
X167037399Y-68774500D01*
X166956775Y-68796103D01*
X166916463Y-68806905D01*
X166808037Y-68869504D01*
X166808034Y-68869506D01*
X166719506Y-68958034D01*
X166719504Y-68958037D01*
X166656905Y-69066463D01*
X166656905Y-69066464D01*
X166624500Y-69187399D01*
X113400500Y-69187399D01*
X113400500Y-68037399D01*
X152424500Y-68037399D01*
X152424500Y-68162601D01*
X152456905Y-68283536D01*
X152519505Y-68391964D01*
X152608036Y-68480495D01*
X152716464Y-68543095D01*
X152837399Y-68575500D01*
X152837401Y-68575500D01*
X152962599Y-68575500D01*
X152962601Y-68575500D01*
X153083536Y-68543095D01*
X153191964Y-68480495D01*
X153280495Y-68391964D01*
X153343095Y-68283536D01*
X153375500Y-68162601D01*
X153375500Y-68037399D01*
X153362102Y-67987399D01*
X166624500Y-67987399D01*
X166624500Y-68112601D01*
X166656905Y-68233536D01*
X166719505Y-68341964D01*
X166808036Y-68430495D01*
X166916464Y-68493095D01*
X167037399Y-68525500D01*
X167037401Y-68525500D01*
X167162599Y-68525500D01*
X167162601Y-68525500D01*
X167283536Y-68493095D01*
X167391964Y-68430495D01*
X167480495Y-68341964D01*
X167543095Y-68233536D01*
X167575500Y-68112601D01*
X167575500Y-67987399D01*
X167543095Y-67866464D01*
X167480495Y-67758036D01*
X167391964Y-67669505D01*
X167283536Y-67606905D01*
X167283537Y-67606905D01*
X167243224Y-67596103D01*
X167162601Y-67574500D01*
X167037399Y-67574500D01*
X166956775Y-67596103D01*
X166916463Y-67606905D01*
X166808037Y-67669504D01*
X166808034Y-67669506D01*
X166719506Y-67758034D01*
X166719504Y-67758037D01*
X166656905Y-67866463D01*
X166656905Y-67866464D01*
X166624500Y-67987399D01*
X153362102Y-67987399D01*
X153343095Y-67916464D01*
X153280495Y-67808036D01*
X153191964Y-67719505D01*
X153083536Y-67656905D01*
X153083537Y-67656905D01*
X153043224Y-67646103D01*
X152962601Y-67624500D01*
X152837399Y-67624500D01*
X152756775Y-67646103D01*
X152716463Y-67656905D01*
X152608037Y-67719504D01*
X152608034Y-67719506D01*
X152519506Y-67808034D01*
X152519504Y-67808037D01*
X152456905Y-67916463D01*
X152456905Y-67916464D01*
X152424500Y-68037399D01*
X113400500Y-68037399D01*
X113400500Y-66787399D01*
X166624500Y-66787399D01*
X166624500Y-66912601D01*
X166656905Y-67033536D01*
X166719505Y-67141964D01*
X166808036Y-67230495D01*
X166916464Y-67293095D01*
X167037399Y-67325500D01*
X167037401Y-67325500D01*
X167162599Y-67325500D01*
X167162601Y-67325500D01*
X167283536Y-67293095D01*
X167391964Y-67230495D01*
X167480495Y-67141964D01*
X167543095Y-67033536D01*
X167575500Y-66912601D01*
X167575500Y-66787399D01*
X167543095Y-66666464D01*
X167480495Y-66558036D01*
X167391964Y-66469505D01*
X167283536Y-66406905D01*
X167283537Y-66406905D01*
X167243224Y-66396103D01*
X167162601Y-66374500D01*
X167037399Y-66374500D01*
X166956775Y-66396103D01*
X166916463Y-66406905D01*
X166808037Y-66469504D01*
X166808034Y-66469506D01*
X166719506Y-66558034D01*
X166719504Y-66558037D01*
X166656905Y-66666463D01*
X166656905Y-66666464D01*
X166624500Y-66787399D01*
X113400500Y-66787399D01*
X113400500Y-65537399D01*
X166624500Y-65537399D01*
X166624500Y-65662601D01*
X166656905Y-65783536D01*
X166719505Y-65891964D01*
X166808036Y-65980495D01*
X166916464Y-66043095D01*
X167037399Y-66075500D01*
X167037401Y-66075500D01*
X167162599Y-66075500D01*
X167162601Y-66075500D01*
X167283536Y-66043095D01*
X167391964Y-65980495D01*
X167480495Y-65891964D01*
X167543095Y-65783536D01*
X167575500Y-65662601D01*
X167575500Y-65537399D01*
X167543095Y-65416464D01*
X167480495Y-65308036D01*
X167391964Y-65219505D01*
X167283536Y-65156905D01*
X167283537Y-65156905D01*
X167243224Y-65146103D01*
X167162601Y-65124500D01*
X167037399Y-65124500D01*
X166956775Y-65146103D01*
X166916463Y-65156905D01*
X166808037Y-65219504D01*
X166808034Y-65219506D01*
X166719506Y-65308034D01*
X166719504Y-65308037D01*
X166656905Y-65416463D01*
X166656905Y-65416464D01*
X166624500Y-65537399D01*
X113400500Y-65537399D01*
X113400500Y-58634108D01*
X159499500Y-58634108D01*
X159499500Y-58765892D01*
X159511117Y-58809248D01*
X159533608Y-58893187D01*
X159558882Y-58936962D01*
X159599500Y-59007314D01*
X159692686Y-59100500D01*
X159806814Y-59166392D01*
X159934108Y-59200500D01*
X159934110Y-59200500D01*
X160065890Y-59200500D01*
X160065892Y-59200500D01*
X160109251Y-59188882D01*
X160179097Y-59190543D01*
X160236961Y-59229705D01*
X160264466Y-59293933D01*
X160261118Y-59340748D01*
X160249500Y-59384108D01*
X160249500Y-59515892D01*
X160249500Y-59515893D01*
X160261118Y-59559250D01*
X160259455Y-59629100D01*
X160220292Y-59686962D01*
X160156064Y-59714466D01*
X160109251Y-59711118D01*
X160065892Y-59699500D01*
X159934108Y-59699500D01*
X159806812Y-59733608D01*
X159692686Y-59799500D01*
X159692683Y-59799502D01*
X159599502Y-59892683D01*
X159599500Y-59892686D01*
X159533608Y-60006812D01*
X159511118Y-60090749D01*
X159499500Y-60134108D01*
X159499500Y-60265892D01*
X159511117Y-60309248D01*
X159533608Y-60393187D01*
X159558882Y-60436962D01*
X159599500Y-60507314D01*
X159692686Y-60600500D01*
X159806814Y-60666392D01*
X159934108Y-60700500D01*
X159934110Y-60700500D01*
X160065890Y-60700500D01*
X160065892Y-60700500D01*
X160109251Y-60688882D01*
X160179097Y-60690543D01*
X160236961Y-60729705D01*
X160264466Y-60793933D01*
X160261118Y-60840749D01*
X160249500Y-60884108D01*
X160249500Y-61015891D01*
X160283608Y-61143187D01*
X160316554Y-61200250D01*
X160349500Y-61257314D01*
X160442686Y-61350500D01*
X160556814Y-61416392D01*
X160684108Y-61450500D01*
X160684110Y-61450500D01*
X160815890Y-61450500D01*
X160815892Y-61450500D01*
X160943186Y-61416392D01*
X161057314Y-61350500D01*
X161150500Y-61257314D01*
X161216392Y-61143186D01*
X161250500Y-61015892D01*
X161250500Y-60884108D01*
X161238882Y-60840748D01*
X161240544Y-60770901D01*
X161279705Y-60713038D01*
X161343934Y-60685533D01*
X161390747Y-60688881D01*
X161434108Y-60700500D01*
X161434110Y-60700500D01*
X161565890Y-60700500D01*
X161565892Y-60700500D01*
X161609251Y-60688882D01*
X161679097Y-60690543D01*
X161736961Y-60729705D01*
X161764466Y-60793933D01*
X161761118Y-60840749D01*
X161749500Y-60884108D01*
X161749500Y-61015891D01*
X161783608Y-61143187D01*
X161816554Y-61200250D01*
X161849500Y-61257314D01*
X161942686Y-61350500D01*
X162056814Y-61416392D01*
X162184108Y-61450500D01*
X162184110Y-61450500D01*
X162315890Y-61450500D01*
X162315892Y-61450500D01*
X162443186Y-61416392D01*
X162557314Y-61350500D01*
X162650500Y-61257314D01*
X162716392Y-61143186D01*
X162750500Y-61015892D01*
X162750500Y-60884108D01*
X162738882Y-60840748D01*
X162740544Y-60770901D01*
X162779705Y-60713038D01*
X162843934Y-60685533D01*
X162890747Y-60688881D01*
X162934108Y-60700500D01*
X162934110Y-60700500D01*
X163065890Y-60700500D01*
X163065892Y-60700500D01*
X163193186Y-60666392D01*
X163307314Y-60600500D01*
X163400500Y-60507314D01*
X163466392Y-60393186D01*
X163500500Y-60265892D01*
X163500500Y-60134108D01*
X163466392Y-60006814D01*
X163400500Y-59892686D01*
X163307314Y-59799500D01*
X163234246Y-59757314D01*
X163193187Y-59733608D01*
X163103045Y-59709455D01*
X163065892Y-59699500D01*
X162934108Y-59699500D01*
X162890749Y-59711118D01*
X162820899Y-59709455D01*
X162763037Y-59670292D01*
X162735533Y-59606063D01*
X162738882Y-59559250D01*
X162750500Y-59515892D01*
X162750500Y-59384108D01*
X162738882Y-59340748D01*
X162740544Y-59270901D01*
X162779705Y-59213038D01*
X162843934Y-59185533D01*
X162890747Y-59188881D01*
X162934108Y-59200500D01*
X162934110Y-59200500D01*
X163065890Y-59200500D01*
X163065892Y-59200500D01*
X163193186Y-59166392D01*
X163307314Y-59100500D01*
X163400500Y-59007314D01*
X163466392Y-58893186D01*
X163500500Y-58765892D01*
X163500500Y-58634108D01*
X163478386Y-58551577D01*
X185749500Y-58551577D01*
X185749500Y-58748422D01*
X185780290Y-58942826D01*
X185841117Y-59130029D01*
X185891905Y-59229705D01*
X185930476Y-59305405D01*
X186046172Y-59464646D01*
X186185354Y-59603828D01*
X186344595Y-59719524D01*
X186372237Y-59733608D01*
X186481960Y-59789515D01*
X186532756Y-59837490D01*
X186549551Y-59905311D01*
X186527014Y-59971446D01*
X186481960Y-60010485D01*
X186344594Y-60080476D01*
X186253741Y-60146485D01*
X186185354Y-60196172D01*
X186185352Y-60196174D01*
X186185351Y-60196174D01*
X186046174Y-60335351D01*
X186046174Y-60335352D01*
X186046172Y-60335354D01*
X186004154Y-60393186D01*
X185930476Y-60494594D01*
X185841117Y-60669970D01*
X185780290Y-60857173D01*
X185749500Y-61051577D01*
X185749500Y-61248422D01*
X185780290Y-61442826D01*
X185841117Y-61630029D01*
X185930476Y-61805405D01*
X186046172Y-61964646D01*
X186185354Y-62103828D01*
X186344595Y-62219524D01*
X186413613Y-62254690D01*
X186481960Y-62289515D01*
X186532756Y-62337490D01*
X186549551Y-62405311D01*
X186527014Y-62471446D01*
X186481960Y-62510485D01*
X186344594Y-62580476D01*
X186253741Y-62646485D01*
X186185354Y-62696172D01*
X186185352Y-62696174D01*
X186185351Y-62696174D01*
X186046174Y-62835351D01*
X186046174Y-62835352D01*
X186046172Y-62835354D01*
X185996485Y-62903741D01*
X185930476Y-62994594D01*
X185841117Y-63169970D01*
X185780290Y-63357173D01*
X185749500Y-63551577D01*
X185749500Y-63748422D01*
X185780290Y-63942826D01*
X185841117Y-64130029D01*
X185930476Y-64305405D01*
X186046172Y-64464646D01*
X186185354Y-64603828D01*
X186344595Y-64719524D01*
X186413613Y-64754690D01*
X186481960Y-64789515D01*
X186532756Y-64837490D01*
X186549551Y-64905311D01*
X186527014Y-64971446D01*
X186481960Y-65010485D01*
X186344594Y-65080476D01*
X186284001Y-65124500D01*
X186185354Y-65196172D01*
X186185352Y-65196174D01*
X186185351Y-65196174D01*
X186046174Y-65335351D01*
X186046174Y-65335352D01*
X186046172Y-65335354D01*
X185996485Y-65403741D01*
X185930476Y-65494594D01*
X185841117Y-65669970D01*
X185780290Y-65857173D01*
X185749500Y-66051577D01*
X185749500Y-66248422D01*
X185780290Y-66442826D01*
X185841117Y-66630029D01*
X185921302Y-66787400D01*
X185930476Y-66805405D01*
X186046172Y-66964646D01*
X186185354Y-67103828D01*
X186344595Y-67219524D01*
X186413613Y-67254690D01*
X186481960Y-67289515D01*
X186532756Y-67337490D01*
X186549551Y-67405311D01*
X186527014Y-67471446D01*
X186481960Y-67510485D01*
X186344594Y-67580476D01*
X186284001Y-67624500D01*
X186185354Y-67696172D01*
X186185352Y-67696174D01*
X186185351Y-67696174D01*
X186046174Y-67835351D01*
X186046174Y-67835352D01*
X186046172Y-67835354D01*
X186023570Y-67866463D01*
X185930476Y-67994594D01*
X185841117Y-68169970D01*
X185780290Y-68357173D01*
X185749500Y-68551577D01*
X185749500Y-68748422D01*
X185780290Y-68942826D01*
X185841117Y-69130029D01*
X185930476Y-69305405D01*
X186046172Y-69464646D01*
X186185354Y-69603828D01*
X186344595Y-69719524D01*
X186356324Y-69725500D01*
X186481960Y-69789515D01*
X186532756Y-69837490D01*
X186549551Y-69905311D01*
X186527014Y-69971446D01*
X186481960Y-70010485D01*
X186344594Y-70080476D01*
X186284001Y-70124500D01*
X186185354Y-70196172D01*
X186185352Y-70196174D01*
X186185351Y-70196174D01*
X186046174Y-70335351D01*
X186046174Y-70335352D01*
X186046172Y-70335354D01*
X185996485Y-70403741D01*
X185930476Y-70494594D01*
X185841117Y-70669970D01*
X185780290Y-70857173D01*
X185749500Y-71051577D01*
X185749500Y-71248422D01*
X185780290Y-71442826D01*
X185841117Y-71630029D01*
X185889253Y-71724500D01*
X185930476Y-71805405D01*
X186046172Y-71964646D01*
X186185354Y-72103828D01*
X186344595Y-72219524D01*
X186427455Y-72261743D01*
X186519970Y-72308882D01*
X186519972Y-72308882D01*
X186519975Y-72308884D01*
X186620317Y-72341487D01*
X186707173Y-72369709D01*
X186901578Y-72400500D01*
X186901583Y-72400500D01*
X187098422Y-72400500D01*
X187292826Y-72369709D01*
X187480025Y-72308884D01*
X187655405Y-72219524D01*
X187814646Y-72103828D01*
X187953828Y-71964646D01*
X188069524Y-71805405D01*
X188158884Y-71630025D01*
X188219709Y-71442826D01*
X188229620Y-71380249D01*
X188250500Y-71248422D01*
X188250500Y-71051577D01*
X188219709Y-70857173D01*
X188158882Y-70669970D01*
X188091334Y-70537400D01*
X188069524Y-70494595D01*
X187953828Y-70335354D01*
X187814646Y-70196172D01*
X187655405Y-70080476D01*
X187518038Y-70010484D01*
X187467243Y-69962511D01*
X187450448Y-69894690D01*
X187472985Y-69828555D01*
X187518039Y-69789515D01*
X187655405Y-69719524D01*
X187814646Y-69603828D01*
X187953828Y-69464646D01*
X188069524Y-69305405D01*
X188158884Y-69130025D01*
X188219709Y-68942826D01*
X188241237Y-68806905D01*
X188250500Y-68748422D01*
X188250500Y-68551577D01*
X188219709Y-68357173D01*
X188158882Y-68169970D01*
X188091334Y-68037400D01*
X188069524Y-67994595D01*
X187953828Y-67835354D01*
X187814646Y-67696172D01*
X187655405Y-67580476D01*
X187518038Y-67510484D01*
X187467243Y-67462511D01*
X187450448Y-67394690D01*
X187472985Y-67328555D01*
X187518039Y-67289515D01*
X187655405Y-67219524D01*
X187814646Y-67103828D01*
X187953828Y-66964646D01*
X188069524Y-66805405D01*
X188158884Y-66630025D01*
X188219709Y-66442826D01*
X188230531Y-66374500D01*
X188250500Y-66248422D01*
X188250500Y-66051577D01*
X188219709Y-65857173D01*
X188158882Y-65669970D01*
X188091334Y-65537400D01*
X188069524Y-65494595D01*
X187953828Y-65335354D01*
X187814646Y-65196172D01*
X187655405Y-65080476D01*
X187518038Y-65010484D01*
X187467243Y-64962511D01*
X187450448Y-64894690D01*
X187472985Y-64828555D01*
X187518039Y-64789515D01*
X187655405Y-64719524D01*
X187814646Y-64603828D01*
X187953828Y-64464646D01*
X188069524Y-64305405D01*
X188158884Y-64130025D01*
X188219709Y-63942826D01*
X188250500Y-63748422D01*
X188250500Y-63551577D01*
X188219709Y-63357173D01*
X188158882Y-63169970D01*
X188069523Y-62994594D01*
X187953828Y-62835354D01*
X187814646Y-62696172D01*
X187655405Y-62580476D01*
X187518038Y-62510484D01*
X187467243Y-62462511D01*
X187450448Y-62394690D01*
X187472985Y-62328555D01*
X187518039Y-62289515D01*
X187655405Y-62219524D01*
X187814646Y-62103828D01*
X187953828Y-61964646D01*
X188069524Y-61805405D01*
X188158884Y-61630025D01*
X188219709Y-61442826D01*
X188234332Y-61350499D01*
X188250500Y-61248422D01*
X188250500Y-61051577D01*
X188219709Y-60857173D01*
X188187100Y-60756814D01*
X188158884Y-60669975D01*
X188158882Y-60669972D01*
X188158882Y-60669970D01*
X188097499Y-60549500D01*
X188069524Y-60494595D01*
X187953828Y-60335354D01*
X187814646Y-60196172D01*
X187655405Y-60080476D01*
X187518038Y-60010484D01*
X187467243Y-59962511D01*
X187450448Y-59894690D01*
X187472985Y-59828555D01*
X187518039Y-59789515D01*
X187581237Y-59757314D01*
X187655405Y-59719524D01*
X187814646Y-59603828D01*
X187953828Y-59464646D01*
X188069524Y-59305405D01*
X188158884Y-59130025D01*
X188219709Y-58942826D01*
X188233451Y-58856063D01*
X188250500Y-58748422D01*
X188250500Y-58551577D01*
X188219709Y-58357173D01*
X188178548Y-58230495D01*
X188158884Y-58169975D01*
X188158882Y-58169972D01*
X188158882Y-58169970D01*
X188089365Y-58033536D01*
X188069524Y-57994595D01*
X187953828Y-57835354D01*
X187814646Y-57696172D01*
X187655405Y-57580476D01*
X187594611Y-57549500D01*
X187480029Y-57491117D01*
X187292826Y-57430290D01*
X187098422Y-57399500D01*
X187098417Y-57399500D01*
X186901583Y-57399500D01*
X186901578Y-57399500D01*
X186707173Y-57430290D01*
X186519970Y-57491117D01*
X186344594Y-57580476D01*
X186258975Y-57642683D01*
X186185354Y-57696172D01*
X186185352Y-57696174D01*
X186185351Y-57696174D01*
X186046174Y-57835351D01*
X186046174Y-57835352D01*
X186046172Y-57835354D01*
X185996485Y-57903741D01*
X185930476Y-57994594D01*
X185841117Y-58169970D01*
X185780290Y-58357173D01*
X185749500Y-58551577D01*
X163478386Y-58551577D01*
X163466392Y-58506814D01*
X163400500Y-58392686D01*
X163307314Y-58299500D01*
X163234246Y-58257314D01*
X163193187Y-58233608D01*
X163103045Y-58209455D01*
X163065892Y-58199500D01*
X162934108Y-58199500D01*
X162890749Y-58211118D01*
X162820899Y-58209455D01*
X162763037Y-58170292D01*
X162735533Y-58106063D01*
X162738882Y-58059250D01*
X162750500Y-58015892D01*
X162750500Y-57884108D01*
X162716392Y-57756814D01*
X162650500Y-57642686D01*
X162557314Y-57549500D01*
X162500250Y-57516554D01*
X162443187Y-57483608D01*
X162379539Y-57466554D01*
X162315892Y-57449500D01*
X162184108Y-57449500D01*
X162056812Y-57483608D01*
X161942686Y-57549500D01*
X161942683Y-57549502D01*
X161849502Y-57642683D01*
X161849500Y-57642686D01*
X161783608Y-57756812D01*
X161762564Y-57835351D01*
X161749500Y-57884108D01*
X161749500Y-58015892D01*
X161749500Y-58015893D01*
X161761118Y-58059250D01*
X161759455Y-58129100D01*
X161720292Y-58186962D01*
X161656064Y-58214466D01*
X161609251Y-58211118D01*
X161565892Y-58199500D01*
X161434108Y-58199500D01*
X161390749Y-58211118D01*
X161320899Y-58209455D01*
X161263037Y-58170292D01*
X161235533Y-58106063D01*
X161238882Y-58059250D01*
X161250500Y-58015892D01*
X161250500Y-57884108D01*
X161216392Y-57756814D01*
X161150500Y-57642686D01*
X161057314Y-57549500D01*
X161000250Y-57516554D01*
X160943187Y-57483608D01*
X160879539Y-57466554D01*
X160815892Y-57449500D01*
X160684108Y-57449500D01*
X160556812Y-57483608D01*
X160442686Y-57549500D01*
X160442683Y-57549502D01*
X160349502Y-57642683D01*
X160349500Y-57642686D01*
X160283608Y-57756812D01*
X160262564Y-57835351D01*
X160249500Y-57884108D01*
X160249500Y-58015892D01*
X160249500Y-58015893D01*
X160261118Y-58059250D01*
X160259455Y-58129100D01*
X160220292Y-58186962D01*
X160156064Y-58214466D01*
X160109251Y-58211118D01*
X160065892Y-58199500D01*
X159934108Y-58199500D01*
X159806812Y-58233608D01*
X159692686Y-58299500D01*
X159692683Y-58299502D01*
X159599502Y-58392683D01*
X159599500Y-58392686D01*
X159533608Y-58506812D01*
X159511118Y-58590749D01*
X159499500Y-58634108D01*
X113400500Y-58634108D01*
X113400500Y-57787399D01*
X133874500Y-57787399D01*
X133874500Y-57912601D01*
X133906905Y-58033536D01*
X133969505Y-58141964D01*
X134058036Y-58230495D01*
X134166464Y-58293095D01*
X134287399Y-58325500D01*
X134287401Y-58325500D01*
X134412599Y-58325500D01*
X134412601Y-58325500D01*
X134533536Y-58293095D01*
X134641964Y-58230495D01*
X134730495Y-58141964D01*
X134793095Y-58033536D01*
X134825500Y-57912601D01*
X134825500Y-57787399D01*
X134793095Y-57666464D01*
X134730495Y-57558036D01*
X134641964Y-57469505D01*
X134533536Y-57406905D01*
X134533537Y-57406905D01*
X134493224Y-57396103D01*
X134412601Y-57374500D01*
X134287399Y-57374500D01*
X134206775Y-57396103D01*
X134166463Y-57406905D01*
X134058037Y-57469504D01*
X134058034Y-57469506D01*
X133969506Y-57558034D01*
X133969504Y-57558037D01*
X133906905Y-57666463D01*
X133898944Y-57696174D01*
X133874500Y-57787399D01*
X113400500Y-57787399D01*
X113400500Y-56312399D01*
X126774500Y-56312399D01*
X126774500Y-56437601D01*
X126806905Y-56558536D01*
X126869505Y-56666964D01*
X126958036Y-56755495D01*
X127066464Y-56818095D01*
X127187399Y-56850500D01*
X127187401Y-56850500D01*
X127312599Y-56850500D01*
X127312601Y-56850500D01*
X127433536Y-56818095D01*
X127541964Y-56755495D01*
X127630495Y-56666964D01*
X127676431Y-56587399D01*
X155074500Y-56587399D01*
X155074500Y-56712601D01*
X155106905Y-56833536D01*
X155169505Y-56941964D01*
X155258036Y-57030495D01*
X155366464Y-57093095D01*
X155487399Y-57125500D01*
X155487401Y-57125500D01*
X155612599Y-57125500D01*
X155612601Y-57125500D01*
X155733536Y-57093095D01*
X155841964Y-57030495D01*
X155930495Y-56941964D01*
X155993095Y-56833536D01*
X156025500Y-56712601D01*
X156025500Y-56587399D01*
X155993095Y-56466464D01*
X155930495Y-56358036D01*
X155841964Y-56269505D01*
X155733536Y-56206905D01*
X155733537Y-56206905D01*
X155675910Y-56191464D01*
X155612601Y-56174500D01*
X155487399Y-56174500D01*
X155424090Y-56191464D01*
X155366463Y-56206905D01*
X155258037Y-56269504D01*
X155258034Y-56269506D01*
X155169506Y-56358034D01*
X155169504Y-56358037D01*
X155106905Y-56466463D01*
X155106905Y-56466464D01*
X155074500Y-56587399D01*
X127676431Y-56587399D01*
X127693095Y-56558536D01*
X127725500Y-56437601D01*
X127725500Y-56312399D01*
X127693095Y-56191464D01*
X127630495Y-56083036D01*
X127541964Y-55994505D01*
X127433536Y-55931905D01*
X127433537Y-55931905D01*
X127393224Y-55921103D01*
X127312601Y-55899500D01*
X127187399Y-55899500D01*
X127106775Y-55921103D01*
X127066463Y-55931905D01*
X126958037Y-55994504D01*
X126958034Y-55994506D01*
X126869506Y-56083034D01*
X126869504Y-56083037D01*
X126806905Y-56191463D01*
X126790702Y-56251931D01*
X126774500Y-56312399D01*
X113400500Y-56312399D01*
X113400500Y-55262399D01*
X124124500Y-55262399D01*
X124124500Y-55387601D01*
X124156905Y-55508536D01*
X124219505Y-55616964D01*
X124308036Y-55705495D01*
X124416464Y-55768095D01*
X124537399Y-55800500D01*
X124537401Y-55800500D01*
X124662599Y-55800500D01*
X124662601Y-55800500D01*
X124783536Y-55768095D01*
X124891964Y-55705495D01*
X124980495Y-55616964D01*
X125043095Y-55508536D01*
X125075500Y-55387601D01*
X125075500Y-55287399D01*
X131124500Y-55287399D01*
X131124500Y-55412601D01*
X131156905Y-55533536D01*
X131219505Y-55641964D01*
X131308036Y-55730495D01*
X131416464Y-55793095D01*
X131537399Y-55825500D01*
X131537401Y-55825500D01*
X131662599Y-55825500D01*
X131662601Y-55825500D01*
X131783536Y-55793095D01*
X131891964Y-55730495D01*
X131980495Y-55641964D01*
X132043095Y-55533536D01*
X132075500Y-55412601D01*
X132075500Y-55287399D01*
X138404500Y-55287399D01*
X138404500Y-55412601D01*
X138436905Y-55533536D01*
X138499505Y-55641964D01*
X138588036Y-55730495D01*
X138696464Y-55793095D01*
X138817399Y-55825500D01*
X138817401Y-55825500D01*
X138942599Y-55825500D01*
X138942601Y-55825500D01*
X139063536Y-55793095D01*
X139171964Y-55730495D01*
X139260495Y-55641964D01*
X139323095Y-55533536D01*
X139355500Y-55412601D01*
X139355500Y-55337399D01*
X147154500Y-55337399D01*
X147154500Y-55462601D01*
X147186905Y-55583536D01*
X147249505Y-55691964D01*
X147338036Y-55780495D01*
X147446464Y-55843095D01*
X147567399Y-55875500D01*
X147567401Y-55875500D01*
X147692599Y-55875500D01*
X147692601Y-55875500D01*
X147813536Y-55843095D01*
X147921964Y-55780495D01*
X148010495Y-55691964D01*
X148073095Y-55583536D01*
X148105500Y-55462601D01*
X148105500Y-55337399D01*
X148073095Y-55216464D01*
X148010495Y-55108036D01*
X147921964Y-55019505D01*
X147813536Y-54956905D01*
X147813537Y-54956905D01*
X147767259Y-54944505D01*
X147692601Y-54924500D01*
X147567399Y-54924500D01*
X147492741Y-54944505D01*
X147446463Y-54956905D01*
X147338037Y-55019504D01*
X147338034Y-55019506D01*
X147249506Y-55108034D01*
X147249504Y-55108037D01*
X147186905Y-55216463D01*
X147174596Y-55262400D01*
X147154500Y-55337399D01*
X139355500Y-55337399D01*
X139355500Y-55287399D01*
X139323095Y-55166464D01*
X139260495Y-55058036D01*
X139171964Y-54969505D01*
X139063536Y-54906905D01*
X139063537Y-54906905D01*
X139023224Y-54896103D01*
X138942601Y-54874500D01*
X138817399Y-54874500D01*
X138736775Y-54896103D01*
X138696463Y-54906905D01*
X138588037Y-54969504D01*
X138588034Y-54969506D01*
X138499506Y-55058034D01*
X138499504Y-55058037D01*
X138436905Y-55166463D01*
X138436905Y-55166464D01*
X138404500Y-55287399D01*
X132075500Y-55287399D01*
X132043095Y-55166464D01*
X131980495Y-55058036D01*
X131891964Y-54969505D01*
X131783536Y-54906905D01*
X131783537Y-54906905D01*
X131743224Y-54896103D01*
X131662601Y-54874500D01*
X131537399Y-54874500D01*
X131456775Y-54896103D01*
X131416463Y-54906905D01*
X131308037Y-54969504D01*
X131308034Y-54969506D01*
X131219506Y-55058034D01*
X131219504Y-55058037D01*
X131156905Y-55166463D01*
X131156905Y-55166464D01*
X131124500Y-55287399D01*
X125075500Y-55287399D01*
X125075500Y-55262399D01*
X125043095Y-55141464D01*
X124980495Y-55033036D01*
X124891964Y-54944505D01*
X124783536Y-54881905D01*
X124783537Y-54881905D01*
X124743224Y-54871103D01*
X124662601Y-54849500D01*
X124537399Y-54849500D01*
X124456775Y-54871103D01*
X124416463Y-54881905D01*
X124308037Y-54944504D01*
X124308034Y-54944506D01*
X124219506Y-55033034D01*
X124219504Y-55033037D01*
X124156905Y-55141463D01*
X124156905Y-55141464D01*
X124124500Y-55262399D01*
X113400500Y-55262399D01*
X113400500Y-54037399D01*
X154834500Y-54037399D01*
X154834500Y-54162601D01*
X154866905Y-54283536D01*
X154929505Y-54391964D01*
X155018036Y-54480495D01*
X155126464Y-54543095D01*
X155247399Y-54575500D01*
X155247401Y-54575500D01*
X155372599Y-54575500D01*
X155372601Y-54575500D01*
X155493536Y-54543095D01*
X155601964Y-54480495D01*
X155690495Y-54391964D01*
X155753095Y-54283536D01*
X155785500Y-54162601D01*
X155785500Y-54037399D01*
X169934500Y-54037399D01*
X169934500Y-54162601D01*
X169966905Y-54283536D01*
X170029505Y-54391964D01*
X170118036Y-54480495D01*
X170226464Y-54543095D01*
X170347399Y-54575500D01*
X170347401Y-54575500D01*
X170472599Y-54575500D01*
X170472601Y-54575500D01*
X170593536Y-54543095D01*
X170701964Y-54480495D01*
X170790495Y-54391964D01*
X170853095Y-54283536D01*
X170885500Y-54162601D01*
X170885500Y-54037399D01*
X172334500Y-54037399D01*
X172334500Y-54162601D01*
X172366905Y-54283536D01*
X172429505Y-54391964D01*
X172518036Y-54480495D01*
X172626464Y-54543095D01*
X172747399Y-54575500D01*
X172747401Y-54575500D01*
X172872599Y-54575500D01*
X172872601Y-54575500D01*
X172993536Y-54543095D01*
X173101964Y-54480495D01*
X173190495Y-54391964D01*
X173253095Y-54283536D01*
X173285500Y-54162601D01*
X173285500Y-54087399D01*
X181874500Y-54087399D01*
X181874500Y-54212601D01*
X181906905Y-54333536D01*
X181969505Y-54441964D01*
X182058036Y-54530495D01*
X182166464Y-54593095D01*
X182287399Y-54625500D01*
X182287401Y-54625500D01*
X182412599Y-54625500D01*
X182412601Y-54625500D01*
X182533536Y-54593095D01*
X182641964Y-54530495D01*
X182730495Y-54441964D01*
X182793095Y-54333536D01*
X182825500Y-54212601D01*
X182825500Y-54087399D01*
X182793095Y-53966464D01*
X182730495Y-53858036D01*
X182641964Y-53769505D01*
X182533536Y-53706905D01*
X182533537Y-53706905D01*
X182483617Y-53693529D01*
X182412601Y-53674500D01*
X182287399Y-53674500D01*
X182216383Y-53693529D01*
X182166463Y-53706905D01*
X182058037Y-53769504D01*
X182058034Y-53769506D01*
X181969506Y-53858034D01*
X181969504Y-53858037D01*
X181906905Y-53966463D01*
X181906905Y-53966464D01*
X181874500Y-54087399D01*
X173285500Y-54087399D01*
X173285500Y-54037399D01*
X173253095Y-53916464D01*
X173190495Y-53808036D01*
X173101964Y-53719505D01*
X172993536Y-53656905D01*
X172993537Y-53656905D01*
X172953224Y-53646103D01*
X172872601Y-53624500D01*
X172747399Y-53624500D01*
X172666775Y-53646103D01*
X172626463Y-53656905D01*
X172518037Y-53719504D01*
X172518034Y-53719506D01*
X172429506Y-53808034D01*
X172429504Y-53808037D01*
X172366905Y-53916463D01*
X172366905Y-53916464D01*
X172334500Y-54037399D01*
X170885500Y-54037399D01*
X170853095Y-53916464D01*
X170790495Y-53808036D01*
X170701964Y-53719505D01*
X170593536Y-53656905D01*
X170593537Y-53656905D01*
X170553224Y-53646103D01*
X170472601Y-53624500D01*
X170347399Y-53624500D01*
X170266775Y-53646103D01*
X170226463Y-53656905D01*
X170118037Y-53719504D01*
X170118034Y-53719506D01*
X170029506Y-53808034D01*
X170029504Y-53808037D01*
X169966905Y-53916463D01*
X169966905Y-53916464D01*
X169934500Y-54037399D01*
X155785500Y-54037399D01*
X155753095Y-53916464D01*
X155690495Y-53808036D01*
X155601964Y-53719505D01*
X155493536Y-53656905D01*
X155493537Y-53656905D01*
X155453224Y-53646103D01*
X155372601Y-53624500D01*
X155247399Y-53624500D01*
X155166775Y-53646103D01*
X155126463Y-53656905D01*
X155018037Y-53719504D01*
X155018034Y-53719506D01*
X154929506Y-53808034D01*
X154929504Y-53808037D01*
X154866905Y-53916463D01*
X154866905Y-53916464D01*
X154834500Y-54037399D01*
X113400500Y-54037399D01*
X113400500Y-50613051D01*
X113400649Y-50606967D01*
X113408778Y-50441491D01*
X114149500Y-50441491D01*
X114149500Y-50778508D01*
X114187231Y-51113381D01*
X114187233Y-51113397D01*
X114262223Y-51441953D01*
X114262227Y-51441965D01*
X114373532Y-51760054D01*
X114519752Y-52063683D01*
X114566498Y-52138079D01*
X114699054Y-52349039D01*
X114909175Y-52612523D01*
X115147477Y-52850825D01*
X115410961Y-53060946D01*
X115696314Y-53240246D01*
X115999949Y-53386469D01*
X116238848Y-53470063D01*
X116318034Y-53497772D01*
X116318046Y-53497776D01*
X116646606Y-53572767D01*
X116981492Y-53610499D01*
X116981493Y-53610500D01*
X116981496Y-53610500D01*
X117318507Y-53610500D01*
X117318507Y-53610499D01*
X117653394Y-53572767D01*
X117981954Y-53497776D01*
X118300051Y-53386469D01*
X118603686Y-53240246D01*
X118665418Y-53201457D01*
X138464499Y-53201457D01*
X138492379Y-53341614D01*
X138492381Y-53341620D01*
X138547069Y-53473650D01*
X138547074Y-53473659D01*
X138626467Y-53592478D01*
X138626470Y-53592482D01*
X138727517Y-53693529D01*
X138727521Y-53693532D01*
X138846340Y-53772925D01*
X138846346Y-53772928D01*
X138846347Y-53772929D01*
X138978380Y-53827619D01*
X138978384Y-53827619D01*
X138978385Y-53827620D01*
X139118542Y-53855500D01*
X139118545Y-53855500D01*
X139261457Y-53855500D01*
X139355751Y-53836742D01*
X139401620Y-53827619D01*
X139533653Y-53772929D01*
X139652479Y-53693532D01*
X139753532Y-53592479D01*
X139832929Y-53473653D01*
X139887619Y-53341620D01*
X139915500Y-53201455D01*
X139915500Y-52229833D01*
X139935185Y-52162794D01*
X139987989Y-52117039D01*
X140057147Y-52107095D01*
X140120703Y-52136120D01*
X140158477Y-52194898D01*
X140159262Y-52197695D01*
X140176905Y-52263536D01*
X140239505Y-52371964D01*
X140328036Y-52460495D01*
X140436464Y-52523095D01*
X140557399Y-52555500D01*
X140557401Y-52555500D01*
X140682599Y-52555500D01*
X140682601Y-52555500D01*
X140803536Y-52523095D01*
X140911964Y-52460495D01*
X141000495Y-52371964D01*
X141063095Y-52263536D01*
X141095500Y-52142601D01*
X141095500Y-52017399D01*
X145924500Y-52017399D01*
X145924500Y-52142601D01*
X145956905Y-52263536D01*
X146019505Y-52371964D01*
X146108036Y-52460495D01*
X146216464Y-52523095D01*
X146337399Y-52555500D01*
X146337401Y-52555500D01*
X146462599Y-52555500D01*
X146462601Y-52555500D01*
X146583536Y-52523095D01*
X146691964Y-52460495D01*
X146780495Y-52371964D01*
X146843095Y-52263536D01*
X146860725Y-52197737D01*
X146897091Y-52138079D01*
X146959938Y-52107550D01*
X147029313Y-52115845D01*
X147083191Y-52160331D01*
X147104465Y-52226883D01*
X147104500Y-52229833D01*
X147104500Y-53201455D01*
X147104500Y-53201457D01*
X147104499Y-53201457D01*
X147132379Y-53341614D01*
X147132381Y-53341620D01*
X147187069Y-53473650D01*
X147187074Y-53473659D01*
X147266467Y-53592478D01*
X147266470Y-53592482D01*
X147367517Y-53693529D01*
X147367521Y-53693532D01*
X147486340Y-53772925D01*
X147486346Y-53772928D01*
X147486347Y-53772929D01*
X147618380Y-53827619D01*
X147618384Y-53827619D01*
X147618385Y-53827620D01*
X147758542Y-53855500D01*
X147758545Y-53855500D01*
X147901457Y-53855500D01*
X147995751Y-53836742D01*
X148041620Y-53827619D01*
X148173653Y-53772929D01*
X148292479Y-53693532D01*
X148393532Y-53592479D01*
X148472929Y-53473653D01*
X148527619Y-53341620D01*
X148555500Y-53201455D01*
X148555500Y-53037399D01*
X149634500Y-53037399D01*
X149634500Y-53162601D01*
X149666905Y-53283536D01*
X149729505Y-53391964D01*
X149818036Y-53480495D01*
X149926464Y-53543095D01*
X150047399Y-53575500D01*
X150047401Y-53575500D01*
X150172599Y-53575500D01*
X150172601Y-53575500D01*
X150293536Y-53543095D01*
X150401964Y-53480495D01*
X150490495Y-53391964D01*
X150553095Y-53283536D01*
X150585500Y-53162601D01*
X150585500Y-53037399D01*
X151434500Y-53037399D01*
X151434500Y-53162601D01*
X151466905Y-53283536D01*
X151529505Y-53391964D01*
X151618036Y-53480495D01*
X151726464Y-53543095D01*
X151847399Y-53575500D01*
X151847401Y-53575500D01*
X151972599Y-53575500D01*
X151972601Y-53575500D01*
X152093536Y-53543095D01*
X152201964Y-53480495D01*
X152290495Y-53391964D01*
X152353095Y-53283536D01*
X152385500Y-53162601D01*
X152385500Y-53037399D01*
X152353095Y-52916464D01*
X152290495Y-52808036D01*
X152201964Y-52719505D01*
X152093536Y-52656905D01*
X152093537Y-52656905D01*
X152053224Y-52646103D01*
X151972601Y-52624500D01*
X151847399Y-52624500D01*
X151766775Y-52646103D01*
X151726463Y-52656905D01*
X151618037Y-52719504D01*
X151618034Y-52719506D01*
X151529506Y-52808034D01*
X151529504Y-52808037D01*
X151466905Y-52916463D01*
X151466905Y-52916464D01*
X151434500Y-53037399D01*
X150585500Y-53037399D01*
X150553095Y-52916464D01*
X150490495Y-52808036D01*
X150401964Y-52719505D01*
X150293536Y-52656905D01*
X150293537Y-52656905D01*
X150253224Y-52646103D01*
X150172601Y-52624500D01*
X150047399Y-52624500D01*
X149966775Y-52646103D01*
X149926463Y-52656905D01*
X149818037Y-52719504D01*
X149818034Y-52719506D01*
X149729506Y-52808034D01*
X149729504Y-52808037D01*
X149666905Y-52916463D01*
X149666905Y-52916464D01*
X149634500Y-53037399D01*
X148555500Y-53037399D01*
X148555500Y-51958545D01*
X148555500Y-51958542D01*
X148527620Y-51818385D01*
X148527619Y-51818384D01*
X148527619Y-51818380D01*
X148472929Y-51686347D01*
X148472928Y-51686346D01*
X148472925Y-51686340D01*
X148393532Y-51567521D01*
X148393529Y-51567517D01*
X148292482Y-51466470D01*
X148292478Y-51466467D01*
X148173659Y-51387074D01*
X148173650Y-51387069D01*
X148041620Y-51332381D01*
X148041614Y-51332379D01*
X147901457Y-51304500D01*
X147901455Y-51304500D01*
X147758545Y-51304500D01*
X147758543Y-51304500D01*
X147618385Y-51332379D01*
X147618379Y-51332381D01*
X147486349Y-51387069D01*
X147486340Y-51387074D01*
X147367521Y-51466467D01*
X147367517Y-51466470D01*
X147266470Y-51567517D01*
X147266467Y-51567521D01*
X147187074Y-51686340D01*
X147187069Y-51686349D01*
X147132381Y-51818379D01*
X147132379Y-51818385D01*
X147103962Y-51961245D01*
X147071577Y-52023156D01*
X147010861Y-52057730D01*
X146941091Y-52053989D01*
X146884420Y-52013123D01*
X146862571Y-51969150D01*
X146843095Y-51896464D01*
X146780495Y-51788036D01*
X146691964Y-51699505D01*
X146583536Y-51636905D01*
X146583537Y-51636905D01*
X146540973Y-51625500D01*
X146462601Y-51604500D01*
X146337399Y-51604500D01*
X146259027Y-51625500D01*
X146216463Y-51636905D01*
X146108037Y-51699504D01*
X146108034Y-51699506D01*
X146019506Y-51788034D01*
X146019504Y-51788037D01*
X145956905Y-51896463D01*
X145956905Y-51896464D01*
X145924500Y-52017399D01*
X141095500Y-52017399D01*
X141063095Y-51896464D01*
X141000495Y-51788036D01*
X140911964Y-51699505D01*
X140803536Y-51636905D01*
X140803537Y-51636905D01*
X140760973Y-51625500D01*
X140682601Y-51604500D01*
X140557399Y-51604500D01*
X140479027Y-51625500D01*
X140436463Y-51636905D01*
X140328037Y-51699504D01*
X140328034Y-51699506D01*
X140239506Y-51788034D01*
X140239504Y-51788037D01*
X140176905Y-51896463D01*
X140176903Y-51896468D01*
X140157428Y-51969148D01*
X140121063Y-52028808D01*
X140058215Y-52059336D01*
X139988840Y-52051041D01*
X139934962Y-52006554D01*
X139916037Y-51961244D01*
X139887620Y-51818387D01*
X139887620Y-51818385D01*
X139887619Y-51818380D01*
X139832929Y-51686347D01*
X139832928Y-51686346D01*
X139832925Y-51686340D01*
X139753532Y-51567521D01*
X139753529Y-51567517D01*
X139652482Y-51466470D01*
X139652478Y-51466467D01*
X139533659Y-51387074D01*
X139533650Y-51387069D01*
X139401620Y-51332381D01*
X139401614Y-51332379D01*
X139261457Y-51304500D01*
X139261455Y-51304500D01*
X139118545Y-51304500D01*
X139118543Y-51304500D01*
X138978385Y-51332379D01*
X138978379Y-51332381D01*
X138846349Y-51387069D01*
X138846340Y-51387074D01*
X138727521Y-51466467D01*
X138727517Y-51466470D01*
X138626470Y-51567517D01*
X138626467Y-51567521D01*
X138547074Y-51686340D01*
X138547069Y-51686349D01*
X138492381Y-51818379D01*
X138492379Y-51818385D01*
X138464500Y-51958542D01*
X138464500Y-51958545D01*
X138464500Y-53201455D01*
X138464500Y-53201457D01*
X138464499Y-53201457D01*
X118665418Y-53201457D01*
X118889039Y-53060946D01*
X119152523Y-52850825D01*
X119390825Y-52612523D01*
X119510545Y-52462399D01*
X124024500Y-52462399D01*
X124024500Y-52587601D01*
X124056905Y-52708536D01*
X124119505Y-52816964D01*
X124208036Y-52905495D01*
X124316464Y-52968095D01*
X124437399Y-53000500D01*
X124437401Y-53000500D01*
X124562599Y-53000500D01*
X124562601Y-53000500D01*
X124683536Y-52968095D01*
X124791964Y-52905495D01*
X124880495Y-52816964D01*
X124943095Y-52708536D01*
X124975500Y-52587601D01*
X124975500Y-52487399D01*
X131174500Y-52487399D01*
X131174500Y-52612601D01*
X131206905Y-52733536D01*
X131269505Y-52841964D01*
X131358036Y-52930495D01*
X131466464Y-52993095D01*
X131587399Y-53025500D01*
X131587401Y-53025500D01*
X131712599Y-53025500D01*
X131712601Y-53025500D01*
X131833536Y-52993095D01*
X131941964Y-52930495D01*
X132030495Y-52841964D01*
X132093095Y-52733536D01*
X132125500Y-52612601D01*
X132125500Y-52487399D01*
X132093095Y-52366464D01*
X132030495Y-52258036D01*
X131941964Y-52169505D01*
X131833536Y-52106905D01*
X131833537Y-52106905D01*
X131793224Y-52096103D01*
X131712601Y-52074500D01*
X131587399Y-52074500D01*
X131506775Y-52096103D01*
X131466463Y-52106905D01*
X131358037Y-52169504D01*
X131358034Y-52169506D01*
X131269506Y-52258034D01*
X131269504Y-52258037D01*
X131206905Y-52366463D01*
X131206905Y-52366464D01*
X131174500Y-52487399D01*
X124975500Y-52487399D01*
X124975500Y-52462399D01*
X124943095Y-52341464D01*
X124880495Y-52233036D01*
X124791964Y-52144505D01*
X124683536Y-52081905D01*
X124683537Y-52081905D01*
X124643224Y-52071103D01*
X124562601Y-52049500D01*
X124437399Y-52049500D01*
X124356775Y-52071103D01*
X124316463Y-52081905D01*
X124208037Y-52144504D01*
X124208034Y-52144506D01*
X124119506Y-52233034D01*
X124119504Y-52233037D01*
X124056905Y-52341463D01*
X124056905Y-52341464D01*
X124024500Y-52462399D01*
X119510545Y-52462399D01*
X119600946Y-52349039D01*
X119780246Y-52063686D01*
X119926469Y-51760051D01*
X120037776Y-51441954D01*
X120112767Y-51113394D01*
X120112767Y-51113386D01*
X120112769Y-51113380D01*
X120118513Y-51062399D01*
X127524500Y-51062399D01*
X127524500Y-51187601D01*
X127556905Y-51308536D01*
X127619505Y-51416964D01*
X127708036Y-51505495D01*
X127816464Y-51568095D01*
X127937399Y-51600500D01*
X127937401Y-51600500D01*
X128062599Y-51600500D01*
X128062601Y-51600500D01*
X128183536Y-51568095D01*
X128291964Y-51505495D01*
X128380495Y-51416964D01*
X128443095Y-51308536D01*
X128475500Y-51187601D01*
X128475500Y-51087399D01*
X134774500Y-51087399D01*
X134774500Y-51212601D01*
X134806905Y-51333536D01*
X134869505Y-51441964D01*
X134958036Y-51530495D01*
X135066464Y-51593095D01*
X135187399Y-51625500D01*
X135187401Y-51625500D01*
X135312599Y-51625500D01*
X135312601Y-51625500D01*
X135433536Y-51593095D01*
X135541964Y-51530495D01*
X135630495Y-51441964D01*
X135693095Y-51333536D01*
X135725500Y-51212601D01*
X135725500Y-51087399D01*
X135693095Y-50966464D01*
X135630495Y-50858036D01*
X135541964Y-50769505D01*
X135433536Y-50706905D01*
X135433537Y-50706905D01*
X135393224Y-50696103D01*
X135312601Y-50674500D01*
X135187399Y-50674500D01*
X135106775Y-50696103D01*
X135066463Y-50706905D01*
X134958037Y-50769504D01*
X134958034Y-50769506D01*
X134869506Y-50858034D01*
X134869504Y-50858037D01*
X134806905Y-50966463D01*
X134806905Y-50966464D01*
X134774500Y-51087399D01*
X128475500Y-51087399D01*
X128475500Y-51062399D01*
X128443095Y-50941464D01*
X128380495Y-50833036D01*
X128291964Y-50744505D01*
X128183536Y-50681905D01*
X128183537Y-50681905D01*
X128143224Y-50671103D01*
X128062601Y-50649500D01*
X127937399Y-50649500D01*
X127856775Y-50671103D01*
X127816463Y-50681905D01*
X127708037Y-50744504D01*
X127708034Y-50744506D01*
X127619506Y-50833034D01*
X127619504Y-50833037D01*
X127556905Y-50941463D01*
X127556905Y-50941464D01*
X127524500Y-51062399D01*
X120118513Y-51062399D01*
X120120993Y-51040388D01*
X120120993Y-51040387D01*
X120135905Y-50908034D01*
X120150500Y-50778504D01*
X120150500Y-50441496D01*
X120112767Y-50106606D01*
X120037776Y-49778046D01*
X120006128Y-49687601D01*
X119973805Y-49595226D01*
X119962318Y-49562399D01*
X124024500Y-49562399D01*
X124024500Y-49687601D01*
X124056905Y-49808536D01*
X124119505Y-49916964D01*
X124208036Y-50005495D01*
X124316464Y-50068095D01*
X124437399Y-50100500D01*
X124437401Y-50100500D01*
X124562599Y-50100500D01*
X124562601Y-50100500D01*
X124683536Y-50068095D01*
X124791964Y-50005495D01*
X124880495Y-49916964D01*
X124943095Y-49808536D01*
X124975500Y-49687601D01*
X124975500Y-49687399D01*
X131174500Y-49687399D01*
X131174500Y-49812601D01*
X131206905Y-49933536D01*
X131269505Y-50041964D01*
X131358036Y-50130495D01*
X131466464Y-50193095D01*
X131587399Y-50225500D01*
X131587401Y-50225500D01*
X131712599Y-50225500D01*
X131712601Y-50225500D01*
X131833536Y-50193095D01*
X131941964Y-50130495D01*
X132030495Y-50041964D01*
X132093095Y-49933536D01*
X132125500Y-49812601D01*
X132125500Y-49687399D01*
X132093095Y-49566464D01*
X132030495Y-49458036D01*
X131941964Y-49369505D01*
X131833536Y-49306905D01*
X131833537Y-49306905D01*
X131793224Y-49296103D01*
X131712601Y-49274500D01*
X131587399Y-49274500D01*
X131506775Y-49296103D01*
X131466463Y-49306905D01*
X131358037Y-49369504D01*
X131358034Y-49369506D01*
X131269506Y-49458034D01*
X131269504Y-49458037D01*
X131206905Y-49566463D01*
X131206905Y-49566464D01*
X131174500Y-49687399D01*
X124975500Y-49687399D01*
X124975500Y-49562399D01*
X124943095Y-49441464D01*
X124880495Y-49333036D01*
X124791964Y-49244505D01*
X124683536Y-49181905D01*
X124683537Y-49181905D01*
X124637722Y-49169629D01*
X124562601Y-49149500D01*
X124437399Y-49149500D01*
X124362278Y-49169629D01*
X124316463Y-49181905D01*
X124208037Y-49244504D01*
X124208034Y-49244506D01*
X124119506Y-49333034D01*
X124119504Y-49333037D01*
X124056905Y-49441463D01*
X124056512Y-49442929D01*
X124024500Y-49562399D01*
X119962318Y-49562399D01*
X119946025Y-49515837D01*
X119926469Y-49459949D01*
X119780246Y-49156314D01*
X119601258Y-48871457D01*
X138464499Y-48871457D01*
X138492379Y-49011614D01*
X138492381Y-49011620D01*
X138547069Y-49143650D01*
X138547074Y-49143659D01*
X138626467Y-49262478D01*
X138626470Y-49262482D01*
X138727517Y-49363529D01*
X138727521Y-49363532D01*
X138846340Y-49442925D01*
X138846346Y-49442928D01*
X138846347Y-49442929D01*
X138978380Y-49497619D01*
X138978384Y-49497619D01*
X138978385Y-49497620D01*
X139118542Y-49525500D01*
X139118545Y-49525500D01*
X139261457Y-49525500D01*
X139355751Y-49506742D01*
X139401620Y-49497619D01*
X139533653Y-49442929D01*
X139652479Y-49363532D01*
X139753532Y-49262479D01*
X139832929Y-49143653D01*
X139887619Y-49011620D01*
X139915500Y-48871457D01*
X147104499Y-48871457D01*
X147132379Y-49011614D01*
X147132381Y-49011620D01*
X147187069Y-49143650D01*
X147187074Y-49143659D01*
X147266467Y-49262478D01*
X147266470Y-49262482D01*
X147367517Y-49363529D01*
X147367521Y-49363532D01*
X147486340Y-49442925D01*
X147486346Y-49442928D01*
X147486347Y-49442929D01*
X147618380Y-49497619D01*
X147618384Y-49497619D01*
X147618385Y-49497620D01*
X147758542Y-49525500D01*
X147758545Y-49525500D01*
X147901457Y-49525500D01*
X147995751Y-49506742D01*
X148041620Y-49497619D01*
X148173653Y-49442929D01*
X148292479Y-49363532D01*
X148393532Y-49262479D01*
X148472929Y-49143653D01*
X148527619Y-49011620D01*
X148555500Y-48871455D01*
X148555500Y-47928545D01*
X148555500Y-47928542D01*
X148527620Y-47788385D01*
X148527619Y-47788384D01*
X148527619Y-47788380D01*
X148472929Y-47656347D01*
X148472928Y-47656346D01*
X148472925Y-47656340D01*
X148393532Y-47537521D01*
X148393529Y-47537517D01*
X148292482Y-47436470D01*
X148292478Y-47436467D01*
X148173659Y-47357074D01*
X148173650Y-47357069D01*
X148041620Y-47302381D01*
X148041614Y-47302379D01*
X147901457Y-47274500D01*
X147901455Y-47274500D01*
X147758545Y-47274500D01*
X147758543Y-47274500D01*
X147618385Y-47302379D01*
X147618379Y-47302381D01*
X147486349Y-47357069D01*
X147486340Y-47357074D01*
X147367521Y-47436467D01*
X147367517Y-47436470D01*
X147266470Y-47537517D01*
X147266467Y-47537521D01*
X147187074Y-47656340D01*
X147187069Y-47656349D01*
X147132381Y-47788379D01*
X147132379Y-47788385D01*
X147104500Y-47928542D01*
X147104500Y-47928545D01*
X147104500Y-48871455D01*
X147104500Y-48871457D01*
X147104499Y-48871457D01*
X139915500Y-48871457D01*
X139915500Y-48871455D01*
X139915500Y-47928545D01*
X139915500Y-47928542D01*
X139887620Y-47788385D01*
X139887619Y-47788384D01*
X139887619Y-47788380D01*
X139832929Y-47656347D01*
X139832928Y-47656346D01*
X139832925Y-47656340D01*
X139753532Y-47537521D01*
X139753529Y-47537517D01*
X139652482Y-47436470D01*
X139652478Y-47436467D01*
X139533659Y-47357074D01*
X139533650Y-47357069D01*
X139401620Y-47302381D01*
X139401614Y-47302379D01*
X139261457Y-47274500D01*
X139261455Y-47274500D01*
X139118545Y-47274500D01*
X139118543Y-47274500D01*
X138978385Y-47302379D01*
X138978379Y-47302381D01*
X138846349Y-47357069D01*
X138846340Y-47357074D01*
X138727521Y-47436467D01*
X138727517Y-47436470D01*
X138626470Y-47537517D01*
X138626467Y-47537521D01*
X138547074Y-47656340D01*
X138547069Y-47656349D01*
X138492381Y-47788379D01*
X138492379Y-47788385D01*
X138464500Y-47928542D01*
X138464500Y-47928545D01*
X138464500Y-48871455D01*
X138464500Y-48871457D01*
X138464499Y-48871457D01*
X119601258Y-48871457D01*
X119600946Y-48870961D01*
X119390825Y-48607477D01*
X119152523Y-48369175D01*
X118889039Y-48159054D01*
X118603686Y-47979754D01*
X118603683Y-47979752D01*
X118300054Y-47833532D01*
X117981965Y-47722227D01*
X117981953Y-47722223D01*
X117653397Y-47647233D01*
X117653381Y-47647231D01*
X117318508Y-47609500D01*
X117318504Y-47609500D01*
X116981496Y-47609500D01*
X116981491Y-47609500D01*
X116646618Y-47647231D01*
X116646602Y-47647233D01*
X116318046Y-47722223D01*
X116318034Y-47722227D01*
X115999945Y-47833532D01*
X115696316Y-47979752D01*
X115410962Y-48159053D01*
X115147477Y-48369174D01*
X114909174Y-48607477D01*
X114699053Y-48870962D01*
X114519752Y-49156316D01*
X114373532Y-49459945D01*
X114262227Y-49778034D01*
X114262223Y-49778046D01*
X114187233Y-50106602D01*
X114187231Y-50106618D01*
X114149500Y-50441491D01*
X113408778Y-50441491D01*
X113409248Y-50431933D01*
X113418256Y-50248568D01*
X113419449Y-50236457D01*
X113435167Y-50130495D01*
X113471654Y-49884520D01*
X113474022Y-49872613D01*
X113560475Y-49527473D01*
X113563998Y-49515858D01*
X113683869Y-49180840D01*
X113688508Y-49169643D01*
X113840643Y-48847979D01*
X113846358Y-48837287D01*
X114029278Y-48532105D01*
X114036021Y-48522012D01*
X114247979Y-48236219D01*
X114255682Y-48226834D01*
X114494628Y-47963198D01*
X114503198Y-47954628D01*
X114766834Y-47715682D01*
X114776219Y-47707979D01*
X115062012Y-47496021D01*
X115072105Y-47489278D01*
X115377287Y-47306358D01*
X115387979Y-47300643D01*
X115709643Y-47148508D01*
X115720840Y-47143869D01*
X116055858Y-47023998D01*
X116067473Y-47020475D01*
X116412613Y-46934022D01*
X116424520Y-46931654D01*
X116776460Y-46879448D01*
X116788564Y-46878256D01*
X117146967Y-46860648D01*
X117153051Y-46860500D01*
X117194170Y-46860500D01*
X153036000Y-46860500D01*
X153103039Y-46880185D01*
G37*
%TD.AperFunction*%
%TD*%
M02*
