%TF.GenerationSoftware,KiCad,Pcbnew,9.0.7+1*%
%TF.CreationDate,Date%
%TF.ProjectId,LE_BMS_A_V2,4c455f42-4d53-45f4-915f-56322e6b6963,+ (Unreleased)*%
%TF.SameCoordinates,Original*%
%TF.FileFunction,Copper,L2,Inr*%
%TF.FilePolarity,Positive*%
%FSLAX46Y46*%
G04 Gerber Fmt 4.6, Leading zero omitted, Abs format (unit mm)*
G04 Created by KiCad*
%MOMM*%
%LPD*%
G01*
G04 APERTURE LIST*
G04 Aperture macros list*
%AMRoundRect*
0 Rectangle with rounded corners*
0 $1 Rounding radius*
0 $2 $3 $4 $5 $6 $7 $8 $9 X,Y pos of 4 corners*
0 Add a 4 corners polygon primitive as box body*
4,1,4,$2,$3,$4,$5,$6,$7,$8,$9,$2,$3,0*
0 Add four circle primitives for the rounded corners*
1,1,$1+$1,$2,$3*
1,1,$1+$1,$4,$5*
1,1,$1+$1,$6,$7*
1,1,$1+$1,$8,$9*
0 Add four rect primitives between the rounded corners*
20,1,$1+$1,$2,$3,$4,$5,0*
20,1,$1+$1,$4,$5,$6,$7,0*
20,1,$1+$1,$6,$7,$8,$9,0*
20,1,$1+$1,$8,$9,$2,$3,0*%
G04 Aperture macros list end*
%TA.AperFunction,ComponentPad*%
%ADD10C,5.600000*%
%TD*%
%TA.AperFunction,ComponentPad*%
%ADD11C,2.400000*%
%TD*%
%TA.AperFunction,ComponentPad*%
%ADD12RoundRect,0.250000X-0.600000X-0.725000X0.600000X-0.725000X0.600000X0.725000X-0.600000X0.725000X0*%
%TD*%
%TA.AperFunction,ComponentPad*%
%ADD13O,1.700000X1.950000*%
%TD*%
%TA.AperFunction,HeatsinkPad*%
%ADD14C,0.600000*%
%TD*%
%TA.AperFunction,ComponentPad*%
%ADD15R,2.000000X2.000000*%
%TD*%
%TA.AperFunction,ComponentPad*%
%ADD16C,2.000000*%
%TD*%
%TA.AperFunction,ComponentPad*%
%ADD17R,1.508000X1.508000*%
%TD*%
%TA.AperFunction,ComponentPad*%
%ADD18C,1.508000*%
%TD*%
%TA.AperFunction,ComponentPad*%
%ADD19O,1.050000X2.150000*%
%TD*%
%TA.AperFunction,ComponentPad*%
%ADD20O,1.050000X1.850000*%
%TD*%
%TA.AperFunction,ComponentPad*%
%ADD21R,1.448000X1.448000*%
%TD*%
%TA.AperFunction,ComponentPad*%
%ADD22C,1.448000*%
%TD*%
%TA.AperFunction,ComponentPad*%
%ADD23C,2.430000*%
%TD*%
%TA.AperFunction,ComponentPad*%
%ADD24C,2.100000*%
%TD*%
%TA.AperFunction,ViaPad*%
%ADD25C,0.550000*%
%TD*%
G04 APERTURE END LIST*
D10*
%TO.N,unconnected-(H3-Pad1)*%
%TO.C,H3*%
X117150000Y-122610000D03*
%TD*%
D11*
%TO.N,+5V_CAN1*%
%TO.C,J4*%
X185950000Y-105140000D03*
%TO.N,GND_CAN1*%
X185950000Y-100060000D03*
%TD*%
D12*
%TO.N,/Project Architecture/Section B - Title B/CAN1_H*%
%TO.C,J6*%
X171300000Y-120200000D03*
D13*
%TO.N,/Project Architecture/Section B - Title B/CAN1_L*%
X173800000Y-120200000D03*
%TO.N,GND_CAN1*%
X176300000Y-120200000D03*
%TO.N,+5V_CAN1*%
X178800000Y-120200000D03*
%TD*%
D14*
%TO.N,GND*%
%TO.C,U1*%
X160000000Y-58700000D03*
X160000000Y-60200000D03*
X160750000Y-57950000D03*
X160750000Y-59450000D03*
X160750000Y-60950000D03*
X161500000Y-58700000D03*
X161500000Y-60200000D03*
X162250000Y-57950000D03*
X162250000Y-59450000D03*
X162250000Y-60950000D03*
X163000000Y-58700000D03*
X163000000Y-60200000D03*
%TD*%
D15*
%TO.N,+3V0*%
%TO.C,BT1*%
X118142546Y-72400000D03*
D16*
%TO.N,GND*%
X138942546Y-72400000D03*
%TD*%
D10*
%TO.N,unconnected-(H1-Pad1)*%
%TO.C,H1*%
X117150000Y-50610000D03*
%TD*%
D17*
%TO.N,GND_CAN1*%
%TO.C,PS1*%
X172587500Y-106417500D03*
D18*
%TO.N,+5V_CAN1*%
X172587500Y-103877500D03*
%TO.N,GND*%
X172587500Y-101337500D03*
%TO.N,+5V*%
X172587500Y-98797500D03*
%TD*%
D19*
%TO.N,GND*%
%TO.C,J1*%
X145600000Y-52580000D03*
X136960000Y-52580000D03*
D20*
X145600000Y-48400000D03*
X136960000Y-48400000D03*
%TD*%
D21*
%TO.N,unconnected-(J5-Pad1)*%
%TO.C,J5*%
X137006000Y-121460000D03*
D22*
%TO.N,unconnected-(J5-Pad2)*%
X135990000Y-119680000D03*
%TO.N,GND_CAN2*%
X134974000Y-121460000D03*
%TO.N,unconnected-(J5-Pad4)*%
X133958000Y-119680000D03*
%TO.N,unconnected-(J5-Pad5)*%
X132942000Y-121460000D03*
%TO.N,unconnected-(J5-Pad6)*%
X131926000Y-119680000D03*
%TO.N,/Project Architecture/Section B - Title B/CAN2_H*%
X130910000Y-121460000D03*
%TO.N,/Project Architecture/Section B - Title B/CAN2_L*%
X129894000Y-119680000D03*
D23*
%TO.N,GND_CAN2*%
X125320000Y-120570000D03*
X141580000Y-120570000D03*
%TD*%
D12*
%TO.N,/Project Architecture/Section B - Title B/CAN1_H*%
%TO.C,J2*%
X155700000Y-120200000D03*
D13*
%TO.N,/Project Architecture/Section B - Title B/CAN1_L*%
X158200000Y-120200000D03*
%TO.N,GND_CAN1*%
X160700000Y-120200000D03*
%TO.N,+5V_CAN1*%
X163200000Y-120200000D03*
%TD*%
D24*
%TO.N,+5V*%
%TO.C,J3*%
X187000000Y-71150000D03*
%TO.N,GND*%
X187000000Y-68650000D03*
%TO.N,/Project Architecture/Section A - Title A/GPIO_A1*%
X187000000Y-66150000D03*
%TO.N,/Project Architecture/Section A - Title A/GPIO_A2*%
X187000000Y-63650000D03*
%TO.N,/Project Architecture/Section A - Title A/GPIO_A3*%
X187000000Y-61150000D03*
%TO.N,/Project Architecture/Section A - Title A/GPIO_A4*%
X187000000Y-58650000D03*
%TD*%
D10*
%TO.N,unconnected-(H4-Pad1)*%
%TO.C,H4*%
X189150000Y-122610000D03*
%TD*%
%TO.N,unconnected-(H2-Pad1)*%
%TO.C,H2*%
X189150000Y-50610000D03*
%TD*%
D24*
%TO.N,+5V*%
%TO.C,J7*%
X187000000Y-90350000D03*
%TO.N,GND*%
X187000000Y-87850000D03*
%TO.N,/Project Architecture/Section A - Title A/GPIO_B1*%
X187000000Y-85350000D03*
%TO.N,/Project Architecture/Section A - Title A/GPIO_B2*%
X187000000Y-82850000D03*
%TO.N,/Project Architecture/Section A - Title A/GPIO_B3*%
X187000000Y-80350000D03*
%TO.N,/Project Architecture/Section A - Title A/GPIO_B4*%
X187000000Y-77850000D03*
%TD*%
D17*
%TO.N,GND*%
%TO.C,PS2*%
X141200000Y-98660000D03*
D18*
%TO.N,+5V*%
X141200000Y-101200000D03*
%TO.N,GND_CAN2*%
X141200000Y-103740000D03*
%TO.N,+5V_CAN2*%
X141200000Y-106280000D03*
%TD*%
D25*
%TO.N,GND*%
X145900000Y-86900000D03*
X123200000Y-52600000D03*
X175900000Y-100700000D03*
X154000000Y-91700000D03*
X173075000Y-86300000D03*
X176110000Y-51900000D03*
X146671015Y-88828985D03*
X123200000Y-49700000D03*
X156250000Y-96410000D03*
X121555000Y-85625000D03*
X168775000Y-92700000D03*
X136900000Y-96200000D03*
X116245000Y-94325000D03*
X129400000Y-49800000D03*
X155310000Y-54100000D03*
X126500000Y-96300000D03*
X144700000Y-89100000D03*
X123300000Y-55400000D03*
X151900000Y-92200000D03*
X180210000Y-52400000D03*
X166000000Y-95400000D03*
X150110000Y-53100000D03*
X170410000Y-54100000D03*
X129400000Y-52600000D03*
X168775000Y-85800000D03*
X171475000Y-85300000D03*
X129350000Y-55400000D03*
X133000000Y-51200000D03*
X136650000Y-55350000D03*
X150200000Y-79500000D03*
X114955000Y-95325000D03*
X145400000Y-55400000D03*
X156250000Y-99710000D03*
X126500000Y-99600000D03*
X172810000Y-54100000D03*
X126700000Y-51200000D03*
X151910000Y-53100000D03*
X138700000Y-97700000D03*
X167075000Y-85800000D03*
%TO.N,+3V3*%
X133350000Y-98010000D03*
X124055000Y-96525000D03*
X178975000Y-88600000D03*
X118785000Y-86525000D03*
X150010000Y-56500000D03*
X165975000Y-88600000D03*
X151710000Y-56500000D03*
X129400000Y-58650000D03*
X177275000Y-90700000D03*
X124055000Y-94925000D03*
X155210000Y-55400000D03*
X136950000Y-98010000D03*
X177275000Y-86600000D03*
X154200000Y-80500000D03*
X118857500Y-84725000D03*
X166900000Y-98100000D03*
X163900000Y-96400000D03*
X169775000Y-88562500D03*
X123300000Y-58700000D03*
%TO.N,/Project Architecture/Section A - Title A/ESP32_EN*%
X155550000Y-56650000D03*
X125950000Y-56450000D03*
%TO.N,/Project Architecture/Section A - Title A/ESP32_BOOT*%
X132100000Y-57900000D03*
X170150000Y-70600000D03*
%TO.N,+5V*%
X181700000Y-49800000D03*
%TO.N,+5V_CAN1*%
X163850000Y-110410000D03*
X176000000Y-104400000D03*
X163850000Y-105310000D03*
%TO.N,+5V_CAN2*%
X134050000Y-110210000D03*
X138000000Y-105500000D03*
X134050000Y-105510000D03*
%TO.N,/Project Architecture/Section A - Title A/CAN2_INT*%
X168575000Y-73575000D03*
X154800000Y-85600000D03*
%TO.N,/Project Architecture/Section A - Title A/CAN2_MISO*%
X154800000Y-83000000D03*
X163500000Y-76100000D03*
%TO.N,/Project Architecture/Section A - Title A/CAN2_RST*%
X154800000Y-81600000D03*
X164700000Y-73600000D03*
%TO.N,/Project Architecture/Section A - Title A/CAN1_TX*%
X158800000Y-96200000D03*
X162500000Y-82800000D03*
%TO.N,GND_CAN1*%
X184450000Y-116810000D03*
X156250000Y-108810000D03*
X162050000Y-110410000D03*
X175900000Y-106200000D03*
%TO.N,GND_CAN2*%
X143750000Y-116610000D03*
X126450000Y-108510000D03*
X138000000Y-103700000D03*
X132350000Y-110210000D03*
%TO.N,+3V0*%
X117500000Y-91250000D03*
%TO.N,/Project Architecture/Section A - Title A/I2C_SDA*%
X152900000Y-68100000D03*
X151500000Y-72200000D03*
%TO.N,/Project Architecture/Section A - Title A/GPIO_B3*%
X167100000Y-66850000D03*
%TO.N,/Project Architecture/Section A - Title A/GPIO_B1*%
X167100000Y-69250000D03*
%TO.N,/Project Architecture/Section A - Title A/GPIO_B2*%
X167100000Y-68050000D03*
%TO.N,/Project Architecture/Section A - Title A/GPIO_B4*%
X167100000Y-65600000D03*
%TD*%
%TA.AperFunction,Conductor*%
%TO.N,GND_CAN2*%
G36*
X140446475Y-102629685D02*
G01*
X140467486Y-102653933D01*
X141070591Y-103257037D01*
X141007007Y-103274075D01*
X140892993Y-103339901D01*
X140799901Y-103432993D01*
X140734075Y-103547007D01*
X140717037Y-103610590D01*
X140153457Y-103047010D01*
X140153456Y-103047010D01*
X140127483Y-103082760D01*
X140127482Y-103082762D01*
X140037873Y-103258626D01*
X139976876Y-103446353D01*
X139946000Y-103641302D01*
X139946000Y-103838697D01*
X139976876Y-104033646D01*
X140037873Y-104221373D01*
X140127483Y-104397239D01*
X140153457Y-104432988D01*
X140153457Y-104432989D01*
X140717037Y-103869408D01*
X140734075Y-103932993D01*
X140799901Y-104047007D01*
X140892993Y-104140099D01*
X141007007Y-104205925D01*
X141070590Y-104222962D01*
X140507009Y-104786541D01*
X140507010Y-104786542D01*
X140542755Y-104812512D01*
X140542768Y-104812520D01*
X140718626Y-104902126D01*
X140906353Y-104963123D01*
X141101303Y-104994000D01*
X141298697Y-104994000D01*
X141493646Y-104963123D01*
X141681373Y-104902126D01*
X141857241Y-104812516D01*
X141892988Y-104786543D01*
X141892988Y-104786541D01*
X141329410Y-104222962D01*
X141392993Y-104205925D01*
X141507007Y-104140099D01*
X141600099Y-104047007D01*
X141665925Y-103932993D01*
X141682962Y-103869409D01*
X142246541Y-104432988D01*
X142246543Y-104432988D01*
X142272516Y-104397241D01*
X142362126Y-104221373D01*
X142423123Y-104033646D01*
X142454000Y-103838697D01*
X142454000Y-103641302D01*
X142423123Y-103446353D01*
X142362126Y-103258626D01*
X142272520Y-103082768D01*
X142272512Y-103082755D01*
X142246542Y-103047010D01*
X142246541Y-103047009D01*
X141682962Y-103610589D01*
X141665925Y-103547007D01*
X141600099Y-103432993D01*
X141507007Y-103339901D01*
X141392993Y-103274075D01*
X141329409Y-103257037D01*
X141926275Y-102660171D01*
X141960355Y-102625598D01*
X142020563Y-102610000D01*
X149026000Y-102610000D01*
X149093039Y-102629685D01*
X149138794Y-102682489D01*
X149150000Y-102734000D01*
X149150000Y-126235500D01*
X149130315Y-126302539D01*
X149077511Y-126348294D01*
X149026000Y-126359500D01*
X117153051Y-126359500D01*
X117146968Y-126359351D01*
X117124856Y-126358264D01*
X116788567Y-126341743D01*
X116776457Y-126340550D01*
X116424532Y-126288347D01*
X116412597Y-126285973D01*
X116067481Y-126199526D01*
X116055837Y-126195994D01*
X115720858Y-126076136D01*
X115709629Y-126071485D01*
X115387999Y-125919366D01*
X115377272Y-125913631D01*
X115072118Y-125730729D01*
X115062000Y-125723969D01*
X114776230Y-125512028D01*
X114766824Y-125504308D01*
X114636809Y-125386469D01*
X114503209Y-125265381D01*
X114494618Y-125256790D01*
X114255691Y-124993175D01*
X114247971Y-124983769D01*
X114036030Y-124697999D01*
X114029270Y-124687881D01*
X113984102Y-124612523D01*
X113846363Y-124382720D01*
X113840639Y-124372012D01*
X113688511Y-124050363D01*
X113683867Y-124039151D01*
X113564000Y-123704147D01*
X113560473Y-123692518D01*
X113546870Y-123638211D01*
X113474023Y-123347389D01*
X113471652Y-123335467D01*
X113448559Y-123179788D01*
X113419448Y-122983541D01*
X113418256Y-122971431D01*
X113400649Y-122613032D01*
X113400500Y-122606948D01*
X113400500Y-122441491D01*
X114149500Y-122441491D01*
X114149500Y-122778508D01*
X114187231Y-123113381D01*
X114187233Y-123113397D01*
X114262223Y-123441953D01*
X114262227Y-123441965D01*
X114373532Y-123760054D01*
X114519752Y-124063683D01*
X114519754Y-124063686D01*
X114699054Y-124349039D01*
X114909175Y-124612523D01*
X115147477Y-124850825D01*
X115410961Y-125060946D01*
X115696314Y-125240246D01*
X115999949Y-125386469D01*
X116238848Y-125470063D01*
X116318034Y-125497772D01*
X116318046Y-125497776D01*
X116646606Y-125572767D01*
X116981492Y-125610499D01*
X116981493Y-125610500D01*
X116981496Y-125610500D01*
X117318507Y-125610500D01*
X117318507Y-125610499D01*
X117653394Y-125572767D01*
X117981954Y-125497776D01*
X118300051Y-125386469D01*
X118603686Y-125240246D01*
X118889039Y-125060946D01*
X119152523Y-124850825D01*
X119390825Y-124612523D01*
X119600946Y-124349039D01*
X119780246Y-124063686D01*
X119869325Y-123878712D01*
X119869325Y-123878711D01*
X125249500Y-123878711D01*
X125249500Y-124121288D01*
X125281161Y-124361785D01*
X125343947Y-124596104D01*
X125436773Y-124820205D01*
X125436776Y-124820212D01*
X125558064Y-125030289D01*
X125558066Y-125030292D01*
X125558067Y-125030293D01*
X125705733Y-125222736D01*
X125705739Y-125222743D01*
X125877256Y-125394260D01*
X125877262Y-125394265D01*
X126069711Y-125541936D01*
X126279788Y-125663224D01*
X126503900Y-125756054D01*
X126738211Y-125818838D01*
X126918586Y-125842584D01*
X126978711Y-125850500D01*
X126978712Y-125850500D01*
X127221289Y-125850500D01*
X127269388Y-125844167D01*
X127461789Y-125818838D01*
X127696100Y-125756054D01*
X127920212Y-125663224D01*
X128130289Y-125541936D01*
X128322738Y-125394265D01*
X128494265Y-125222738D01*
X128641936Y-125030289D01*
X128763224Y-124820212D01*
X128856054Y-124596100D01*
X128918838Y-124361789D01*
X128950500Y-124121288D01*
X128950500Y-123878712D01*
X128950500Y-123878711D01*
X137949500Y-123878711D01*
X137949500Y-124121288D01*
X137981161Y-124361785D01*
X138043947Y-124596104D01*
X138136773Y-124820205D01*
X138136776Y-124820212D01*
X138258064Y-125030289D01*
X138258066Y-125030292D01*
X138258067Y-125030293D01*
X138405733Y-125222736D01*
X138405739Y-125222743D01*
X138577256Y-125394260D01*
X138577262Y-125394265D01*
X138769711Y-125541936D01*
X138979788Y-125663224D01*
X139203900Y-125756054D01*
X139438211Y-125818838D01*
X139618586Y-125842584D01*
X139678711Y-125850500D01*
X139678712Y-125850500D01*
X139921289Y-125850500D01*
X139969388Y-125844167D01*
X140161789Y-125818838D01*
X140396100Y-125756054D01*
X140620212Y-125663224D01*
X140830289Y-125541936D01*
X141022738Y-125394265D01*
X141194265Y-125222738D01*
X141341936Y-125030289D01*
X141463224Y-124820212D01*
X141556054Y-124596100D01*
X141618838Y-124361789D01*
X141650500Y-124121288D01*
X141650500Y-123878712D01*
X141618838Y-123638211D01*
X141556054Y-123403900D01*
X141463224Y-123179788D01*
X141341936Y-122969711D01*
X141194265Y-122777262D01*
X141194260Y-122777256D01*
X141022743Y-122605739D01*
X141022736Y-122605733D01*
X140830293Y-122458067D01*
X140830292Y-122458066D01*
X140830289Y-122458064D01*
X140620212Y-122336776D01*
X140620205Y-122336773D01*
X140396104Y-122243947D01*
X140161785Y-122181161D01*
X139921289Y-122149500D01*
X139921288Y-122149500D01*
X139678712Y-122149500D01*
X139678711Y-122149500D01*
X139438214Y-122181161D01*
X139203895Y-122243947D01*
X138979794Y-122336773D01*
X138979785Y-122336777D01*
X138769706Y-122458067D01*
X138577263Y-122605733D01*
X138577256Y-122605739D01*
X138405739Y-122777256D01*
X138405733Y-122777263D01*
X138258067Y-122969706D01*
X138136777Y-123179785D01*
X138136773Y-123179794D01*
X138043947Y-123403895D01*
X137981161Y-123638214D01*
X137949500Y-123878711D01*
X128950500Y-123878711D01*
X128918838Y-123638211D01*
X128856054Y-123403900D01*
X128763224Y-123179788D01*
X128641936Y-122969711D01*
X128494265Y-122777262D01*
X128494260Y-122777256D01*
X128322743Y-122605739D01*
X128322736Y-122605733D01*
X128130293Y-122458067D01*
X128130292Y-122458066D01*
X128130289Y-122458064D01*
X127920212Y-122336776D01*
X127920205Y-122336773D01*
X127696104Y-122243947D01*
X127461785Y-122181161D01*
X127221289Y-122149500D01*
X127221288Y-122149500D01*
X126978712Y-122149500D01*
X126978711Y-122149500D01*
X126738214Y-122181161D01*
X126503895Y-122243947D01*
X126279794Y-122336773D01*
X126279785Y-122336777D01*
X126069706Y-122458067D01*
X125877263Y-122605733D01*
X125877256Y-122605739D01*
X125705739Y-122777256D01*
X125705733Y-122777263D01*
X125558067Y-122969706D01*
X125436777Y-123179785D01*
X125436773Y-123179794D01*
X125343947Y-123403895D01*
X125281161Y-123638214D01*
X125249500Y-123878711D01*
X119869325Y-123878711D01*
X119897190Y-123820851D01*
X119897191Y-123820849D01*
X119926464Y-123760062D01*
X119926465Y-123760059D01*
X119926469Y-123760051D01*
X120037776Y-123441954D01*
X120112767Y-123113394D01*
X120150500Y-122778504D01*
X120150500Y-122441496D01*
X120112767Y-122106606D01*
X120099695Y-122049333D01*
X120071613Y-121926295D01*
X120037775Y-121778042D01*
X120037772Y-121778034D01*
X119973061Y-121593101D01*
X119926469Y-121459949D01*
X119780246Y-121156314D01*
X119600946Y-120870961D01*
X119390825Y-120607477D01*
X119240947Y-120457599D01*
X123605000Y-120457599D01*
X123605000Y-120682400D01*
X123605001Y-120682417D01*
X123634342Y-120905287D01*
X123634345Y-120905300D01*
X123692529Y-121122450D01*
X123778561Y-121330149D01*
X123778566Y-121330160D01*
X123890963Y-121524836D01*
X123890969Y-121524844D01*
X123943343Y-121593101D01*
X124596499Y-120939945D01*
X124602188Y-120953679D01*
X124690832Y-121086345D01*
X124803655Y-121199168D01*
X124936321Y-121287812D01*
X124950053Y-121293500D01*
X124296897Y-121946655D01*
X124296897Y-121946656D01*
X124365155Y-121999030D01*
X124365163Y-121999036D01*
X124559839Y-122111433D01*
X124559850Y-122111438D01*
X124767549Y-122197470D01*
X124984699Y-122255654D01*
X124984712Y-122255657D01*
X125207582Y-122284998D01*
X125207600Y-122285000D01*
X125432400Y-122285000D01*
X125432417Y-122284998D01*
X125655287Y-122255657D01*
X125655300Y-122255654D01*
X125872450Y-122197470D01*
X126080149Y-122111438D01*
X126080160Y-122111433D01*
X126274839Y-121999034D01*
X126274847Y-121999028D01*
X126343101Y-121946655D01*
X125689946Y-121293500D01*
X125703679Y-121287812D01*
X125836345Y-121199168D01*
X125949168Y-121086345D01*
X126037812Y-120953679D01*
X126043500Y-120939946D01*
X126696655Y-121593101D01*
X126749028Y-121524847D01*
X126749034Y-121524839D01*
X126861433Y-121330160D01*
X126861438Y-121330149D01*
X126947470Y-121122450D01*
X127005654Y-120905300D01*
X127005657Y-120905287D01*
X127034998Y-120682417D01*
X127035000Y-120682400D01*
X127035000Y-120457599D01*
X127034998Y-120457582D01*
X127005657Y-120234712D01*
X127005654Y-120234699D01*
X126947470Y-120017549D01*
X126861438Y-119809850D01*
X126861433Y-119809839D01*
X126766179Y-119644855D01*
X126766178Y-119644854D01*
X126749032Y-119615156D01*
X126749030Y-119615155D01*
X126728915Y-119588940D01*
X128969500Y-119588940D01*
X128969500Y-119771059D01*
X129005026Y-119949659D01*
X129005028Y-119949667D01*
X129074717Y-120117912D01*
X129074722Y-120117921D01*
X129175893Y-120269333D01*
X129175896Y-120269337D01*
X129304662Y-120398103D01*
X129304666Y-120398106D01*
X129456078Y-120499277D01*
X129456084Y-120499280D01*
X129456085Y-120499281D01*
X129624333Y-120568972D01*
X129747966Y-120593564D01*
X129802940Y-120604499D01*
X129802944Y-120604500D01*
X129802945Y-120604500D01*
X129985056Y-120604500D01*
X129985057Y-120604499D01*
X130050677Y-120591447D01*
X130169642Y-120567784D01*
X130169876Y-120568960D01*
X130233382Y-120568388D01*
X130292498Y-120605631D01*
X130322095Y-120668922D01*
X130312775Y-120738167D01*
X130287203Y-120775356D01*
X130191893Y-120870666D01*
X130090722Y-121022078D01*
X130090717Y-121022087D01*
X130021028Y-121190332D01*
X130021026Y-121190340D01*
X129985500Y-121368940D01*
X129985500Y-121551059D01*
X130021026Y-121729659D01*
X130021028Y-121729667D01*
X130090717Y-121897912D01*
X130090722Y-121897921D01*
X130191893Y-122049333D01*
X130191896Y-122049337D01*
X130320662Y-122178103D01*
X130320666Y-122178106D01*
X130472078Y-122279277D01*
X130472084Y-122279280D01*
X130472085Y-122279281D01*
X130640333Y-122348972D01*
X130760462Y-122372867D01*
X130818940Y-122384499D01*
X130818944Y-122384500D01*
X130818945Y-122384500D01*
X131001056Y-122384500D01*
X131001057Y-122384499D01*
X131179667Y-122348972D01*
X131347915Y-122279281D01*
X131499334Y-122178106D01*
X131628106Y-122049334D01*
X131729281Y-121897915D01*
X131798972Y-121729667D01*
X131804383Y-121702466D01*
X131836767Y-121640555D01*
X131897483Y-121605981D01*
X131967253Y-121609720D01*
X132023925Y-121650586D01*
X132047617Y-121702466D01*
X132053026Y-121729659D01*
X132053028Y-121729667D01*
X132122717Y-121897912D01*
X132122722Y-121897921D01*
X132223893Y-122049333D01*
X132223896Y-122049337D01*
X132352662Y-122178103D01*
X132352666Y-122178106D01*
X132504078Y-122279277D01*
X132504084Y-122279280D01*
X132504085Y-122279281D01*
X132672333Y-122348972D01*
X132792462Y-122372867D01*
X132850940Y-122384499D01*
X132850944Y-122384500D01*
X132850945Y-122384500D01*
X133033056Y-122384500D01*
X133033057Y-122384499D01*
X133211667Y-122348972D01*
X133379915Y-122279281D01*
X133531334Y-122178106D01*
X133660106Y-122049334D01*
X133678985Y-122021078D01*
X133732596Y-121976273D01*
X133801920Y-121967564D01*
X133864948Y-121997718D01*
X133892572Y-122033672D01*
X133927139Y-122101511D01*
X133948934Y-122131511D01*
X134515531Y-121564914D01*
X134536029Y-121641413D01*
X134597906Y-121748587D01*
X134685413Y-121836094D01*
X134792587Y-121897971D01*
X134869084Y-121918468D01*
X134302486Y-122485064D01*
X134302487Y-122485065D01*
X134332473Y-122506851D01*
X134332482Y-122506857D01*
X134504144Y-122594323D01*
X134687382Y-122653861D01*
X134687381Y-122653861D01*
X134877670Y-122684000D01*
X135070330Y-122684000D01*
X135260618Y-122653861D01*
X135443855Y-122594323D01*
X135615516Y-122506858D01*
X135645511Y-122485065D01*
X135645511Y-122485064D01*
X135078915Y-121918467D01*
X135155413Y-121897971D01*
X135262587Y-121836094D01*
X135350094Y-121748587D01*
X135411971Y-121641413D01*
X135432468Y-121564915D01*
X136014722Y-122147169D01*
X136024610Y-122149247D01*
X136074367Y-122198298D01*
X136087578Y-122234308D01*
X136093132Y-122262229D01*
X136093132Y-122262230D01*
X136137447Y-122328552D01*
X136203769Y-122372867D01*
X136203770Y-122372868D01*
X136262247Y-122384499D01*
X136262250Y-122384500D01*
X136262252Y-122384500D01*
X137749750Y-122384500D01*
X137749751Y-122384499D01*
X137764568Y-122381552D01*
X137808229Y-122372868D01*
X137808229Y-122372867D01*
X137808231Y-122372867D01*
X137874552Y-122328552D01*
X137918867Y-122262231D01*
X137918867Y-122262229D01*
X137918868Y-122262229D01*
X137930499Y-122203752D01*
X137930500Y-122203750D01*
X137930500Y-120716249D01*
X137930499Y-120716247D01*
X137918868Y-120657770D01*
X137918867Y-120657769D01*
X137874552Y-120591447D01*
X137822453Y-120556636D01*
X137822452Y-120556635D01*
X137808231Y-120547132D01*
X137808229Y-120547131D01*
X137749752Y-120535500D01*
X137749748Y-120535500D01*
X136741303Y-120535500D01*
X136674264Y-120515815D01*
X136628509Y-120463011D01*
X136627731Y-120457599D01*
X139865000Y-120457599D01*
X139865000Y-120682400D01*
X139865001Y-120682417D01*
X139894342Y-120905287D01*
X139894345Y-120905300D01*
X139952529Y-121122450D01*
X140038561Y-121330149D01*
X140038566Y-121330160D01*
X140150963Y-121524836D01*
X140150969Y-121524844D01*
X140203343Y-121593101D01*
X140856499Y-120939945D01*
X140862188Y-120953679D01*
X140950832Y-121086345D01*
X141063655Y-121199168D01*
X141196321Y-121287812D01*
X141210053Y-121293500D01*
X140556897Y-121946655D01*
X140556897Y-121946656D01*
X140625155Y-121999030D01*
X140625163Y-121999036D01*
X140819839Y-122111433D01*
X140819850Y-122111438D01*
X141027549Y-122197470D01*
X141244699Y-122255654D01*
X141244712Y-122255657D01*
X141467582Y-122284998D01*
X141467600Y-122285000D01*
X141692400Y-122285000D01*
X141692417Y-122284998D01*
X141915287Y-122255657D01*
X141915300Y-122255654D01*
X142132450Y-122197470D01*
X142340149Y-122111438D01*
X142340160Y-122111433D01*
X142534839Y-121999034D01*
X142534847Y-121999028D01*
X142603101Y-121946655D01*
X141949946Y-121293500D01*
X141963679Y-121287812D01*
X142096345Y-121199168D01*
X142209168Y-121086345D01*
X142297812Y-120953679D01*
X142303500Y-120939946D01*
X142956655Y-121593101D01*
X143009028Y-121524847D01*
X143009034Y-121524839D01*
X143121433Y-121330160D01*
X143121438Y-121330149D01*
X143207470Y-121122450D01*
X143265654Y-120905300D01*
X143265657Y-120905287D01*
X143294998Y-120682417D01*
X143295000Y-120682400D01*
X143295000Y-120457599D01*
X143294998Y-120457582D01*
X143265657Y-120234712D01*
X143265654Y-120234699D01*
X143207470Y-120017549D01*
X143121438Y-119809850D01*
X143121433Y-119809839D01*
X143009036Y-119615163D01*
X143009030Y-119615155D01*
X142956655Y-119546897D01*
X142303499Y-120200052D01*
X142297812Y-120186321D01*
X142209168Y-120053655D01*
X142096345Y-119940832D01*
X141963679Y-119852188D01*
X141949946Y-119846499D01*
X142603101Y-119193343D01*
X142603101Y-119193342D01*
X142534844Y-119140969D01*
X142534836Y-119140963D01*
X142340160Y-119028566D01*
X142340149Y-119028561D01*
X142132450Y-118942529D01*
X141915300Y-118884345D01*
X141915287Y-118884342D01*
X141692417Y-118855001D01*
X141692400Y-118855000D01*
X141467600Y-118855000D01*
X141467582Y-118855001D01*
X141244712Y-118884342D01*
X141244699Y-118884345D01*
X141027549Y-118942529D01*
X140819850Y-119028561D01*
X140819839Y-119028566D01*
X140625161Y-119140964D01*
X140625146Y-119140974D01*
X140556896Y-119193343D01*
X141210053Y-119846499D01*
X141196321Y-119852188D01*
X141063655Y-119940832D01*
X140950832Y-120053655D01*
X140862188Y-120186321D01*
X140856499Y-120200052D01*
X140203343Y-119546896D01*
X140150974Y-119615146D01*
X140150964Y-119615161D01*
X140038566Y-119809839D01*
X140038561Y-119809850D01*
X139952529Y-120017549D01*
X139894345Y-120234699D01*
X139894342Y-120234712D01*
X139865001Y-120457582D01*
X139865000Y-120457599D01*
X136627731Y-120457599D01*
X136618565Y-120393853D01*
X136647590Y-120330297D01*
X136653622Y-120323819D01*
X136708103Y-120269337D01*
X136708106Y-120269334D01*
X136809281Y-120117915D01*
X136878972Y-119949667D01*
X136914500Y-119771055D01*
X136914500Y-119588945D01*
X136878972Y-119410333D01*
X136809281Y-119242085D01*
X136809280Y-119242084D01*
X136809277Y-119242078D01*
X136708106Y-119090666D01*
X136708103Y-119090662D01*
X136579337Y-118961896D01*
X136579333Y-118961893D01*
X136427921Y-118860722D01*
X136427912Y-118860717D01*
X136259667Y-118791028D01*
X136259659Y-118791026D01*
X136081059Y-118755500D01*
X136081055Y-118755500D01*
X135898945Y-118755500D01*
X135898940Y-118755500D01*
X135720340Y-118791026D01*
X135720332Y-118791028D01*
X135552087Y-118860717D01*
X135552078Y-118860722D01*
X135400666Y-118961893D01*
X135400662Y-118961896D01*
X135271896Y-119090662D01*
X135271893Y-119090666D01*
X135170722Y-119242078D01*
X135170717Y-119242087D01*
X135101028Y-119410332D01*
X135101026Y-119410340D01*
X135095617Y-119437533D01*
X135063232Y-119499444D01*
X135002516Y-119534019D01*
X134932747Y-119530279D01*
X134876075Y-119489412D01*
X134852383Y-119437533D01*
X134846973Y-119410340D01*
X134846972Y-119410333D01*
X134777281Y-119242085D01*
X134777280Y-119242084D01*
X134777277Y-119242078D01*
X134676106Y-119090666D01*
X134676103Y-119090662D01*
X134547337Y-118961896D01*
X134547333Y-118961893D01*
X134395921Y-118860722D01*
X134395912Y-118860717D01*
X134227667Y-118791028D01*
X134227659Y-118791026D01*
X134049059Y-118755500D01*
X134049055Y-118755500D01*
X133866945Y-118755500D01*
X133866940Y-118755500D01*
X133688340Y-118791026D01*
X133688332Y-118791028D01*
X133520087Y-118860717D01*
X133520078Y-118860722D01*
X133368666Y-118961893D01*
X133368662Y-118961896D01*
X133239896Y-119090662D01*
X133239893Y-119090666D01*
X133138722Y-119242078D01*
X133138717Y-119242087D01*
X133069028Y-119410332D01*
X133069026Y-119410340D01*
X133063617Y-119437533D01*
X133031232Y-119499444D01*
X132970516Y-119534019D01*
X132900747Y-119530279D01*
X132844075Y-119489412D01*
X132820383Y-119437533D01*
X132814973Y-119410340D01*
X132814972Y-119410333D01*
X132745281Y-119242085D01*
X132745280Y-119242084D01*
X132745277Y-119242078D01*
X132644106Y-119090666D01*
X132644103Y-119090662D01*
X132515337Y-118961896D01*
X132515333Y-118961893D01*
X132363921Y-118860722D01*
X132363912Y-118860717D01*
X132195667Y-118791028D01*
X132195659Y-118791026D01*
X132017059Y-118755500D01*
X132017055Y-118755500D01*
X131834945Y-118755500D01*
X131834940Y-118755500D01*
X131656340Y-118791026D01*
X131656332Y-118791028D01*
X131488087Y-118860717D01*
X131488078Y-118860722D01*
X131336666Y-118961893D01*
X131336662Y-118961896D01*
X131207896Y-119090662D01*
X131207893Y-119090666D01*
X131106722Y-119242078D01*
X131106717Y-119242087D01*
X131037028Y-119410332D01*
X131037026Y-119410340D01*
X131031617Y-119437533D01*
X130999232Y-119499444D01*
X130938516Y-119534019D01*
X130868747Y-119530279D01*
X130812075Y-119489412D01*
X130788383Y-119437533D01*
X130782973Y-119410340D01*
X130782972Y-119410333D01*
X130713281Y-119242085D01*
X130713280Y-119242084D01*
X130713277Y-119242078D01*
X130612106Y-119090666D01*
X130612103Y-119090662D01*
X130483337Y-118961896D01*
X130483333Y-118961893D01*
X130331921Y-118860722D01*
X130331912Y-118860717D01*
X130163667Y-118791028D01*
X130163659Y-118791026D01*
X129985059Y-118755500D01*
X129985055Y-118755500D01*
X129802945Y-118755500D01*
X129802940Y-118755500D01*
X129624340Y-118791026D01*
X129624332Y-118791028D01*
X129456087Y-118860717D01*
X129456078Y-118860722D01*
X129304666Y-118961893D01*
X129304662Y-118961896D01*
X129175896Y-119090662D01*
X129175893Y-119090666D01*
X129074722Y-119242078D01*
X129074717Y-119242087D01*
X129005028Y-119410332D01*
X129005026Y-119410340D01*
X128969500Y-119588940D01*
X126728915Y-119588940D01*
X126696655Y-119546897D01*
X126043499Y-120200052D01*
X126037812Y-120186321D01*
X125949168Y-120053655D01*
X125836345Y-119940832D01*
X125703679Y-119852188D01*
X125689946Y-119846499D01*
X126343101Y-119193343D01*
X126343101Y-119193342D01*
X126274844Y-119140969D01*
X126274836Y-119140963D01*
X126080160Y-119028566D01*
X126080149Y-119028561D01*
X125872450Y-118942529D01*
X125655300Y-118884345D01*
X125655287Y-118884342D01*
X125432417Y-118855001D01*
X125432400Y-118855000D01*
X125207600Y-118855000D01*
X125207582Y-118855001D01*
X124984712Y-118884342D01*
X124984699Y-118884345D01*
X124767549Y-118942529D01*
X124559850Y-119028561D01*
X124559839Y-119028566D01*
X124365161Y-119140964D01*
X124365146Y-119140974D01*
X124296896Y-119193343D01*
X124950053Y-119846499D01*
X124936321Y-119852188D01*
X124803655Y-119940832D01*
X124690832Y-120053655D01*
X124602188Y-120186321D01*
X124596499Y-120200052D01*
X123943343Y-119546896D01*
X123890974Y-119615146D01*
X123890964Y-119615161D01*
X123778566Y-119809839D01*
X123778561Y-119809850D01*
X123692529Y-120017549D01*
X123634345Y-120234699D01*
X123634342Y-120234712D01*
X123605001Y-120457582D01*
X123605000Y-120457599D01*
X119240947Y-120457599D01*
X119152523Y-120369175D01*
X118889039Y-120159054D01*
X118603686Y-119979754D01*
X118603683Y-119979752D01*
X118300054Y-119833532D01*
X117981965Y-119722227D01*
X117981953Y-119722223D01*
X117653397Y-119647233D01*
X117653381Y-119647231D01*
X117318508Y-119609500D01*
X117318504Y-119609500D01*
X116981496Y-119609500D01*
X116981491Y-119609500D01*
X116646618Y-119647231D01*
X116646602Y-119647233D01*
X116318046Y-119722223D01*
X116318034Y-119722227D01*
X115999945Y-119833532D01*
X115696316Y-119979752D01*
X115410962Y-120159053D01*
X115147477Y-120369174D01*
X114909174Y-120607477D01*
X114699053Y-120870962D01*
X114519752Y-121156316D01*
X114373532Y-121459945D01*
X114262227Y-121778034D01*
X114262223Y-121778046D01*
X114187233Y-122106602D01*
X114187231Y-122106618D01*
X114149500Y-122441491D01*
X113400500Y-122441491D01*
X113400500Y-110147399D01*
X133574500Y-110147399D01*
X133574500Y-110272601D01*
X133606905Y-110393536D01*
X133669505Y-110501964D01*
X133758036Y-110590495D01*
X133866464Y-110653095D01*
X133987399Y-110685500D01*
X133987401Y-110685500D01*
X134112599Y-110685500D01*
X134112601Y-110685500D01*
X134233536Y-110653095D01*
X134341964Y-110590495D01*
X134430495Y-110501964D01*
X134493095Y-110393536D01*
X134525500Y-110272601D01*
X134525500Y-110147399D01*
X134493095Y-110026464D01*
X134430495Y-109918036D01*
X134341964Y-109829505D01*
X134233536Y-109766905D01*
X134233537Y-109766905D01*
X134193224Y-109756103D01*
X134112601Y-109734500D01*
X133987399Y-109734500D01*
X133906775Y-109756103D01*
X133866463Y-109766905D01*
X133758037Y-109829504D01*
X133758034Y-109829506D01*
X133669506Y-109918034D01*
X133669504Y-109918037D01*
X133606905Y-110026463D01*
X133606905Y-110026464D01*
X133574500Y-110147399D01*
X113400500Y-110147399D01*
X113400500Y-106185985D01*
X140245500Y-106185985D01*
X140245500Y-106374014D01*
X140282179Y-106558409D01*
X140282182Y-106558421D01*
X140354129Y-106732118D01*
X140354136Y-106732131D01*
X140458591Y-106888457D01*
X140458594Y-106888461D01*
X140591538Y-107021405D01*
X140591542Y-107021408D01*
X140747868Y-107125863D01*
X140747881Y-107125870D01*
X140921578Y-107197817D01*
X140921583Y-107197819D01*
X141105985Y-107234499D01*
X141105988Y-107234500D01*
X141105990Y-107234500D01*
X141294012Y-107234500D01*
X141294013Y-107234499D01*
X141478417Y-107197819D01*
X141652125Y-107125867D01*
X141808458Y-107021408D01*
X141941408Y-106888458D01*
X142045867Y-106732125D01*
X142117819Y-106558417D01*
X142154500Y-106374010D01*
X142154500Y-106185990D01*
X142154500Y-106185987D01*
X142154499Y-106185985D01*
X142117820Y-106001590D01*
X142117819Y-106001583D01*
X142071805Y-105890495D01*
X142045870Y-105827881D01*
X142045863Y-105827868D01*
X141941408Y-105671542D01*
X141941405Y-105671538D01*
X141808461Y-105538594D01*
X141808457Y-105538591D01*
X141652131Y-105434136D01*
X141652118Y-105434129D01*
X141478421Y-105362182D01*
X141478409Y-105362179D01*
X141294013Y-105325500D01*
X141294010Y-105325500D01*
X141105990Y-105325500D01*
X141105987Y-105325500D01*
X140921590Y-105362179D01*
X140921578Y-105362182D01*
X140747881Y-105434129D01*
X140747868Y-105434136D01*
X140591542Y-105538591D01*
X140591538Y-105538594D01*
X140458594Y-105671538D01*
X140458591Y-105671542D01*
X140354136Y-105827868D01*
X140354129Y-105827881D01*
X140282182Y-106001578D01*
X140282179Y-106001590D01*
X140245500Y-106185985D01*
X113400500Y-106185985D01*
X113400500Y-105447399D01*
X133574500Y-105447399D01*
X133574500Y-105572601D01*
X133606905Y-105693536D01*
X133669505Y-105801964D01*
X133758036Y-105890495D01*
X133866464Y-105953095D01*
X133987399Y-105985500D01*
X133987401Y-105985500D01*
X134112599Y-105985500D01*
X134112601Y-105985500D01*
X134233536Y-105953095D01*
X134341964Y-105890495D01*
X134430495Y-105801964D01*
X134493095Y-105693536D01*
X134525500Y-105572601D01*
X134525500Y-105447399D01*
X134522820Y-105437399D01*
X137524500Y-105437399D01*
X137524500Y-105562601D01*
X137556905Y-105683536D01*
X137619505Y-105791964D01*
X137708036Y-105880495D01*
X137816464Y-105943095D01*
X137937399Y-105975500D01*
X137937401Y-105975500D01*
X138062599Y-105975500D01*
X138062601Y-105975500D01*
X138183536Y-105943095D01*
X138291964Y-105880495D01*
X138380495Y-105791964D01*
X138443095Y-105683536D01*
X138475500Y-105562601D01*
X138475500Y-105437399D01*
X138443095Y-105316464D01*
X138380495Y-105208036D01*
X138291964Y-105119505D01*
X138183536Y-105056905D01*
X138183537Y-105056905D01*
X138143224Y-105046103D01*
X138062601Y-105024500D01*
X137937399Y-105024500D01*
X137856775Y-105046103D01*
X137816463Y-105056905D01*
X137708037Y-105119504D01*
X137708034Y-105119506D01*
X137619506Y-105208034D01*
X137619504Y-105208037D01*
X137556905Y-105316463D01*
X137556905Y-105316464D01*
X137524500Y-105437399D01*
X134522820Y-105437399D01*
X134493095Y-105326464D01*
X134430495Y-105218036D01*
X134341964Y-105129505D01*
X134233536Y-105066905D01*
X134233537Y-105066905D01*
X134193224Y-105056103D01*
X134112601Y-105034500D01*
X133987399Y-105034500D01*
X133906775Y-105056103D01*
X133866463Y-105066905D01*
X133758037Y-105129504D01*
X133758034Y-105129506D01*
X133669506Y-105218034D01*
X133669504Y-105218037D01*
X133606905Y-105326463D01*
X133606905Y-105326464D01*
X133574500Y-105447399D01*
X113400500Y-105447399D01*
X113400500Y-102734000D01*
X113420185Y-102666961D01*
X113472989Y-102621206D01*
X113524500Y-102610000D01*
X140379436Y-102610000D01*
X140446475Y-102629685D01*
G37*
%TD.AperFunction*%
%TD*%
%TA.AperFunction,Conductor*%
%TO.N,GND_CAN1*%
G36*
X192842539Y-95579685D02*
G01*
X192888294Y-95632489D01*
X192899500Y-95684000D01*
X192899500Y-122606948D01*
X192899351Y-122613033D01*
X192881743Y-122971432D01*
X192880550Y-122983542D01*
X192828347Y-123335467D01*
X192825973Y-123347402D01*
X192739526Y-123692518D01*
X192735994Y-123704162D01*
X192616142Y-124039127D01*
X192611485Y-124050370D01*
X192459366Y-124372000D01*
X192453629Y-124382732D01*
X192270729Y-124687881D01*
X192263969Y-124697999D01*
X192052028Y-124983769D01*
X192044308Y-124993175D01*
X191805388Y-125256783D01*
X191796783Y-125265388D01*
X191533175Y-125504308D01*
X191523769Y-125512028D01*
X191237999Y-125723969D01*
X191227881Y-125730729D01*
X190922732Y-125913629D01*
X190912000Y-125919366D01*
X190590370Y-126071485D01*
X190579134Y-126076139D01*
X190455442Y-126120397D01*
X190244162Y-126195994D01*
X190232518Y-126199526D01*
X189887402Y-126285973D01*
X189875467Y-126288347D01*
X189523542Y-126340550D01*
X189511432Y-126341743D01*
X189173927Y-126358324D01*
X189153031Y-126359351D01*
X189146949Y-126359500D01*
X150274000Y-126359500D01*
X150206961Y-126339815D01*
X150161206Y-126287011D01*
X150150000Y-126235500D01*
X150150000Y-122441491D01*
X186149500Y-122441491D01*
X186149500Y-122778508D01*
X186187231Y-123113381D01*
X186187233Y-123113397D01*
X186262223Y-123441953D01*
X186262227Y-123441965D01*
X186373532Y-123760054D01*
X186519752Y-124063683D01*
X186519754Y-124063686D01*
X186699054Y-124349039D01*
X186909175Y-124612523D01*
X187147477Y-124850825D01*
X187410961Y-125060946D01*
X187696314Y-125240246D01*
X187999949Y-125386469D01*
X188238848Y-125470063D01*
X188318034Y-125497772D01*
X188318046Y-125497776D01*
X188646606Y-125572767D01*
X188981492Y-125610499D01*
X188981493Y-125610500D01*
X188981496Y-125610500D01*
X189318507Y-125610500D01*
X189318507Y-125610499D01*
X189653394Y-125572767D01*
X189981954Y-125497776D01*
X190300051Y-125386469D01*
X190603686Y-125240246D01*
X190889039Y-125060946D01*
X191152523Y-124850825D01*
X191390825Y-124612523D01*
X191600946Y-124349039D01*
X191780246Y-124063686D01*
X191926469Y-123760051D01*
X192037776Y-123441954D01*
X192112767Y-123113394D01*
X192150500Y-122778504D01*
X192150500Y-122441496D01*
X192112767Y-122106606D01*
X192037776Y-121778046D01*
X191926469Y-121459949D01*
X191780246Y-121156314D01*
X191600946Y-120870961D01*
X191390825Y-120607477D01*
X191152523Y-120369175D01*
X190889039Y-120159054D01*
X190603686Y-119979754D01*
X190603683Y-119979752D01*
X190300054Y-119833532D01*
X189981965Y-119722227D01*
X189981953Y-119722223D01*
X189653397Y-119647233D01*
X189653381Y-119647231D01*
X189318508Y-119609500D01*
X189318504Y-119609500D01*
X188981496Y-119609500D01*
X188981491Y-119609500D01*
X188646618Y-119647231D01*
X188646602Y-119647233D01*
X188318046Y-119722223D01*
X188318034Y-119722227D01*
X187999945Y-119833532D01*
X187696316Y-119979752D01*
X187410962Y-120159053D01*
X187147477Y-120369174D01*
X186909174Y-120607477D01*
X186699053Y-120870962D01*
X186519752Y-121156316D01*
X186373532Y-121459945D01*
X186262227Y-121778034D01*
X186262223Y-121778046D01*
X186187233Y-122106602D01*
X186187231Y-122106618D01*
X186149500Y-122441491D01*
X150150000Y-122441491D01*
X150150000Y-119420730D01*
X154649500Y-119420730D01*
X154649500Y-120979269D01*
X154652353Y-121009699D01*
X154652353Y-121009701D01*
X154697206Y-121137880D01*
X154697207Y-121137882D01*
X154777850Y-121247150D01*
X154887118Y-121327793D01*
X154908089Y-121335131D01*
X155015299Y-121372646D01*
X155045730Y-121375500D01*
X155045734Y-121375500D01*
X156354270Y-121375500D01*
X156384699Y-121372646D01*
X156384701Y-121372646D01*
X156448790Y-121350219D01*
X156512882Y-121327793D01*
X156622150Y-121247150D01*
X156702793Y-121137882D01*
X156739648Y-121032557D01*
X156747646Y-121009701D01*
X156747646Y-121009699D01*
X156750500Y-120979269D01*
X156750500Y-119971530D01*
X157149500Y-119971530D01*
X157149500Y-120428469D01*
X157189868Y-120631412D01*
X157189870Y-120631420D01*
X157207921Y-120675000D01*
X157269059Y-120822598D01*
X157282836Y-120843217D01*
X157384024Y-120994657D01*
X157530342Y-121140975D01*
X157530345Y-121140977D01*
X157702402Y-121255941D01*
X157893580Y-121335130D01*
X158082187Y-121372646D01*
X158096530Y-121375499D01*
X158096534Y-121375500D01*
X158096535Y-121375500D01*
X158303466Y-121375500D01*
X158303467Y-121375499D01*
X158506420Y-121335130D01*
X158697598Y-121255941D01*
X158869655Y-121140977D01*
X159015977Y-120994655D01*
X159130941Y-120822598D01*
X159176748Y-120712009D01*
X159220589Y-120657606D01*
X159286883Y-120635541D01*
X159354582Y-120652820D01*
X159402193Y-120703957D01*
X159409240Y-120721144D01*
X159448904Y-120843216D01*
X159545379Y-121032557D01*
X159670272Y-121204459D01*
X159670276Y-121204464D01*
X159820535Y-121354723D01*
X159820540Y-121354727D01*
X159992442Y-121479620D01*
X160181782Y-121576095D01*
X160383871Y-121641757D01*
X160450000Y-121652231D01*
X160450000Y-120604145D01*
X160516657Y-120642630D01*
X160637465Y-120675000D01*
X160762535Y-120675000D01*
X160883343Y-120642630D01*
X160950000Y-120604145D01*
X160950000Y-121652230D01*
X161016126Y-121641757D01*
X161016129Y-121641757D01*
X161218217Y-121576095D01*
X161407557Y-121479620D01*
X161579459Y-121354727D01*
X161579464Y-121354723D01*
X161729723Y-121204464D01*
X161729727Y-121204459D01*
X161854620Y-121032557D01*
X161951095Y-120843217D01*
X161990759Y-120721144D01*
X162030196Y-120663469D01*
X162094555Y-120636270D01*
X162163401Y-120648184D01*
X162214877Y-120695428D01*
X162223251Y-120712009D01*
X162269057Y-120822596D01*
X162384024Y-120994657D01*
X162530342Y-121140975D01*
X162530345Y-121140977D01*
X162702402Y-121255941D01*
X162893580Y-121335130D01*
X163082187Y-121372646D01*
X163096530Y-121375499D01*
X163096534Y-121375500D01*
X163096535Y-121375500D01*
X163303466Y-121375500D01*
X163303467Y-121375499D01*
X163506420Y-121335130D01*
X163697598Y-121255941D01*
X163869655Y-121140977D01*
X164015977Y-120994655D01*
X164130941Y-120822598D01*
X164210130Y-120631420D01*
X164250500Y-120428465D01*
X164250500Y-119971535D01*
X164210130Y-119768580D01*
X164130941Y-119577402D01*
X164070353Y-119486725D01*
X164070352Y-119486722D01*
X164026257Y-119420730D01*
X170249500Y-119420730D01*
X170249500Y-120979269D01*
X170252353Y-121009699D01*
X170252353Y-121009701D01*
X170297206Y-121137880D01*
X170297207Y-121137882D01*
X170377850Y-121247150D01*
X170487118Y-121327793D01*
X170508089Y-121335131D01*
X170615299Y-121372646D01*
X170645730Y-121375500D01*
X170645734Y-121375500D01*
X171954270Y-121375500D01*
X171984699Y-121372646D01*
X171984701Y-121372646D01*
X172048790Y-121350219D01*
X172112882Y-121327793D01*
X172222150Y-121247150D01*
X172302793Y-121137882D01*
X172339648Y-121032557D01*
X172347646Y-121009701D01*
X172347646Y-121009699D01*
X172350500Y-120979269D01*
X172350500Y-119971530D01*
X172749500Y-119971530D01*
X172749500Y-120428469D01*
X172789868Y-120631412D01*
X172789870Y-120631420D01*
X172807921Y-120675000D01*
X172869059Y-120822598D01*
X172882836Y-120843217D01*
X172984024Y-120994657D01*
X173130342Y-121140975D01*
X173130345Y-121140977D01*
X173302402Y-121255941D01*
X173493580Y-121335130D01*
X173682187Y-121372646D01*
X173696530Y-121375499D01*
X173696534Y-121375500D01*
X173696535Y-121375500D01*
X173903466Y-121375500D01*
X173903467Y-121375499D01*
X174106420Y-121335130D01*
X174297598Y-121255941D01*
X174469655Y-121140977D01*
X174615977Y-120994655D01*
X174730941Y-120822598D01*
X174776748Y-120712009D01*
X174820589Y-120657606D01*
X174886883Y-120635541D01*
X174954582Y-120652820D01*
X175002193Y-120703957D01*
X175009240Y-120721144D01*
X175048904Y-120843216D01*
X175145379Y-121032557D01*
X175270272Y-121204459D01*
X175270276Y-121204464D01*
X175420535Y-121354723D01*
X175420540Y-121354727D01*
X175592442Y-121479620D01*
X175781782Y-121576095D01*
X175983871Y-121641757D01*
X176050000Y-121652231D01*
X176050000Y-120604145D01*
X176116657Y-120642630D01*
X176237465Y-120675000D01*
X176362535Y-120675000D01*
X176483343Y-120642630D01*
X176550000Y-120604145D01*
X176550000Y-121652230D01*
X176616126Y-121641757D01*
X176616129Y-121641757D01*
X176818217Y-121576095D01*
X177007557Y-121479620D01*
X177179459Y-121354727D01*
X177179464Y-121354723D01*
X177329723Y-121204464D01*
X177329727Y-121204459D01*
X177454620Y-121032557D01*
X177551095Y-120843217D01*
X177590759Y-120721144D01*
X177630196Y-120663469D01*
X177694555Y-120636270D01*
X177763401Y-120648184D01*
X177814877Y-120695428D01*
X177823251Y-120712009D01*
X177869057Y-120822596D01*
X177984024Y-120994657D01*
X178130342Y-121140975D01*
X178130345Y-121140977D01*
X178302402Y-121255941D01*
X178493580Y-121335130D01*
X178682187Y-121372646D01*
X178696530Y-121375499D01*
X178696534Y-121375500D01*
X178696535Y-121375500D01*
X178903466Y-121375500D01*
X178903467Y-121375499D01*
X179106420Y-121335130D01*
X179297598Y-121255941D01*
X179469655Y-121140977D01*
X179615977Y-120994655D01*
X179730941Y-120822598D01*
X179810130Y-120631420D01*
X179850500Y-120428465D01*
X179850500Y-119971535D01*
X179810130Y-119768580D01*
X179730941Y-119577402D01*
X179615977Y-119405345D01*
X179615975Y-119405342D01*
X179469657Y-119259024D01*
X179374638Y-119195535D01*
X179297598Y-119144059D01*
X179106420Y-119064870D01*
X179106412Y-119064868D01*
X178903469Y-119024500D01*
X178903465Y-119024500D01*
X178696535Y-119024500D01*
X178696530Y-119024500D01*
X178493587Y-119064868D01*
X178493579Y-119064870D01*
X178302403Y-119144058D01*
X178130342Y-119259024D01*
X177984024Y-119405342D01*
X177869057Y-119577404D01*
X177823251Y-119687990D01*
X177779409Y-119742394D01*
X177713115Y-119764458D01*
X177645416Y-119747178D01*
X177597806Y-119696041D01*
X177590759Y-119678855D01*
X177551095Y-119556782D01*
X177454620Y-119367442D01*
X177329727Y-119195540D01*
X177329723Y-119195535D01*
X177179464Y-119045276D01*
X177179459Y-119045272D01*
X177007557Y-118920379D01*
X176818215Y-118823903D01*
X176616124Y-118758241D01*
X176550000Y-118747768D01*
X176550000Y-119795854D01*
X176483343Y-119757370D01*
X176362535Y-119725000D01*
X176237465Y-119725000D01*
X176116657Y-119757370D01*
X176050000Y-119795854D01*
X176050000Y-118747768D01*
X176049999Y-118747768D01*
X175983875Y-118758241D01*
X175781784Y-118823903D01*
X175592442Y-118920379D01*
X175420540Y-119045272D01*
X175420535Y-119045276D01*
X175270276Y-119195535D01*
X175270272Y-119195540D01*
X175145379Y-119367442D01*
X175048905Y-119556781D01*
X175009240Y-119678856D01*
X174969802Y-119736531D01*
X174905443Y-119763729D01*
X174836597Y-119751814D01*
X174785121Y-119704570D01*
X174776748Y-119687990D01*
X174759865Y-119647231D01*
X174730941Y-119577402D01*
X174615977Y-119405345D01*
X174615975Y-119405342D01*
X174469657Y-119259024D01*
X174374638Y-119195535D01*
X174297598Y-119144059D01*
X174106420Y-119064870D01*
X174106412Y-119064868D01*
X173903469Y-119024500D01*
X173903465Y-119024500D01*
X173696535Y-119024500D01*
X173696530Y-119024500D01*
X173493587Y-119064868D01*
X173493579Y-119064870D01*
X173302403Y-119144058D01*
X173130342Y-119259024D01*
X172984024Y-119405342D01*
X172869058Y-119577403D01*
X172789870Y-119768579D01*
X172789868Y-119768587D01*
X172749500Y-119971530D01*
X172350500Y-119971530D01*
X172350500Y-119420730D01*
X172347646Y-119390300D01*
X172347646Y-119390298D01*
X172302793Y-119262119D01*
X172302792Y-119262117D01*
X172222150Y-119152850D01*
X172112882Y-119072207D01*
X172112880Y-119072206D01*
X171984700Y-119027353D01*
X171954270Y-119024500D01*
X171954266Y-119024500D01*
X170645734Y-119024500D01*
X170645730Y-119024500D01*
X170615300Y-119027353D01*
X170615298Y-119027353D01*
X170487119Y-119072206D01*
X170487117Y-119072207D01*
X170377850Y-119152850D01*
X170297207Y-119262117D01*
X170297206Y-119262119D01*
X170252353Y-119390298D01*
X170252353Y-119390300D01*
X170249500Y-119420730D01*
X164026257Y-119420730D01*
X164015980Y-119405349D01*
X164015974Y-119405341D01*
X163869657Y-119259024D01*
X163774638Y-119195535D01*
X163697598Y-119144059D01*
X163506420Y-119064870D01*
X163506412Y-119064868D01*
X163303469Y-119024500D01*
X163303465Y-119024500D01*
X163096535Y-119024500D01*
X163096530Y-119024500D01*
X162893587Y-119064868D01*
X162893579Y-119064870D01*
X162702403Y-119144058D01*
X162530342Y-119259024D01*
X162384024Y-119405342D01*
X162269057Y-119577404D01*
X162223251Y-119687990D01*
X162179409Y-119742394D01*
X162113115Y-119764458D01*
X162045416Y-119747178D01*
X161997806Y-119696041D01*
X161990759Y-119678855D01*
X161951095Y-119556782D01*
X161854620Y-119367442D01*
X161729727Y-119195540D01*
X161729723Y-119195535D01*
X161579464Y-119045276D01*
X161579459Y-119045272D01*
X161407557Y-118920379D01*
X161218215Y-118823903D01*
X161016124Y-118758241D01*
X160950000Y-118747768D01*
X160950000Y-119795854D01*
X160883343Y-119757370D01*
X160762535Y-119725000D01*
X160637465Y-119725000D01*
X160516657Y-119757370D01*
X160450000Y-119795854D01*
X160450000Y-118747768D01*
X160449999Y-118747768D01*
X160383875Y-118758241D01*
X160181784Y-118823903D01*
X159992442Y-118920379D01*
X159820540Y-119045272D01*
X159820535Y-119045276D01*
X159670276Y-119195535D01*
X159670272Y-119195540D01*
X159545379Y-119367442D01*
X159448905Y-119556781D01*
X159409240Y-119678856D01*
X159369802Y-119736531D01*
X159305443Y-119763729D01*
X159236597Y-119751814D01*
X159185121Y-119704570D01*
X159176748Y-119687990D01*
X159159865Y-119647231D01*
X159130941Y-119577402D01*
X159015977Y-119405345D01*
X159015975Y-119405342D01*
X158869657Y-119259024D01*
X158774638Y-119195535D01*
X158697598Y-119144059D01*
X158506420Y-119064870D01*
X158506412Y-119064868D01*
X158303469Y-119024500D01*
X158303465Y-119024500D01*
X158096535Y-119024500D01*
X158096530Y-119024500D01*
X157893587Y-119064868D01*
X157893579Y-119064870D01*
X157702403Y-119144058D01*
X157530342Y-119259024D01*
X157384024Y-119405342D01*
X157269058Y-119577403D01*
X157189870Y-119768579D01*
X157189868Y-119768587D01*
X157149500Y-119971530D01*
X156750500Y-119971530D01*
X156750500Y-119420730D01*
X156747646Y-119390300D01*
X156747646Y-119390298D01*
X156702793Y-119262119D01*
X156702792Y-119262117D01*
X156622150Y-119152850D01*
X156512882Y-119072207D01*
X156512880Y-119072206D01*
X156384700Y-119027353D01*
X156354270Y-119024500D01*
X156354266Y-119024500D01*
X155045734Y-119024500D01*
X155045730Y-119024500D01*
X155015300Y-119027353D01*
X155015298Y-119027353D01*
X154887119Y-119072206D01*
X154887117Y-119072207D01*
X154777850Y-119152850D01*
X154697207Y-119262117D01*
X154697206Y-119262119D01*
X154652353Y-119390298D01*
X154652353Y-119390300D01*
X154649500Y-119420730D01*
X150150000Y-119420730D01*
X150150000Y-110347399D01*
X163374500Y-110347399D01*
X163374500Y-110472601D01*
X163406905Y-110593536D01*
X163469505Y-110701964D01*
X163558036Y-110790495D01*
X163666464Y-110853095D01*
X163787399Y-110885500D01*
X163787401Y-110885500D01*
X163912599Y-110885500D01*
X163912601Y-110885500D01*
X164033536Y-110853095D01*
X164141964Y-110790495D01*
X164230495Y-110701964D01*
X164293095Y-110593536D01*
X164325500Y-110472601D01*
X164325500Y-110347399D01*
X164293095Y-110226464D01*
X164230495Y-110118036D01*
X164141964Y-110029505D01*
X164033536Y-109966905D01*
X164033537Y-109966905D01*
X163993224Y-109956103D01*
X163912601Y-109934500D01*
X163787399Y-109934500D01*
X163706775Y-109956103D01*
X163666463Y-109966905D01*
X163558037Y-110029504D01*
X163558034Y-110029506D01*
X163469506Y-110118034D01*
X163469504Y-110118037D01*
X163406905Y-110226463D01*
X163406905Y-110226464D01*
X163374500Y-110347399D01*
X150150000Y-110347399D01*
X150150000Y-105247399D01*
X163374500Y-105247399D01*
X163374500Y-105372601D01*
X163406905Y-105493536D01*
X163469505Y-105601964D01*
X163558036Y-105690495D01*
X163666464Y-105753095D01*
X163787399Y-105785500D01*
X163787401Y-105785500D01*
X163912599Y-105785500D01*
X163912601Y-105785500D01*
X164033536Y-105753095D01*
X164141964Y-105690495D01*
X164216804Y-105615655D01*
X171333500Y-105615655D01*
X171333500Y-106167500D01*
X172154488Y-106167500D01*
X172121575Y-106224507D01*
X172087500Y-106351674D01*
X172087500Y-106483326D01*
X172121575Y-106610493D01*
X172154488Y-106667500D01*
X171333500Y-106667500D01*
X171333500Y-107219344D01*
X171339901Y-107278872D01*
X171339903Y-107278879D01*
X171390145Y-107413586D01*
X171390149Y-107413593D01*
X171476309Y-107528687D01*
X171476312Y-107528690D01*
X171591406Y-107614850D01*
X171591413Y-107614854D01*
X171726120Y-107665096D01*
X171726127Y-107665098D01*
X171785655Y-107671499D01*
X171785672Y-107671500D01*
X172337500Y-107671500D01*
X172337500Y-106850512D01*
X172394507Y-106883425D01*
X172521674Y-106917500D01*
X172653326Y-106917500D01*
X172780493Y-106883425D01*
X172837500Y-106850512D01*
X172837500Y-107671500D01*
X173389328Y-107671500D01*
X173389344Y-107671499D01*
X173448872Y-107665098D01*
X173448879Y-107665096D01*
X173583586Y-107614854D01*
X173583593Y-107614850D01*
X173698687Y-107528690D01*
X173698690Y-107528687D01*
X173784850Y-107413593D01*
X173784854Y-107413586D01*
X173835096Y-107278879D01*
X173835098Y-107278872D01*
X173841499Y-107219344D01*
X173841500Y-107219327D01*
X173841500Y-106667500D01*
X173020512Y-106667500D01*
X173053425Y-106610493D01*
X173087500Y-106483326D01*
X173087500Y-106351674D01*
X173053425Y-106224507D01*
X173020512Y-106167500D01*
X173841500Y-106167500D01*
X173841500Y-105615672D01*
X173841499Y-105615655D01*
X173835098Y-105556127D01*
X173835096Y-105556120D01*
X173784854Y-105421413D01*
X173784850Y-105421406D01*
X173698690Y-105306312D01*
X173698687Y-105306309D01*
X173583593Y-105220149D01*
X173583586Y-105220145D01*
X173448879Y-105169903D01*
X173448872Y-105169901D01*
X173389344Y-105163500D01*
X172837500Y-105163500D01*
X172837500Y-105984488D01*
X172780493Y-105951575D01*
X172653326Y-105917500D01*
X172521674Y-105917500D01*
X172394507Y-105951575D01*
X172337500Y-105984488D01*
X172337500Y-105163500D01*
X171785655Y-105163500D01*
X171726127Y-105169901D01*
X171726120Y-105169903D01*
X171591413Y-105220145D01*
X171591406Y-105220149D01*
X171476312Y-105306309D01*
X171476309Y-105306312D01*
X171390149Y-105421406D01*
X171390145Y-105421413D01*
X171339903Y-105556120D01*
X171339901Y-105556127D01*
X171333500Y-105615655D01*
X164216804Y-105615655D01*
X164230495Y-105601964D01*
X164256963Y-105556120D01*
X164260294Y-105550351D01*
X164273401Y-105527646D01*
X164293095Y-105493536D01*
X164325500Y-105372601D01*
X164325500Y-105247399D01*
X164293095Y-105126464D01*
X164270256Y-105086905D01*
X164270255Y-105086902D01*
X164237275Y-105029778D01*
X184549500Y-105029778D01*
X184549500Y-105250221D01*
X184583985Y-105467952D01*
X184652103Y-105677603D01*
X184652104Y-105677606D01*
X184752187Y-105874025D01*
X184881752Y-106052358D01*
X184881756Y-106052363D01*
X185037636Y-106208243D01*
X185037641Y-106208247D01*
X185193192Y-106321260D01*
X185215978Y-106337815D01*
X185344375Y-106403237D01*
X185412393Y-106437895D01*
X185412396Y-106437896D01*
X185517221Y-106471955D01*
X185622049Y-106506015D01*
X185839778Y-106540500D01*
X185839779Y-106540500D01*
X186060221Y-106540500D01*
X186060222Y-106540500D01*
X186277951Y-106506015D01*
X186487606Y-106437895D01*
X186684022Y-106337815D01*
X186862365Y-106208242D01*
X187018242Y-106052365D01*
X187147815Y-105874022D01*
X187247895Y-105677606D01*
X187316015Y-105467951D01*
X187350500Y-105250222D01*
X187350500Y-105029778D01*
X187316015Y-104812049D01*
X187247895Y-104602394D01*
X187247895Y-104602393D01*
X187213237Y-104534375D01*
X187147815Y-104405978D01*
X187131260Y-104383192D01*
X187018247Y-104227641D01*
X187018243Y-104227636D01*
X186862363Y-104071756D01*
X186862358Y-104071752D01*
X186684025Y-103942187D01*
X186684024Y-103942186D01*
X186684022Y-103942185D01*
X186621096Y-103910122D01*
X186487606Y-103842104D01*
X186487603Y-103842103D01*
X186277952Y-103773985D01*
X186169086Y-103756742D01*
X186060222Y-103739500D01*
X185839778Y-103739500D01*
X185767201Y-103750995D01*
X185622047Y-103773985D01*
X185412396Y-103842103D01*
X185412393Y-103842104D01*
X185215974Y-103942187D01*
X185037641Y-104071752D01*
X185037636Y-104071756D01*
X184881756Y-104227636D01*
X184881752Y-104227641D01*
X184752187Y-104405974D01*
X184652104Y-104602393D01*
X184652103Y-104602396D01*
X184583985Y-104812047D01*
X184549500Y-105029778D01*
X164237275Y-105029778D01*
X164230499Y-105018042D01*
X164230496Y-105018038D01*
X164230495Y-105018036D01*
X164141964Y-104929505D01*
X164033536Y-104866905D01*
X164033537Y-104866905D01*
X163993224Y-104856103D01*
X163912601Y-104834500D01*
X163787399Y-104834500D01*
X163706775Y-104856103D01*
X163666463Y-104866905D01*
X163558037Y-104929504D01*
X163558034Y-104929506D01*
X163469506Y-105018034D01*
X163469504Y-105018037D01*
X163406905Y-105126463D01*
X163406905Y-105126464D01*
X163374500Y-105247399D01*
X150150000Y-105247399D01*
X150150000Y-103783485D01*
X171633000Y-103783485D01*
X171633000Y-103971514D01*
X171669679Y-104155909D01*
X171669682Y-104155921D01*
X171741629Y-104329618D01*
X171741636Y-104329631D01*
X171846091Y-104485957D01*
X171846094Y-104485961D01*
X171979038Y-104618905D01*
X171979042Y-104618908D01*
X172135368Y-104723363D01*
X172135381Y-104723370D01*
X172309078Y-104795317D01*
X172309083Y-104795319D01*
X172493485Y-104831999D01*
X172493488Y-104832000D01*
X172493490Y-104832000D01*
X172681512Y-104832000D01*
X172681513Y-104831999D01*
X172865917Y-104795319D01*
X173039625Y-104723367D01*
X173195958Y-104618908D01*
X173328908Y-104485958D01*
X173428173Y-104337399D01*
X175524500Y-104337399D01*
X175524500Y-104462601D01*
X175556905Y-104583536D01*
X175619505Y-104691964D01*
X175708036Y-104780495D01*
X175816464Y-104843095D01*
X175937399Y-104875500D01*
X175937401Y-104875500D01*
X176062599Y-104875500D01*
X176062601Y-104875500D01*
X176183536Y-104843095D01*
X176291964Y-104780495D01*
X176380495Y-104691964D01*
X176443095Y-104583536D01*
X176475500Y-104462601D01*
X176475500Y-104337399D01*
X176443095Y-104216464D01*
X176380495Y-104108036D01*
X176291964Y-104019505D01*
X176183536Y-103956905D01*
X176183537Y-103956905D01*
X176143224Y-103946103D01*
X176062601Y-103924500D01*
X175937399Y-103924500D01*
X175856775Y-103946103D01*
X175816463Y-103956905D01*
X175708037Y-104019504D01*
X175708034Y-104019506D01*
X175619506Y-104108034D01*
X175619504Y-104108037D01*
X175556905Y-104216463D01*
X175553911Y-104227636D01*
X175524500Y-104337399D01*
X173428173Y-104337399D01*
X173433367Y-104329625D01*
X173433368Y-104329622D01*
X173433370Y-104329619D01*
X173453169Y-104281819D01*
X173453169Y-104281818D01*
X173505319Y-104155917D01*
X173542000Y-103971510D01*
X173542000Y-103783490D01*
X173542000Y-103783487D01*
X173541999Y-103783485D01*
X173505320Y-103599090D01*
X173505319Y-103599083D01*
X173505317Y-103599078D01*
X173433370Y-103425381D01*
X173433363Y-103425368D01*
X173328908Y-103269042D01*
X173328905Y-103269038D01*
X173195961Y-103136094D01*
X173195957Y-103136091D01*
X173039631Y-103031636D01*
X173039618Y-103031629D01*
X172865921Y-102959682D01*
X172865909Y-102959679D01*
X172681513Y-102923000D01*
X172681510Y-102923000D01*
X172493490Y-102923000D01*
X172493487Y-102923000D01*
X172309090Y-102959679D01*
X172309078Y-102959682D01*
X172135381Y-103031629D01*
X172135368Y-103031636D01*
X171979042Y-103136091D01*
X171979038Y-103136094D01*
X171846094Y-103269038D01*
X171846091Y-103269042D01*
X171741636Y-103425368D01*
X171741629Y-103425381D01*
X171669682Y-103599078D01*
X171669679Y-103599090D01*
X171633000Y-103783485D01*
X150150000Y-103783485D01*
X150150000Y-102734000D01*
X150169685Y-102666961D01*
X150222489Y-102621206D01*
X150274000Y-102610000D01*
X180150000Y-102610000D01*
X180150000Y-99948575D01*
X184250000Y-99948575D01*
X184250000Y-100171424D01*
X184279085Y-100392354D01*
X184279088Y-100392367D01*
X184336763Y-100607618D01*
X184422045Y-100813502D01*
X184422054Y-100813520D01*
X184533464Y-101006491D01*
X184533473Y-101006504D01*
X184584040Y-101072403D01*
X184584043Y-101072403D01*
X185234152Y-100422293D01*
X185241049Y-100438942D01*
X185328599Y-100569970D01*
X185440030Y-100681401D01*
X185571058Y-100768951D01*
X185587705Y-100775846D01*
X184937595Y-101425955D01*
X184937595Y-101425956D01*
X185003507Y-101476533D01*
X185196485Y-101587949D01*
X185196497Y-101587954D01*
X185402381Y-101673236D01*
X185617632Y-101730911D01*
X185617645Y-101730914D01*
X185838575Y-101760000D01*
X186061425Y-101760000D01*
X186282354Y-101730914D01*
X186282367Y-101730911D01*
X186497618Y-101673236D01*
X186703502Y-101587954D01*
X186703514Y-101587949D01*
X186896498Y-101476530D01*
X186962403Y-101425957D01*
X186962404Y-101425956D01*
X186312294Y-100775846D01*
X186328942Y-100768951D01*
X186459970Y-100681401D01*
X186571401Y-100569970D01*
X186658951Y-100438942D01*
X186665846Y-100422294D01*
X187315956Y-101072404D01*
X187315957Y-101072403D01*
X187366530Y-101006498D01*
X187477949Y-100813514D01*
X187477954Y-100813502D01*
X187563236Y-100607618D01*
X187620911Y-100392367D01*
X187620914Y-100392354D01*
X187650000Y-100171424D01*
X187650000Y-99948575D01*
X187620914Y-99727645D01*
X187620911Y-99727632D01*
X187563236Y-99512381D01*
X187477954Y-99306497D01*
X187477949Y-99306485D01*
X187366533Y-99113507D01*
X187315956Y-99047595D01*
X187315955Y-99047595D01*
X186665846Y-99697704D01*
X186658951Y-99681058D01*
X186571401Y-99550030D01*
X186459970Y-99438599D01*
X186328942Y-99351049D01*
X186312293Y-99344152D01*
X186962403Y-98694043D01*
X186962403Y-98694040D01*
X186896504Y-98643473D01*
X186896491Y-98643464D01*
X186703520Y-98532054D01*
X186703502Y-98532045D01*
X186497618Y-98446763D01*
X186282367Y-98389088D01*
X186282354Y-98389085D01*
X186061425Y-98360000D01*
X185838575Y-98360000D01*
X185617645Y-98389085D01*
X185617632Y-98389088D01*
X185402381Y-98446763D01*
X185196497Y-98532045D01*
X185196479Y-98532054D01*
X185003511Y-98643462D01*
X184937595Y-98694042D01*
X185587706Y-99344152D01*
X185571058Y-99351049D01*
X185440030Y-99438599D01*
X185328599Y-99550030D01*
X185241049Y-99681058D01*
X185234153Y-99697706D01*
X184584042Y-99047595D01*
X184533462Y-99113511D01*
X184422054Y-99306479D01*
X184422045Y-99306497D01*
X184336763Y-99512381D01*
X184279088Y-99727632D01*
X184279085Y-99727645D01*
X184250000Y-99948575D01*
X180150000Y-99948575D01*
X180150000Y-95684000D01*
X180169685Y-95616961D01*
X180222489Y-95571206D01*
X180274000Y-95560000D01*
X192775500Y-95560000D01*
X192842539Y-95579685D01*
G37*
%TD.AperFunction*%
%TD*%
%TA.AperFunction,Conductor*%
%TO.N,GND*%
G36*
X136478945Y-46880185D02*
G01*
X136524700Y-46932989D01*
X136534644Y-47002147D01*
X136505619Y-47065703D01*
X136478782Y-47087129D01*
X136479545Y-47088271D01*
X136306600Y-47203829D01*
X136306596Y-47203832D01*
X136163832Y-47346596D01*
X136163829Y-47346600D01*
X136051659Y-47514473D01*
X136051652Y-47514486D01*
X135974390Y-47701016D01*
X135974387Y-47701025D01*
X135935000Y-47899041D01*
X135935000Y-48150000D01*
X136635000Y-48150000D01*
X136635000Y-48650000D01*
X135935000Y-48650000D01*
X135935000Y-48900958D01*
X135974387Y-49098974D01*
X135974390Y-49098983D01*
X136051652Y-49285513D01*
X136051659Y-49285526D01*
X136163829Y-49453399D01*
X136163832Y-49453403D01*
X136306596Y-49596167D01*
X136306600Y-49596170D01*
X136474473Y-49708340D01*
X136474486Y-49708347D01*
X136661016Y-49785609D01*
X136661025Y-49785612D01*
X136710000Y-49795353D01*
X136710000Y-49009618D01*
X136760446Y-49060064D01*
X136834555Y-49102851D01*
X136917213Y-49125000D01*
X137002787Y-49125000D01*
X137085445Y-49102851D01*
X137159554Y-49060064D01*
X137210000Y-49009618D01*
X137210000Y-49795352D01*
X137258974Y-49785612D01*
X137258983Y-49785609D01*
X137445513Y-49708347D01*
X137445526Y-49708340D01*
X137613399Y-49596170D01*
X137613403Y-49596167D01*
X137756167Y-49453403D01*
X137756170Y-49453399D01*
X137868340Y-49285526D01*
X137868347Y-49285513D01*
X137945609Y-49098983D01*
X137945612Y-49098974D01*
X137984999Y-48900958D01*
X137985000Y-48900955D01*
X137985000Y-48650000D01*
X137285000Y-48650000D01*
X137285000Y-48150000D01*
X137985000Y-48150000D01*
X137985000Y-47899045D01*
X137984999Y-47899041D01*
X137945612Y-47701025D01*
X137945609Y-47701016D01*
X137868347Y-47514486D01*
X137868340Y-47514473D01*
X137756170Y-47346600D01*
X137756167Y-47346596D01*
X137613403Y-47203832D01*
X137613399Y-47203829D01*
X137440455Y-47088271D01*
X137441842Y-47086194D01*
X137399804Y-47044910D01*
X137384335Y-46976774D01*
X137408158Y-46911091D01*
X137463710Y-46868715D01*
X137508094Y-46860500D01*
X145051906Y-46860500D01*
X145118945Y-46880185D01*
X145164700Y-46932989D01*
X145174644Y-47002147D01*
X145145619Y-47065703D01*
X145118782Y-47087129D01*
X145119545Y-47088271D01*
X144946600Y-47203829D01*
X144946596Y-47203832D01*
X144803832Y-47346596D01*
X144803829Y-47346600D01*
X144691659Y-47514473D01*
X144691652Y-47514486D01*
X144614390Y-47701016D01*
X144614387Y-47701025D01*
X144575000Y-47899041D01*
X144575000Y-48150000D01*
X145275000Y-48150000D01*
X145275000Y-48650000D01*
X144575000Y-48650000D01*
X144575000Y-48900958D01*
X144614387Y-49098974D01*
X144614390Y-49098983D01*
X144691652Y-49285513D01*
X144691659Y-49285526D01*
X144803829Y-49453399D01*
X144803832Y-49453403D01*
X144946596Y-49596167D01*
X144946600Y-49596170D01*
X145114473Y-49708340D01*
X145114486Y-49708347D01*
X145301016Y-49785609D01*
X145301025Y-49785612D01*
X145350000Y-49795353D01*
X145350000Y-49009618D01*
X145400446Y-49060064D01*
X145474555Y-49102851D01*
X145557213Y-49125000D01*
X145642787Y-49125000D01*
X145725445Y-49102851D01*
X145799554Y-49060064D01*
X145850000Y-49009618D01*
X145850000Y-49795352D01*
X145898974Y-49785612D01*
X145898983Y-49785609D01*
X146085513Y-49708347D01*
X146085526Y-49708340D01*
X146253399Y-49596170D01*
X146253403Y-49596167D01*
X146396167Y-49453403D01*
X146396170Y-49453399D01*
X146508340Y-49285526D01*
X146508347Y-49285513D01*
X146585609Y-49098983D01*
X146585612Y-49098974D01*
X146624999Y-48900958D01*
X146625000Y-48900955D01*
X146625000Y-48650000D01*
X145925000Y-48650000D01*
X145925000Y-48150000D01*
X146625000Y-48150000D01*
X146625000Y-47899045D01*
X146624999Y-47899041D01*
X146585612Y-47701025D01*
X146585609Y-47701016D01*
X146508347Y-47514486D01*
X146508340Y-47514473D01*
X146396170Y-47346600D01*
X146396167Y-47346596D01*
X146253403Y-47203832D01*
X146253399Y-47203829D01*
X146080455Y-47088271D01*
X146081842Y-47086194D01*
X146039804Y-47044910D01*
X146024335Y-46976774D01*
X146048158Y-46911091D01*
X146103710Y-46868715D01*
X146148094Y-46860500D01*
X153036000Y-46860500D01*
X153103039Y-46880185D01*
X153148794Y-46932989D01*
X153160000Y-46984500D01*
X153160000Y-52610000D01*
X172560000Y-52610000D01*
X172560000Y-50441491D01*
X186149500Y-50441491D01*
X186149500Y-50778508D01*
X186187231Y-51113381D01*
X186187233Y-51113397D01*
X186262223Y-51441953D01*
X186262227Y-51441965D01*
X186373532Y-51760054D01*
X186519752Y-52063683D01*
X186519754Y-52063686D01*
X186699054Y-52349039D01*
X186855811Y-52545606D01*
X186903573Y-52605499D01*
X186909175Y-52612523D01*
X187147477Y-52850825D01*
X187410961Y-53060946D01*
X187696314Y-53240246D01*
X187999949Y-53386469D01*
X188238848Y-53470063D01*
X188318034Y-53497772D01*
X188318046Y-53497776D01*
X188646606Y-53572767D01*
X188981492Y-53610499D01*
X188981493Y-53610500D01*
X188981496Y-53610500D01*
X189318507Y-53610500D01*
X189318507Y-53610499D01*
X189653394Y-53572767D01*
X189981954Y-53497776D01*
X190300051Y-53386469D01*
X190603686Y-53240246D01*
X190889039Y-53060946D01*
X191152523Y-52850825D01*
X191390825Y-52612523D01*
X191600946Y-52349039D01*
X191780246Y-52063686D01*
X191926469Y-51760051D01*
X192037776Y-51441954D01*
X192112767Y-51113394D01*
X192150500Y-50778504D01*
X192150500Y-50441496D01*
X192112767Y-50106606D01*
X192037776Y-49778046D01*
X191926469Y-49459949D01*
X191780246Y-49156314D01*
X191600946Y-48870961D01*
X191390825Y-48607477D01*
X191152523Y-48369175D01*
X190889039Y-48159054D01*
X190603686Y-47979754D01*
X190603683Y-47979752D01*
X190300054Y-47833532D01*
X189981965Y-47722227D01*
X189981953Y-47722223D01*
X189653397Y-47647233D01*
X189653381Y-47647231D01*
X189318508Y-47609500D01*
X189318504Y-47609500D01*
X188981496Y-47609500D01*
X188981491Y-47609500D01*
X188646618Y-47647231D01*
X188646602Y-47647233D01*
X188318046Y-47722223D01*
X188318034Y-47722227D01*
X187999945Y-47833532D01*
X187696316Y-47979752D01*
X187410962Y-48159053D01*
X187147477Y-48369174D01*
X186909174Y-48607477D01*
X186699053Y-48870962D01*
X186519752Y-49156316D01*
X186373532Y-49459945D01*
X186262227Y-49778034D01*
X186262223Y-49778046D01*
X186187233Y-50106602D01*
X186187231Y-50106618D01*
X186149500Y-50441491D01*
X172560000Y-50441491D01*
X172560000Y-49737399D01*
X181224500Y-49737399D01*
X181224500Y-49862601D01*
X181256905Y-49983536D01*
X181319505Y-50091964D01*
X181408036Y-50180495D01*
X181516464Y-50243095D01*
X181637399Y-50275500D01*
X181637401Y-50275500D01*
X181762599Y-50275500D01*
X181762601Y-50275500D01*
X181883536Y-50243095D01*
X181991964Y-50180495D01*
X182080495Y-50091964D01*
X182143095Y-49983536D01*
X182175500Y-49862601D01*
X182175500Y-49737399D01*
X182143095Y-49616464D01*
X182080495Y-49508036D01*
X181991964Y-49419505D01*
X181883536Y-49356905D01*
X181883537Y-49356905D01*
X181843224Y-49346103D01*
X181762601Y-49324500D01*
X181637399Y-49324500D01*
X181556775Y-49346103D01*
X181516463Y-49356905D01*
X181408037Y-49419504D01*
X181408034Y-49419506D01*
X181319506Y-49508034D01*
X181319504Y-49508037D01*
X181256905Y-49616463D01*
X181256905Y-49616464D01*
X181224500Y-49737399D01*
X172560000Y-49737399D01*
X172560000Y-46984500D01*
X172579685Y-46917461D01*
X172632489Y-46871706D01*
X172684000Y-46860500D01*
X189105830Y-46860500D01*
X189146949Y-46860500D01*
X189153032Y-46860648D01*
X189511433Y-46878256D01*
X189523541Y-46879448D01*
X189875475Y-46931653D01*
X189887389Y-46934023D01*
X190232520Y-47020473D01*
X190244147Y-47024000D01*
X190579151Y-47143867D01*
X190590363Y-47148511D01*
X190912012Y-47300639D01*
X190922720Y-47306363D01*
X191227881Y-47489270D01*
X191237996Y-47496028D01*
X191262884Y-47514486D01*
X191523769Y-47707971D01*
X191533175Y-47715691D01*
X191796790Y-47954618D01*
X191805381Y-47963209D01*
X191820375Y-47979752D01*
X192044308Y-48226824D01*
X192052028Y-48236230D01*
X192263969Y-48522000D01*
X192270729Y-48532118D01*
X192315898Y-48607477D01*
X192356939Y-48675951D01*
X192453629Y-48837267D01*
X192459364Y-48847995D01*
X192495995Y-48925445D01*
X192611485Y-49169629D01*
X192616136Y-49180858D01*
X192715997Y-49459949D01*
X192735994Y-49515837D01*
X192739526Y-49527481D01*
X192825973Y-49872597D01*
X192828347Y-49884532D01*
X192880550Y-50236457D01*
X192881743Y-50248567D01*
X192899351Y-50606966D01*
X192899500Y-50613051D01*
X192899500Y-94486000D01*
X192879815Y-94553039D01*
X192827011Y-94598794D01*
X192775500Y-94610000D01*
X179150000Y-94610000D01*
X179150000Y-101436000D01*
X179130315Y-101503039D01*
X179077511Y-101548794D01*
X179026000Y-101560000D01*
X173965500Y-101560000D01*
X173898461Y-101540315D01*
X173852706Y-101487511D01*
X173841500Y-101436000D01*
X173841500Y-101238802D01*
X173810623Y-101043853D01*
X173749626Y-100856126D01*
X173660020Y-100680268D01*
X173660012Y-100680255D01*
X173634042Y-100644510D01*
X173634041Y-100644509D01*
X173070462Y-101208089D01*
X173053425Y-101144507D01*
X172987599Y-101030493D01*
X172894507Y-100937401D01*
X172780493Y-100871575D01*
X172716909Y-100854537D01*
X173280489Y-100290957D01*
X173244739Y-100264983D01*
X173068873Y-100175373D01*
X172881146Y-100114376D01*
X172686197Y-100083500D01*
X172488803Y-100083500D01*
X172293853Y-100114376D01*
X172106126Y-100175373D01*
X171930262Y-100264982D01*
X171930260Y-100264983D01*
X171894510Y-100290956D01*
X171894510Y-100290957D01*
X172458091Y-100854537D01*
X172394507Y-100871575D01*
X172280493Y-100937401D01*
X172187401Y-101030493D01*
X172121575Y-101144507D01*
X172104537Y-101208090D01*
X171540957Y-100644510D01*
X171540956Y-100644510D01*
X171514983Y-100680260D01*
X171514982Y-100680262D01*
X171425373Y-100856126D01*
X171364376Y-101043853D01*
X171333500Y-101238802D01*
X171333500Y-101436000D01*
X171313815Y-101503039D01*
X171261011Y-101548794D01*
X171209500Y-101560000D01*
X142252686Y-101560000D01*
X142185647Y-101540315D01*
X142139892Y-101487511D01*
X142129948Y-101418353D01*
X142131069Y-101411809D01*
X142154499Y-101294014D01*
X142154500Y-101294012D01*
X142154500Y-101105987D01*
X142154499Y-101105985D01*
X142142140Y-101043853D01*
X142117819Y-100921583D01*
X142064982Y-100794022D01*
X142045870Y-100747881D01*
X142045863Y-100747868D01*
X141941408Y-100591542D01*
X141941405Y-100591538D01*
X141808458Y-100458591D01*
X141782606Y-100441318D01*
X141652130Y-100354136D01*
X141652118Y-100354129D01*
X141478421Y-100282182D01*
X141478409Y-100282179D01*
X141294013Y-100245500D01*
X141294010Y-100245500D01*
X141105990Y-100245500D01*
X141105987Y-100245500D01*
X140921590Y-100282179D01*
X140921578Y-100282182D01*
X140747881Y-100354129D01*
X140747868Y-100354136D01*
X140591542Y-100458591D01*
X140591538Y-100458594D01*
X140458594Y-100591538D01*
X140458591Y-100591542D01*
X140354136Y-100747868D01*
X140354129Y-100747881D01*
X140282182Y-100921578D01*
X140282179Y-100921590D01*
X140245500Y-101105985D01*
X140245500Y-101294014D01*
X140268931Y-101411809D01*
X140262704Y-101481400D01*
X140219841Y-101536578D01*
X140153951Y-101559822D01*
X140147314Y-101560000D01*
X113524500Y-101560000D01*
X113457461Y-101540315D01*
X113411706Y-101487511D01*
X113400500Y-101436000D01*
X113400500Y-97947399D01*
X132874500Y-97947399D01*
X132874500Y-98072601D01*
X132906905Y-98193536D01*
X132969505Y-98301964D01*
X133058036Y-98390495D01*
X133166464Y-98453095D01*
X133287399Y-98485500D01*
X133287401Y-98485500D01*
X133412599Y-98485500D01*
X133412601Y-98485500D01*
X133533536Y-98453095D01*
X133641964Y-98390495D01*
X133730495Y-98301964D01*
X133793095Y-98193536D01*
X133825500Y-98072601D01*
X133825500Y-97947399D01*
X136474500Y-97947399D01*
X136474500Y-98072601D01*
X136506905Y-98193536D01*
X136569505Y-98301964D01*
X136658036Y-98390495D01*
X136766464Y-98453095D01*
X136887399Y-98485500D01*
X136887401Y-98485500D01*
X137012599Y-98485500D01*
X137012601Y-98485500D01*
X137133536Y-98453095D01*
X137241964Y-98390495D01*
X137330495Y-98301964D01*
X137393095Y-98193536D01*
X137425500Y-98072601D01*
X137425500Y-97947399D01*
X137409301Y-97886944D01*
X137409301Y-97886942D01*
X137401587Y-97858155D01*
X139946000Y-97858155D01*
X139946000Y-98410000D01*
X140766988Y-98410000D01*
X140734075Y-98467007D01*
X140700000Y-98594174D01*
X140700000Y-98725826D01*
X140734075Y-98852993D01*
X140766988Y-98910000D01*
X139946000Y-98910000D01*
X139946000Y-99461844D01*
X139952401Y-99521372D01*
X139952403Y-99521379D01*
X140002645Y-99656086D01*
X140002649Y-99656093D01*
X140088809Y-99771187D01*
X140088812Y-99771190D01*
X140203906Y-99857350D01*
X140203913Y-99857354D01*
X140338620Y-99907596D01*
X140338627Y-99907598D01*
X140398155Y-99913999D01*
X140398172Y-99914000D01*
X140950000Y-99914000D01*
X140950000Y-99093012D01*
X141007007Y-99125925D01*
X141134174Y-99160000D01*
X141265826Y-99160000D01*
X141392993Y-99125925D01*
X141450000Y-99093012D01*
X141450000Y-99914000D01*
X142001828Y-99914000D01*
X142001844Y-99913999D01*
X142061372Y-99907598D01*
X142061379Y-99907596D01*
X142196086Y-99857354D01*
X142196093Y-99857350D01*
X142311187Y-99771190D01*
X142311190Y-99771187D01*
X142397350Y-99656093D01*
X142397354Y-99656086D01*
X142447596Y-99521379D01*
X142447598Y-99521372D01*
X142453999Y-99461844D01*
X142454000Y-99461827D01*
X142454000Y-98910000D01*
X141633012Y-98910000D01*
X141665925Y-98852993D01*
X141700000Y-98725826D01*
X141700000Y-98703485D01*
X171633000Y-98703485D01*
X171633000Y-98891514D01*
X171669679Y-99075909D01*
X171669682Y-99075921D01*
X171741629Y-99249618D01*
X171741636Y-99249631D01*
X171846091Y-99405957D01*
X171846094Y-99405961D01*
X171979038Y-99538905D01*
X171979042Y-99538908D01*
X172135368Y-99643363D01*
X172135381Y-99643370D01*
X172309078Y-99715317D01*
X172309083Y-99715319D01*
X172493485Y-99751999D01*
X172493488Y-99752000D01*
X172493490Y-99752000D01*
X172681512Y-99752000D01*
X172681513Y-99751999D01*
X172865917Y-99715319D01*
X173039625Y-99643367D01*
X173195958Y-99538908D01*
X173328908Y-99405958D01*
X173433367Y-99249625D01*
X173505319Y-99075917D01*
X173542000Y-98891510D01*
X173542000Y-98703490D01*
X173542000Y-98703487D01*
X173541999Y-98703485D01*
X173533250Y-98659500D01*
X173505319Y-98519083D01*
X173491409Y-98485500D01*
X173433370Y-98345381D01*
X173433363Y-98345368D01*
X173328908Y-98189042D01*
X173328905Y-98189038D01*
X173195961Y-98056094D01*
X173195957Y-98056091D01*
X173039631Y-97951636D01*
X173039618Y-97951629D01*
X172865921Y-97879682D01*
X172865909Y-97879679D01*
X172681513Y-97843000D01*
X172681510Y-97843000D01*
X172493490Y-97843000D01*
X172493487Y-97843000D01*
X172309090Y-97879679D01*
X172309078Y-97879682D01*
X172135381Y-97951629D01*
X172135368Y-97951636D01*
X171979042Y-98056091D01*
X171979038Y-98056094D01*
X171846094Y-98189038D01*
X171846091Y-98189042D01*
X171741636Y-98345368D01*
X171741629Y-98345381D01*
X171669682Y-98519078D01*
X171669679Y-98519090D01*
X171633000Y-98703485D01*
X141700000Y-98703485D01*
X141700000Y-98594174D01*
X141665925Y-98467007D01*
X141633012Y-98410000D01*
X142454000Y-98410000D01*
X142454000Y-98037399D01*
X166424500Y-98037399D01*
X166424500Y-98162601D01*
X166456905Y-98283536D01*
X166519505Y-98391964D01*
X166608036Y-98480495D01*
X166716464Y-98543095D01*
X166837399Y-98575500D01*
X166837401Y-98575500D01*
X166962599Y-98575500D01*
X166962601Y-98575500D01*
X167083536Y-98543095D01*
X167191964Y-98480495D01*
X167280495Y-98391964D01*
X167343095Y-98283536D01*
X167375500Y-98162601D01*
X167375500Y-98037399D01*
X167343095Y-97916464D01*
X167280495Y-97808036D01*
X167191964Y-97719505D01*
X167083536Y-97656905D01*
X167083537Y-97656905D01*
X167043224Y-97646103D01*
X166962601Y-97624500D01*
X166837399Y-97624500D01*
X166756775Y-97646103D01*
X166716463Y-97656905D01*
X166608037Y-97719504D01*
X166608034Y-97719506D01*
X166519506Y-97808034D01*
X166519504Y-97808037D01*
X166456905Y-97916463D01*
X166440702Y-97976931D01*
X166424500Y-98037399D01*
X142454000Y-98037399D01*
X142454000Y-97858172D01*
X142453999Y-97858155D01*
X142447598Y-97798627D01*
X142447596Y-97798620D01*
X142397354Y-97663913D01*
X142397350Y-97663906D01*
X142311190Y-97548812D01*
X142311187Y-97548809D01*
X142196093Y-97462649D01*
X142196086Y-97462645D01*
X142061379Y-97412403D01*
X142061372Y-97412401D01*
X142001844Y-97406000D01*
X141450000Y-97406000D01*
X141450000Y-98226988D01*
X141392993Y-98194075D01*
X141265826Y-98160000D01*
X141134174Y-98160000D01*
X141007007Y-98194075D01*
X140950000Y-98226988D01*
X140950000Y-97406000D01*
X140398155Y-97406000D01*
X140338627Y-97412401D01*
X140338620Y-97412403D01*
X140203913Y-97462645D01*
X140203906Y-97462649D01*
X140088812Y-97548809D01*
X140088809Y-97548812D01*
X140002649Y-97663906D01*
X140002645Y-97663913D01*
X139952403Y-97798620D01*
X139952401Y-97798627D01*
X139946000Y-97858155D01*
X137401587Y-97858155D01*
X137393096Y-97826468D01*
X137393095Y-97826464D01*
X137330495Y-97718036D01*
X137241964Y-97629505D01*
X137133536Y-97566905D01*
X137133537Y-97566905D01*
X137066013Y-97548812D01*
X137012601Y-97534500D01*
X136887399Y-97534500D01*
X136833987Y-97548812D01*
X136766463Y-97566905D01*
X136658037Y-97629504D01*
X136658034Y-97629506D01*
X136569506Y-97718034D01*
X136569504Y-97718037D01*
X136506905Y-97826463D01*
X136506905Y-97826464D01*
X136474500Y-97947399D01*
X133825500Y-97947399D01*
X133793095Y-97826464D01*
X133730495Y-97718036D01*
X133641964Y-97629505D01*
X133533536Y-97566905D01*
X133533537Y-97566905D01*
X133466013Y-97548812D01*
X133412601Y-97534500D01*
X133287399Y-97534500D01*
X133233987Y-97548812D01*
X133166463Y-97566905D01*
X133058037Y-97629504D01*
X133058034Y-97629506D01*
X132969506Y-97718034D01*
X132969504Y-97718037D01*
X132906905Y-97826463D01*
X132906905Y-97826464D01*
X132874500Y-97947399D01*
X113400500Y-97947399D01*
X113400500Y-96462399D01*
X123579500Y-96462399D01*
X123579500Y-96587601D01*
X123611905Y-96708536D01*
X123674505Y-96816964D01*
X123763036Y-96905495D01*
X123871464Y-96968095D01*
X123992399Y-97000500D01*
X123992401Y-97000500D01*
X124117599Y-97000500D01*
X124117601Y-97000500D01*
X124238536Y-96968095D01*
X124346964Y-96905495D01*
X124435495Y-96816964D01*
X124498095Y-96708536D01*
X124530500Y-96587601D01*
X124530500Y-96462399D01*
X124498095Y-96341464D01*
X124435495Y-96233036D01*
X124346964Y-96144505D01*
X124334656Y-96137399D01*
X158324500Y-96137399D01*
X158324500Y-96262601D01*
X158356905Y-96383536D01*
X158419505Y-96491964D01*
X158508036Y-96580495D01*
X158616464Y-96643095D01*
X158737399Y-96675500D01*
X158737401Y-96675500D01*
X158862599Y-96675500D01*
X158862601Y-96675500D01*
X158983536Y-96643095D01*
X159091964Y-96580495D01*
X159180495Y-96491964D01*
X159243095Y-96383536D01*
X159255458Y-96337399D01*
X163424500Y-96337399D01*
X163424500Y-96462601D01*
X163456905Y-96583536D01*
X163519505Y-96691964D01*
X163608036Y-96780495D01*
X163716464Y-96843095D01*
X163837399Y-96875500D01*
X163837401Y-96875500D01*
X163962599Y-96875500D01*
X163962601Y-96875500D01*
X164083536Y-96843095D01*
X164191964Y-96780495D01*
X164280495Y-96691964D01*
X164343095Y-96583536D01*
X164375500Y-96462601D01*
X164375500Y-96337399D01*
X164343095Y-96216464D01*
X164280495Y-96108036D01*
X164191964Y-96019505D01*
X164083536Y-95956905D01*
X164083537Y-95956905D01*
X164043224Y-95946103D01*
X163962601Y-95924500D01*
X163837399Y-95924500D01*
X163756775Y-95946103D01*
X163716463Y-95956905D01*
X163608037Y-96019504D01*
X163608034Y-96019506D01*
X163519506Y-96108034D01*
X163519504Y-96108037D01*
X163456905Y-96216463D01*
X163456905Y-96216464D01*
X163424500Y-96337399D01*
X159255458Y-96337399D01*
X159275500Y-96262601D01*
X159275500Y-96137399D01*
X159243095Y-96016464D01*
X159180495Y-95908036D01*
X159091964Y-95819505D01*
X158983536Y-95756905D01*
X158983537Y-95756905D01*
X158943224Y-95746103D01*
X158862601Y-95724500D01*
X158737399Y-95724500D01*
X158656775Y-95746103D01*
X158616463Y-95756905D01*
X158508037Y-95819504D01*
X158508034Y-95819506D01*
X158419506Y-95908034D01*
X158419504Y-95908037D01*
X158356905Y-96016463D01*
X158356905Y-96016464D01*
X158324500Y-96137399D01*
X124334656Y-96137399D01*
X124238536Y-96081905D01*
X124238537Y-96081905D01*
X124198224Y-96071103D01*
X124117601Y-96049500D01*
X123992399Y-96049500D01*
X123911775Y-96071103D01*
X123871463Y-96081905D01*
X123763037Y-96144504D01*
X123763034Y-96144506D01*
X123674506Y-96233034D01*
X123674504Y-96233037D01*
X123611905Y-96341463D01*
X123611905Y-96341464D01*
X123579500Y-96462399D01*
X113400500Y-96462399D01*
X113400500Y-94862399D01*
X123579500Y-94862399D01*
X123579500Y-94987601D01*
X123611905Y-95108536D01*
X123674505Y-95216964D01*
X123763036Y-95305495D01*
X123871464Y-95368095D01*
X123992399Y-95400500D01*
X123992401Y-95400500D01*
X124117599Y-95400500D01*
X124117601Y-95400500D01*
X124238536Y-95368095D01*
X124346964Y-95305495D01*
X124435495Y-95216964D01*
X124498095Y-95108536D01*
X124530500Y-94987601D01*
X124530500Y-94862399D01*
X124498095Y-94741464D01*
X124435495Y-94633036D01*
X124346964Y-94544505D01*
X124238536Y-94481905D01*
X124238537Y-94481905D01*
X124198224Y-94471103D01*
X124117601Y-94449500D01*
X123992399Y-94449500D01*
X123911775Y-94471103D01*
X123871463Y-94481905D01*
X123763037Y-94544504D01*
X123763034Y-94544506D01*
X123674506Y-94633034D01*
X123674504Y-94633037D01*
X123611905Y-94741463D01*
X123611905Y-94741464D01*
X123579500Y-94862399D01*
X113400500Y-94862399D01*
X113400500Y-91187399D01*
X117024500Y-91187399D01*
X117024500Y-91312601D01*
X117056905Y-91433536D01*
X117119505Y-91541964D01*
X117208036Y-91630495D01*
X117316464Y-91693095D01*
X117437399Y-91725500D01*
X117437401Y-91725500D01*
X117562599Y-91725500D01*
X117562601Y-91725500D01*
X117683536Y-91693095D01*
X117791964Y-91630495D01*
X117880495Y-91541964D01*
X117943095Y-91433536D01*
X117975500Y-91312601D01*
X117975500Y-91187399D01*
X117943095Y-91066464D01*
X117880495Y-90958036D01*
X117791964Y-90869505D01*
X117683536Y-90806905D01*
X117683537Y-90806905D01*
X117643224Y-90796103D01*
X117562601Y-90774500D01*
X117437399Y-90774500D01*
X117356775Y-90796103D01*
X117316463Y-90806905D01*
X117208037Y-90869504D01*
X117208034Y-90869506D01*
X117119506Y-90958034D01*
X117119504Y-90958037D01*
X117056905Y-91066463D01*
X117056905Y-91066464D01*
X117024500Y-91187399D01*
X113400500Y-91187399D01*
X113400500Y-90637399D01*
X176799500Y-90637399D01*
X176799500Y-90762601D01*
X176831905Y-90883536D01*
X176894505Y-90991964D01*
X176983036Y-91080495D01*
X177091464Y-91143095D01*
X177212399Y-91175500D01*
X177212401Y-91175500D01*
X177337599Y-91175500D01*
X177337601Y-91175500D01*
X177458536Y-91143095D01*
X177566964Y-91080495D01*
X177655495Y-90991964D01*
X177718095Y-90883536D01*
X177750500Y-90762601D01*
X177750500Y-90637399D01*
X177718095Y-90516464D01*
X177655495Y-90408036D01*
X177566964Y-90319505D01*
X177458536Y-90256905D01*
X177458537Y-90256905D01*
X177418224Y-90246103D01*
X177337601Y-90224500D01*
X177212399Y-90224500D01*
X177131775Y-90246103D01*
X177091463Y-90256905D01*
X176983037Y-90319504D01*
X176983034Y-90319506D01*
X176894506Y-90408034D01*
X176894504Y-90408037D01*
X176831905Y-90516463D01*
X176831905Y-90516464D01*
X176799500Y-90637399D01*
X113400500Y-90637399D01*
X113400500Y-88537399D01*
X165499500Y-88537399D01*
X165499500Y-88662601D01*
X165531905Y-88783536D01*
X165594505Y-88891964D01*
X165683036Y-88980495D01*
X165791464Y-89043095D01*
X165912399Y-89075500D01*
X165912401Y-89075500D01*
X166037599Y-89075500D01*
X166037601Y-89075500D01*
X166158536Y-89043095D01*
X166266964Y-88980495D01*
X166355495Y-88891964D01*
X166418095Y-88783536D01*
X166450500Y-88662601D01*
X166450500Y-88537399D01*
X166440452Y-88499899D01*
X169299500Y-88499899D01*
X169299500Y-88625101D01*
X169331905Y-88746036D01*
X169394505Y-88854464D01*
X169483036Y-88942995D01*
X169591464Y-89005595D01*
X169712399Y-89038000D01*
X169712401Y-89038000D01*
X169837599Y-89038000D01*
X169837601Y-89038000D01*
X169958536Y-89005595D01*
X170066964Y-88942995D01*
X170155495Y-88854464D01*
X170218095Y-88746036D01*
X170250500Y-88625101D01*
X170250500Y-88537399D01*
X178499500Y-88537399D01*
X178499500Y-88662601D01*
X178531905Y-88783536D01*
X178594505Y-88891964D01*
X178683036Y-88980495D01*
X178791464Y-89043095D01*
X178912399Y-89075500D01*
X178912401Y-89075500D01*
X179037599Y-89075500D01*
X179037601Y-89075500D01*
X179158536Y-89043095D01*
X179266964Y-88980495D01*
X179355495Y-88891964D01*
X179418095Y-88783536D01*
X179450500Y-88662601D01*
X179450500Y-88537399D01*
X179418095Y-88416464D01*
X179355495Y-88308036D01*
X179266964Y-88219505D01*
X179158536Y-88156905D01*
X179158537Y-88156905D01*
X179118224Y-88146103D01*
X179037601Y-88124500D01*
X178912399Y-88124500D01*
X178831775Y-88146103D01*
X178791463Y-88156905D01*
X178683037Y-88219504D01*
X178683034Y-88219506D01*
X178594506Y-88308034D01*
X178594504Y-88308037D01*
X178531905Y-88416463D01*
X178531905Y-88416464D01*
X178499500Y-88537399D01*
X170250500Y-88537399D01*
X170250500Y-88499899D01*
X170218095Y-88378964D01*
X170155495Y-88270536D01*
X170066964Y-88182005D01*
X169958536Y-88119405D01*
X169958537Y-88119405D01*
X169918224Y-88108603D01*
X169837601Y-88087000D01*
X169712399Y-88087000D01*
X169631775Y-88108603D01*
X169591463Y-88119405D01*
X169483037Y-88182004D01*
X169483034Y-88182006D01*
X169394506Y-88270534D01*
X169394504Y-88270537D01*
X169331905Y-88378963D01*
X169331905Y-88378964D01*
X169299500Y-88499899D01*
X166440452Y-88499899D01*
X166418095Y-88416464D01*
X166355495Y-88308036D01*
X166266964Y-88219505D01*
X166158536Y-88156905D01*
X166158537Y-88156905D01*
X166118224Y-88146103D01*
X166037601Y-88124500D01*
X165912399Y-88124500D01*
X165831775Y-88146103D01*
X165791463Y-88156905D01*
X165683037Y-88219504D01*
X165683034Y-88219506D01*
X165594506Y-88308034D01*
X165594504Y-88308037D01*
X165531905Y-88416463D01*
X165531905Y-88416464D01*
X165499500Y-88537399D01*
X113400500Y-88537399D01*
X113400500Y-87728006D01*
X185450000Y-87728006D01*
X185450000Y-87971993D01*
X185488165Y-88212959D01*
X185563560Y-88444998D01*
X185674323Y-88662380D01*
X185741543Y-88754901D01*
X185741544Y-88754902D01*
X186360690Y-88135756D01*
X186379668Y-88181574D01*
X186456274Y-88296224D01*
X186553776Y-88393726D01*
X186668426Y-88470332D01*
X186714242Y-88489309D01*
X186095096Y-89108454D01*
X186095097Y-89108456D01*
X186187623Y-89175679D01*
X186191775Y-89178224D01*
X186190693Y-89179989D01*
X186235176Y-89222005D01*
X186251968Y-89289827D01*
X186229427Y-89355961D01*
X186200969Y-89384827D01*
X186185354Y-89396171D01*
X186046174Y-89535351D01*
X186046174Y-89535352D01*
X186046172Y-89535354D01*
X185996485Y-89603741D01*
X185930476Y-89694594D01*
X185841117Y-89869970D01*
X185780290Y-90057173D01*
X185749500Y-90251577D01*
X185749500Y-90448422D01*
X185780290Y-90642826D01*
X185841117Y-90830029D01*
X185923628Y-90991965D01*
X185930476Y-91005405D01*
X186046172Y-91164646D01*
X186185354Y-91303828D01*
X186344595Y-91419524D01*
X186427455Y-91461743D01*
X186519970Y-91508882D01*
X186519972Y-91508882D01*
X186519975Y-91508884D01*
X186620317Y-91541487D01*
X186707173Y-91569709D01*
X186901578Y-91600500D01*
X186901583Y-91600500D01*
X187098422Y-91600500D01*
X187292826Y-91569709D01*
X187480025Y-91508884D01*
X187655405Y-91419524D01*
X187814646Y-91303828D01*
X187953828Y-91164646D01*
X188069524Y-91005405D01*
X188158884Y-90830025D01*
X188219709Y-90642826D01*
X188239723Y-90516463D01*
X188250500Y-90448422D01*
X188250500Y-90251577D01*
X188219709Y-90057173D01*
X188158882Y-89869970D01*
X188069523Y-89694594D01*
X187953828Y-89535354D01*
X187814646Y-89396172D01*
X187799031Y-89384827D01*
X187756366Y-89329499D01*
X187750387Y-89259886D01*
X187782992Y-89198091D01*
X187808757Y-89179093D01*
X187808225Y-89178224D01*
X187812370Y-89175683D01*
X187904901Y-89108454D01*
X187904902Y-89108454D01*
X187285757Y-88489309D01*
X187331574Y-88470332D01*
X187446224Y-88393726D01*
X187543726Y-88296224D01*
X187620332Y-88181574D01*
X187639309Y-88135757D01*
X188258454Y-88754902D01*
X188258454Y-88754901D01*
X188325678Y-88662377D01*
X188436439Y-88444998D01*
X188511834Y-88212959D01*
X188550000Y-87971993D01*
X188550000Y-87728006D01*
X188511834Y-87487040D01*
X188436439Y-87255001D01*
X188325676Y-87037619D01*
X188258456Y-86945097D01*
X188258454Y-86945096D01*
X187639309Y-87564241D01*
X187620332Y-87518426D01*
X187543726Y-87403776D01*
X187446224Y-87306274D01*
X187331574Y-87229668D01*
X187285756Y-87210689D01*
X187904902Y-86591544D01*
X187904901Y-86591543D01*
X187812376Y-86524320D01*
X187808225Y-86521776D01*
X187809301Y-86520019D01*
X187764801Y-86477956D01*
X187748033Y-86410128D01*
X187770597Y-86344002D01*
X187799031Y-86315172D01*
X187814646Y-86303828D01*
X187953828Y-86164646D01*
X188069524Y-86005405D01*
X188158884Y-85830025D01*
X188219709Y-85642826D01*
X188236407Y-85537399D01*
X188250500Y-85448422D01*
X188250500Y-85251577D01*
X188219709Y-85057173D01*
X188158882Y-84869970D01*
X188069523Y-84694594D01*
X187953828Y-84535354D01*
X187814646Y-84396172D01*
X187655405Y-84280476D01*
X187518038Y-84210484D01*
X187467243Y-84162511D01*
X187450448Y-84094690D01*
X187472985Y-84028555D01*
X187518039Y-83989515D01*
X187655405Y-83919524D01*
X187814646Y-83803828D01*
X187953828Y-83664646D01*
X188069524Y-83505405D01*
X188158884Y-83330025D01*
X188219709Y-83142826D01*
X188250500Y-82948422D01*
X188250500Y-82751577D01*
X188219709Y-82557173D01*
X188158882Y-82369970D01*
X188069523Y-82194594D01*
X187953828Y-82035354D01*
X187814646Y-81896172D01*
X187655405Y-81780476D01*
X187518038Y-81710484D01*
X187467243Y-81662511D01*
X187450448Y-81594690D01*
X187472985Y-81528555D01*
X187518039Y-81489515D01*
X187655405Y-81419524D01*
X187814646Y-81303828D01*
X187953828Y-81164646D01*
X188069524Y-81005405D01*
X188158884Y-80830025D01*
X188219709Y-80642826D01*
X188250500Y-80448422D01*
X188250500Y-80251577D01*
X188219709Y-80057173D01*
X188158882Y-79869970D01*
X188069523Y-79694594D01*
X187953828Y-79535354D01*
X187814646Y-79396172D01*
X187655405Y-79280476D01*
X187518038Y-79210484D01*
X187467243Y-79162511D01*
X187450448Y-79094690D01*
X187472985Y-79028555D01*
X187518039Y-78989515D01*
X187655405Y-78919524D01*
X187814646Y-78803828D01*
X187953828Y-78664646D01*
X188069524Y-78505405D01*
X188158884Y-78330025D01*
X188219709Y-78142826D01*
X188250500Y-77948422D01*
X188250500Y-77751577D01*
X188219709Y-77557173D01*
X188158882Y-77369970D01*
X188069523Y-77194594D01*
X187953828Y-77035354D01*
X187814646Y-76896172D01*
X187655405Y-76780476D01*
X187480029Y-76691117D01*
X187292826Y-76630290D01*
X187098422Y-76599500D01*
X187098417Y-76599500D01*
X186901583Y-76599500D01*
X186901578Y-76599500D01*
X186707173Y-76630290D01*
X186519970Y-76691117D01*
X186344594Y-76780476D01*
X186253741Y-76846485D01*
X186185354Y-76896172D01*
X186185352Y-76896174D01*
X186185351Y-76896174D01*
X186046174Y-77035351D01*
X186046174Y-77035352D01*
X186046172Y-77035354D01*
X185996485Y-77103741D01*
X185930476Y-77194594D01*
X185841117Y-77369970D01*
X185780290Y-77557173D01*
X185749500Y-77751577D01*
X185749500Y-77948422D01*
X185780290Y-78142826D01*
X185841117Y-78330029D01*
X185930476Y-78505405D01*
X186046172Y-78664646D01*
X186185354Y-78803828D01*
X186344595Y-78919524D01*
X186413613Y-78954690D01*
X186481960Y-78989515D01*
X186532756Y-79037490D01*
X186549551Y-79105311D01*
X186527014Y-79171446D01*
X186481960Y-79210485D01*
X186344594Y-79280476D01*
X186253741Y-79346485D01*
X186185354Y-79396172D01*
X186185352Y-79396174D01*
X186185351Y-79396174D01*
X186046174Y-79535351D01*
X186046174Y-79535352D01*
X186046172Y-79535354D01*
X185996485Y-79603741D01*
X185930476Y-79694594D01*
X185841117Y-79869970D01*
X185780290Y-80057173D01*
X185749500Y-80251577D01*
X185749500Y-80448422D01*
X185780290Y-80642826D01*
X185841117Y-80830029D01*
X185915239Y-80975500D01*
X185930476Y-81005405D01*
X186046172Y-81164646D01*
X186185354Y-81303828D01*
X186344595Y-81419524D01*
X186413613Y-81454690D01*
X186481960Y-81489515D01*
X186532756Y-81537490D01*
X186549551Y-81605311D01*
X186527014Y-81671446D01*
X186481960Y-81710485D01*
X186344594Y-81780476D01*
X186253741Y-81846485D01*
X186185354Y-81896172D01*
X186185352Y-81896174D01*
X186185351Y-81896174D01*
X186046174Y-82035351D01*
X186046174Y-82035352D01*
X186046172Y-82035354D01*
X186040549Y-82043094D01*
X185930476Y-82194594D01*
X185841117Y-82369970D01*
X185780290Y-82557173D01*
X185749500Y-82751577D01*
X185749500Y-82948422D01*
X185780290Y-83142826D01*
X185841117Y-83330029D01*
X185915239Y-83475500D01*
X185930476Y-83505405D01*
X186046172Y-83664646D01*
X186185354Y-83803828D01*
X186344595Y-83919524D01*
X186413613Y-83954690D01*
X186481960Y-83989515D01*
X186532756Y-84037490D01*
X186549551Y-84105311D01*
X186527014Y-84171446D01*
X186481960Y-84210485D01*
X186344594Y-84280476D01*
X186256467Y-84344505D01*
X186185354Y-84396172D01*
X186185352Y-84396174D01*
X186185351Y-84396174D01*
X186046174Y-84535351D01*
X186046174Y-84535352D01*
X186046172Y-84535354D01*
X186041734Y-84541463D01*
X185930476Y-84694594D01*
X185841117Y-84869970D01*
X185780290Y-85057173D01*
X185749500Y-85251577D01*
X185749500Y-85448422D01*
X185780290Y-85642826D01*
X185841117Y-85830029D01*
X185917783Y-85980493D01*
X185930476Y-86005405D01*
X186046172Y-86164646D01*
X186185354Y-86303828D01*
X186200967Y-86315171D01*
X186243632Y-86370499D01*
X186249613Y-86440112D01*
X186217008Y-86501908D01*
X186191255Y-86520915D01*
X186191781Y-86521773D01*
X186187629Y-86524317D01*
X186095097Y-86591544D01*
X186714243Y-87210689D01*
X186668426Y-87229668D01*
X186553776Y-87306274D01*
X186456274Y-87403776D01*
X186379668Y-87518426D01*
X186360690Y-87564243D01*
X185741544Y-86945097D01*
X185674319Y-87037626D01*
X185563560Y-87255001D01*
X185488165Y-87487040D01*
X185450000Y-87728006D01*
X113400500Y-87728006D01*
X113400500Y-86462399D01*
X118309500Y-86462399D01*
X118309500Y-86587601D01*
X118341905Y-86708536D01*
X118404505Y-86816964D01*
X118493036Y-86905495D01*
X118601464Y-86968095D01*
X118722399Y-87000500D01*
X118722401Y-87000500D01*
X118847599Y-87000500D01*
X118847601Y-87000500D01*
X118968536Y-86968095D01*
X119076964Y-86905495D01*
X119165495Y-86816964D01*
X119228095Y-86708536D01*
X119260500Y-86587601D01*
X119260500Y-86537399D01*
X176799500Y-86537399D01*
X176799500Y-86662601D01*
X176831905Y-86783536D01*
X176894505Y-86891964D01*
X176983036Y-86980495D01*
X177091464Y-87043095D01*
X177212399Y-87075500D01*
X177212401Y-87075500D01*
X177337599Y-87075500D01*
X177337601Y-87075500D01*
X177458536Y-87043095D01*
X177566964Y-86980495D01*
X177655495Y-86891964D01*
X177718095Y-86783536D01*
X177750500Y-86662601D01*
X177750500Y-86537399D01*
X177718095Y-86416464D01*
X177655495Y-86308036D01*
X177566964Y-86219505D01*
X177458536Y-86156905D01*
X177458537Y-86156905D01*
X177412259Y-86144505D01*
X177337601Y-86124500D01*
X177212399Y-86124500D01*
X177137741Y-86144505D01*
X177091463Y-86156905D01*
X176983037Y-86219504D01*
X176983034Y-86219506D01*
X176894506Y-86308034D01*
X176894504Y-86308037D01*
X176831905Y-86416463D01*
X176819596Y-86462400D01*
X176799500Y-86537399D01*
X119260500Y-86537399D01*
X119260500Y-86462399D01*
X119228095Y-86341464D01*
X119165495Y-86233036D01*
X119076964Y-86144505D01*
X118968536Y-86081905D01*
X118968537Y-86081905D01*
X118928224Y-86071103D01*
X118847601Y-86049500D01*
X118722399Y-86049500D01*
X118641775Y-86071103D01*
X118601463Y-86081905D01*
X118493037Y-86144504D01*
X118493034Y-86144506D01*
X118404506Y-86233034D01*
X118404504Y-86233037D01*
X118341905Y-86341463D01*
X118341905Y-86341464D01*
X118309500Y-86462399D01*
X113400500Y-86462399D01*
X113400500Y-85537399D01*
X154324500Y-85537399D01*
X154324500Y-85662601D01*
X154356905Y-85783536D01*
X154419505Y-85891964D01*
X154508036Y-85980495D01*
X154616464Y-86043095D01*
X154737399Y-86075500D01*
X154737401Y-86075500D01*
X154862599Y-86075500D01*
X154862601Y-86075500D01*
X154983536Y-86043095D01*
X155091964Y-85980495D01*
X155180495Y-85891964D01*
X155243095Y-85783536D01*
X155275500Y-85662601D01*
X155275500Y-85537399D01*
X155243095Y-85416464D01*
X155180495Y-85308036D01*
X155091964Y-85219505D01*
X154983536Y-85156905D01*
X154983537Y-85156905D01*
X154943224Y-85146103D01*
X154862601Y-85124500D01*
X154737399Y-85124500D01*
X154656775Y-85146103D01*
X154616463Y-85156905D01*
X154508037Y-85219504D01*
X154508034Y-85219506D01*
X154419506Y-85308034D01*
X154419504Y-85308037D01*
X154356905Y-85416463D01*
X154356905Y-85416464D01*
X154324500Y-85537399D01*
X113400500Y-85537399D01*
X113400500Y-84662399D01*
X118382000Y-84662399D01*
X118382000Y-84787601D01*
X118414405Y-84908536D01*
X118477005Y-85016964D01*
X118565536Y-85105495D01*
X118673964Y-85168095D01*
X118794899Y-85200500D01*
X118794901Y-85200500D01*
X118920099Y-85200500D01*
X118920101Y-85200500D01*
X119041036Y-85168095D01*
X119149464Y-85105495D01*
X119237995Y-85016964D01*
X119300595Y-84908536D01*
X119333000Y-84787601D01*
X119333000Y-84662399D01*
X119300595Y-84541464D01*
X119237995Y-84433036D01*
X119149464Y-84344505D01*
X119041036Y-84281905D01*
X119041037Y-84281905D01*
X119000724Y-84271103D01*
X118920101Y-84249500D01*
X118794899Y-84249500D01*
X118714275Y-84271103D01*
X118673963Y-84281905D01*
X118565537Y-84344504D01*
X118565534Y-84344506D01*
X118477006Y-84433034D01*
X118477004Y-84433037D01*
X118414405Y-84541463D01*
X118414405Y-84541464D01*
X118382000Y-84662399D01*
X113400500Y-84662399D01*
X113400500Y-82937399D01*
X154324500Y-82937399D01*
X154324500Y-83062601D01*
X154356905Y-83183536D01*
X154419505Y-83291964D01*
X154508036Y-83380495D01*
X154616464Y-83443095D01*
X154737399Y-83475500D01*
X154737401Y-83475500D01*
X154862599Y-83475500D01*
X154862601Y-83475500D01*
X154983536Y-83443095D01*
X155091964Y-83380495D01*
X155180495Y-83291964D01*
X155243095Y-83183536D01*
X155275500Y-83062601D01*
X155275500Y-82937399D01*
X155243095Y-82816464D01*
X155197447Y-82737399D01*
X162024500Y-82737399D01*
X162024500Y-82862601D01*
X162056905Y-82983536D01*
X162119505Y-83091964D01*
X162208036Y-83180495D01*
X162316464Y-83243095D01*
X162437399Y-83275500D01*
X162437401Y-83275500D01*
X162562599Y-83275500D01*
X162562601Y-83275500D01*
X162683536Y-83243095D01*
X162791964Y-83180495D01*
X162880495Y-83091964D01*
X162943095Y-82983536D01*
X162975500Y-82862601D01*
X162975500Y-82737399D01*
X162943095Y-82616464D01*
X162880495Y-82508036D01*
X162791964Y-82419505D01*
X162683536Y-82356905D01*
X162683537Y-82356905D01*
X162643224Y-82346103D01*
X162562601Y-82324500D01*
X162437399Y-82324500D01*
X162356775Y-82346103D01*
X162316463Y-82356905D01*
X162208037Y-82419504D01*
X162208034Y-82419506D01*
X162119506Y-82508034D01*
X162119504Y-82508037D01*
X162056905Y-82616463D01*
X162056905Y-82616464D01*
X162024500Y-82737399D01*
X155197447Y-82737399D01*
X155180495Y-82708036D01*
X155091964Y-82619505D01*
X154983536Y-82556905D01*
X154983537Y-82556905D01*
X154943224Y-82546103D01*
X154862601Y-82524500D01*
X154737399Y-82524500D01*
X154656775Y-82546103D01*
X154616463Y-82556905D01*
X154508037Y-82619504D01*
X154508034Y-82619506D01*
X154419506Y-82708034D01*
X154419504Y-82708037D01*
X154356905Y-82816463D01*
X154356905Y-82816464D01*
X154324500Y-82937399D01*
X113400500Y-82937399D01*
X113400500Y-81537399D01*
X154324500Y-81537399D01*
X154324500Y-81662601D01*
X154356905Y-81783536D01*
X154419505Y-81891964D01*
X154508036Y-81980495D01*
X154616464Y-82043095D01*
X154737399Y-82075500D01*
X154737401Y-82075500D01*
X154862599Y-82075500D01*
X154862601Y-82075500D01*
X154983536Y-82043095D01*
X155091964Y-81980495D01*
X155180495Y-81891964D01*
X155243095Y-81783536D01*
X155275500Y-81662601D01*
X155275500Y-81537399D01*
X155243095Y-81416464D01*
X155180495Y-81308036D01*
X155091964Y-81219505D01*
X154983536Y-81156905D01*
X154983537Y-81156905D01*
X154943224Y-81146103D01*
X154862601Y-81124500D01*
X154737399Y-81124500D01*
X154656775Y-81146103D01*
X154616463Y-81156905D01*
X154508037Y-81219504D01*
X154508034Y-81219506D01*
X154419506Y-81308034D01*
X154419504Y-81308037D01*
X154356905Y-81416463D01*
X154356905Y-81416464D01*
X154324500Y-81537399D01*
X113400500Y-81537399D01*
X113400500Y-80437399D01*
X153724500Y-80437399D01*
X153724500Y-80562601D01*
X153756905Y-80683536D01*
X153819505Y-80791964D01*
X153908036Y-80880495D01*
X154016464Y-80943095D01*
X154137399Y-80975500D01*
X154137401Y-80975500D01*
X154262599Y-80975500D01*
X154262601Y-80975500D01*
X154383536Y-80943095D01*
X154491964Y-80880495D01*
X154580495Y-80791964D01*
X154643095Y-80683536D01*
X154675500Y-80562601D01*
X154675500Y-80437399D01*
X154643095Y-80316464D01*
X154580495Y-80208036D01*
X154491964Y-80119505D01*
X154383536Y-80056905D01*
X154383537Y-80056905D01*
X154343224Y-80046103D01*
X154262601Y-80024500D01*
X154137399Y-80024500D01*
X154056775Y-80046103D01*
X154016463Y-80056905D01*
X153908037Y-80119504D01*
X153908034Y-80119506D01*
X153819506Y-80208034D01*
X153819504Y-80208037D01*
X153756905Y-80316463D01*
X153756905Y-80316464D01*
X153724500Y-80437399D01*
X113400500Y-80437399D01*
X113400500Y-76037399D01*
X163024500Y-76037399D01*
X163024500Y-76162601D01*
X163056905Y-76283536D01*
X163119505Y-76391964D01*
X163208036Y-76480495D01*
X163316464Y-76543095D01*
X163437399Y-76575500D01*
X163437401Y-76575500D01*
X163562599Y-76575500D01*
X163562601Y-76575500D01*
X163683536Y-76543095D01*
X163791964Y-76480495D01*
X163880495Y-76391964D01*
X163943095Y-76283536D01*
X163975500Y-76162601D01*
X163975500Y-76037399D01*
X163943095Y-75916464D01*
X163880495Y-75808036D01*
X163791964Y-75719505D01*
X163683536Y-75656905D01*
X163683537Y-75656905D01*
X163643224Y-75646103D01*
X163562601Y-75624500D01*
X163437399Y-75624500D01*
X163356775Y-75646103D01*
X163316463Y-75656905D01*
X163208037Y-75719504D01*
X163208034Y-75719506D01*
X163119506Y-75808034D01*
X163119504Y-75808037D01*
X163056905Y-75916463D01*
X163056905Y-75916464D01*
X163024500Y-76037399D01*
X113400500Y-76037399D01*
X113400500Y-71380247D01*
X116942046Y-71380247D01*
X116942046Y-73419752D01*
X116953677Y-73478229D01*
X116953678Y-73478230D01*
X116997993Y-73544552D01*
X117064315Y-73588867D01*
X117064316Y-73588868D01*
X117122793Y-73600499D01*
X117122796Y-73600500D01*
X117122798Y-73600500D01*
X119162296Y-73600500D01*
X119162297Y-73600499D01*
X119177114Y-73597552D01*
X119220775Y-73588868D01*
X119220775Y-73588867D01*
X119220777Y-73588867D01*
X119287098Y-73544552D01*
X119291878Y-73537399D01*
X119312519Y-73506508D01*
X119319552Y-73495980D01*
X119331413Y-73478231D01*
X119331413Y-73478229D01*
X119331414Y-73478229D01*
X119343045Y-73419752D01*
X119343046Y-73419750D01*
X119343046Y-72281947D01*
X137442546Y-72281947D01*
X137442546Y-72518052D01*
X137479480Y-72751247D01*
X137552443Y-72975802D01*
X137659633Y-73186174D01*
X137719884Y-73269104D01*
X137719886Y-73269105D01*
X138264967Y-72724024D01*
X138277905Y-72755258D01*
X138359983Y-72878097D01*
X138464449Y-72982563D01*
X138587288Y-73064641D01*
X138618520Y-73077578D01*
X138073439Y-73622658D01*
X138156374Y-73682914D01*
X138366743Y-73790102D01*
X138591298Y-73863065D01*
X138591297Y-73863065D01*
X138824494Y-73900000D01*
X139060598Y-73900000D01*
X139293793Y-73863065D01*
X139518348Y-73790102D01*
X139728709Y-73682918D01*
X139728715Y-73682914D01*
X139811650Y-73622658D01*
X139811651Y-73622658D01*
X139805945Y-73616952D01*
X139726392Y-73537399D01*
X164224500Y-73537399D01*
X164224500Y-73662601D01*
X164256905Y-73783536D01*
X164319505Y-73891964D01*
X164408036Y-73980495D01*
X164516464Y-74043095D01*
X164637399Y-74075500D01*
X164637401Y-74075500D01*
X164762599Y-74075500D01*
X164762601Y-74075500D01*
X164883536Y-74043095D01*
X164991964Y-73980495D01*
X165080495Y-73891964D01*
X165143095Y-73783536D01*
X165175500Y-73662601D01*
X165175500Y-73537399D01*
X165168801Y-73512399D01*
X168099500Y-73512399D01*
X168099500Y-73637601D01*
X168131905Y-73758536D01*
X168194505Y-73866964D01*
X168283036Y-73955495D01*
X168391464Y-74018095D01*
X168512399Y-74050500D01*
X168512401Y-74050500D01*
X168637599Y-74050500D01*
X168637601Y-74050500D01*
X168758536Y-74018095D01*
X168866964Y-73955495D01*
X168955495Y-73866964D01*
X169018095Y-73758536D01*
X169050500Y-73637601D01*
X169050500Y-73512399D01*
X169018095Y-73391464D01*
X168955495Y-73283036D01*
X168866964Y-73194505D01*
X168758536Y-73131905D01*
X168758537Y-73131905D01*
X168718224Y-73121103D01*
X168637601Y-73099500D01*
X168512399Y-73099500D01*
X168431775Y-73121103D01*
X168391463Y-73131905D01*
X168283037Y-73194504D01*
X168283034Y-73194506D01*
X168194506Y-73283034D01*
X168194504Y-73283037D01*
X168131905Y-73391463D01*
X168131905Y-73391464D01*
X168099500Y-73512399D01*
X165168801Y-73512399D01*
X165143095Y-73416464D01*
X165080495Y-73308036D01*
X164991964Y-73219505D01*
X164883536Y-73156905D01*
X164883537Y-73156905D01*
X164843224Y-73146103D01*
X164762601Y-73124500D01*
X164637399Y-73124500D01*
X164556775Y-73146103D01*
X164516463Y-73156905D01*
X164408037Y-73219504D01*
X164408034Y-73219506D01*
X164319506Y-73308034D01*
X164319504Y-73308037D01*
X164256905Y-73416463D01*
X164256024Y-73419752D01*
X164224500Y-73537399D01*
X139726392Y-73537399D01*
X139266570Y-73077578D01*
X139297804Y-73064641D01*
X139420643Y-72982563D01*
X139525109Y-72878097D01*
X139607187Y-72755258D01*
X139620124Y-72724024D01*
X140165204Y-73269105D01*
X140165204Y-73269104D01*
X140225460Y-73186169D01*
X140225464Y-73186163D01*
X140332648Y-72975802D01*
X140405611Y-72751247D01*
X140442546Y-72518052D01*
X140442546Y-72281947D01*
X140421437Y-72148669D01*
X140419652Y-72137399D01*
X151024500Y-72137399D01*
X151024500Y-72262601D01*
X151056905Y-72383536D01*
X151119505Y-72491964D01*
X151208036Y-72580495D01*
X151316464Y-72643095D01*
X151437399Y-72675500D01*
X151437401Y-72675500D01*
X151562599Y-72675500D01*
X151562601Y-72675500D01*
X151683536Y-72643095D01*
X151791964Y-72580495D01*
X151880495Y-72491964D01*
X151943095Y-72383536D01*
X151975500Y-72262601D01*
X151975500Y-72137399D01*
X151943095Y-72016464D01*
X151880495Y-71908036D01*
X151791964Y-71819505D01*
X151683536Y-71756905D01*
X151683537Y-71756905D01*
X151643224Y-71746103D01*
X151562601Y-71724500D01*
X151437399Y-71724500D01*
X151356775Y-71746103D01*
X151316463Y-71756905D01*
X151208037Y-71819504D01*
X151208034Y-71819506D01*
X151119506Y-71908034D01*
X151119504Y-71908037D01*
X151056905Y-72016463D01*
X151056905Y-72016464D01*
X151024500Y-72137399D01*
X140419652Y-72137399D01*
X140405611Y-72048752D01*
X140332648Y-71824197D01*
X140225460Y-71613828D01*
X140165204Y-71530894D01*
X140165204Y-71530893D01*
X139620123Y-72075974D01*
X139607187Y-72044742D01*
X139525109Y-71921903D01*
X139420643Y-71817437D01*
X139297804Y-71735359D01*
X139266570Y-71722421D01*
X139811651Y-71177340D01*
X139811650Y-71177338D01*
X139728720Y-71117087D01*
X139518348Y-71009897D01*
X139293793Y-70936934D01*
X139293794Y-70936934D01*
X139060598Y-70900000D01*
X138824494Y-70900000D01*
X138591298Y-70936934D01*
X138366743Y-71009897D01*
X138156376Y-71117084D01*
X138073440Y-71177340D01*
X138618521Y-71722421D01*
X138587288Y-71735359D01*
X138464449Y-71817437D01*
X138359983Y-71921903D01*
X138277905Y-72044742D01*
X138264967Y-72075975D01*
X137719886Y-71530894D01*
X137659630Y-71613830D01*
X137552443Y-71824197D01*
X137479480Y-72048752D01*
X137442546Y-72281947D01*
X119343046Y-72281947D01*
X119343046Y-71380249D01*
X119343045Y-71380247D01*
X119331414Y-71321770D01*
X119331413Y-71321769D01*
X119312518Y-71293490D01*
X119312517Y-71293489D01*
X119287099Y-71255448D01*
X119220776Y-71211132D01*
X119220775Y-71211131D01*
X119162298Y-71199500D01*
X119162294Y-71199500D01*
X117122798Y-71199500D01*
X117122793Y-71199500D01*
X117064316Y-71211131D01*
X117064315Y-71211132D01*
X116997993Y-71255447D01*
X116953678Y-71321769D01*
X116953677Y-71321770D01*
X116942046Y-71380247D01*
X113400500Y-71380247D01*
X113400500Y-70537399D01*
X169674500Y-70537399D01*
X169674500Y-70662601D01*
X169706905Y-70783536D01*
X169769505Y-70891964D01*
X169858036Y-70980495D01*
X169966464Y-71043095D01*
X170087399Y-71075500D01*
X170087401Y-71075500D01*
X170212599Y-71075500D01*
X170212601Y-71075500D01*
X170333536Y-71043095D01*
X170441964Y-70980495D01*
X170530495Y-70891964D01*
X170593095Y-70783536D01*
X170625500Y-70662601D01*
X170625500Y-70537399D01*
X170593095Y-70416464D01*
X170530495Y-70308036D01*
X170441964Y-70219505D01*
X170333536Y-70156905D01*
X170333537Y-70156905D01*
X170293224Y-70146103D01*
X170212601Y-70124500D01*
X170087399Y-70124500D01*
X170006775Y-70146103D01*
X169966463Y-70156905D01*
X169858037Y-70219504D01*
X169858034Y-70219506D01*
X169769506Y-70308034D01*
X169769504Y-70308037D01*
X169706905Y-70416463D01*
X169706905Y-70416464D01*
X169674500Y-70537399D01*
X113400500Y-70537399D01*
X113400500Y-69187399D01*
X166624500Y-69187399D01*
X166624500Y-69312601D01*
X166656905Y-69433536D01*
X166719505Y-69541964D01*
X166808036Y-69630495D01*
X166916464Y-69693095D01*
X167037399Y-69725500D01*
X167037401Y-69725500D01*
X167162599Y-69725500D01*
X167162601Y-69725500D01*
X167283536Y-69693095D01*
X167391964Y-69630495D01*
X167480495Y-69541964D01*
X167543095Y-69433536D01*
X167575500Y-69312601D01*
X167575500Y-69187399D01*
X167543095Y-69066464D01*
X167480495Y-68958036D01*
X167391964Y-68869505D01*
X167283536Y-68806905D01*
X167283537Y-68806905D01*
X167243224Y-68796103D01*
X167162601Y-68774500D01*
X167037399Y-68774500D01*
X166956775Y-68796103D01*
X166916463Y-68806905D01*
X166808037Y-68869504D01*
X166808034Y-68869506D01*
X166719506Y-68958034D01*
X166719504Y-68958037D01*
X166656905Y-69066463D01*
X166656905Y-69066464D01*
X166624500Y-69187399D01*
X113400500Y-69187399D01*
X113400500Y-68037399D01*
X152424500Y-68037399D01*
X152424500Y-68162601D01*
X152456905Y-68283536D01*
X152519505Y-68391964D01*
X152608036Y-68480495D01*
X152716464Y-68543095D01*
X152837399Y-68575500D01*
X152837401Y-68575500D01*
X152962599Y-68575500D01*
X152962601Y-68575500D01*
X153083536Y-68543095D01*
X153109671Y-68528006D01*
X185450000Y-68528006D01*
X185450000Y-68771993D01*
X185488165Y-69012959D01*
X185563560Y-69244998D01*
X185674323Y-69462380D01*
X185741543Y-69554901D01*
X185741544Y-69554902D01*
X186360690Y-68935756D01*
X186379668Y-68981574D01*
X186456274Y-69096224D01*
X186553776Y-69193726D01*
X186668426Y-69270332D01*
X186714242Y-69289309D01*
X186095096Y-69908454D01*
X186095097Y-69908456D01*
X186187623Y-69975679D01*
X186191775Y-69978224D01*
X186190693Y-69979989D01*
X186235176Y-70022005D01*
X186251968Y-70089827D01*
X186229427Y-70155961D01*
X186200969Y-70184827D01*
X186185354Y-70196171D01*
X186046174Y-70335351D01*
X186046174Y-70335352D01*
X186046172Y-70335354D01*
X185996485Y-70403741D01*
X185930476Y-70494594D01*
X185841117Y-70669970D01*
X185780290Y-70857173D01*
X185749500Y-71051577D01*
X185749500Y-71248422D01*
X185780290Y-71442826D01*
X185841117Y-71630029D01*
X185889253Y-71724500D01*
X185930476Y-71805405D01*
X186046172Y-71964646D01*
X186185354Y-72103828D01*
X186344595Y-72219524D01*
X186427455Y-72261743D01*
X186519970Y-72308882D01*
X186519972Y-72308882D01*
X186519975Y-72308884D01*
X186620317Y-72341487D01*
X186707173Y-72369709D01*
X186901578Y-72400500D01*
X186901583Y-72400500D01*
X187098422Y-72400500D01*
X187292826Y-72369709D01*
X187480025Y-72308884D01*
X187655405Y-72219524D01*
X187814646Y-72103828D01*
X187953828Y-71964646D01*
X188069524Y-71805405D01*
X188158884Y-71630025D01*
X188219709Y-71442826D01*
X188229620Y-71380249D01*
X188250500Y-71248422D01*
X188250500Y-71051577D01*
X188219709Y-70857173D01*
X188158882Y-70669970D01*
X188091334Y-70537400D01*
X188069524Y-70494595D01*
X187953828Y-70335354D01*
X187814646Y-70196172D01*
X187799031Y-70184827D01*
X187756366Y-70129499D01*
X187750387Y-70059886D01*
X187782992Y-69998091D01*
X187808757Y-69979093D01*
X187808225Y-69978224D01*
X187812370Y-69975683D01*
X187904901Y-69908454D01*
X187904902Y-69908454D01*
X187285757Y-69289309D01*
X187331574Y-69270332D01*
X187446224Y-69193726D01*
X187543726Y-69096224D01*
X187620332Y-68981574D01*
X187639309Y-68935757D01*
X188258454Y-69554902D01*
X188258454Y-69554901D01*
X188325678Y-69462377D01*
X188436439Y-69244998D01*
X188511834Y-69012959D01*
X188550000Y-68771993D01*
X188550000Y-68528006D01*
X188511834Y-68287040D01*
X188436439Y-68055001D01*
X188325676Y-67837619D01*
X188258456Y-67745097D01*
X188258454Y-67745096D01*
X187639309Y-68364241D01*
X187620332Y-68318426D01*
X187543726Y-68203776D01*
X187446224Y-68106274D01*
X187331574Y-68029668D01*
X187285756Y-68010689D01*
X187904902Y-67391544D01*
X187904901Y-67391543D01*
X187812376Y-67324320D01*
X187808225Y-67321776D01*
X187809301Y-67320019D01*
X187764801Y-67277956D01*
X187748033Y-67210128D01*
X187770597Y-67144002D01*
X187799031Y-67115172D01*
X187814646Y-67103828D01*
X187953828Y-66964646D01*
X188069524Y-66805405D01*
X188158884Y-66630025D01*
X188219709Y-66442826D01*
X188230531Y-66374500D01*
X188250500Y-66248422D01*
X188250500Y-66051577D01*
X188219709Y-65857173D01*
X188158882Y-65669970D01*
X188091334Y-65537400D01*
X188069524Y-65494595D01*
X187953828Y-65335354D01*
X187814646Y-65196172D01*
X187655405Y-65080476D01*
X187518038Y-65010484D01*
X187467243Y-64962511D01*
X187450448Y-64894690D01*
X187472985Y-64828555D01*
X187518039Y-64789515D01*
X187655405Y-64719524D01*
X187814646Y-64603828D01*
X187953828Y-64464646D01*
X188069524Y-64305405D01*
X188158884Y-64130025D01*
X188219709Y-63942826D01*
X188250500Y-63748422D01*
X188250500Y-63551577D01*
X188219709Y-63357173D01*
X188158882Y-63169970D01*
X188069523Y-62994594D01*
X187953828Y-62835354D01*
X187814646Y-62696172D01*
X187655405Y-62580476D01*
X187518038Y-62510484D01*
X187467243Y-62462511D01*
X187450448Y-62394690D01*
X187472985Y-62328555D01*
X187518039Y-62289515D01*
X187655405Y-62219524D01*
X187814646Y-62103828D01*
X187953828Y-61964646D01*
X188069524Y-61805405D01*
X188158884Y-61630025D01*
X188219709Y-61442826D01*
X188250500Y-61248422D01*
X188250500Y-61051577D01*
X188219709Y-60857173D01*
X188158882Y-60669970D01*
X188069523Y-60494594D01*
X187953828Y-60335354D01*
X187814646Y-60196172D01*
X187655405Y-60080476D01*
X187518038Y-60010484D01*
X187467243Y-59962511D01*
X187450448Y-59894690D01*
X187472985Y-59828555D01*
X187518039Y-59789515D01*
X187655405Y-59719524D01*
X187814646Y-59603828D01*
X187953828Y-59464646D01*
X188069524Y-59305405D01*
X188158884Y-59130025D01*
X188219709Y-58942826D01*
X188248254Y-58762601D01*
X188250500Y-58748422D01*
X188250500Y-58551577D01*
X188219709Y-58357173D01*
X188166029Y-58191965D01*
X188158884Y-58169975D01*
X188158882Y-58169972D01*
X188158882Y-58169970D01*
X188069523Y-57994594D01*
X187953828Y-57835354D01*
X187814646Y-57696172D01*
X187655405Y-57580476D01*
X187480029Y-57491117D01*
X187292826Y-57430290D01*
X187098422Y-57399500D01*
X187098417Y-57399500D01*
X186901583Y-57399500D01*
X186901578Y-57399500D01*
X186707173Y-57430290D01*
X186519970Y-57491117D01*
X186344594Y-57580476D01*
X186253741Y-57646485D01*
X186185354Y-57696172D01*
X186185352Y-57696174D01*
X186185351Y-57696174D01*
X186046174Y-57835351D01*
X186046174Y-57835352D01*
X186046172Y-57835354D01*
X185996485Y-57903741D01*
X185930476Y-57994594D01*
X185841117Y-58169970D01*
X185780290Y-58357173D01*
X185749500Y-58551577D01*
X185749500Y-58748422D01*
X185780290Y-58942826D01*
X185841117Y-59130029D01*
X185930476Y-59305405D01*
X186046172Y-59464646D01*
X186185354Y-59603828D01*
X186344595Y-59719524D01*
X186413613Y-59754690D01*
X186481960Y-59789515D01*
X186532756Y-59837490D01*
X186549551Y-59905311D01*
X186527014Y-59971446D01*
X186481960Y-60010485D01*
X186344594Y-60080476D01*
X186253741Y-60146485D01*
X186185354Y-60196172D01*
X186185352Y-60196174D01*
X186185351Y-60196174D01*
X186046174Y-60335351D01*
X186046174Y-60335352D01*
X186046172Y-60335354D01*
X185996485Y-60403741D01*
X185930476Y-60494594D01*
X185841117Y-60669970D01*
X185780290Y-60857173D01*
X185749500Y-61051577D01*
X185749500Y-61248422D01*
X185780290Y-61442826D01*
X185841117Y-61630029D01*
X185930476Y-61805405D01*
X186046172Y-61964646D01*
X186185354Y-62103828D01*
X186344595Y-62219524D01*
X186413613Y-62254690D01*
X186481960Y-62289515D01*
X186532756Y-62337490D01*
X186549551Y-62405311D01*
X186527014Y-62471446D01*
X186481960Y-62510485D01*
X186344594Y-62580476D01*
X186253741Y-62646485D01*
X186185354Y-62696172D01*
X186185352Y-62696174D01*
X186185351Y-62696174D01*
X186046174Y-62835351D01*
X186046174Y-62835352D01*
X186046172Y-62835354D01*
X185996485Y-62903741D01*
X185930476Y-62994594D01*
X185841117Y-63169970D01*
X185780290Y-63357173D01*
X185749500Y-63551577D01*
X185749500Y-63748422D01*
X185780290Y-63942826D01*
X185841117Y-64130029D01*
X185930476Y-64305405D01*
X186046172Y-64464646D01*
X186185354Y-64603828D01*
X186344595Y-64719524D01*
X186413613Y-64754690D01*
X186481960Y-64789515D01*
X186532756Y-64837490D01*
X186549551Y-64905311D01*
X186527014Y-64971446D01*
X186481960Y-65010485D01*
X186344594Y-65080476D01*
X186284001Y-65124500D01*
X186185354Y-65196172D01*
X186185352Y-65196174D01*
X186185351Y-65196174D01*
X186046174Y-65335351D01*
X186046174Y-65335352D01*
X186046172Y-65335354D01*
X185996485Y-65403741D01*
X185930476Y-65494594D01*
X185841117Y-65669970D01*
X185780290Y-65857173D01*
X185749500Y-66051577D01*
X185749500Y-66248422D01*
X185780290Y-66442826D01*
X185841117Y-66630029D01*
X185921302Y-66787400D01*
X185930476Y-66805405D01*
X186046172Y-66964646D01*
X186185354Y-67103828D01*
X186200967Y-67115171D01*
X186243632Y-67170499D01*
X186249613Y-67240112D01*
X186217008Y-67301908D01*
X186191255Y-67320915D01*
X186191781Y-67321773D01*
X186187629Y-67324317D01*
X186095097Y-67391544D01*
X186714243Y-68010689D01*
X186668426Y-68029668D01*
X186553776Y-68106274D01*
X186456274Y-68203776D01*
X186379668Y-68318426D01*
X186360690Y-68364243D01*
X185741544Y-67745097D01*
X185674319Y-67837626D01*
X185563560Y-68055001D01*
X185488165Y-68287040D01*
X185450000Y-68528006D01*
X153109671Y-68528006D01*
X153191964Y-68480495D01*
X153280495Y-68391964D01*
X153343095Y-68283536D01*
X153375500Y-68162601D01*
X153375500Y-68037399D01*
X153362102Y-67987399D01*
X166624500Y-67987399D01*
X166624500Y-68112601D01*
X166656905Y-68233536D01*
X166719505Y-68341964D01*
X166808036Y-68430495D01*
X166916464Y-68493095D01*
X167037399Y-68525500D01*
X167037401Y-68525500D01*
X167162599Y-68525500D01*
X167162601Y-68525500D01*
X167283536Y-68493095D01*
X167391964Y-68430495D01*
X167480495Y-68341964D01*
X167543095Y-68233536D01*
X167575500Y-68112601D01*
X167575500Y-67987399D01*
X167543095Y-67866464D01*
X167480495Y-67758036D01*
X167391964Y-67669505D01*
X167283536Y-67606905D01*
X167283537Y-67606905D01*
X167243224Y-67596103D01*
X167162601Y-67574500D01*
X167037399Y-67574500D01*
X166956775Y-67596103D01*
X166916463Y-67606905D01*
X166808037Y-67669504D01*
X166808034Y-67669506D01*
X166719506Y-67758034D01*
X166719504Y-67758037D01*
X166656905Y-67866463D01*
X166656905Y-67866464D01*
X166624500Y-67987399D01*
X153362102Y-67987399D01*
X153343095Y-67916464D01*
X153280495Y-67808036D01*
X153191964Y-67719505D01*
X153083536Y-67656905D01*
X153083537Y-67656905D01*
X153043224Y-67646103D01*
X152962601Y-67624500D01*
X152837399Y-67624500D01*
X152756775Y-67646103D01*
X152716463Y-67656905D01*
X152608037Y-67719504D01*
X152608034Y-67719506D01*
X152519506Y-67808034D01*
X152519504Y-67808037D01*
X152456905Y-67916463D01*
X152456905Y-67916464D01*
X152424500Y-68037399D01*
X113400500Y-68037399D01*
X113400500Y-66787399D01*
X166624500Y-66787399D01*
X166624500Y-66912601D01*
X166656905Y-67033536D01*
X166719505Y-67141964D01*
X166808036Y-67230495D01*
X166916464Y-67293095D01*
X167037399Y-67325500D01*
X167037401Y-67325500D01*
X167162599Y-67325500D01*
X167162601Y-67325500D01*
X167283536Y-67293095D01*
X167391964Y-67230495D01*
X167480495Y-67141964D01*
X167543095Y-67033536D01*
X167575500Y-66912601D01*
X167575500Y-66787399D01*
X167543095Y-66666464D01*
X167480495Y-66558036D01*
X167391964Y-66469505D01*
X167283536Y-66406905D01*
X167283537Y-66406905D01*
X167243224Y-66396103D01*
X167162601Y-66374500D01*
X167037399Y-66374500D01*
X166956775Y-66396103D01*
X166916463Y-66406905D01*
X166808037Y-66469504D01*
X166808034Y-66469506D01*
X166719506Y-66558034D01*
X166719504Y-66558037D01*
X166656905Y-66666463D01*
X166656905Y-66666464D01*
X166624500Y-66787399D01*
X113400500Y-66787399D01*
X113400500Y-65537399D01*
X166624500Y-65537399D01*
X166624500Y-65662601D01*
X166656905Y-65783536D01*
X166719505Y-65891964D01*
X166808036Y-65980495D01*
X166916464Y-66043095D01*
X167037399Y-66075500D01*
X167037401Y-66075500D01*
X167162599Y-66075500D01*
X167162601Y-66075500D01*
X167283536Y-66043095D01*
X167391964Y-65980495D01*
X167480495Y-65891964D01*
X167543095Y-65783536D01*
X167575500Y-65662601D01*
X167575500Y-65537399D01*
X167543095Y-65416464D01*
X167480495Y-65308036D01*
X167391964Y-65219505D01*
X167283536Y-65156905D01*
X167283537Y-65156905D01*
X167243224Y-65146103D01*
X167162601Y-65124500D01*
X167037399Y-65124500D01*
X166956775Y-65146103D01*
X166916463Y-65156905D01*
X166808037Y-65219504D01*
X166808034Y-65219506D01*
X166719506Y-65308034D01*
X166719504Y-65308037D01*
X166656905Y-65416463D01*
X166656905Y-65416464D01*
X166624500Y-65537399D01*
X113400500Y-65537399D01*
X113400500Y-58637399D01*
X122824500Y-58637399D01*
X122824500Y-58762601D01*
X122856905Y-58883536D01*
X122919505Y-58991964D01*
X123008036Y-59080495D01*
X123116464Y-59143095D01*
X123237399Y-59175500D01*
X123237401Y-59175500D01*
X123362599Y-59175500D01*
X123362601Y-59175500D01*
X123483536Y-59143095D01*
X123591964Y-59080495D01*
X123680495Y-58991964D01*
X123743095Y-58883536D01*
X123775500Y-58762601D01*
X123775500Y-58637399D01*
X123762102Y-58587399D01*
X128924500Y-58587399D01*
X128924500Y-58712601D01*
X128956905Y-58833536D01*
X129019505Y-58941964D01*
X129108036Y-59030495D01*
X129216464Y-59093095D01*
X129337399Y-59125500D01*
X129337401Y-59125500D01*
X129462599Y-59125500D01*
X129462601Y-59125500D01*
X129583536Y-59093095D01*
X129691964Y-59030495D01*
X129780495Y-58941964D01*
X129843095Y-58833536D01*
X129875500Y-58712601D01*
X129875500Y-58587399D01*
X129843095Y-58466464D01*
X129780495Y-58358036D01*
X129691964Y-58269505D01*
X129583536Y-58206905D01*
X129583537Y-58206905D01*
X129527769Y-58191962D01*
X129462601Y-58174500D01*
X129337399Y-58174500D01*
X129272231Y-58191962D01*
X129216463Y-58206905D01*
X129108037Y-58269504D01*
X129108034Y-58269506D01*
X129019506Y-58358034D01*
X129019504Y-58358037D01*
X128956905Y-58466463D01*
X128956905Y-58466464D01*
X128924500Y-58587399D01*
X123762102Y-58587399D01*
X123743095Y-58516464D01*
X123680495Y-58408036D01*
X123591964Y-58319505D01*
X123483536Y-58256905D01*
X123483537Y-58256905D01*
X123443224Y-58246103D01*
X123362601Y-58224500D01*
X123237399Y-58224500D01*
X123156775Y-58246103D01*
X123116463Y-58256905D01*
X123008037Y-58319504D01*
X123008034Y-58319506D01*
X122919506Y-58408034D01*
X122919504Y-58408037D01*
X122856905Y-58516463D01*
X122856905Y-58516464D01*
X122824500Y-58637399D01*
X113400500Y-58637399D01*
X113400500Y-57837399D01*
X131624500Y-57837399D01*
X131624500Y-57962601D01*
X131656905Y-58083536D01*
X131719505Y-58191964D01*
X131808036Y-58280495D01*
X131916464Y-58343095D01*
X132037399Y-58375500D01*
X132037401Y-58375500D01*
X132162599Y-58375500D01*
X132162601Y-58375500D01*
X132283536Y-58343095D01*
X132391964Y-58280495D01*
X132480495Y-58191964D01*
X132543095Y-58083536D01*
X132575500Y-57962601D01*
X132575500Y-57837399D01*
X132543095Y-57716464D01*
X132480495Y-57608036D01*
X132391964Y-57519505D01*
X132283536Y-57456905D01*
X132283537Y-57456905D01*
X132243224Y-57446103D01*
X132162601Y-57424500D01*
X132037399Y-57424500D01*
X131956775Y-57446103D01*
X131916463Y-57456905D01*
X131808037Y-57519504D01*
X131808034Y-57519506D01*
X131719506Y-57608034D01*
X131719504Y-57608037D01*
X131656905Y-57716463D01*
X131656905Y-57716464D01*
X131624500Y-57837399D01*
X113400500Y-57837399D01*
X113400500Y-56387399D01*
X125474500Y-56387399D01*
X125474500Y-56512601D01*
X125506905Y-56633536D01*
X125569505Y-56741964D01*
X125658036Y-56830495D01*
X125766464Y-56893095D01*
X125887399Y-56925500D01*
X125887401Y-56925500D01*
X126012599Y-56925500D01*
X126012601Y-56925500D01*
X126133536Y-56893095D01*
X126241964Y-56830495D01*
X126330495Y-56741964D01*
X126393095Y-56633536D01*
X126425500Y-56512601D01*
X126425500Y-56437399D01*
X149534500Y-56437399D01*
X149534500Y-56562601D01*
X149566905Y-56683536D01*
X149629505Y-56791964D01*
X149718036Y-56880495D01*
X149826464Y-56943095D01*
X149947399Y-56975500D01*
X149947401Y-56975500D01*
X150072599Y-56975500D01*
X150072601Y-56975500D01*
X150193536Y-56943095D01*
X150301964Y-56880495D01*
X150390495Y-56791964D01*
X150453095Y-56683536D01*
X150485500Y-56562601D01*
X150485500Y-56437399D01*
X151234500Y-56437399D01*
X151234500Y-56562601D01*
X151266905Y-56683536D01*
X151329505Y-56791964D01*
X151418036Y-56880495D01*
X151526464Y-56943095D01*
X151647399Y-56975500D01*
X151647401Y-56975500D01*
X151772599Y-56975500D01*
X151772601Y-56975500D01*
X151893536Y-56943095D01*
X152001964Y-56880495D01*
X152090495Y-56791964D01*
X152153095Y-56683536D01*
X152178855Y-56587399D01*
X155074500Y-56587399D01*
X155074500Y-56712601D01*
X155106905Y-56833536D01*
X155169505Y-56941964D01*
X155258036Y-57030495D01*
X155366464Y-57093095D01*
X155487399Y-57125500D01*
X155487401Y-57125500D01*
X155612599Y-57125500D01*
X155612601Y-57125500D01*
X155733536Y-57093095D01*
X155841964Y-57030495D01*
X155930495Y-56941964D01*
X155993095Y-56833536D01*
X156025500Y-56712601D01*
X156025500Y-56587399D01*
X155993095Y-56466464D01*
X155930495Y-56358036D01*
X155841964Y-56269505D01*
X155733536Y-56206905D01*
X155733537Y-56206905D01*
X155693224Y-56196103D01*
X155612601Y-56174500D01*
X155487399Y-56174500D01*
X155406775Y-56196103D01*
X155366463Y-56206905D01*
X155258037Y-56269504D01*
X155258034Y-56269506D01*
X155169506Y-56358034D01*
X155169504Y-56358037D01*
X155106905Y-56466463D01*
X155106905Y-56466464D01*
X155074500Y-56587399D01*
X152178855Y-56587399D01*
X152185500Y-56562601D01*
X152185500Y-56437399D01*
X152153095Y-56316464D01*
X152090495Y-56208036D01*
X152001964Y-56119505D01*
X151893536Y-56056905D01*
X151893537Y-56056905D01*
X151853224Y-56046103D01*
X151772601Y-56024500D01*
X151647399Y-56024500D01*
X151566775Y-56046103D01*
X151526463Y-56056905D01*
X151418037Y-56119504D01*
X151418034Y-56119506D01*
X151329506Y-56208034D01*
X151329504Y-56208037D01*
X151266905Y-56316463D01*
X151266905Y-56316464D01*
X151234500Y-56437399D01*
X150485500Y-56437399D01*
X150453095Y-56316464D01*
X150390495Y-56208036D01*
X150301964Y-56119505D01*
X150193536Y-56056905D01*
X150193537Y-56056905D01*
X150153224Y-56046103D01*
X150072601Y-56024500D01*
X149947399Y-56024500D01*
X149866775Y-56046103D01*
X149826463Y-56056905D01*
X149718037Y-56119504D01*
X149718034Y-56119506D01*
X149629506Y-56208034D01*
X149629504Y-56208037D01*
X149566905Y-56316463D01*
X149566905Y-56316464D01*
X149534500Y-56437399D01*
X126425500Y-56437399D01*
X126425500Y-56387399D01*
X126393095Y-56266464D01*
X126330495Y-56158036D01*
X126241964Y-56069505D01*
X126133536Y-56006905D01*
X126133537Y-56006905D01*
X126093224Y-55996103D01*
X126012601Y-55974500D01*
X125887399Y-55974500D01*
X125806775Y-55996103D01*
X125766463Y-56006905D01*
X125658037Y-56069504D01*
X125658034Y-56069506D01*
X125569506Y-56158034D01*
X125569504Y-56158037D01*
X125506905Y-56266463D01*
X125506905Y-56266464D01*
X125474500Y-56387399D01*
X113400500Y-56387399D01*
X113400500Y-55337399D01*
X154734500Y-55337399D01*
X154734500Y-55462601D01*
X154766905Y-55583536D01*
X154829505Y-55691964D01*
X154918036Y-55780495D01*
X155026464Y-55843095D01*
X155147399Y-55875500D01*
X155147401Y-55875500D01*
X155272599Y-55875500D01*
X155272601Y-55875500D01*
X155393536Y-55843095D01*
X155501964Y-55780495D01*
X155590495Y-55691964D01*
X155653095Y-55583536D01*
X155685500Y-55462601D01*
X155685500Y-55337399D01*
X155653095Y-55216464D01*
X155590495Y-55108036D01*
X155501964Y-55019505D01*
X155393536Y-54956905D01*
X155393537Y-54956905D01*
X155353224Y-54946103D01*
X155272601Y-54924500D01*
X155147399Y-54924500D01*
X155066775Y-54946103D01*
X155026463Y-54956905D01*
X154918037Y-55019504D01*
X154918034Y-55019506D01*
X154829506Y-55108034D01*
X154829504Y-55108037D01*
X154766905Y-55216463D01*
X154766905Y-55216464D01*
X154734500Y-55337399D01*
X113400500Y-55337399D01*
X113400500Y-50613051D01*
X113400649Y-50606967D01*
X113408778Y-50441491D01*
X114149500Y-50441491D01*
X114149500Y-50778508D01*
X114187231Y-51113381D01*
X114187233Y-51113397D01*
X114262223Y-51441953D01*
X114262227Y-51441965D01*
X114373532Y-51760054D01*
X114519752Y-52063683D01*
X114519754Y-52063686D01*
X114699054Y-52349039D01*
X114855811Y-52545606D01*
X114903573Y-52605499D01*
X114909175Y-52612523D01*
X115147477Y-52850825D01*
X115410961Y-53060946D01*
X115696314Y-53240246D01*
X115999949Y-53386469D01*
X116238848Y-53470063D01*
X116318034Y-53497772D01*
X116318046Y-53497776D01*
X116646606Y-53572767D01*
X116981492Y-53610499D01*
X116981493Y-53610500D01*
X116981496Y-53610500D01*
X117318507Y-53610500D01*
X117318507Y-53610499D01*
X117653394Y-53572767D01*
X117981954Y-53497776D01*
X118300051Y-53386469D01*
X118603686Y-53240246D01*
X118889039Y-53060946D01*
X119152523Y-52850825D01*
X119390825Y-52612523D01*
X119600946Y-52349039D01*
X119780246Y-52063686D01*
X119845088Y-51929041D01*
X135935000Y-51929041D01*
X135935000Y-52330000D01*
X136635000Y-52330000D01*
X136635000Y-52830000D01*
X135935000Y-52830000D01*
X135935000Y-53230958D01*
X135974387Y-53428974D01*
X135974390Y-53428983D01*
X136051652Y-53615513D01*
X136051659Y-53615526D01*
X136163829Y-53783399D01*
X136163832Y-53783403D01*
X136306596Y-53926167D01*
X136306600Y-53926170D01*
X136474473Y-54038340D01*
X136474486Y-54038347D01*
X136661016Y-54115609D01*
X136661025Y-54115612D01*
X136710000Y-54125353D01*
X136710000Y-53339618D01*
X136760446Y-53390064D01*
X136834555Y-53432851D01*
X136917213Y-53455000D01*
X137002787Y-53455000D01*
X137085445Y-53432851D01*
X137159554Y-53390064D01*
X137210000Y-53339618D01*
X137210000Y-54125352D01*
X137258974Y-54115612D01*
X137258983Y-54115609D01*
X137445513Y-54038347D01*
X137445526Y-54038340D01*
X137613399Y-53926170D01*
X137613403Y-53926167D01*
X137756167Y-53783403D01*
X137756170Y-53783399D01*
X137868340Y-53615526D01*
X137868347Y-53615513D01*
X137945609Y-53428983D01*
X137945612Y-53428974D01*
X137984999Y-53230958D01*
X137985000Y-53230955D01*
X137985000Y-52830000D01*
X137285000Y-52830000D01*
X137285000Y-52330000D01*
X137855950Y-52330000D01*
X137922989Y-52349685D01*
X137963337Y-52391999D01*
X137969492Y-52402661D01*
X137969495Y-52402665D01*
X138067335Y-52500505D01*
X138187164Y-52569688D01*
X138320817Y-52605500D01*
X138320819Y-52605500D01*
X138459181Y-52605500D01*
X138459183Y-52605500D01*
X138592836Y-52569688D01*
X138712665Y-52500505D01*
X138810505Y-52402665D01*
X138879688Y-52282836D01*
X138915500Y-52149183D01*
X138915500Y-52010817D01*
X143644500Y-52010817D01*
X143644500Y-52149182D01*
X143680312Y-52282835D01*
X143680313Y-52282838D01*
X143749492Y-52402661D01*
X143749494Y-52402664D01*
X143749495Y-52402665D01*
X143847335Y-52500505D01*
X143967164Y-52569688D01*
X144100817Y-52605500D01*
X144100819Y-52605500D01*
X144239181Y-52605500D01*
X144239183Y-52605500D01*
X144372836Y-52569688D01*
X144492665Y-52500505D01*
X144590505Y-52402665D01*
X144596663Y-52391999D01*
X144647231Y-52343784D01*
X144704050Y-52330000D01*
X145275000Y-52330000D01*
X145275000Y-52830000D01*
X144575000Y-52830000D01*
X144575000Y-53230958D01*
X144614387Y-53428974D01*
X144614390Y-53428983D01*
X144691652Y-53615513D01*
X144691659Y-53615526D01*
X144803829Y-53783399D01*
X144803832Y-53783403D01*
X144946596Y-53926167D01*
X144946600Y-53926170D01*
X145114473Y-54038340D01*
X145114486Y-54038347D01*
X145301016Y-54115609D01*
X145301025Y-54115612D01*
X145350000Y-54125353D01*
X145350000Y-53339618D01*
X145400446Y-53390064D01*
X145474555Y-53432851D01*
X145557213Y-53455000D01*
X145642787Y-53455000D01*
X145725445Y-53432851D01*
X145799554Y-53390064D01*
X145850000Y-53339618D01*
X145850000Y-54125352D01*
X145898974Y-54115612D01*
X145898983Y-54115609D01*
X146085513Y-54038347D01*
X146085526Y-54038340D01*
X146253399Y-53926170D01*
X146253403Y-53926167D01*
X146396167Y-53783403D01*
X146396170Y-53783399D01*
X146508340Y-53615526D01*
X146508347Y-53615513D01*
X146585609Y-53428983D01*
X146585612Y-53428974D01*
X146624999Y-53230958D01*
X146625000Y-53230955D01*
X146625000Y-52830000D01*
X145925000Y-52830000D01*
X145925000Y-52330000D01*
X146625000Y-52330000D01*
X146625000Y-51929045D01*
X146624999Y-51929041D01*
X146585612Y-51731025D01*
X146585609Y-51731016D01*
X146508347Y-51544486D01*
X146508340Y-51544473D01*
X146396170Y-51376600D01*
X146396167Y-51376596D01*
X146253403Y-51233832D01*
X146253399Y-51233829D01*
X146085526Y-51121659D01*
X146085513Y-51121652D01*
X145898984Y-51044390D01*
X145898977Y-51044388D01*
X145850000Y-51034645D01*
X145850000Y-51820382D01*
X145799554Y-51769936D01*
X145725445Y-51727149D01*
X145642787Y-51705000D01*
X145557213Y-51705000D01*
X145474555Y-51727149D01*
X145400446Y-51769936D01*
X145350000Y-51820382D01*
X145350000Y-51034646D01*
X145349999Y-51034645D01*
X145301022Y-51044388D01*
X145301015Y-51044390D01*
X145114486Y-51121652D01*
X145114473Y-51121659D01*
X144946600Y-51233829D01*
X144946596Y-51233832D01*
X144803832Y-51376596D01*
X144803829Y-51376600D01*
X144691659Y-51544473D01*
X144691654Y-51544483D01*
X144668915Y-51599381D01*
X144625074Y-51653784D01*
X144558780Y-51675849D01*
X144492354Y-51659315D01*
X144372838Y-51590313D01*
X144372837Y-51590312D01*
X144372836Y-51590312D01*
X144239183Y-51554500D01*
X144100817Y-51554500D01*
X143967164Y-51590312D01*
X143967161Y-51590313D01*
X143847338Y-51659492D01*
X143847333Y-51659496D01*
X143749496Y-51757333D01*
X143749492Y-51757338D01*
X143680313Y-51877161D01*
X143680312Y-51877164D01*
X143644500Y-52010817D01*
X138915500Y-52010817D01*
X138879688Y-51877164D01*
X138810505Y-51757335D01*
X138712665Y-51659495D01*
X138712664Y-51659494D01*
X138712661Y-51659492D01*
X138592838Y-51590313D01*
X138592837Y-51590312D01*
X138592836Y-51590312D01*
X138459183Y-51554500D01*
X138320817Y-51554500D01*
X138187164Y-51590312D01*
X138187163Y-51590312D01*
X138067644Y-51659316D01*
X137999744Y-51675788D01*
X137933717Y-51652935D01*
X137891083Y-51599379D01*
X137868344Y-51544480D01*
X137868340Y-51544473D01*
X137756170Y-51376600D01*
X137756167Y-51376596D01*
X137613403Y-51233832D01*
X137613399Y-51233829D01*
X137445526Y-51121659D01*
X137445513Y-51121652D01*
X137258984Y-51044390D01*
X137258977Y-51044388D01*
X137210000Y-51034645D01*
X137210000Y-51820382D01*
X137159554Y-51769936D01*
X137085445Y-51727149D01*
X137002787Y-51705000D01*
X136917213Y-51705000D01*
X136834555Y-51727149D01*
X136760446Y-51769936D01*
X136710000Y-51820382D01*
X136710000Y-51034646D01*
X136709999Y-51034645D01*
X136661022Y-51044388D01*
X136661015Y-51044390D01*
X136474486Y-51121652D01*
X136474473Y-51121659D01*
X136306600Y-51233829D01*
X136306596Y-51233832D01*
X136163832Y-51376596D01*
X136163829Y-51376600D01*
X136051659Y-51544473D01*
X136051652Y-51544486D01*
X135974390Y-51731016D01*
X135974387Y-51731025D01*
X135935000Y-51929041D01*
X119845088Y-51929041D01*
X119873929Y-51869152D01*
X119892569Y-51830446D01*
X119926469Y-51760051D01*
X120037776Y-51441954D01*
X120112767Y-51113394D01*
X120150500Y-50778504D01*
X120150500Y-50441496D01*
X120112767Y-50106606D01*
X120037776Y-49778046D01*
X119926469Y-49459949D01*
X119780246Y-49156314D01*
X119600946Y-48870961D01*
X119445430Y-48675950D01*
X119445430Y-48675948D01*
X119390831Y-48607483D01*
X119152522Y-48369174D01*
X119085606Y-48315811D01*
X118889039Y-48159054D01*
X118603686Y-47979754D01*
X118603683Y-47979752D01*
X118300054Y-47833532D01*
X117981965Y-47722227D01*
X117981953Y-47722223D01*
X117653397Y-47647233D01*
X117653381Y-47647231D01*
X117318508Y-47609500D01*
X117318504Y-47609500D01*
X116981496Y-47609500D01*
X116981491Y-47609500D01*
X116646618Y-47647231D01*
X116646602Y-47647233D01*
X116318046Y-47722223D01*
X116318034Y-47722227D01*
X115999945Y-47833532D01*
X115696316Y-47979752D01*
X115410962Y-48159053D01*
X115147477Y-48369174D01*
X114909174Y-48607477D01*
X114699053Y-48870962D01*
X114519752Y-49156316D01*
X114373532Y-49459945D01*
X114262227Y-49778034D01*
X114262223Y-49778046D01*
X114187233Y-50106602D01*
X114187231Y-50106618D01*
X114149500Y-50441491D01*
X113408778Y-50441491D01*
X113409248Y-50431933D01*
X113418256Y-50248568D01*
X113419449Y-50236457D01*
X113427750Y-50180495D01*
X113471654Y-49884520D01*
X113474022Y-49872613D01*
X113560475Y-49527473D01*
X113563998Y-49515858D01*
X113683869Y-49180840D01*
X113688508Y-49169643D01*
X113840643Y-48847979D01*
X113846358Y-48837287D01*
X114029278Y-48532105D01*
X114036021Y-48522012D01*
X114247979Y-48236219D01*
X114255682Y-48226834D01*
X114494628Y-47963198D01*
X114503198Y-47954628D01*
X114766834Y-47715682D01*
X114776219Y-47707979D01*
X115062012Y-47496021D01*
X115072105Y-47489278D01*
X115377287Y-47306358D01*
X115387979Y-47300643D01*
X115709643Y-47148508D01*
X115720840Y-47143869D01*
X116055858Y-47023998D01*
X116067473Y-47020475D01*
X116412613Y-46934022D01*
X116424520Y-46931654D01*
X116776460Y-46879448D01*
X116788564Y-46878256D01*
X117146967Y-46860648D01*
X117153051Y-46860500D01*
X117194170Y-46860500D01*
X136411906Y-46860500D01*
X136478945Y-46880185D01*
G37*
%TD.AperFunction*%
%TD*%
M02*
