%TF.GenerationSoftware,KiCad,Pcbnew,9.0.7+1*%
%TF.CreationDate,Date%
%TF.ProjectId,LE_BMS_A_V2,4c455f42-4d53-45f4-915f-56322e6b6963,+ (Unreleased)*%
%TF.SameCoordinates,Original*%
%TF.FileFunction,Legend,Bot*%
%TF.FilePolarity,Positive*%
%FSLAX46Y46*%
G04 Gerber Fmt 4.6, Leading zero omitted, Abs format (unit mm)*
G04 Created by KiCad*
%MOMM*%
%LPD*%
G01*
G04 APERTURE LIST*
G04 Aperture macros list*
%AMRoundRect*
0 Rectangle with rounded corners*
0 $1 Rounding radius*
0 $2 $3 $4 $5 $6 $7 $8 $9 X,Y pos of 4 corners*
0 Add a 4 corners polygon primitive as box body*
4,1,4,$2,$3,$4,$5,$6,$7,$8,$9,$2,$3,0*
0 Add four circle primitives for the rounded corners*
1,1,$1+$1,$2,$3*
1,1,$1+$1,$4,$5*
1,1,$1+$1,$6,$7*
1,1,$1+$1,$8,$9*
0 Add four rect primitives between the rounded corners*
20,1,$1+$1,$2,$3,$4,$5,0*
20,1,$1+$1,$4,$5,$6,$7,0*
20,1,$1+$1,$6,$7,$8,$9,0*
20,1,$1+$1,$8,$9,$2,$3,0*%
G04 Aperture macros list end*
%ADD10C,5.700000*%
%ADD11RoundRect,0.050000X1.000000X1.000000X-1.000000X1.000000X-1.000000X-1.000000X1.000000X-1.000000X0*%
%ADD12C,2.100000*%
%ADD13C,2.604000*%
%ADD14RoundRect,0.264706X-0.635294X-0.760294X0.635294X-0.760294X0.635294X0.760294X-0.635294X0.760294X0*%
%ADD15O,1.800000X2.050000*%
%ADD16C,0.700000*%
%ADD17RoundRect,0.102000X0.754000X-0.754000X0.754000X0.754000X-0.754000X0.754000X-0.754000X-0.754000X0*%
%ADD18C,1.712000*%
%ADD19C,0.750000*%
%ADD20O,2.354000X1.254000*%
%ADD21O,2.054000X1.254000*%
%ADD22C,3.400000*%
%ADD23RoundRect,0.102000X-0.724000X-0.724000X0.724000X-0.724000X0.724000X0.724000X-0.724000X0.724000X0*%
%ADD24C,1.652000*%
%ADD25C,2.634000*%
%ADD26C,2.304000*%
%ADD27RoundRect,0.102000X-0.754000X0.754000X-0.754000X-0.754000X0.754000X-0.754000X0.754000X0.754000X0*%
G04 APERTURE END LIST*
%LPC*%
D10*
%TO.C,H3*%
X117150000Y-122610000D03*
%TD*%
D11*
%TO.C,REF\u002A\u002A*%
X127150000Y-64210000D03*
D12*
X147950000Y-64210000D03*
%TD*%
D13*
%TO.C,J4*%
X182950000Y-105050000D03*
X182950000Y-99970000D03*
%TD*%
D14*
%TO.C,J6*%
X171300000Y-117260000D03*
D15*
X173800000Y-117260000D03*
X176300000Y-117260000D03*
X178800000Y-117260000D03*
%TD*%
D16*
%TO.C,U1*%
X159900000Y-57660000D03*
X159900000Y-59160000D03*
X160650000Y-56910000D03*
X160650000Y-58410000D03*
X160650000Y-59910000D03*
X161400000Y-57660000D03*
X161400000Y-59160000D03*
X162150000Y-56910000D03*
X162150000Y-58410000D03*
X162150000Y-59910000D03*
X162900000Y-57660000D03*
X162900000Y-59160000D03*
%TD*%
D10*
%TO.C,H1*%
X117150000Y-50610000D03*
%TD*%
D17*
%TO.C,PS1*%
X172587500Y-106417500D03*
D18*
X172587500Y-103877500D03*
X172587500Y-101337500D03*
X172587500Y-98797500D03*
%TD*%
D19*
%TO.C,J1*%
X119570000Y-78220000D03*
X119570000Y-84000000D03*
D20*
X120070000Y-76790000D03*
X120070000Y-85430000D03*
D21*
X115890000Y-76790000D03*
X115890000Y-85430000D03*
%TD*%
D22*
%TO.C,J5*%
X127100000Y-120910000D03*
X139800000Y-120910000D03*
D23*
X137006000Y-118370000D03*
D24*
X135990000Y-116590000D03*
X134974000Y-118370000D03*
X133958000Y-116590000D03*
X132942000Y-118370000D03*
X131926000Y-116590000D03*
X130910000Y-118370000D03*
X129894000Y-116590000D03*
D25*
X125320000Y-117480000D03*
X141580000Y-117480000D03*
%TD*%
D14*
%TO.C,J2*%
X155700000Y-117260000D03*
D15*
X158200000Y-117260000D03*
X160700000Y-117260000D03*
X163200000Y-117260000D03*
%TD*%
D10*
%TO.C,H4*%
X189150000Y-122610000D03*
%TD*%
D26*
%TO.C,J3*%
X183650000Y-88210000D03*
X183650000Y-85710000D03*
X183650000Y-83210000D03*
X183650000Y-80710000D03*
X183650000Y-78210000D03*
X183650000Y-75710000D03*
X183650000Y-73210000D03*
X183650000Y-70710000D03*
X183650000Y-68210000D03*
X183650000Y-65710000D03*
X183650000Y-63210000D03*
X183650000Y-60710000D03*
%TD*%
D10*
%TO.C,H2*%
X189150000Y-50610000D03*
%TD*%
D27*
%TO.C,PS2*%
X141200000Y-98660000D03*
D18*
X141200000Y-101200000D03*
X141200000Y-103740000D03*
X141200000Y-106280000D03*
%TD*%
%LPD*%
M02*
