%TF.GenerationSoftware,KiCad,Pcbnew,9.0.7+1*%
%TF.CreationDate,Date%
%TF.ProjectId,LE_BMS_A_V2,4c455f42-4d53-45f4-915f-56322e6b6963,+ (Unreleased)*%
%TF.SameCoordinates,Original*%
%TF.FileFunction,Copper,L3,Inr*%
%TF.FilePolarity,Positive*%
%FSLAX46Y46*%
G04 Gerber Fmt 4.6, Leading zero omitted, Abs format (unit mm)*
G04 Created by KiCad*
%MOMM*%
%LPD*%
G01*
G04 APERTURE LIST*
G04 Aperture macros list*
%AMRoundRect*
0 Rectangle with rounded corners*
0 $1 Rounding radius*
0 $2 $3 $4 $5 $6 $7 $8 $9 X,Y pos of 4 corners*
0 Add a 4 corners polygon primitive as box body*
4,1,4,$2,$3,$4,$5,$6,$7,$8,$9,$2,$3,0*
0 Add four circle primitives for the rounded corners*
1,1,$1+$1,$2,$3*
1,1,$1+$1,$4,$5*
1,1,$1+$1,$6,$7*
1,1,$1+$1,$8,$9*
0 Add four rect primitives between the rounded corners*
20,1,$1+$1,$2,$3,$4,$5,0*
20,1,$1+$1,$4,$5,$6,$7,0*
20,1,$1+$1,$6,$7,$8,$9,0*
20,1,$1+$1,$8,$9,$2,$3,0*%
G04 Aperture macros list end*
%TA.AperFunction,ComponentPad*%
%ADD10C,5.600000*%
%TD*%
%TA.AperFunction,ComponentPad*%
%ADD11C,2.400000*%
%TD*%
%TA.AperFunction,ComponentPad*%
%ADD12RoundRect,0.250000X-0.600000X-0.725000X0.600000X-0.725000X0.600000X0.725000X-0.600000X0.725000X0*%
%TD*%
%TA.AperFunction,ComponentPad*%
%ADD13O,1.700000X1.950000*%
%TD*%
%TA.AperFunction,ComponentPad*%
%ADD14R,1.508000X1.508000*%
%TD*%
%TA.AperFunction,ComponentPad*%
%ADD15C,1.508000*%
%TD*%
%TA.AperFunction,ComponentPad*%
%ADD16R,2.000000X2.000000*%
%TD*%
%TA.AperFunction,ComponentPad*%
%ADD17C,2.000000*%
%TD*%
%TA.AperFunction,ComponentPad*%
%ADD18O,1.050000X2.150000*%
%TD*%
%TA.AperFunction,ComponentPad*%
%ADD19O,1.050000X1.850000*%
%TD*%
%TA.AperFunction,ComponentPad*%
%ADD20R,1.448000X1.448000*%
%TD*%
%TA.AperFunction,ComponentPad*%
%ADD21C,1.448000*%
%TD*%
%TA.AperFunction,ComponentPad*%
%ADD22C,2.430000*%
%TD*%
%TA.AperFunction,ComponentPad*%
%ADD23C,2.100000*%
%TD*%
%TA.AperFunction,ViaPad*%
%ADD24C,0.600000*%
%TD*%
G04 APERTURE END LIST*
D10*
%TO.N,unconnected-(H3-Pad1)*%
%TO.C,H3*%
X117150000Y-122610000D03*
%TD*%
D11*
%TO.N,+5V_CAN1*%
%TO.C,J4*%
X186000000Y-105240000D03*
%TO.N,GND_CAN1*%
X186000000Y-100160000D03*
%TD*%
D12*
%TO.N,/Project Architecture/Section B - Title B/CAN1_H*%
%TO.C,J6*%
X171300000Y-120200000D03*
D13*
%TO.N,/Project Architecture/Section B - Title B/CAN1_L*%
X173800000Y-120200000D03*
%TO.N,GND_CAN1*%
X176300000Y-120200000D03*
%TO.N,+5V_CAN1*%
X178800000Y-120200000D03*
%TD*%
D14*
%TO.N,GND_CAN1*%
%TO.C,PS1*%
X172550000Y-106420000D03*
D15*
%TO.N,+5V_CAN1*%
X172550000Y-103880000D03*
%TO.N,GND*%
X172550000Y-101340000D03*
%TO.N,+5V*%
X172550000Y-98800000D03*
%TD*%
D16*
%TO.N,+3V0*%
%TO.C,BT1*%
X118142546Y-72400000D03*
D17*
%TO.N,GND*%
X138942546Y-72400000D03*
%TD*%
D10*
%TO.N,unconnected-(H1-Pad1)*%
%TO.C,H1*%
X117150000Y-50610000D03*
%TD*%
D18*
%TO.N,GND*%
%TO.C,J1*%
X147830000Y-52580000D03*
X139190000Y-52580000D03*
D19*
X147830000Y-48400000D03*
X139190000Y-48400000D03*
%TD*%
D20*
%TO.N,unconnected-(J5-Pad1)*%
%TO.C,J5*%
X137006000Y-121460000D03*
D21*
%TO.N,unconnected-(J5-Pad2)*%
X135990000Y-119680000D03*
%TO.N,GND_CAN2*%
X134974000Y-121460000D03*
%TO.N,unconnected-(J5-Pad4)*%
X133958000Y-119680000D03*
%TO.N,unconnected-(J5-Pad5)*%
X132942000Y-121460000D03*
%TO.N,unconnected-(J5-Pad6)*%
X131926000Y-119680000D03*
%TO.N,/Project Architecture/Section B - Title B/CAN2_H*%
X130910000Y-121460000D03*
%TO.N,/Project Architecture/Section B - Title B/CAN2_L*%
X129894000Y-119680000D03*
D22*
%TO.N,GND_CAN2*%
X125320000Y-120570000D03*
X141580000Y-120570000D03*
%TD*%
D12*
%TO.N,/Project Architecture/Section B - Title B/CAN1_H*%
%TO.C,J2*%
X155700000Y-120200000D03*
D13*
%TO.N,/Project Architecture/Section B - Title B/CAN1_L*%
X158200000Y-120200000D03*
%TO.N,GND_CAN1*%
X160700000Y-120200000D03*
%TO.N,+5V_CAN1*%
X163200000Y-120200000D03*
%TD*%
D23*
%TO.N,+5V*%
%TO.C,J3*%
X187000000Y-71150000D03*
%TO.N,GND*%
X187000000Y-68650000D03*
%TO.N,/Project Architecture/Section A - Title A/GPIO_A1*%
X187000000Y-66150000D03*
%TO.N,/Project Architecture/Section A - Title A/GPIO_A2*%
X187000000Y-63650000D03*
%TO.N,/Project Architecture/Section A - Title A/GPIO_A3*%
X187000000Y-61150000D03*
%TO.N,/Project Architecture/Section A - Title A/GPIO_A4*%
X187000000Y-58650000D03*
%TD*%
D10*
%TO.N,unconnected-(H4-Pad1)*%
%TO.C,H4*%
X189150000Y-122610000D03*
%TD*%
%TO.N,unconnected-(H2-Pad1)*%
%TO.C,H2*%
X189150000Y-50610000D03*
%TD*%
D23*
%TO.N,+5V*%
%TO.C,J7*%
X187000000Y-90350000D03*
%TO.N,GND*%
X187000000Y-87850000D03*
%TO.N,/Project Architecture/Section A - Title A/GPIO_B1*%
X187000000Y-85350000D03*
%TO.N,/Project Architecture/Section A - Title A/GPIO_B2*%
X187000000Y-82850000D03*
%TO.N,/Project Architecture/Section A - Title A/GPIO_B3*%
X187000000Y-80350000D03*
%TO.N,/Project Architecture/Section A - Title A/GPIO_B4*%
X187000000Y-77850000D03*
%TD*%
D14*
%TO.N,GND*%
%TO.C,PS2*%
X141200000Y-98660000D03*
D15*
%TO.N,+5V*%
X141200000Y-101200000D03*
%TO.N,GND_CAN2*%
X141200000Y-103740000D03*
%TO.N,+5V_CAN2*%
X141200000Y-106280000D03*
%TD*%
D24*
%TO.N,GND*%
X145900000Y-86900000D03*
X124500000Y-52525000D03*
X175900000Y-100700000D03*
X154000000Y-91700000D03*
X173075000Y-86300000D03*
X179150000Y-51200000D03*
X146671015Y-88828985D03*
X124500000Y-49625000D03*
X156250000Y-96410000D03*
X121555000Y-85625000D03*
X182350000Y-65175000D03*
X168775000Y-92700000D03*
X136900000Y-96200000D03*
X160000000Y-59500000D03*
X116245000Y-94325000D03*
X131650000Y-49750000D03*
X160000000Y-61000000D03*
X163000000Y-57950000D03*
X155310000Y-54100000D03*
X126500000Y-96300000D03*
X144700000Y-89100000D03*
X163000000Y-61000000D03*
X124600000Y-55325000D03*
X161500000Y-61000000D03*
X182350000Y-62725000D03*
X151900000Y-92200000D03*
X182950000Y-50262500D03*
X166000000Y-95400000D03*
X150110000Y-53100000D03*
X161500000Y-59500000D03*
X170410000Y-54100000D03*
X131650000Y-52550000D03*
X168775000Y-85800000D03*
X182550000Y-81925000D03*
X182375000Y-57675000D03*
X182550000Y-84375000D03*
X160000000Y-57950000D03*
X171475000Y-85300000D03*
X161500000Y-57950000D03*
X131600000Y-55350000D03*
X135250000Y-51150000D03*
X182350000Y-60175000D03*
X138880000Y-55350000D03*
X150200000Y-79500000D03*
X114955000Y-95325000D03*
X147630000Y-55400000D03*
X156250000Y-99710000D03*
X126500000Y-99600000D03*
X172810000Y-54100000D03*
X182550000Y-79375000D03*
X163000000Y-59500000D03*
X182575000Y-76875000D03*
X128000000Y-51125000D03*
X151910000Y-53100000D03*
X138700000Y-97700000D03*
X167075000Y-85800000D03*
%TO.N,+3V3*%
X133350000Y-98010000D03*
X124055000Y-96525000D03*
X178975000Y-88600000D03*
X118785000Y-86525000D03*
X150010000Y-56500000D03*
X165975000Y-88600000D03*
X151710000Y-56500000D03*
X131650000Y-58600000D03*
X177275000Y-90700000D03*
X124055000Y-94925000D03*
X155210000Y-55400000D03*
X136950000Y-98010000D03*
X177275000Y-86600000D03*
X154200000Y-80500000D03*
X118857500Y-84725000D03*
X166900000Y-98100000D03*
X163900000Y-96400000D03*
X169775000Y-88562500D03*
X124600000Y-58625000D03*
%TO.N,/Project Architecture/Section A - Title A/ESP32_EN*%
X155550000Y-56650000D03*
X127250000Y-56375000D03*
%TO.N,/Project Architecture/Section A - Title A/ESP32_BOOT*%
X134350000Y-57850000D03*
X170150000Y-70600000D03*
%TO.N,+5V*%
X182350000Y-54150000D03*
%TO.N,+5V_CAN1*%
X163850000Y-110410000D03*
X176000000Y-104400000D03*
X163850000Y-105310000D03*
%TO.N,+5V_CAN2*%
X134050000Y-110210000D03*
X138000000Y-105500000D03*
X134050000Y-105510000D03*
%TO.N,/Project Architecture/Section A - Title A/CAN2_INT*%
X168575000Y-73575000D03*
X154800000Y-85600000D03*
%TO.N,/Project Architecture/Section A - Title A/CAN2_MISO*%
X154800000Y-83000000D03*
X163500000Y-76100000D03*
%TO.N,/Project Architecture/Section A - Title A/CAN2_RST*%
X154800000Y-81600000D03*
X164700000Y-73600000D03*
%TO.N,/Project Architecture/Section A - Title A/CAN1_TX*%
X158800000Y-96200000D03*
X162500000Y-82800000D03*
%TO.N,GND_CAN1*%
X184450000Y-116810000D03*
X156250000Y-108810000D03*
X162050000Y-110410000D03*
X175900000Y-106200000D03*
%TO.N,GND_CAN2*%
X143750000Y-116610000D03*
X126450000Y-108510000D03*
X138000000Y-103700000D03*
X132350000Y-110210000D03*
%TO.N,+3V0*%
X117500000Y-91250000D03*
%TO.N,/Project Architecture/Section D - RTC/I2C_SDA*%
X152900000Y-68100000D03*
X151500000Y-72200000D03*
%TO.N,/Project Architecture/Section A - Title A/GPIO_A1*%
X171610000Y-60450000D03*
%TO.N,/Project Architecture/Section A - Title A/GPIO_A2*%
X171610000Y-59180000D03*
%TO.N,/Project Architecture/Section A - Title A/GPIO_A4*%
X171610000Y-56640000D03*
%TO.N,/Project Architecture/Section A - Title A/GPIO_A3*%
X171610000Y-57910000D03*
%TO.N,/Project Architecture/Section A - Title A/GPIO_B3*%
X167100000Y-66850000D03*
%TO.N,/Project Architecture/Section A - Title A/GPIO_B1*%
X167100000Y-69250000D03*
%TO.N,/Project Architecture/Section A - Title A/GPIO_B2*%
X167100000Y-68050000D03*
%TO.N,/Project Architecture/Section A - Title A/GPIO_B4*%
X167100000Y-65600000D03*
%TD*%
%TA.AperFunction,Conductor*%
%TO.N,+5V_CAN2*%
G36*
X140877482Y-102629685D02*
G01*
X140923237Y-102682489D01*
X140933181Y-102751647D01*
X140904156Y-102815203D01*
X140857895Y-102848561D01*
X140747881Y-102894129D01*
X140747868Y-102894136D01*
X140591542Y-102998591D01*
X140591538Y-102998594D01*
X140458594Y-103131538D01*
X140458591Y-103131542D01*
X140354136Y-103287868D01*
X140354129Y-103287881D01*
X140282182Y-103461578D01*
X140282179Y-103461590D01*
X140245500Y-103645985D01*
X140245500Y-103834014D01*
X140282179Y-104018409D01*
X140282182Y-104018421D01*
X140354129Y-104192118D01*
X140354136Y-104192131D01*
X140458591Y-104348457D01*
X140458594Y-104348461D01*
X140591538Y-104481405D01*
X140591542Y-104481408D01*
X140747868Y-104585863D01*
X140747881Y-104585870D01*
X140921578Y-104657817D01*
X140921583Y-104657819D01*
X141105985Y-104694499D01*
X141105988Y-104694500D01*
X141105990Y-104694500D01*
X141294012Y-104694500D01*
X141294013Y-104694499D01*
X141478417Y-104657819D01*
X141652125Y-104585867D01*
X141808458Y-104481408D01*
X141941408Y-104348458D01*
X142045867Y-104192125D01*
X142117819Y-104018417D01*
X142154500Y-103834010D01*
X142154500Y-103645990D01*
X142154500Y-103645987D01*
X142154499Y-103645985D01*
X142152137Y-103634110D01*
X142117819Y-103461583D01*
X142089280Y-103392683D01*
X142045870Y-103287881D01*
X142045863Y-103287868D01*
X141941408Y-103131542D01*
X141941405Y-103131538D01*
X141808461Y-102998594D01*
X141808457Y-102998591D01*
X141652131Y-102894136D01*
X141652118Y-102894129D01*
X141542105Y-102848561D01*
X141487701Y-102804720D01*
X141465636Y-102738426D01*
X141482915Y-102670727D01*
X141534052Y-102623116D01*
X141589557Y-102610000D01*
X149026000Y-102610000D01*
X149093039Y-102629685D01*
X149138794Y-102682489D01*
X149150000Y-102734000D01*
X149150000Y-126235500D01*
X149130315Y-126302539D01*
X149077511Y-126348294D01*
X149026000Y-126359500D01*
X117153051Y-126359500D01*
X117146968Y-126359351D01*
X117124856Y-126358264D01*
X116788567Y-126341743D01*
X116776457Y-126340550D01*
X116424532Y-126288347D01*
X116412597Y-126285973D01*
X116067481Y-126199526D01*
X116055837Y-126195994D01*
X115720858Y-126076136D01*
X115709629Y-126071485D01*
X115387999Y-125919366D01*
X115377272Y-125913631D01*
X115072118Y-125730729D01*
X115062000Y-125723969D01*
X114776230Y-125512028D01*
X114766824Y-125504308D01*
X114636809Y-125386469D01*
X114503209Y-125265381D01*
X114494618Y-125256790D01*
X114255691Y-124993175D01*
X114247971Y-124983769D01*
X114036030Y-124697999D01*
X114029270Y-124687881D01*
X113984102Y-124612523D01*
X113846363Y-124382720D01*
X113840639Y-124372012D01*
X113688511Y-124050363D01*
X113683867Y-124039151D01*
X113564000Y-123704147D01*
X113560473Y-123692518D01*
X113549319Y-123647989D01*
X113474023Y-123347389D01*
X113471652Y-123335467D01*
X113451847Y-123201954D01*
X113419448Y-122983541D01*
X113418256Y-122971431D01*
X113400649Y-122613032D01*
X113400500Y-122606948D01*
X113400500Y-122441491D01*
X114149500Y-122441491D01*
X114149500Y-122778508D01*
X114187231Y-123113381D01*
X114187233Y-123113397D01*
X114262223Y-123441953D01*
X114262227Y-123441965D01*
X114373532Y-123760054D01*
X114519752Y-124063683D01*
X114519754Y-124063686D01*
X114699054Y-124349039D01*
X114909175Y-124612523D01*
X115147477Y-124850825D01*
X115410961Y-125060946D01*
X115696314Y-125240246D01*
X115999949Y-125386469D01*
X116238848Y-125470063D01*
X116318034Y-125497772D01*
X116318046Y-125497776D01*
X116646606Y-125572767D01*
X116981492Y-125610499D01*
X116981493Y-125610500D01*
X116981496Y-125610500D01*
X117318507Y-125610500D01*
X117318507Y-125610499D01*
X117653394Y-125572767D01*
X117981954Y-125497776D01*
X118300051Y-125386469D01*
X118603686Y-125240246D01*
X118889039Y-125060946D01*
X119152523Y-124850825D01*
X119390825Y-124612523D01*
X119600946Y-124349039D01*
X119780246Y-124063686D01*
X119867744Y-123881995D01*
X125299500Y-123881995D01*
X125299500Y-124118004D01*
X125299501Y-124118020D01*
X125330306Y-124352010D01*
X125391394Y-124579993D01*
X125481714Y-124798045D01*
X125481719Y-124798056D01*
X125512186Y-124850825D01*
X125599727Y-125002450D01*
X125599729Y-125002453D01*
X125599730Y-125002454D01*
X125743406Y-125189697D01*
X125743412Y-125189704D01*
X125910295Y-125356587D01*
X125910302Y-125356593D01*
X126020306Y-125441001D01*
X126097550Y-125500273D01*
X126223112Y-125572766D01*
X126301943Y-125618280D01*
X126301948Y-125618282D01*
X126301951Y-125618284D01*
X126520007Y-125708606D01*
X126747986Y-125769693D01*
X126981989Y-125800500D01*
X126981996Y-125800500D01*
X127218004Y-125800500D01*
X127218011Y-125800500D01*
X127452014Y-125769693D01*
X127679993Y-125708606D01*
X127898049Y-125618284D01*
X128102450Y-125500273D01*
X128289699Y-125356592D01*
X128456592Y-125189699D01*
X128600273Y-125002450D01*
X128718284Y-124798049D01*
X128808606Y-124579993D01*
X128869693Y-124352014D01*
X128900500Y-124118011D01*
X128900500Y-123881995D01*
X137999500Y-123881995D01*
X137999500Y-124118004D01*
X137999501Y-124118020D01*
X138030306Y-124352010D01*
X138091394Y-124579993D01*
X138181714Y-124798045D01*
X138181719Y-124798056D01*
X138212186Y-124850825D01*
X138299727Y-125002450D01*
X138299729Y-125002453D01*
X138299730Y-125002454D01*
X138443406Y-125189697D01*
X138443412Y-125189704D01*
X138610295Y-125356587D01*
X138610302Y-125356593D01*
X138720306Y-125441001D01*
X138797550Y-125500273D01*
X138923112Y-125572766D01*
X139001943Y-125618280D01*
X139001948Y-125618282D01*
X139001951Y-125618284D01*
X139220007Y-125708606D01*
X139447986Y-125769693D01*
X139681989Y-125800500D01*
X139681996Y-125800500D01*
X139918004Y-125800500D01*
X139918011Y-125800500D01*
X140152014Y-125769693D01*
X140379993Y-125708606D01*
X140598049Y-125618284D01*
X140802450Y-125500273D01*
X140989699Y-125356592D01*
X141156592Y-125189699D01*
X141300273Y-125002450D01*
X141418284Y-124798049D01*
X141508606Y-124579993D01*
X141569693Y-124352014D01*
X141600500Y-124118011D01*
X141600500Y-123881989D01*
X141569693Y-123647986D01*
X141508606Y-123420007D01*
X141418284Y-123201951D01*
X141418282Y-123201948D01*
X141418280Y-123201943D01*
X141367157Y-123113397D01*
X141300273Y-122997550D01*
X141156592Y-122810301D01*
X141156587Y-122810295D01*
X140989704Y-122643412D01*
X140989697Y-122643406D01*
X140802454Y-122499730D01*
X140802453Y-122499729D01*
X140802450Y-122499727D01*
X140701586Y-122441493D01*
X140598056Y-122381719D01*
X140598045Y-122381714D01*
X140379993Y-122291394D01*
X140334772Y-122279277D01*
X140152014Y-122230307D01*
X140152013Y-122230306D01*
X140152010Y-122230306D01*
X139918020Y-122199501D01*
X139918017Y-122199500D01*
X139918011Y-122199500D01*
X139681989Y-122199500D01*
X139681983Y-122199500D01*
X139681979Y-122199501D01*
X139447989Y-122230306D01*
X139220006Y-122291394D01*
X139001954Y-122381714D01*
X139001943Y-122381719D01*
X138797545Y-122499730D01*
X138610302Y-122643406D01*
X138610295Y-122643412D01*
X138443412Y-122810295D01*
X138443406Y-122810302D01*
X138299730Y-122997545D01*
X138181719Y-123201943D01*
X138181714Y-123201954D01*
X138091394Y-123420006D01*
X138030306Y-123647989D01*
X137999501Y-123881979D01*
X137999500Y-123881995D01*
X128900500Y-123881995D01*
X128900500Y-123881989D01*
X128869693Y-123647986D01*
X128808606Y-123420007D01*
X128718284Y-123201951D01*
X128718282Y-123201948D01*
X128718280Y-123201943D01*
X128667157Y-123113397D01*
X128600273Y-122997550D01*
X128456592Y-122810301D01*
X128456587Y-122810295D01*
X128289704Y-122643412D01*
X128289697Y-122643406D01*
X128102454Y-122499730D01*
X128102453Y-122499729D01*
X128102450Y-122499727D01*
X128001586Y-122441493D01*
X127898056Y-122381719D01*
X127898045Y-122381714D01*
X127679993Y-122291394D01*
X127634772Y-122279277D01*
X127452014Y-122230307D01*
X127452013Y-122230306D01*
X127452010Y-122230306D01*
X127218020Y-122199501D01*
X127218017Y-122199500D01*
X127218011Y-122199500D01*
X126981989Y-122199500D01*
X126981983Y-122199500D01*
X126981979Y-122199501D01*
X126747989Y-122230306D01*
X126520006Y-122291394D01*
X126301954Y-122381714D01*
X126301943Y-122381719D01*
X126097545Y-122499730D01*
X125910302Y-122643406D01*
X125910295Y-122643412D01*
X125743412Y-122810295D01*
X125743406Y-122810302D01*
X125599730Y-122997545D01*
X125481719Y-123201943D01*
X125481714Y-123201954D01*
X125391394Y-123420006D01*
X125330306Y-123647989D01*
X125299501Y-123881979D01*
X125299500Y-123881995D01*
X119867744Y-123881995D01*
X119926469Y-123760051D01*
X120037776Y-123441954D01*
X120112767Y-123113394D01*
X120150500Y-122778504D01*
X120150500Y-122441496D01*
X120112767Y-122106606D01*
X120037776Y-121778046D01*
X120037770Y-121778030D01*
X119977568Y-121605981D01*
X119926469Y-121459949D01*
X119854392Y-121310279D01*
X119780247Y-121156315D01*
X119695904Y-121022085D01*
X119600946Y-120870961D01*
X119390825Y-120607477D01*
X119241940Y-120458592D01*
X123904500Y-120458592D01*
X123904500Y-120681407D01*
X123934523Y-120870962D01*
X123939354Y-120901464D01*
X124008205Y-121113363D01*
X124109356Y-121311884D01*
X124240317Y-121492136D01*
X124397864Y-121649683D01*
X124578116Y-121780644D01*
X124776637Y-121881795D01*
X124988536Y-121950646D01*
X125071059Y-121963716D01*
X125208593Y-121985500D01*
X125208598Y-121985500D01*
X125431407Y-121985500D01*
X125553658Y-121966136D01*
X125651464Y-121950646D01*
X125863363Y-121881795D01*
X126061884Y-121780644D01*
X126242136Y-121649683D01*
X126399683Y-121492136D01*
X126530644Y-121311884D01*
X126631795Y-121113363D01*
X126700646Y-120901464D01*
X126716136Y-120803658D01*
X126735500Y-120681407D01*
X126735500Y-120458592D01*
X126705524Y-120269334D01*
X126700646Y-120238536D01*
X126631795Y-120026637D01*
X126530644Y-119828116D01*
X126405403Y-119655737D01*
X126405403Y-119655736D01*
X126399687Y-119647870D01*
X126399683Y-119647864D01*
X126340759Y-119588940D01*
X128969500Y-119588940D01*
X128969500Y-119771059D01*
X129005026Y-119949659D01*
X129005028Y-119949667D01*
X129074717Y-120117912D01*
X129074722Y-120117921D01*
X129175893Y-120269333D01*
X129175896Y-120269337D01*
X129304662Y-120398103D01*
X129304666Y-120398106D01*
X129456078Y-120499277D01*
X129456084Y-120499280D01*
X129456085Y-120499281D01*
X129624333Y-120568972D01*
X129747966Y-120593564D01*
X129802940Y-120604499D01*
X129802944Y-120604500D01*
X129802945Y-120604500D01*
X129985056Y-120604500D01*
X129985057Y-120604499D01*
X130060154Y-120589562D01*
X130169642Y-120567784D01*
X130169876Y-120568960D01*
X130233382Y-120568388D01*
X130292498Y-120605631D01*
X130322095Y-120668922D01*
X130312775Y-120738167D01*
X130287203Y-120775356D01*
X130191893Y-120870666D01*
X130090722Y-121022078D01*
X130090717Y-121022087D01*
X130021028Y-121190332D01*
X130021026Y-121190340D01*
X129985500Y-121368940D01*
X129985500Y-121551059D01*
X130021026Y-121729659D01*
X130021028Y-121729667D01*
X130090717Y-121897912D01*
X130090722Y-121897921D01*
X130191893Y-122049333D01*
X130191896Y-122049337D01*
X130320662Y-122178103D01*
X130320666Y-122178106D01*
X130472078Y-122279277D01*
X130472084Y-122279280D01*
X130472085Y-122279281D01*
X130640333Y-122348972D01*
X130760462Y-122372867D01*
X130818940Y-122384499D01*
X130818944Y-122384500D01*
X130818945Y-122384500D01*
X131001056Y-122384500D01*
X131001057Y-122384499D01*
X131179667Y-122348972D01*
X131347915Y-122279281D01*
X131499334Y-122178106D01*
X131628106Y-122049334D01*
X131729281Y-121897915D01*
X131798972Y-121729667D01*
X131804383Y-121702466D01*
X131836767Y-121640555D01*
X131897483Y-121605981D01*
X131967253Y-121609720D01*
X132023925Y-121650586D01*
X132047617Y-121702466D01*
X132053026Y-121729659D01*
X132053028Y-121729667D01*
X132122717Y-121897912D01*
X132122722Y-121897921D01*
X132223893Y-122049333D01*
X132223896Y-122049337D01*
X132352662Y-122178103D01*
X132352666Y-122178106D01*
X132504078Y-122279277D01*
X132504084Y-122279280D01*
X132504085Y-122279281D01*
X132672333Y-122348972D01*
X132792462Y-122372867D01*
X132850940Y-122384499D01*
X132850944Y-122384500D01*
X132850945Y-122384500D01*
X133033056Y-122384500D01*
X133033057Y-122384499D01*
X133211667Y-122348972D01*
X133379915Y-122279281D01*
X133531334Y-122178106D01*
X133660106Y-122049334D01*
X133761281Y-121897915D01*
X133830972Y-121729667D01*
X133836383Y-121702466D01*
X133868767Y-121640555D01*
X133929483Y-121605981D01*
X133999253Y-121609720D01*
X134055925Y-121650586D01*
X134079617Y-121702466D01*
X134085026Y-121729659D01*
X134085028Y-121729667D01*
X134154717Y-121897912D01*
X134154722Y-121897921D01*
X134255893Y-122049333D01*
X134255896Y-122049337D01*
X134384662Y-122178103D01*
X134384666Y-122178106D01*
X134536078Y-122279277D01*
X134536084Y-122279280D01*
X134536085Y-122279281D01*
X134704333Y-122348972D01*
X134824462Y-122372867D01*
X134882940Y-122384499D01*
X134882944Y-122384500D01*
X134882945Y-122384500D01*
X135065056Y-122384500D01*
X135065057Y-122384499D01*
X135243667Y-122348972D01*
X135411915Y-122279281D01*
X135563334Y-122178106D01*
X135692106Y-122049334D01*
X135793281Y-121897915D01*
X135842939Y-121778029D01*
X135886780Y-121723627D01*
X135953074Y-121701562D01*
X136020773Y-121718841D01*
X136068384Y-121769978D01*
X136081500Y-121825483D01*
X136081500Y-122203752D01*
X136093131Y-122262229D01*
X136093132Y-122262230D01*
X136137447Y-122328552D01*
X136203769Y-122372867D01*
X136203770Y-122372868D01*
X136262247Y-122384499D01*
X136262250Y-122384500D01*
X136262252Y-122384500D01*
X137749750Y-122384500D01*
X137749751Y-122384499D01*
X137764568Y-122381552D01*
X137808229Y-122372868D01*
X137808229Y-122372867D01*
X137808231Y-122372867D01*
X137874552Y-122328552D01*
X137918867Y-122262231D01*
X137918867Y-122262229D01*
X137918868Y-122262229D01*
X137930499Y-122203752D01*
X137930500Y-122203750D01*
X137930500Y-120716249D01*
X137930499Y-120716247D01*
X137918868Y-120657770D01*
X137918867Y-120657769D01*
X137874552Y-120591447D01*
X137822741Y-120556828D01*
X137808230Y-120547132D01*
X137808229Y-120547131D01*
X137749752Y-120535500D01*
X137749748Y-120535500D01*
X136741303Y-120535500D01*
X136674264Y-120515815D01*
X136628509Y-120463011D01*
X136627874Y-120458592D01*
X140164500Y-120458592D01*
X140164500Y-120681407D01*
X140194523Y-120870962D01*
X140199354Y-120901464D01*
X140268205Y-121113363D01*
X140369356Y-121311884D01*
X140500317Y-121492136D01*
X140657864Y-121649683D01*
X140838116Y-121780644D01*
X141036637Y-121881795D01*
X141248536Y-121950646D01*
X141331059Y-121963716D01*
X141468593Y-121985500D01*
X141468598Y-121985500D01*
X141691407Y-121985500D01*
X141813658Y-121966136D01*
X141911464Y-121950646D01*
X142123363Y-121881795D01*
X142321884Y-121780644D01*
X142502136Y-121649683D01*
X142659683Y-121492136D01*
X142790644Y-121311884D01*
X142891795Y-121113363D01*
X142960646Y-120901464D01*
X142976136Y-120803658D01*
X142995500Y-120681407D01*
X142995500Y-120458592D01*
X142965524Y-120269334D01*
X142960646Y-120238536D01*
X142891795Y-120026637D01*
X142790644Y-119828116D01*
X142659683Y-119647864D01*
X142502136Y-119490317D01*
X142321884Y-119359356D01*
X142123363Y-119258205D01*
X141911464Y-119189354D01*
X141911462Y-119189353D01*
X141911460Y-119189353D01*
X141691407Y-119154500D01*
X141691402Y-119154500D01*
X141468598Y-119154500D01*
X141468593Y-119154500D01*
X141248539Y-119189353D01*
X141248536Y-119189354D01*
X141086243Y-119242087D01*
X141036634Y-119258206D01*
X140838115Y-119359356D01*
X140735275Y-119434074D01*
X140657864Y-119490317D01*
X140657862Y-119490319D01*
X140657861Y-119490319D01*
X140500319Y-119647861D01*
X140500319Y-119647862D01*
X140500317Y-119647864D01*
X140446292Y-119722223D01*
X140369356Y-119828115D01*
X140268206Y-120026634D01*
X140199353Y-120238539D01*
X140164500Y-120458592D01*
X136627874Y-120458592D01*
X136618565Y-120393853D01*
X136647590Y-120330297D01*
X136653622Y-120323819D01*
X136708103Y-120269337D01*
X136708106Y-120269334D01*
X136809281Y-120117915D01*
X136878972Y-119949667D01*
X136914500Y-119771055D01*
X136914500Y-119588945D01*
X136878972Y-119410333D01*
X136809281Y-119242085D01*
X136809280Y-119242084D01*
X136809277Y-119242078D01*
X136708106Y-119090666D01*
X136708103Y-119090662D01*
X136579337Y-118961896D01*
X136579333Y-118961893D01*
X136427921Y-118860722D01*
X136427912Y-118860717D01*
X136259667Y-118791028D01*
X136259659Y-118791026D01*
X136081059Y-118755500D01*
X136081055Y-118755500D01*
X135898945Y-118755500D01*
X135898940Y-118755500D01*
X135720340Y-118791026D01*
X135720332Y-118791028D01*
X135552087Y-118860717D01*
X135552078Y-118860722D01*
X135400666Y-118961893D01*
X135400662Y-118961896D01*
X135271896Y-119090662D01*
X135271893Y-119090666D01*
X135170722Y-119242078D01*
X135170717Y-119242087D01*
X135101028Y-119410332D01*
X135101026Y-119410340D01*
X135095617Y-119437533D01*
X135063232Y-119499444D01*
X135002516Y-119534019D01*
X134932747Y-119530279D01*
X134876075Y-119489412D01*
X134852383Y-119437533D01*
X134846973Y-119410340D01*
X134846972Y-119410333D01*
X134777281Y-119242085D01*
X134777280Y-119242084D01*
X134777277Y-119242078D01*
X134676106Y-119090666D01*
X134676103Y-119090662D01*
X134547337Y-118961896D01*
X134547333Y-118961893D01*
X134395921Y-118860722D01*
X134395912Y-118860717D01*
X134227667Y-118791028D01*
X134227659Y-118791026D01*
X134049059Y-118755500D01*
X134049055Y-118755500D01*
X133866945Y-118755500D01*
X133866940Y-118755500D01*
X133688340Y-118791026D01*
X133688332Y-118791028D01*
X133520087Y-118860717D01*
X133520078Y-118860722D01*
X133368666Y-118961893D01*
X133368662Y-118961896D01*
X133239896Y-119090662D01*
X133239893Y-119090666D01*
X133138722Y-119242078D01*
X133138717Y-119242087D01*
X133069028Y-119410332D01*
X133069026Y-119410340D01*
X133063617Y-119437533D01*
X133031232Y-119499444D01*
X132970516Y-119534019D01*
X132900747Y-119530279D01*
X132844075Y-119489412D01*
X132820383Y-119437533D01*
X132814973Y-119410340D01*
X132814972Y-119410333D01*
X132745281Y-119242085D01*
X132745280Y-119242084D01*
X132745277Y-119242078D01*
X132644106Y-119090666D01*
X132644103Y-119090662D01*
X132515337Y-118961896D01*
X132515333Y-118961893D01*
X132363921Y-118860722D01*
X132363912Y-118860717D01*
X132195667Y-118791028D01*
X132195659Y-118791026D01*
X132017059Y-118755500D01*
X132017055Y-118755500D01*
X131834945Y-118755500D01*
X131834940Y-118755500D01*
X131656340Y-118791026D01*
X131656332Y-118791028D01*
X131488087Y-118860717D01*
X131488078Y-118860722D01*
X131336666Y-118961893D01*
X131336662Y-118961896D01*
X131207896Y-119090662D01*
X131207893Y-119090666D01*
X131106722Y-119242078D01*
X131106717Y-119242087D01*
X131037028Y-119410332D01*
X131037026Y-119410340D01*
X131031617Y-119437533D01*
X130999232Y-119499444D01*
X130938516Y-119534019D01*
X130868747Y-119530279D01*
X130812075Y-119489412D01*
X130788383Y-119437533D01*
X130782973Y-119410340D01*
X130782972Y-119410333D01*
X130713281Y-119242085D01*
X130713280Y-119242084D01*
X130713277Y-119242078D01*
X130612106Y-119090666D01*
X130612103Y-119090662D01*
X130483337Y-118961896D01*
X130483333Y-118961893D01*
X130331921Y-118860722D01*
X130331912Y-118860717D01*
X130163667Y-118791028D01*
X130163659Y-118791026D01*
X129985059Y-118755500D01*
X129985055Y-118755500D01*
X129802945Y-118755500D01*
X129802940Y-118755500D01*
X129624340Y-118791026D01*
X129624332Y-118791028D01*
X129456087Y-118860717D01*
X129456078Y-118860722D01*
X129304666Y-118961893D01*
X129304662Y-118961896D01*
X129175896Y-119090662D01*
X129175893Y-119090666D01*
X129074722Y-119242078D01*
X129074717Y-119242087D01*
X129005028Y-119410332D01*
X129005026Y-119410340D01*
X128969500Y-119588940D01*
X126340759Y-119588940D01*
X126242136Y-119490317D01*
X126061884Y-119359356D01*
X125863363Y-119258205D01*
X125651464Y-119189354D01*
X125651462Y-119189353D01*
X125651460Y-119189353D01*
X125431407Y-119154500D01*
X125431402Y-119154500D01*
X125208598Y-119154500D01*
X125208593Y-119154500D01*
X124988539Y-119189353D01*
X124988536Y-119189354D01*
X124826243Y-119242087D01*
X124776634Y-119258206D01*
X124578115Y-119359356D01*
X124475275Y-119434074D01*
X124397864Y-119490317D01*
X124397862Y-119490319D01*
X124397861Y-119490319D01*
X124240319Y-119647861D01*
X124240319Y-119647862D01*
X124240317Y-119647864D01*
X124186292Y-119722223D01*
X124109356Y-119828115D01*
X124008206Y-120026634D01*
X123939353Y-120238539D01*
X123904500Y-120458592D01*
X119241940Y-120458592D01*
X119152523Y-120369175D01*
X118889039Y-120159054D01*
X118603686Y-119979754D01*
X118603683Y-119979752D01*
X118300054Y-119833532D01*
X117981965Y-119722227D01*
X117981953Y-119722223D01*
X117653397Y-119647233D01*
X117653381Y-119647231D01*
X117318508Y-119609500D01*
X117318504Y-119609500D01*
X116981496Y-119609500D01*
X116981491Y-119609500D01*
X116646618Y-119647231D01*
X116646602Y-119647233D01*
X116318046Y-119722223D01*
X116318034Y-119722227D01*
X115999945Y-119833532D01*
X115696316Y-119979752D01*
X115410962Y-120159053D01*
X115147477Y-120369174D01*
X114909174Y-120607477D01*
X114699053Y-120870962D01*
X114519753Y-121156315D01*
X114373532Y-121459945D01*
X114262227Y-121778034D01*
X114262223Y-121778046D01*
X114187233Y-122106602D01*
X114187231Y-122106618D01*
X114149500Y-122441491D01*
X113400500Y-122441491D01*
X113400500Y-116544108D01*
X143249500Y-116544108D01*
X143249500Y-116675891D01*
X143283608Y-116803187D01*
X143316554Y-116860250D01*
X143349500Y-116917314D01*
X143442686Y-117010500D01*
X143556814Y-117076392D01*
X143684108Y-117110500D01*
X143684110Y-117110500D01*
X143815890Y-117110500D01*
X143815892Y-117110500D01*
X143943186Y-117076392D01*
X144057314Y-117010500D01*
X144150500Y-116917314D01*
X144216392Y-116803186D01*
X144250500Y-116675892D01*
X144250500Y-116544108D01*
X144216392Y-116416814D01*
X144150500Y-116302686D01*
X144057314Y-116209500D01*
X144000250Y-116176554D01*
X143943187Y-116143608D01*
X143879539Y-116126554D01*
X143815892Y-116109500D01*
X143684108Y-116109500D01*
X143556812Y-116143608D01*
X143442686Y-116209500D01*
X143442683Y-116209502D01*
X143349502Y-116302683D01*
X143349500Y-116302686D01*
X143283608Y-116416812D01*
X143249500Y-116544108D01*
X113400500Y-116544108D01*
X113400500Y-110144108D01*
X131849500Y-110144108D01*
X131849500Y-110275891D01*
X131883608Y-110403187D01*
X131916554Y-110460250D01*
X131949500Y-110517314D01*
X132042686Y-110610500D01*
X132156814Y-110676392D01*
X132284108Y-110710500D01*
X132284110Y-110710500D01*
X132415890Y-110710500D01*
X132415892Y-110710500D01*
X132543186Y-110676392D01*
X132657314Y-110610500D01*
X132750500Y-110517314D01*
X132816392Y-110403186D01*
X132850500Y-110275892D01*
X132850500Y-110144108D01*
X132816392Y-110016814D01*
X132750500Y-109902686D01*
X132657314Y-109809500D01*
X132600250Y-109776554D01*
X132543187Y-109743608D01*
X132479539Y-109726554D01*
X132415892Y-109709500D01*
X132284108Y-109709500D01*
X132156812Y-109743608D01*
X132042686Y-109809500D01*
X132042683Y-109809502D01*
X131949502Y-109902683D01*
X131949500Y-109902686D01*
X131883608Y-110016812D01*
X131849500Y-110144108D01*
X113400500Y-110144108D01*
X113400500Y-108444108D01*
X125949500Y-108444108D01*
X125949500Y-108575891D01*
X125983608Y-108703187D01*
X126016554Y-108760250D01*
X126049500Y-108817314D01*
X126142686Y-108910500D01*
X126256814Y-108976392D01*
X126384108Y-109010500D01*
X126384110Y-109010500D01*
X126515890Y-109010500D01*
X126515892Y-109010500D01*
X126643186Y-108976392D01*
X126757314Y-108910500D01*
X126850500Y-108817314D01*
X126916392Y-108703186D01*
X126950500Y-108575892D01*
X126950500Y-108444108D01*
X126916392Y-108316814D01*
X126850500Y-108202686D01*
X126757314Y-108109500D01*
X126700250Y-108076554D01*
X126643187Y-108043608D01*
X126579539Y-108026554D01*
X126515892Y-108009500D01*
X126384108Y-108009500D01*
X126256812Y-108043608D01*
X126142686Y-108109500D01*
X126142683Y-108109502D01*
X126049502Y-108202683D01*
X126049500Y-108202686D01*
X125983608Y-108316812D01*
X125949500Y-108444108D01*
X113400500Y-108444108D01*
X113400500Y-106181302D01*
X139946000Y-106181302D01*
X139946000Y-106378697D01*
X139976876Y-106573646D01*
X140037873Y-106761373D01*
X140127483Y-106937239D01*
X140153457Y-106972988D01*
X140153457Y-106972989D01*
X140717037Y-106409408D01*
X140734075Y-106472993D01*
X140799901Y-106587007D01*
X140892993Y-106680099D01*
X141007007Y-106745925D01*
X141070590Y-106762962D01*
X140507009Y-107326541D01*
X140507010Y-107326542D01*
X140542755Y-107352512D01*
X140542768Y-107352520D01*
X140718626Y-107442126D01*
X140906353Y-107503123D01*
X141101303Y-107534000D01*
X141298697Y-107534000D01*
X141493646Y-107503123D01*
X141681373Y-107442126D01*
X141857241Y-107352516D01*
X141892988Y-107326543D01*
X141892988Y-107326541D01*
X141329410Y-106762962D01*
X141392993Y-106745925D01*
X141507007Y-106680099D01*
X141600099Y-106587007D01*
X141665925Y-106472993D01*
X141682962Y-106409409D01*
X142246541Y-106972988D01*
X142246543Y-106972988D01*
X142272516Y-106937241D01*
X142362126Y-106761373D01*
X142423123Y-106573646D01*
X142454000Y-106378697D01*
X142454000Y-106181302D01*
X142423123Y-105986353D01*
X142362126Y-105798626D01*
X142272520Y-105622768D01*
X142272512Y-105622755D01*
X142246542Y-105587010D01*
X142246541Y-105587009D01*
X141682962Y-106150589D01*
X141665925Y-106087007D01*
X141600099Y-105972993D01*
X141507007Y-105879901D01*
X141392993Y-105814075D01*
X141329409Y-105797037D01*
X141892989Y-105233457D01*
X141857239Y-105207483D01*
X141681373Y-105117873D01*
X141493646Y-105056876D01*
X141298697Y-105026000D01*
X141101303Y-105026000D01*
X140906353Y-105056876D01*
X140718626Y-105117873D01*
X140542762Y-105207482D01*
X140542760Y-105207483D01*
X140507010Y-105233456D01*
X140507010Y-105233457D01*
X141070591Y-105797037D01*
X141007007Y-105814075D01*
X140892993Y-105879901D01*
X140799901Y-105972993D01*
X140734075Y-106087007D01*
X140717037Y-106150590D01*
X140153457Y-105587010D01*
X140153456Y-105587010D01*
X140127483Y-105622760D01*
X140127482Y-105622762D01*
X140037873Y-105798626D01*
X139976876Y-105986353D01*
X139946000Y-106181302D01*
X113400500Y-106181302D01*
X113400500Y-103634108D01*
X137499500Y-103634108D01*
X137499500Y-103765891D01*
X137533608Y-103893187D01*
X137566554Y-103950250D01*
X137599500Y-104007314D01*
X137692686Y-104100500D01*
X137806814Y-104166392D01*
X137934108Y-104200500D01*
X137934110Y-104200500D01*
X138065890Y-104200500D01*
X138065892Y-104200500D01*
X138193186Y-104166392D01*
X138307314Y-104100500D01*
X138400500Y-104007314D01*
X138466392Y-103893186D01*
X138500500Y-103765892D01*
X138500500Y-103634108D01*
X138466392Y-103506814D01*
X138400500Y-103392686D01*
X138307314Y-103299500D01*
X138250250Y-103266554D01*
X138193187Y-103233608D01*
X138129539Y-103216554D01*
X138065892Y-103199500D01*
X137934108Y-103199500D01*
X137806812Y-103233608D01*
X137692686Y-103299500D01*
X137692683Y-103299502D01*
X137599502Y-103392683D01*
X137599500Y-103392686D01*
X137533608Y-103506812D01*
X137499500Y-103634108D01*
X113400500Y-103634108D01*
X113400500Y-102734000D01*
X113420185Y-102666961D01*
X113472989Y-102621206D01*
X113524500Y-102610000D01*
X140810443Y-102610000D01*
X140877482Y-102629685D01*
G37*
%TD.AperFunction*%
%TD*%
%TA.AperFunction,Conductor*%
%TO.N,+5V_CAN1*%
G36*
X171849978Y-102629685D02*
G01*
X171895733Y-102682489D01*
X171905677Y-102751647D01*
X171876652Y-102815203D01*
X171857029Y-102833211D01*
X171857010Y-102833457D01*
X172420591Y-103397037D01*
X172357007Y-103414075D01*
X172242993Y-103479901D01*
X172149901Y-103572993D01*
X172084075Y-103687007D01*
X172067037Y-103750590D01*
X171503457Y-103187010D01*
X171503456Y-103187010D01*
X171477483Y-103222760D01*
X171477482Y-103222762D01*
X171387873Y-103398626D01*
X171326876Y-103586353D01*
X171296000Y-103781302D01*
X171296000Y-103978697D01*
X171326876Y-104173646D01*
X171387873Y-104361373D01*
X171477483Y-104537239D01*
X171503457Y-104572988D01*
X171503457Y-104572989D01*
X172067037Y-104009408D01*
X172084075Y-104072993D01*
X172149901Y-104187007D01*
X172242993Y-104280099D01*
X172357007Y-104345925D01*
X172420590Y-104362962D01*
X171857009Y-104926541D01*
X171857010Y-104926542D01*
X171892755Y-104952512D01*
X171892768Y-104952520D01*
X172068626Y-105042126D01*
X172256353Y-105103123D01*
X172451303Y-105134000D01*
X172648697Y-105134000D01*
X172682949Y-105128575D01*
X184300000Y-105128575D01*
X184300000Y-105351424D01*
X184329085Y-105572354D01*
X184329088Y-105572367D01*
X184386763Y-105787618D01*
X184472045Y-105993502D01*
X184472054Y-105993520D01*
X184583464Y-106186491D01*
X184583473Y-106186504D01*
X184634040Y-106252403D01*
X184634043Y-106252403D01*
X185284152Y-105602293D01*
X185291049Y-105618942D01*
X185378599Y-105749970D01*
X185490030Y-105861401D01*
X185621058Y-105948951D01*
X185637705Y-105955846D01*
X184987595Y-106605955D01*
X184987595Y-106605956D01*
X185053507Y-106656533D01*
X185246485Y-106767949D01*
X185246497Y-106767954D01*
X185452381Y-106853236D01*
X185667632Y-106910911D01*
X185667645Y-106910914D01*
X185888575Y-106940000D01*
X186111425Y-106940000D01*
X186332354Y-106910914D01*
X186332367Y-106910911D01*
X186547618Y-106853236D01*
X186753502Y-106767954D01*
X186753514Y-106767949D01*
X186946498Y-106656530D01*
X187012403Y-106605957D01*
X187012404Y-106605956D01*
X186362294Y-105955846D01*
X186378942Y-105948951D01*
X186509970Y-105861401D01*
X186621401Y-105749970D01*
X186708951Y-105618942D01*
X186715846Y-105602294D01*
X187365956Y-106252404D01*
X187365957Y-106252403D01*
X187416530Y-106186498D01*
X187527949Y-105993514D01*
X187527954Y-105993502D01*
X187613236Y-105787618D01*
X187670911Y-105572367D01*
X187670914Y-105572354D01*
X187700000Y-105351424D01*
X187700000Y-105128575D01*
X187670914Y-104907645D01*
X187670911Y-104907632D01*
X187613236Y-104692381D01*
X187527954Y-104486497D01*
X187527949Y-104486485D01*
X187416533Y-104293507D01*
X187365956Y-104227595D01*
X187365955Y-104227595D01*
X186715846Y-104877704D01*
X186708951Y-104861058D01*
X186621401Y-104730030D01*
X186509970Y-104618599D01*
X186378942Y-104531049D01*
X186362293Y-104524152D01*
X187012403Y-103874043D01*
X187012403Y-103874040D01*
X186946504Y-103823473D01*
X186946491Y-103823464D01*
X186753520Y-103712054D01*
X186753502Y-103712045D01*
X186547618Y-103626763D01*
X186332367Y-103569088D01*
X186332354Y-103569085D01*
X186111425Y-103540000D01*
X185888575Y-103540000D01*
X185667645Y-103569085D01*
X185667632Y-103569088D01*
X185452381Y-103626763D01*
X185246497Y-103712045D01*
X185246479Y-103712054D01*
X185053511Y-103823462D01*
X184987595Y-103874042D01*
X185637706Y-104524152D01*
X185621058Y-104531049D01*
X185490030Y-104618599D01*
X185378599Y-104730030D01*
X185291049Y-104861058D01*
X185284153Y-104877706D01*
X184634042Y-104227595D01*
X184583462Y-104293511D01*
X184472054Y-104486479D01*
X184472045Y-104486497D01*
X184386763Y-104692381D01*
X184329088Y-104907632D01*
X184329085Y-104907645D01*
X184300000Y-105128575D01*
X172682949Y-105128575D01*
X172843646Y-105103123D01*
X173031373Y-105042126D01*
X173086510Y-105014032D01*
X173207241Y-104952516D01*
X173242988Y-104926543D01*
X173242988Y-104926541D01*
X172679410Y-104362962D01*
X172742993Y-104345925D01*
X172857007Y-104280099D01*
X172950099Y-104187007D01*
X173015925Y-104072993D01*
X173032962Y-104009409D01*
X173596541Y-104572988D01*
X173596543Y-104572988D01*
X173622516Y-104537241D01*
X173712126Y-104361373D01*
X173773123Y-104173646D01*
X173804000Y-103978697D01*
X173804000Y-103781302D01*
X173773123Y-103586353D01*
X173712126Y-103398626D01*
X173622520Y-103222768D01*
X173622512Y-103222755D01*
X173596542Y-103187010D01*
X173596541Y-103187009D01*
X173032962Y-103750589D01*
X173015925Y-103687007D01*
X172950099Y-103572993D01*
X172857007Y-103479901D01*
X172742993Y-103414075D01*
X172679409Y-103397037D01*
X173242989Y-102833457D01*
X173242929Y-102832704D01*
X173201509Y-102778987D01*
X173195530Y-102709374D01*
X173228136Y-102647579D01*
X173288975Y-102613222D01*
X173317060Y-102610000D01*
X192775500Y-102610000D01*
X192842539Y-102629685D01*
X192888294Y-102682489D01*
X192899500Y-102734000D01*
X192899500Y-122606948D01*
X192899351Y-122613033D01*
X192881743Y-122971432D01*
X192880550Y-122983542D01*
X192828347Y-123335467D01*
X192825973Y-123347402D01*
X192739526Y-123692518D01*
X192735994Y-123704162D01*
X192616142Y-124039127D01*
X192611485Y-124050370D01*
X192459366Y-124372000D01*
X192453629Y-124382732D01*
X192270729Y-124687881D01*
X192263969Y-124697999D01*
X192052028Y-124983769D01*
X192044308Y-124993175D01*
X191805388Y-125256783D01*
X191796783Y-125265388D01*
X191533175Y-125504308D01*
X191523769Y-125512028D01*
X191237999Y-125723969D01*
X191227881Y-125730729D01*
X190922732Y-125913629D01*
X190912000Y-125919366D01*
X190590370Y-126071485D01*
X190579134Y-126076139D01*
X190455442Y-126120397D01*
X190244162Y-126195994D01*
X190232518Y-126199526D01*
X189887402Y-126285973D01*
X189875467Y-126288347D01*
X189523542Y-126340550D01*
X189511432Y-126341743D01*
X189173927Y-126358324D01*
X189153031Y-126359351D01*
X189146949Y-126359500D01*
X150274000Y-126359500D01*
X150206961Y-126339815D01*
X150161206Y-126287011D01*
X150150000Y-126235500D01*
X150150000Y-122441491D01*
X186149500Y-122441491D01*
X186149500Y-122778508D01*
X186187231Y-123113381D01*
X186187233Y-123113397D01*
X186262223Y-123441953D01*
X186262227Y-123441965D01*
X186373532Y-123760054D01*
X186519752Y-124063683D01*
X186519754Y-124063686D01*
X186699054Y-124349039D01*
X186909175Y-124612523D01*
X187147477Y-124850825D01*
X187410961Y-125060946D01*
X187696314Y-125240246D01*
X187999949Y-125386469D01*
X188238848Y-125470063D01*
X188318034Y-125497772D01*
X188318046Y-125497776D01*
X188646606Y-125572767D01*
X188981492Y-125610499D01*
X188981493Y-125610500D01*
X188981496Y-125610500D01*
X189318507Y-125610500D01*
X189318507Y-125610499D01*
X189653394Y-125572767D01*
X189981954Y-125497776D01*
X190300051Y-125386469D01*
X190603686Y-125240246D01*
X190889039Y-125060946D01*
X191152523Y-124850825D01*
X191390825Y-124612523D01*
X191600946Y-124349039D01*
X191780246Y-124063686D01*
X191926469Y-123760051D01*
X192037776Y-123441954D01*
X192112767Y-123113394D01*
X192150500Y-122778504D01*
X192150500Y-122441496D01*
X192112767Y-122106606D01*
X192037776Y-121778046D01*
X191926469Y-121459949D01*
X191780246Y-121156314D01*
X191600946Y-120870961D01*
X191390825Y-120607477D01*
X191152523Y-120369175D01*
X190889039Y-120159054D01*
X190603686Y-119979754D01*
X190603683Y-119979752D01*
X190300054Y-119833532D01*
X189981965Y-119722227D01*
X189981953Y-119722223D01*
X189653397Y-119647233D01*
X189653381Y-119647231D01*
X189318508Y-119609500D01*
X189318504Y-119609500D01*
X188981496Y-119609500D01*
X188981491Y-119609500D01*
X188646618Y-119647231D01*
X188646602Y-119647233D01*
X188318046Y-119722223D01*
X188318034Y-119722227D01*
X187999945Y-119833532D01*
X187696316Y-119979752D01*
X187410962Y-120159053D01*
X187147477Y-120369174D01*
X186909174Y-120607477D01*
X186699053Y-120870962D01*
X186519752Y-121156316D01*
X186373532Y-121459945D01*
X186262227Y-121778034D01*
X186262223Y-121778046D01*
X186187233Y-122106602D01*
X186187231Y-122106618D01*
X186149500Y-122441491D01*
X150150000Y-122441491D01*
X150150000Y-119420730D01*
X154649500Y-119420730D01*
X154649500Y-120979269D01*
X154652353Y-121009699D01*
X154652353Y-121009701D01*
X154697206Y-121137880D01*
X154697207Y-121137882D01*
X154777850Y-121247150D01*
X154887118Y-121327793D01*
X154908089Y-121335131D01*
X155015299Y-121372646D01*
X155045730Y-121375500D01*
X155045734Y-121375500D01*
X156354270Y-121375500D01*
X156384699Y-121372646D01*
X156384701Y-121372646D01*
X156448790Y-121350219D01*
X156512882Y-121327793D01*
X156622150Y-121247150D01*
X156702793Y-121137882D01*
X156739648Y-121032557D01*
X156747646Y-121009701D01*
X156747646Y-121009699D01*
X156750500Y-120979269D01*
X156750500Y-119971530D01*
X157149500Y-119971530D01*
X157149500Y-120428469D01*
X157189868Y-120631412D01*
X157189870Y-120631420D01*
X157207921Y-120675000D01*
X157269059Y-120822598D01*
X157282836Y-120843217D01*
X157384024Y-120994657D01*
X157530342Y-121140975D01*
X157530345Y-121140977D01*
X157702402Y-121255941D01*
X157893580Y-121335130D01*
X158082187Y-121372646D01*
X158096530Y-121375499D01*
X158096534Y-121375500D01*
X158096535Y-121375500D01*
X158303466Y-121375500D01*
X158303467Y-121375499D01*
X158506420Y-121335130D01*
X158697598Y-121255941D01*
X158869655Y-121140977D01*
X159015977Y-120994655D01*
X159130941Y-120822598D01*
X159210130Y-120631420D01*
X159250500Y-120428465D01*
X159250500Y-119971535D01*
X159250499Y-119971530D01*
X159649500Y-119971530D01*
X159649500Y-120428469D01*
X159689868Y-120631412D01*
X159689870Y-120631420D01*
X159707921Y-120675000D01*
X159769059Y-120822598D01*
X159782836Y-120843217D01*
X159884024Y-120994657D01*
X160030342Y-121140975D01*
X160030345Y-121140977D01*
X160202402Y-121255941D01*
X160393580Y-121335130D01*
X160582187Y-121372646D01*
X160596530Y-121375499D01*
X160596534Y-121375500D01*
X160596535Y-121375500D01*
X160803466Y-121375500D01*
X160803467Y-121375499D01*
X161006420Y-121335130D01*
X161197598Y-121255941D01*
X161369655Y-121140977D01*
X161515977Y-120994655D01*
X161630941Y-120822598D01*
X161676748Y-120712009D01*
X161720589Y-120657606D01*
X161786883Y-120635541D01*
X161854582Y-120652820D01*
X161902193Y-120703957D01*
X161909240Y-120721144D01*
X161948904Y-120843216D01*
X162045379Y-121032557D01*
X162170272Y-121204459D01*
X162170276Y-121204464D01*
X162320535Y-121354723D01*
X162320540Y-121354727D01*
X162492442Y-121479620D01*
X162681782Y-121576095D01*
X162883871Y-121641757D01*
X162950000Y-121652231D01*
X162950000Y-120604145D01*
X163016657Y-120642630D01*
X163137465Y-120675000D01*
X163262535Y-120675000D01*
X163383343Y-120642630D01*
X163450000Y-120604145D01*
X163450000Y-121652230D01*
X163516126Y-121641757D01*
X163516129Y-121641757D01*
X163718217Y-121576095D01*
X163907557Y-121479620D01*
X164079459Y-121354727D01*
X164079464Y-121354723D01*
X164229723Y-121204464D01*
X164229727Y-121204459D01*
X164354620Y-121032557D01*
X164451095Y-120843217D01*
X164516757Y-120641130D01*
X164516757Y-120641127D01*
X164547030Y-120450000D01*
X163604146Y-120450000D01*
X163642630Y-120383343D01*
X163675000Y-120262535D01*
X163675000Y-120137465D01*
X163642630Y-120016657D01*
X163604146Y-119950000D01*
X164547030Y-119950000D01*
X164516757Y-119758872D01*
X164516757Y-119758869D01*
X164451095Y-119556782D01*
X164408982Y-119474130D01*
X164408981Y-119474128D01*
X164381773Y-119420730D01*
X170249500Y-119420730D01*
X170249500Y-120979269D01*
X170252353Y-121009699D01*
X170252353Y-121009701D01*
X170297206Y-121137880D01*
X170297207Y-121137882D01*
X170377850Y-121247150D01*
X170487118Y-121327793D01*
X170508089Y-121335131D01*
X170615299Y-121372646D01*
X170645730Y-121375500D01*
X170645734Y-121375500D01*
X171954270Y-121375500D01*
X171984699Y-121372646D01*
X171984701Y-121372646D01*
X172048790Y-121350219D01*
X172112882Y-121327793D01*
X172222150Y-121247150D01*
X172302793Y-121137882D01*
X172339648Y-121032557D01*
X172347646Y-121009701D01*
X172347646Y-121009699D01*
X172350500Y-120979269D01*
X172350500Y-119971530D01*
X172749500Y-119971530D01*
X172749500Y-120428469D01*
X172789868Y-120631412D01*
X172789870Y-120631420D01*
X172807921Y-120675000D01*
X172869059Y-120822598D01*
X172882836Y-120843217D01*
X172984024Y-120994657D01*
X173130342Y-121140975D01*
X173130345Y-121140977D01*
X173302402Y-121255941D01*
X173493580Y-121335130D01*
X173682187Y-121372646D01*
X173696530Y-121375499D01*
X173696534Y-121375500D01*
X173696535Y-121375500D01*
X173903466Y-121375500D01*
X173903467Y-121375499D01*
X174106420Y-121335130D01*
X174297598Y-121255941D01*
X174469655Y-121140977D01*
X174615977Y-120994655D01*
X174730941Y-120822598D01*
X174810130Y-120631420D01*
X174850500Y-120428465D01*
X174850500Y-119971535D01*
X174850499Y-119971530D01*
X175249500Y-119971530D01*
X175249500Y-120428469D01*
X175289868Y-120631412D01*
X175289870Y-120631420D01*
X175307921Y-120675000D01*
X175369059Y-120822598D01*
X175382836Y-120843217D01*
X175484024Y-120994657D01*
X175630342Y-121140975D01*
X175630345Y-121140977D01*
X175802402Y-121255941D01*
X175993580Y-121335130D01*
X176182187Y-121372646D01*
X176196530Y-121375499D01*
X176196534Y-121375500D01*
X176196535Y-121375500D01*
X176403466Y-121375500D01*
X176403467Y-121375499D01*
X176606420Y-121335130D01*
X176797598Y-121255941D01*
X176969655Y-121140977D01*
X177115977Y-120994655D01*
X177230941Y-120822598D01*
X177276748Y-120712009D01*
X177320589Y-120657606D01*
X177386883Y-120635541D01*
X177454582Y-120652820D01*
X177502193Y-120703957D01*
X177509240Y-120721144D01*
X177548904Y-120843216D01*
X177645379Y-121032557D01*
X177770272Y-121204459D01*
X177770276Y-121204464D01*
X177920535Y-121354723D01*
X177920540Y-121354727D01*
X178092442Y-121479620D01*
X178281782Y-121576095D01*
X178483871Y-121641757D01*
X178550000Y-121652231D01*
X178550000Y-120604145D01*
X178616657Y-120642630D01*
X178737465Y-120675000D01*
X178862535Y-120675000D01*
X178983343Y-120642630D01*
X179050000Y-120604145D01*
X179050000Y-121652230D01*
X179116126Y-121641757D01*
X179116129Y-121641757D01*
X179318217Y-121576095D01*
X179507557Y-121479620D01*
X179679459Y-121354727D01*
X179679464Y-121354723D01*
X179829723Y-121204464D01*
X179829727Y-121204459D01*
X179954620Y-121032557D01*
X180051095Y-120843217D01*
X180116757Y-120641130D01*
X180116757Y-120641127D01*
X180147030Y-120450000D01*
X179204146Y-120450000D01*
X179242630Y-120383343D01*
X179275000Y-120262535D01*
X179275000Y-120137465D01*
X179242630Y-120016657D01*
X179204146Y-119950000D01*
X180147030Y-119950000D01*
X180116757Y-119758872D01*
X180116757Y-119758869D01*
X180051095Y-119556782D01*
X179954620Y-119367442D01*
X179829727Y-119195540D01*
X179829723Y-119195535D01*
X179679464Y-119045276D01*
X179679459Y-119045272D01*
X179507557Y-118920379D01*
X179318215Y-118823903D01*
X179116124Y-118758241D01*
X179050000Y-118747768D01*
X179050000Y-119795854D01*
X178983343Y-119757370D01*
X178862535Y-119725000D01*
X178737465Y-119725000D01*
X178616657Y-119757370D01*
X178550000Y-119795854D01*
X178550000Y-118747768D01*
X178549999Y-118747768D01*
X178483875Y-118758241D01*
X178281784Y-118823903D01*
X178092442Y-118920379D01*
X177920540Y-119045272D01*
X177920535Y-119045276D01*
X177770276Y-119195535D01*
X177770272Y-119195540D01*
X177645379Y-119367442D01*
X177548905Y-119556781D01*
X177509240Y-119678856D01*
X177469802Y-119736531D01*
X177405443Y-119763729D01*
X177336597Y-119751814D01*
X177285121Y-119704570D01*
X177276748Y-119687990D01*
X177259865Y-119647231D01*
X177230941Y-119577402D01*
X177115977Y-119405345D01*
X177115975Y-119405342D01*
X176969657Y-119259024D01*
X176874638Y-119195535D01*
X176797598Y-119144059D01*
X176606420Y-119064870D01*
X176606412Y-119064868D01*
X176403469Y-119024500D01*
X176403465Y-119024500D01*
X176196535Y-119024500D01*
X176196530Y-119024500D01*
X175993587Y-119064868D01*
X175993579Y-119064870D01*
X175802403Y-119144058D01*
X175630342Y-119259024D01*
X175484024Y-119405342D01*
X175369058Y-119577403D01*
X175289870Y-119768579D01*
X175289868Y-119768587D01*
X175249500Y-119971530D01*
X174850499Y-119971530D01*
X174810130Y-119768580D01*
X174730941Y-119577402D01*
X174615977Y-119405345D01*
X174615975Y-119405342D01*
X174469657Y-119259024D01*
X174374638Y-119195535D01*
X174297598Y-119144059D01*
X174106420Y-119064870D01*
X174106412Y-119064868D01*
X173903469Y-119024500D01*
X173903465Y-119024500D01*
X173696535Y-119024500D01*
X173696530Y-119024500D01*
X173493587Y-119064868D01*
X173493579Y-119064870D01*
X173302403Y-119144058D01*
X173130342Y-119259024D01*
X172984024Y-119405342D01*
X172869058Y-119577403D01*
X172789870Y-119768579D01*
X172789868Y-119768587D01*
X172749500Y-119971530D01*
X172350500Y-119971530D01*
X172350500Y-119420730D01*
X172347646Y-119390300D01*
X172347646Y-119390298D01*
X172302793Y-119262119D01*
X172302792Y-119262117D01*
X172222150Y-119152850D01*
X172112882Y-119072207D01*
X172112880Y-119072206D01*
X171984700Y-119027353D01*
X171954270Y-119024500D01*
X171954266Y-119024500D01*
X170645734Y-119024500D01*
X170645730Y-119024500D01*
X170615300Y-119027353D01*
X170615298Y-119027353D01*
X170487119Y-119072206D01*
X170487117Y-119072207D01*
X170377850Y-119152850D01*
X170297207Y-119262117D01*
X170297206Y-119262119D01*
X170252353Y-119390298D01*
X170252353Y-119390300D01*
X170249500Y-119420730D01*
X164381773Y-119420730D01*
X164354622Y-119367444D01*
X164229727Y-119195540D01*
X164229723Y-119195535D01*
X164079464Y-119045276D01*
X164079459Y-119045272D01*
X163907557Y-118920379D01*
X163718215Y-118823903D01*
X163516124Y-118758241D01*
X163450000Y-118747768D01*
X163450000Y-119795854D01*
X163383343Y-119757370D01*
X163262535Y-119725000D01*
X163137465Y-119725000D01*
X163016657Y-119757370D01*
X162950000Y-119795854D01*
X162950000Y-118747768D01*
X162949999Y-118747768D01*
X162883875Y-118758241D01*
X162681784Y-118823903D01*
X162492442Y-118920379D01*
X162320540Y-119045272D01*
X162320535Y-119045276D01*
X162170276Y-119195535D01*
X162170272Y-119195540D01*
X162045379Y-119367442D01*
X161948905Y-119556781D01*
X161909240Y-119678856D01*
X161869802Y-119736531D01*
X161805443Y-119763729D01*
X161736597Y-119751814D01*
X161685121Y-119704570D01*
X161676748Y-119687990D01*
X161659865Y-119647231D01*
X161630941Y-119577402D01*
X161515977Y-119405345D01*
X161515975Y-119405342D01*
X161369657Y-119259024D01*
X161274638Y-119195535D01*
X161197598Y-119144059D01*
X161006420Y-119064870D01*
X161006412Y-119064868D01*
X160803469Y-119024500D01*
X160803465Y-119024500D01*
X160596535Y-119024500D01*
X160596530Y-119024500D01*
X160393587Y-119064868D01*
X160393579Y-119064870D01*
X160202403Y-119144058D01*
X160030342Y-119259024D01*
X159884024Y-119405342D01*
X159769058Y-119577403D01*
X159689870Y-119768579D01*
X159689868Y-119768587D01*
X159649500Y-119971530D01*
X159250499Y-119971530D01*
X159210130Y-119768580D01*
X159130941Y-119577402D01*
X159015977Y-119405345D01*
X159015975Y-119405342D01*
X158869657Y-119259024D01*
X158774638Y-119195535D01*
X158697598Y-119144059D01*
X158506420Y-119064870D01*
X158506412Y-119064868D01*
X158303469Y-119024500D01*
X158303465Y-119024500D01*
X158096535Y-119024500D01*
X158096530Y-119024500D01*
X157893587Y-119064868D01*
X157893579Y-119064870D01*
X157702403Y-119144058D01*
X157530342Y-119259024D01*
X157384024Y-119405342D01*
X157269058Y-119577403D01*
X157189870Y-119768579D01*
X157189868Y-119768587D01*
X157149500Y-119971530D01*
X156750500Y-119971530D01*
X156750500Y-119420730D01*
X156747646Y-119390300D01*
X156747646Y-119390298D01*
X156702793Y-119262119D01*
X156702792Y-119262117D01*
X156622150Y-119152850D01*
X156512882Y-119072207D01*
X156512880Y-119072206D01*
X156384700Y-119027353D01*
X156354270Y-119024500D01*
X156354266Y-119024500D01*
X155045734Y-119024500D01*
X155045730Y-119024500D01*
X155015300Y-119027353D01*
X155015298Y-119027353D01*
X154887119Y-119072206D01*
X154887117Y-119072207D01*
X154777850Y-119152850D01*
X154697207Y-119262117D01*
X154697206Y-119262119D01*
X154652353Y-119390298D01*
X154652353Y-119390300D01*
X154649500Y-119420730D01*
X150150000Y-119420730D01*
X150150000Y-116744108D01*
X183949500Y-116744108D01*
X183949500Y-116875891D01*
X183983608Y-117003187D01*
X184016554Y-117060250D01*
X184049500Y-117117314D01*
X184142686Y-117210500D01*
X184256814Y-117276392D01*
X184384108Y-117310500D01*
X184384110Y-117310500D01*
X184515890Y-117310500D01*
X184515892Y-117310500D01*
X184643186Y-117276392D01*
X184757314Y-117210500D01*
X184850500Y-117117314D01*
X184916392Y-117003186D01*
X184950500Y-116875892D01*
X184950500Y-116744108D01*
X184916392Y-116616814D01*
X184850500Y-116502686D01*
X184757314Y-116409500D01*
X184700250Y-116376554D01*
X184643187Y-116343608D01*
X184579539Y-116326554D01*
X184515892Y-116309500D01*
X184384108Y-116309500D01*
X184256812Y-116343608D01*
X184142686Y-116409500D01*
X184142683Y-116409502D01*
X184049502Y-116502683D01*
X184049500Y-116502686D01*
X183983608Y-116616812D01*
X183949500Y-116744108D01*
X150150000Y-116744108D01*
X150150000Y-110344108D01*
X161549500Y-110344108D01*
X161549500Y-110475891D01*
X161583608Y-110603187D01*
X161616554Y-110660250D01*
X161649500Y-110717314D01*
X161742686Y-110810500D01*
X161856814Y-110876392D01*
X161984108Y-110910500D01*
X161984110Y-110910500D01*
X162115890Y-110910500D01*
X162115892Y-110910500D01*
X162243186Y-110876392D01*
X162357314Y-110810500D01*
X162450500Y-110717314D01*
X162516392Y-110603186D01*
X162550500Y-110475892D01*
X162550500Y-110344108D01*
X162516392Y-110216814D01*
X162450500Y-110102686D01*
X162357314Y-110009500D01*
X162300250Y-109976554D01*
X162243187Y-109943608D01*
X162179539Y-109926554D01*
X162115892Y-109909500D01*
X161984108Y-109909500D01*
X161856812Y-109943608D01*
X161742686Y-110009500D01*
X161742683Y-110009502D01*
X161649502Y-110102683D01*
X161649500Y-110102686D01*
X161583608Y-110216812D01*
X161549500Y-110344108D01*
X150150000Y-110344108D01*
X150150000Y-108744108D01*
X155749500Y-108744108D01*
X155749500Y-108875891D01*
X155783608Y-109003187D01*
X155816554Y-109060250D01*
X155849500Y-109117314D01*
X155942686Y-109210500D01*
X156056814Y-109276392D01*
X156184108Y-109310500D01*
X156184110Y-109310500D01*
X156315890Y-109310500D01*
X156315892Y-109310500D01*
X156443186Y-109276392D01*
X156557314Y-109210500D01*
X156650500Y-109117314D01*
X156716392Y-109003186D01*
X156750500Y-108875892D01*
X156750500Y-108744108D01*
X156716392Y-108616814D01*
X156650500Y-108502686D01*
X156557314Y-108409500D01*
X156500250Y-108376554D01*
X156443187Y-108343608D01*
X156379539Y-108326554D01*
X156315892Y-108309500D01*
X156184108Y-108309500D01*
X156056812Y-108343608D01*
X155942686Y-108409500D01*
X155942683Y-108409502D01*
X155849502Y-108502683D01*
X155849500Y-108502686D01*
X155783608Y-108616812D01*
X155749500Y-108744108D01*
X150150000Y-108744108D01*
X150150000Y-105646247D01*
X171595500Y-105646247D01*
X171595500Y-107193752D01*
X171607131Y-107252229D01*
X171607132Y-107252230D01*
X171651447Y-107318552D01*
X171717769Y-107362867D01*
X171717770Y-107362868D01*
X171776247Y-107374499D01*
X171776250Y-107374500D01*
X171776252Y-107374500D01*
X173323750Y-107374500D01*
X173323751Y-107374499D01*
X173338568Y-107371552D01*
X173382229Y-107362868D01*
X173382229Y-107362867D01*
X173382231Y-107362867D01*
X173448552Y-107318552D01*
X173492867Y-107252231D01*
X173492867Y-107252229D01*
X173492868Y-107252229D01*
X173504499Y-107193752D01*
X173504500Y-107193750D01*
X173504500Y-106134108D01*
X175399500Y-106134108D01*
X175399500Y-106265891D01*
X175433608Y-106393187D01*
X175466554Y-106450250D01*
X175499500Y-106507314D01*
X175592686Y-106600500D01*
X175706814Y-106666392D01*
X175834108Y-106700500D01*
X175834110Y-106700500D01*
X175965890Y-106700500D01*
X175965892Y-106700500D01*
X176093186Y-106666392D01*
X176207314Y-106600500D01*
X176300500Y-106507314D01*
X176366392Y-106393186D01*
X176400500Y-106265892D01*
X176400500Y-106134108D01*
X176366392Y-106006814D01*
X176300500Y-105892686D01*
X176207314Y-105799500D01*
X176121526Y-105749970D01*
X176093187Y-105733608D01*
X176029539Y-105716554D01*
X175965892Y-105699500D01*
X175834108Y-105699500D01*
X175706812Y-105733608D01*
X175592686Y-105799500D01*
X175592683Y-105799502D01*
X175499502Y-105892683D01*
X175499500Y-105892686D01*
X175433608Y-106006812D01*
X175399500Y-106134108D01*
X173504500Y-106134108D01*
X173504500Y-105646249D01*
X173504499Y-105646247D01*
X173492868Y-105587770D01*
X173492867Y-105587769D01*
X173448552Y-105521447D01*
X173382230Y-105477132D01*
X173382229Y-105477131D01*
X173323752Y-105465500D01*
X173323748Y-105465500D01*
X171776252Y-105465500D01*
X171776247Y-105465500D01*
X171717770Y-105477131D01*
X171717769Y-105477132D01*
X171651447Y-105521447D01*
X171607132Y-105587769D01*
X171607131Y-105587770D01*
X171595500Y-105646247D01*
X150150000Y-105646247D01*
X150150000Y-102734000D01*
X150169685Y-102666961D01*
X150222489Y-102621206D01*
X150274000Y-102610000D01*
X171782939Y-102610000D01*
X171849978Y-102629685D01*
G37*
%TD.AperFunction*%
%TD*%
%TA.AperFunction,Conductor*%
%TO.N,+3V3*%
G36*
X153103039Y-46880185D02*
G01*
X153148794Y-46932989D01*
X153160000Y-46984500D01*
X153160000Y-52610000D01*
X172560000Y-52610000D01*
X172560000Y-51134108D01*
X178649500Y-51134108D01*
X178649500Y-51265891D01*
X178683608Y-51393187D01*
X178706200Y-51432316D01*
X178749500Y-51507314D01*
X178842686Y-51600500D01*
X178956814Y-51666392D01*
X179084108Y-51700500D01*
X179084110Y-51700500D01*
X179215890Y-51700500D01*
X179215892Y-51700500D01*
X179343186Y-51666392D01*
X179457314Y-51600500D01*
X179550500Y-51507314D01*
X179616392Y-51393186D01*
X179650500Y-51265892D01*
X179650500Y-51134108D01*
X179616392Y-51006814D01*
X179550500Y-50892686D01*
X179457314Y-50799500D01*
X179394093Y-50762999D01*
X179343187Y-50733608D01*
X179279539Y-50716554D01*
X179215892Y-50699500D01*
X179084108Y-50699500D01*
X178956812Y-50733608D01*
X178842686Y-50799500D01*
X178842683Y-50799502D01*
X178749502Y-50892683D01*
X178749500Y-50892686D01*
X178683608Y-51006812D01*
X178649500Y-51134108D01*
X172560000Y-51134108D01*
X172560000Y-50196608D01*
X182449500Y-50196608D01*
X182449500Y-50328391D01*
X182483608Y-50455687D01*
X182516554Y-50512750D01*
X182549500Y-50569814D01*
X182642686Y-50663000D01*
X182756814Y-50728892D01*
X182884108Y-50763000D01*
X182884110Y-50763000D01*
X183015890Y-50763000D01*
X183015892Y-50763000D01*
X183143186Y-50728892D01*
X183257314Y-50663000D01*
X183350500Y-50569814D01*
X183416392Y-50455686D01*
X183420196Y-50441491D01*
X186149500Y-50441491D01*
X186149500Y-50778508D01*
X186187231Y-51113381D01*
X186187233Y-51113397D01*
X186262223Y-51441953D01*
X186262227Y-51441965D01*
X186373532Y-51760054D01*
X186519752Y-52063683D01*
X186566498Y-52138079D01*
X186699054Y-52349039D01*
X186787937Y-52460495D01*
X186898789Y-52599500D01*
X186909175Y-52612523D01*
X187147477Y-52850825D01*
X187410961Y-53060946D01*
X187696314Y-53240246D01*
X187999949Y-53386469D01*
X188238848Y-53470063D01*
X188318034Y-53497772D01*
X188318046Y-53497776D01*
X188646606Y-53572767D01*
X188981492Y-53610499D01*
X188981493Y-53610500D01*
X188981496Y-53610500D01*
X189318507Y-53610500D01*
X189318507Y-53610499D01*
X189653394Y-53572767D01*
X189981954Y-53497776D01*
X190300051Y-53386469D01*
X190603686Y-53240246D01*
X190889039Y-53060946D01*
X191152523Y-52850825D01*
X191390825Y-52612523D01*
X191600946Y-52349039D01*
X191780246Y-52063686D01*
X191926469Y-51760051D01*
X192037776Y-51441954D01*
X192112767Y-51113394D01*
X192150500Y-50778504D01*
X192150500Y-50441496D01*
X192112767Y-50106606D01*
X192037776Y-49778046D01*
X191926469Y-49459949D01*
X191780246Y-49156314D01*
X191600946Y-48870961D01*
X191390825Y-48607477D01*
X191152523Y-48369175D01*
X190889039Y-48159054D01*
X190603686Y-47979754D01*
X190603683Y-47979752D01*
X190300054Y-47833532D01*
X189981965Y-47722227D01*
X189981953Y-47722223D01*
X189653397Y-47647233D01*
X189653381Y-47647231D01*
X189318508Y-47609500D01*
X189318504Y-47609500D01*
X188981496Y-47609500D01*
X188981491Y-47609500D01*
X188646618Y-47647231D01*
X188646602Y-47647233D01*
X188318046Y-47722223D01*
X188318034Y-47722227D01*
X187999945Y-47833532D01*
X187696316Y-47979752D01*
X187410962Y-48159053D01*
X187147477Y-48369174D01*
X186909174Y-48607477D01*
X186699053Y-48870962D01*
X186519752Y-49156316D01*
X186373532Y-49459945D01*
X186262227Y-49778034D01*
X186262223Y-49778046D01*
X186187233Y-50106602D01*
X186187231Y-50106618D01*
X186149500Y-50441491D01*
X183420196Y-50441491D01*
X183450500Y-50328392D01*
X183450500Y-50196608D01*
X183416392Y-50069314D01*
X183350500Y-49955186D01*
X183257314Y-49862000D01*
X183177451Y-49815891D01*
X183143187Y-49796108D01*
X183075732Y-49778034D01*
X183015892Y-49762000D01*
X182884108Y-49762000D01*
X182756812Y-49796108D01*
X182642686Y-49862000D01*
X182642683Y-49862002D01*
X182549502Y-49955183D01*
X182549500Y-49955186D01*
X182483608Y-50069312D01*
X182449500Y-50196608D01*
X172560000Y-50196608D01*
X172560000Y-46984500D01*
X172579685Y-46917461D01*
X172632489Y-46871706D01*
X172684000Y-46860500D01*
X189105830Y-46860500D01*
X189146949Y-46860500D01*
X189153032Y-46860648D01*
X189511433Y-46878256D01*
X189523541Y-46879448D01*
X189875475Y-46931653D01*
X189887389Y-46934023D01*
X190232520Y-47020473D01*
X190244147Y-47024000D01*
X190579151Y-47143867D01*
X190590363Y-47148511D01*
X190912012Y-47300639D01*
X190922720Y-47306363D01*
X191227881Y-47489270D01*
X191237996Y-47496028D01*
X191523769Y-47707971D01*
X191533175Y-47715691D01*
X191796790Y-47954618D01*
X191805381Y-47963209D01*
X191820375Y-47979752D01*
X192044308Y-48226824D01*
X192052028Y-48236230D01*
X192263969Y-48522000D01*
X192270729Y-48532118D01*
X192453629Y-48837267D01*
X192459364Y-48847995D01*
X192470460Y-48871455D01*
X192611485Y-49169629D01*
X192616136Y-49180858D01*
X192729476Y-49497620D01*
X192735994Y-49515837D01*
X192739526Y-49527481D01*
X192825973Y-49872597D01*
X192828347Y-49884532D01*
X192880550Y-50236457D01*
X192881743Y-50248567D01*
X192899351Y-50606966D01*
X192899500Y-50613051D01*
X192899500Y-94486000D01*
X192879815Y-94553039D01*
X192827011Y-94598794D01*
X192775500Y-94610000D01*
X179150000Y-94610000D01*
X179150000Y-101436000D01*
X179130315Y-101503039D01*
X179077511Y-101548794D01*
X179026000Y-101560000D01*
X173628500Y-101560000D01*
X173561461Y-101540315D01*
X173515706Y-101487511D01*
X173504500Y-101436000D01*
X173504500Y-101245987D01*
X173504499Y-101245985D01*
X173476652Y-101105990D01*
X173467819Y-101061583D01*
X173445340Y-101007313D01*
X173395870Y-100887881D01*
X173395863Y-100887868D01*
X173291408Y-100731542D01*
X173291405Y-100731538D01*
X173193975Y-100634108D01*
X175399500Y-100634108D01*
X175399500Y-100765891D01*
X175433608Y-100893187D01*
X175450000Y-100921578D01*
X175499500Y-101007314D01*
X175592686Y-101100500D01*
X175706814Y-101166392D01*
X175834108Y-101200500D01*
X175834110Y-101200500D01*
X175965890Y-101200500D01*
X175965892Y-101200500D01*
X176093186Y-101166392D01*
X176207314Y-101100500D01*
X176300500Y-101007314D01*
X176366392Y-100893186D01*
X176400500Y-100765892D01*
X176400500Y-100634108D01*
X176366392Y-100506814D01*
X176300500Y-100392686D01*
X176207314Y-100299500D01*
X176150250Y-100266554D01*
X176093187Y-100233608D01*
X176006941Y-100210499D01*
X175965892Y-100199500D01*
X175834108Y-100199500D01*
X175706812Y-100233608D01*
X175592686Y-100299500D01*
X175592683Y-100299502D01*
X175499502Y-100392683D01*
X175499500Y-100392686D01*
X175433608Y-100506812D01*
X175399500Y-100634108D01*
X173193975Y-100634108D01*
X173158461Y-100598594D01*
X173158457Y-100598591D01*
X173002131Y-100494136D01*
X173002118Y-100494129D01*
X172828421Y-100422182D01*
X172828409Y-100422179D01*
X172644013Y-100385500D01*
X172644010Y-100385500D01*
X172455990Y-100385500D01*
X172455987Y-100385500D01*
X172271590Y-100422179D01*
X172271578Y-100422182D01*
X172097881Y-100494129D01*
X172097868Y-100494136D01*
X171941542Y-100598591D01*
X171941538Y-100598594D01*
X171808594Y-100731538D01*
X171808591Y-100731542D01*
X171704136Y-100887868D01*
X171704129Y-100887881D01*
X171632182Y-101061578D01*
X171632179Y-101061590D01*
X171595500Y-101245985D01*
X171595500Y-101436000D01*
X171575815Y-101503039D01*
X171523011Y-101548794D01*
X171471500Y-101560000D01*
X142252686Y-101560000D01*
X142185647Y-101540315D01*
X142139892Y-101487511D01*
X142129948Y-101418353D01*
X142131069Y-101411809D01*
X142154499Y-101294014D01*
X142154500Y-101294012D01*
X142154500Y-101105987D01*
X142154499Y-101105985D01*
X142153407Y-101100497D01*
X142117819Y-100921583D01*
X142053330Y-100765892D01*
X142045870Y-100747881D01*
X142045863Y-100747868D01*
X141941408Y-100591542D01*
X141941405Y-100591538D01*
X141808461Y-100458594D01*
X141808457Y-100458591D01*
X141652131Y-100354136D01*
X141652118Y-100354129D01*
X141478421Y-100282182D01*
X141478409Y-100282179D01*
X141294013Y-100245500D01*
X141294010Y-100245500D01*
X141105990Y-100245500D01*
X141105987Y-100245500D01*
X140921590Y-100282179D01*
X140921578Y-100282182D01*
X140747881Y-100354129D01*
X140747868Y-100354136D01*
X140591542Y-100458591D01*
X140591538Y-100458594D01*
X140458594Y-100591538D01*
X140458591Y-100591542D01*
X140354136Y-100747868D01*
X140354129Y-100747881D01*
X140282182Y-100921578D01*
X140282179Y-100921590D01*
X140245500Y-101105985D01*
X140245500Y-101294014D01*
X140268931Y-101411809D01*
X140262704Y-101481400D01*
X140219841Y-101536578D01*
X140153951Y-101559822D01*
X140147314Y-101560000D01*
X113524500Y-101560000D01*
X113457461Y-101540315D01*
X113411706Y-101487511D01*
X113400500Y-101436000D01*
X113400500Y-99534108D01*
X125999500Y-99534108D01*
X125999500Y-99665891D01*
X126033608Y-99793187D01*
X126066554Y-99850250D01*
X126099500Y-99907314D01*
X126192686Y-100000500D01*
X126306814Y-100066392D01*
X126434108Y-100100500D01*
X126434110Y-100100500D01*
X126565890Y-100100500D01*
X126565892Y-100100500D01*
X126693186Y-100066392D01*
X126807314Y-100000500D01*
X126900500Y-99907314D01*
X126966392Y-99793186D01*
X127000500Y-99665892D01*
X127000500Y-99644108D01*
X155749500Y-99644108D01*
X155749500Y-99775891D01*
X155783608Y-99903187D01*
X155785991Y-99907314D01*
X155849500Y-100017314D01*
X155942686Y-100110500D01*
X156056814Y-100176392D01*
X156184108Y-100210500D01*
X156184110Y-100210500D01*
X156315890Y-100210500D01*
X156315892Y-100210500D01*
X156443186Y-100176392D01*
X156557314Y-100110500D01*
X156650500Y-100017314D01*
X156716392Y-99903186D01*
X156750500Y-99775892D01*
X156750500Y-99644108D01*
X156716392Y-99516814D01*
X156650500Y-99402686D01*
X156557314Y-99309500D01*
X156500250Y-99276554D01*
X156443187Y-99243608D01*
X156379539Y-99226554D01*
X156315892Y-99209500D01*
X156184108Y-99209500D01*
X156056812Y-99243608D01*
X155942686Y-99309500D01*
X155942683Y-99309502D01*
X155849502Y-99402683D01*
X155849500Y-99402686D01*
X155783608Y-99516812D01*
X155749500Y-99644108D01*
X127000500Y-99644108D01*
X127000500Y-99534108D01*
X126966392Y-99406814D01*
X126900500Y-99292686D01*
X126807314Y-99199500D01*
X126750250Y-99166554D01*
X126693187Y-99133608D01*
X126629539Y-99116554D01*
X126565892Y-99099500D01*
X126434108Y-99099500D01*
X126306812Y-99133608D01*
X126192686Y-99199500D01*
X126192683Y-99199502D01*
X126099502Y-99292683D01*
X126099500Y-99292686D01*
X126033608Y-99406812D01*
X125999500Y-99534108D01*
X113400500Y-99534108D01*
X113400500Y-97634108D01*
X138199500Y-97634108D01*
X138199500Y-97765891D01*
X138233608Y-97893187D01*
X138266554Y-97950250D01*
X138299500Y-98007314D01*
X138392686Y-98100500D01*
X138506814Y-98166392D01*
X138634108Y-98200500D01*
X138634110Y-98200500D01*
X138765890Y-98200500D01*
X138765892Y-98200500D01*
X138893186Y-98166392D01*
X139007314Y-98100500D01*
X139100500Y-98007314D01*
X139166392Y-97893186D01*
X139168251Y-97886247D01*
X140245500Y-97886247D01*
X140245500Y-99433752D01*
X140257131Y-99492229D01*
X140257132Y-99492230D01*
X140301447Y-99558552D01*
X140367769Y-99602867D01*
X140367770Y-99602868D01*
X140426247Y-99614499D01*
X140426250Y-99614500D01*
X140426252Y-99614500D01*
X141973750Y-99614500D01*
X141973751Y-99614499D01*
X141988568Y-99611552D01*
X142032229Y-99602868D01*
X142032229Y-99602867D01*
X142032231Y-99602867D01*
X142098552Y-99558552D01*
X142142867Y-99492231D01*
X142154500Y-99433748D01*
X142154500Y-98705985D01*
X171595500Y-98705985D01*
X171595500Y-98894014D01*
X171632179Y-99078409D01*
X171632182Y-99078421D01*
X171704129Y-99252118D01*
X171704136Y-99252131D01*
X171808591Y-99408457D01*
X171808594Y-99408461D01*
X171941538Y-99541405D01*
X171941542Y-99541408D01*
X172097868Y-99645863D01*
X172097881Y-99645870D01*
X172271578Y-99717817D01*
X172271583Y-99717819D01*
X172455985Y-99754499D01*
X172455988Y-99754500D01*
X172455990Y-99754500D01*
X172644012Y-99754500D01*
X172644013Y-99754499D01*
X172828417Y-99717819D01*
X173002125Y-99645867D01*
X173158458Y-99541408D01*
X173291408Y-99408458D01*
X173395867Y-99252125D01*
X173467819Y-99078417D01*
X173504500Y-98894010D01*
X173504500Y-98705990D01*
X173504500Y-98705987D01*
X173504499Y-98705985D01*
X173467820Y-98521590D01*
X173467819Y-98521583D01*
X173467817Y-98521578D01*
X173395870Y-98347881D01*
X173395863Y-98347868D01*
X173291408Y-98191542D01*
X173291405Y-98191538D01*
X173158461Y-98058594D01*
X173158457Y-98058591D01*
X173002131Y-97954136D01*
X173002118Y-97954129D01*
X172828421Y-97882182D01*
X172828409Y-97882179D01*
X172644013Y-97845500D01*
X172644010Y-97845500D01*
X172455990Y-97845500D01*
X172455987Y-97845500D01*
X172271590Y-97882179D01*
X172271578Y-97882182D01*
X172097881Y-97954129D01*
X172097868Y-97954136D01*
X171941542Y-98058591D01*
X171941538Y-98058594D01*
X171808594Y-98191538D01*
X171808591Y-98191542D01*
X171704136Y-98347868D01*
X171704129Y-98347881D01*
X171632182Y-98521578D01*
X171632179Y-98521590D01*
X171595500Y-98705985D01*
X142154500Y-98705985D01*
X142154500Y-97886252D01*
X142154500Y-97886249D01*
X142154499Y-97886247D01*
X142142868Y-97827770D01*
X142142867Y-97827769D01*
X142098552Y-97761447D01*
X142032230Y-97717132D01*
X142032229Y-97717131D01*
X141973752Y-97705500D01*
X141973748Y-97705500D01*
X140426252Y-97705500D01*
X140426247Y-97705500D01*
X140367770Y-97717131D01*
X140367769Y-97717132D01*
X140301447Y-97761447D01*
X140257132Y-97827769D01*
X140257131Y-97827770D01*
X140245500Y-97886247D01*
X139168251Y-97886247D01*
X139200500Y-97765892D01*
X139200500Y-97634108D01*
X139166392Y-97506814D01*
X139100500Y-97392686D01*
X139007314Y-97299500D01*
X138950250Y-97266554D01*
X138893187Y-97233608D01*
X138829539Y-97216554D01*
X138765892Y-97199500D01*
X138634108Y-97199500D01*
X138506812Y-97233608D01*
X138392686Y-97299500D01*
X138392683Y-97299502D01*
X138299502Y-97392683D01*
X138299500Y-97392686D01*
X138233608Y-97506812D01*
X138199500Y-97634108D01*
X113400500Y-97634108D01*
X113400500Y-96234108D01*
X125999500Y-96234108D01*
X125999500Y-96365891D01*
X126033608Y-96493187D01*
X126041766Y-96507316D01*
X126099500Y-96607314D01*
X126192686Y-96700500D01*
X126306814Y-96766392D01*
X126434108Y-96800500D01*
X126434110Y-96800500D01*
X126565890Y-96800500D01*
X126565892Y-96800500D01*
X126693186Y-96766392D01*
X126807314Y-96700500D01*
X126900500Y-96607314D01*
X126966392Y-96493186D01*
X127000500Y-96365892D01*
X127000500Y-96234108D01*
X126973705Y-96134108D01*
X136399500Y-96134108D01*
X136399500Y-96265891D01*
X136433608Y-96393187D01*
X136466554Y-96450250D01*
X136499500Y-96507314D01*
X136592686Y-96600500D01*
X136706814Y-96666392D01*
X136834108Y-96700500D01*
X136834110Y-96700500D01*
X136965890Y-96700500D01*
X136965892Y-96700500D01*
X137093186Y-96666392D01*
X137207314Y-96600500D01*
X137300500Y-96507314D01*
X137366392Y-96393186D01*
X137379542Y-96344108D01*
X155749500Y-96344108D01*
X155749500Y-96475892D01*
X155757920Y-96507316D01*
X155783608Y-96603187D01*
X155785991Y-96607314D01*
X155849500Y-96717314D01*
X155942686Y-96810500D01*
X156056814Y-96876392D01*
X156184108Y-96910500D01*
X156184110Y-96910500D01*
X156315890Y-96910500D01*
X156315892Y-96910500D01*
X156443186Y-96876392D01*
X156557314Y-96810500D01*
X156650500Y-96717314D01*
X156716392Y-96603186D01*
X156750500Y-96475892D01*
X156750500Y-96344108D01*
X156716392Y-96216814D01*
X156716390Y-96216810D01*
X156699747Y-96187983D01*
X156699746Y-96187982D01*
X156682478Y-96158074D01*
X156668641Y-96134108D01*
X158299500Y-96134108D01*
X158299500Y-96265891D01*
X158333608Y-96393187D01*
X158366554Y-96450250D01*
X158399500Y-96507314D01*
X158492686Y-96600500D01*
X158606814Y-96666392D01*
X158734108Y-96700500D01*
X158734110Y-96700500D01*
X158865890Y-96700500D01*
X158865892Y-96700500D01*
X158993186Y-96666392D01*
X159107314Y-96600500D01*
X159200500Y-96507314D01*
X159266392Y-96393186D01*
X159300500Y-96265892D01*
X159300500Y-96134108D01*
X159266392Y-96006814D01*
X159200500Y-95892686D01*
X159107314Y-95799500D01*
X159050250Y-95766554D01*
X158993187Y-95733608D01*
X158929539Y-95716554D01*
X158865892Y-95699500D01*
X158734108Y-95699500D01*
X158606812Y-95733608D01*
X158492686Y-95799500D01*
X158492683Y-95799502D01*
X158399502Y-95892683D01*
X158399500Y-95892686D01*
X158333608Y-96006812D01*
X158299500Y-96134108D01*
X156668641Y-96134108D01*
X156650500Y-96102686D01*
X156557314Y-96009500D01*
X156500250Y-95976554D01*
X156443187Y-95943608D01*
X156379539Y-95926554D01*
X156315892Y-95909500D01*
X156184108Y-95909500D01*
X156056812Y-95943608D01*
X155942686Y-96009500D01*
X155942683Y-96009502D01*
X155849502Y-96102683D01*
X155849500Y-96102686D01*
X155783608Y-96216812D01*
X155760277Y-96303886D01*
X155749500Y-96344108D01*
X137379542Y-96344108D01*
X137400500Y-96265892D01*
X137400500Y-96134108D01*
X137366392Y-96006814D01*
X137300500Y-95892686D01*
X137207314Y-95799500D01*
X137150250Y-95766554D01*
X137093187Y-95733608D01*
X137029539Y-95716554D01*
X136965892Y-95699500D01*
X136834108Y-95699500D01*
X136706812Y-95733608D01*
X136592686Y-95799500D01*
X136592683Y-95799502D01*
X136499502Y-95892683D01*
X136499500Y-95892686D01*
X136433608Y-96006812D01*
X136399500Y-96134108D01*
X126973705Y-96134108D01*
X126966392Y-96106814D01*
X126900500Y-95992686D01*
X126807314Y-95899500D01*
X126749968Y-95866391D01*
X126693187Y-95833608D01*
X126629539Y-95816554D01*
X126565892Y-95799500D01*
X126434108Y-95799500D01*
X126306812Y-95833608D01*
X126192686Y-95899500D01*
X126192683Y-95899502D01*
X126099502Y-95992683D01*
X126099500Y-95992686D01*
X126033608Y-96106812D01*
X125999500Y-96234108D01*
X113400500Y-96234108D01*
X113400500Y-95259108D01*
X114454500Y-95259108D01*
X114454500Y-95390891D01*
X114488608Y-95518187D01*
X114521554Y-95575250D01*
X114554500Y-95632314D01*
X114647686Y-95725500D01*
X114761814Y-95791392D01*
X114889108Y-95825500D01*
X114889110Y-95825500D01*
X115020890Y-95825500D01*
X115020892Y-95825500D01*
X115148186Y-95791392D01*
X115262314Y-95725500D01*
X115355500Y-95632314D01*
X115421392Y-95518186D01*
X115455500Y-95390892D01*
X115455500Y-95334108D01*
X165499500Y-95334108D01*
X165499500Y-95465891D01*
X165533608Y-95593187D01*
X165556200Y-95632316D01*
X165599500Y-95707314D01*
X165692686Y-95800500D01*
X165806814Y-95866392D01*
X165934108Y-95900500D01*
X165934110Y-95900500D01*
X166065890Y-95900500D01*
X166065892Y-95900500D01*
X166193186Y-95866392D01*
X166307314Y-95800500D01*
X166400500Y-95707314D01*
X166466392Y-95593186D01*
X166500500Y-95465892D01*
X166500500Y-95334108D01*
X166466392Y-95206814D01*
X166400500Y-95092686D01*
X166307314Y-94999500D01*
X166250250Y-94966554D01*
X166193187Y-94933608D01*
X166129539Y-94916554D01*
X166065892Y-94899500D01*
X165934108Y-94899500D01*
X165806812Y-94933608D01*
X165692686Y-94999500D01*
X165692683Y-94999502D01*
X165599502Y-95092683D01*
X165599500Y-95092686D01*
X165533608Y-95206812D01*
X165499500Y-95334108D01*
X115455500Y-95334108D01*
X115455500Y-95259108D01*
X115421392Y-95131814D01*
X115355500Y-95017686D01*
X115262314Y-94924500D01*
X115205250Y-94891554D01*
X115148187Y-94858608D01*
X115084539Y-94841554D01*
X115020892Y-94824500D01*
X114889108Y-94824500D01*
X114761812Y-94858608D01*
X114647686Y-94924500D01*
X114647683Y-94924502D01*
X114554502Y-95017683D01*
X114554500Y-95017686D01*
X114488608Y-95131812D01*
X114454500Y-95259108D01*
X113400500Y-95259108D01*
X113400500Y-94259108D01*
X115744500Y-94259108D01*
X115744500Y-94390891D01*
X115778608Y-94518187D01*
X115798730Y-94553039D01*
X115844500Y-94632314D01*
X115937686Y-94725500D01*
X116051814Y-94791392D01*
X116179108Y-94825500D01*
X116179110Y-94825500D01*
X116310890Y-94825500D01*
X116310892Y-94825500D01*
X116438186Y-94791392D01*
X116552314Y-94725500D01*
X116645500Y-94632314D01*
X116711392Y-94518186D01*
X116745500Y-94390892D01*
X116745500Y-94259108D01*
X116711392Y-94131814D01*
X116645500Y-94017686D01*
X116552314Y-93924500D01*
X116495250Y-93891554D01*
X116438187Y-93858608D01*
X116374539Y-93841554D01*
X116310892Y-93824500D01*
X116179108Y-93824500D01*
X116051812Y-93858608D01*
X115937686Y-93924500D01*
X115937683Y-93924502D01*
X115844502Y-94017683D01*
X115844500Y-94017686D01*
X115778608Y-94131812D01*
X115744500Y-94259108D01*
X113400500Y-94259108D01*
X113400500Y-92134108D01*
X151399500Y-92134108D01*
X151399500Y-92265891D01*
X151433608Y-92393187D01*
X151466554Y-92450250D01*
X151499500Y-92507314D01*
X151592686Y-92600500D01*
X151706814Y-92666392D01*
X151834108Y-92700500D01*
X151834110Y-92700500D01*
X151965890Y-92700500D01*
X151965892Y-92700500D01*
X152093186Y-92666392D01*
X152149103Y-92634108D01*
X168274500Y-92634108D01*
X168274500Y-92765891D01*
X168308608Y-92893187D01*
X168341554Y-92950250D01*
X168374500Y-93007314D01*
X168467686Y-93100500D01*
X168581814Y-93166392D01*
X168709108Y-93200500D01*
X168709110Y-93200500D01*
X168840890Y-93200500D01*
X168840892Y-93200500D01*
X168968186Y-93166392D01*
X169082314Y-93100500D01*
X169175500Y-93007314D01*
X169241392Y-92893186D01*
X169275500Y-92765892D01*
X169275500Y-92634108D01*
X169241392Y-92506814D01*
X169175500Y-92392686D01*
X169082314Y-92299500D01*
X169024100Y-92265890D01*
X168968187Y-92233608D01*
X168904539Y-92216554D01*
X168840892Y-92199500D01*
X168709108Y-92199500D01*
X168581812Y-92233608D01*
X168467686Y-92299500D01*
X168467683Y-92299502D01*
X168374502Y-92392683D01*
X168374500Y-92392686D01*
X168308608Y-92506812D01*
X168274500Y-92634108D01*
X152149103Y-92634108D01*
X152207314Y-92600500D01*
X152300500Y-92507314D01*
X152366392Y-92393186D01*
X152400500Y-92265892D01*
X152400500Y-92134108D01*
X152366392Y-92006814D01*
X152300500Y-91892686D01*
X152207314Y-91799500D01*
X152093186Y-91733608D01*
X151965892Y-91699500D01*
X151834108Y-91699500D01*
X151706812Y-91733608D01*
X151592686Y-91799500D01*
X151592683Y-91799502D01*
X151499502Y-91892683D01*
X151499500Y-91892686D01*
X151433608Y-92006812D01*
X151399500Y-92134108D01*
X113400500Y-92134108D01*
X113400500Y-91184108D01*
X116999500Y-91184108D01*
X116999500Y-91315891D01*
X117033608Y-91443187D01*
X117066554Y-91500250D01*
X117099500Y-91557314D01*
X117192686Y-91650500D01*
X117306814Y-91716392D01*
X117434108Y-91750500D01*
X117434110Y-91750500D01*
X117565890Y-91750500D01*
X117565892Y-91750500D01*
X117693186Y-91716392D01*
X117807314Y-91650500D01*
X117823706Y-91634108D01*
X153499500Y-91634108D01*
X153499500Y-91765891D01*
X153533608Y-91893187D01*
X153566554Y-91950250D01*
X153599500Y-92007314D01*
X153692686Y-92100500D01*
X153806814Y-92166392D01*
X153934108Y-92200500D01*
X153934110Y-92200500D01*
X154065890Y-92200500D01*
X154065892Y-92200500D01*
X154193186Y-92166392D01*
X154307314Y-92100500D01*
X154400500Y-92007314D01*
X154466392Y-91893186D01*
X154500500Y-91765892D01*
X154500500Y-91634108D01*
X154466392Y-91506814D01*
X154400500Y-91392686D01*
X154307314Y-91299500D01*
X154250250Y-91266554D01*
X154193187Y-91233608D01*
X154129539Y-91216554D01*
X154065892Y-91199500D01*
X153934108Y-91199500D01*
X153806812Y-91233608D01*
X153692686Y-91299500D01*
X153692683Y-91299502D01*
X153599502Y-91392683D01*
X153599500Y-91392686D01*
X153533608Y-91506812D01*
X153499500Y-91634108D01*
X117823706Y-91634108D01*
X117900500Y-91557314D01*
X117966392Y-91443186D01*
X118000500Y-91315892D01*
X118000500Y-91184108D01*
X117966392Y-91056814D01*
X117900500Y-90942686D01*
X117807314Y-90849500D01*
X117750250Y-90816554D01*
X117693187Y-90783608D01*
X117629539Y-90766554D01*
X117565892Y-90749500D01*
X117434108Y-90749500D01*
X117306812Y-90783608D01*
X117192686Y-90849500D01*
X117192683Y-90849502D01*
X117099502Y-90942683D01*
X117099500Y-90942686D01*
X117033608Y-91056812D01*
X116999500Y-91184108D01*
X113400500Y-91184108D01*
X113400500Y-89034108D01*
X144199500Y-89034108D01*
X144199500Y-89165891D01*
X144233608Y-89293187D01*
X144254565Y-89329484D01*
X144299500Y-89407314D01*
X144392686Y-89500500D01*
X144506814Y-89566392D01*
X144634108Y-89600500D01*
X144634110Y-89600500D01*
X144765890Y-89600500D01*
X144765892Y-89600500D01*
X144893186Y-89566392D01*
X145007314Y-89500500D01*
X145100500Y-89407314D01*
X145166392Y-89293186D01*
X145200500Y-89165892D01*
X145200500Y-89034108D01*
X145166392Y-88906814D01*
X145100500Y-88792686D01*
X145070907Y-88763093D01*
X146170515Y-88763093D01*
X146170515Y-88894877D01*
X146177119Y-88919523D01*
X146204623Y-89022172D01*
X146211516Y-89034110D01*
X146270515Y-89136299D01*
X146363701Y-89229485D01*
X146477829Y-89295377D01*
X146605123Y-89329485D01*
X146605125Y-89329485D01*
X146736905Y-89329485D01*
X146736907Y-89329485D01*
X146864201Y-89295377D01*
X146978329Y-89229485D01*
X147071515Y-89136299D01*
X147137407Y-89022171D01*
X147171515Y-88894877D01*
X147171515Y-88763093D01*
X147137407Y-88635799D01*
X147071515Y-88521671D01*
X146978329Y-88428485D01*
X146921265Y-88395539D01*
X146864202Y-88362593D01*
X146800554Y-88345539D01*
X146736907Y-88328485D01*
X146605123Y-88328485D01*
X146477827Y-88362593D01*
X146363701Y-88428485D01*
X146363698Y-88428487D01*
X146270517Y-88521668D01*
X146270515Y-88521671D01*
X146204623Y-88635797D01*
X146187554Y-88699502D01*
X146170515Y-88763093D01*
X145070907Y-88763093D01*
X145007314Y-88699500D01*
X144946945Y-88664646D01*
X144893187Y-88633608D01*
X144829539Y-88616554D01*
X144765892Y-88599500D01*
X144634108Y-88599500D01*
X144506812Y-88633608D01*
X144392686Y-88699500D01*
X144392683Y-88699502D01*
X144299502Y-88792683D01*
X144299500Y-88792686D01*
X144233608Y-88906812D01*
X144199500Y-89034108D01*
X113400500Y-89034108D01*
X113400500Y-86834108D01*
X145399500Y-86834108D01*
X145399500Y-86965891D01*
X145433608Y-87093187D01*
X145466554Y-87150250D01*
X145499500Y-87207314D01*
X145592686Y-87300500D01*
X145706814Y-87366392D01*
X145834108Y-87400500D01*
X145834110Y-87400500D01*
X145965890Y-87400500D01*
X145965892Y-87400500D01*
X146093186Y-87366392D01*
X146207314Y-87300500D01*
X146300500Y-87207314D01*
X146366392Y-87093186D01*
X146400500Y-86965892D01*
X146400500Y-86834108D01*
X146366392Y-86706814D01*
X146300500Y-86592686D01*
X146207314Y-86499500D01*
X146150250Y-86466554D01*
X146093187Y-86433608D01*
X146029539Y-86416554D01*
X145965892Y-86399500D01*
X145834108Y-86399500D01*
X145706812Y-86433608D01*
X145592686Y-86499500D01*
X145592683Y-86499502D01*
X145499502Y-86592683D01*
X145499500Y-86592686D01*
X145433608Y-86706812D01*
X145399500Y-86834108D01*
X113400500Y-86834108D01*
X113400500Y-85559108D01*
X121054500Y-85559108D01*
X121054500Y-85690892D01*
X121066080Y-85734108D01*
X121088608Y-85818187D01*
X121116151Y-85865892D01*
X121154500Y-85932314D01*
X121247686Y-86025500D01*
X121361814Y-86091392D01*
X121489108Y-86125500D01*
X121489110Y-86125500D01*
X121620890Y-86125500D01*
X121620892Y-86125500D01*
X121748186Y-86091392D01*
X121862314Y-86025500D01*
X121955500Y-85932314D01*
X122021392Y-85818186D01*
X122055500Y-85690892D01*
X122055500Y-85559108D01*
X122048801Y-85534108D01*
X154299500Y-85534108D01*
X154299500Y-85665892D01*
X154308772Y-85700497D01*
X154333608Y-85793187D01*
X154348042Y-85818187D01*
X154399500Y-85907314D01*
X154492686Y-86000500D01*
X154606814Y-86066392D01*
X154734108Y-86100500D01*
X154734110Y-86100500D01*
X154865890Y-86100500D01*
X154865892Y-86100500D01*
X154993186Y-86066392D01*
X155107314Y-86000500D01*
X155200500Y-85907314D01*
X155266392Y-85793186D01*
X155282222Y-85734108D01*
X166574500Y-85734108D01*
X166574500Y-85865892D01*
X166591554Y-85929539D01*
X166608608Y-85993187D01*
X166641554Y-86050250D01*
X166674500Y-86107314D01*
X166767686Y-86200500D01*
X166881814Y-86266392D01*
X167009108Y-86300500D01*
X167009110Y-86300500D01*
X167140890Y-86300500D01*
X167140892Y-86300500D01*
X167268186Y-86266392D01*
X167382314Y-86200500D01*
X167475500Y-86107314D01*
X167541392Y-85993186D01*
X167575500Y-85865892D01*
X167575500Y-85734108D01*
X168274500Y-85734108D01*
X168274500Y-85865892D01*
X168291554Y-85929539D01*
X168308608Y-85993187D01*
X168341554Y-86050250D01*
X168374500Y-86107314D01*
X168467686Y-86200500D01*
X168581814Y-86266392D01*
X168709108Y-86300500D01*
X168709110Y-86300500D01*
X168840890Y-86300500D01*
X168840892Y-86300500D01*
X168968186Y-86266392D01*
X169024103Y-86234108D01*
X172574500Y-86234108D01*
X172574500Y-86365891D01*
X172608608Y-86493187D01*
X172617671Y-86508884D01*
X172674500Y-86607314D01*
X172767686Y-86700500D01*
X172881814Y-86766392D01*
X173009108Y-86800500D01*
X173009110Y-86800500D01*
X173140890Y-86800500D01*
X173140892Y-86800500D01*
X173268186Y-86766392D01*
X173382314Y-86700500D01*
X173475500Y-86607314D01*
X173541392Y-86493186D01*
X173575500Y-86365892D01*
X173575500Y-86234108D01*
X173541392Y-86106814D01*
X173475500Y-85992686D01*
X173382314Y-85899500D01*
X173324100Y-85865890D01*
X173268187Y-85833608D01*
X173204539Y-85816554D01*
X173140892Y-85799500D01*
X173009108Y-85799500D01*
X172881812Y-85833608D01*
X172767686Y-85899500D01*
X172767683Y-85899502D01*
X172674502Y-85992683D01*
X172674500Y-85992686D01*
X172608608Y-86106812D01*
X172574500Y-86234108D01*
X169024103Y-86234108D01*
X169082314Y-86200500D01*
X169175500Y-86107314D01*
X169241392Y-85993186D01*
X169275500Y-85865892D01*
X169275500Y-85734108D01*
X169241392Y-85606814D01*
X169175500Y-85492686D01*
X169082314Y-85399500D01*
X168968186Y-85333608D01*
X168840892Y-85299500D01*
X168709108Y-85299500D01*
X168581812Y-85333608D01*
X168467686Y-85399500D01*
X168467683Y-85399502D01*
X168374502Y-85492683D01*
X168374500Y-85492686D01*
X168308608Y-85606812D01*
X168285277Y-85693887D01*
X168274500Y-85734108D01*
X167575500Y-85734108D01*
X167541392Y-85606814D01*
X167475500Y-85492686D01*
X167382314Y-85399500D01*
X167324100Y-85365890D01*
X167268187Y-85333608D01*
X167204539Y-85316554D01*
X167140892Y-85299500D01*
X167009108Y-85299500D01*
X166881812Y-85333608D01*
X166767686Y-85399500D01*
X166767683Y-85399502D01*
X166674502Y-85492683D01*
X166674500Y-85492686D01*
X166608608Y-85606812D01*
X166585277Y-85693887D01*
X166574500Y-85734108D01*
X155282222Y-85734108D01*
X155300500Y-85665892D01*
X155300500Y-85534108D01*
X155266392Y-85406814D01*
X155200500Y-85292686D01*
X155141922Y-85234108D01*
X170974500Y-85234108D01*
X170974500Y-85365891D01*
X171008608Y-85493187D01*
X171041554Y-85550250D01*
X171074500Y-85607314D01*
X171167686Y-85700500D01*
X171281814Y-85766392D01*
X171409108Y-85800500D01*
X171409110Y-85800500D01*
X171540890Y-85800500D01*
X171540892Y-85800500D01*
X171668186Y-85766392D01*
X171782314Y-85700500D01*
X171875500Y-85607314D01*
X171941392Y-85493186D01*
X171975500Y-85365892D01*
X171975500Y-85234108D01*
X171941392Y-85106814D01*
X171875500Y-84992686D01*
X171782314Y-84899500D01*
X171725250Y-84866554D01*
X171668187Y-84833608D01*
X171604539Y-84816554D01*
X171540892Y-84799500D01*
X171409108Y-84799500D01*
X171281812Y-84833608D01*
X171167686Y-84899500D01*
X171167683Y-84899502D01*
X171074502Y-84992683D01*
X171074500Y-84992686D01*
X171008608Y-85106812D01*
X170974500Y-85234108D01*
X155141922Y-85234108D01*
X155107314Y-85199500D01*
X155036487Y-85158608D01*
X154993187Y-85133608D01*
X154893188Y-85106814D01*
X154865892Y-85099500D01*
X154734108Y-85099500D01*
X154606812Y-85133608D01*
X154492686Y-85199500D01*
X154492683Y-85199502D01*
X154399502Y-85292683D01*
X154399500Y-85292686D01*
X154333608Y-85406812D01*
X154299500Y-85534108D01*
X122048801Y-85534108D01*
X122021392Y-85431814D01*
X121955500Y-85317686D01*
X121862314Y-85224500D01*
X121805250Y-85191554D01*
X121748187Y-85158608D01*
X121684539Y-85141554D01*
X121620892Y-85124500D01*
X121489108Y-85124500D01*
X121361812Y-85158608D01*
X121247686Y-85224500D01*
X121247683Y-85224502D01*
X121154502Y-85317683D01*
X121154500Y-85317686D01*
X121088608Y-85431812D01*
X121072163Y-85493187D01*
X121054500Y-85559108D01*
X113400500Y-85559108D01*
X113400500Y-84309108D01*
X182049500Y-84309108D01*
X182049500Y-84440891D01*
X182083608Y-84568187D01*
X182116554Y-84625250D01*
X182149500Y-84682314D01*
X182242686Y-84775500D01*
X182356814Y-84841392D01*
X182484108Y-84875500D01*
X182484110Y-84875500D01*
X182615890Y-84875500D01*
X182615892Y-84875500D01*
X182743186Y-84841392D01*
X182857314Y-84775500D01*
X182950500Y-84682314D01*
X183016392Y-84568186D01*
X183050500Y-84440892D01*
X183050500Y-84309108D01*
X183016392Y-84181814D01*
X182950500Y-84067686D01*
X182857314Y-83974500D01*
X182800250Y-83941554D01*
X182743187Y-83908608D01*
X182679539Y-83891554D01*
X182615892Y-83874500D01*
X182484108Y-83874500D01*
X182356812Y-83908608D01*
X182242686Y-83974500D01*
X182242683Y-83974502D01*
X182149502Y-84067683D01*
X182149500Y-84067686D01*
X182083608Y-84181812D01*
X182049500Y-84309108D01*
X113400500Y-84309108D01*
X113400500Y-82934108D01*
X154299500Y-82934108D01*
X154299500Y-83065892D01*
X154316554Y-83129539D01*
X154333608Y-83193187D01*
X154366554Y-83250250D01*
X154399500Y-83307314D01*
X154492686Y-83400500D01*
X154606814Y-83466392D01*
X154734108Y-83500500D01*
X154734110Y-83500500D01*
X154865890Y-83500500D01*
X154865892Y-83500500D01*
X154993186Y-83466392D01*
X155107314Y-83400500D01*
X155200500Y-83307314D01*
X155266392Y-83193186D01*
X155300500Y-83065892D01*
X155300500Y-82934108D01*
X155266392Y-82806814D01*
X155266389Y-82806808D01*
X155255520Y-82787982D01*
X155255519Y-82787981D01*
X155224415Y-82734108D01*
X161999500Y-82734108D01*
X161999500Y-82865891D01*
X162033608Y-82993187D01*
X162066554Y-83050250D01*
X162099500Y-83107314D01*
X162192686Y-83200500D01*
X162306814Y-83266392D01*
X162434108Y-83300500D01*
X162434110Y-83300500D01*
X162565890Y-83300500D01*
X162565892Y-83300500D01*
X162693186Y-83266392D01*
X162807314Y-83200500D01*
X162900500Y-83107314D01*
X162966392Y-82993186D01*
X163000500Y-82865892D01*
X163000500Y-82734108D01*
X162966392Y-82606814D01*
X162900500Y-82492686D01*
X162807314Y-82399500D01*
X162750250Y-82366554D01*
X162693187Y-82333608D01*
X162629539Y-82316554D01*
X162565892Y-82299500D01*
X162434108Y-82299500D01*
X162306812Y-82333608D01*
X162192686Y-82399500D01*
X162192683Y-82399502D01*
X162099502Y-82492683D01*
X162099500Y-82492686D01*
X162033608Y-82606812D01*
X161999500Y-82734108D01*
X155224415Y-82734108D01*
X155200500Y-82692686D01*
X155107314Y-82599500D01*
X155050250Y-82566554D01*
X154993187Y-82533608D01*
X154929539Y-82516554D01*
X154865892Y-82499500D01*
X154734108Y-82499500D01*
X154606812Y-82533608D01*
X154492686Y-82599500D01*
X154492683Y-82599502D01*
X154399502Y-82692683D01*
X154399500Y-82692686D01*
X154333608Y-82806812D01*
X154317778Y-82865892D01*
X154299500Y-82934108D01*
X113400500Y-82934108D01*
X113400500Y-81534108D01*
X154299500Y-81534108D01*
X154299500Y-81665891D01*
X154333608Y-81793187D01*
X154366554Y-81850250D01*
X154399500Y-81907314D01*
X154492686Y-82000500D01*
X154606814Y-82066392D01*
X154734108Y-82100500D01*
X154734110Y-82100500D01*
X154865890Y-82100500D01*
X154865892Y-82100500D01*
X154993186Y-82066392D01*
X155107314Y-82000500D01*
X155200500Y-81907314D01*
X155228332Y-81859108D01*
X182049500Y-81859108D01*
X182049500Y-81990892D01*
X182066554Y-82054539D01*
X182083608Y-82118187D01*
X182116554Y-82175250D01*
X182149500Y-82232314D01*
X182242686Y-82325500D01*
X182356814Y-82391392D01*
X182484108Y-82425500D01*
X182484110Y-82425500D01*
X182615890Y-82425500D01*
X182615892Y-82425500D01*
X182743186Y-82391392D01*
X182857314Y-82325500D01*
X182950500Y-82232314D01*
X183016392Y-82118186D01*
X183050500Y-81990892D01*
X183050500Y-81859108D01*
X183016392Y-81731814D01*
X182950500Y-81617686D01*
X182857314Y-81524500D01*
X182796718Y-81489515D01*
X182743187Y-81458608D01*
X182679539Y-81441554D01*
X182615892Y-81424500D01*
X182484108Y-81424500D01*
X182356812Y-81458608D01*
X182242686Y-81524500D01*
X182242683Y-81524502D01*
X182149502Y-81617683D01*
X182149500Y-81617686D01*
X182083608Y-81731812D01*
X182067163Y-81793187D01*
X182049500Y-81859108D01*
X155228332Y-81859108D01*
X155266392Y-81793186D01*
X155300500Y-81665892D01*
X155300500Y-81534108D01*
X155266392Y-81406814D01*
X155200500Y-81292686D01*
X155107314Y-81199500D01*
X155046945Y-81164646D01*
X154993187Y-81133608D01*
X154929539Y-81116554D01*
X154865892Y-81099500D01*
X154734108Y-81099500D01*
X154606812Y-81133608D01*
X154492686Y-81199500D01*
X154492683Y-81199502D01*
X154399502Y-81292683D01*
X154399500Y-81292686D01*
X154333608Y-81406812D01*
X154299500Y-81534108D01*
X113400500Y-81534108D01*
X113400500Y-79434108D01*
X149699500Y-79434108D01*
X149699500Y-79565891D01*
X149733608Y-79693187D01*
X149734421Y-79694595D01*
X149799500Y-79807314D01*
X149892686Y-79900500D01*
X150006814Y-79966392D01*
X150134108Y-80000500D01*
X150134110Y-80000500D01*
X150265890Y-80000500D01*
X150265892Y-80000500D01*
X150393186Y-79966392D01*
X150507314Y-79900500D01*
X150600500Y-79807314D01*
X150666392Y-79693186D01*
X150700500Y-79565892D01*
X150700500Y-79434108D01*
X150667007Y-79309108D01*
X182049500Y-79309108D01*
X182049500Y-79440891D01*
X182083608Y-79568187D01*
X182116554Y-79625250D01*
X182149500Y-79682314D01*
X182242686Y-79775500D01*
X182356814Y-79841392D01*
X182484108Y-79875500D01*
X182484110Y-79875500D01*
X182615890Y-79875500D01*
X182615892Y-79875500D01*
X182743186Y-79841392D01*
X182857314Y-79775500D01*
X182950500Y-79682314D01*
X183016392Y-79568186D01*
X183050500Y-79440892D01*
X183050500Y-79309108D01*
X183016392Y-79181814D01*
X182950500Y-79067686D01*
X182857314Y-78974500D01*
X182800250Y-78941554D01*
X182743187Y-78908608D01*
X182679539Y-78891554D01*
X182615892Y-78874500D01*
X182484108Y-78874500D01*
X182356812Y-78908608D01*
X182242686Y-78974500D01*
X182242683Y-78974502D01*
X182149502Y-79067683D01*
X182149500Y-79067686D01*
X182083608Y-79181812D01*
X182049500Y-79309108D01*
X150667007Y-79309108D01*
X150666392Y-79306814D01*
X150600500Y-79192686D01*
X150507314Y-79099500D01*
X150450250Y-79066554D01*
X150393187Y-79033608D01*
X150329539Y-79016554D01*
X150265892Y-78999500D01*
X150134108Y-78999500D01*
X150006812Y-79033608D01*
X149892686Y-79099500D01*
X149892683Y-79099502D01*
X149799502Y-79192683D01*
X149799500Y-79192686D01*
X149733608Y-79306812D01*
X149699500Y-79434108D01*
X113400500Y-79434108D01*
X113400500Y-77751577D01*
X185749500Y-77751577D01*
X185749500Y-77948422D01*
X185780290Y-78142826D01*
X185841117Y-78330029D01*
X185930476Y-78505405D01*
X186046172Y-78664646D01*
X186185354Y-78803828D01*
X186344595Y-78919524D01*
X186413613Y-78954690D01*
X186481960Y-78989515D01*
X186532756Y-79037490D01*
X186549551Y-79105311D01*
X186527014Y-79171446D01*
X186481960Y-79210485D01*
X186344594Y-79280476D01*
X186272200Y-79333074D01*
X186185354Y-79396172D01*
X186185352Y-79396174D01*
X186185351Y-79396174D01*
X186046174Y-79535351D01*
X186046174Y-79535352D01*
X186046172Y-79535354D01*
X185996485Y-79603741D01*
X185930476Y-79694594D01*
X185841117Y-79869970D01*
X185780290Y-80057173D01*
X185749500Y-80251577D01*
X185749500Y-80448422D01*
X185780290Y-80642826D01*
X185841117Y-80830029D01*
X185930476Y-81005405D01*
X186046172Y-81164646D01*
X186185354Y-81303828D01*
X186344595Y-81419524D01*
X186413613Y-81454690D01*
X186481960Y-81489515D01*
X186532756Y-81537490D01*
X186549551Y-81605311D01*
X186527014Y-81671446D01*
X186481960Y-81710485D01*
X186344594Y-81780476D01*
X186253741Y-81846485D01*
X186185354Y-81896172D01*
X186185352Y-81896174D01*
X186185351Y-81896174D01*
X186046174Y-82035351D01*
X186046174Y-82035352D01*
X186046172Y-82035354D01*
X185998841Y-82100499D01*
X185930476Y-82194594D01*
X185841117Y-82369970D01*
X185780290Y-82557173D01*
X185749500Y-82751577D01*
X185749500Y-82948422D01*
X185780290Y-83142826D01*
X185841117Y-83330029D01*
X185910598Y-83466392D01*
X185930476Y-83505405D01*
X186046172Y-83664646D01*
X186185354Y-83803828D01*
X186344595Y-83919524D01*
X186413613Y-83954690D01*
X186481960Y-83989515D01*
X186532756Y-84037490D01*
X186549551Y-84105311D01*
X186527014Y-84171446D01*
X186481960Y-84210485D01*
X186344594Y-84280476D01*
X186253741Y-84346485D01*
X186185354Y-84396172D01*
X186185352Y-84396174D01*
X186185351Y-84396174D01*
X186046174Y-84535351D01*
X186046174Y-84535352D01*
X186046172Y-84535354D01*
X185996485Y-84603741D01*
X185930476Y-84694594D01*
X185841117Y-84869970D01*
X185780290Y-85057173D01*
X185749500Y-85251577D01*
X185749500Y-85448422D01*
X185780290Y-85642826D01*
X185841117Y-85830029D01*
X185923994Y-85992683D01*
X185930476Y-86005405D01*
X186046172Y-86164646D01*
X186185354Y-86303828D01*
X186344595Y-86419524D01*
X186372237Y-86433608D01*
X186481960Y-86489515D01*
X186532756Y-86537490D01*
X186549551Y-86605311D01*
X186527014Y-86671446D01*
X186481960Y-86710485D01*
X186344594Y-86780476D01*
X186253741Y-86846485D01*
X186185354Y-86896172D01*
X186185352Y-86896174D01*
X186185351Y-86896174D01*
X186046174Y-87035351D01*
X186046174Y-87035352D01*
X186046172Y-87035354D01*
X186004154Y-87093186D01*
X185930476Y-87194594D01*
X185841117Y-87369970D01*
X185780290Y-87557173D01*
X185749500Y-87751577D01*
X185749500Y-87948422D01*
X185780290Y-88142826D01*
X185841117Y-88330029D01*
X185930476Y-88505405D01*
X186046172Y-88664646D01*
X186185354Y-88803828D01*
X186344595Y-88919524D01*
X186413613Y-88954690D01*
X186481960Y-88989515D01*
X186532756Y-89037490D01*
X186549551Y-89105311D01*
X186527014Y-89171446D01*
X186481960Y-89210485D01*
X186344594Y-89280476D01*
X186277140Y-89329485D01*
X186185354Y-89396172D01*
X186185352Y-89396174D01*
X186185351Y-89396174D01*
X186046174Y-89535351D01*
X186046174Y-89535352D01*
X186046172Y-89535354D01*
X185998841Y-89600499D01*
X185930476Y-89694594D01*
X185841117Y-89869970D01*
X185780290Y-90057173D01*
X185749500Y-90251577D01*
X185749500Y-90448422D01*
X185780290Y-90642826D01*
X185841117Y-90830029D01*
X185898519Y-90942686D01*
X185930476Y-91005405D01*
X186046172Y-91164646D01*
X186185354Y-91303828D01*
X186344595Y-91419524D01*
X186391035Y-91443186D01*
X186519970Y-91508882D01*
X186519972Y-91508882D01*
X186519975Y-91508884D01*
X186620317Y-91541487D01*
X186707173Y-91569709D01*
X186901578Y-91600500D01*
X186901583Y-91600500D01*
X187098422Y-91600500D01*
X187292826Y-91569709D01*
X187480025Y-91508884D01*
X187655405Y-91419524D01*
X187814646Y-91303828D01*
X187953828Y-91164646D01*
X188069524Y-91005405D01*
X188158884Y-90830025D01*
X188219709Y-90642826D01*
X188250500Y-90448422D01*
X188250500Y-90251577D01*
X188219709Y-90057173D01*
X188158882Y-89869970D01*
X188069523Y-89694594D01*
X187953828Y-89535354D01*
X187814646Y-89396172D01*
X187655405Y-89280476D01*
X187518038Y-89210484D01*
X187467243Y-89162511D01*
X187450448Y-89094690D01*
X187472985Y-89028555D01*
X187518039Y-88989515D01*
X187655405Y-88919524D01*
X187814646Y-88803828D01*
X187953828Y-88664646D01*
X188069524Y-88505405D01*
X188158884Y-88330025D01*
X188219709Y-88142826D01*
X188250500Y-87948422D01*
X188250500Y-87751577D01*
X188219709Y-87557173D01*
X188158882Y-87369970D01*
X188111743Y-87277455D01*
X188069524Y-87194595D01*
X187953828Y-87035354D01*
X187814646Y-86896172D01*
X187655405Y-86780476D01*
X187518038Y-86710484D01*
X187467243Y-86662511D01*
X187450448Y-86594690D01*
X187472985Y-86528555D01*
X187518039Y-86489515D01*
X187655405Y-86419524D01*
X187814646Y-86303828D01*
X187953828Y-86164646D01*
X188069524Y-86005405D01*
X188158884Y-85830025D01*
X188219709Y-85642826D01*
X188225333Y-85607316D01*
X188250500Y-85448422D01*
X188250500Y-85251577D01*
X188219709Y-85057173D01*
X188158882Y-84869970D01*
X188069523Y-84694594D01*
X187953828Y-84535354D01*
X187814646Y-84396172D01*
X187655405Y-84280476D01*
X187518038Y-84210484D01*
X187467243Y-84162511D01*
X187450448Y-84094690D01*
X187472985Y-84028555D01*
X187518039Y-83989515D01*
X187655405Y-83919524D01*
X187814646Y-83803828D01*
X187953828Y-83664646D01*
X188069524Y-83505405D01*
X188158884Y-83330025D01*
X188219709Y-83142826D01*
X188225333Y-83107316D01*
X188250500Y-82948422D01*
X188250500Y-82751577D01*
X188219709Y-82557173D01*
X188165843Y-82391392D01*
X188158884Y-82369975D01*
X188158882Y-82369972D01*
X188158882Y-82369970D01*
X188111743Y-82277455D01*
X188069524Y-82194595D01*
X187953828Y-82035354D01*
X187814646Y-81896172D01*
X187655405Y-81780476D01*
X187518038Y-81710484D01*
X187467243Y-81662511D01*
X187450448Y-81594690D01*
X187472985Y-81528555D01*
X187518039Y-81489515D01*
X187655405Y-81419524D01*
X187814646Y-81303828D01*
X187953828Y-81164646D01*
X188069524Y-81005405D01*
X188158884Y-80830025D01*
X188219709Y-80642826D01*
X188250500Y-80448422D01*
X188250500Y-80251577D01*
X188219709Y-80057173D01*
X188158882Y-79869970D01*
X188069523Y-79694594D01*
X188068500Y-79693186D01*
X187953828Y-79535354D01*
X187814646Y-79396172D01*
X187655405Y-79280476D01*
X187518038Y-79210484D01*
X187467243Y-79162511D01*
X187450448Y-79094690D01*
X187472985Y-79028555D01*
X187518039Y-78989515D01*
X187655405Y-78919524D01*
X187814646Y-78803828D01*
X187953828Y-78664646D01*
X188069524Y-78505405D01*
X188158884Y-78330025D01*
X188219709Y-78142826D01*
X188250500Y-77948422D01*
X188250500Y-77751577D01*
X188219709Y-77557173D01*
X188158882Y-77369970D01*
X188069523Y-77194594D01*
X187953828Y-77035354D01*
X187814646Y-76896172D01*
X187655405Y-76780476D01*
X187480029Y-76691117D01*
X187292826Y-76630290D01*
X187098422Y-76599500D01*
X187098417Y-76599500D01*
X186901583Y-76599500D01*
X186901578Y-76599500D01*
X186707173Y-76630290D01*
X186519970Y-76691117D01*
X186344594Y-76780476D01*
X186253741Y-76846485D01*
X186185354Y-76896172D01*
X186185352Y-76896174D01*
X186185351Y-76896174D01*
X186046174Y-77035351D01*
X186046174Y-77035352D01*
X186046172Y-77035354D01*
X185996485Y-77103741D01*
X185930476Y-77194594D01*
X185841117Y-77369970D01*
X185780290Y-77557173D01*
X185749500Y-77751577D01*
X113400500Y-77751577D01*
X113400500Y-76809108D01*
X182074500Y-76809108D01*
X182074500Y-76940891D01*
X182108608Y-77068187D01*
X182141554Y-77125250D01*
X182174500Y-77182314D01*
X182267686Y-77275500D01*
X182381814Y-77341392D01*
X182509108Y-77375500D01*
X182509110Y-77375500D01*
X182640890Y-77375500D01*
X182640892Y-77375500D01*
X182768186Y-77341392D01*
X182882314Y-77275500D01*
X182975500Y-77182314D01*
X183041392Y-77068186D01*
X183075500Y-76940892D01*
X183075500Y-76809108D01*
X183041392Y-76681814D01*
X182975500Y-76567686D01*
X182882314Y-76474500D01*
X182825250Y-76441554D01*
X182768187Y-76408608D01*
X182704539Y-76391554D01*
X182640892Y-76374500D01*
X182509108Y-76374500D01*
X182381812Y-76408608D01*
X182267686Y-76474500D01*
X182267683Y-76474502D01*
X182174502Y-76567683D01*
X182174500Y-76567686D01*
X182108608Y-76681812D01*
X182074500Y-76809108D01*
X113400500Y-76809108D01*
X113400500Y-76034108D01*
X162999500Y-76034108D01*
X162999500Y-76165891D01*
X163033608Y-76293187D01*
X163066554Y-76350250D01*
X163099500Y-76407314D01*
X163192686Y-76500500D01*
X163306814Y-76566392D01*
X163434108Y-76600500D01*
X163434110Y-76600500D01*
X163565890Y-76600500D01*
X163565892Y-76600500D01*
X163693186Y-76566392D01*
X163807314Y-76500500D01*
X163900500Y-76407314D01*
X163966392Y-76293186D01*
X164000500Y-76165892D01*
X164000500Y-76034108D01*
X163966392Y-75906814D01*
X163900500Y-75792686D01*
X163807314Y-75699500D01*
X163750250Y-75666554D01*
X163693187Y-75633608D01*
X163629539Y-75616554D01*
X163565892Y-75599500D01*
X163434108Y-75599500D01*
X163306812Y-75633608D01*
X163192686Y-75699500D01*
X163192683Y-75699502D01*
X163099502Y-75792683D01*
X163099500Y-75792686D01*
X163033608Y-75906812D01*
X162999500Y-76034108D01*
X113400500Y-76034108D01*
X113400500Y-71380247D01*
X116942046Y-71380247D01*
X116942046Y-73419752D01*
X116953677Y-73478229D01*
X116953678Y-73478230D01*
X116997993Y-73544552D01*
X117064315Y-73588867D01*
X117064316Y-73588868D01*
X117122793Y-73600499D01*
X117122796Y-73600500D01*
X117122798Y-73600500D01*
X119162296Y-73600500D01*
X119162297Y-73600499D01*
X119177114Y-73597552D01*
X119220775Y-73588868D01*
X119220775Y-73588867D01*
X119220777Y-73588867D01*
X119287098Y-73544552D01*
X119331413Y-73478231D01*
X119331413Y-73478229D01*
X119331414Y-73478229D01*
X119343045Y-73419752D01*
X119343046Y-73419750D01*
X119343046Y-72305513D01*
X137742046Y-72305513D01*
X137742046Y-72494486D01*
X137771605Y-72681118D01*
X137830000Y-72860836D01*
X137915786Y-73029199D01*
X138026856Y-73182073D01*
X138160473Y-73315690D01*
X138313347Y-73426760D01*
X138392893Y-73467290D01*
X138481709Y-73512545D01*
X138481711Y-73512545D01*
X138481714Y-73512547D01*
X138544911Y-73533081D01*
X138661427Y-73570940D01*
X138848060Y-73600500D01*
X138848065Y-73600500D01*
X139037032Y-73600500D01*
X139223664Y-73570940D01*
X139337020Y-73534108D01*
X164199500Y-73534108D01*
X164199500Y-73665891D01*
X164233608Y-73793187D01*
X164266554Y-73850250D01*
X164299500Y-73907314D01*
X164392686Y-74000500D01*
X164506814Y-74066392D01*
X164634108Y-74100500D01*
X164634110Y-74100500D01*
X164765890Y-74100500D01*
X164765892Y-74100500D01*
X164893186Y-74066392D01*
X165007314Y-74000500D01*
X165100500Y-73907314D01*
X165166392Y-73793186D01*
X165200500Y-73665892D01*
X165200500Y-73534108D01*
X165193801Y-73509108D01*
X168074500Y-73509108D01*
X168074500Y-73640892D01*
X168081199Y-73665892D01*
X168108608Y-73768187D01*
X168123042Y-73793187D01*
X168174500Y-73882314D01*
X168267686Y-73975500D01*
X168381814Y-74041392D01*
X168509108Y-74075500D01*
X168509110Y-74075500D01*
X168640890Y-74075500D01*
X168640892Y-74075500D01*
X168768186Y-74041392D01*
X168882314Y-73975500D01*
X168975500Y-73882314D01*
X169041392Y-73768186D01*
X169075500Y-73640892D01*
X169075500Y-73509108D01*
X169041392Y-73381814D01*
X168975500Y-73267686D01*
X168882314Y-73174500D01*
X168811487Y-73133608D01*
X168768187Y-73108608D01*
X168704539Y-73091554D01*
X168640892Y-73074500D01*
X168509108Y-73074500D01*
X168381812Y-73108608D01*
X168267686Y-73174500D01*
X168267683Y-73174502D01*
X168174502Y-73267683D01*
X168174500Y-73267686D01*
X168108608Y-73381812D01*
X168096858Y-73425665D01*
X168074500Y-73509108D01*
X165193801Y-73509108D01*
X165166392Y-73406814D01*
X165100500Y-73292686D01*
X165007314Y-73199500D01*
X164950250Y-73166554D01*
X164893187Y-73133608D01*
X164829539Y-73116554D01*
X164765892Y-73099500D01*
X164634108Y-73099500D01*
X164506812Y-73133608D01*
X164392686Y-73199500D01*
X164392683Y-73199502D01*
X164299502Y-73292683D01*
X164299500Y-73292686D01*
X164233608Y-73406812D01*
X164199500Y-73534108D01*
X139337020Y-73534108D01*
X139403378Y-73512547D01*
X139571745Y-73426760D01*
X139724619Y-73315690D01*
X139858236Y-73182073D01*
X139969306Y-73029199D01*
X140055093Y-72860832D01*
X140113486Y-72681118D01*
X140115818Y-72666392D01*
X140143046Y-72494486D01*
X140143046Y-72305513D01*
X140117683Y-72145379D01*
X140115898Y-72134108D01*
X150999500Y-72134108D01*
X150999500Y-72265891D01*
X151033608Y-72393187D01*
X151066554Y-72450250D01*
X151099500Y-72507314D01*
X151192686Y-72600500D01*
X151306814Y-72666392D01*
X151434108Y-72700500D01*
X151434110Y-72700500D01*
X151565890Y-72700500D01*
X151565892Y-72700500D01*
X151693186Y-72666392D01*
X151807314Y-72600500D01*
X151900500Y-72507314D01*
X151966392Y-72393186D01*
X152000500Y-72265892D01*
X152000500Y-72134108D01*
X151966392Y-72006814D01*
X151900500Y-71892686D01*
X151807314Y-71799500D01*
X151750250Y-71766554D01*
X151693187Y-71733608D01*
X151629539Y-71716554D01*
X151565892Y-71699500D01*
X151434108Y-71699500D01*
X151306812Y-71733608D01*
X151192686Y-71799500D01*
X151192683Y-71799502D01*
X151099502Y-71892683D01*
X151099500Y-71892686D01*
X151033608Y-72006812D01*
X150999500Y-72134108D01*
X140115898Y-72134108D01*
X140113486Y-72118881D01*
X140063372Y-71964648D01*
X140055093Y-71939168D01*
X140055091Y-71939165D01*
X140055091Y-71939163D01*
X140009836Y-71850347D01*
X139969306Y-71770801D01*
X139858236Y-71617927D01*
X139724619Y-71484310D01*
X139571745Y-71373240D01*
X139403382Y-71287454D01*
X139223664Y-71229059D01*
X139037032Y-71199500D01*
X139037027Y-71199500D01*
X138848065Y-71199500D01*
X138848060Y-71199500D01*
X138661427Y-71229059D01*
X138481709Y-71287454D01*
X138313346Y-71373240D01*
X138226125Y-71436610D01*
X138160473Y-71484310D01*
X138160471Y-71484312D01*
X138160470Y-71484312D01*
X138026858Y-71617924D01*
X138026858Y-71617925D01*
X138026856Y-71617927D01*
X137979156Y-71683579D01*
X137915786Y-71770800D01*
X137830000Y-71939163D01*
X137771605Y-72118881D01*
X137742046Y-72305513D01*
X119343046Y-72305513D01*
X119343046Y-71380249D01*
X119343045Y-71380247D01*
X119331414Y-71321770D01*
X119331413Y-71321769D01*
X119287098Y-71255447D01*
X119220776Y-71211132D01*
X119220775Y-71211131D01*
X119162298Y-71199500D01*
X119162294Y-71199500D01*
X117122798Y-71199500D01*
X117122793Y-71199500D01*
X117064316Y-71211131D01*
X117064315Y-71211132D01*
X116997993Y-71255447D01*
X116953678Y-71321769D01*
X116953677Y-71321770D01*
X116942046Y-71380247D01*
X113400500Y-71380247D01*
X113400500Y-70534108D01*
X169649500Y-70534108D01*
X169649500Y-70665891D01*
X169683608Y-70793187D01*
X169716554Y-70850250D01*
X169749500Y-70907314D01*
X169842686Y-71000500D01*
X169956814Y-71066392D01*
X170084108Y-71100500D01*
X170084110Y-71100500D01*
X170215890Y-71100500D01*
X170215892Y-71100500D01*
X170343186Y-71066392D01*
X170457314Y-71000500D01*
X170550500Y-70907314D01*
X170616392Y-70793186D01*
X170650500Y-70665892D01*
X170650500Y-70534108D01*
X170616392Y-70406814D01*
X170550500Y-70292686D01*
X170457314Y-70199500D01*
X170400250Y-70166554D01*
X170343187Y-70133608D01*
X170279539Y-70116554D01*
X170215892Y-70099500D01*
X170084108Y-70099500D01*
X169956812Y-70133608D01*
X169842686Y-70199500D01*
X169842683Y-70199502D01*
X169749502Y-70292683D01*
X169749500Y-70292686D01*
X169683608Y-70406812D01*
X169649500Y-70534108D01*
X113400500Y-70534108D01*
X113400500Y-68034108D01*
X152399500Y-68034108D01*
X152399500Y-68165891D01*
X152433608Y-68293187D01*
X152466554Y-68350250D01*
X152499500Y-68407314D01*
X152592686Y-68500500D01*
X152706814Y-68566392D01*
X152834108Y-68600500D01*
X152834110Y-68600500D01*
X152965890Y-68600500D01*
X152965892Y-68600500D01*
X153093186Y-68566392D01*
X153207314Y-68500500D01*
X153300500Y-68407314D01*
X153366392Y-68293186D01*
X153400500Y-68165892D01*
X153400500Y-68034108D01*
X153366392Y-67906814D01*
X153300500Y-67792686D01*
X153207314Y-67699500D01*
X153150250Y-67666554D01*
X153093187Y-67633608D01*
X153029539Y-67616554D01*
X152965892Y-67599500D01*
X152834108Y-67599500D01*
X152706812Y-67633608D01*
X152592686Y-67699500D01*
X152592683Y-67699502D01*
X152499502Y-67792683D01*
X152499500Y-67792686D01*
X152433608Y-67906812D01*
X152399500Y-68034108D01*
X113400500Y-68034108D01*
X113400500Y-66784108D01*
X166599500Y-66784108D01*
X166599500Y-66915892D01*
X166612564Y-66964647D01*
X166633608Y-67043187D01*
X166666554Y-67100250D01*
X166699500Y-67157314D01*
X166792686Y-67250500D01*
X166906814Y-67316392D01*
X166958441Y-67330225D01*
X167018102Y-67366590D01*
X167048631Y-67429437D01*
X167040336Y-67498812D01*
X166995851Y-67552690D01*
X166958442Y-67569774D01*
X166940666Y-67574537D01*
X166906812Y-67583608D01*
X166792686Y-67649500D01*
X166792683Y-67649502D01*
X166699502Y-67742683D01*
X166699500Y-67742686D01*
X166633608Y-67856812D01*
X166599500Y-67984108D01*
X166599500Y-68115891D01*
X166633608Y-68243187D01*
X166662476Y-68293186D01*
X166699500Y-68357314D01*
X166792686Y-68450500D01*
X166906814Y-68516392D01*
X166958441Y-68530225D01*
X167018102Y-68566590D01*
X167048631Y-68629437D01*
X167040336Y-68698812D01*
X166995851Y-68752690D01*
X166958442Y-68769774D01*
X166940666Y-68774537D01*
X166906812Y-68783608D01*
X166792686Y-68849500D01*
X166792683Y-68849502D01*
X166699502Y-68942683D01*
X166699500Y-68942686D01*
X166633608Y-69056812D01*
X166599500Y-69184108D01*
X166599500Y-69315891D01*
X166633608Y-69443187D01*
X166645999Y-69464648D01*
X166699500Y-69557314D01*
X166792686Y-69650500D01*
X166906814Y-69716392D01*
X167034108Y-69750500D01*
X167034110Y-69750500D01*
X167165890Y-69750500D01*
X167165892Y-69750500D01*
X167293186Y-69716392D01*
X167407314Y-69650500D01*
X167500500Y-69557314D01*
X167566392Y-69443186D01*
X167600500Y-69315892D01*
X167600500Y-69184108D01*
X167566392Y-69056814D01*
X167500500Y-68942686D01*
X167407314Y-68849500D01*
X167350250Y-68816554D01*
X167293187Y-68783608D01*
X167276259Y-68779072D01*
X167241556Y-68769774D01*
X167181897Y-68733410D01*
X167151368Y-68670564D01*
X167159662Y-68601188D01*
X167204147Y-68547310D01*
X167241555Y-68530226D01*
X167293186Y-68516392D01*
X167407314Y-68450500D01*
X167500500Y-68357314D01*
X167566392Y-68243186D01*
X167600500Y-68115892D01*
X167600500Y-67984108D01*
X167566392Y-67856814D01*
X167500500Y-67742686D01*
X167407314Y-67649500D01*
X167320712Y-67599500D01*
X167293187Y-67583608D01*
X167276259Y-67579072D01*
X167241556Y-67569774D01*
X167181897Y-67533410D01*
X167151368Y-67470564D01*
X167159662Y-67401188D01*
X167204147Y-67347310D01*
X167241555Y-67330226D01*
X167293186Y-67316392D01*
X167407314Y-67250500D01*
X167500500Y-67157314D01*
X167566392Y-67043186D01*
X167600500Y-66915892D01*
X167600500Y-66784108D01*
X167566392Y-66656814D01*
X167500500Y-66542686D01*
X167407314Y-66449500D01*
X167350250Y-66416554D01*
X167293187Y-66383608D01*
X167229539Y-66366554D01*
X167165892Y-66349500D01*
X167034108Y-66349500D01*
X166906812Y-66383608D01*
X166792686Y-66449500D01*
X166792683Y-66449502D01*
X166699502Y-66542683D01*
X166699500Y-66542686D01*
X166633608Y-66656812D01*
X166599500Y-66784108D01*
X113400500Y-66784108D01*
X113400500Y-65534108D01*
X166599500Y-65534108D01*
X166599500Y-65665892D01*
X166616554Y-65729539D01*
X166633608Y-65793187D01*
X166666554Y-65850250D01*
X166699500Y-65907314D01*
X166792686Y-66000500D01*
X166906814Y-66066392D01*
X167034108Y-66100500D01*
X167034110Y-66100500D01*
X167165890Y-66100500D01*
X167165892Y-66100500D01*
X167293186Y-66066392D01*
X167407314Y-66000500D01*
X167500500Y-65907314D01*
X167566392Y-65793186D01*
X167600500Y-65665892D01*
X167600500Y-65534108D01*
X167566392Y-65406814D01*
X167500500Y-65292686D01*
X167407314Y-65199500D01*
X167359079Y-65171651D01*
X167293187Y-65133608D01*
X167201757Y-65109110D01*
X167201750Y-65109108D01*
X181849500Y-65109108D01*
X181849500Y-65240891D01*
X181883608Y-65368187D01*
X181905909Y-65406812D01*
X181949500Y-65482314D01*
X182042686Y-65575500D01*
X182156814Y-65641392D01*
X182284108Y-65675500D01*
X182284110Y-65675500D01*
X182415890Y-65675500D01*
X182415892Y-65675500D01*
X182543186Y-65641392D01*
X182657314Y-65575500D01*
X182750500Y-65482314D01*
X182816392Y-65368186D01*
X182850500Y-65240892D01*
X182850500Y-65109108D01*
X182816392Y-64981814D01*
X182750500Y-64867686D01*
X182657314Y-64774500D01*
X182600250Y-64741554D01*
X182543187Y-64708608D01*
X182479539Y-64691554D01*
X182415892Y-64674500D01*
X182284108Y-64674500D01*
X182156812Y-64708608D01*
X182042686Y-64774500D01*
X182042683Y-64774502D01*
X181949502Y-64867683D01*
X181949500Y-64867686D01*
X181883608Y-64981812D01*
X181849500Y-65109108D01*
X167201750Y-65109108D01*
X167165892Y-65099500D01*
X167034108Y-65099500D01*
X166906812Y-65133608D01*
X166792686Y-65199500D01*
X166792683Y-65199502D01*
X166699502Y-65292683D01*
X166699500Y-65292686D01*
X166633608Y-65406812D01*
X166610087Y-65494595D01*
X166599500Y-65534108D01*
X113400500Y-65534108D01*
X113400500Y-62659108D01*
X181849500Y-62659108D01*
X181849500Y-62790892D01*
X181866554Y-62854539D01*
X181883608Y-62918187D01*
X181916554Y-62975250D01*
X181949500Y-63032314D01*
X182042686Y-63125500D01*
X182156814Y-63191392D01*
X182284108Y-63225500D01*
X182284110Y-63225500D01*
X182415890Y-63225500D01*
X182415892Y-63225500D01*
X182543186Y-63191392D01*
X182657314Y-63125500D01*
X182750500Y-63032314D01*
X182816392Y-62918186D01*
X182850500Y-62790892D01*
X182850500Y-62659108D01*
X182816392Y-62531814D01*
X182750500Y-62417686D01*
X182657314Y-62324500D01*
X182596718Y-62289515D01*
X182543187Y-62258608D01*
X182479539Y-62241554D01*
X182415892Y-62224500D01*
X182284108Y-62224500D01*
X182156812Y-62258608D01*
X182042686Y-62324500D01*
X182042683Y-62324502D01*
X181949502Y-62417683D01*
X181949500Y-62417686D01*
X181883608Y-62531812D01*
X181870569Y-62580476D01*
X181849500Y-62659108D01*
X113400500Y-62659108D01*
X113400500Y-60934108D01*
X159499500Y-60934108D01*
X159499500Y-61065891D01*
X159533608Y-61193187D01*
X159565496Y-61248417D01*
X159599500Y-61307314D01*
X159692686Y-61400500D01*
X159806814Y-61466392D01*
X159934108Y-61500500D01*
X159934110Y-61500500D01*
X160065890Y-61500500D01*
X160065892Y-61500500D01*
X160193186Y-61466392D01*
X160307314Y-61400500D01*
X160400500Y-61307314D01*
X160466392Y-61193186D01*
X160500500Y-61065892D01*
X160500500Y-60934108D01*
X160999500Y-60934108D01*
X160999500Y-61065891D01*
X161033608Y-61193187D01*
X161065496Y-61248417D01*
X161099500Y-61307314D01*
X161192686Y-61400500D01*
X161306814Y-61466392D01*
X161434108Y-61500500D01*
X161434110Y-61500500D01*
X161565890Y-61500500D01*
X161565892Y-61500500D01*
X161693186Y-61466392D01*
X161807314Y-61400500D01*
X161900500Y-61307314D01*
X161966392Y-61193186D01*
X162000500Y-61065892D01*
X162000500Y-60934108D01*
X162499500Y-60934108D01*
X162499500Y-61065891D01*
X162533608Y-61193187D01*
X162565496Y-61248417D01*
X162599500Y-61307314D01*
X162692686Y-61400500D01*
X162806814Y-61466392D01*
X162934108Y-61500500D01*
X162934110Y-61500500D01*
X163065890Y-61500500D01*
X163065892Y-61500500D01*
X163193186Y-61466392D01*
X163307314Y-61400500D01*
X163400500Y-61307314D01*
X163466392Y-61193186D01*
X163500500Y-61065892D01*
X163500500Y-60934108D01*
X163466392Y-60806814D01*
X163400500Y-60692686D01*
X163307314Y-60599500D01*
X163250250Y-60566554D01*
X163193187Y-60533608D01*
X163127061Y-60515890D01*
X163065892Y-60499500D01*
X162934108Y-60499500D01*
X162806812Y-60533608D01*
X162692686Y-60599500D01*
X162692683Y-60599502D01*
X162599502Y-60692683D01*
X162599500Y-60692686D01*
X162533608Y-60806812D01*
X162499500Y-60934108D01*
X162000500Y-60934108D01*
X161966392Y-60806814D01*
X161900500Y-60692686D01*
X161807314Y-60599500D01*
X161750250Y-60566554D01*
X161693187Y-60533608D01*
X161627061Y-60515890D01*
X161565892Y-60499500D01*
X161434108Y-60499500D01*
X161306812Y-60533608D01*
X161192686Y-60599500D01*
X161192683Y-60599502D01*
X161099502Y-60692683D01*
X161099500Y-60692686D01*
X161033608Y-60806812D01*
X160999500Y-60934108D01*
X160500500Y-60934108D01*
X160466392Y-60806814D01*
X160400500Y-60692686D01*
X160307314Y-60599500D01*
X160250250Y-60566554D01*
X160193187Y-60533608D01*
X160127061Y-60515890D01*
X160065892Y-60499500D01*
X159934108Y-60499500D01*
X159806812Y-60533608D01*
X159692686Y-60599500D01*
X159692683Y-60599502D01*
X159599502Y-60692683D01*
X159599500Y-60692686D01*
X159533608Y-60806812D01*
X159499500Y-60934108D01*
X113400500Y-60934108D01*
X113400500Y-60384108D01*
X171109500Y-60384108D01*
X171109500Y-60515892D01*
X171125472Y-60575500D01*
X171143608Y-60643187D01*
X171172185Y-60692683D01*
X171209500Y-60757314D01*
X171302686Y-60850500D01*
X171416814Y-60916392D01*
X171544108Y-60950500D01*
X171544110Y-60950500D01*
X171675890Y-60950500D01*
X171675892Y-60950500D01*
X171803186Y-60916392D01*
X171917314Y-60850500D01*
X172010500Y-60757314D01*
X172076392Y-60643186D01*
X172110500Y-60515892D01*
X172110500Y-60384108D01*
X172076392Y-60256814D01*
X172010500Y-60142686D01*
X171976922Y-60109108D01*
X181849500Y-60109108D01*
X181849500Y-60240891D01*
X181883608Y-60368187D01*
X181916554Y-60425250D01*
X181949500Y-60482314D01*
X182042686Y-60575500D01*
X182156814Y-60641392D01*
X182284108Y-60675500D01*
X182284110Y-60675500D01*
X182415890Y-60675500D01*
X182415892Y-60675500D01*
X182543186Y-60641392D01*
X182657314Y-60575500D01*
X182750500Y-60482314D01*
X182816392Y-60368186D01*
X182850500Y-60240892D01*
X182850500Y-60109108D01*
X182816392Y-59981814D01*
X182750500Y-59867686D01*
X182657314Y-59774500D01*
X182600250Y-59741554D01*
X182543187Y-59708608D01*
X182479539Y-59691554D01*
X182415892Y-59674500D01*
X182284108Y-59674500D01*
X182156812Y-59708608D01*
X182042686Y-59774500D01*
X182042683Y-59774502D01*
X181949502Y-59867683D01*
X181949500Y-59867686D01*
X181883608Y-59981812D01*
X181849500Y-60109108D01*
X171976922Y-60109108D01*
X171917314Y-60049500D01*
X171832442Y-60000499D01*
X171803187Y-59983608D01*
X171724450Y-59962511D01*
X171675892Y-59949500D01*
X171544108Y-59949500D01*
X171416812Y-59983608D01*
X171302686Y-60049500D01*
X171302683Y-60049502D01*
X171209502Y-60142683D01*
X171209500Y-60142686D01*
X171143608Y-60256812D01*
X171122564Y-60335351D01*
X171109500Y-60384108D01*
X113400500Y-60384108D01*
X113400500Y-59434108D01*
X159499500Y-59434108D01*
X159499500Y-59565892D01*
X159503414Y-59580499D01*
X159533608Y-59693187D01*
X159548814Y-59719524D01*
X159599500Y-59807314D01*
X159692686Y-59900500D01*
X159806814Y-59966392D01*
X159934108Y-60000500D01*
X159934110Y-60000500D01*
X160065890Y-60000500D01*
X160065892Y-60000500D01*
X160193186Y-59966392D01*
X160307314Y-59900500D01*
X160400500Y-59807314D01*
X160466392Y-59693186D01*
X160500500Y-59565892D01*
X160500500Y-59434108D01*
X160999500Y-59434108D01*
X160999500Y-59565892D01*
X161003414Y-59580499D01*
X161033608Y-59693187D01*
X161048814Y-59719524D01*
X161099500Y-59807314D01*
X161192686Y-59900500D01*
X161306814Y-59966392D01*
X161434108Y-60000500D01*
X161434110Y-60000500D01*
X161565890Y-60000500D01*
X161565892Y-60000500D01*
X161693186Y-59966392D01*
X161807314Y-59900500D01*
X161900500Y-59807314D01*
X161966392Y-59693186D01*
X162000500Y-59565892D01*
X162000500Y-59434108D01*
X162499500Y-59434108D01*
X162499500Y-59565892D01*
X162503414Y-59580499D01*
X162533608Y-59693187D01*
X162548814Y-59719524D01*
X162599500Y-59807314D01*
X162692686Y-59900500D01*
X162806814Y-59966392D01*
X162934108Y-60000500D01*
X162934110Y-60000500D01*
X163065890Y-60000500D01*
X163065892Y-60000500D01*
X163193186Y-59966392D01*
X163307314Y-59900500D01*
X163400500Y-59807314D01*
X163466392Y-59693186D01*
X163500500Y-59565892D01*
X163500500Y-59434108D01*
X163466392Y-59306814D01*
X163400500Y-59192686D01*
X163321922Y-59114108D01*
X171109500Y-59114108D01*
X171109500Y-59245891D01*
X171143608Y-59373187D01*
X171176554Y-59430250D01*
X171209500Y-59487314D01*
X171302686Y-59580500D01*
X171416814Y-59646392D01*
X171544108Y-59680500D01*
X171544110Y-59680500D01*
X171675890Y-59680500D01*
X171675892Y-59680500D01*
X171803186Y-59646392D01*
X171917314Y-59580500D01*
X172010500Y-59487314D01*
X172076392Y-59373186D01*
X172110500Y-59245892D01*
X172110500Y-59114108D01*
X172076392Y-58986814D01*
X172010500Y-58872686D01*
X171917314Y-58779500D01*
X171860250Y-58746554D01*
X171803187Y-58713608D01*
X171739539Y-58696554D01*
X171675892Y-58679500D01*
X171544108Y-58679500D01*
X171416812Y-58713608D01*
X171302686Y-58779500D01*
X171302683Y-58779502D01*
X171209502Y-58872683D01*
X171209500Y-58872686D01*
X171143608Y-58986812D01*
X171109500Y-59114108D01*
X163321922Y-59114108D01*
X163307314Y-59099500D01*
X163250250Y-59066554D01*
X163193187Y-59033608D01*
X163129539Y-59016554D01*
X163065892Y-58999500D01*
X162934108Y-58999500D01*
X162806812Y-59033608D01*
X162692686Y-59099500D01*
X162692683Y-59099502D01*
X162599502Y-59192683D01*
X162599500Y-59192686D01*
X162533608Y-59306812D01*
X162499500Y-59434108D01*
X162000500Y-59434108D01*
X161966392Y-59306814D01*
X161900500Y-59192686D01*
X161807314Y-59099500D01*
X161750250Y-59066554D01*
X161693187Y-59033608D01*
X161629539Y-59016554D01*
X161565892Y-58999500D01*
X161434108Y-58999500D01*
X161306812Y-59033608D01*
X161192686Y-59099500D01*
X161192683Y-59099502D01*
X161099502Y-59192683D01*
X161099500Y-59192686D01*
X161033608Y-59306812D01*
X160999500Y-59434108D01*
X160500500Y-59434108D01*
X160466392Y-59306814D01*
X160400500Y-59192686D01*
X160307314Y-59099500D01*
X160250250Y-59066554D01*
X160193187Y-59033608D01*
X160129539Y-59016554D01*
X160065892Y-58999500D01*
X159934108Y-58999500D01*
X159806812Y-59033608D01*
X159692686Y-59099500D01*
X159692683Y-59099502D01*
X159599502Y-59192683D01*
X159599500Y-59192686D01*
X159533608Y-59306812D01*
X159499500Y-59434108D01*
X113400500Y-59434108D01*
X113400500Y-58551577D01*
X185749500Y-58551577D01*
X185749500Y-58748422D01*
X185780290Y-58942826D01*
X185841117Y-59130029D01*
X185930476Y-59305405D01*
X186046172Y-59464646D01*
X186185354Y-59603828D01*
X186344595Y-59719524D01*
X186413613Y-59754690D01*
X186481960Y-59789515D01*
X186532756Y-59837490D01*
X186549551Y-59905311D01*
X186527014Y-59971446D01*
X186481960Y-60010485D01*
X186344594Y-60080476D01*
X186258975Y-60142683D01*
X186185354Y-60196172D01*
X186185352Y-60196174D01*
X186185351Y-60196174D01*
X186046174Y-60335351D01*
X186046174Y-60335352D01*
X186046172Y-60335354D01*
X185996485Y-60403741D01*
X185930476Y-60494594D01*
X185841117Y-60669970D01*
X185780290Y-60857173D01*
X185749500Y-61051577D01*
X185749500Y-61248422D01*
X185780290Y-61442826D01*
X185841117Y-61630029D01*
X185930476Y-61805405D01*
X186046172Y-61964646D01*
X186185354Y-62103828D01*
X186344595Y-62219524D01*
X186413613Y-62254690D01*
X186481960Y-62289515D01*
X186532756Y-62337490D01*
X186549551Y-62405311D01*
X186527014Y-62471446D01*
X186481960Y-62510485D01*
X186344594Y-62580476D01*
X186253741Y-62646485D01*
X186185354Y-62696172D01*
X186185352Y-62696174D01*
X186185351Y-62696174D01*
X186046174Y-62835351D01*
X186046174Y-62835352D01*
X186046172Y-62835354D01*
X185996485Y-62903741D01*
X185930476Y-62994594D01*
X185841117Y-63169970D01*
X185780290Y-63357173D01*
X185749500Y-63551577D01*
X185749500Y-63748422D01*
X185780290Y-63942826D01*
X185841117Y-64130029D01*
X185930476Y-64305405D01*
X186046172Y-64464646D01*
X186185354Y-64603828D01*
X186344595Y-64719524D01*
X186413613Y-64754690D01*
X186481960Y-64789515D01*
X186532756Y-64837490D01*
X186549551Y-64905311D01*
X186527014Y-64971446D01*
X186481960Y-65010485D01*
X186344594Y-65080476D01*
X186271465Y-65133608D01*
X186185354Y-65196172D01*
X186185352Y-65196174D01*
X186185351Y-65196174D01*
X186046174Y-65335351D01*
X186046174Y-65335352D01*
X186046172Y-65335354D01*
X185996485Y-65403741D01*
X185930476Y-65494594D01*
X185841117Y-65669970D01*
X185780290Y-65857173D01*
X185749500Y-66051577D01*
X185749500Y-66248422D01*
X185780290Y-66442826D01*
X185841117Y-66630029D01*
X185919625Y-66784108D01*
X185930476Y-66805405D01*
X186046172Y-66964646D01*
X186185354Y-67103828D01*
X186344595Y-67219524D01*
X186405383Y-67250497D01*
X186481960Y-67289515D01*
X186532756Y-67337490D01*
X186549551Y-67405311D01*
X186527014Y-67471446D01*
X186481960Y-67510485D01*
X186344594Y-67580476D01*
X186271465Y-67633608D01*
X186185354Y-67696172D01*
X186185352Y-67696174D01*
X186185351Y-67696174D01*
X186046174Y-67835351D01*
X186046174Y-67835352D01*
X186046172Y-67835354D01*
X185996485Y-67903741D01*
X185930476Y-67994594D01*
X185841117Y-68169970D01*
X185780290Y-68357173D01*
X185749500Y-68551577D01*
X185749500Y-68748422D01*
X185780290Y-68942826D01*
X185841117Y-69130029D01*
X185930476Y-69305405D01*
X186046172Y-69464646D01*
X186185354Y-69603828D01*
X186344595Y-69719524D01*
X186405387Y-69750499D01*
X186481960Y-69789515D01*
X186532756Y-69837490D01*
X186549551Y-69905311D01*
X186527014Y-69971446D01*
X186481960Y-70010485D01*
X186344594Y-70080476D01*
X186271465Y-70133608D01*
X186185354Y-70196172D01*
X186185352Y-70196174D01*
X186185351Y-70196174D01*
X186046174Y-70335351D01*
X186046174Y-70335352D01*
X186046172Y-70335354D01*
X185996485Y-70403741D01*
X185930476Y-70494594D01*
X185841117Y-70669970D01*
X185780290Y-70857173D01*
X185749500Y-71051577D01*
X185749500Y-71248422D01*
X185780290Y-71442826D01*
X185841117Y-71630029D01*
X185912844Y-71770800D01*
X185930476Y-71805405D01*
X186046172Y-71964646D01*
X186185354Y-72103828D01*
X186344595Y-72219524D01*
X186427455Y-72261743D01*
X186519970Y-72308882D01*
X186519972Y-72308882D01*
X186519975Y-72308884D01*
X186620317Y-72341487D01*
X186707173Y-72369709D01*
X186901578Y-72400500D01*
X186901583Y-72400500D01*
X187098422Y-72400500D01*
X187292826Y-72369709D01*
X187480025Y-72308884D01*
X187655405Y-72219524D01*
X187814646Y-72103828D01*
X187953828Y-71964646D01*
X188069524Y-71805405D01*
X188158884Y-71630025D01*
X188219709Y-71442826D01*
X188229620Y-71380249D01*
X188250500Y-71248422D01*
X188250500Y-71051577D01*
X188219709Y-70857173D01*
X188158882Y-70669970D01*
X188089658Y-70534110D01*
X188069524Y-70494595D01*
X187953828Y-70335354D01*
X187814646Y-70196172D01*
X187655405Y-70080476D01*
X187518038Y-70010484D01*
X187467243Y-69962511D01*
X187450448Y-69894690D01*
X187472985Y-69828555D01*
X187518039Y-69789515D01*
X187655405Y-69719524D01*
X187814646Y-69603828D01*
X187953828Y-69464646D01*
X188069524Y-69305405D01*
X188158884Y-69130025D01*
X188219709Y-68942826D01*
X188234490Y-68849502D01*
X188250500Y-68748422D01*
X188250500Y-68551577D01*
X188219709Y-68357173D01*
X188158882Y-68169970D01*
X188089658Y-68034110D01*
X188069524Y-67994595D01*
X187953828Y-67835354D01*
X187814646Y-67696172D01*
X187655405Y-67580476D01*
X187518038Y-67510484D01*
X187467243Y-67462511D01*
X187450448Y-67394690D01*
X187472985Y-67328555D01*
X187518039Y-67289515D01*
X187655405Y-67219524D01*
X187814646Y-67103828D01*
X187953828Y-66964646D01*
X188069524Y-66805405D01*
X188158884Y-66630025D01*
X188219709Y-66442826D01*
X188229088Y-66383608D01*
X188250500Y-66248422D01*
X188250500Y-66051577D01*
X188219709Y-65857173D01*
X188158882Y-65669970D01*
X188089658Y-65534110D01*
X188069524Y-65494595D01*
X187953828Y-65335354D01*
X187814646Y-65196172D01*
X187655405Y-65080476D01*
X187518038Y-65010484D01*
X187467243Y-64962511D01*
X187450448Y-64894690D01*
X187472985Y-64828555D01*
X187518039Y-64789515D01*
X187655405Y-64719524D01*
X187814646Y-64603828D01*
X187953828Y-64464646D01*
X188069524Y-64305405D01*
X188158884Y-64130025D01*
X188219709Y-63942826D01*
X188250500Y-63748422D01*
X188250500Y-63551577D01*
X188219709Y-63357173D01*
X188165843Y-63191392D01*
X188158884Y-63169975D01*
X188158882Y-63169972D01*
X188158882Y-63169970D01*
X188111743Y-63077455D01*
X188069524Y-62994595D01*
X187953828Y-62835354D01*
X187814646Y-62696172D01*
X187655405Y-62580476D01*
X187518038Y-62510484D01*
X187467243Y-62462511D01*
X187450448Y-62394690D01*
X187472985Y-62328555D01*
X187518039Y-62289515D01*
X187655405Y-62219524D01*
X187814646Y-62103828D01*
X187953828Y-61964646D01*
X188069524Y-61805405D01*
X188158884Y-61630025D01*
X188219709Y-61442826D01*
X188226413Y-61400497D01*
X188250500Y-61248422D01*
X188250500Y-61051577D01*
X188219709Y-60857173D01*
X188158882Y-60669970D01*
X188080375Y-60515892D01*
X188069524Y-60494595D01*
X187953828Y-60335354D01*
X187814646Y-60196172D01*
X187655405Y-60080476D01*
X187518038Y-60010484D01*
X187467243Y-59962511D01*
X187450448Y-59894690D01*
X187472985Y-59828555D01*
X187518039Y-59789515D01*
X187655405Y-59719524D01*
X187814646Y-59603828D01*
X187953828Y-59464646D01*
X188069524Y-59305405D01*
X188158884Y-59130025D01*
X188219709Y-58942826D01*
X188230818Y-58872686D01*
X188250500Y-58748422D01*
X188250500Y-58551577D01*
X188219709Y-58357173D01*
X188158882Y-58169970D01*
X188110745Y-58075497D01*
X188069524Y-57994595D01*
X187953828Y-57835354D01*
X187814646Y-57696172D01*
X187655405Y-57580476D01*
X187594611Y-57549500D01*
X187480029Y-57491117D01*
X187292826Y-57430290D01*
X187098422Y-57399500D01*
X187098417Y-57399500D01*
X186901583Y-57399500D01*
X186901578Y-57399500D01*
X186707173Y-57430290D01*
X186519970Y-57491117D01*
X186344594Y-57580476D01*
X186258975Y-57642683D01*
X186185354Y-57696172D01*
X186185352Y-57696174D01*
X186185351Y-57696174D01*
X186046174Y-57835351D01*
X186046174Y-57835352D01*
X186046172Y-57835354D01*
X185996485Y-57903741D01*
X185930476Y-57994594D01*
X185841117Y-58169970D01*
X185780290Y-58357173D01*
X185749500Y-58551577D01*
X113400500Y-58551577D01*
X113400500Y-57784108D01*
X133849500Y-57784108D01*
X133849500Y-57915891D01*
X133883608Y-58043187D01*
X133916554Y-58100250D01*
X133949500Y-58157314D01*
X134042686Y-58250500D01*
X134141521Y-58307563D01*
X134146603Y-58310497D01*
X134156814Y-58316392D01*
X134284108Y-58350500D01*
X134284110Y-58350500D01*
X134415890Y-58350500D01*
X134415892Y-58350500D01*
X134543186Y-58316392D01*
X134657314Y-58250500D01*
X134750500Y-58157314D01*
X134816392Y-58043186D01*
X134850500Y-57915892D01*
X134850500Y-57884108D01*
X159499500Y-57884108D01*
X159499500Y-58015892D01*
X159515472Y-58075500D01*
X159533608Y-58143187D01*
X159566554Y-58200250D01*
X159599500Y-58257314D01*
X159692686Y-58350500D01*
X159791521Y-58407563D01*
X159806810Y-58416390D01*
X159806814Y-58416392D01*
X159934108Y-58450500D01*
X159934110Y-58450500D01*
X160065890Y-58450500D01*
X160065892Y-58450500D01*
X160193186Y-58416392D01*
X160307314Y-58350500D01*
X160400500Y-58257314D01*
X160466392Y-58143186D01*
X160500500Y-58015892D01*
X160500500Y-57884108D01*
X160999500Y-57884108D01*
X160999500Y-58015892D01*
X161015472Y-58075500D01*
X161033608Y-58143187D01*
X161066554Y-58200250D01*
X161099500Y-58257314D01*
X161192686Y-58350500D01*
X161291521Y-58407563D01*
X161306810Y-58416390D01*
X161306814Y-58416392D01*
X161434108Y-58450500D01*
X161434110Y-58450500D01*
X161565890Y-58450500D01*
X161565892Y-58450500D01*
X161693186Y-58416392D01*
X161807314Y-58350500D01*
X161900500Y-58257314D01*
X161966392Y-58143186D01*
X162000500Y-58015892D01*
X162000500Y-57884108D01*
X162499500Y-57884108D01*
X162499500Y-58015892D01*
X162515472Y-58075500D01*
X162533608Y-58143187D01*
X162566554Y-58200250D01*
X162599500Y-58257314D01*
X162692686Y-58350500D01*
X162791521Y-58407563D01*
X162806810Y-58416390D01*
X162806814Y-58416392D01*
X162934108Y-58450500D01*
X162934110Y-58450500D01*
X163065890Y-58450500D01*
X163065892Y-58450500D01*
X163193186Y-58416392D01*
X163307314Y-58350500D01*
X163400500Y-58257314D01*
X163466392Y-58143186D01*
X163500500Y-58015892D01*
X163500500Y-57884108D01*
X163489782Y-57844108D01*
X171109500Y-57844108D01*
X171109500Y-57975892D01*
X171120217Y-58015890D01*
X171143608Y-58103187D01*
X171174858Y-58157313D01*
X171209500Y-58217314D01*
X171302686Y-58310500D01*
X171416814Y-58376392D01*
X171544108Y-58410500D01*
X171544110Y-58410500D01*
X171675890Y-58410500D01*
X171675892Y-58410500D01*
X171803186Y-58376392D01*
X171917314Y-58310500D01*
X172010500Y-58217314D01*
X172076392Y-58103186D01*
X172110500Y-57975892D01*
X172110500Y-57844108D01*
X172076392Y-57716814D01*
X172076390Y-57716810D01*
X172045313Y-57662983D01*
X172045312Y-57662982D01*
X172033592Y-57642683D01*
X172014208Y-57609108D01*
X181874500Y-57609108D01*
X181874500Y-57740891D01*
X181908608Y-57868187D01*
X181936151Y-57915892D01*
X181974500Y-57982314D01*
X182067686Y-58075500D01*
X182181814Y-58141392D01*
X182309108Y-58175500D01*
X182309110Y-58175500D01*
X182440890Y-58175500D01*
X182440892Y-58175500D01*
X182568186Y-58141392D01*
X182682314Y-58075500D01*
X182775500Y-57982314D01*
X182841392Y-57868186D01*
X182875500Y-57740892D01*
X182875500Y-57609108D01*
X182841392Y-57481814D01*
X182775500Y-57367686D01*
X182682314Y-57274500D01*
X182625250Y-57241554D01*
X182568187Y-57208608D01*
X182504539Y-57191554D01*
X182440892Y-57174500D01*
X182309108Y-57174500D01*
X182181812Y-57208608D01*
X182067686Y-57274500D01*
X182067683Y-57274502D01*
X181974502Y-57367683D01*
X181974500Y-57367686D01*
X181908608Y-57481812D01*
X181874500Y-57609108D01*
X172014208Y-57609108D01*
X172010500Y-57602686D01*
X171917314Y-57509500D01*
X171860250Y-57476554D01*
X171803187Y-57443608D01*
X171739539Y-57426554D01*
X171675892Y-57409500D01*
X171544108Y-57409500D01*
X171416812Y-57443608D01*
X171302686Y-57509500D01*
X171302683Y-57509502D01*
X171209502Y-57602683D01*
X171209500Y-57602686D01*
X171143608Y-57716812D01*
X171132890Y-57756814D01*
X171109500Y-57844108D01*
X163489782Y-57844108D01*
X163466392Y-57756814D01*
X163400500Y-57642686D01*
X163307314Y-57549500D01*
X163238032Y-57509500D01*
X163193187Y-57483608D01*
X163129539Y-57466554D01*
X163065892Y-57449500D01*
X162934108Y-57449500D01*
X162806812Y-57483608D01*
X162692686Y-57549500D01*
X162692683Y-57549502D01*
X162599502Y-57642683D01*
X162599500Y-57642686D01*
X162533608Y-57756812D01*
X162526294Y-57784110D01*
X162499500Y-57884108D01*
X162000500Y-57884108D01*
X161966392Y-57756814D01*
X161900500Y-57642686D01*
X161807314Y-57549500D01*
X161738032Y-57509500D01*
X161693187Y-57483608D01*
X161629539Y-57466554D01*
X161565892Y-57449500D01*
X161434108Y-57449500D01*
X161306812Y-57483608D01*
X161192686Y-57549500D01*
X161192683Y-57549502D01*
X161099502Y-57642683D01*
X161099500Y-57642686D01*
X161033608Y-57756812D01*
X161026294Y-57784110D01*
X160999500Y-57884108D01*
X160500500Y-57884108D01*
X160466392Y-57756814D01*
X160400500Y-57642686D01*
X160307314Y-57549500D01*
X160238032Y-57509500D01*
X160193187Y-57483608D01*
X160129539Y-57466554D01*
X160065892Y-57449500D01*
X159934108Y-57449500D01*
X159806812Y-57483608D01*
X159692686Y-57549500D01*
X159692683Y-57549502D01*
X159599502Y-57642683D01*
X159599500Y-57642686D01*
X159533608Y-57756812D01*
X159526294Y-57784110D01*
X159499500Y-57884108D01*
X134850500Y-57884108D01*
X134850500Y-57784108D01*
X134816392Y-57656814D01*
X134750500Y-57542686D01*
X134657314Y-57449500D01*
X134570712Y-57399500D01*
X134543187Y-57383608D01*
X134479539Y-57366554D01*
X134415892Y-57349500D01*
X134284108Y-57349500D01*
X134156812Y-57383608D01*
X134042686Y-57449500D01*
X134042683Y-57449502D01*
X133949502Y-57542683D01*
X133949500Y-57542686D01*
X133883608Y-57656812D01*
X133849500Y-57784108D01*
X113400500Y-57784108D01*
X113400500Y-56309108D01*
X126749500Y-56309108D01*
X126749500Y-56440891D01*
X126783608Y-56568187D01*
X126792801Y-56584109D01*
X126849500Y-56682314D01*
X126942686Y-56775500D01*
X127056814Y-56841392D01*
X127184108Y-56875500D01*
X127184110Y-56875500D01*
X127315890Y-56875500D01*
X127315892Y-56875500D01*
X127443186Y-56841392D01*
X127557314Y-56775500D01*
X127650500Y-56682314D01*
X127707199Y-56584108D01*
X155049500Y-56584108D01*
X155049500Y-56715892D01*
X155065472Y-56775500D01*
X155083608Y-56843187D01*
X155116554Y-56900250D01*
X155149500Y-56957314D01*
X155242686Y-57050500D01*
X155356814Y-57116392D01*
X155484108Y-57150500D01*
X155484110Y-57150500D01*
X155615890Y-57150500D01*
X155615892Y-57150500D01*
X155743186Y-57116392D01*
X155857314Y-57050500D01*
X155950500Y-56957314D01*
X156016392Y-56843186D01*
X156050500Y-56715892D01*
X156050500Y-56584108D01*
X156047821Y-56574108D01*
X171109500Y-56574108D01*
X171109500Y-56705892D01*
X171126554Y-56769539D01*
X171143608Y-56833187D01*
X171149382Y-56843187D01*
X171209500Y-56947314D01*
X171302686Y-57040500D01*
X171416814Y-57106392D01*
X171544108Y-57140500D01*
X171544110Y-57140500D01*
X171675890Y-57140500D01*
X171675892Y-57140500D01*
X171803186Y-57106392D01*
X171917314Y-57040500D01*
X172010500Y-56947314D01*
X172076392Y-56833186D01*
X172110500Y-56705892D01*
X172110500Y-56574108D01*
X172076392Y-56446814D01*
X172010500Y-56332686D01*
X171917314Y-56239500D01*
X171860250Y-56206554D01*
X171803187Y-56173608D01*
X171739539Y-56156554D01*
X171675892Y-56139500D01*
X171544108Y-56139500D01*
X171416812Y-56173608D01*
X171302686Y-56239500D01*
X171302683Y-56239502D01*
X171209502Y-56332683D01*
X171209500Y-56332686D01*
X171143608Y-56446812D01*
X171109500Y-56574108D01*
X156047821Y-56574108D01*
X156016392Y-56456814D01*
X156010618Y-56446814D01*
X156007198Y-56440890D01*
X155950500Y-56342686D01*
X155857314Y-56249500D01*
X155800250Y-56216554D01*
X155743187Y-56183608D01*
X155679539Y-56166554D01*
X155615892Y-56149500D01*
X155484108Y-56149500D01*
X155356812Y-56183608D01*
X155242686Y-56249500D01*
X155242683Y-56249502D01*
X155149502Y-56342683D01*
X155149500Y-56342686D01*
X155083608Y-56456812D01*
X155060277Y-56543888D01*
X155049500Y-56584108D01*
X127707199Y-56584108D01*
X127716392Y-56568186D01*
X127750500Y-56440892D01*
X127750500Y-56309108D01*
X127716392Y-56181814D01*
X127650500Y-56067686D01*
X127557314Y-55974500D01*
X127500250Y-55941554D01*
X127443187Y-55908608D01*
X127379539Y-55891554D01*
X127315892Y-55874500D01*
X127184108Y-55874500D01*
X127056812Y-55908608D01*
X126942686Y-55974500D01*
X126942683Y-55974502D01*
X126849502Y-56067683D01*
X126849500Y-56067686D01*
X126783608Y-56181812D01*
X126749500Y-56309108D01*
X113400500Y-56309108D01*
X113400500Y-55259108D01*
X124099500Y-55259108D01*
X124099500Y-55390892D01*
X124106199Y-55415892D01*
X124133608Y-55518187D01*
X124148042Y-55543187D01*
X124199500Y-55632314D01*
X124292686Y-55725500D01*
X124406814Y-55791392D01*
X124534108Y-55825500D01*
X124534110Y-55825500D01*
X124665890Y-55825500D01*
X124665892Y-55825500D01*
X124793186Y-55791392D01*
X124907314Y-55725500D01*
X125000500Y-55632314D01*
X125066392Y-55518186D01*
X125100500Y-55390892D01*
X125100500Y-55284108D01*
X131099500Y-55284108D01*
X131099500Y-55415891D01*
X131133608Y-55543187D01*
X131162476Y-55593186D01*
X131199500Y-55657314D01*
X131292686Y-55750500D01*
X131406814Y-55816392D01*
X131534108Y-55850500D01*
X131534110Y-55850500D01*
X131665890Y-55850500D01*
X131665892Y-55850500D01*
X131793186Y-55816392D01*
X131907314Y-55750500D01*
X132000500Y-55657314D01*
X132066392Y-55543186D01*
X132100500Y-55415892D01*
X132100500Y-55284108D01*
X138379500Y-55284108D01*
X138379500Y-55415891D01*
X138413608Y-55543187D01*
X138442476Y-55593186D01*
X138479500Y-55657314D01*
X138572686Y-55750500D01*
X138686814Y-55816392D01*
X138814108Y-55850500D01*
X138814110Y-55850500D01*
X138945890Y-55850500D01*
X138945892Y-55850500D01*
X139073186Y-55816392D01*
X139187314Y-55750500D01*
X139280500Y-55657314D01*
X139346392Y-55543186D01*
X139380500Y-55415892D01*
X139380500Y-55334108D01*
X147129500Y-55334108D01*
X147129500Y-55465891D01*
X147163608Y-55593187D01*
X147186200Y-55632316D01*
X147229500Y-55707314D01*
X147322686Y-55800500D01*
X147436814Y-55866392D01*
X147564108Y-55900500D01*
X147564110Y-55900500D01*
X147695890Y-55900500D01*
X147695892Y-55900500D01*
X147823186Y-55866392D01*
X147937314Y-55800500D01*
X148030500Y-55707314D01*
X148096392Y-55593186D01*
X148130500Y-55465892D01*
X148130500Y-55334108D01*
X148096392Y-55206814D01*
X148030500Y-55092686D01*
X147937314Y-54999500D01*
X147880250Y-54966554D01*
X147823187Y-54933608D01*
X147759539Y-54916554D01*
X147695892Y-54899500D01*
X147564108Y-54899500D01*
X147436812Y-54933608D01*
X147322686Y-54999500D01*
X147322683Y-54999502D01*
X147229502Y-55092683D01*
X147229500Y-55092686D01*
X147163608Y-55206812D01*
X147129500Y-55334108D01*
X139380500Y-55334108D01*
X139380500Y-55284108D01*
X139346392Y-55156814D01*
X139280500Y-55042686D01*
X139187314Y-54949500D01*
X139100712Y-54899500D01*
X139073187Y-54883608D01*
X139009539Y-54866554D01*
X138945892Y-54849500D01*
X138814108Y-54849500D01*
X138686812Y-54883608D01*
X138572686Y-54949500D01*
X138572683Y-54949502D01*
X138479502Y-55042683D01*
X138479500Y-55042686D01*
X138413608Y-55156812D01*
X138379500Y-55284108D01*
X132100500Y-55284108D01*
X132066392Y-55156814D01*
X132000500Y-55042686D01*
X131907314Y-54949500D01*
X131820712Y-54899500D01*
X131793187Y-54883608D01*
X131729539Y-54866554D01*
X131665892Y-54849500D01*
X131534108Y-54849500D01*
X131406812Y-54883608D01*
X131292686Y-54949500D01*
X131292683Y-54949502D01*
X131199502Y-55042683D01*
X131199500Y-55042686D01*
X131133608Y-55156812D01*
X131099500Y-55284108D01*
X125100500Y-55284108D01*
X125100500Y-55259108D01*
X125066392Y-55131814D01*
X125000500Y-55017686D01*
X124907314Y-54924500D01*
X124836487Y-54883608D01*
X124793187Y-54858608D01*
X124729539Y-54841554D01*
X124665892Y-54824500D01*
X124534108Y-54824500D01*
X124406812Y-54858608D01*
X124292686Y-54924500D01*
X124292683Y-54924502D01*
X124199502Y-55017683D01*
X124199500Y-55017686D01*
X124133608Y-55131812D01*
X124113512Y-55206814D01*
X124099500Y-55259108D01*
X113400500Y-55259108D01*
X113400500Y-54034108D01*
X154809500Y-54034108D01*
X154809500Y-54165891D01*
X154843608Y-54293187D01*
X154872476Y-54343186D01*
X154909500Y-54407314D01*
X155002686Y-54500500D01*
X155116814Y-54566392D01*
X155244108Y-54600500D01*
X155244110Y-54600500D01*
X155375890Y-54600500D01*
X155375892Y-54600500D01*
X155503186Y-54566392D01*
X155617314Y-54500500D01*
X155710500Y-54407314D01*
X155776392Y-54293186D01*
X155810500Y-54165892D01*
X155810500Y-54034108D01*
X169909500Y-54034108D01*
X169909500Y-54165891D01*
X169943608Y-54293187D01*
X169972476Y-54343186D01*
X170009500Y-54407314D01*
X170102686Y-54500500D01*
X170216814Y-54566392D01*
X170344108Y-54600500D01*
X170344110Y-54600500D01*
X170475890Y-54600500D01*
X170475892Y-54600500D01*
X170603186Y-54566392D01*
X170717314Y-54500500D01*
X170810500Y-54407314D01*
X170876392Y-54293186D01*
X170910500Y-54165892D01*
X170910500Y-54034108D01*
X172309500Y-54034108D01*
X172309500Y-54165891D01*
X172343608Y-54293187D01*
X172372476Y-54343186D01*
X172409500Y-54407314D01*
X172502686Y-54500500D01*
X172616814Y-54566392D01*
X172744108Y-54600500D01*
X172744110Y-54600500D01*
X172875890Y-54600500D01*
X172875892Y-54600500D01*
X173003186Y-54566392D01*
X173117314Y-54500500D01*
X173210500Y-54407314D01*
X173276392Y-54293186D01*
X173310500Y-54165892D01*
X173310500Y-54084108D01*
X181849500Y-54084108D01*
X181849500Y-54215891D01*
X181883608Y-54343187D01*
X181916554Y-54400250D01*
X181949500Y-54457314D01*
X182042686Y-54550500D01*
X182156814Y-54616392D01*
X182284108Y-54650500D01*
X182284110Y-54650500D01*
X182415890Y-54650500D01*
X182415892Y-54650500D01*
X182543186Y-54616392D01*
X182657314Y-54550500D01*
X182750500Y-54457314D01*
X182816392Y-54343186D01*
X182850500Y-54215892D01*
X182850500Y-54084108D01*
X182816392Y-53956814D01*
X182750500Y-53842686D01*
X182657314Y-53749500D01*
X182600250Y-53716554D01*
X182543187Y-53683608D01*
X182479539Y-53666554D01*
X182415892Y-53649500D01*
X182284108Y-53649500D01*
X182156812Y-53683608D01*
X182042686Y-53749500D01*
X182042683Y-53749502D01*
X181949502Y-53842683D01*
X181949500Y-53842686D01*
X181883608Y-53956812D01*
X181849500Y-54084108D01*
X173310500Y-54084108D01*
X173310500Y-54034108D01*
X173276392Y-53906814D01*
X173210500Y-53792686D01*
X173117314Y-53699500D01*
X173030712Y-53649500D01*
X173003187Y-53633608D01*
X172916941Y-53610499D01*
X172875892Y-53599500D01*
X172744108Y-53599500D01*
X172616812Y-53633608D01*
X172502686Y-53699500D01*
X172502683Y-53699502D01*
X172409502Y-53792683D01*
X172409500Y-53792686D01*
X172343608Y-53906812D01*
X172309500Y-54034108D01*
X170910500Y-54034108D01*
X170876392Y-53906814D01*
X170810500Y-53792686D01*
X170717314Y-53699500D01*
X170630712Y-53649500D01*
X170603187Y-53633608D01*
X170516941Y-53610499D01*
X170475892Y-53599500D01*
X170344108Y-53599500D01*
X170216812Y-53633608D01*
X170102686Y-53699500D01*
X170102683Y-53699502D01*
X170009502Y-53792683D01*
X170009500Y-53792686D01*
X169943608Y-53906812D01*
X169909500Y-54034108D01*
X155810500Y-54034108D01*
X155776392Y-53906814D01*
X155710500Y-53792686D01*
X155617314Y-53699500D01*
X155530712Y-53649500D01*
X155503187Y-53633608D01*
X155416941Y-53610499D01*
X155375892Y-53599500D01*
X155244108Y-53599500D01*
X155116812Y-53633608D01*
X155002686Y-53699500D01*
X155002683Y-53699502D01*
X154909502Y-53792683D01*
X154909500Y-53792686D01*
X154843608Y-53906812D01*
X154809500Y-54034108D01*
X113400500Y-54034108D01*
X113400500Y-50613051D01*
X113400649Y-50606967D01*
X113408778Y-50441491D01*
X114149500Y-50441491D01*
X114149500Y-50778508D01*
X114187231Y-51113381D01*
X114187233Y-51113397D01*
X114262223Y-51441953D01*
X114262227Y-51441965D01*
X114373532Y-51760054D01*
X114519752Y-52063683D01*
X114566498Y-52138079D01*
X114699054Y-52349039D01*
X114787937Y-52460495D01*
X114898789Y-52599500D01*
X114909175Y-52612523D01*
X115147477Y-52850825D01*
X115410961Y-53060946D01*
X115696314Y-53240246D01*
X115999949Y-53386469D01*
X116238848Y-53470063D01*
X116318034Y-53497772D01*
X116318046Y-53497776D01*
X116646606Y-53572767D01*
X116981492Y-53610499D01*
X116981493Y-53610500D01*
X116981496Y-53610500D01*
X117318507Y-53610500D01*
X117318507Y-53610499D01*
X117653394Y-53572767D01*
X117981954Y-53497776D01*
X118300051Y-53386469D01*
X118603686Y-53240246D01*
X118665418Y-53201457D01*
X138464499Y-53201457D01*
X138492379Y-53341614D01*
X138492381Y-53341620D01*
X138547069Y-53473650D01*
X138547074Y-53473659D01*
X138626467Y-53592478D01*
X138626470Y-53592482D01*
X138727517Y-53693529D01*
X138727521Y-53693532D01*
X138846340Y-53772925D01*
X138846346Y-53772928D01*
X138846347Y-53772929D01*
X138978380Y-53827619D01*
X138978384Y-53827619D01*
X138978385Y-53827620D01*
X139118542Y-53855500D01*
X139118545Y-53855500D01*
X139261457Y-53855500D01*
X139355751Y-53836742D01*
X139401620Y-53827619D01*
X139533653Y-53772929D01*
X139652479Y-53693532D01*
X139753532Y-53592479D01*
X139832929Y-53473653D01*
X139887619Y-53341620D01*
X139915500Y-53201455D01*
X139915500Y-52229833D01*
X139935185Y-52162794D01*
X139987989Y-52117039D01*
X140057147Y-52107095D01*
X140120703Y-52136120D01*
X140158477Y-52194898D01*
X140159262Y-52197695D01*
X140176905Y-52263536D01*
X140239505Y-52371964D01*
X140328036Y-52460495D01*
X140436464Y-52523095D01*
X140557399Y-52555500D01*
X140557401Y-52555500D01*
X140682599Y-52555500D01*
X140682601Y-52555500D01*
X140803536Y-52523095D01*
X140911964Y-52460495D01*
X141000495Y-52371964D01*
X141063095Y-52263536D01*
X141095500Y-52142601D01*
X141095500Y-52017399D01*
X145924500Y-52017399D01*
X145924500Y-52142601D01*
X145956905Y-52263536D01*
X146019505Y-52371964D01*
X146108036Y-52460495D01*
X146216464Y-52523095D01*
X146337399Y-52555500D01*
X146337401Y-52555500D01*
X146462599Y-52555500D01*
X146462601Y-52555500D01*
X146583536Y-52523095D01*
X146691964Y-52460495D01*
X146780495Y-52371964D01*
X146843095Y-52263536D01*
X146860725Y-52197737D01*
X146897091Y-52138079D01*
X146959938Y-52107550D01*
X147029313Y-52115845D01*
X147083191Y-52160331D01*
X147104465Y-52226883D01*
X147104500Y-52229833D01*
X147104500Y-53201455D01*
X147104500Y-53201457D01*
X147104499Y-53201457D01*
X147132379Y-53341614D01*
X147132381Y-53341620D01*
X147187069Y-53473650D01*
X147187074Y-53473659D01*
X147266467Y-53592478D01*
X147266470Y-53592482D01*
X147367517Y-53693529D01*
X147367521Y-53693532D01*
X147486340Y-53772925D01*
X147486346Y-53772928D01*
X147486347Y-53772929D01*
X147618380Y-53827619D01*
X147618384Y-53827619D01*
X147618385Y-53827620D01*
X147758542Y-53855500D01*
X147758545Y-53855500D01*
X147901457Y-53855500D01*
X147995751Y-53836742D01*
X148041620Y-53827619D01*
X148173653Y-53772929D01*
X148292479Y-53693532D01*
X148393532Y-53592479D01*
X148472929Y-53473653D01*
X148527619Y-53341620D01*
X148555500Y-53201455D01*
X148555500Y-53034108D01*
X149609500Y-53034108D01*
X149609500Y-53165891D01*
X149643608Y-53293187D01*
X149671568Y-53341614D01*
X149709500Y-53407314D01*
X149802686Y-53500500D01*
X149916814Y-53566392D01*
X150044108Y-53600500D01*
X150044110Y-53600500D01*
X150175890Y-53600500D01*
X150175892Y-53600500D01*
X150303186Y-53566392D01*
X150417314Y-53500500D01*
X150510500Y-53407314D01*
X150576392Y-53293186D01*
X150610500Y-53165892D01*
X150610500Y-53034108D01*
X151409500Y-53034108D01*
X151409500Y-53165891D01*
X151443608Y-53293187D01*
X151471568Y-53341614D01*
X151509500Y-53407314D01*
X151602686Y-53500500D01*
X151716814Y-53566392D01*
X151844108Y-53600500D01*
X151844110Y-53600500D01*
X151975890Y-53600500D01*
X151975892Y-53600500D01*
X152103186Y-53566392D01*
X152217314Y-53500500D01*
X152310500Y-53407314D01*
X152376392Y-53293186D01*
X152410500Y-53165892D01*
X152410500Y-53034108D01*
X152376392Y-52906814D01*
X152310500Y-52792686D01*
X152217314Y-52699500D01*
X152160250Y-52666554D01*
X152103187Y-52633608D01*
X152015079Y-52610000D01*
X151975892Y-52599500D01*
X151844108Y-52599500D01*
X151716812Y-52633608D01*
X151602686Y-52699500D01*
X151602683Y-52699502D01*
X151509502Y-52792683D01*
X151509500Y-52792686D01*
X151443608Y-52906812D01*
X151409500Y-53034108D01*
X150610500Y-53034108D01*
X150576392Y-52906814D01*
X150510500Y-52792686D01*
X150417314Y-52699500D01*
X150360250Y-52666554D01*
X150303187Y-52633608D01*
X150215079Y-52610000D01*
X150175892Y-52599500D01*
X150044108Y-52599500D01*
X149916812Y-52633608D01*
X149802686Y-52699500D01*
X149802683Y-52699502D01*
X149709502Y-52792683D01*
X149709500Y-52792686D01*
X149643608Y-52906812D01*
X149609500Y-53034108D01*
X148555500Y-53034108D01*
X148555500Y-51958545D01*
X148555500Y-51958542D01*
X148527620Y-51818385D01*
X148527619Y-51818384D01*
X148527619Y-51818380D01*
X148472929Y-51686347D01*
X148472928Y-51686346D01*
X148472925Y-51686340D01*
X148393532Y-51567521D01*
X148393529Y-51567517D01*
X148292482Y-51466470D01*
X148292478Y-51466467D01*
X148173659Y-51387074D01*
X148173650Y-51387069D01*
X148041620Y-51332381D01*
X148041614Y-51332379D01*
X147901457Y-51304500D01*
X147901455Y-51304500D01*
X147758545Y-51304500D01*
X147758543Y-51304500D01*
X147618385Y-51332379D01*
X147618379Y-51332381D01*
X147486349Y-51387069D01*
X147486340Y-51387074D01*
X147367521Y-51466467D01*
X147367517Y-51466470D01*
X147266470Y-51567517D01*
X147266467Y-51567521D01*
X147187074Y-51686340D01*
X147187069Y-51686349D01*
X147132381Y-51818379D01*
X147132379Y-51818385D01*
X147103962Y-51961245D01*
X147071577Y-52023156D01*
X147010861Y-52057730D01*
X146941091Y-52053989D01*
X146884420Y-52013123D01*
X146862571Y-51969150D01*
X146843095Y-51896464D01*
X146780495Y-51788036D01*
X146691964Y-51699505D01*
X146583536Y-51636905D01*
X146583537Y-51636905D01*
X146540969Y-51625499D01*
X146462601Y-51604500D01*
X146337399Y-51604500D01*
X146259031Y-51625499D01*
X146216463Y-51636905D01*
X146108037Y-51699504D01*
X146108034Y-51699506D01*
X146019506Y-51788034D01*
X146019504Y-51788037D01*
X145956905Y-51896463D01*
X145956905Y-51896464D01*
X145924500Y-52017399D01*
X141095500Y-52017399D01*
X141063095Y-51896464D01*
X141000495Y-51788036D01*
X140911964Y-51699505D01*
X140803536Y-51636905D01*
X140803537Y-51636905D01*
X140760969Y-51625499D01*
X140682601Y-51604500D01*
X140557399Y-51604500D01*
X140479031Y-51625499D01*
X140436463Y-51636905D01*
X140328037Y-51699504D01*
X140328034Y-51699506D01*
X140239506Y-51788034D01*
X140239504Y-51788037D01*
X140176905Y-51896463D01*
X140176903Y-51896468D01*
X140157428Y-51969148D01*
X140121063Y-52028808D01*
X140058215Y-52059336D01*
X139988840Y-52051041D01*
X139934962Y-52006554D01*
X139916037Y-51961244D01*
X139887620Y-51818387D01*
X139887620Y-51818385D01*
X139887619Y-51818380D01*
X139832929Y-51686347D01*
X139832928Y-51686346D01*
X139832925Y-51686340D01*
X139753532Y-51567521D01*
X139753529Y-51567517D01*
X139652482Y-51466470D01*
X139652478Y-51466467D01*
X139533659Y-51387074D01*
X139533650Y-51387069D01*
X139401620Y-51332381D01*
X139401614Y-51332379D01*
X139261457Y-51304500D01*
X139261455Y-51304500D01*
X139118545Y-51304500D01*
X139118543Y-51304500D01*
X138978385Y-51332379D01*
X138978379Y-51332381D01*
X138846349Y-51387069D01*
X138846340Y-51387074D01*
X138727521Y-51466467D01*
X138727517Y-51466470D01*
X138626470Y-51567517D01*
X138626467Y-51567521D01*
X138547074Y-51686340D01*
X138547069Y-51686349D01*
X138492381Y-51818379D01*
X138492379Y-51818385D01*
X138464500Y-51958542D01*
X138464500Y-51958545D01*
X138464500Y-53201455D01*
X138464500Y-53201457D01*
X138464499Y-53201457D01*
X118665418Y-53201457D01*
X118889039Y-53060946D01*
X119152523Y-52850825D01*
X119390825Y-52612523D01*
X119513169Y-52459108D01*
X123999500Y-52459108D01*
X123999500Y-52590892D01*
X124006199Y-52615892D01*
X124033608Y-52718187D01*
X124048042Y-52743187D01*
X124099500Y-52832314D01*
X124192686Y-52925500D01*
X124306814Y-52991392D01*
X124434108Y-53025500D01*
X124434110Y-53025500D01*
X124565890Y-53025500D01*
X124565892Y-53025500D01*
X124693186Y-52991392D01*
X124807314Y-52925500D01*
X124900500Y-52832314D01*
X124966392Y-52718186D01*
X125000500Y-52590892D01*
X125000500Y-52484108D01*
X131149500Y-52484108D01*
X131149500Y-52615891D01*
X131183608Y-52743187D01*
X131212185Y-52792683D01*
X131249500Y-52857314D01*
X131342686Y-52950500D01*
X131456814Y-53016392D01*
X131584108Y-53050500D01*
X131584110Y-53050500D01*
X131715890Y-53050500D01*
X131715892Y-53050500D01*
X131843186Y-53016392D01*
X131957314Y-52950500D01*
X132050500Y-52857314D01*
X132116392Y-52743186D01*
X132150500Y-52615892D01*
X132150500Y-52484108D01*
X132116392Y-52356814D01*
X132050500Y-52242686D01*
X131957314Y-52149500D01*
X131843186Y-52083608D01*
X131800712Y-52072227D01*
X131732645Y-52053989D01*
X131715892Y-52049500D01*
X131584108Y-52049500D01*
X131456812Y-52083608D01*
X131342686Y-52149500D01*
X131342683Y-52149502D01*
X131249502Y-52242683D01*
X131249500Y-52242686D01*
X131183608Y-52356812D01*
X131149500Y-52484108D01*
X125000500Y-52484108D01*
X125000500Y-52459108D01*
X124966392Y-52331814D01*
X124900500Y-52217686D01*
X124807314Y-52124500D01*
X124736487Y-52083608D01*
X124693187Y-52058608D01*
X124629539Y-52041554D01*
X124565892Y-52024500D01*
X124434108Y-52024500D01*
X124306812Y-52058608D01*
X124192686Y-52124500D01*
X124192683Y-52124502D01*
X124099502Y-52217683D01*
X124099500Y-52217686D01*
X124033608Y-52331812D01*
X124022393Y-52373668D01*
X123999500Y-52459108D01*
X119513169Y-52459108D01*
X119600946Y-52349039D01*
X119780246Y-52063686D01*
X119926469Y-51760051D01*
X120037776Y-51441954D01*
X120112767Y-51113394D01*
X120112768Y-51113384D01*
X120112769Y-51113379D01*
X120118884Y-51059108D01*
X127499500Y-51059108D01*
X127499500Y-51190892D01*
X127506199Y-51215892D01*
X127533608Y-51318187D01*
X127548042Y-51343187D01*
X127599500Y-51432314D01*
X127692686Y-51525500D01*
X127806814Y-51591392D01*
X127934108Y-51625500D01*
X127934110Y-51625500D01*
X128065890Y-51625500D01*
X128065892Y-51625500D01*
X128193186Y-51591392D01*
X128307314Y-51525500D01*
X128400500Y-51432314D01*
X128466392Y-51318186D01*
X128500500Y-51190892D01*
X128500500Y-51084108D01*
X134749500Y-51084108D01*
X134749500Y-51215891D01*
X134783608Y-51343187D01*
X134808944Y-51387069D01*
X134849500Y-51457314D01*
X134942686Y-51550500D01*
X135056814Y-51616392D01*
X135184108Y-51650500D01*
X135184110Y-51650500D01*
X135315890Y-51650500D01*
X135315892Y-51650500D01*
X135443186Y-51616392D01*
X135557314Y-51550500D01*
X135650500Y-51457314D01*
X135716392Y-51343186D01*
X135750500Y-51215892D01*
X135750500Y-51084108D01*
X135716392Y-50956814D01*
X135650500Y-50842686D01*
X135557314Y-50749500D01*
X135470712Y-50699500D01*
X135443187Y-50683608D01*
X135366264Y-50662997D01*
X135315892Y-50649500D01*
X135184108Y-50649500D01*
X135056812Y-50683608D01*
X134942686Y-50749500D01*
X134942683Y-50749502D01*
X134849502Y-50842683D01*
X134849500Y-50842686D01*
X134783608Y-50956812D01*
X134749500Y-51084108D01*
X128500500Y-51084108D01*
X128500500Y-51059108D01*
X128466392Y-50931814D01*
X128400500Y-50817686D01*
X128307314Y-50724500D01*
X128236487Y-50683608D01*
X128193187Y-50658608D01*
X128129539Y-50641554D01*
X128065892Y-50624500D01*
X127934108Y-50624500D01*
X127806812Y-50658608D01*
X127692686Y-50724500D01*
X127692683Y-50724502D01*
X127599502Y-50817683D01*
X127599500Y-50817686D01*
X127533608Y-50931812D01*
X127499500Y-51059108D01*
X120118884Y-51059108D01*
X120121364Y-51037098D01*
X120121364Y-51037097D01*
X120143268Y-50842686D01*
X120150500Y-50778504D01*
X120150500Y-50441496D01*
X120112767Y-50106606D01*
X120037776Y-49778046D01*
X120037772Y-49778034D01*
X119972654Y-49591936D01*
X119961167Y-49559108D01*
X123999500Y-49559108D01*
X123999500Y-49690891D01*
X124033608Y-49818187D01*
X124058904Y-49862000D01*
X124099500Y-49932314D01*
X124192686Y-50025500D01*
X124306814Y-50091392D01*
X124434108Y-50125500D01*
X124434110Y-50125500D01*
X124565890Y-50125500D01*
X124565892Y-50125500D01*
X124693186Y-50091392D01*
X124807314Y-50025500D01*
X124900500Y-49932314D01*
X124966392Y-49818186D01*
X125000500Y-49690892D01*
X125000500Y-49684108D01*
X131149500Y-49684108D01*
X131149500Y-49815892D01*
X131161855Y-49862002D01*
X131183608Y-49943187D01*
X131190534Y-49955183D01*
X131249500Y-50057314D01*
X131342686Y-50150500D01*
X131456814Y-50216392D01*
X131584108Y-50250500D01*
X131584110Y-50250500D01*
X131715890Y-50250500D01*
X131715892Y-50250500D01*
X131843186Y-50216392D01*
X131957314Y-50150500D01*
X132050500Y-50057314D01*
X132116392Y-49943186D01*
X132150500Y-49815892D01*
X132150500Y-49684108D01*
X132116392Y-49556814D01*
X132050500Y-49442686D01*
X131957314Y-49349500D01*
X131900250Y-49316554D01*
X131843187Y-49283608D01*
X131746812Y-49257785D01*
X131715892Y-49249500D01*
X131584108Y-49249500D01*
X131456812Y-49283608D01*
X131342686Y-49349500D01*
X131342683Y-49349502D01*
X131249502Y-49442683D01*
X131249500Y-49442686D01*
X131183608Y-49556812D01*
X131174197Y-49591936D01*
X131149500Y-49684108D01*
X125000500Y-49684108D01*
X125000500Y-49559108D01*
X124966392Y-49431814D01*
X124900500Y-49317686D01*
X124807314Y-49224500D01*
X124750250Y-49191554D01*
X124693187Y-49158608D01*
X124629539Y-49141554D01*
X124565892Y-49124500D01*
X124434108Y-49124500D01*
X124306812Y-49158608D01*
X124192686Y-49224500D01*
X124192683Y-49224502D01*
X124099502Y-49317683D01*
X124099500Y-49317686D01*
X124033608Y-49431812D01*
X123999500Y-49559108D01*
X119961167Y-49559108D01*
X119946025Y-49515837D01*
X119926469Y-49459949D01*
X119780246Y-49156314D01*
X119601258Y-48871457D01*
X138464499Y-48871457D01*
X138492379Y-49011614D01*
X138492381Y-49011620D01*
X138547069Y-49143650D01*
X138547074Y-49143659D01*
X138626467Y-49262478D01*
X138626470Y-49262482D01*
X138727517Y-49363529D01*
X138727521Y-49363532D01*
X138846340Y-49442925D01*
X138846346Y-49442928D01*
X138846347Y-49442929D01*
X138978380Y-49497619D01*
X138978384Y-49497619D01*
X138978385Y-49497620D01*
X139118542Y-49525500D01*
X139118545Y-49525500D01*
X139261457Y-49525500D01*
X139355751Y-49506742D01*
X139401620Y-49497619D01*
X139533653Y-49442929D01*
X139652479Y-49363532D01*
X139753532Y-49262479D01*
X139832929Y-49143653D01*
X139887619Y-49011620D01*
X139915500Y-48871457D01*
X147104499Y-48871457D01*
X147132379Y-49011614D01*
X147132381Y-49011620D01*
X147187069Y-49143650D01*
X147187074Y-49143659D01*
X147266467Y-49262478D01*
X147266470Y-49262482D01*
X147367517Y-49363529D01*
X147367521Y-49363532D01*
X147486340Y-49442925D01*
X147486346Y-49442928D01*
X147486347Y-49442929D01*
X147618380Y-49497619D01*
X147618384Y-49497619D01*
X147618385Y-49497620D01*
X147758542Y-49525500D01*
X147758545Y-49525500D01*
X147901457Y-49525500D01*
X147995751Y-49506742D01*
X148041620Y-49497619D01*
X148173653Y-49442929D01*
X148292479Y-49363532D01*
X148393532Y-49262479D01*
X148472929Y-49143653D01*
X148527619Y-49011620D01*
X148555500Y-48871455D01*
X148555500Y-47928545D01*
X148555500Y-47928542D01*
X148527620Y-47788385D01*
X148527619Y-47788384D01*
X148527619Y-47788380D01*
X148472929Y-47656347D01*
X148472928Y-47656346D01*
X148472925Y-47656340D01*
X148393532Y-47537521D01*
X148393529Y-47537517D01*
X148292482Y-47436470D01*
X148292478Y-47436467D01*
X148173659Y-47357074D01*
X148173650Y-47357069D01*
X148041620Y-47302381D01*
X148041614Y-47302379D01*
X147901457Y-47274500D01*
X147901455Y-47274500D01*
X147758545Y-47274500D01*
X147758543Y-47274500D01*
X147618385Y-47302379D01*
X147618379Y-47302381D01*
X147486349Y-47357069D01*
X147486340Y-47357074D01*
X147367521Y-47436467D01*
X147367517Y-47436470D01*
X147266470Y-47537517D01*
X147266467Y-47537521D01*
X147187074Y-47656340D01*
X147187069Y-47656349D01*
X147132381Y-47788379D01*
X147132379Y-47788385D01*
X147104500Y-47928542D01*
X147104500Y-47928545D01*
X147104500Y-48871455D01*
X147104500Y-48871457D01*
X147104499Y-48871457D01*
X139915500Y-48871457D01*
X139915500Y-48871455D01*
X139915500Y-47928545D01*
X139915500Y-47928542D01*
X139887620Y-47788385D01*
X139887619Y-47788384D01*
X139887619Y-47788380D01*
X139832929Y-47656347D01*
X139832928Y-47656346D01*
X139832925Y-47656340D01*
X139753532Y-47537521D01*
X139753529Y-47537517D01*
X139652482Y-47436470D01*
X139652478Y-47436467D01*
X139533659Y-47357074D01*
X139533650Y-47357069D01*
X139401620Y-47302381D01*
X139401614Y-47302379D01*
X139261457Y-47274500D01*
X139261455Y-47274500D01*
X139118545Y-47274500D01*
X139118543Y-47274500D01*
X138978385Y-47302379D01*
X138978379Y-47302381D01*
X138846349Y-47357069D01*
X138846340Y-47357074D01*
X138727521Y-47436467D01*
X138727517Y-47436470D01*
X138626470Y-47537517D01*
X138626467Y-47537521D01*
X138547074Y-47656340D01*
X138547069Y-47656349D01*
X138492381Y-47788379D01*
X138492379Y-47788385D01*
X138464500Y-47928542D01*
X138464500Y-47928545D01*
X138464500Y-48871455D01*
X138464500Y-48871457D01*
X138464499Y-48871457D01*
X119601258Y-48871457D01*
X119600946Y-48870961D01*
X119390825Y-48607477D01*
X119152523Y-48369175D01*
X118889039Y-48159054D01*
X118603686Y-47979754D01*
X118603683Y-47979752D01*
X118300054Y-47833532D01*
X117981965Y-47722227D01*
X117981953Y-47722223D01*
X117653397Y-47647233D01*
X117653381Y-47647231D01*
X117318508Y-47609500D01*
X117318504Y-47609500D01*
X116981496Y-47609500D01*
X116981491Y-47609500D01*
X116646618Y-47647231D01*
X116646602Y-47647233D01*
X116318046Y-47722223D01*
X116318034Y-47722227D01*
X115999945Y-47833532D01*
X115696316Y-47979752D01*
X115410962Y-48159053D01*
X115147477Y-48369174D01*
X114909174Y-48607477D01*
X114699053Y-48870962D01*
X114519752Y-49156316D01*
X114373532Y-49459945D01*
X114262227Y-49778034D01*
X114262223Y-49778046D01*
X114187233Y-50106602D01*
X114187231Y-50106618D01*
X114149500Y-50441491D01*
X113408778Y-50441491D01*
X113409248Y-50431933D01*
X113418256Y-50248568D01*
X113419449Y-50236457D01*
X113471654Y-49884520D01*
X113474022Y-49872613D01*
X113560475Y-49527473D01*
X113563998Y-49515858D01*
X113683869Y-49180840D01*
X113688508Y-49169643D01*
X113840643Y-48847979D01*
X113846358Y-48837287D01*
X114029278Y-48532105D01*
X114036021Y-48522012D01*
X114247979Y-48236219D01*
X114255682Y-48226834D01*
X114494628Y-47963198D01*
X114503198Y-47954628D01*
X114766834Y-47715682D01*
X114776219Y-47707979D01*
X115062012Y-47496021D01*
X115072105Y-47489278D01*
X115377287Y-47306358D01*
X115387979Y-47300643D01*
X115709643Y-47148508D01*
X115720840Y-47143869D01*
X116055858Y-47023998D01*
X116067473Y-47020475D01*
X116412613Y-46934022D01*
X116424520Y-46931654D01*
X116776460Y-46879448D01*
X116788564Y-46878256D01*
X117146967Y-46860648D01*
X117153051Y-46860500D01*
X117194170Y-46860500D01*
X153036000Y-46860500D01*
X153103039Y-46880185D01*
G37*
%TD.AperFunction*%
%TD*%
M02*
