%TF.GenerationSoftware,KiCad,Pcbnew,9.0.7+1*%
%TF.CreationDate,Date%
%TF.ProjectId,LE_BMS_A_V2,4c455f42-4d53-45f4-915f-56322e6b6963,+ (Unreleased)*%
%TF.SameCoordinates,Original*%
%TF.FileFunction,Paste,Top*%
%TF.FilePolarity,Positive*%
%FSLAX46Y46*%
G04 Gerber Fmt 4.6, Leading zero omitted, Abs format (unit mm)*
G04 Created by KiCad*
%MOMM*%
%LPD*%
G01*
G04 APERTURE LIST*
G04 Aperture macros list*
%AMRoundRect*
0 Rectangle with rounded corners*
0 $1 Rounding radius*
0 $2 $3 $4 $5 $6 $7 $8 $9 X,Y pos of 4 corners*
0 Add a 4 corners polygon primitive as box body*
4,1,4,$2,$3,$4,$5,$6,$7,$8,$9,$2,$3,0*
0 Add four circle primitives for the rounded corners*
1,1,$1+$1,$2,$3*
1,1,$1+$1,$4,$5*
1,1,$1+$1,$6,$7*
1,1,$1+$1,$8,$9*
0 Add four rect primitives between the rounded corners*
20,1,$1+$1,$2,$3,$4,$5,0*
20,1,$1+$1,$4,$5,$6,$7,0*
20,1,$1+$1,$6,$7,$8,$9,0*
20,1,$1+$1,$8,$9,$2,$3,0*%
G04 Aperture macros list end*
%ADD10R,2.150000X0.950000*%
%ADD11R,2.150000X3.250000*%
%ADD12RoundRect,0.237500X0.237500X-0.300000X0.237500X0.300000X-0.237500X0.300000X-0.237500X-0.300000X0*%
%ADD13RoundRect,0.162500X-0.162500X1.012500X-0.162500X-1.012500X0.162500X-1.012500X0.162500X1.012500X0*%
%ADD14RoundRect,0.237500X-0.300000X-0.237500X0.300000X-0.237500X0.300000X0.237500X-0.300000X0.237500X0*%
%ADD15RoundRect,0.237500X-0.237500X0.250000X-0.237500X-0.250000X0.237500X-0.250000X0.237500X0.250000X0*%
%ADD16RoundRect,0.237500X-0.237500X0.300000X-0.237500X-0.300000X0.237500X-0.300000X0.237500X0.300000X0*%
%ADD17RoundRect,0.237500X0.300000X0.237500X-0.300000X0.237500X-0.300000X-0.237500X0.300000X-0.237500X0*%
%ADD18RoundRect,0.150000X-0.825000X-0.150000X0.825000X-0.150000X0.825000X0.150000X-0.825000X0.150000X0*%
%ADD19RoundRect,0.237500X0.250000X0.237500X-0.250000X0.237500X-0.250000X-0.237500X0.250000X-0.237500X0*%
%ADD20RoundRect,0.237500X-0.250000X-0.237500X0.250000X-0.237500X0.250000X0.237500X-0.250000X0.237500X0*%
%ADD21R,1.200000X1.800000*%
%ADD22R,1.500000X0.900000*%
%ADD23R,0.900000X1.500000*%
%ADD24R,1.000000X1.000000*%
%ADD25R,1.000000X1.450000*%
%ADD26R,0.650000X1.400000*%
%ADD27R,1.150000X0.600000*%
%ADD28R,1.150000X0.300000*%
%ADD29RoundRect,0.237500X0.237500X-0.250000X0.237500X0.250000X-0.237500X0.250000X-0.237500X-0.250000X0*%
%ADD30R,0.700000X0.700000*%
%ADD31RoundRect,0.100000X0.100000X-0.637500X0.100000X0.637500X-0.100000X0.637500X-0.100000X-0.637500X0*%
G04 APERTURE END LIST*
D10*
%TO.C,U5*%
X170725000Y-85210000D03*
X170725000Y-87510000D03*
X170725000Y-89810000D03*
D11*
X176525000Y-87510000D03*
%TD*%
D12*
%TO.C,C4*%
X122150000Y-69172500D03*
X122150000Y-67447500D03*
%TD*%
D13*
%TO.C,U3*%
X163877500Y-98060000D03*
X161337500Y-98060000D03*
X158797500Y-98060000D03*
X156257500Y-98060000D03*
X156257500Y-107110000D03*
X158797500Y-107110000D03*
X161337500Y-107110000D03*
X163877500Y-107110000D03*
%TD*%
D12*
%TO.C,C3*%
X150076802Y-54622500D03*
X150076802Y-52897500D03*
%TD*%
%TO.C,C18*%
X138750000Y-100372500D03*
X138750000Y-98647500D03*
%TD*%
D14*
%TO.C,C23*%
X159900000Y-86205000D03*
X161625000Y-86205000D03*
%TD*%
D15*
%TO.C,R1*%
X122100000Y-57222500D03*
X122100000Y-59047500D03*
%TD*%
D16*
%TO.C,C8*%
X128525000Y-82535000D03*
X128525000Y-84260000D03*
%TD*%
D17*
%TO.C,C12*%
X134112500Y-109410000D03*
X132387500Y-109410000D03*
%TD*%
D18*
%TO.C,U6*%
X150950000Y-82500000D03*
X150950000Y-83770000D03*
X150950000Y-85040000D03*
X150950000Y-86310000D03*
X155900000Y-86310000D03*
X155900000Y-85040000D03*
X155900000Y-83770000D03*
X155900000Y-82500000D03*
%TD*%
D14*
%TO.C,C14*%
X138162500Y-81660000D03*
X139887500Y-81660000D03*
%TD*%
D12*
%TO.C,C6*%
X166050000Y-98072500D03*
X166050000Y-96347500D03*
%TD*%
D15*
%TO.C,R4*%
X122873198Y-82872500D03*
X122873198Y-84697500D03*
%TD*%
D19*
%TO.C,R8*%
X146562500Y-115010000D03*
X144737500Y-115010000D03*
%TD*%
D16*
%TO.C,C5*%
X180110000Y-48697500D03*
X180110000Y-50422500D03*
%TD*%
D15*
%TO.C,R3*%
X122873198Y-78072500D03*
X122873198Y-79897500D03*
%TD*%
D20*
%TO.C,R5*%
X185337500Y-115210000D03*
X187162500Y-115210000D03*
%TD*%
%TO.C,R11*%
X146112500Y-87325000D03*
X147937500Y-87325000D03*
%TD*%
D17*
%TO.C,C13*%
X139887500Y-89860000D03*
X138162500Y-89860000D03*
%TD*%
D12*
%TO.C,C19*%
X168025000Y-87472500D03*
X168025000Y-85747500D03*
%TD*%
D21*
%TO.C,Y1*%
X140278985Y-87760000D03*
X140278985Y-83760000D03*
X137878985Y-83760000D03*
X137878985Y-87760000D03*
%TD*%
D16*
%TO.C,C15*%
X175037500Y-104447500D03*
X175037500Y-106172500D03*
%TD*%
D22*
%TO.C,U1*%
X154010000Y-53060000D03*
X154010000Y-54330000D03*
X154010000Y-55600000D03*
X154010000Y-56870000D03*
X154010000Y-58140000D03*
X154010000Y-59410000D03*
X154010000Y-60680000D03*
X154010000Y-61950000D03*
X154010000Y-63220000D03*
X154010000Y-64490000D03*
X154010000Y-65760000D03*
X154010000Y-67030000D03*
X154010000Y-68300000D03*
X154010000Y-69570000D03*
D23*
X155775000Y-70820000D03*
X157045000Y-70820000D03*
X158315000Y-70820000D03*
X159585000Y-70820000D03*
X160855000Y-70820000D03*
X162125000Y-70820000D03*
X163395000Y-70820000D03*
X164665000Y-70820000D03*
X165935000Y-70820000D03*
X167205000Y-70820000D03*
X168475000Y-70820000D03*
X169745000Y-70820000D03*
D22*
X171510000Y-69570000D03*
X171510000Y-68300000D03*
X171510000Y-67030000D03*
X171510000Y-65760000D03*
X171510000Y-64490000D03*
X171510000Y-63220000D03*
X171510000Y-61950000D03*
X171510000Y-60680000D03*
X171510000Y-59410000D03*
X171510000Y-58140000D03*
X171510000Y-56870000D03*
X171510000Y-55600000D03*
X171510000Y-54330000D03*
X171510000Y-53060000D03*
D24*
X159900000Y-56910000D03*
X159900000Y-58410000D03*
X159900000Y-59910000D03*
X161400000Y-56910000D03*
X161400000Y-58410000D03*
X161400000Y-59910000D03*
X162900000Y-56910000D03*
X162900000Y-58410000D03*
X162900000Y-59910000D03*
%TD*%
D20*
%TO.C,R7*%
X144737500Y-113410000D03*
X146562500Y-113410000D03*
%TD*%
D13*
%TO.C,U4*%
X134110000Y-97985000D03*
X131570000Y-97985000D03*
X129030000Y-97985000D03*
X126490000Y-97985000D03*
X126490000Y-107035000D03*
X129030000Y-107035000D03*
X131570000Y-107035000D03*
X134110000Y-107035000D03*
%TD*%
D25*
%TO.C,S1*%
X117500000Y-66835000D03*
X119200000Y-66835000D03*
X117500000Y-71985000D03*
X119200000Y-71985000D03*
D26*
X116325000Y-69410000D03*
%TD*%
D20*
%TO.C,R10*%
X146112500Y-84815000D03*
X147937500Y-84815000D03*
%TD*%
D19*
%TO.C,R6*%
X187162500Y-113610000D03*
X185337500Y-113610000D03*
%TD*%
D25*
%TO.C,S2*%
X117450000Y-57960000D03*
X119150000Y-57960000D03*
X117450000Y-63110000D03*
X119150000Y-63110000D03*
D26*
X116275000Y-60535000D03*
%TD*%
D27*
%TO.C,J1*%
X120635000Y-77910000D03*
X120635000Y-78710000D03*
D28*
X120635000Y-79860000D03*
X120635000Y-80860000D03*
X120635000Y-81360000D03*
X120635000Y-82360000D03*
D27*
X120635000Y-84310000D03*
X120635000Y-83510000D03*
D28*
X120635000Y-82860000D03*
X120635000Y-81860000D03*
X120635000Y-80360000D03*
X120635000Y-79360000D03*
%TD*%
D29*
%TO.C,R2*%
X122150000Y-72822500D03*
X122150000Y-70997500D03*
%TD*%
D17*
%TO.C,C11*%
X163812500Y-109610000D03*
X162087500Y-109610000D03*
%TD*%
%TO.C,C10*%
X146512500Y-116610000D03*
X144787500Y-116610000D03*
%TD*%
D14*
%TO.C,C22*%
X159900000Y-83695000D03*
X161625000Y-83695000D03*
%TD*%
D16*
%TO.C,C17*%
X175037500Y-98947500D03*
X175037500Y-100672500D03*
%TD*%
D17*
%TO.C,C9*%
X187112500Y-116810000D03*
X185387500Y-116810000D03*
%TD*%
D30*
%TO.C,D1*%
X175995000Y-49010000D03*
X175995000Y-50110000D03*
X177825000Y-50110000D03*
X177825000Y-49010000D03*
%TD*%
D12*
%TO.C,C1*%
X151776802Y-54622500D03*
X151776802Y-52897500D03*
%TD*%
%TO.C,C20*%
X138850000Y-105472500D03*
X138850000Y-103747500D03*
%TD*%
D31*
%TO.C,U2*%
X130125000Y-88485000D03*
X130775000Y-88485000D03*
X131425000Y-88485000D03*
X132075000Y-88485000D03*
X132725000Y-88485000D03*
X133375000Y-88485000D03*
X134025000Y-88485000D03*
X134675000Y-88485000D03*
X135325000Y-88485000D03*
X135975000Y-88485000D03*
X135975000Y-82760000D03*
X135325000Y-82760000D03*
X134675000Y-82760000D03*
X134025000Y-82760000D03*
X133375000Y-82760000D03*
X132725000Y-82760000D03*
X132075000Y-82760000D03*
X131425000Y-82760000D03*
X130775000Y-82760000D03*
X130125000Y-82760000D03*
%TD*%
D12*
%TO.C,C7*%
X136050000Y-97972500D03*
X136050000Y-96247500D03*
%TD*%
D17*
%TO.C,C16*%
X170687500Y-91610000D03*
X168962500Y-91610000D03*
%TD*%
D12*
%TO.C,C21*%
X166325000Y-87472500D03*
X166325000Y-85747500D03*
%TD*%
D20*
%TO.C,R9*%
X146112500Y-82305000D03*
X147937500Y-82305000D03*
%TD*%
D16*
%TO.C,C2*%
X122100000Y-60872500D03*
X122100000Y-62597500D03*
%TD*%
M02*
