%TF.GenerationSoftware,KiCad,Pcbnew,9.0.7+1*%
%TF.CreationDate,Date%
%TF.ProjectId,LE_BMS_A_V2,4c455f42-4d53-45f4-915f-56322e6b6963,+ (Unreleased)*%
%TF.SameCoordinates,Original*%
%TF.FileFunction,Copper,L2,Inr*%
%TF.FilePolarity,Positive*%
%FSLAX46Y46*%
G04 Gerber Fmt 4.6, Leading zero omitted, Abs format (unit mm)*
G04 Created by KiCad*
%MOMM*%
%LPD*%
G01*
G04 APERTURE LIST*
G04 Aperture macros list*
%AMRoundRect*
0 Rectangle with rounded corners*
0 $1 Rounding radius*
0 $2 $3 $4 $5 $6 $7 $8 $9 X,Y pos of 4 corners*
0 Add a 4 corners polygon primitive as box body*
4,1,4,$2,$3,$4,$5,$6,$7,$8,$9,$2,$3,0*
0 Add four circle primitives for the rounded corners*
1,1,$1+$1,$2,$3*
1,1,$1+$1,$4,$5*
1,1,$1+$1,$6,$7*
1,1,$1+$1,$8,$9*
0 Add four rect primitives between the rounded corners*
20,1,$1+$1,$2,$3,$4,$5,0*
20,1,$1+$1,$4,$5,$6,$7,0*
20,1,$1+$1,$6,$7,$8,$9,0*
20,1,$1+$1,$8,$9,$2,$3,0*%
G04 Aperture macros list end*
%TA.AperFunction,ComponentPad*%
%ADD10C,5.600000*%
%TD*%
%TA.AperFunction,ComponentPad*%
%ADD11C,2.400000*%
%TD*%
%TA.AperFunction,ComponentPad*%
%ADD12RoundRect,0.250000X-0.600000X-0.725000X0.600000X-0.725000X0.600000X0.725000X-0.600000X0.725000X0*%
%TD*%
%TA.AperFunction,ComponentPad*%
%ADD13O,1.700000X1.950000*%
%TD*%
%TA.AperFunction,ComponentPad*%
%ADD14R,1.508000X1.508000*%
%TD*%
%TA.AperFunction,ComponentPad*%
%ADD15C,1.508000*%
%TD*%
%TA.AperFunction,HeatsinkPad*%
%ADD16C,0.600000*%
%TD*%
%TA.AperFunction,ComponentPad*%
%ADD17R,2.000000X2.000000*%
%TD*%
%TA.AperFunction,ComponentPad*%
%ADD18C,2.000000*%
%TD*%
%TA.AperFunction,ComponentPad*%
%ADD19O,1.050000X2.150000*%
%TD*%
%TA.AperFunction,ComponentPad*%
%ADD20O,1.050000X1.850000*%
%TD*%
%TA.AperFunction,ComponentPad*%
%ADD21R,1.448000X1.448000*%
%TD*%
%TA.AperFunction,ComponentPad*%
%ADD22C,1.448000*%
%TD*%
%TA.AperFunction,ComponentPad*%
%ADD23C,2.430000*%
%TD*%
%TA.AperFunction,ComponentPad*%
%ADD24C,2.100000*%
%TD*%
%TA.AperFunction,ViaPad*%
%ADD25C,0.550000*%
%TD*%
G04 APERTURE END LIST*
D10*
%TO.N,unconnected-(H3-Pad1)*%
%TO.C,H3*%
X117150000Y-122610000D03*
%TD*%
D11*
%TO.N,+5V_CAN1*%
%TO.C,J4*%
X186000000Y-105240000D03*
%TO.N,GND_CAN1*%
X186000000Y-100160000D03*
%TD*%
D12*
%TO.N,/Project Architecture/Section B - Title B/CAN1_H*%
%TO.C,J6*%
X171300000Y-120200000D03*
D13*
%TO.N,/Project Architecture/Section B - Title B/CAN1_L*%
X173800000Y-120200000D03*
%TO.N,GND_CAN1*%
X176300000Y-120200000D03*
%TO.N,+5V_CAN1*%
X178800000Y-120200000D03*
%TD*%
D14*
%TO.N,GND_CAN1*%
%TO.C,PS1*%
X172550000Y-106420000D03*
D15*
%TO.N,+5V_CAN1*%
X172550000Y-103880000D03*
%TO.N,GND*%
X172550000Y-101340000D03*
%TO.N,+5V*%
X172550000Y-98800000D03*
%TD*%
D16*
%TO.N,GND*%
%TO.C,U1*%
X160000000Y-58700000D03*
X160000000Y-60200000D03*
X160750000Y-57950000D03*
X160750000Y-59450000D03*
X160750000Y-60950000D03*
X161500000Y-58700000D03*
X161500000Y-60200000D03*
X162250000Y-57950000D03*
X162250000Y-59450000D03*
X162250000Y-60950000D03*
X163000000Y-58700000D03*
X163000000Y-60200000D03*
%TD*%
D17*
%TO.N,+3V0*%
%TO.C,BT1*%
X118142546Y-72400000D03*
D18*
%TO.N,GND*%
X138942546Y-72400000D03*
%TD*%
D10*
%TO.N,unconnected-(H1-Pad1)*%
%TO.C,H1*%
X117150000Y-50610000D03*
%TD*%
D19*
%TO.N,GND*%
%TO.C,J1*%
X147830000Y-52580000D03*
X139190000Y-52580000D03*
D20*
X147830000Y-48400000D03*
X139190000Y-48400000D03*
%TD*%
D21*
%TO.N,unconnected-(J5-Pad1)*%
%TO.C,J5*%
X137006000Y-121460000D03*
D22*
%TO.N,unconnected-(J5-Pad2)*%
X135990000Y-119680000D03*
%TO.N,GND_CAN2*%
X134974000Y-121460000D03*
%TO.N,unconnected-(J5-Pad4)*%
X133958000Y-119680000D03*
%TO.N,unconnected-(J5-Pad5)*%
X132942000Y-121460000D03*
%TO.N,unconnected-(J5-Pad6)*%
X131926000Y-119680000D03*
%TO.N,/Project Architecture/Section B - Title B/CAN2_H*%
X130910000Y-121460000D03*
%TO.N,/Project Architecture/Section B - Title B/CAN2_L*%
X129894000Y-119680000D03*
D23*
%TO.N,GND_CAN2*%
X125320000Y-120570000D03*
X141580000Y-120570000D03*
%TD*%
D12*
%TO.N,/Project Architecture/Section B - Title B/CAN1_H*%
%TO.C,J2*%
X155700000Y-120200000D03*
D13*
%TO.N,/Project Architecture/Section B - Title B/CAN1_L*%
X158200000Y-120200000D03*
%TO.N,GND_CAN1*%
X160700000Y-120200000D03*
%TO.N,+5V_CAN1*%
X163200000Y-120200000D03*
%TD*%
D24*
%TO.N,+5V*%
%TO.C,J3*%
X187000000Y-71150000D03*
%TO.N,GND*%
X187000000Y-68650000D03*
%TO.N,/Project Architecture/Section A - Title A/GPIO_A1*%
X187000000Y-66150000D03*
%TO.N,/Project Architecture/Section A - Title A/GPIO_A2*%
X187000000Y-63650000D03*
%TO.N,/Project Architecture/Section A - Title A/GPIO_A3*%
X187000000Y-61150000D03*
%TO.N,/Project Architecture/Section A - Title A/GPIO_A4*%
X187000000Y-58650000D03*
%TD*%
D10*
%TO.N,unconnected-(H4-Pad1)*%
%TO.C,H4*%
X189150000Y-122610000D03*
%TD*%
%TO.N,unconnected-(H2-Pad1)*%
%TO.C,H2*%
X189150000Y-50610000D03*
%TD*%
D24*
%TO.N,+5V*%
%TO.C,J7*%
X187000000Y-90350000D03*
%TO.N,GND*%
X187000000Y-87850000D03*
%TO.N,/Project Architecture/Section A - Title A/GPIO_B1*%
X187000000Y-85350000D03*
%TO.N,/Project Architecture/Section A - Title A/GPIO_B2*%
X187000000Y-82850000D03*
%TO.N,/Project Architecture/Section A - Title A/GPIO_B3*%
X187000000Y-80350000D03*
%TO.N,/Project Architecture/Section A - Title A/GPIO_B4*%
X187000000Y-77850000D03*
%TD*%
D14*
%TO.N,GND*%
%TO.C,PS2*%
X141200000Y-98660000D03*
D15*
%TO.N,+5V*%
X141200000Y-101200000D03*
%TO.N,GND_CAN2*%
X141200000Y-103740000D03*
%TO.N,+5V_CAN2*%
X141200000Y-106280000D03*
%TD*%
D25*
%TO.N,GND*%
X145900000Y-86900000D03*
X124500000Y-52525000D03*
X175900000Y-100700000D03*
X154000000Y-91700000D03*
X173075000Y-86300000D03*
X179150000Y-51200000D03*
X146671015Y-88828985D03*
X124500000Y-49625000D03*
X156250000Y-96410000D03*
X121555000Y-85625000D03*
X168775000Y-92700000D03*
X136900000Y-96200000D03*
X116245000Y-94325000D03*
X131650000Y-49750000D03*
X155310000Y-54100000D03*
X126500000Y-96300000D03*
X144700000Y-89100000D03*
X124600000Y-55325000D03*
X151900000Y-92200000D03*
X182950000Y-50262500D03*
X166000000Y-95400000D03*
X150110000Y-53100000D03*
X170410000Y-54100000D03*
X131650000Y-52550000D03*
X168775000Y-85800000D03*
X171475000Y-85300000D03*
X131600000Y-55350000D03*
X135250000Y-51150000D03*
X138880000Y-55350000D03*
X150200000Y-79500000D03*
X114955000Y-95325000D03*
X147630000Y-55400000D03*
X156250000Y-99710000D03*
X126500000Y-99600000D03*
X172810000Y-54100000D03*
X128000000Y-51125000D03*
X151910000Y-53100000D03*
X138700000Y-97700000D03*
X167075000Y-85800000D03*
%TO.N,+3V3*%
X133350000Y-98010000D03*
X124055000Y-96525000D03*
X178975000Y-88600000D03*
X118785000Y-86525000D03*
X150010000Y-56500000D03*
X165975000Y-88600000D03*
X151710000Y-56500000D03*
X131650000Y-58600000D03*
X177275000Y-90700000D03*
X124055000Y-94925000D03*
X155210000Y-55400000D03*
X136950000Y-98010000D03*
X177275000Y-86600000D03*
X154200000Y-80500000D03*
X118857500Y-84725000D03*
X166900000Y-98100000D03*
X163900000Y-96400000D03*
X169775000Y-88562500D03*
X124600000Y-58625000D03*
%TO.N,/Project Architecture/Section A - Title A/ESP32_EN*%
X155550000Y-56650000D03*
X127250000Y-56375000D03*
%TO.N,/Project Architecture/Section A - Title A/ESP32_BOOT*%
X134350000Y-57850000D03*
X170150000Y-70600000D03*
%TO.N,+5V*%
X182350000Y-54150000D03*
%TO.N,+5V_CAN1*%
X163850000Y-110410000D03*
X176000000Y-104400000D03*
X163850000Y-105310000D03*
%TO.N,+5V_CAN2*%
X134050000Y-110210000D03*
X138000000Y-105500000D03*
X134050000Y-105510000D03*
%TO.N,/Project Architecture/Section A - Title A/CAN2_INT*%
X168575000Y-73575000D03*
X154800000Y-85600000D03*
%TO.N,/Project Architecture/Section A - Title A/CAN2_MISO*%
X154800000Y-83000000D03*
X163500000Y-76100000D03*
%TO.N,/Project Architecture/Section A - Title A/CAN2_RST*%
X154800000Y-81600000D03*
X164700000Y-73600000D03*
%TO.N,/Project Architecture/Section A - Title A/CAN1_TX*%
X158800000Y-96200000D03*
X162500000Y-82800000D03*
%TO.N,GND_CAN1*%
X184450000Y-116810000D03*
X156250000Y-108810000D03*
X162050000Y-110410000D03*
X175900000Y-106200000D03*
%TO.N,GND_CAN2*%
X143750000Y-116610000D03*
X126450000Y-108510000D03*
X138000000Y-103700000D03*
X132350000Y-110210000D03*
%TO.N,+3V0*%
X117500000Y-91250000D03*
%TO.N,/Project Architecture/Section D - RTC/I2C_SDA*%
X152900000Y-68100000D03*
X151500000Y-72200000D03*
%TO.N,/Project Architecture/Section A - Title A/GPIO_B3*%
X167100000Y-66850000D03*
%TO.N,/Project Architecture/Section A - Title A/GPIO_B1*%
X167100000Y-69250000D03*
%TO.N,/Project Architecture/Section A - Title A/GPIO_B2*%
X167100000Y-68050000D03*
%TO.N,/Project Architecture/Section A - Title A/GPIO_B4*%
X167100000Y-65600000D03*
%TD*%
%TA.AperFunction,Conductor*%
%TO.N,GND_CAN2*%
G36*
X140446475Y-102629685D02*
G01*
X140467486Y-102653933D01*
X141070591Y-103257037D01*
X141007007Y-103274075D01*
X140892993Y-103339901D01*
X140799901Y-103432993D01*
X140734075Y-103547007D01*
X140717037Y-103610590D01*
X140153457Y-103047010D01*
X140153456Y-103047010D01*
X140127483Y-103082760D01*
X140127482Y-103082762D01*
X140037873Y-103258626D01*
X139976876Y-103446353D01*
X139946000Y-103641302D01*
X139946000Y-103838697D01*
X139976876Y-104033646D01*
X140037873Y-104221373D01*
X140127483Y-104397239D01*
X140153457Y-104432988D01*
X140153457Y-104432989D01*
X140717037Y-103869408D01*
X140734075Y-103932993D01*
X140799901Y-104047007D01*
X140892993Y-104140099D01*
X141007007Y-104205925D01*
X141070590Y-104222962D01*
X140507009Y-104786541D01*
X140507010Y-104786542D01*
X140542755Y-104812512D01*
X140542768Y-104812520D01*
X140718626Y-104902126D01*
X140906353Y-104963123D01*
X141101303Y-104994000D01*
X141298697Y-104994000D01*
X141493646Y-104963123D01*
X141681373Y-104902126D01*
X141857241Y-104812516D01*
X141892988Y-104786543D01*
X141892988Y-104786541D01*
X141329410Y-104222962D01*
X141392993Y-104205925D01*
X141507007Y-104140099D01*
X141600099Y-104047007D01*
X141665925Y-103932993D01*
X141682962Y-103869409D01*
X142246541Y-104432988D01*
X142246543Y-104432988D01*
X142272516Y-104397241D01*
X142362126Y-104221373D01*
X142423123Y-104033646D01*
X142454000Y-103838697D01*
X142454000Y-103641302D01*
X142423123Y-103446353D01*
X142362126Y-103258626D01*
X142272520Y-103082768D01*
X142272512Y-103082755D01*
X142246542Y-103047010D01*
X142246541Y-103047009D01*
X141682962Y-103610589D01*
X141665925Y-103547007D01*
X141600099Y-103432993D01*
X141507007Y-103339901D01*
X141392993Y-103274075D01*
X141329409Y-103257037D01*
X141926275Y-102660171D01*
X141960355Y-102625598D01*
X142020563Y-102610000D01*
X149026000Y-102610000D01*
X149093039Y-102629685D01*
X149138794Y-102682489D01*
X149150000Y-102734000D01*
X149150000Y-126235500D01*
X149130315Y-126302539D01*
X149077511Y-126348294D01*
X149026000Y-126359500D01*
X117153051Y-126359500D01*
X117146968Y-126359351D01*
X117124856Y-126358264D01*
X116788567Y-126341743D01*
X116776457Y-126340550D01*
X116424532Y-126288347D01*
X116412597Y-126285973D01*
X116067481Y-126199526D01*
X116055837Y-126195994D01*
X115720858Y-126076136D01*
X115709629Y-126071485D01*
X115387999Y-125919366D01*
X115377272Y-125913631D01*
X115072118Y-125730729D01*
X115062000Y-125723969D01*
X114776230Y-125512028D01*
X114766824Y-125504308D01*
X114636809Y-125386469D01*
X114503209Y-125265381D01*
X114494618Y-125256790D01*
X114255691Y-124993175D01*
X114247971Y-124983769D01*
X114036030Y-124697999D01*
X114029270Y-124687881D01*
X113984102Y-124612523D01*
X113846363Y-124382720D01*
X113840639Y-124372012D01*
X113688511Y-124050363D01*
X113683867Y-124039151D01*
X113564000Y-123704147D01*
X113560473Y-123692518D01*
X113549319Y-123647989D01*
X113474023Y-123347389D01*
X113471652Y-123335467D01*
X113451847Y-123201954D01*
X113419448Y-122983541D01*
X113418256Y-122971431D01*
X113400649Y-122613032D01*
X113400500Y-122606948D01*
X113400500Y-122441491D01*
X114149500Y-122441491D01*
X114149500Y-122778508D01*
X114187231Y-123113381D01*
X114187233Y-123113397D01*
X114262223Y-123441953D01*
X114262227Y-123441965D01*
X114373532Y-123760054D01*
X114519752Y-124063683D01*
X114519754Y-124063686D01*
X114699054Y-124349039D01*
X114909175Y-124612523D01*
X115147477Y-124850825D01*
X115410961Y-125060946D01*
X115696314Y-125240246D01*
X115999949Y-125386469D01*
X116238848Y-125470063D01*
X116318034Y-125497772D01*
X116318046Y-125497776D01*
X116646606Y-125572767D01*
X116981492Y-125610499D01*
X116981493Y-125610500D01*
X116981496Y-125610500D01*
X117318507Y-125610500D01*
X117318507Y-125610499D01*
X117653394Y-125572767D01*
X117981954Y-125497776D01*
X118300051Y-125386469D01*
X118603686Y-125240246D01*
X118889039Y-125060946D01*
X119152523Y-124850825D01*
X119390825Y-124612523D01*
X119600946Y-124349039D01*
X119780246Y-124063686D01*
X119867744Y-123881995D01*
X125299500Y-123881995D01*
X125299500Y-124118004D01*
X125299501Y-124118020D01*
X125330306Y-124352010D01*
X125391394Y-124579993D01*
X125481714Y-124798045D01*
X125481719Y-124798056D01*
X125512186Y-124850825D01*
X125599727Y-125002450D01*
X125599729Y-125002453D01*
X125599730Y-125002454D01*
X125743406Y-125189697D01*
X125743412Y-125189704D01*
X125910295Y-125356587D01*
X125910302Y-125356593D01*
X126020306Y-125441001D01*
X126097550Y-125500273D01*
X126223112Y-125572766D01*
X126301943Y-125618280D01*
X126301948Y-125618282D01*
X126301951Y-125618284D01*
X126520007Y-125708606D01*
X126747986Y-125769693D01*
X126981989Y-125800500D01*
X126981996Y-125800500D01*
X127218004Y-125800500D01*
X127218011Y-125800500D01*
X127452014Y-125769693D01*
X127679993Y-125708606D01*
X127898049Y-125618284D01*
X128102450Y-125500273D01*
X128289699Y-125356592D01*
X128456592Y-125189699D01*
X128600273Y-125002450D01*
X128718284Y-124798049D01*
X128808606Y-124579993D01*
X128869693Y-124352014D01*
X128900500Y-124118011D01*
X128900500Y-123881995D01*
X137999500Y-123881995D01*
X137999500Y-124118004D01*
X137999501Y-124118020D01*
X138030306Y-124352010D01*
X138091394Y-124579993D01*
X138181714Y-124798045D01*
X138181719Y-124798056D01*
X138212186Y-124850825D01*
X138299727Y-125002450D01*
X138299729Y-125002453D01*
X138299730Y-125002454D01*
X138443406Y-125189697D01*
X138443412Y-125189704D01*
X138610295Y-125356587D01*
X138610302Y-125356593D01*
X138720306Y-125441001D01*
X138797550Y-125500273D01*
X138923112Y-125572766D01*
X139001943Y-125618280D01*
X139001948Y-125618282D01*
X139001951Y-125618284D01*
X139220007Y-125708606D01*
X139447986Y-125769693D01*
X139681989Y-125800500D01*
X139681996Y-125800500D01*
X139918004Y-125800500D01*
X139918011Y-125800500D01*
X140152014Y-125769693D01*
X140379993Y-125708606D01*
X140598049Y-125618284D01*
X140802450Y-125500273D01*
X140989699Y-125356592D01*
X141156592Y-125189699D01*
X141300273Y-125002450D01*
X141418284Y-124798049D01*
X141508606Y-124579993D01*
X141569693Y-124352014D01*
X141600500Y-124118011D01*
X141600500Y-123881989D01*
X141569693Y-123647986D01*
X141508606Y-123420007D01*
X141418284Y-123201951D01*
X141418282Y-123201948D01*
X141418280Y-123201943D01*
X141367157Y-123113397D01*
X141300273Y-122997550D01*
X141156592Y-122810301D01*
X141156587Y-122810295D01*
X140989704Y-122643412D01*
X140989697Y-122643406D01*
X140802454Y-122499730D01*
X140802453Y-122499729D01*
X140802450Y-122499727D01*
X140701586Y-122441493D01*
X140598056Y-122381719D01*
X140598045Y-122381714D01*
X140379993Y-122291394D01*
X140334772Y-122279277D01*
X140152014Y-122230307D01*
X140152013Y-122230306D01*
X140152010Y-122230306D01*
X139918020Y-122199501D01*
X139918017Y-122199500D01*
X139918011Y-122199500D01*
X139681989Y-122199500D01*
X139681983Y-122199500D01*
X139681979Y-122199501D01*
X139447989Y-122230306D01*
X139220006Y-122291394D01*
X139001954Y-122381714D01*
X139001943Y-122381719D01*
X138797545Y-122499730D01*
X138610302Y-122643406D01*
X138610295Y-122643412D01*
X138443412Y-122810295D01*
X138443406Y-122810302D01*
X138299730Y-122997545D01*
X138181719Y-123201943D01*
X138181714Y-123201954D01*
X138091394Y-123420006D01*
X138030306Y-123647989D01*
X137999501Y-123881979D01*
X137999500Y-123881995D01*
X128900500Y-123881995D01*
X128900500Y-123881989D01*
X128869693Y-123647986D01*
X128808606Y-123420007D01*
X128718284Y-123201951D01*
X128718282Y-123201948D01*
X128718280Y-123201943D01*
X128667157Y-123113397D01*
X128600273Y-122997550D01*
X128456592Y-122810301D01*
X128456587Y-122810295D01*
X128289704Y-122643412D01*
X128289697Y-122643406D01*
X128102454Y-122499730D01*
X128102453Y-122499729D01*
X128102450Y-122499727D01*
X128001586Y-122441493D01*
X127898056Y-122381719D01*
X127898045Y-122381714D01*
X127679993Y-122291394D01*
X127634772Y-122279277D01*
X127452014Y-122230307D01*
X127452013Y-122230306D01*
X127452010Y-122230306D01*
X127218020Y-122199501D01*
X127218017Y-122199500D01*
X127218011Y-122199500D01*
X126981989Y-122199500D01*
X126981983Y-122199500D01*
X126981979Y-122199501D01*
X126747989Y-122230306D01*
X126520006Y-122291394D01*
X126301954Y-122381714D01*
X126301943Y-122381719D01*
X126097545Y-122499730D01*
X125910302Y-122643406D01*
X125910295Y-122643412D01*
X125743412Y-122810295D01*
X125743406Y-122810302D01*
X125599730Y-122997545D01*
X125481719Y-123201943D01*
X125481714Y-123201954D01*
X125391394Y-123420006D01*
X125330306Y-123647989D01*
X125299501Y-123881979D01*
X125299500Y-123881995D01*
X119867744Y-123881995D01*
X119926469Y-123760051D01*
X120037776Y-123441954D01*
X120112767Y-123113394D01*
X120150500Y-122778504D01*
X120150500Y-122441496D01*
X120112767Y-122106606D01*
X120099695Y-122049333D01*
X120071613Y-121926295D01*
X120037775Y-121778042D01*
X120037772Y-121778034D01*
X119973061Y-121593101D01*
X119926469Y-121459949D01*
X119780246Y-121156314D01*
X119600946Y-120870961D01*
X119390825Y-120607477D01*
X119240947Y-120457599D01*
X123605000Y-120457599D01*
X123605000Y-120682400D01*
X123605001Y-120682417D01*
X123634342Y-120905287D01*
X123634345Y-120905300D01*
X123692529Y-121122450D01*
X123778561Y-121330149D01*
X123778566Y-121330160D01*
X123890963Y-121524836D01*
X123890969Y-121524844D01*
X123943343Y-121593101D01*
X124596499Y-120939945D01*
X124602188Y-120953679D01*
X124690832Y-121086345D01*
X124803655Y-121199168D01*
X124936321Y-121287812D01*
X124950053Y-121293500D01*
X124296897Y-121946655D01*
X124296897Y-121946656D01*
X124365155Y-121999030D01*
X124365163Y-121999036D01*
X124559839Y-122111433D01*
X124559850Y-122111438D01*
X124767549Y-122197470D01*
X124984699Y-122255654D01*
X124984712Y-122255657D01*
X125207582Y-122284998D01*
X125207600Y-122285000D01*
X125432400Y-122285000D01*
X125432417Y-122284998D01*
X125655287Y-122255657D01*
X125655300Y-122255654D01*
X125872450Y-122197470D01*
X126080149Y-122111438D01*
X126080160Y-122111433D01*
X126274839Y-121999034D01*
X126274847Y-121999028D01*
X126343101Y-121946655D01*
X125689946Y-121293500D01*
X125703679Y-121287812D01*
X125836345Y-121199168D01*
X125949168Y-121086345D01*
X126037812Y-120953679D01*
X126043500Y-120939946D01*
X126696655Y-121593101D01*
X126749028Y-121524847D01*
X126749034Y-121524839D01*
X126861433Y-121330160D01*
X126861438Y-121330149D01*
X126947470Y-121122450D01*
X127005654Y-120905300D01*
X127005657Y-120905287D01*
X127034998Y-120682417D01*
X127035000Y-120682400D01*
X127035000Y-120457599D01*
X127034998Y-120457582D01*
X127005657Y-120234712D01*
X127005654Y-120234699D01*
X126947470Y-120017549D01*
X126861438Y-119809850D01*
X126861433Y-119809839D01*
X126766179Y-119644855D01*
X126766178Y-119644854D01*
X126749032Y-119615156D01*
X126749030Y-119615155D01*
X126728915Y-119588940D01*
X128969500Y-119588940D01*
X128969500Y-119771059D01*
X129005026Y-119949659D01*
X129005028Y-119949667D01*
X129074717Y-120117912D01*
X129074722Y-120117921D01*
X129175893Y-120269333D01*
X129175896Y-120269337D01*
X129304662Y-120398103D01*
X129304666Y-120398106D01*
X129456078Y-120499277D01*
X129456084Y-120499280D01*
X129456085Y-120499281D01*
X129624333Y-120568972D01*
X129747966Y-120593564D01*
X129802940Y-120604499D01*
X129802944Y-120604500D01*
X129802945Y-120604500D01*
X129985056Y-120604500D01*
X129985057Y-120604499D01*
X130050677Y-120591447D01*
X130169642Y-120567784D01*
X130169876Y-120568960D01*
X130233382Y-120568388D01*
X130292498Y-120605631D01*
X130322095Y-120668922D01*
X130312775Y-120738167D01*
X130287203Y-120775356D01*
X130191893Y-120870666D01*
X130090722Y-121022078D01*
X130090717Y-121022087D01*
X130021028Y-121190332D01*
X130021026Y-121190340D01*
X129985500Y-121368940D01*
X129985500Y-121551059D01*
X130021026Y-121729659D01*
X130021028Y-121729667D01*
X130090717Y-121897912D01*
X130090722Y-121897921D01*
X130191893Y-122049333D01*
X130191896Y-122049337D01*
X130320662Y-122178103D01*
X130320666Y-122178106D01*
X130472078Y-122279277D01*
X130472084Y-122279280D01*
X130472085Y-122279281D01*
X130640333Y-122348972D01*
X130760462Y-122372867D01*
X130818940Y-122384499D01*
X130818944Y-122384500D01*
X130818945Y-122384500D01*
X131001056Y-122384500D01*
X131001057Y-122384499D01*
X131179667Y-122348972D01*
X131347915Y-122279281D01*
X131499334Y-122178106D01*
X131628106Y-122049334D01*
X131729281Y-121897915D01*
X131798972Y-121729667D01*
X131804383Y-121702466D01*
X131836767Y-121640555D01*
X131897483Y-121605981D01*
X131967253Y-121609720D01*
X132023925Y-121650586D01*
X132047617Y-121702466D01*
X132053026Y-121729659D01*
X132053028Y-121729667D01*
X132122717Y-121897912D01*
X132122722Y-121897921D01*
X132223893Y-122049333D01*
X132223896Y-122049337D01*
X132352662Y-122178103D01*
X132352666Y-122178106D01*
X132504078Y-122279277D01*
X132504084Y-122279280D01*
X132504085Y-122279281D01*
X132672333Y-122348972D01*
X132792462Y-122372867D01*
X132850940Y-122384499D01*
X132850944Y-122384500D01*
X132850945Y-122384500D01*
X133033056Y-122384500D01*
X133033057Y-122384499D01*
X133211667Y-122348972D01*
X133379915Y-122279281D01*
X133531334Y-122178106D01*
X133660106Y-122049334D01*
X133678985Y-122021078D01*
X133732596Y-121976273D01*
X133801920Y-121967564D01*
X133864948Y-121997718D01*
X133892572Y-122033672D01*
X133927139Y-122101511D01*
X133948934Y-122131511D01*
X134515531Y-121564914D01*
X134536029Y-121641413D01*
X134597906Y-121748587D01*
X134685413Y-121836094D01*
X134792587Y-121897971D01*
X134869084Y-121918468D01*
X134302486Y-122485064D01*
X134302487Y-122485065D01*
X134332473Y-122506851D01*
X134332482Y-122506857D01*
X134504144Y-122594323D01*
X134687382Y-122653861D01*
X134687381Y-122653861D01*
X134877670Y-122684000D01*
X135070330Y-122684000D01*
X135260618Y-122653861D01*
X135443855Y-122594323D01*
X135615516Y-122506858D01*
X135645511Y-122485065D01*
X135645511Y-122485064D01*
X135078915Y-121918467D01*
X135155413Y-121897971D01*
X135262587Y-121836094D01*
X135350094Y-121748587D01*
X135411971Y-121641413D01*
X135432468Y-121564915D01*
X136014722Y-122147169D01*
X136024610Y-122149247D01*
X136074367Y-122198298D01*
X136087578Y-122234308D01*
X136093132Y-122262229D01*
X136093132Y-122262230D01*
X136137447Y-122328552D01*
X136203769Y-122372867D01*
X136203770Y-122372868D01*
X136262247Y-122384499D01*
X136262250Y-122384500D01*
X136262252Y-122384500D01*
X137749750Y-122384500D01*
X137749751Y-122384499D01*
X137764568Y-122381552D01*
X137808229Y-122372868D01*
X137808229Y-122372867D01*
X137808231Y-122372867D01*
X137874552Y-122328552D01*
X137918867Y-122262231D01*
X137918867Y-122262229D01*
X137918868Y-122262229D01*
X137930499Y-122203752D01*
X137930500Y-122203750D01*
X137930500Y-120716249D01*
X137930499Y-120716247D01*
X137918868Y-120657770D01*
X137918867Y-120657769D01*
X137874552Y-120591447D01*
X137822453Y-120556636D01*
X137822452Y-120556635D01*
X137808231Y-120547132D01*
X137808229Y-120547131D01*
X137749752Y-120535500D01*
X137749748Y-120535500D01*
X136741303Y-120535500D01*
X136674264Y-120515815D01*
X136628509Y-120463011D01*
X136627731Y-120457599D01*
X139865000Y-120457599D01*
X139865000Y-120682400D01*
X139865001Y-120682417D01*
X139894342Y-120905287D01*
X139894345Y-120905300D01*
X139952529Y-121122450D01*
X140038561Y-121330149D01*
X140038566Y-121330160D01*
X140150963Y-121524836D01*
X140150969Y-121524844D01*
X140203343Y-121593101D01*
X140856499Y-120939945D01*
X140862188Y-120953679D01*
X140950832Y-121086345D01*
X141063655Y-121199168D01*
X141196321Y-121287812D01*
X141210053Y-121293500D01*
X140556897Y-121946655D01*
X140556897Y-121946656D01*
X140625155Y-121999030D01*
X140625163Y-121999036D01*
X140819839Y-122111433D01*
X140819850Y-122111438D01*
X141027549Y-122197470D01*
X141244699Y-122255654D01*
X141244712Y-122255657D01*
X141467582Y-122284998D01*
X141467600Y-122285000D01*
X141692400Y-122285000D01*
X141692417Y-122284998D01*
X141915287Y-122255657D01*
X141915300Y-122255654D01*
X142132450Y-122197470D01*
X142340149Y-122111438D01*
X142340160Y-122111433D01*
X142534839Y-121999034D01*
X142534847Y-121999028D01*
X142603101Y-121946655D01*
X141949946Y-121293500D01*
X141963679Y-121287812D01*
X142096345Y-121199168D01*
X142209168Y-121086345D01*
X142297812Y-120953679D01*
X142303500Y-120939946D01*
X142956655Y-121593101D01*
X143009028Y-121524847D01*
X143009034Y-121524839D01*
X143121433Y-121330160D01*
X143121438Y-121330149D01*
X143207470Y-121122450D01*
X143265654Y-120905300D01*
X143265657Y-120905287D01*
X143294998Y-120682417D01*
X143295000Y-120682400D01*
X143295000Y-120457599D01*
X143294998Y-120457582D01*
X143265657Y-120234712D01*
X143265654Y-120234699D01*
X143207470Y-120017549D01*
X143121438Y-119809850D01*
X143121433Y-119809839D01*
X143009036Y-119615163D01*
X143009030Y-119615155D01*
X142956655Y-119546897D01*
X142303499Y-120200052D01*
X142297812Y-120186321D01*
X142209168Y-120053655D01*
X142096345Y-119940832D01*
X141963679Y-119852188D01*
X141949946Y-119846499D01*
X142603101Y-119193343D01*
X142603101Y-119193342D01*
X142534844Y-119140969D01*
X142534836Y-119140963D01*
X142340160Y-119028566D01*
X142340149Y-119028561D01*
X142132450Y-118942529D01*
X141915300Y-118884345D01*
X141915287Y-118884342D01*
X141692417Y-118855001D01*
X141692400Y-118855000D01*
X141467600Y-118855000D01*
X141467582Y-118855001D01*
X141244712Y-118884342D01*
X141244699Y-118884345D01*
X141027549Y-118942529D01*
X140819850Y-119028561D01*
X140819839Y-119028566D01*
X140625161Y-119140964D01*
X140625146Y-119140974D01*
X140556896Y-119193343D01*
X141210053Y-119846499D01*
X141196321Y-119852188D01*
X141063655Y-119940832D01*
X140950832Y-120053655D01*
X140862188Y-120186321D01*
X140856499Y-120200052D01*
X140203343Y-119546896D01*
X140150974Y-119615146D01*
X140150964Y-119615161D01*
X140038566Y-119809839D01*
X140038561Y-119809850D01*
X139952529Y-120017549D01*
X139894345Y-120234699D01*
X139894342Y-120234712D01*
X139865001Y-120457582D01*
X139865000Y-120457599D01*
X136627731Y-120457599D01*
X136618565Y-120393853D01*
X136647590Y-120330297D01*
X136653622Y-120323819D01*
X136708103Y-120269337D01*
X136708106Y-120269334D01*
X136809281Y-120117915D01*
X136878972Y-119949667D01*
X136914500Y-119771055D01*
X136914500Y-119588945D01*
X136878972Y-119410333D01*
X136809281Y-119242085D01*
X136809280Y-119242084D01*
X136809277Y-119242078D01*
X136708106Y-119090666D01*
X136708103Y-119090662D01*
X136579337Y-118961896D01*
X136579333Y-118961893D01*
X136427921Y-118860722D01*
X136427912Y-118860717D01*
X136259667Y-118791028D01*
X136259659Y-118791026D01*
X136081059Y-118755500D01*
X136081055Y-118755500D01*
X135898945Y-118755500D01*
X135898940Y-118755500D01*
X135720340Y-118791026D01*
X135720332Y-118791028D01*
X135552087Y-118860717D01*
X135552078Y-118860722D01*
X135400666Y-118961893D01*
X135400662Y-118961896D01*
X135271896Y-119090662D01*
X135271893Y-119090666D01*
X135170722Y-119242078D01*
X135170717Y-119242087D01*
X135101028Y-119410332D01*
X135101026Y-119410340D01*
X135095617Y-119437533D01*
X135063232Y-119499444D01*
X135002516Y-119534019D01*
X134932747Y-119530279D01*
X134876075Y-119489412D01*
X134852383Y-119437533D01*
X134846973Y-119410340D01*
X134846972Y-119410333D01*
X134777281Y-119242085D01*
X134777280Y-119242084D01*
X134777277Y-119242078D01*
X134676106Y-119090666D01*
X134676103Y-119090662D01*
X134547337Y-118961896D01*
X134547333Y-118961893D01*
X134395921Y-118860722D01*
X134395912Y-118860717D01*
X134227667Y-118791028D01*
X134227659Y-118791026D01*
X134049059Y-118755500D01*
X134049055Y-118755500D01*
X133866945Y-118755500D01*
X133866940Y-118755500D01*
X133688340Y-118791026D01*
X133688332Y-118791028D01*
X133520087Y-118860717D01*
X133520078Y-118860722D01*
X133368666Y-118961893D01*
X133368662Y-118961896D01*
X133239896Y-119090662D01*
X133239893Y-119090666D01*
X133138722Y-119242078D01*
X133138717Y-119242087D01*
X133069028Y-119410332D01*
X133069026Y-119410340D01*
X133063617Y-119437533D01*
X133031232Y-119499444D01*
X132970516Y-119534019D01*
X132900747Y-119530279D01*
X132844075Y-119489412D01*
X132820383Y-119437533D01*
X132814973Y-119410340D01*
X132814972Y-119410333D01*
X132745281Y-119242085D01*
X132745280Y-119242084D01*
X132745277Y-119242078D01*
X132644106Y-119090666D01*
X132644103Y-119090662D01*
X132515337Y-118961896D01*
X132515333Y-118961893D01*
X132363921Y-118860722D01*
X132363912Y-118860717D01*
X132195667Y-118791028D01*
X132195659Y-118791026D01*
X132017059Y-118755500D01*
X132017055Y-118755500D01*
X131834945Y-118755500D01*
X131834940Y-118755500D01*
X131656340Y-118791026D01*
X131656332Y-118791028D01*
X131488087Y-118860717D01*
X131488078Y-118860722D01*
X131336666Y-118961893D01*
X131336662Y-118961896D01*
X131207896Y-119090662D01*
X131207893Y-119090666D01*
X131106722Y-119242078D01*
X131106717Y-119242087D01*
X131037028Y-119410332D01*
X131037026Y-119410340D01*
X131031617Y-119437533D01*
X130999232Y-119499444D01*
X130938516Y-119534019D01*
X130868747Y-119530279D01*
X130812075Y-119489412D01*
X130788383Y-119437533D01*
X130782973Y-119410340D01*
X130782972Y-119410333D01*
X130713281Y-119242085D01*
X130713280Y-119242084D01*
X130713277Y-119242078D01*
X130612106Y-119090666D01*
X130612103Y-119090662D01*
X130483337Y-118961896D01*
X130483333Y-118961893D01*
X130331921Y-118860722D01*
X130331912Y-118860717D01*
X130163667Y-118791028D01*
X130163659Y-118791026D01*
X129985059Y-118755500D01*
X129985055Y-118755500D01*
X129802945Y-118755500D01*
X129802940Y-118755500D01*
X129624340Y-118791026D01*
X129624332Y-118791028D01*
X129456087Y-118860717D01*
X129456078Y-118860722D01*
X129304666Y-118961893D01*
X129304662Y-118961896D01*
X129175896Y-119090662D01*
X129175893Y-119090666D01*
X129074722Y-119242078D01*
X129074717Y-119242087D01*
X129005028Y-119410332D01*
X129005026Y-119410340D01*
X128969500Y-119588940D01*
X126728915Y-119588940D01*
X126696655Y-119546897D01*
X126043499Y-120200052D01*
X126037812Y-120186321D01*
X125949168Y-120053655D01*
X125836345Y-119940832D01*
X125703679Y-119852188D01*
X125689946Y-119846499D01*
X126343101Y-119193343D01*
X126343101Y-119193342D01*
X126274844Y-119140969D01*
X126274836Y-119140963D01*
X126080160Y-119028566D01*
X126080149Y-119028561D01*
X125872450Y-118942529D01*
X125655300Y-118884345D01*
X125655287Y-118884342D01*
X125432417Y-118855001D01*
X125432400Y-118855000D01*
X125207600Y-118855000D01*
X125207582Y-118855001D01*
X124984712Y-118884342D01*
X124984699Y-118884345D01*
X124767549Y-118942529D01*
X124559850Y-119028561D01*
X124559839Y-119028566D01*
X124365161Y-119140964D01*
X124365146Y-119140974D01*
X124296896Y-119193343D01*
X124950053Y-119846499D01*
X124936321Y-119852188D01*
X124803655Y-119940832D01*
X124690832Y-120053655D01*
X124602188Y-120186321D01*
X124596499Y-120200052D01*
X123943343Y-119546896D01*
X123890974Y-119615146D01*
X123890964Y-119615161D01*
X123778566Y-119809839D01*
X123778561Y-119809850D01*
X123692529Y-120017549D01*
X123634345Y-120234699D01*
X123634342Y-120234712D01*
X123605001Y-120457582D01*
X123605000Y-120457599D01*
X119240947Y-120457599D01*
X119152523Y-120369175D01*
X118889039Y-120159054D01*
X118603686Y-119979754D01*
X118603683Y-119979752D01*
X118300054Y-119833532D01*
X117981965Y-119722227D01*
X117981953Y-119722223D01*
X117653397Y-119647233D01*
X117653381Y-119647231D01*
X117318508Y-119609500D01*
X117318504Y-119609500D01*
X116981496Y-119609500D01*
X116981491Y-119609500D01*
X116646618Y-119647231D01*
X116646602Y-119647233D01*
X116318046Y-119722223D01*
X116318034Y-119722227D01*
X115999945Y-119833532D01*
X115696316Y-119979752D01*
X115410962Y-120159053D01*
X115147477Y-120369174D01*
X114909174Y-120607477D01*
X114699053Y-120870962D01*
X114519752Y-121156316D01*
X114373532Y-121459945D01*
X114262227Y-121778034D01*
X114262223Y-121778046D01*
X114187233Y-122106602D01*
X114187231Y-122106618D01*
X114149500Y-122441491D01*
X113400500Y-122441491D01*
X113400500Y-110147399D01*
X133574500Y-110147399D01*
X133574500Y-110272601D01*
X133606905Y-110393536D01*
X133669505Y-110501964D01*
X133758036Y-110590495D01*
X133866464Y-110653095D01*
X133987399Y-110685500D01*
X133987401Y-110685500D01*
X134112599Y-110685500D01*
X134112601Y-110685500D01*
X134233536Y-110653095D01*
X134341964Y-110590495D01*
X134430495Y-110501964D01*
X134493095Y-110393536D01*
X134525500Y-110272601D01*
X134525500Y-110147399D01*
X134493095Y-110026464D01*
X134430495Y-109918036D01*
X134341964Y-109829505D01*
X134233536Y-109766905D01*
X134233537Y-109766905D01*
X134193224Y-109756103D01*
X134112601Y-109734500D01*
X133987399Y-109734500D01*
X133906775Y-109756103D01*
X133866463Y-109766905D01*
X133758037Y-109829504D01*
X133758034Y-109829506D01*
X133669506Y-109918034D01*
X133669504Y-109918037D01*
X133606905Y-110026463D01*
X133606905Y-110026464D01*
X133574500Y-110147399D01*
X113400500Y-110147399D01*
X113400500Y-106185985D01*
X140245500Y-106185985D01*
X140245500Y-106374014D01*
X140282179Y-106558409D01*
X140282182Y-106558421D01*
X140354129Y-106732118D01*
X140354136Y-106732131D01*
X140458591Y-106888457D01*
X140458594Y-106888461D01*
X140591538Y-107021405D01*
X140591542Y-107021408D01*
X140747868Y-107125863D01*
X140747881Y-107125870D01*
X140921578Y-107197817D01*
X140921583Y-107197819D01*
X141105985Y-107234499D01*
X141105988Y-107234500D01*
X141105990Y-107234500D01*
X141294012Y-107234500D01*
X141294013Y-107234499D01*
X141478417Y-107197819D01*
X141652125Y-107125867D01*
X141808458Y-107021408D01*
X141941408Y-106888458D01*
X142045867Y-106732125D01*
X142117819Y-106558417D01*
X142154500Y-106374010D01*
X142154500Y-106185990D01*
X142154500Y-106185987D01*
X142154499Y-106185985D01*
X142117820Y-106001590D01*
X142117819Y-106001583D01*
X142071805Y-105890495D01*
X142045870Y-105827881D01*
X142045863Y-105827868D01*
X141941408Y-105671542D01*
X141941405Y-105671538D01*
X141808461Y-105538594D01*
X141808457Y-105538591D01*
X141652131Y-105434136D01*
X141652118Y-105434129D01*
X141478421Y-105362182D01*
X141478409Y-105362179D01*
X141294013Y-105325500D01*
X141294010Y-105325500D01*
X141105990Y-105325500D01*
X141105987Y-105325500D01*
X140921590Y-105362179D01*
X140921578Y-105362182D01*
X140747881Y-105434129D01*
X140747868Y-105434136D01*
X140591542Y-105538591D01*
X140591538Y-105538594D01*
X140458594Y-105671538D01*
X140458591Y-105671542D01*
X140354136Y-105827868D01*
X140354129Y-105827881D01*
X140282182Y-106001578D01*
X140282179Y-106001590D01*
X140245500Y-106185985D01*
X113400500Y-106185985D01*
X113400500Y-105447399D01*
X133574500Y-105447399D01*
X133574500Y-105572601D01*
X133606905Y-105693536D01*
X133669505Y-105801964D01*
X133758036Y-105890495D01*
X133866464Y-105953095D01*
X133987399Y-105985500D01*
X133987401Y-105985500D01*
X134112599Y-105985500D01*
X134112601Y-105985500D01*
X134233536Y-105953095D01*
X134341964Y-105890495D01*
X134430495Y-105801964D01*
X134493095Y-105693536D01*
X134525500Y-105572601D01*
X134525500Y-105447399D01*
X134522820Y-105437399D01*
X137524500Y-105437399D01*
X137524500Y-105562601D01*
X137556905Y-105683536D01*
X137619505Y-105791964D01*
X137708036Y-105880495D01*
X137816464Y-105943095D01*
X137937399Y-105975500D01*
X137937401Y-105975500D01*
X138062599Y-105975500D01*
X138062601Y-105975500D01*
X138183536Y-105943095D01*
X138291964Y-105880495D01*
X138380495Y-105791964D01*
X138443095Y-105683536D01*
X138475500Y-105562601D01*
X138475500Y-105437399D01*
X138443095Y-105316464D01*
X138380495Y-105208036D01*
X138291964Y-105119505D01*
X138183536Y-105056905D01*
X138183537Y-105056905D01*
X138143224Y-105046103D01*
X138062601Y-105024500D01*
X137937399Y-105024500D01*
X137856775Y-105046103D01*
X137816463Y-105056905D01*
X137708037Y-105119504D01*
X137708034Y-105119506D01*
X137619506Y-105208034D01*
X137619504Y-105208037D01*
X137556905Y-105316463D01*
X137556905Y-105316464D01*
X137524500Y-105437399D01*
X134522820Y-105437399D01*
X134493095Y-105326464D01*
X134430495Y-105218036D01*
X134341964Y-105129505D01*
X134233536Y-105066905D01*
X134233537Y-105066905D01*
X134193224Y-105056103D01*
X134112601Y-105034500D01*
X133987399Y-105034500D01*
X133906775Y-105056103D01*
X133866463Y-105066905D01*
X133758037Y-105129504D01*
X133758034Y-105129506D01*
X133669506Y-105218034D01*
X133669504Y-105218037D01*
X133606905Y-105326463D01*
X133606905Y-105326464D01*
X133574500Y-105447399D01*
X113400500Y-105447399D01*
X113400500Y-102734000D01*
X113420185Y-102666961D01*
X113472989Y-102621206D01*
X113524500Y-102610000D01*
X140379436Y-102610000D01*
X140446475Y-102629685D01*
G37*
%TD.AperFunction*%
%TD*%
%TA.AperFunction,Conductor*%
%TO.N,GND_CAN1*%
G36*
X192842539Y-95579685D02*
G01*
X192888294Y-95632489D01*
X192899500Y-95684000D01*
X192899500Y-122606948D01*
X192899351Y-122613033D01*
X192881743Y-122971432D01*
X192880550Y-122983542D01*
X192828347Y-123335467D01*
X192825973Y-123347402D01*
X192739526Y-123692518D01*
X192735994Y-123704162D01*
X192616142Y-124039127D01*
X192611485Y-124050370D01*
X192459366Y-124372000D01*
X192453629Y-124382732D01*
X192270729Y-124687881D01*
X192263969Y-124697999D01*
X192052028Y-124983769D01*
X192044308Y-124993175D01*
X191805388Y-125256783D01*
X191796783Y-125265388D01*
X191533175Y-125504308D01*
X191523769Y-125512028D01*
X191237999Y-125723969D01*
X191227881Y-125730729D01*
X190922732Y-125913629D01*
X190912000Y-125919366D01*
X190590370Y-126071485D01*
X190579134Y-126076139D01*
X190455442Y-126120397D01*
X190244162Y-126195994D01*
X190232518Y-126199526D01*
X189887402Y-126285973D01*
X189875467Y-126288347D01*
X189523542Y-126340550D01*
X189511432Y-126341743D01*
X189173927Y-126358324D01*
X189153031Y-126359351D01*
X189146949Y-126359500D01*
X150274000Y-126359500D01*
X150206961Y-126339815D01*
X150161206Y-126287011D01*
X150150000Y-126235500D01*
X150150000Y-122441491D01*
X186149500Y-122441491D01*
X186149500Y-122778508D01*
X186187231Y-123113381D01*
X186187233Y-123113397D01*
X186262223Y-123441953D01*
X186262227Y-123441965D01*
X186373532Y-123760054D01*
X186519752Y-124063683D01*
X186519754Y-124063686D01*
X186699054Y-124349039D01*
X186909175Y-124612523D01*
X187147477Y-124850825D01*
X187410961Y-125060946D01*
X187696314Y-125240246D01*
X187999949Y-125386469D01*
X188238848Y-125470063D01*
X188318034Y-125497772D01*
X188318046Y-125497776D01*
X188646606Y-125572767D01*
X188981492Y-125610499D01*
X188981493Y-125610500D01*
X188981496Y-125610500D01*
X189318507Y-125610500D01*
X189318507Y-125610499D01*
X189653394Y-125572767D01*
X189981954Y-125497776D01*
X190300051Y-125386469D01*
X190603686Y-125240246D01*
X190889039Y-125060946D01*
X191152523Y-124850825D01*
X191390825Y-124612523D01*
X191600946Y-124349039D01*
X191780246Y-124063686D01*
X191926469Y-123760051D01*
X192037776Y-123441954D01*
X192112767Y-123113394D01*
X192150500Y-122778504D01*
X192150500Y-122441496D01*
X192112767Y-122106606D01*
X192037776Y-121778046D01*
X191926469Y-121459949D01*
X191780246Y-121156314D01*
X191600946Y-120870961D01*
X191390825Y-120607477D01*
X191152523Y-120369175D01*
X190889039Y-120159054D01*
X190603686Y-119979754D01*
X190603683Y-119979752D01*
X190300054Y-119833532D01*
X189981965Y-119722227D01*
X189981953Y-119722223D01*
X189653397Y-119647233D01*
X189653381Y-119647231D01*
X189318508Y-119609500D01*
X189318504Y-119609500D01*
X188981496Y-119609500D01*
X188981491Y-119609500D01*
X188646618Y-119647231D01*
X188646602Y-119647233D01*
X188318046Y-119722223D01*
X188318034Y-119722227D01*
X187999945Y-119833532D01*
X187696316Y-119979752D01*
X187410962Y-120159053D01*
X187147477Y-120369174D01*
X186909174Y-120607477D01*
X186699053Y-120870962D01*
X186519752Y-121156316D01*
X186373532Y-121459945D01*
X186262227Y-121778034D01*
X186262223Y-121778046D01*
X186187233Y-122106602D01*
X186187231Y-122106618D01*
X186149500Y-122441491D01*
X150150000Y-122441491D01*
X150150000Y-119420730D01*
X154649500Y-119420730D01*
X154649500Y-120979269D01*
X154652353Y-121009699D01*
X154652353Y-121009701D01*
X154697206Y-121137880D01*
X154697207Y-121137882D01*
X154777850Y-121247150D01*
X154887118Y-121327793D01*
X154908089Y-121335131D01*
X155015299Y-121372646D01*
X155045730Y-121375500D01*
X155045734Y-121375500D01*
X156354270Y-121375500D01*
X156384699Y-121372646D01*
X156384701Y-121372646D01*
X156448790Y-121350219D01*
X156512882Y-121327793D01*
X156622150Y-121247150D01*
X156702793Y-121137882D01*
X156739648Y-121032557D01*
X156747646Y-121009701D01*
X156747646Y-121009699D01*
X156750500Y-120979269D01*
X156750500Y-119971530D01*
X157149500Y-119971530D01*
X157149500Y-120428469D01*
X157189868Y-120631412D01*
X157189870Y-120631420D01*
X157207921Y-120675000D01*
X157269059Y-120822598D01*
X157282836Y-120843217D01*
X157384024Y-120994657D01*
X157530342Y-121140975D01*
X157530345Y-121140977D01*
X157702402Y-121255941D01*
X157893580Y-121335130D01*
X158082187Y-121372646D01*
X158096530Y-121375499D01*
X158096534Y-121375500D01*
X158096535Y-121375500D01*
X158303466Y-121375500D01*
X158303467Y-121375499D01*
X158506420Y-121335130D01*
X158697598Y-121255941D01*
X158869655Y-121140977D01*
X159015977Y-120994655D01*
X159130941Y-120822598D01*
X159176748Y-120712009D01*
X159220589Y-120657606D01*
X159286883Y-120635541D01*
X159354582Y-120652820D01*
X159402193Y-120703957D01*
X159409240Y-120721144D01*
X159448904Y-120843216D01*
X159545379Y-121032557D01*
X159670272Y-121204459D01*
X159670276Y-121204464D01*
X159820535Y-121354723D01*
X159820540Y-121354727D01*
X159992442Y-121479620D01*
X160181782Y-121576095D01*
X160383871Y-121641757D01*
X160450000Y-121652231D01*
X160450000Y-120604145D01*
X160516657Y-120642630D01*
X160637465Y-120675000D01*
X160762535Y-120675000D01*
X160883343Y-120642630D01*
X160950000Y-120604145D01*
X160950000Y-121652230D01*
X161016126Y-121641757D01*
X161016129Y-121641757D01*
X161218217Y-121576095D01*
X161407557Y-121479620D01*
X161579459Y-121354727D01*
X161579464Y-121354723D01*
X161729723Y-121204464D01*
X161729727Y-121204459D01*
X161854620Y-121032557D01*
X161951095Y-120843217D01*
X161990759Y-120721144D01*
X162030196Y-120663469D01*
X162094555Y-120636270D01*
X162163401Y-120648184D01*
X162214877Y-120695428D01*
X162223251Y-120712009D01*
X162269057Y-120822596D01*
X162384024Y-120994657D01*
X162530342Y-121140975D01*
X162530345Y-121140977D01*
X162702402Y-121255941D01*
X162893580Y-121335130D01*
X163082187Y-121372646D01*
X163096530Y-121375499D01*
X163096534Y-121375500D01*
X163096535Y-121375500D01*
X163303466Y-121375500D01*
X163303467Y-121375499D01*
X163506420Y-121335130D01*
X163697598Y-121255941D01*
X163869655Y-121140977D01*
X164015977Y-120994655D01*
X164130941Y-120822598D01*
X164210130Y-120631420D01*
X164250500Y-120428465D01*
X164250500Y-119971535D01*
X164210130Y-119768580D01*
X164130941Y-119577402D01*
X164070353Y-119486725D01*
X164070352Y-119486722D01*
X164026257Y-119420730D01*
X170249500Y-119420730D01*
X170249500Y-120979269D01*
X170252353Y-121009699D01*
X170252353Y-121009701D01*
X170297206Y-121137880D01*
X170297207Y-121137882D01*
X170377850Y-121247150D01*
X170487118Y-121327793D01*
X170508089Y-121335131D01*
X170615299Y-121372646D01*
X170645730Y-121375500D01*
X170645734Y-121375500D01*
X171954270Y-121375500D01*
X171984699Y-121372646D01*
X171984701Y-121372646D01*
X172048790Y-121350219D01*
X172112882Y-121327793D01*
X172222150Y-121247150D01*
X172302793Y-121137882D01*
X172339648Y-121032557D01*
X172347646Y-121009701D01*
X172347646Y-121009699D01*
X172350500Y-120979269D01*
X172350500Y-119971530D01*
X172749500Y-119971530D01*
X172749500Y-120428469D01*
X172789868Y-120631412D01*
X172789870Y-120631420D01*
X172807921Y-120675000D01*
X172869059Y-120822598D01*
X172882836Y-120843217D01*
X172984024Y-120994657D01*
X173130342Y-121140975D01*
X173130345Y-121140977D01*
X173302402Y-121255941D01*
X173493580Y-121335130D01*
X173682187Y-121372646D01*
X173696530Y-121375499D01*
X173696534Y-121375500D01*
X173696535Y-121375500D01*
X173903466Y-121375500D01*
X173903467Y-121375499D01*
X174106420Y-121335130D01*
X174297598Y-121255941D01*
X174469655Y-121140977D01*
X174615977Y-120994655D01*
X174730941Y-120822598D01*
X174776748Y-120712009D01*
X174820589Y-120657606D01*
X174886883Y-120635541D01*
X174954582Y-120652820D01*
X175002193Y-120703957D01*
X175009240Y-120721144D01*
X175048904Y-120843216D01*
X175145379Y-121032557D01*
X175270272Y-121204459D01*
X175270276Y-121204464D01*
X175420535Y-121354723D01*
X175420540Y-121354727D01*
X175592442Y-121479620D01*
X175781782Y-121576095D01*
X175983871Y-121641757D01*
X176050000Y-121652231D01*
X176050000Y-120604145D01*
X176116657Y-120642630D01*
X176237465Y-120675000D01*
X176362535Y-120675000D01*
X176483343Y-120642630D01*
X176550000Y-120604145D01*
X176550000Y-121652230D01*
X176616126Y-121641757D01*
X176616129Y-121641757D01*
X176818217Y-121576095D01*
X177007557Y-121479620D01*
X177179459Y-121354727D01*
X177179464Y-121354723D01*
X177329723Y-121204464D01*
X177329727Y-121204459D01*
X177454620Y-121032557D01*
X177551095Y-120843217D01*
X177590759Y-120721144D01*
X177630196Y-120663469D01*
X177694555Y-120636270D01*
X177763401Y-120648184D01*
X177814877Y-120695428D01*
X177823251Y-120712009D01*
X177869057Y-120822596D01*
X177984024Y-120994657D01*
X178130342Y-121140975D01*
X178130345Y-121140977D01*
X178302402Y-121255941D01*
X178493580Y-121335130D01*
X178682187Y-121372646D01*
X178696530Y-121375499D01*
X178696534Y-121375500D01*
X178696535Y-121375500D01*
X178903466Y-121375500D01*
X178903467Y-121375499D01*
X179106420Y-121335130D01*
X179297598Y-121255941D01*
X179469655Y-121140977D01*
X179615977Y-120994655D01*
X179730941Y-120822598D01*
X179810130Y-120631420D01*
X179850500Y-120428465D01*
X179850500Y-119971535D01*
X179810130Y-119768580D01*
X179730941Y-119577402D01*
X179615977Y-119405345D01*
X179615975Y-119405342D01*
X179469657Y-119259024D01*
X179374638Y-119195535D01*
X179297598Y-119144059D01*
X179106420Y-119064870D01*
X179106412Y-119064868D01*
X178903469Y-119024500D01*
X178903465Y-119024500D01*
X178696535Y-119024500D01*
X178696530Y-119024500D01*
X178493587Y-119064868D01*
X178493579Y-119064870D01*
X178302403Y-119144058D01*
X178130342Y-119259024D01*
X177984024Y-119405342D01*
X177869057Y-119577404D01*
X177823251Y-119687990D01*
X177779409Y-119742394D01*
X177713115Y-119764458D01*
X177645416Y-119747178D01*
X177597806Y-119696041D01*
X177590759Y-119678855D01*
X177551095Y-119556782D01*
X177454620Y-119367442D01*
X177329727Y-119195540D01*
X177329723Y-119195535D01*
X177179464Y-119045276D01*
X177179459Y-119045272D01*
X177007557Y-118920379D01*
X176818215Y-118823903D01*
X176616124Y-118758241D01*
X176550000Y-118747768D01*
X176550000Y-119795854D01*
X176483343Y-119757370D01*
X176362535Y-119725000D01*
X176237465Y-119725000D01*
X176116657Y-119757370D01*
X176050000Y-119795854D01*
X176050000Y-118747768D01*
X176049999Y-118747768D01*
X175983875Y-118758241D01*
X175781784Y-118823903D01*
X175592442Y-118920379D01*
X175420540Y-119045272D01*
X175420535Y-119045276D01*
X175270276Y-119195535D01*
X175270272Y-119195540D01*
X175145379Y-119367442D01*
X175048905Y-119556781D01*
X175009240Y-119678856D01*
X174969802Y-119736531D01*
X174905443Y-119763729D01*
X174836597Y-119751814D01*
X174785121Y-119704570D01*
X174776748Y-119687990D01*
X174759865Y-119647231D01*
X174730941Y-119577402D01*
X174615977Y-119405345D01*
X174615975Y-119405342D01*
X174469657Y-119259024D01*
X174374638Y-119195535D01*
X174297598Y-119144059D01*
X174106420Y-119064870D01*
X174106412Y-119064868D01*
X173903469Y-119024500D01*
X173903465Y-119024500D01*
X173696535Y-119024500D01*
X173696530Y-119024500D01*
X173493587Y-119064868D01*
X173493579Y-119064870D01*
X173302403Y-119144058D01*
X173130342Y-119259024D01*
X172984024Y-119405342D01*
X172869058Y-119577403D01*
X172789870Y-119768579D01*
X172789868Y-119768587D01*
X172749500Y-119971530D01*
X172350500Y-119971530D01*
X172350500Y-119420730D01*
X172347646Y-119390300D01*
X172347646Y-119390298D01*
X172302793Y-119262119D01*
X172302792Y-119262117D01*
X172222150Y-119152850D01*
X172112882Y-119072207D01*
X172112880Y-119072206D01*
X171984700Y-119027353D01*
X171954270Y-119024500D01*
X171954266Y-119024500D01*
X170645734Y-119024500D01*
X170645730Y-119024500D01*
X170615300Y-119027353D01*
X170615298Y-119027353D01*
X170487119Y-119072206D01*
X170487117Y-119072207D01*
X170377850Y-119152850D01*
X170297207Y-119262117D01*
X170297206Y-119262119D01*
X170252353Y-119390298D01*
X170252353Y-119390300D01*
X170249500Y-119420730D01*
X164026257Y-119420730D01*
X164015980Y-119405349D01*
X164015974Y-119405341D01*
X163869657Y-119259024D01*
X163774638Y-119195535D01*
X163697598Y-119144059D01*
X163506420Y-119064870D01*
X163506412Y-119064868D01*
X163303469Y-119024500D01*
X163303465Y-119024500D01*
X163096535Y-119024500D01*
X163096530Y-119024500D01*
X162893587Y-119064868D01*
X162893579Y-119064870D01*
X162702403Y-119144058D01*
X162530342Y-119259024D01*
X162384024Y-119405342D01*
X162269057Y-119577404D01*
X162223251Y-119687990D01*
X162179409Y-119742394D01*
X162113115Y-119764458D01*
X162045416Y-119747178D01*
X161997806Y-119696041D01*
X161990759Y-119678855D01*
X161951095Y-119556782D01*
X161854620Y-119367442D01*
X161729727Y-119195540D01*
X161729723Y-119195535D01*
X161579464Y-119045276D01*
X161579459Y-119045272D01*
X161407557Y-118920379D01*
X161218215Y-118823903D01*
X161016124Y-118758241D01*
X160950000Y-118747768D01*
X160950000Y-119795854D01*
X160883343Y-119757370D01*
X160762535Y-119725000D01*
X160637465Y-119725000D01*
X160516657Y-119757370D01*
X160450000Y-119795854D01*
X160450000Y-118747768D01*
X160449999Y-118747768D01*
X160383875Y-118758241D01*
X160181784Y-118823903D01*
X159992442Y-118920379D01*
X159820540Y-119045272D01*
X159820535Y-119045276D01*
X159670276Y-119195535D01*
X159670272Y-119195540D01*
X159545379Y-119367442D01*
X159448905Y-119556781D01*
X159409240Y-119678856D01*
X159369802Y-119736531D01*
X159305443Y-119763729D01*
X159236597Y-119751814D01*
X159185121Y-119704570D01*
X159176748Y-119687990D01*
X159159865Y-119647231D01*
X159130941Y-119577402D01*
X159015977Y-119405345D01*
X159015975Y-119405342D01*
X158869657Y-119259024D01*
X158774638Y-119195535D01*
X158697598Y-119144059D01*
X158506420Y-119064870D01*
X158506412Y-119064868D01*
X158303469Y-119024500D01*
X158303465Y-119024500D01*
X158096535Y-119024500D01*
X158096530Y-119024500D01*
X157893587Y-119064868D01*
X157893579Y-119064870D01*
X157702403Y-119144058D01*
X157530342Y-119259024D01*
X157384024Y-119405342D01*
X157269058Y-119577403D01*
X157189870Y-119768579D01*
X157189868Y-119768587D01*
X157149500Y-119971530D01*
X156750500Y-119971530D01*
X156750500Y-119420730D01*
X156747646Y-119390300D01*
X156747646Y-119390298D01*
X156702793Y-119262119D01*
X156702792Y-119262117D01*
X156622150Y-119152850D01*
X156512882Y-119072207D01*
X156512880Y-119072206D01*
X156384700Y-119027353D01*
X156354270Y-119024500D01*
X156354266Y-119024500D01*
X155045734Y-119024500D01*
X155045730Y-119024500D01*
X155015300Y-119027353D01*
X155015298Y-119027353D01*
X154887119Y-119072206D01*
X154887117Y-119072207D01*
X154777850Y-119152850D01*
X154697207Y-119262117D01*
X154697206Y-119262119D01*
X154652353Y-119390298D01*
X154652353Y-119390300D01*
X154649500Y-119420730D01*
X150150000Y-119420730D01*
X150150000Y-110347399D01*
X163374500Y-110347399D01*
X163374500Y-110472601D01*
X163406905Y-110593536D01*
X163469505Y-110701964D01*
X163558036Y-110790495D01*
X163666464Y-110853095D01*
X163787399Y-110885500D01*
X163787401Y-110885500D01*
X163912599Y-110885500D01*
X163912601Y-110885500D01*
X164033536Y-110853095D01*
X164141964Y-110790495D01*
X164230495Y-110701964D01*
X164293095Y-110593536D01*
X164325500Y-110472601D01*
X164325500Y-110347399D01*
X164293095Y-110226464D01*
X164230495Y-110118036D01*
X164141964Y-110029505D01*
X164033536Y-109966905D01*
X164033537Y-109966905D01*
X163993224Y-109956103D01*
X163912601Y-109934500D01*
X163787399Y-109934500D01*
X163706775Y-109956103D01*
X163666463Y-109966905D01*
X163558037Y-110029504D01*
X163558034Y-110029506D01*
X163469506Y-110118034D01*
X163469504Y-110118037D01*
X163406905Y-110226463D01*
X163406905Y-110226464D01*
X163374500Y-110347399D01*
X150150000Y-110347399D01*
X150150000Y-105247399D01*
X163374500Y-105247399D01*
X163374500Y-105372601D01*
X163406905Y-105493536D01*
X163469505Y-105601964D01*
X163558036Y-105690495D01*
X163666464Y-105753095D01*
X163787399Y-105785500D01*
X163787401Y-105785500D01*
X163912599Y-105785500D01*
X163912601Y-105785500D01*
X164033536Y-105753095D01*
X164141964Y-105690495D01*
X164214304Y-105618155D01*
X171296000Y-105618155D01*
X171296000Y-106170000D01*
X172116988Y-106170000D01*
X172084075Y-106227007D01*
X172050000Y-106354174D01*
X172050000Y-106485826D01*
X172084075Y-106612993D01*
X172116988Y-106670000D01*
X171296000Y-106670000D01*
X171296000Y-107221844D01*
X171302401Y-107281372D01*
X171302403Y-107281379D01*
X171352645Y-107416086D01*
X171352649Y-107416093D01*
X171438809Y-107531187D01*
X171438812Y-107531190D01*
X171553906Y-107617350D01*
X171553913Y-107617354D01*
X171688620Y-107667596D01*
X171688627Y-107667598D01*
X171748155Y-107673999D01*
X171748172Y-107674000D01*
X172300000Y-107674000D01*
X172300000Y-106853012D01*
X172357007Y-106885925D01*
X172484174Y-106920000D01*
X172615826Y-106920000D01*
X172742993Y-106885925D01*
X172800000Y-106853012D01*
X172800000Y-107674000D01*
X173351828Y-107674000D01*
X173351844Y-107673999D01*
X173411372Y-107667598D01*
X173411379Y-107667596D01*
X173546086Y-107617354D01*
X173546093Y-107617350D01*
X173661187Y-107531190D01*
X173661190Y-107531187D01*
X173747350Y-107416093D01*
X173747354Y-107416086D01*
X173797596Y-107281379D01*
X173797598Y-107281372D01*
X173803999Y-107221844D01*
X173804000Y-107221827D01*
X173804000Y-106670000D01*
X172983012Y-106670000D01*
X173015925Y-106612993D01*
X173050000Y-106485826D01*
X173050000Y-106354174D01*
X173015925Y-106227007D01*
X172983012Y-106170000D01*
X173804000Y-106170000D01*
X173804000Y-105618172D01*
X173803999Y-105618155D01*
X173797598Y-105558627D01*
X173797596Y-105558620D01*
X173747354Y-105423913D01*
X173747350Y-105423906D01*
X173661190Y-105308812D01*
X173661187Y-105308809D01*
X173548134Y-105224177D01*
X173548125Y-105224171D01*
X173546090Y-105222647D01*
X173546086Y-105222645D01*
X173411379Y-105172403D01*
X173411372Y-105172401D01*
X173351844Y-105166000D01*
X172800000Y-105166000D01*
X172800000Y-105986988D01*
X172742993Y-105954075D01*
X172615826Y-105920000D01*
X172484174Y-105920000D01*
X172357007Y-105954075D01*
X172300000Y-105986988D01*
X172300000Y-105166000D01*
X171748155Y-105166000D01*
X171688627Y-105172401D01*
X171688620Y-105172403D01*
X171553913Y-105222645D01*
X171553906Y-105222649D01*
X171438812Y-105308809D01*
X171438809Y-105308812D01*
X171352649Y-105423906D01*
X171352645Y-105423913D01*
X171302403Y-105558620D01*
X171302401Y-105558627D01*
X171296000Y-105618155D01*
X164214304Y-105618155D01*
X164230495Y-105601964D01*
X164293095Y-105493536D01*
X164325500Y-105372601D01*
X164325500Y-105247399D01*
X164293983Y-105129778D01*
X184599500Y-105129778D01*
X184599500Y-105350222D01*
X184611170Y-105423906D01*
X184633985Y-105567952D01*
X184702103Y-105777603D01*
X184702104Y-105777606D01*
X184770122Y-105911096D01*
X184792021Y-105954075D01*
X184802187Y-105974025D01*
X184931752Y-106152358D01*
X184931756Y-106152363D01*
X185087636Y-106308243D01*
X185087641Y-106308247D01*
X185150855Y-106354174D01*
X185265978Y-106437815D01*
X185360204Y-106485826D01*
X185462393Y-106537895D01*
X185462396Y-106537896D01*
X185567221Y-106571955D01*
X185672049Y-106606015D01*
X185889778Y-106640500D01*
X185889779Y-106640500D01*
X186110221Y-106640500D01*
X186110222Y-106640500D01*
X186327951Y-106606015D01*
X186537606Y-106537895D01*
X186734022Y-106437815D01*
X186912365Y-106308242D01*
X187068242Y-106152365D01*
X187197815Y-105974022D01*
X187297895Y-105777606D01*
X187366015Y-105567951D01*
X187400500Y-105350222D01*
X187400500Y-105129778D01*
X187366015Y-104912049D01*
X187305522Y-104725867D01*
X187297896Y-104702396D01*
X187297895Y-104702393D01*
X187237333Y-104583536D01*
X187197815Y-104505978D01*
X187166300Y-104462601D01*
X187068247Y-104327641D01*
X187068243Y-104327636D01*
X186912363Y-104171756D01*
X186912358Y-104171752D01*
X186734025Y-104042187D01*
X186734024Y-104042186D01*
X186734022Y-104042185D01*
X186671096Y-104010122D01*
X186537606Y-103942104D01*
X186537603Y-103942103D01*
X186327952Y-103873985D01*
X186219086Y-103856742D01*
X186110222Y-103839500D01*
X185889778Y-103839500D01*
X185817201Y-103850995D01*
X185672047Y-103873985D01*
X185462396Y-103942103D01*
X185462393Y-103942104D01*
X185265974Y-104042187D01*
X185087641Y-104171752D01*
X185087636Y-104171756D01*
X184931756Y-104327636D01*
X184931752Y-104327641D01*
X184802187Y-104505974D01*
X184702104Y-104702393D01*
X184702103Y-104702396D01*
X184633985Y-104912047D01*
X184617198Y-105018036D01*
X184599500Y-105129778D01*
X164293983Y-105129778D01*
X164293095Y-105126464D01*
X164230495Y-105018036D01*
X164141964Y-104929505D01*
X164033536Y-104866905D01*
X164033537Y-104866905D01*
X163993224Y-104856103D01*
X163912601Y-104834500D01*
X163787399Y-104834500D01*
X163706775Y-104856103D01*
X163666463Y-104866905D01*
X163558037Y-104929504D01*
X163558034Y-104929506D01*
X163469506Y-105018034D01*
X163469504Y-105018037D01*
X163406905Y-105126463D01*
X163406905Y-105126464D01*
X163374500Y-105247399D01*
X150150000Y-105247399D01*
X150150000Y-103785985D01*
X171595500Y-103785985D01*
X171595500Y-103974014D01*
X171632179Y-104158409D01*
X171632182Y-104158421D01*
X171704129Y-104332118D01*
X171704136Y-104332131D01*
X171808591Y-104488457D01*
X171808594Y-104488461D01*
X171941538Y-104621405D01*
X171941542Y-104621408D01*
X172097868Y-104725863D01*
X172097881Y-104725870D01*
X172229754Y-104780493D01*
X172271583Y-104797819D01*
X172455985Y-104834499D01*
X172455988Y-104834500D01*
X172455990Y-104834500D01*
X172644012Y-104834500D01*
X172644013Y-104834499D01*
X172828417Y-104797819D01*
X173002125Y-104725867D01*
X173158458Y-104621408D01*
X173291408Y-104488458D01*
X173392343Y-104337399D01*
X175524500Y-104337399D01*
X175524500Y-104462601D01*
X175556905Y-104583536D01*
X175619505Y-104691964D01*
X175708036Y-104780495D01*
X175816464Y-104843095D01*
X175937399Y-104875500D01*
X175937401Y-104875500D01*
X176062599Y-104875500D01*
X176062601Y-104875500D01*
X176183536Y-104843095D01*
X176291964Y-104780495D01*
X176380495Y-104691964D01*
X176443095Y-104583536D01*
X176475500Y-104462601D01*
X176475500Y-104337399D01*
X176443095Y-104216464D01*
X176380495Y-104108036D01*
X176291964Y-104019505D01*
X176183536Y-103956905D01*
X176183537Y-103956905D01*
X176143224Y-103946103D01*
X176062601Y-103924500D01*
X175937399Y-103924500D01*
X175856775Y-103946103D01*
X175816463Y-103956905D01*
X175708037Y-104019504D01*
X175708034Y-104019506D01*
X175619506Y-104108034D01*
X175619504Y-104108037D01*
X175556905Y-104216463D01*
X175556905Y-104216464D01*
X175524500Y-104337399D01*
X173392343Y-104337399D01*
X173395867Y-104332125D01*
X173467819Y-104158417D01*
X173504500Y-103974010D01*
X173504500Y-103785990D01*
X173504500Y-103785987D01*
X173504499Y-103785985D01*
X173467820Y-103601590D01*
X173467819Y-103601583D01*
X173467817Y-103601578D01*
X173395870Y-103427881D01*
X173395863Y-103427868D01*
X173291408Y-103271542D01*
X173291405Y-103271538D01*
X173158461Y-103138594D01*
X173158457Y-103138591D01*
X173002131Y-103034136D01*
X173002118Y-103034129D01*
X172828421Y-102962182D01*
X172828409Y-102962179D01*
X172644013Y-102925500D01*
X172644010Y-102925500D01*
X172455990Y-102925500D01*
X172455987Y-102925500D01*
X172271590Y-102962179D01*
X172271578Y-102962182D01*
X172097881Y-103034129D01*
X172097868Y-103034136D01*
X171941542Y-103138591D01*
X171941538Y-103138594D01*
X171808594Y-103271538D01*
X171808591Y-103271542D01*
X171704136Y-103427868D01*
X171704129Y-103427881D01*
X171632182Y-103601578D01*
X171632179Y-103601590D01*
X171595500Y-103785985D01*
X150150000Y-103785985D01*
X150150000Y-102734000D01*
X150169685Y-102666961D01*
X150222489Y-102621206D01*
X150274000Y-102610000D01*
X180150000Y-102610000D01*
X180150000Y-100048575D01*
X184300000Y-100048575D01*
X184300000Y-100271424D01*
X184329085Y-100492354D01*
X184329088Y-100492367D01*
X184386763Y-100707618D01*
X184472045Y-100913502D01*
X184472054Y-100913520D01*
X184583464Y-101106491D01*
X184583473Y-101106504D01*
X184634040Y-101172403D01*
X184634043Y-101172403D01*
X185284152Y-100522293D01*
X185291049Y-100538942D01*
X185378599Y-100669970D01*
X185490030Y-100781401D01*
X185621058Y-100868951D01*
X185637705Y-100875846D01*
X184987595Y-101525955D01*
X184987595Y-101525956D01*
X185053507Y-101576533D01*
X185246485Y-101687949D01*
X185246497Y-101687954D01*
X185452381Y-101773236D01*
X185667632Y-101830911D01*
X185667645Y-101830914D01*
X185888575Y-101860000D01*
X186111425Y-101860000D01*
X186332354Y-101830914D01*
X186332367Y-101830911D01*
X186547618Y-101773236D01*
X186753502Y-101687954D01*
X186753514Y-101687949D01*
X186946498Y-101576530D01*
X187012403Y-101525957D01*
X187012404Y-101525956D01*
X186362294Y-100875846D01*
X186378942Y-100868951D01*
X186509970Y-100781401D01*
X186621401Y-100669970D01*
X186708951Y-100538942D01*
X186715846Y-100522294D01*
X187365956Y-101172404D01*
X187365957Y-101172403D01*
X187416530Y-101106498D01*
X187527949Y-100913514D01*
X187527954Y-100913502D01*
X187613236Y-100707618D01*
X187670911Y-100492367D01*
X187670914Y-100492354D01*
X187700000Y-100271424D01*
X187700000Y-100048575D01*
X187670914Y-99827645D01*
X187670911Y-99827632D01*
X187613236Y-99612381D01*
X187527954Y-99406497D01*
X187527949Y-99406485D01*
X187416533Y-99213507D01*
X187365956Y-99147595D01*
X187365955Y-99147595D01*
X186715846Y-99797704D01*
X186708951Y-99781058D01*
X186621401Y-99650030D01*
X186509970Y-99538599D01*
X186378942Y-99451049D01*
X186362293Y-99444152D01*
X187012403Y-98794043D01*
X187012403Y-98794040D01*
X186946504Y-98743473D01*
X186946491Y-98743464D01*
X186753520Y-98632054D01*
X186753502Y-98632045D01*
X186547618Y-98546763D01*
X186332367Y-98489088D01*
X186332354Y-98489085D01*
X186111425Y-98460000D01*
X185888575Y-98460000D01*
X185667645Y-98489085D01*
X185667632Y-98489088D01*
X185452381Y-98546763D01*
X185246497Y-98632045D01*
X185246479Y-98632054D01*
X185053511Y-98743462D01*
X184987595Y-98794042D01*
X185637706Y-99444152D01*
X185621058Y-99451049D01*
X185490030Y-99538599D01*
X185378599Y-99650030D01*
X185291049Y-99781058D01*
X185284153Y-99797706D01*
X184634042Y-99147595D01*
X184583462Y-99213511D01*
X184472054Y-99406479D01*
X184472045Y-99406497D01*
X184386763Y-99612381D01*
X184329088Y-99827632D01*
X184329085Y-99827645D01*
X184300000Y-100048575D01*
X180150000Y-100048575D01*
X180150000Y-95684000D01*
X180169685Y-95616961D01*
X180222489Y-95571206D01*
X180274000Y-95560000D01*
X192775500Y-95560000D01*
X192842539Y-95579685D01*
G37*
%TD.AperFunction*%
%TD*%
%TA.AperFunction,Conductor*%
%TO.N,GND*%
G36*
X138708945Y-46880185D02*
G01*
X138754700Y-46932989D01*
X138764644Y-47002147D01*
X138735619Y-47065703D01*
X138708782Y-47087129D01*
X138709545Y-47088271D01*
X138536600Y-47203829D01*
X138536596Y-47203832D01*
X138393832Y-47346596D01*
X138393829Y-47346600D01*
X138281659Y-47514473D01*
X138281652Y-47514486D01*
X138204390Y-47701016D01*
X138204387Y-47701025D01*
X138165000Y-47899041D01*
X138165000Y-48150000D01*
X138865000Y-48150000D01*
X138865000Y-48650000D01*
X138165000Y-48650000D01*
X138165000Y-48900958D01*
X138204387Y-49098974D01*
X138204390Y-49098983D01*
X138281652Y-49285513D01*
X138281659Y-49285526D01*
X138393829Y-49453399D01*
X138393832Y-49453403D01*
X138536596Y-49596167D01*
X138536600Y-49596170D01*
X138704473Y-49708340D01*
X138704486Y-49708347D01*
X138891016Y-49785609D01*
X138891025Y-49785612D01*
X138940000Y-49795353D01*
X138940000Y-49009618D01*
X138990446Y-49060064D01*
X139064555Y-49102851D01*
X139147213Y-49125000D01*
X139232787Y-49125000D01*
X139315445Y-49102851D01*
X139389554Y-49060064D01*
X139440000Y-49009618D01*
X139440000Y-49795352D01*
X139488974Y-49785612D01*
X139488983Y-49785609D01*
X139675513Y-49708347D01*
X139675526Y-49708340D01*
X139843399Y-49596170D01*
X139843403Y-49596167D01*
X139986167Y-49453403D01*
X139986170Y-49453399D01*
X140098340Y-49285526D01*
X140098347Y-49285513D01*
X140175609Y-49098983D01*
X140175612Y-49098974D01*
X140214999Y-48900958D01*
X140215000Y-48900955D01*
X140215000Y-48650000D01*
X139515000Y-48650000D01*
X139515000Y-48150000D01*
X140215000Y-48150000D01*
X140215000Y-47899045D01*
X140214999Y-47899041D01*
X140175612Y-47701025D01*
X140175609Y-47701016D01*
X140098347Y-47514486D01*
X140098340Y-47514473D01*
X139986170Y-47346600D01*
X139986167Y-47346596D01*
X139843403Y-47203832D01*
X139843399Y-47203829D01*
X139670455Y-47088271D01*
X139671842Y-47086194D01*
X139629804Y-47044910D01*
X139614335Y-46976774D01*
X139638158Y-46911091D01*
X139693710Y-46868715D01*
X139738094Y-46860500D01*
X147281906Y-46860500D01*
X147348945Y-46880185D01*
X147394700Y-46932989D01*
X147404644Y-47002147D01*
X147375619Y-47065703D01*
X147348782Y-47087129D01*
X147349545Y-47088271D01*
X147176600Y-47203829D01*
X147176596Y-47203832D01*
X147033832Y-47346596D01*
X147033829Y-47346600D01*
X146921659Y-47514473D01*
X146921652Y-47514486D01*
X146844390Y-47701016D01*
X146844387Y-47701025D01*
X146805000Y-47899041D01*
X146805000Y-48150000D01*
X147505000Y-48150000D01*
X147505000Y-48650000D01*
X146805000Y-48650000D01*
X146805000Y-48900958D01*
X146844387Y-49098974D01*
X146844390Y-49098983D01*
X146921652Y-49285513D01*
X146921659Y-49285526D01*
X147033829Y-49453399D01*
X147033832Y-49453403D01*
X147176596Y-49596167D01*
X147176600Y-49596170D01*
X147344473Y-49708340D01*
X147344486Y-49708347D01*
X147531016Y-49785609D01*
X147531025Y-49785612D01*
X147580000Y-49795353D01*
X147580000Y-49009618D01*
X147630446Y-49060064D01*
X147704555Y-49102851D01*
X147787213Y-49125000D01*
X147872787Y-49125000D01*
X147955445Y-49102851D01*
X148029554Y-49060064D01*
X148080000Y-49009618D01*
X148080000Y-49795352D01*
X148128974Y-49785612D01*
X148128983Y-49785609D01*
X148315513Y-49708347D01*
X148315526Y-49708340D01*
X148483399Y-49596170D01*
X148483403Y-49596167D01*
X148626167Y-49453403D01*
X148626170Y-49453399D01*
X148738340Y-49285526D01*
X148738347Y-49285513D01*
X148815609Y-49098983D01*
X148815612Y-49098974D01*
X148854999Y-48900958D01*
X148855000Y-48900955D01*
X148855000Y-48650000D01*
X148155000Y-48650000D01*
X148155000Y-48150000D01*
X148855000Y-48150000D01*
X148855000Y-47899045D01*
X148854999Y-47899041D01*
X148815612Y-47701025D01*
X148815609Y-47701016D01*
X148738347Y-47514486D01*
X148738340Y-47514473D01*
X148626170Y-47346600D01*
X148626167Y-47346596D01*
X148483403Y-47203832D01*
X148483399Y-47203829D01*
X148310455Y-47088271D01*
X148311842Y-47086194D01*
X148269804Y-47044910D01*
X148254335Y-46976774D01*
X148278158Y-46911091D01*
X148333710Y-46868715D01*
X148378094Y-46860500D01*
X153036000Y-46860500D01*
X153103039Y-46880185D01*
X153148794Y-46932989D01*
X153160000Y-46984500D01*
X153160000Y-52610000D01*
X172560000Y-52610000D01*
X172560000Y-50441491D01*
X186149500Y-50441491D01*
X186149500Y-50778508D01*
X186187231Y-51113381D01*
X186187233Y-51113397D01*
X186262223Y-51441953D01*
X186262227Y-51441965D01*
X186373532Y-51760054D01*
X186519752Y-52063683D01*
X186519754Y-52063686D01*
X186699054Y-52349039D01*
X186909175Y-52612523D01*
X187147477Y-52850825D01*
X187410961Y-53060946D01*
X187696314Y-53240246D01*
X187999949Y-53386469D01*
X188238848Y-53470063D01*
X188318034Y-53497772D01*
X188318046Y-53497776D01*
X188646606Y-53572767D01*
X188981492Y-53610499D01*
X188981493Y-53610500D01*
X188981496Y-53610500D01*
X189318507Y-53610500D01*
X189318507Y-53610499D01*
X189653394Y-53572767D01*
X189981954Y-53497776D01*
X190300051Y-53386469D01*
X190603686Y-53240246D01*
X190889039Y-53060946D01*
X191152523Y-52850825D01*
X191390825Y-52612523D01*
X191600946Y-52349039D01*
X191780246Y-52063686D01*
X191926469Y-51760051D01*
X192037776Y-51441954D01*
X192112767Y-51113394D01*
X192150500Y-50778504D01*
X192150500Y-50441496D01*
X192112767Y-50106606D01*
X192037776Y-49778046D01*
X191926469Y-49459949D01*
X191780246Y-49156314D01*
X191600946Y-48870961D01*
X191390825Y-48607477D01*
X191152523Y-48369175D01*
X190889039Y-48159054D01*
X190603686Y-47979754D01*
X190603683Y-47979752D01*
X190300054Y-47833532D01*
X189981965Y-47722227D01*
X189981953Y-47722223D01*
X189653397Y-47647233D01*
X189653381Y-47647231D01*
X189318508Y-47609500D01*
X189318504Y-47609500D01*
X188981496Y-47609500D01*
X188981491Y-47609500D01*
X188646618Y-47647231D01*
X188646602Y-47647233D01*
X188318046Y-47722223D01*
X188318034Y-47722227D01*
X187999945Y-47833532D01*
X187696316Y-47979752D01*
X187410962Y-48159053D01*
X187147477Y-48369174D01*
X186909174Y-48607477D01*
X186699053Y-48870962D01*
X186519752Y-49156316D01*
X186373532Y-49459945D01*
X186262227Y-49778034D01*
X186262223Y-49778046D01*
X186187233Y-50106602D01*
X186187231Y-50106618D01*
X186149500Y-50441491D01*
X172560000Y-50441491D01*
X172560000Y-46984500D01*
X172579685Y-46917461D01*
X172632489Y-46871706D01*
X172684000Y-46860500D01*
X189105830Y-46860500D01*
X189146949Y-46860500D01*
X189153032Y-46860648D01*
X189511433Y-46878256D01*
X189523541Y-46879448D01*
X189875475Y-46931653D01*
X189887389Y-46934023D01*
X190232520Y-47020473D01*
X190244147Y-47024000D01*
X190579151Y-47143867D01*
X190590363Y-47148511D01*
X190912012Y-47300639D01*
X190922720Y-47306363D01*
X191227881Y-47489270D01*
X191237996Y-47496028D01*
X191262884Y-47514486D01*
X191523769Y-47707971D01*
X191533175Y-47715691D01*
X191796790Y-47954618D01*
X191805381Y-47963209D01*
X191820375Y-47979752D01*
X192044308Y-48226824D01*
X192052028Y-48236230D01*
X192263969Y-48522000D01*
X192270729Y-48532118D01*
X192315898Y-48607477D01*
X192356939Y-48675951D01*
X192453629Y-48837267D01*
X192459364Y-48847995D01*
X192495995Y-48925445D01*
X192611485Y-49169629D01*
X192616136Y-49180858D01*
X192715997Y-49459949D01*
X192735994Y-49515837D01*
X192739526Y-49527481D01*
X192825973Y-49872597D01*
X192828347Y-49884532D01*
X192880550Y-50236457D01*
X192881743Y-50248567D01*
X192899351Y-50606966D01*
X192899500Y-50613051D01*
X192899500Y-94486000D01*
X192879815Y-94553039D01*
X192827011Y-94598794D01*
X192775500Y-94610000D01*
X179150000Y-94610000D01*
X179150000Y-101436000D01*
X179130315Y-101503039D01*
X179077511Y-101548794D01*
X179026000Y-101560000D01*
X173928000Y-101560000D01*
X173860961Y-101540315D01*
X173815206Y-101487511D01*
X173804000Y-101436000D01*
X173804000Y-101241302D01*
X173773123Y-101046353D01*
X173712126Y-100858626D01*
X173622520Y-100682768D01*
X173622512Y-100682755D01*
X173596542Y-100647010D01*
X173596541Y-100647009D01*
X173032962Y-101210589D01*
X173015925Y-101147007D01*
X172950099Y-101032993D01*
X172857007Y-100939901D01*
X172742993Y-100874075D01*
X172679409Y-100857037D01*
X173242989Y-100293457D01*
X173207239Y-100267483D01*
X173031373Y-100177873D01*
X172843646Y-100116876D01*
X172648697Y-100086000D01*
X172451303Y-100086000D01*
X172256353Y-100116876D01*
X172068626Y-100177873D01*
X171892762Y-100267482D01*
X171892760Y-100267483D01*
X171857010Y-100293456D01*
X171857010Y-100293457D01*
X172420591Y-100857037D01*
X172357007Y-100874075D01*
X172242993Y-100939901D01*
X172149901Y-101032993D01*
X172084075Y-101147007D01*
X172067037Y-101210590D01*
X171503457Y-100647010D01*
X171503456Y-100647010D01*
X171477483Y-100682760D01*
X171477482Y-100682762D01*
X171387873Y-100858626D01*
X171326876Y-101046353D01*
X171296000Y-101241302D01*
X171296000Y-101436000D01*
X171276315Y-101503039D01*
X171223511Y-101548794D01*
X171172000Y-101560000D01*
X142252686Y-101560000D01*
X142185647Y-101540315D01*
X142139892Y-101487511D01*
X142129948Y-101418353D01*
X142131069Y-101411809D01*
X142154499Y-101294014D01*
X142154500Y-101294012D01*
X142154500Y-101105987D01*
X142154499Y-101105985D01*
X142117819Y-100921583D01*
X142098141Y-100874075D01*
X142045870Y-100747881D01*
X142045863Y-100747868D01*
X141941408Y-100591542D01*
X141941405Y-100591538D01*
X141808461Y-100458594D01*
X141808457Y-100458591D01*
X141786348Y-100443818D01*
X141652131Y-100354136D01*
X141652118Y-100354129D01*
X141478421Y-100282182D01*
X141478409Y-100282179D01*
X141294013Y-100245500D01*
X141294010Y-100245500D01*
X141105990Y-100245500D01*
X141105987Y-100245500D01*
X140921590Y-100282179D01*
X140921578Y-100282182D01*
X140747881Y-100354129D01*
X140747868Y-100354136D01*
X140591542Y-100458591D01*
X140591538Y-100458594D01*
X140458594Y-100591538D01*
X140458591Y-100591542D01*
X140354136Y-100747868D01*
X140354129Y-100747881D01*
X140282182Y-100921578D01*
X140282179Y-100921590D01*
X140245500Y-101105985D01*
X140245500Y-101294014D01*
X140268931Y-101411809D01*
X140262704Y-101481400D01*
X140219841Y-101536578D01*
X140153951Y-101559822D01*
X140147314Y-101560000D01*
X113524500Y-101560000D01*
X113457461Y-101540315D01*
X113411706Y-101487511D01*
X113400500Y-101436000D01*
X113400500Y-97947399D01*
X132874500Y-97947399D01*
X132874500Y-98072601D01*
X132906905Y-98193536D01*
X132969505Y-98301964D01*
X133058036Y-98390495D01*
X133166464Y-98453095D01*
X133287399Y-98485500D01*
X133287401Y-98485500D01*
X133412599Y-98485500D01*
X133412601Y-98485500D01*
X133533536Y-98453095D01*
X133641964Y-98390495D01*
X133730495Y-98301964D01*
X133793095Y-98193536D01*
X133825500Y-98072601D01*
X133825500Y-97947399D01*
X136474500Y-97947399D01*
X136474500Y-98072601D01*
X136506905Y-98193536D01*
X136569505Y-98301964D01*
X136658036Y-98390495D01*
X136766464Y-98453095D01*
X136887399Y-98485500D01*
X136887401Y-98485500D01*
X137012599Y-98485500D01*
X137012601Y-98485500D01*
X137133536Y-98453095D01*
X137241964Y-98390495D01*
X137330495Y-98301964D01*
X137393095Y-98193536D01*
X137425500Y-98072601D01*
X137425500Y-97947399D01*
X137409301Y-97886944D01*
X137409301Y-97886942D01*
X137401587Y-97858155D01*
X139946000Y-97858155D01*
X139946000Y-98410000D01*
X140766988Y-98410000D01*
X140734075Y-98467007D01*
X140700000Y-98594174D01*
X140700000Y-98725826D01*
X140734075Y-98852993D01*
X140766988Y-98910000D01*
X139946000Y-98910000D01*
X139946000Y-99461844D01*
X139952401Y-99521372D01*
X139952403Y-99521379D01*
X140002645Y-99656086D01*
X140002649Y-99656093D01*
X140088809Y-99771187D01*
X140088812Y-99771190D01*
X140203906Y-99857350D01*
X140203913Y-99857354D01*
X140338620Y-99907596D01*
X140338627Y-99907598D01*
X140398155Y-99913999D01*
X140398172Y-99914000D01*
X140950000Y-99914000D01*
X140950000Y-99093012D01*
X141007007Y-99125925D01*
X141134174Y-99160000D01*
X141265826Y-99160000D01*
X141392993Y-99125925D01*
X141450000Y-99093012D01*
X141450000Y-99914000D01*
X142001828Y-99914000D01*
X142001844Y-99913999D01*
X142061372Y-99907598D01*
X142061379Y-99907596D01*
X142196086Y-99857354D01*
X142196093Y-99857350D01*
X142311187Y-99771190D01*
X142311190Y-99771187D01*
X142397350Y-99656093D01*
X142397354Y-99656086D01*
X142447596Y-99521379D01*
X142447598Y-99521372D01*
X142453999Y-99461844D01*
X142454000Y-99461827D01*
X142454000Y-98910000D01*
X141633012Y-98910000D01*
X141665925Y-98852993D01*
X141700000Y-98725826D01*
X141700000Y-98705985D01*
X171595500Y-98705985D01*
X171595500Y-98894014D01*
X171632179Y-99078409D01*
X171632182Y-99078421D01*
X171704129Y-99252118D01*
X171704136Y-99252131D01*
X171808591Y-99408457D01*
X171808594Y-99408461D01*
X171941538Y-99541405D01*
X171941542Y-99541408D01*
X172097868Y-99645863D01*
X172097881Y-99645870D01*
X172271578Y-99717817D01*
X172271583Y-99717819D01*
X172455985Y-99754499D01*
X172455988Y-99754500D01*
X172455990Y-99754500D01*
X172644012Y-99754500D01*
X172644013Y-99754499D01*
X172828417Y-99717819D01*
X173002125Y-99645867D01*
X173158458Y-99541408D01*
X173291408Y-99408458D01*
X173395867Y-99252125D01*
X173467819Y-99078417D01*
X173504500Y-98894010D01*
X173504500Y-98705990D01*
X173504500Y-98705987D01*
X173504499Y-98705985D01*
X173472098Y-98543095D01*
X173467819Y-98521583D01*
X173445213Y-98467007D01*
X173395870Y-98347881D01*
X173395863Y-98347868D01*
X173291408Y-98191542D01*
X173291405Y-98191538D01*
X173158461Y-98058594D01*
X173158457Y-98058591D01*
X173002131Y-97954136D01*
X173002118Y-97954129D01*
X172828421Y-97882182D01*
X172828409Y-97882179D01*
X172644013Y-97845500D01*
X172644010Y-97845500D01*
X172455990Y-97845500D01*
X172455987Y-97845500D01*
X172271590Y-97882179D01*
X172271578Y-97882182D01*
X172097881Y-97954129D01*
X172097868Y-97954136D01*
X171941542Y-98058591D01*
X171941538Y-98058594D01*
X171808594Y-98191538D01*
X171808591Y-98191542D01*
X171704136Y-98347868D01*
X171704129Y-98347881D01*
X171632182Y-98521578D01*
X171632179Y-98521590D01*
X171595500Y-98705985D01*
X141700000Y-98705985D01*
X141700000Y-98594174D01*
X141665925Y-98467007D01*
X141633012Y-98410000D01*
X142454000Y-98410000D01*
X142454000Y-98037399D01*
X166424500Y-98037399D01*
X166424500Y-98162601D01*
X166456905Y-98283536D01*
X166519505Y-98391964D01*
X166608036Y-98480495D01*
X166716464Y-98543095D01*
X166837399Y-98575500D01*
X166837401Y-98575500D01*
X166962599Y-98575500D01*
X166962601Y-98575500D01*
X167083536Y-98543095D01*
X167191964Y-98480495D01*
X167280495Y-98391964D01*
X167343095Y-98283536D01*
X167375500Y-98162601D01*
X167375500Y-98037399D01*
X167343095Y-97916464D01*
X167280495Y-97808036D01*
X167191964Y-97719505D01*
X167083536Y-97656905D01*
X167083537Y-97656905D01*
X167043224Y-97646103D01*
X166962601Y-97624500D01*
X166837399Y-97624500D01*
X166756775Y-97646103D01*
X166716463Y-97656905D01*
X166608037Y-97719504D01*
X166608034Y-97719506D01*
X166519506Y-97808034D01*
X166519504Y-97808037D01*
X166456905Y-97916463D01*
X166446811Y-97954133D01*
X166424500Y-98037399D01*
X142454000Y-98037399D01*
X142454000Y-97858172D01*
X142453999Y-97858155D01*
X142447598Y-97798627D01*
X142447596Y-97798620D01*
X142397354Y-97663913D01*
X142397350Y-97663906D01*
X142311190Y-97548812D01*
X142311187Y-97548809D01*
X142196093Y-97462649D01*
X142196086Y-97462645D01*
X142061379Y-97412403D01*
X142061372Y-97412401D01*
X142001844Y-97406000D01*
X141450000Y-97406000D01*
X141450000Y-98226988D01*
X141392993Y-98194075D01*
X141265826Y-98160000D01*
X141134174Y-98160000D01*
X141007007Y-98194075D01*
X140950000Y-98226988D01*
X140950000Y-97406000D01*
X140398155Y-97406000D01*
X140338627Y-97412401D01*
X140338620Y-97412403D01*
X140203913Y-97462645D01*
X140203906Y-97462649D01*
X140088812Y-97548809D01*
X140088809Y-97548812D01*
X140002649Y-97663906D01*
X140002645Y-97663913D01*
X139952403Y-97798620D01*
X139952401Y-97798627D01*
X139946000Y-97858155D01*
X137401587Y-97858155D01*
X137393096Y-97826468D01*
X137393095Y-97826464D01*
X137330495Y-97718036D01*
X137241964Y-97629505D01*
X137133536Y-97566905D01*
X137133537Y-97566905D01*
X137066013Y-97548812D01*
X137012601Y-97534500D01*
X136887399Y-97534500D01*
X136833987Y-97548812D01*
X136766463Y-97566905D01*
X136658037Y-97629504D01*
X136658034Y-97629506D01*
X136569506Y-97718034D01*
X136569504Y-97718037D01*
X136506905Y-97826463D01*
X136506905Y-97826464D01*
X136474500Y-97947399D01*
X133825500Y-97947399D01*
X133793095Y-97826464D01*
X133730495Y-97718036D01*
X133641964Y-97629505D01*
X133533536Y-97566905D01*
X133533537Y-97566905D01*
X133466013Y-97548812D01*
X133412601Y-97534500D01*
X133287399Y-97534500D01*
X133233987Y-97548812D01*
X133166463Y-97566905D01*
X133058037Y-97629504D01*
X133058034Y-97629506D01*
X132969506Y-97718034D01*
X132969504Y-97718037D01*
X132906905Y-97826463D01*
X132906905Y-97826464D01*
X132874500Y-97947399D01*
X113400500Y-97947399D01*
X113400500Y-96462399D01*
X123579500Y-96462399D01*
X123579500Y-96587601D01*
X123611905Y-96708536D01*
X123674505Y-96816964D01*
X123763036Y-96905495D01*
X123871464Y-96968095D01*
X123992399Y-97000500D01*
X123992401Y-97000500D01*
X124117599Y-97000500D01*
X124117601Y-97000500D01*
X124238536Y-96968095D01*
X124346964Y-96905495D01*
X124435495Y-96816964D01*
X124498095Y-96708536D01*
X124530500Y-96587601D01*
X124530500Y-96462399D01*
X124498095Y-96341464D01*
X124435495Y-96233036D01*
X124346964Y-96144505D01*
X124334656Y-96137399D01*
X158324500Y-96137399D01*
X158324500Y-96262601D01*
X158356905Y-96383536D01*
X158419505Y-96491964D01*
X158508036Y-96580495D01*
X158616464Y-96643095D01*
X158737399Y-96675500D01*
X158737401Y-96675500D01*
X158862599Y-96675500D01*
X158862601Y-96675500D01*
X158983536Y-96643095D01*
X159091964Y-96580495D01*
X159180495Y-96491964D01*
X159243095Y-96383536D01*
X159255458Y-96337399D01*
X163424500Y-96337399D01*
X163424500Y-96462601D01*
X163456905Y-96583536D01*
X163519505Y-96691964D01*
X163608036Y-96780495D01*
X163716464Y-96843095D01*
X163837399Y-96875500D01*
X163837401Y-96875500D01*
X163962599Y-96875500D01*
X163962601Y-96875500D01*
X164083536Y-96843095D01*
X164191964Y-96780495D01*
X164280495Y-96691964D01*
X164343095Y-96583536D01*
X164375500Y-96462601D01*
X164375500Y-96337399D01*
X164343095Y-96216464D01*
X164280495Y-96108036D01*
X164191964Y-96019505D01*
X164083536Y-95956905D01*
X164083537Y-95956905D01*
X164043224Y-95946103D01*
X163962601Y-95924500D01*
X163837399Y-95924500D01*
X163756775Y-95946103D01*
X163716463Y-95956905D01*
X163608037Y-96019504D01*
X163608034Y-96019506D01*
X163519506Y-96108034D01*
X163519504Y-96108037D01*
X163456905Y-96216463D01*
X163456905Y-96216464D01*
X163424500Y-96337399D01*
X159255458Y-96337399D01*
X159275500Y-96262601D01*
X159275500Y-96137399D01*
X159243095Y-96016464D01*
X159180495Y-95908036D01*
X159091964Y-95819505D01*
X158983536Y-95756905D01*
X158983537Y-95756905D01*
X158943224Y-95746103D01*
X158862601Y-95724500D01*
X158737399Y-95724500D01*
X158656775Y-95746103D01*
X158616463Y-95756905D01*
X158508037Y-95819504D01*
X158508034Y-95819506D01*
X158419506Y-95908034D01*
X158419504Y-95908037D01*
X158356905Y-96016463D01*
X158356905Y-96016464D01*
X158324500Y-96137399D01*
X124334656Y-96137399D01*
X124238536Y-96081905D01*
X124238537Y-96081905D01*
X124198224Y-96071103D01*
X124117601Y-96049500D01*
X123992399Y-96049500D01*
X123911775Y-96071103D01*
X123871463Y-96081905D01*
X123763037Y-96144504D01*
X123763034Y-96144506D01*
X123674506Y-96233034D01*
X123674504Y-96233037D01*
X123611905Y-96341463D01*
X123611905Y-96341464D01*
X123579500Y-96462399D01*
X113400500Y-96462399D01*
X113400500Y-94862399D01*
X123579500Y-94862399D01*
X123579500Y-94987601D01*
X123611905Y-95108536D01*
X123674505Y-95216964D01*
X123763036Y-95305495D01*
X123871464Y-95368095D01*
X123992399Y-95400500D01*
X123992401Y-95400500D01*
X124117599Y-95400500D01*
X124117601Y-95400500D01*
X124238536Y-95368095D01*
X124346964Y-95305495D01*
X124435495Y-95216964D01*
X124498095Y-95108536D01*
X124530500Y-94987601D01*
X124530500Y-94862399D01*
X124498095Y-94741464D01*
X124435495Y-94633036D01*
X124346964Y-94544505D01*
X124238536Y-94481905D01*
X124238537Y-94481905D01*
X124198224Y-94471103D01*
X124117601Y-94449500D01*
X123992399Y-94449500D01*
X123911775Y-94471103D01*
X123871463Y-94481905D01*
X123763037Y-94544504D01*
X123763034Y-94544506D01*
X123674506Y-94633034D01*
X123674504Y-94633037D01*
X123611905Y-94741463D01*
X123611905Y-94741464D01*
X123579500Y-94862399D01*
X113400500Y-94862399D01*
X113400500Y-91187399D01*
X117024500Y-91187399D01*
X117024500Y-91312601D01*
X117056905Y-91433536D01*
X117119505Y-91541964D01*
X117208036Y-91630495D01*
X117316464Y-91693095D01*
X117437399Y-91725500D01*
X117437401Y-91725500D01*
X117562599Y-91725500D01*
X117562601Y-91725500D01*
X117683536Y-91693095D01*
X117791964Y-91630495D01*
X117880495Y-91541964D01*
X117943095Y-91433536D01*
X117975500Y-91312601D01*
X117975500Y-91187399D01*
X117943095Y-91066464D01*
X117880495Y-90958036D01*
X117791964Y-90869505D01*
X117683536Y-90806905D01*
X117683537Y-90806905D01*
X117643224Y-90796103D01*
X117562601Y-90774500D01*
X117437399Y-90774500D01*
X117356775Y-90796103D01*
X117316463Y-90806905D01*
X117208037Y-90869504D01*
X117208034Y-90869506D01*
X117119506Y-90958034D01*
X117119504Y-90958037D01*
X117056905Y-91066463D01*
X117056905Y-91066464D01*
X117024500Y-91187399D01*
X113400500Y-91187399D01*
X113400500Y-90637399D01*
X176799500Y-90637399D01*
X176799500Y-90762601D01*
X176831905Y-90883536D01*
X176894505Y-90991964D01*
X176983036Y-91080495D01*
X177091464Y-91143095D01*
X177212399Y-91175500D01*
X177212401Y-91175500D01*
X177337599Y-91175500D01*
X177337601Y-91175500D01*
X177458536Y-91143095D01*
X177566964Y-91080495D01*
X177655495Y-90991964D01*
X177718095Y-90883536D01*
X177750500Y-90762601D01*
X177750500Y-90637399D01*
X177718095Y-90516464D01*
X177655495Y-90408036D01*
X177566964Y-90319505D01*
X177458536Y-90256905D01*
X177458537Y-90256905D01*
X177418224Y-90246103D01*
X177337601Y-90224500D01*
X177212399Y-90224500D01*
X177131775Y-90246103D01*
X177091463Y-90256905D01*
X176983037Y-90319504D01*
X176983034Y-90319506D01*
X176894506Y-90408034D01*
X176894504Y-90408037D01*
X176831905Y-90516463D01*
X176831905Y-90516464D01*
X176799500Y-90637399D01*
X113400500Y-90637399D01*
X113400500Y-88537399D01*
X165499500Y-88537399D01*
X165499500Y-88662601D01*
X165531905Y-88783536D01*
X165594505Y-88891964D01*
X165683036Y-88980495D01*
X165791464Y-89043095D01*
X165912399Y-89075500D01*
X165912401Y-89075500D01*
X166037599Y-89075500D01*
X166037601Y-89075500D01*
X166158536Y-89043095D01*
X166266964Y-88980495D01*
X166355495Y-88891964D01*
X166418095Y-88783536D01*
X166450500Y-88662601D01*
X166450500Y-88537399D01*
X166440452Y-88499899D01*
X169299500Y-88499899D01*
X169299500Y-88625101D01*
X169331905Y-88746036D01*
X169394505Y-88854464D01*
X169483036Y-88942995D01*
X169591464Y-89005595D01*
X169712399Y-89038000D01*
X169712401Y-89038000D01*
X169837599Y-89038000D01*
X169837601Y-89038000D01*
X169958536Y-89005595D01*
X170066964Y-88942995D01*
X170155495Y-88854464D01*
X170218095Y-88746036D01*
X170250500Y-88625101D01*
X170250500Y-88537399D01*
X178499500Y-88537399D01*
X178499500Y-88662601D01*
X178531905Y-88783536D01*
X178594505Y-88891964D01*
X178683036Y-88980495D01*
X178791464Y-89043095D01*
X178912399Y-89075500D01*
X178912401Y-89075500D01*
X179037599Y-89075500D01*
X179037601Y-89075500D01*
X179158536Y-89043095D01*
X179266964Y-88980495D01*
X179355495Y-88891964D01*
X179418095Y-88783536D01*
X179450500Y-88662601D01*
X179450500Y-88537399D01*
X179418095Y-88416464D01*
X179355495Y-88308036D01*
X179266964Y-88219505D01*
X179158536Y-88156905D01*
X179158537Y-88156905D01*
X179118224Y-88146103D01*
X179037601Y-88124500D01*
X178912399Y-88124500D01*
X178831775Y-88146103D01*
X178791463Y-88156905D01*
X178683037Y-88219504D01*
X178683034Y-88219506D01*
X178594506Y-88308034D01*
X178594504Y-88308037D01*
X178531905Y-88416463D01*
X178531905Y-88416464D01*
X178499500Y-88537399D01*
X170250500Y-88537399D01*
X170250500Y-88499899D01*
X170218095Y-88378964D01*
X170155495Y-88270536D01*
X170066964Y-88182005D01*
X169958536Y-88119405D01*
X169958537Y-88119405D01*
X169918224Y-88108603D01*
X169837601Y-88087000D01*
X169712399Y-88087000D01*
X169631775Y-88108603D01*
X169591463Y-88119405D01*
X169483037Y-88182004D01*
X169483034Y-88182006D01*
X169394506Y-88270534D01*
X169394504Y-88270537D01*
X169331905Y-88378963D01*
X169331905Y-88378964D01*
X169299500Y-88499899D01*
X166440452Y-88499899D01*
X166418095Y-88416464D01*
X166355495Y-88308036D01*
X166266964Y-88219505D01*
X166158536Y-88156905D01*
X166158537Y-88156905D01*
X166118224Y-88146103D01*
X166037601Y-88124500D01*
X165912399Y-88124500D01*
X165831775Y-88146103D01*
X165791463Y-88156905D01*
X165683037Y-88219504D01*
X165683034Y-88219506D01*
X165594506Y-88308034D01*
X165594504Y-88308037D01*
X165531905Y-88416463D01*
X165531905Y-88416464D01*
X165499500Y-88537399D01*
X113400500Y-88537399D01*
X113400500Y-87728006D01*
X185450000Y-87728006D01*
X185450000Y-87971993D01*
X185488165Y-88212959D01*
X185563560Y-88444998D01*
X185674323Y-88662380D01*
X185741543Y-88754901D01*
X185741544Y-88754902D01*
X186360690Y-88135756D01*
X186379668Y-88181574D01*
X186456274Y-88296224D01*
X186553776Y-88393726D01*
X186668426Y-88470332D01*
X186714242Y-88489309D01*
X186095096Y-89108454D01*
X186095097Y-89108456D01*
X186187623Y-89175679D01*
X186191775Y-89178224D01*
X186190693Y-89179989D01*
X186235176Y-89222005D01*
X186251968Y-89289827D01*
X186229427Y-89355961D01*
X186200969Y-89384827D01*
X186185354Y-89396171D01*
X186046174Y-89535351D01*
X186046174Y-89535352D01*
X186046172Y-89535354D01*
X185996485Y-89603741D01*
X185930476Y-89694594D01*
X185841117Y-89869970D01*
X185780290Y-90057173D01*
X185749500Y-90251577D01*
X185749500Y-90448422D01*
X185780290Y-90642826D01*
X185841117Y-90830029D01*
X185923628Y-90991965D01*
X185930476Y-91005405D01*
X186046172Y-91164646D01*
X186185354Y-91303828D01*
X186344595Y-91419524D01*
X186427455Y-91461743D01*
X186519970Y-91508882D01*
X186519972Y-91508882D01*
X186519975Y-91508884D01*
X186620317Y-91541487D01*
X186707173Y-91569709D01*
X186901578Y-91600500D01*
X186901583Y-91600500D01*
X187098422Y-91600500D01*
X187292826Y-91569709D01*
X187480025Y-91508884D01*
X187655405Y-91419524D01*
X187814646Y-91303828D01*
X187953828Y-91164646D01*
X188069524Y-91005405D01*
X188158884Y-90830025D01*
X188219709Y-90642826D01*
X188239723Y-90516463D01*
X188250500Y-90448422D01*
X188250500Y-90251577D01*
X188219709Y-90057173D01*
X188158882Y-89869970D01*
X188069523Y-89694594D01*
X187953828Y-89535354D01*
X187814646Y-89396172D01*
X187799031Y-89384827D01*
X187756366Y-89329499D01*
X187750387Y-89259886D01*
X187782992Y-89198091D01*
X187808757Y-89179093D01*
X187808225Y-89178224D01*
X187812370Y-89175683D01*
X187904901Y-89108454D01*
X187904902Y-89108454D01*
X187285757Y-88489309D01*
X187331574Y-88470332D01*
X187446224Y-88393726D01*
X187543726Y-88296224D01*
X187620332Y-88181574D01*
X187639309Y-88135757D01*
X188258454Y-88754902D01*
X188258454Y-88754901D01*
X188325678Y-88662377D01*
X188436439Y-88444998D01*
X188511834Y-88212959D01*
X188550000Y-87971993D01*
X188550000Y-87728006D01*
X188511834Y-87487040D01*
X188436439Y-87255001D01*
X188325676Y-87037619D01*
X188258456Y-86945097D01*
X188258454Y-86945096D01*
X187639309Y-87564241D01*
X187620332Y-87518426D01*
X187543726Y-87403776D01*
X187446224Y-87306274D01*
X187331574Y-87229668D01*
X187285756Y-87210689D01*
X187904902Y-86591544D01*
X187904901Y-86591543D01*
X187812376Y-86524320D01*
X187808225Y-86521776D01*
X187809301Y-86520019D01*
X187764801Y-86477956D01*
X187748033Y-86410128D01*
X187770597Y-86344002D01*
X187799031Y-86315172D01*
X187814646Y-86303828D01*
X187953828Y-86164646D01*
X188069524Y-86005405D01*
X188158884Y-85830025D01*
X188219709Y-85642826D01*
X188236407Y-85537399D01*
X188250500Y-85448422D01*
X188250500Y-85251577D01*
X188219709Y-85057173D01*
X188158882Y-84869970D01*
X188069523Y-84694594D01*
X187953828Y-84535354D01*
X187814646Y-84396172D01*
X187655405Y-84280476D01*
X187518038Y-84210484D01*
X187467243Y-84162511D01*
X187450448Y-84094690D01*
X187472985Y-84028555D01*
X187518039Y-83989515D01*
X187655405Y-83919524D01*
X187814646Y-83803828D01*
X187953828Y-83664646D01*
X188069524Y-83505405D01*
X188158884Y-83330025D01*
X188219709Y-83142826D01*
X188250500Y-82948422D01*
X188250500Y-82751577D01*
X188219709Y-82557173D01*
X188158882Y-82369970D01*
X188069523Y-82194594D01*
X187953828Y-82035354D01*
X187814646Y-81896172D01*
X187655405Y-81780476D01*
X187518038Y-81710484D01*
X187467243Y-81662511D01*
X187450448Y-81594690D01*
X187472985Y-81528555D01*
X187518039Y-81489515D01*
X187655405Y-81419524D01*
X187814646Y-81303828D01*
X187953828Y-81164646D01*
X188069524Y-81005405D01*
X188158884Y-80830025D01*
X188219709Y-80642826D01*
X188250500Y-80448422D01*
X188250500Y-80251577D01*
X188219709Y-80057173D01*
X188158882Y-79869970D01*
X188069523Y-79694594D01*
X187953828Y-79535354D01*
X187814646Y-79396172D01*
X187655405Y-79280476D01*
X187518038Y-79210484D01*
X187467243Y-79162511D01*
X187450448Y-79094690D01*
X187472985Y-79028555D01*
X187518039Y-78989515D01*
X187655405Y-78919524D01*
X187814646Y-78803828D01*
X187953828Y-78664646D01*
X188069524Y-78505405D01*
X188158884Y-78330025D01*
X188219709Y-78142826D01*
X188250500Y-77948422D01*
X188250500Y-77751577D01*
X188219709Y-77557173D01*
X188158882Y-77369970D01*
X188069523Y-77194594D01*
X187953828Y-77035354D01*
X187814646Y-76896172D01*
X187655405Y-76780476D01*
X187480029Y-76691117D01*
X187292826Y-76630290D01*
X187098422Y-76599500D01*
X187098417Y-76599500D01*
X186901583Y-76599500D01*
X186901578Y-76599500D01*
X186707173Y-76630290D01*
X186519970Y-76691117D01*
X186344594Y-76780476D01*
X186253741Y-76846485D01*
X186185354Y-76896172D01*
X186185352Y-76896174D01*
X186185351Y-76896174D01*
X186046174Y-77035351D01*
X186046174Y-77035352D01*
X186046172Y-77035354D01*
X185996485Y-77103741D01*
X185930476Y-77194594D01*
X185841117Y-77369970D01*
X185780290Y-77557173D01*
X185749500Y-77751577D01*
X185749500Y-77948422D01*
X185780290Y-78142826D01*
X185841117Y-78330029D01*
X185930476Y-78505405D01*
X186046172Y-78664646D01*
X186185354Y-78803828D01*
X186344595Y-78919524D01*
X186413613Y-78954690D01*
X186481960Y-78989515D01*
X186532756Y-79037490D01*
X186549551Y-79105311D01*
X186527014Y-79171446D01*
X186481960Y-79210485D01*
X186344594Y-79280476D01*
X186253741Y-79346485D01*
X186185354Y-79396172D01*
X186185352Y-79396174D01*
X186185351Y-79396174D01*
X186046174Y-79535351D01*
X186046174Y-79535352D01*
X186046172Y-79535354D01*
X185996485Y-79603741D01*
X185930476Y-79694594D01*
X185841117Y-79869970D01*
X185780290Y-80057173D01*
X185749500Y-80251577D01*
X185749500Y-80448422D01*
X185780290Y-80642826D01*
X185841117Y-80830029D01*
X185915239Y-80975500D01*
X185930476Y-81005405D01*
X186046172Y-81164646D01*
X186185354Y-81303828D01*
X186344595Y-81419524D01*
X186413613Y-81454690D01*
X186481960Y-81489515D01*
X186532756Y-81537490D01*
X186549551Y-81605311D01*
X186527014Y-81671446D01*
X186481960Y-81710485D01*
X186344594Y-81780476D01*
X186253741Y-81846485D01*
X186185354Y-81896172D01*
X186185352Y-81896174D01*
X186185351Y-81896174D01*
X186046174Y-82035351D01*
X186046174Y-82035352D01*
X186046172Y-82035354D01*
X186040549Y-82043094D01*
X185930476Y-82194594D01*
X185841117Y-82369970D01*
X185780290Y-82557173D01*
X185749500Y-82751577D01*
X185749500Y-82948422D01*
X185780290Y-83142826D01*
X185841117Y-83330029D01*
X185915239Y-83475500D01*
X185930476Y-83505405D01*
X186046172Y-83664646D01*
X186185354Y-83803828D01*
X186344595Y-83919524D01*
X186413613Y-83954690D01*
X186481960Y-83989515D01*
X186532756Y-84037490D01*
X186549551Y-84105311D01*
X186527014Y-84171446D01*
X186481960Y-84210485D01*
X186344594Y-84280476D01*
X186256467Y-84344505D01*
X186185354Y-84396172D01*
X186185352Y-84396174D01*
X186185351Y-84396174D01*
X186046174Y-84535351D01*
X186046174Y-84535352D01*
X186046172Y-84535354D01*
X186041734Y-84541463D01*
X185930476Y-84694594D01*
X185841117Y-84869970D01*
X185780290Y-85057173D01*
X185749500Y-85251577D01*
X185749500Y-85448422D01*
X185780290Y-85642826D01*
X185841117Y-85830029D01*
X185917783Y-85980493D01*
X185930476Y-86005405D01*
X186046172Y-86164646D01*
X186185354Y-86303828D01*
X186200967Y-86315171D01*
X186243632Y-86370499D01*
X186249613Y-86440112D01*
X186217008Y-86501908D01*
X186191255Y-86520915D01*
X186191781Y-86521773D01*
X186187629Y-86524317D01*
X186095097Y-86591544D01*
X186714243Y-87210689D01*
X186668426Y-87229668D01*
X186553776Y-87306274D01*
X186456274Y-87403776D01*
X186379668Y-87518426D01*
X186360690Y-87564243D01*
X185741544Y-86945097D01*
X185674319Y-87037626D01*
X185563560Y-87255001D01*
X185488165Y-87487040D01*
X185450000Y-87728006D01*
X113400500Y-87728006D01*
X113400500Y-86462399D01*
X118309500Y-86462399D01*
X118309500Y-86587601D01*
X118341905Y-86708536D01*
X118404505Y-86816964D01*
X118493036Y-86905495D01*
X118601464Y-86968095D01*
X118722399Y-87000500D01*
X118722401Y-87000500D01*
X118847599Y-87000500D01*
X118847601Y-87000500D01*
X118968536Y-86968095D01*
X119076964Y-86905495D01*
X119165495Y-86816964D01*
X119228095Y-86708536D01*
X119260500Y-86587601D01*
X119260500Y-86537399D01*
X176799500Y-86537399D01*
X176799500Y-86662601D01*
X176831905Y-86783536D01*
X176894505Y-86891964D01*
X176983036Y-86980495D01*
X177091464Y-87043095D01*
X177212399Y-87075500D01*
X177212401Y-87075500D01*
X177337599Y-87075500D01*
X177337601Y-87075500D01*
X177458536Y-87043095D01*
X177566964Y-86980495D01*
X177655495Y-86891964D01*
X177718095Y-86783536D01*
X177750500Y-86662601D01*
X177750500Y-86537399D01*
X177718095Y-86416464D01*
X177655495Y-86308036D01*
X177566964Y-86219505D01*
X177458536Y-86156905D01*
X177458537Y-86156905D01*
X177412259Y-86144505D01*
X177337601Y-86124500D01*
X177212399Y-86124500D01*
X177137741Y-86144505D01*
X177091463Y-86156905D01*
X176983037Y-86219504D01*
X176983034Y-86219506D01*
X176894506Y-86308034D01*
X176894504Y-86308037D01*
X176831905Y-86416463D01*
X176819596Y-86462400D01*
X176799500Y-86537399D01*
X119260500Y-86537399D01*
X119260500Y-86462399D01*
X119228095Y-86341464D01*
X119165495Y-86233036D01*
X119076964Y-86144505D01*
X118968536Y-86081905D01*
X118968537Y-86081905D01*
X118928224Y-86071103D01*
X118847601Y-86049500D01*
X118722399Y-86049500D01*
X118641775Y-86071103D01*
X118601463Y-86081905D01*
X118493037Y-86144504D01*
X118493034Y-86144506D01*
X118404506Y-86233034D01*
X118404504Y-86233037D01*
X118341905Y-86341463D01*
X118341905Y-86341464D01*
X118309500Y-86462399D01*
X113400500Y-86462399D01*
X113400500Y-85537399D01*
X154324500Y-85537399D01*
X154324500Y-85662601D01*
X154356905Y-85783536D01*
X154419505Y-85891964D01*
X154508036Y-85980495D01*
X154616464Y-86043095D01*
X154737399Y-86075500D01*
X154737401Y-86075500D01*
X154862599Y-86075500D01*
X154862601Y-86075500D01*
X154983536Y-86043095D01*
X155091964Y-85980495D01*
X155180495Y-85891964D01*
X155243095Y-85783536D01*
X155275500Y-85662601D01*
X155275500Y-85537399D01*
X155243095Y-85416464D01*
X155180495Y-85308036D01*
X155091964Y-85219505D01*
X154983536Y-85156905D01*
X154983537Y-85156905D01*
X154943224Y-85146103D01*
X154862601Y-85124500D01*
X154737399Y-85124500D01*
X154656775Y-85146103D01*
X154616463Y-85156905D01*
X154508037Y-85219504D01*
X154508034Y-85219506D01*
X154419506Y-85308034D01*
X154419504Y-85308037D01*
X154356905Y-85416463D01*
X154356905Y-85416464D01*
X154324500Y-85537399D01*
X113400500Y-85537399D01*
X113400500Y-84662399D01*
X118382000Y-84662399D01*
X118382000Y-84787601D01*
X118414405Y-84908536D01*
X118477005Y-85016964D01*
X118565536Y-85105495D01*
X118673964Y-85168095D01*
X118794899Y-85200500D01*
X118794901Y-85200500D01*
X118920099Y-85200500D01*
X118920101Y-85200500D01*
X119041036Y-85168095D01*
X119149464Y-85105495D01*
X119237995Y-85016964D01*
X119300595Y-84908536D01*
X119333000Y-84787601D01*
X119333000Y-84662399D01*
X119300595Y-84541464D01*
X119237995Y-84433036D01*
X119149464Y-84344505D01*
X119041036Y-84281905D01*
X119041037Y-84281905D01*
X119000724Y-84271103D01*
X118920101Y-84249500D01*
X118794899Y-84249500D01*
X118714275Y-84271103D01*
X118673963Y-84281905D01*
X118565537Y-84344504D01*
X118565534Y-84344506D01*
X118477006Y-84433034D01*
X118477004Y-84433037D01*
X118414405Y-84541463D01*
X118414405Y-84541464D01*
X118382000Y-84662399D01*
X113400500Y-84662399D01*
X113400500Y-82937399D01*
X154324500Y-82937399D01*
X154324500Y-83062601D01*
X154356905Y-83183536D01*
X154419505Y-83291964D01*
X154508036Y-83380495D01*
X154616464Y-83443095D01*
X154737399Y-83475500D01*
X154737401Y-83475500D01*
X154862599Y-83475500D01*
X154862601Y-83475500D01*
X154983536Y-83443095D01*
X155091964Y-83380495D01*
X155180495Y-83291964D01*
X155243095Y-83183536D01*
X155275500Y-83062601D01*
X155275500Y-82937399D01*
X155243095Y-82816464D01*
X155197447Y-82737399D01*
X162024500Y-82737399D01*
X162024500Y-82862601D01*
X162056905Y-82983536D01*
X162119505Y-83091964D01*
X162208036Y-83180495D01*
X162316464Y-83243095D01*
X162437399Y-83275500D01*
X162437401Y-83275500D01*
X162562599Y-83275500D01*
X162562601Y-83275500D01*
X162683536Y-83243095D01*
X162791964Y-83180495D01*
X162880495Y-83091964D01*
X162943095Y-82983536D01*
X162975500Y-82862601D01*
X162975500Y-82737399D01*
X162943095Y-82616464D01*
X162880495Y-82508036D01*
X162791964Y-82419505D01*
X162683536Y-82356905D01*
X162683537Y-82356905D01*
X162643224Y-82346103D01*
X162562601Y-82324500D01*
X162437399Y-82324500D01*
X162356775Y-82346103D01*
X162316463Y-82356905D01*
X162208037Y-82419504D01*
X162208034Y-82419506D01*
X162119506Y-82508034D01*
X162119504Y-82508037D01*
X162056905Y-82616463D01*
X162056905Y-82616464D01*
X162024500Y-82737399D01*
X155197447Y-82737399D01*
X155180495Y-82708036D01*
X155091964Y-82619505D01*
X154983536Y-82556905D01*
X154983537Y-82556905D01*
X154943224Y-82546103D01*
X154862601Y-82524500D01*
X154737399Y-82524500D01*
X154656775Y-82546103D01*
X154616463Y-82556905D01*
X154508037Y-82619504D01*
X154508034Y-82619506D01*
X154419506Y-82708034D01*
X154419504Y-82708037D01*
X154356905Y-82816463D01*
X154356905Y-82816464D01*
X154324500Y-82937399D01*
X113400500Y-82937399D01*
X113400500Y-81537399D01*
X154324500Y-81537399D01*
X154324500Y-81662601D01*
X154356905Y-81783536D01*
X154419505Y-81891964D01*
X154508036Y-81980495D01*
X154616464Y-82043095D01*
X154737399Y-82075500D01*
X154737401Y-82075500D01*
X154862599Y-82075500D01*
X154862601Y-82075500D01*
X154983536Y-82043095D01*
X155091964Y-81980495D01*
X155180495Y-81891964D01*
X155243095Y-81783536D01*
X155275500Y-81662601D01*
X155275500Y-81537399D01*
X155243095Y-81416464D01*
X155180495Y-81308036D01*
X155091964Y-81219505D01*
X154983536Y-81156905D01*
X154983537Y-81156905D01*
X154943224Y-81146103D01*
X154862601Y-81124500D01*
X154737399Y-81124500D01*
X154656775Y-81146103D01*
X154616463Y-81156905D01*
X154508037Y-81219504D01*
X154508034Y-81219506D01*
X154419506Y-81308034D01*
X154419504Y-81308037D01*
X154356905Y-81416463D01*
X154356905Y-81416464D01*
X154324500Y-81537399D01*
X113400500Y-81537399D01*
X113400500Y-80437399D01*
X153724500Y-80437399D01*
X153724500Y-80562601D01*
X153756905Y-80683536D01*
X153819505Y-80791964D01*
X153908036Y-80880495D01*
X154016464Y-80943095D01*
X154137399Y-80975500D01*
X154137401Y-80975500D01*
X154262599Y-80975500D01*
X154262601Y-80975500D01*
X154383536Y-80943095D01*
X154491964Y-80880495D01*
X154580495Y-80791964D01*
X154643095Y-80683536D01*
X154675500Y-80562601D01*
X154675500Y-80437399D01*
X154643095Y-80316464D01*
X154580495Y-80208036D01*
X154491964Y-80119505D01*
X154383536Y-80056905D01*
X154383537Y-80056905D01*
X154343224Y-80046103D01*
X154262601Y-80024500D01*
X154137399Y-80024500D01*
X154056775Y-80046103D01*
X154016463Y-80056905D01*
X153908037Y-80119504D01*
X153908034Y-80119506D01*
X153819506Y-80208034D01*
X153819504Y-80208037D01*
X153756905Y-80316463D01*
X153756905Y-80316464D01*
X153724500Y-80437399D01*
X113400500Y-80437399D01*
X113400500Y-76037399D01*
X163024500Y-76037399D01*
X163024500Y-76162601D01*
X163056905Y-76283536D01*
X163119505Y-76391964D01*
X163208036Y-76480495D01*
X163316464Y-76543095D01*
X163437399Y-76575500D01*
X163437401Y-76575500D01*
X163562599Y-76575500D01*
X163562601Y-76575500D01*
X163683536Y-76543095D01*
X163791964Y-76480495D01*
X163880495Y-76391964D01*
X163943095Y-76283536D01*
X163975500Y-76162601D01*
X163975500Y-76037399D01*
X163943095Y-75916464D01*
X163880495Y-75808036D01*
X163791964Y-75719505D01*
X163683536Y-75656905D01*
X163683537Y-75656905D01*
X163643224Y-75646103D01*
X163562601Y-75624500D01*
X163437399Y-75624500D01*
X163356775Y-75646103D01*
X163316463Y-75656905D01*
X163208037Y-75719504D01*
X163208034Y-75719506D01*
X163119506Y-75808034D01*
X163119504Y-75808037D01*
X163056905Y-75916463D01*
X163056905Y-75916464D01*
X163024500Y-76037399D01*
X113400500Y-76037399D01*
X113400500Y-71380247D01*
X116942046Y-71380247D01*
X116942046Y-73419752D01*
X116953677Y-73478229D01*
X116953678Y-73478230D01*
X116997993Y-73544552D01*
X117064315Y-73588867D01*
X117064316Y-73588868D01*
X117122793Y-73600499D01*
X117122796Y-73600500D01*
X117122798Y-73600500D01*
X119162296Y-73600500D01*
X119162297Y-73600499D01*
X119177114Y-73597552D01*
X119220775Y-73588868D01*
X119220775Y-73588867D01*
X119220777Y-73588867D01*
X119287098Y-73544552D01*
X119291878Y-73537399D01*
X119312519Y-73506508D01*
X119319552Y-73495980D01*
X119331413Y-73478231D01*
X119331413Y-73478229D01*
X119331414Y-73478229D01*
X119343045Y-73419752D01*
X119343046Y-73419750D01*
X119343046Y-72281947D01*
X137442546Y-72281947D01*
X137442546Y-72518052D01*
X137479480Y-72751247D01*
X137552443Y-72975802D01*
X137659633Y-73186174D01*
X137719884Y-73269104D01*
X137719886Y-73269105D01*
X138264967Y-72724024D01*
X138277905Y-72755258D01*
X138359983Y-72878097D01*
X138464449Y-72982563D01*
X138587288Y-73064641D01*
X138618520Y-73077578D01*
X138073439Y-73622658D01*
X138156374Y-73682914D01*
X138366743Y-73790102D01*
X138591298Y-73863065D01*
X138591297Y-73863065D01*
X138824494Y-73900000D01*
X139060598Y-73900000D01*
X139293793Y-73863065D01*
X139518348Y-73790102D01*
X139728709Y-73682918D01*
X139728715Y-73682914D01*
X139811650Y-73622658D01*
X139811651Y-73622658D01*
X139805945Y-73616952D01*
X139726392Y-73537399D01*
X164224500Y-73537399D01*
X164224500Y-73662601D01*
X164256905Y-73783536D01*
X164319505Y-73891964D01*
X164408036Y-73980495D01*
X164516464Y-74043095D01*
X164637399Y-74075500D01*
X164637401Y-74075500D01*
X164762599Y-74075500D01*
X164762601Y-74075500D01*
X164883536Y-74043095D01*
X164991964Y-73980495D01*
X165080495Y-73891964D01*
X165143095Y-73783536D01*
X165175500Y-73662601D01*
X165175500Y-73537399D01*
X165168801Y-73512399D01*
X168099500Y-73512399D01*
X168099500Y-73637601D01*
X168131905Y-73758536D01*
X168194505Y-73866964D01*
X168283036Y-73955495D01*
X168391464Y-74018095D01*
X168512399Y-74050500D01*
X168512401Y-74050500D01*
X168637599Y-74050500D01*
X168637601Y-74050500D01*
X168758536Y-74018095D01*
X168866964Y-73955495D01*
X168955495Y-73866964D01*
X169018095Y-73758536D01*
X169050500Y-73637601D01*
X169050500Y-73512399D01*
X169018095Y-73391464D01*
X168955495Y-73283036D01*
X168866964Y-73194505D01*
X168758536Y-73131905D01*
X168758537Y-73131905D01*
X168718224Y-73121103D01*
X168637601Y-73099500D01*
X168512399Y-73099500D01*
X168431775Y-73121103D01*
X168391463Y-73131905D01*
X168283037Y-73194504D01*
X168283034Y-73194506D01*
X168194506Y-73283034D01*
X168194504Y-73283037D01*
X168131905Y-73391463D01*
X168131905Y-73391464D01*
X168099500Y-73512399D01*
X165168801Y-73512399D01*
X165143095Y-73416464D01*
X165080495Y-73308036D01*
X164991964Y-73219505D01*
X164883536Y-73156905D01*
X164883537Y-73156905D01*
X164843224Y-73146103D01*
X164762601Y-73124500D01*
X164637399Y-73124500D01*
X164556775Y-73146103D01*
X164516463Y-73156905D01*
X164408037Y-73219504D01*
X164408034Y-73219506D01*
X164319506Y-73308034D01*
X164319504Y-73308037D01*
X164256905Y-73416463D01*
X164256024Y-73419752D01*
X164224500Y-73537399D01*
X139726392Y-73537399D01*
X139266570Y-73077578D01*
X139297804Y-73064641D01*
X139420643Y-72982563D01*
X139525109Y-72878097D01*
X139607187Y-72755258D01*
X139620124Y-72724024D01*
X140165204Y-73269105D01*
X140165204Y-73269104D01*
X140225460Y-73186169D01*
X140225464Y-73186163D01*
X140332648Y-72975802D01*
X140405611Y-72751247D01*
X140442546Y-72518052D01*
X140442546Y-72281947D01*
X140421437Y-72148669D01*
X140419652Y-72137399D01*
X151024500Y-72137399D01*
X151024500Y-72262601D01*
X151056905Y-72383536D01*
X151119505Y-72491964D01*
X151208036Y-72580495D01*
X151316464Y-72643095D01*
X151437399Y-72675500D01*
X151437401Y-72675500D01*
X151562599Y-72675500D01*
X151562601Y-72675500D01*
X151683536Y-72643095D01*
X151791964Y-72580495D01*
X151880495Y-72491964D01*
X151943095Y-72383536D01*
X151975500Y-72262601D01*
X151975500Y-72137399D01*
X151943095Y-72016464D01*
X151880495Y-71908036D01*
X151791964Y-71819505D01*
X151683536Y-71756905D01*
X151683537Y-71756905D01*
X151643224Y-71746103D01*
X151562601Y-71724500D01*
X151437399Y-71724500D01*
X151356775Y-71746103D01*
X151316463Y-71756905D01*
X151208037Y-71819504D01*
X151208034Y-71819506D01*
X151119506Y-71908034D01*
X151119504Y-71908037D01*
X151056905Y-72016463D01*
X151056905Y-72016464D01*
X151024500Y-72137399D01*
X140419652Y-72137399D01*
X140405611Y-72048752D01*
X140332648Y-71824197D01*
X140225460Y-71613828D01*
X140165204Y-71530894D01*
X140165204Y-71530893D01*
X139620123Y-72075974D01*
X139607187Y-72044742D01*
X139525109Y-71921903D01*
X139420643Y-71817437D01*
X139297804Y-71735359D01*
X139266570Y-71722421D01*
X139811651Y-71177340D01*
X139811650Y-71177338D01*
X139728720Y-71117087D01*
X139518348Y-71009897D01*
X139293793Y-70936934D01*
X139293794Y-70936934D01*
X139060598Y-70900000D01*
X138824494Y-70900000D01*
X138591298Y-70936934D01*
X138366743Y-71009897D01*
X138156376Y-71117084D01*
X138073440Y-71177340D01*
X138618521Y-71722421D01*
X138587288Y-71735359D01*
X138464449Y-71817437D01*
X138359983Y-71921903D01*
X138277905Y-72044742D01*
X138264967Y-72075975D01*
X137719886Y-71530894D01*
X137659630Y-71613830D01*
X137552443Y-71824197D01*
X137479480Y-72048752D01*
X137442546Y-72281947D01*
X119343046Y-72281947D01*
X119343046Y-71380249D01*
X119343045Y-71380247D01*
X119331414Y-71321770D01*
X119331413Y-71321769D01*
X119312518Y-71293490D01*
X119312517Y-71293489D01*
X119287099Y-71255448D01*
X119220776Y-71211132D01*
X119220775Y-71211131D01*
X119162298Y-71199500D01*
X119162294Y-71199500D01*
X117122798Y-71199500D01*
X117122793Y-71199500D01*
X117064316Y-71211131D01*
X117064315Y-71211132D01*
X116997993Y-71255447D01*
X116953678Y-71321769D01*
X116953677Y-71321770D01*
X116942046Y-71380247D01*
X113400500Y-71380247D01*
X113400500Y-70537399D01*
X169674500Y-70537399D01*
X169674500Y-70662601D01*
X169706905Y-70783536D01*
X169769505Y-70891964D01*
X169858036Y-70980495D01*
X169966464Y-71043095D01*
X170087399Y-71075500D01*
X170087401Y-71075500D01*
X170212599Y-71075500D01*
X170212601Y-71075500D01*
X170333536Y-71043095D01*
X170441964Y-70980495D01*
X170530495Y-70891964D01*
X170593095Y-70783536D01*
X170625500Y-70662601D01*
X170625500Y-70537399D01*
X170593095Y-70416464D01*
X170530495Y-70308036D01*
X170441964Y-70219505D01*
X170333536Y-70156905D01*
X170333537Y-70156905D01*
X170293224Y-70146103D01*
X170212601Y-70124500D01*
X170087399Y-70124500D01*
X170006775Y-70146103D01*
X169966463Y-70156905D01*
X169858037Y-70219504D01*
X169858034Y-70219506D01*
X169769506Y-70308034D01*
X169769504Y-70308037D01*
X169706905Y-70416463D01*
X169706905Y-70416464D01*
X169674500Y-70537399D01*
X113400500Y-70537399D01*
X113400500Y-69187399D01*
X166624500Y-69187399D01*
X166624500Y-69312601D01*
X166656905Y-69433536D01*
X166719505Y-69541964D01*
X166808036Y-69630495D01*
X166916464Y-69693095D01*
X167037399Y-69725500D01*
X167037401Y-69725500D01*
X167162599Y-69725500D01*
X167162601Y-69725500D01*
X167283536Y-69693095D01*
X167391964Y-69630495D01*
X167480495Y-69541964D01*
X167543095Y-69433536D01*
X167575500Y-69312601D01*
X167575500Y-69187399D01*
X167543095Y-69066464D01*
X167480495Y-68958036D01*
X167391964Y-68869505D01*
X167283536Y-68806905D01*
X167283537Y-68806905D01*
X167243224Y-68796103D01*
X167162601Y-68774500D01*
X167037399Y-68774500D01*
X166956775Y-68796103D01*
X166916463Y-68806905D01*
X166808037Y-68869504D01*
X166808034Y-68869506D01*
X166719506Y-68958034D01*
X166719504Y-68958037D01*
X166656905Y-69066463D01*
X166656905Y-69066464D01*
X166624500Y-69187399D01*
X113400500Y-69187399D01*
X113400500Y-68037399D01*
X152424500Y-68037399D01*
X152424500Y-68162601D01*
X152456905Y-68283536D01*
X152519505Y-68391964D01*
X152608036Y-68480495D01*
X152716464Y-68543095D01*
X152837399Y-68575500D01*
X152837401Y-68575500D01*
X152962599Y-68575500D01*
X152962601Y-68575500D01*
X153083536Y-68543095D01*
X153109671Y-68528006D01*
X185450000Y-68528006D01*
X185450000Y-68771993D01*
X185488165Y-69012959D01*
X185563560Y-69244998D01*
X185674323Y-69462380D01*
X185741543Y-69554901D01*
X185741544Y-69554902D01*
X186360690Y-68935756D01*
X186379668Y-68981574D01*
X186456274Y-69096224D01*
X186553776Y-69193726D01*
X186668426Y-69270332D01*
X186714242Y-69289309D01*
X186095096Y-69908454D01*
X186095097Y-69908456D01*
X186187623Y-69975679D01*
X186191775Y-69978224D01*
X186190693Y-69979989D01*
X186235176Y-70022005D01*
X186251968Y-70089827D01*
X186229427Y-70155961D01*
X186200969Y-70184827D01*
X186185354Y-70196171D01*
X186046174Y-70335351D01*
X186046174Y-70335352D01*
X186046172Y-70335354D01*
X185996485Y-70403741D01*
X185930476Y-70494594D01*
X185841117Y-70669970D01*
X185780290Y-70857173D01*
X185749500Y-71051577D01*
X185749500Y-71248422D01*
X185780290Y-71442826D01*
X185841117Y-71630029D01*
X185889253Y-71724500D01*
X185930476Y-71805405D01*
X186046172Y-71964646D01*
X186185354Y-72103828D01*
X186344595Y-72219524D01*
X186427455Y-72261743D01*
X186519970Y-72308882D01*
X186519972Y-72308882D01*
X186519975Y-72308884D01*
X186620317Y-72341487D01*
X186707173Y-72369709D01*
X186901578Y-72400500D01*
X186901583Y-72400500D01*
X187098422Y-72400500D01*
X187292826Y-72369709D01*
X187480025Y-72308884D01*
X187655405Y-72219524D01*
X187814646Y-72103828D01*
X187953828Y-71964646D01*
X188069524Y-71805405D01*
X188158884Y-71630025D01*
X188219709Y-71442826D01*
X188229620Y-71380249D01*
X188250500Y-71248422D01*
X188250500Y-71051577D01*
X188219709Y-70857173D01*
X188158882Y-70669970D01*
X188091334Y-70537400D01*
X188069524Y-70494595D01*
X187953828Y-70335354D01*
X187814646Y-70196172D01*
X187799031Y-70184827D01*
X187756366Y-70129499D01*
X187750387Y-70059886D01*
X187782992Y-69998091D01*
X187808757Y-69979093D01*
X187808225Y-69978224D01*
X187812370Y-69975683D01*
X187904901Y-69908454D01*
X187904902Y-69908454D01*
X187285757Y-69289309D01*
X187331574Y-69270332D01*
X187446224Y-69193726D01*
X187543726Y-69096224D01*
X187620332Y-68981574D01*
X187639309Y-68935757D01*
X188258454Y-69554902D01*
X188258454Y-69554901D01*
X188325678Y-69462377D01*
X188436439Y-69244998D01*
X188511834Y-69012959D01*
X188550000Y-68771993D01*
X188550000Y-68528006D01*
X188511834Y-68287040D01*
X188436439Y-68055001D01*
X188325676Y-67837619D01*
X188258456Y-67745097D01*
X188258454Y-67745096D01*
X187639309Y-68364241D01*
X187620332Y-68318426D01*
X187543726Y-68203776D01*
X187446224Y-68106274D01*
X187331574Y-68029668D01*
X187285756Y-68010689D01*
X187904902Y-67391544D01*
X187904901Y-67391543D01*
X187812376Y-67324320D01*
X187808225Y-67321776D01*
X187809301Y-67320019D01*
X187764801Y-67277956D01*
X187748033Y-67210128D01*
X187770597Y-67144002D01*
X187799031Y-67115172D01*
X187814646Y-67103828D01*
X187953828Y-66964646D01*
X188069524Y-66805405D01*
X188158884Y-66630025D01*
X188219709Y-66442826D01*
X188230531Y-66374500D01*
X188250500Y-66248422D01*
X188250500Y-66051577D01*
X188219709Y-65857173D01*
X188158882Y-65669970D01*
X188091334Y-65537400D01*
X188069524Y-65494595D01*
X187953828Y-65335354D01*
X187814646Y-65196172D01*
X187655405Y-65080476D01*
X187518038Y-65010484D01*
X187467243Y-64962511D01*
X187450448Y-64894690D01*
X187472985Y-64828555D01*
X187518039Y-64789515D01*
X187655405Y-64719524D01*
X187814646Y-64603828D01*
X187953828Y-64464646D01*
X188069524Y-64305405D01*
X188158884Y-64130025D01*
X188219709Y-63942826D01*
X188250500Y-63748422D01*
X188250500Y-63551577D01*
X188219709Y-63357173D01*
X188158882Y-63169970D01*
X188069523Y-62994594D01*
X187953828Y-62835354D01*
X187814646Y-62696172D01*
X187655405Y-62580476D01*
X187518038Y-62510484D01*
X187467243Y-62462511D01*
X187450448Y-62394690D01*
X187472985Y-62328555D01*
X187518039Y-62289515D01*
X187655405Y-62219524D01*
X187814646Y-62103828D01*
X187953828Y-61964646D01*
X188069524Y-61805405D01*
X188158884Y-61630025D01*
X188219709Y-61442826D01*
X188250500Y-61248422D01*
X188250500Y-61051577D01*
X188219709Y-60857173D01*
X188158882Y-60669970D01*
X188069523Y-60494594D01*
X187953828Y-60335354D01*
X187814646Y-60196172D01*
X187655405Y-60080476D01*
X187518038Y-60010484D01*
X187467243Y-59962511D01*
X187450448Y-59894690D01*
X187472985Y-59828555D01*
X187518039Y-59789515D01*
X187655405Y-59719524D01*
X187814646Y-59603828D01*
X187953828Y-59464646D01*
X188069524Y-59305405D01*
X188158884Y-59130025D01*
X188219709Y-58942826D01*
X188223805Y-58916964D01*
X188250500Y-58748422D01*
X188250500Y-58551577D01*
X188219709Y-58357173D01*
X188178548Y-58230495D01*
X188158884Y-58169975D01*
X188158882Y-58169972D01*
X188158882Y-58169970D01*
X188069523Y-57994594D01*
X187953828Y-57835354D01*
X187814646Y-57696172D01*
X187655405Y-57580476D01*
X187611360Y-57558034D01*
X187480029Y-57491117D01*
X187292826Y-57430290D01*
X187098422Y-57399500D01*
X187098417Y-57399500D01*
X186901583Y-57399500D01*
X186901578Y-57399500D01*
X186707173Y-57430290D01*
X186519970Y-57491117D01*
X186344594Y-57580476D01*
X186253741Y-57646485D01*
X186185354Y-57696172D01*
X186185352Y-57696174D01*
X186185351Y-57696174D01*
X186046174Y-57835351D01*
X186046174Y-57835352D01*
X186046172Y-57835354D01*
X185996485Y-57903741D01*
X185930476Y-57994594D01*
X185841117Y-58169970D01*
X185780290Y-58357173D01*
X185749500Y-58551577D01*
X185749500Y-58748422D01*
X185780290Y-58942826D01*
X185841117Y-59130029D01*
X185930476Y-59305405D01*
X186046172Y-59464646D01*
X186185354Y-59603828D01*
X186344595Y-59719524D01*
X186413613Y-59754690D01*
X186481960Y-59789515D01*
X186532756Y-59837490D01*
X186549551Y-59905311D01*
X186527014Y-59971446D01*
X186481960Y-60010485D01*
X186344594Y-60080476D01*
X186253741Y-60146485D01*
X186185354Y-60196172D01*
X186185352Y-60196174D01*
X186185351Y-60196174D01*
X186046174Y-60335351D01*
X186046174Y-60335352D01*
X186046172Y-60335354D01*
X185996485Y-60403741D01*
X185930476Y-60494594D01*
X185841117Y-60669970D01*
X185780290Y-60857173D01*
X185749500Y-61051577D01*
X185749500Y-61248422D01*
X185780290Y-61442826D01*
X185841117Y-61630029D01*
X185930476Y-61805405D01*
X186046172Y-61964646D01*
X186185354Y-62103828D01*
X186344595Y-62219524D01*
X186413613Y-62254690D01*
X186481960Y-62289515D01*
X186532756Y-62337490D01*
X186549551Y-62405311D01*
X186527014Y-62471446D01*
X186481960Y-62510485D01*
X186344594Y-62580476D01*
X186253741Y-62646485D01*
X186185354Y-62696172D01*
X186185352Y-62696174D01*
X186185351Y-62696174D01*
X186046174Y-62835351D01*
X186046174Y-62835352D01*
X186046172Y-62835354D01*
X185996485Y-62903741D01*
X185930476Y-62994594D01*
X185841117Y-63169970D01*
X185780290Y-63357173D01*
X185749500Y-63551577D01*
X185749500Y-63748422D01*
X185780290Y-63942826D01*
X185841117Y-64130029D01*
X185930476Y-64305405D01*
X186046172Y-64464646D01*
X186185354Y-64603828D01*
X186344595Y-64719524D01*
X186413613Y-64754690D01*
X186481960Y-64789515D01*
X186532756Y-64837490D01*
X186549551Y-64905311D01*
X186527014Y-64971446D01*
X186481960Y-65010485D01*
X186344594Y-65080476D01*
X186284001Y-65124500D01*
X186185354Y-65196172D01*
X186185352Y-65196174D01*
X186185351Y-65196174D01*
X186046174Y-65335351D01*
X186046174Y-65335352D01*
X186046172Y-65335354D01*
X185996485Y-65403741D01*
X185930476Y-65494594D01*
X185841117Y-65669970D01*
X185780290Y-65857173D01*
X185749500Y-66051577D01*
X185749500Y-66248422D01*
X185780290Y-66442826D01*
X185841117Y-66630029D01*
X185921302Y-66787400D01*
X185930476Y-66805405D01*
X186046172Y-66964646D01*
X186185354Y-67103828D01*
X186200967Y-67115171D01*
X186243632Y-67170499D01*
X186249613Y-67240112D01*
X186217008Y-67301908D01*
X186191255Y-67320915D01*
X186191781Y-67321773D01*
X186187629Y-67324317D01*
X186095097Y-67391544D01*
X186714243Y-68010689D01*
X186668426Y-68029668D01*
X186553776Y-68106274D01*
X186456274Y-68203776D01*
X186379668Y-68318426D01*
X186360690Y-68364243D01*
X185741544Y-67745097D01*
X185674319Y-67837626D01*
X185563560Y-68055001D01*
X185488165Y-68287040D01*
X185450000Y-68528006D01*
X153109671Y-68528006D01*
X153191964Y-68480495D01*
X153280495Y-68391964D01*
X153343095Y-68283536D01*
X153375500Y-68162601D01*
X153375500Y-68037399D01*
X153362102Y-67987399D01*
X166624500Y-67987399D01*
X166624500Y-68112601D01*
X166656905Y-68233536D01*
X166719505Y-68341964D01*
X166808036Y-68430495D01*
X166916464Y-68493095D01*
X167037399Y-68525500D01*
X167037401Y-68525500D01*
X167162599Y-68525500D01*
X167162601Y-68525500D01*
X167283536Y-68493095D01*
X167391964Y-68430495D01*
X167480495Y-68341964D01*
X167543095Y-68233536D01*
X167575500Y-68112601D01*
X167575500Y-67987399D01*
X167543095Y-67866464D01*
X167480495Y-67758036D01*
X167391964Y-67669505D01*
X167283536Y-67606905D01*
X167283537Y-67606905D01*
X167243224Y-67596103D01*
X167162601Y-67574500D01*
X167037399Y-67574500D01*
X166956775Y-67596103D01*
X166916463Y-67606905D01*
X166808037Y-67669504D01*
X166808034Y-67669506D01*
X166719506Y-67758034D01*
X166719504Y-67758037D01*
X166656905Y-67866463D01*
X166656905Y-67866464D01*
X166624500Y-67987399D01*
X153362102Y-67987399D01*
X153343095Y-67916464D01*
X153280495Y-67808036D01*
X153191964Y-67719505D01*
X153083536Y-67656905D01*
X153083537Y-67656905D01*
X153043224Y-67646103D01*
X152962601Y-67624500D01*
X152837399Y-67624500D01*
X152756775Y-67646103D01*
X152716463Y-67656905D01*
X152608037Y-67719504D01*
X152608034Y-67719506D01*
X152519506Y-67808034D01*
X152519504Y-67808037D01*
X152456905Y-67916463D01*
X152456905Y-67916464D01*
X152424500Y-68037399D01*
X113400500Y-68037399D01*
X113400500Y-66787399D01*
X166624500Y-66787399D01*
X166624500Y-66912601D01*
X166656905Y-67033536D01*
X166719505Y-67141964D01*
X166808036Y-67230495D01*
X166916464Y-67293095D01*
X167037399Y-67325500D01*
X167037401Y-67325500D01*
X167162599Y-67325500D01*
X167162601Y-67325500D01*
X167283536Y-67293095D01*
X167391964Y-67230495D01*
X167480495Y-67141964D01*
X167543095Y-67033536D01*
X167575500Y-66912601D01*
X167575500Y-66787399D01*
X167543095Y-66666464D01*
X167480495Y-66558036D01*
X167391964Y-66469505D01*
X167283536Y-66406905D01*
X167283537Y-66406905D01*
X167243224Y-66396103D01*
X167162601Y-66374500D01*
X167037399Y-66374500D01*
X166956775Y-66396103D01*
X166916463Y-66406905D01*
X166808037Y-66469504D01*
X166808034Y-66469506D01*
X166719506Y-66558034D01*
X166719504Y-66558037D01*
X166656905Y-66666463D01*
X166656905Y-66666464D01*
X166624500Y-66787399D01*
X113400500Y-66787399D01*
X113400500Y-65537399D01*
X166624500Y-65537399D01*
X166624500Y-65662601D01*
X166656905Y-65783536D01*
X166719505Y-65891964D01*
X166808036Y-65980495D01*
X166916464Y-66043095D01*
X167037399Y-66075500D01*
X167037401Y-66075500D01*
X167162599Y-66075500D01*
X167162601Y-66075500D01*
X167283536Y-66043095D01*
X167391964Y-65980495D01*
X167480495Y-65891964D01*
X167543095Y-65783536D01*
X167575500Y-65662601D01*
X167575500Y-65537399D01*
X167543095Y-65416464D01*
X167480495Y-65308036D01*
X167391964Y-65219505D01*
X167283536Y-65156905D01*
X167283537Y-65156905D01*
X167243224Y-65146103D01*
X167162601Y-65124500D01*
X167037399Y-65124500D01*
X166956775Y-65146103D01*
X166916463Y-65156905D01*
X166808037Y-65219504D01*
X166808034Y-65219506D01*
X166719506Y-65308034D01*
X166719504Y-65308037D01*
X166656905Y-65416463D01*
X166656905Y-65416464D01*
X166624500Y-65537399D01*
X113400500Y-65537399D01*
X113400500Y-58562399D01*
X124124500Y-58562399D01*
X124124500Y-58687601D01*
X124156905Y-58808536D01*
X124219505Y-58916964D01*
X124308036Y-59005495D01*
X124416464Y-59068095D01*
X124537399Y-59100500D01*
X124537401Y-59100500D01*
X124662599Y-59100500D01*
X124662601Y-59100500D01*
X124783536Y-59068095D01*
X124891964Y-59005495D01*
X124980495Y-58916964D01*
X125043095Y-58808536D01*
X125075500Y-58687601D01*
X125075500Y-58562399D01*
X125068801Y-58537399D01*
X131174500Y-58537399D01*
X131174500Y-58662601D01*
X131206905Y-58783536D01*
X131269505Y-58891964D01*
X131358036Y-58980495D01*
X131466464Y-59043095D01*
X131587399Y-59075500D01*
X131587401Y-59075500D01*
X131712599Y-59075500D01*
X131712601Y-59075500D01*
X131833536Y-59043095D01*
X131941964Y-58980495D01*
X132030495Y-58891964D01*
X132093095Y-58783536D01*
X132125500Y-58662601D01*
X132125500Y-58537399D01*
X132093095Y-58416464D01*
X132030495Y-58308036D01*
X131941964Y-58219505D01*
X131833536Y-58156905D01*
X131833537Y-58156905D01*
X131777769Y-58141962D01*
X131712601Y-58124500D01*
X131587399Y-58124500D01*
X131522231Y-58141962D01*
X131466463Y-58156905D01*
X131358037Y-58219504D01*
X131358034Y-58219506D01*
X131269506Y-58308034D01*
X131269504Y-58308037D01*
X131206905Y-58416463D01*
X131206905Y-58416464D01*
X131174500Y-58537399D01*
X125068801Y-58537399D01*
X125043095Y-58441464D01*
X124980495Y-58333036D01*
X124891964Y-58244505D01*
X124783536Y-58181905D01*
X124783537Y-58181905D01*
X124738995Y-58169970D01*
X124662601Y-58149500D01*
X124537399Y-58149500D01*
X124461005Y-58169970D01*
X124416463Y-58181905D01*
X124308037Y-58244504D01*
X124308034Y-58244506D01*
X124219506Y-58333034D01*
X124219504Y-58333037D01*
X124156905Y-58441463D01*
X124156905Y-58441464D01*
X124124500Y-58562399D01*
X113400500Y-58562399D01*
X113400500Y-57787399D01*
X133874500Y-57787399D01*
X133874500Y-57912601D01*
X133906905Y-58033536D01*
X133969505Y-58141964D01*
X134058036Y-58230495D01*
X134166464Y-58293095D01*
X134287399Y-58325500D01*
X134287401Y-58325500D01*
X134412599Y-58325500D01*
X134412601Y-58325500D01*
X134533536Y-58293095D01*
X134641964Y-58230495D01*
X134730495Y-58141964D01*
X134793095Y-58033536D01*
X134825500Y-57912601D01*
X134825500Y-57787399D01*
X134793095Y-57666464D01*
X134730495Y-57558036D01*
X134641964Y-57469505D01*
X134533536Y-57406905D01*
X134533537Y-57406905D01*
X134493224Y-57396103D01*
X134412601Y-57374500D01*
X134287399Y-57374500D01*
X134206775Y-57396103D01*
X134166463Y-57406905D01*
X134058037Y-57469504D01*
X134058034Y-57469506D01*
X133969506Y-57558034D01*
X133969504Y-57558037D01*
X133906905Y-57666463D01*
X133898944Y-57696174D01*
X133874500Y-57787399D01*
X113400500Y-57787399D01*
X113400500Y-56312399D01*
X126774500Y-56312399D01*
X126774500Y-56437601D01*
X126806905Y-56558536D01*
X126869505Y-56666964D01*
X126958036Y-56755495D01*
X127066464Y-56818095D01*
X127187399Y-56850500D01*
X127187401Y-56850500D01*
X127312599Y-56850500D01*
X127312601Y-56850500D01*
X127433536Y-56818095D01*
X127541964Y-56755495D01*
X127630495Y-56666964D01*
X127693095Y-56558536D01*
X127725500Y-56437601D01*
X127725500Y-56437399D01*
X149534500Y-56437399D01*
X149534500Y-56562601D01*
X149566905Y-56683536D01*
X149629505Y-56791964D01*
X149718036Y-56880495D01*
X149826464Y-56943095D01*
X149947399Y-56975500D01*
X149947401Y-56975500D01*
X150072599Y-56975500D01*
X150072601Y-56975500D01*
X150193536Y-56943095D01*
X150301964Y-56880495D01*
X150390495Y-56791964D01*
X150453095Y-56683536D01*
X150485500Y-56562601D01*
X150485500Y-56437399D01*
X151234500Y-56437399D01*
X151234500Y-56562601D01*
X151266905Y-56683536D01*
X151329505Y-56791964D01*
X151418036Y-56880495D01*
X151526464Y-56943095D01*
X151647399Y-56975500D01*
X151647401Y-56975500D01*
X151772599Y-56975500D01*
X151772601Y-56975500D01*
X151893536Y-56943095D01*
X152001964Y-56880495D01*
X152090495Y-56791964D01*
X152153095Y-56683536D01*
X152178855Y-56587399D01*
X155074500Y-56587399D01*
X155074500Y-56712601D01*
X155106905Y-56833536D01*
X155169505Y-56941964D01*
X155258036Y-57030495D01*
X155366464Y-57093095D01*
X155487399Y-57125500D01*
X155487401Y-57125500D01*
X155612599Y-57125500D01*
X155612601Y-57125500D01*
X155733536Y-57093095D01*
X155841964Y-57030495D01*
X155930495Y-56941964D01*
X155993095Y-56833536D01*
X156025500Y-56712601D01*
X156025500Y-56587399D01*
X155993095Y-56466464D01*
X155930495Y-56358036D01*
X155841964Y-56269505D01*
X155733536Y-56206905D01*
X155733537Y-56206905D01*
X155675910Y-56191464D01*
X155612601Y-56174500D01*
X155487399Y-56174500D01*
X155424090Y-56191464D01*
X155366463Y-56206905D01*
X155258037Y-56269504D01*
X155258034Y-56269506D01*
X155169506Y-56358034D01*
X155169504Y-56358037D01*
X155106905Y-56466463D01*
X155106905Y-56466464D01*
X155074500Y-56587399D01*
X152178855Y-56587399D01*
X152185500Y-56562601D01*
X152185500Y-56437399D01*
X152153095Y-56316464D01*
X152090495Y-56208036D01*
X152001964Y-56119505D01*
X151893536Y-56056905D01*
X151893537Y-56056905D01*
X151853224Y-56046103D01*
X151772601Y-56024500D01*
X151647399Y-56024500D01*
X151566775Y-56046103D01*
X151526463Y-56056905D01*
X151418037Y-56119504D01*
X151418034Y-56119506D01*
X151329506Y-56208034D01*
X151329504Y-56208037D01*
X151266905Y-56316463D01*
X151266905Y-56316464D01*
X151234500Y-56437399D01*
X150485500Y-56437399D01*
X150453095Y-56316464D01*
X150390495Y-56208036D01*
X150301964Y-56119505D01*
X150193536Y-56056905D01*
X150193537Y-56056905D01*
X150153224Y-56046103D01*
X150072601Y-56024500D01*
X149947399Y-56024500D01*
X149866775Y-56046103D01*
X149826463Y-56056905D01*
X149718037Y-56119504D01*
X149718034Y-56119506D01*
X149629506Y-56208034D01*
X149629504Y-56208037D01*
X149566905Y-56316463D01*
X149566905Y-56316464D01*
X149534500Y-56437399D01*
X127725500Y-56437399D01*
X127725500Y-56312399D01*
X127693095Y-56191464D01*
X127630495Y-56083036D01*
X127541964Y-55994505D01*
X127433536Y-55931905D01*
X127433537Y-55931905D01*
X127393224Y-55921103D01*
X127312601Y-55899500D01*
X127187399Y-55899500D01*
X127106775Y-55921103D01*
X127066463Y-55931905D01*
X126958037Y-55994504D01*
X126958034Y-55994506D01*
X126869506Y-56083034D01*
X126869504Y-56083037D01*
X126806905Y-56191463D01*
X126802465Y-56208034D01*
X126774500Y-56312399D01*
X113400500Y-56312399D01*
X113400500Y-55337399D01*
X154734500Y-55337399D01*
X154734500Y-55462601D01*
X154766905Y-55583536D01*
X154829505Y-55691964D01*
X154918036Y-55780495D01*
X155026464Y-55843095D01*
X155147399Y-55875500D01*
X155147401Y-55875500D01*
X155272599Y-55875500D01*
X155272601Y-55875500D01*
X155393536Y-55843095D01*
X155501964Y-55780495D01*
X155590495Y-55691964D01*
X155653095Y-55583536D01*
X155685500Y-55462601D01*
X155685500Y-55337399D01*
X155653095Y-55216464D01*
X155590495Y-55108036D01*
X155501964Y-55019505D01*
X155393536Y-54956905D01*
X155393537Y-54956905D01*
X155353224Y-54946103D01*
X155272601Y-54924500D01*
X155147399Y-54924500D01*
X155066775Y-54946103D01*
X155026463Y-54956905D01*
X154918037Y-55019504D01*
X154918034Y-55019506D01*
X154829506Y-55108034D01*
X154829504Y-55108037D01*
X154766905Y-55216463D01*
X154766905Y-55216464D01*
X154734500Y-55337399D01*
X113400500Y-55337399D01*
X113400500Y-50613051D01*
X113400649Y-50606967D01*
X113408778Y-50441491D01*
X114149500Y-50441491D01*
X114149500Y-50778508D01*
X114187231Y-51113381D01*
X114187233Y-51113397D01*
X114262223Y-51441953D01*
X114262227Y-51441965D01*
X114373532Y-51760054D01*
X114519752Y-52063683D01*
X114519754Y-52063686D01*
X114699054Y-52349039D01*
X114909175Y-52612523D01*
X115147477Y-52850825D01*
X115410961Y-53060946D01*
X115696314Y-53240246D01*
X115999949Y-53386469D01*
X116238848Y-53470063D01*
X116318034Y-53497772D01*
X116318046Y-53497776D01*
X116646606Y-53572767D01*
X116981492Y-53610499D01*
X116981493Y-53610500D01*
X116981496Y-53610500D01*
X117318507Y-53610500D01*
X117318507Y-53610499D01*
X117653394Y-53572767D01*
X117981954Y-53497776D01*
X118300051Y-53386469D01*
X118603686Y-53240246D01*
X118889039Y-53060946D01*
X119152523Y-52850825D01*
X119390825Y-52612523D01*
X119600946Y-52349039D01*
X119780246Y-52063686D01*
X119845088Y-51929041D01*
X138165000Y-51929041D01*
X138165000Y-52330000D01*
X138865000Y-52330000D01*
X138865000Y-52830000D01*
X138165000Y-52830000D01*
X138165000Y-53230958D01*
X138204387Y-53428974D01*
X138204390Y-53428983D01*
X138281652Y-53615513D01*
X138281659Y-53615526D01*
X138393829Y-53783399D01*
X138393832Y-53783403D01*
X138536596Y-53926167D01*
X138536600Y-53926170D01*
X138704473Y-54038340D01*
X138704486Y-54038347D01*
X138891016Y-54115609D01*
X138891025Y-54115612D01*
X138940000Y-54125353D01*
X138940000Y-53339618D01*
X138990446Y-53390064D01*
X139064555Y-53432851D01*
X139147213Y-53455000D01*
X139232787Y-53455000D01*
X139315445Y-53432851D01*
X139389554Y-53390064D01*
X139440000Y-53339618D01*
X139440000Y-54125352D01*
X139488974Y-54115612D01*
X139488983Y-54115609D01*
X139675513Y-54038347D01*
X139675526Y-54038340D01*
X139843399Y-53926170D01*
X139843403Y-53926167D01*
X139986167Y-53783403D01*
X139986170Y-53783399D01*
X140098340Y-53615526D01*
X140098347Y-53615513D01*
X140175609Y-53428983D01*
X140175612Y-53428974D01*
X140214999Y-53230958D01*
X140215000Y-53230955D01*
X140215000Y-52830000D01*
X139515000Y-52830000D01*
X139515000Y-52330000D01*
X140146179Y-52330000D01*
X140213218Y-52349685D01*
X140233860Y-52366319D01*
X140239505Y-52371964D01*
X140328036Y-52460495D01*
X140436464Y-52523095D01*
X140557399Y-52555500D01*
X140557401Y-52555500D01*
X140682599Y-52555500D01*
X140682601Y-52555500D01*
X140803536Y-52523095D01*
X140911964Y-52460495D01*
X141000495Y-52371964D01*
X141063095Y-52263536D01*
X141095500Y-52142601D01*
X141095500Y-52017399D01*
X145924500Y-52017399D01*
X145924500Y-52142601D01*
X145956905Y-52263536D01*
X146019505Y-52371964D01*
X146108036Y-52460495D01*
X146216464Y-52523095D01*
X146337399Y-52555500D01*
X146337401Y-52555500D01*
X146462599Y-52555500D01*
X146462601Y-52555500D01*
X146583536Y-52523095D01*
X146691964Y-52460495D01*
X146780495Y-52371964D01*
X146780495Y-52371963D01*
X146786140Y-52366319D01*
X146847463Y-52332834D01*
X146873821Y-52330000D01*
X147505000Y-52330000D01*
X147505000Y-52830000D01*
X146805000Y-52830000D01*
X146805000Y-53230958D01*
X146844387Y-53428974D01*
X146844390Y-53428983D01*
X146921652Y-53615513D01*
X146921659Y-53615526D01*
X147033829Y-53783399D01*
X147033832Y-53783403D01*
X147176596Y-53926167D01*
X147176600Y-53926170D01*
X147344473Y-54038340D01*
X147344486Y-54038347D01*
X147531016Y-54115609D01*
X147531025Y-54115612D01*
X147580000Y-54125353D01*
X147580000Y-53339618D01*
X147630446Y-53390064D01*
X147704555Y-53432851D01*
X147787213Y-53455000D01*
X147872787Y-53455000D01*
X147955445Y-53432851D01*
X148029554Y-53390064D01*
X148080000Y-53339618D01*
X148080000Y-54125352D01*
X148128974Y-54115612D01*
X148128983Y-54115609D01*
X148197089Y-54087399D01*
X181874500Y-54087399D01*
X181874500Y-54212601D01*
X181906905Y-54333536D01*
X181969505Y-54441964D01*
X182058036Y-54530495D01*
X182166464Y-54593095D01*
X182287399Y-54625500D01*
X182287401Y-54625500D01*
X182412599Y-54625500D01*
X182412601Y-54625500D01*
X182533536Y-54593095D01*
X182641964Y-54530495D01*
X182730495Y-54441964D01*
X182793095Y-54333536D01*
X182825500Y-54212601D01*
X182825500Y-54087399D01*
X182793095Y-53966464D01*
X182730495Y-53858036D01*
X182641964Y-53769505D01*
X182533536Y-53706905D01*
X182533537Y-53706905D01*
X182493224Y-53696103D01*
X182412601Y-53674500D01*
X182287399Y-53674500D01*
X182206775Y-53696103D01*
X182166463Y-53706905D01*
X182058037Y-53769504D01*
X182058034Y-53769506D01*
X181969506Y-53858034D01*
X181969504Y-53858037D01*
X181906905Y-53966463D01*
X181890702Y-54026931D01*
X181874500Y-54087399D01*
X148197089Y-54087399D01*
X148315513Y-54038347D01*
X148315526Y-54038340D01*
X148408572Y-53976169D01*
X148483399Y-53926170D01*
X148483403Y-53926167D01*
X148626167Y-53783403D01*
X148626170Y-53783399D01*
X148738340Y-53615526D01*
X148738347Y-53615513D01*
X148815609Y-53428983D01*
X148815612Y-53428974D01*
X148854999Y-53230958D01*
X148855000Y-53230955D01*
X148855000Y-52830000D01*
X148155000Y-52830000D01*
X148155000Y-52330000D01*
X148855000Y-52330000D01*
X148855000Y-51929045D01*
X148854999Y-51929041D01*
X148815612Y-51731025D01*
X148815609Y-51731016D01*
X148738347Y-51544486D01*
X148738340Y-51544473D01*
X148626170Y-51376600D01*
X148626167Y-51376596D01*
X148483403Y-51233832D01*
X148483399Y-51233829D01*
X148315526Y-51121659D01*
X148315513Y-51121652D01*
X148128984Y-51044390D01*
X148128977Y-51044388D01*
X148080000Y-51034645D01*
X148080000Y-51820382D01*
X148029554Y-51769936D01*
X147955445Y-51727149D01*
X147872787Y-51705000D01*
X147787213Y-51705000D01*
X147704555Y-51727149D01*
X147630446Y-51769936D01*
X147580000Y-51820382D01*
X147580000Y-51034646D01*
X147579999Y-51034645D01*
X147531022Y-51044388D01*
X147531015Y-51044390D01*
X147344486Y-51121652D01*
X147344473Y-51121659D01*
X147176600Y-51233829D01*
X147176596Y-51233832D01*
X147033832Y-51376596D01*
X147033829Y-51376600D01*
X146921659Y-51544473D01*
X146921652Y-51544486D01*
X146879374Y-51646557D01*
X146835533Y-51700961D01*
X146769239Y-51723026D01*
X146701540Y-51705747D01*
X146694368Y-51700893D01*
X146583536Y-51636905D01*
X146583537Y-51636905D01*
X146543224Y-51626103D01*
X146462601Y-51604500D01*
X146337399Y-51604500D01*
X146256775Y-51626103D01*
X146216463Y-51636905D01*
X146108037Y-51699504D01*
X146108034Y-51699506D01*
X146019506Y-51788034D01*
X146019504Y-51788037D01*
X145956905Y-51896463D01*
X145956905Y-51896464D01*
X145924500Y-52017399D01*
X141095500Y-52017399D01*
X141063095Y-51896464D01*
X141000495Y-51788036D01*
X140911964Y-51699505D01*
X140803536Y-51636905D01*
X140803537Y-51636905D01*
X140763224Y-51626103D01*
X140682601Y-51604500D01*
X140557399Y-51604500D01*
X140476775Y-51626103D01*
X140436463Y-51636905D01*
X140320997Y-51703569D01*
X140319890Y-51701653D01*
X140265482Y-51722677D01*
X140197039Y-51708627D01*
X140147058Y-51659804D01*
X140140624Y-51646557D01*
X140098342Y-51544477D01*
X140098340Y-51544473D01*
X139986170Y-51376600D01*
X139986167Y-51376596D01*
X139843403Y-51233832D01*
X139843399Y-51233829D01*
X139675526Y-51121659D01*
X139675513Y-51121652D01*
X139488984Y-51044390D01*
X139488977Y-51044388D01*
X139440000Y-51034645D01*
X139440000Y-51820382D01*
X139389554Y-51769936D01*
X139315445Y-51727149D01*
X139232787Y-51705000D01*
X139147213Y-51705000D01*
X139064555Y-51727149D01*
X138990446Y-51769936D01*
X138940000Y-51820382D01*
X138940000Y-51034646D01*
X138939999Y-51034645D01*
X138891022Y-51044388D01*
X138891015Y-51044390D01*
X138704486Y-51121652D01*
X138704473Y-51121659D01*
X138536600Y-51233829D01*
X138536596Y-51233832D01*
X138393832Y-51376596D01*
X138393829Y-51376600D01*
X138281659Y-51544473D01*
X138281652Y-51544486D01*
X138204390Y-51731016D01*
X138204387Y-51731025D01*
X138165000Y-51929041D01*
X119845088Y-51929041D01*
X119873929Y-51869152D01*
X119892569Y-51830446D01*
X119926469Y-51760051D01*
X120037776Y-51441954D01*
X120112767Y-51113394D01*
X120150500Y-50778504D01*
X120150500Y-50441496D01*
X120112767Y-50106606D01*
X120037776Y-49778046D01*
X119926469Y-49459949D01*
X119780246Y-49156314D01*
X119600946Y-48870961D01*
X119445430Y-48675950D01*
X119445430Y-48675948D01*
X119390831Y-48607483D01*
X119152522Y-48369174D01*
X119085606Y-48315811D01*
X118889039Y-48159054D01*
X118603686Y-47979754D01*
X118603683Y-47979752D01*
X118300054Y-47833532D01*
X117981965Y-47722227D01*
X117981953Y-47722223D01*
X117653397Y-47647233D01*
X117653381Y-47647231D01*
X117318508Y-47609500D01*
X117318504Y-47609500D01*
X116981496Y-47609500D01*
X116981491Y-47609500D01*
X116646618Y-47647231D01*
X116646602Y-47647233D01*
X116318046Y-47722223D01*
X116318034Y-47722227D01*
X115999945Y-47833532D01*
X115696316Y-47979752D01*
X115410962Y-48159053D01*
X115147477Y-48369174D01*
X114909174Y-48607477D01*
X114699053Y-48870962D01*
X114519752Y-49156316D01*
X114373532Y-49459945D01*
X114262227Y-49778034D01*
X114262223Y-49778046D01*
X114187233Y-50106602D01*
X114187231Y-50106618D01*
X114149500Y-50441491D01*
X113408778Y-50441491D01*
X113409248Y-50431933D01*
X113418256Y-50248568D01*
X113419449Y-50236457D01*
X113451240Y-50022139D01*
X113471654Y-49884520D01*
X113474022Y-49872613D01*
X113560475Y-49527473D01*
X113563998Y-49515858D01*
X113683869Y-49180840D01*
X113688508Y-49169643D01*
X113840643Y-48847979D01*
X113846358Y-48837287D01*
X114029278Y-48532105D01*
X114036021Y-48522012D01*
X114247979Y-48236219D01*
X114255682Y-48226834D01*
X114494628Y-47963198D01*
X114503198Y-47954628D01*
X114766834Y-47715682D01*
X114776219Y-47707979D01*
X115062012Y-47496021D01*
X115072105Y-47489278D01*
X115377287Y-47306358D01*
X115387979Y-47300643D01*
X115709643Y-47148508D01*
X115720840Y-47143869D01*
X116055858Y-47023998D01*
X116067473Y-47020475D01*
X116412613Y-46934022D01*
X116424520Y-46931654D01*
X116776460Y-46879448D01*
X116788564Y-46878256D01*
X117146967Y-46860648D01*
X117153051Y-46860500D01*
X117194170Y-46860500D01*
X138641906Y-46860500D01*
X138708945Y-46880185D01*
G37*
%TD.AperFunction*%
%TD*%
M02*
