%TF.GenerationSoftware,KiCad,Pcbnew,9.0.7+1*%
%TF.CreationDate,Date%
%TF.ProjectId,LE_BMS_A_V2,4c455f42-4d53-45f4-915f-56322e6b6963,+ (Unreleased)*%
%TF.SameCoordinates,Original*%
%TF.FileFunction,Copper,L1,Top*%
%TF.FilePolarity,Positive*%
%FSLAX46Y46*%
G04 Gerber Fmt 4.6, Leading zero omitted, Abs format (unit mm)*
G04 Created by KiCad*
%MOMM*%
%LPD*%
G01*
G04 APERTURE LIST*
G04 Aperture macros list*
%AMRoundRect*
0 Rectangle with rounded corners*
0 $1 Rounding radius*
0 $2 $3 $4 $5 $6 $7 $8 $9 X,Y pos of 4 corners*
0 Add a 4 corners polygon primitive as box body*
4,1,4,$2,$3,$4,$5,$6,$7,$8,$9,$2,$3,0*
0 Add four circle primitives for the rounded corners*
1,1,$1+$1,$2,$3*
1,1,$1+$1,$4,$5*
1,1,$1+$1,$6,$7*
1,1,$1+$1,$8,$9*
0 Add four rect primitives between the rounded corners*
20,1,$1+$1,$2,$3,$4,$5,0*
20,1,$1+$1,$4,$5,$6,$7,0*
20,1,$1+$1,$6,$7,$8,$9,0*
20,1,$1+$1,$8,$9,$2,$3,0*%
G04 Aperture macros list end*
%TA.AperFunction,SMDPad,CuDef*%
%ADD10R,2.150000X0.950000*%
%TD*%
%TA.AperFunction,SMDPad,CuDef*%
%ADD11R,2.150000X3.250000*%
%TD*%
%TA.AperFunction,SMDPad,CuDef*%
%ADD12RoundRect,0.237500X0.237500X-0.300000X0.237500X0.300000X-0.237500X0.300000X-0.237500X-0.300000X0*%
%TD*%
%TA.AperFunction,SMDPad,CuDef*%
%ADD13RoundRect,0.162500X-0.162500X1.012500X-0.162500X-1.012500X0.162500X-1.012500X0.162500X1.012500X0*%
%TD*%
%TA.AperFunction,SMDPad,CuDef*%
%ADD14RoundRect,0.237500X-0.300000X-0.237500X0.300000X-0.237500X0.300000X0.237500X-0.300000X0.237500X0*%
%TD*%
%TA.AperFunction,SMDPad,CuDef*%
%ADD15RoundRect,0.237500X-0.237500X0.250000X-0.237500X-0.250000X0.237500X-0.250000X0.237500X0.250000X0*%
%TD*%
%TA.AperFunction,SMDPad,CuDef*%
%ADD16RoundRect,0.237500X-0.237500X0.300000X-0.237500X-0.300000X0.237500X-0.300000X0.237500X0.300000X0*%
%TD*%
%TA.AperFunction,SMDPad,CuDef*%
%ADD17RoundRect,0.237500X0.300000X0.237500X-0.300000X0.237500X-0.300000X-0.237500X0.300000X-0.237500X0*%
%TD*%
%TA.AperFunction,ComponentPad*%
%ADD18C,5.600000*%
%TD*%
%TA.AperFunction,SMDPad,CuDef*%
%ADD19RoundRect,0.150000X-0.825000X-0.150000X0.825000X-0.150000X0.825000X0.150000X-0.825000X0.150000X0*%
%TD*%
%TA.AperFunction,ComponentPad*%
%ADD20C,2.400000*%
%TD*%
%TA.AperFunction,SMDPad,CuDef*%
%ADD21RoundRect,0.237500X0.250000X0.237500X-0.250000X0.237500X-0.250000X-0.237500X0.250000X-0.237500X0*%
%TD*%
%TA.AperFunction,SMDPad,CuDef*%
%ADD22RoundRect,0.237500X-0.250000X-0.237500X0.250000X-0.237500X0.250000X0.237500X-0.250000X0.237500X0*%
%TD*%
%TA.AperFunction,ComponentPad*%
%ADD23RoundRect,0.250000X-0.600000X-0.725000X0.600000X-0.725000X0.600000X0.725000X-0.600000X0.725000X0*%
%TD*%
%TA.AperFunction,ComponentPad*%
%ADD24O,1.700000X1.950000*%
%TD*%
%TA.AperFunction,SMDPad,CuDef*%
%ADD25R,1.200000X1.800000*%
%TD*%
%TA.AperFunction,SMDPad,CuDef*%
%ADD26R,1.500000X0.900000*%
%TD*%
%TA.AperFunction,SMDPad,CuDef*%
%ADD27R,0.900000X1.500000*%
%TD*%
%TA.AperFunction,HeatsinkPad*%
%ADD28R,1.000000X1.000000*%
%TD*%
%TA.AperFunction,HeatsinkPad*%
%ADD29C,0.600000*%
%TD*%
%TA.AperFunction,SMDPad,CuDef*%
%ADD30R,1.000000X1.450000*%
%TD*%
%TA.AperFunction,SMDPad,CuDef*%
%ADD31R,0.650000X1.400000*%
%TD*%
%TA.AperFunction,ComponentPad*%
%ADD32R,1.508000X1.508000*%
%TD*%
%TA.AperFunction,ComponentPad*%
%ADD33C,1.508000*%
%TD*%
%TA.AperFunction,SMDPad,CuDef*%
%ADD34R,1.150000X0.600000*%
%TD*%
%TA.AperFunction,SMDPad,CuDef*%
%ADD35R,1.150000X0.300000*%
%TD*%
%TA.AperFunction,ComponentPad*%
%ADD36O,2.150000X1.050000*%
%TD*%
%TA.AperFunction,ComponentPad*%
%ADD37O,1.850000X1.050000*%
%TD*%
%TA.AperFunction,SMDPad,CuDef*%
%ADD38RoundRect,0.237500X0.237500X-0.250000X0.237500X0.250000X-0.237500X0.250000X-0.237500X-0.250000X0*%
%TD*%
%TA.AperFunction,ComponentPad*%
%ADD39R,1.448000X1.448000*%
%TD*%
%TA.AperFunction,ComponentPad*%
%ADD40C,1.448000*%
%TD*%
%TA.AperFunction,ComponentPad*%
%ADD41C,2.430000*%
%TD*%
%TA.AperFunction,SMDPad,CuDef*%
%ADD42R,0.700000X0.700000*%
%TD*%
%TA.AperFunction,SMDPad,CuDef*%
%ADD43RoundRect,0.100000X0.100000X-0.637500X0.100000X0.637500X-0.100000X0.637500X-0.100000X-0.637500X0*%
%TD*%
%TA.AperFunction,ComponentPad*%
%ADD44C,2.100000*%
%TD*%
%TA.AperFunction,ViaPad*%
%ADD45C,0.550000*%
%TD*%
%TA.AperFunction,Conductor*%
%ADD46C,0.500000*%
%TD*%
%TA.AperFunction,Conductor*%
%ADD47C,0.300000*%
%TD*%
%TA.AperFunction,Conductor*%
%ADD48C,0.250000*%
%TD*%
%TA.AperFunction,Conductor*%
%ADD49C,0.200000*%
%TD*%
G04 APERTURE END LIST*
D10*
%TO.P,U5,1,GND*%
%TO.N,GND*%
X99975000Y-88800000D03*
%TO.P,U5,2,OUT*%
%TO.N,+3V3*%
X99975000Y-91100000D03*
%TO.P,U5,3,IN*%
%TO.N,+5V*%
X99975000Y-93400000D03*
D11*
%TO.P,U5,4,OUT-1*%
%TO.N,+3V3*%
X105775000Y-91100000D03*
%TD*%
D12*
%TO.P,C4,1*%
%TO.N,/Project Architecture/Section A - Title A/ESP32_BOOT*%
X51400000Y-72762500D03*
%TO.P,C4,2*%
%TO.N,GND*%
X51400000Y-71037500D03*
%TD*%
D13*
%TO.P,U3,1,VCC1*%
%TO.N,+3V3*%
X93127500Y-101650000D03*
%TO.P,U3,2,RXD*%
%TO.N,/Project Architecture/Section A - Title A/CAN1_RX*%
X90587500Y-101650000D03*
%TO.P,U3,3,TXD*%
%TO.N,/Project Architecture/Section A - Title A/CAN1_TX*%
X88047500Y-101650000D03*
%TO.P,U3,4,GND1*%
%TO.N,GND*%
X85507500Y-101650000D03*
%TO.P,U3,5,GND2*%
%TO.N,GND_CAN1*%
X85507500Y-110700000D03*
%TO.P,U3,6,CANL*%
%TO.N,/Project Architecture/Section B - Title B/CAN1_L*%
X88047500Y-110700000D03*
%TO.P,U3,7,CANH*%
%TO.N,/Project Architecture/Section B - Title B/CAN1_H*%
X90587500Y-110700000D03*
%TO.P,U3,8,VCC2*%
%TO.N,+5V_CAN1*%
X93127500Y-110700000D03*
%TD*%
D12*
%TO.P,C3,1*%
%TO.N,+3V3*%
X79326802Y-58212500D03*
%TO.P,C3,2*%
%TO.N,GND*%
X79326802Y-56487500D03*
%TD*%
%TO.P,C18,1*%
%TO.N,+5V*%
X68000000Y-103962500D03*
%TO.P,C18,2*%
%TO.N,GND*%
X68000000Y-102237500D03*
%TD*%
D14*
%TO.P,C23,1*%
%TO.N,+3V3*%
X89150000Y-89795000D03*
%TO.P,C23,2*%
%TO.N,GND*%
X90875000Y-89795000D03*
%TD*%
D15*
%TO.P,R1,1*%
%TO.N,+3V3*%
X51350000Y-60812500D03*
%TO.P,R1,2*%
%TO.N,/Project Architecture/Section A - Title A/ESP32_EN*%
X51350000Y-62637500D03*
%TD*%
D16*
%TO.P,C8,1*%
%TO.N,+3V3*%
X57775000Y-86125000D03*
%TO.P,C8,2*%
%TO.N,GND*%
X57775000Y-87850000D03*
%TD*%
D17*
%TO.P,C12,1*%
%TO.N,+5V_CAN2*%
X63362500Y-113000000D03*
%TO.P,C12,2*%
%TO.N,GND_CAN2*%
X61637500Y-113000000D03*
%TD*%
D18*
%TO.P,H3,1,1*%
%TO.N,unconnected-(H3-Pad1)*%
X46400000Y-126200000D03*
%TD*%
D19*
%TO.P,U6,1,32KHZ*%
%TO.N,unconnected-(U6-32KHZ-Pad1)*%
X80200000Y-86090000D03*
%TO.P,U6,2,VCC*%
%TO.N,+3V3*%
X80200000Y-87360000D03*
%TO.P,U6,3,~{INT}/SQW*%
%TO.N,/Project Architecture/Section A - Title A/RTC_INT*%
X80200000Y-88630000D03*
%TO.P,U6,4,~{RST}*%
%TO.N,/Project Architecture/Section A - Title A/RTC_RST*%
X80200000Y-89900000D03*
%TO.P,U6,5,GND*%
%TO.N,GND*%
X85150000Y-89900000D03*
%TO.P,U6,6,VBAT*%
%TO.N,+3V0*%
X85150000Y-88630000D03*
%TO.P,U6,7,SDA*%
%TO.N,/Project Architecture/Section A - Title A/SDA*%
X85150000Y-87360000D03*
%TO.P,U6,8,SCL*%
%TO.N,/Project Architecture/Section A - Title A/SCL*%
X85150000Y-86090000D03*
%TD*%
D14*
%TO.P,C14,1*%
%TO.N,/Project Architecture/Section B - Title B/CAN_OSC2*%
X67412500Y-85250000D03*
%TO.P,C14,2*%
%TO.N,GND*%
X69137500Y-85250000D03*
%TD*%
D12*
%TO.P,C6,1*%
%TO.N,+3V3*%
X95300000Y-101662500D03*
%TO.P,C6,2*%
%TO.N,GND*%
X95300000Y-99937500D03*
%TD*%
D20*
%TO.P,J4,1*%
%TO.N,+5V_CAN1*%
X112200000Y-108640000D03*
%TO.P,J4,2*%
%TO.N,GND_CAN1*%
X112200000Y-103560000D03*
%TD*%
D15*
%TO.P,R4,1*%
%TO.N,/Project Architecture/Section A - Title A/USB_CC2*%
X52123198Y-86462500D03*
%TO.P,R4,2*%
%TO.N,GND*%
X52123198Y-88287500D03*
%TD*%
D21*
%TO.P,R8,1*%
%TO.N,Net-(C10-Pad1)*%
X75812500Y-118600000D03*
%TO.P,R8,2*%
%TO.N,/Project Architecture/Section B - Title B/CAN2_L*%
X73987500Y-118600000D03*
%TD*%
D16*
%TO.P,C5,1*%
%TO.N,+5V*%
X109360000Y-52287500D03*
%TO.P,C5,2*%
%TO.N,GND*%
X109360000Y-54012500D03*
%TD*%
D15*
%TO.P,R3,1*%
%TO.N,GND*%
X52123198Y-81662500D03*
%TO.P,R3,2*%
%TO.N,/Project Architecture/Section A - Title A/USB_CC1*%
X52123198Y-83487500D03*
%TD*%
D22*
%TO.P,R5,1*%
%TO.N,/Project Architecture/Section B - Title B/CAN1_H*%
X114587500Y-118800000D03*
%TO.P,R5,2*%
%TO.N,Net-(C9-Pad1)*%
X116412500Y-118800000D03*
%TD*%
D23*
%TO.P,J6,1,Pin_1*%
%TO.N,/Project Architecture/Section B - Title B/CAN1_H*%
X100550000Y-120850000D03*
D24*
%TO.P,J6,2,Pin_2*%
%TO.N,/Project Architecture/Section B - Title B/CAN1_L*%
X103050000Y-120850000D03*
%TO.P,J6,3,Pin_3*%
%TO.N,GND_CAN1*%
X105550000Y-120850000D03*
%TO.P,J6,4,Pin_4*%
%TO.N,+5V_CAN1*%
X108050000Y-120850000D03*
%TD*%
D22*
%TO.P,R11,1*%
%TO.N,+3V3*%
X75362500Y-90915000D03*
%TO.P,R11,2*%
%TO.N,/Project Architecture/Section A - Title A/RTC_INT*%
X77187500Y-90915000D03*
%TD*%
D17*
%TO.P,C13,1*%
%TO.N,/Project Architecture/Section B - Title B/CAN_OSC1*%
X69137500Y-93450000D03*
%TO.P,C13,2*%
%TO.N,GND*%
X67412500Y-93450000D03*
%TD*%
D12*
%TO.P,C19,1*%
%TO.N,+3V3*%
X97275000Y-91062500D03*
%TO.P,C19,2*%
%TO.N,GND*%
X97275000Y-89337500D03*
%TD*%
D25*
%TO.P,Y1,1,XTAL_1*%
%TO.N,/Project Architecture/Section B - Title B/CAN_OSC1*%
X69528985Y-91350000D03*
%TO.P,Y1,2,GND_1*%
%TO.N,GND*%
X69528985Y-87350000D03*
%TO.P,Y1,3,XTAL_2*%
%TO.N,/Project Architecture/Section B - Title B/CAN_OSC2*%
X67128985Y-87350000D03*
%TO.P,Y1,4,GND_2*%
%TO.N,GND*%
X67128985Y-91350000D03*
%TD*%
D16*
%TO.P,C15,1*%
%TO.N,+5V_CAN1*%
X104287500Y-108037500D03*
%TO.P,C15,2*%
%TO.N,GND_CAN1*%
X104287500Y-109762500D03*
%TD*%
D26*
%TO.P,U1,1,GND*%
%TO.N,GND*%
X83260000Y-56650000D03*
%TO.P,U1,2,3V3*%
%TO.N,+3V3*%
X83260000Y-57920000D03*
%TO.P,U1,3,EN*%
%TO.N,/Project Architecture/Section A - Title A/ESP32_EN*%
X83260000Y-59190000D03*
%TO.P,U1,4,IO4*%
%TO.N,unconnected-(U1-IO4-Pad4)*%
X83260000Y-60460000D03*
%TO.P,U1,5,IO5*%
%TO.N,unconnected-(U1-IO5-Pad5)*%
X83260000Y-61730000D03*
%TO.P,U1,6,IO6*%
%TO.N,unconnected-(U1-IO6-Pad6)*%
X83260000Y-63000000D03*
%TO.P,U1,7,IO7*%
%TO.N,unconnected-(U1-IO7-Pad7)*%
X83260000Y-64270000D03*
%TO.P,U1,8,IO15*%
%TO.N,unconnected-(U1-IO15-Pad8)*%
X83260000Y-65540000D03*
%TO.P,U1,9,IO16*%
%TO.N,unconnected-(U1-IO16-Pad9)*%
X83260000Y-66810000D03*
%TO.P,U1,10,IO17*%
%TO.N,unconnected-(U1-IO17-Pad10)*%
X83260000Y-68080000D03*
%TO.P,U1,11,IO18*%
%TO.N,unconnected-(U1-IO18-Pad11)*%
X83260000Y-69350000D03*
%TO.P,U1,12,IO8*%
%TO.N,unconnected-(U1-IO8-Pad12)*%
X83260000Y-70620000D03*
%TO.P,U1,13,USB_D-/IO19*%
%TO.N,/Project Architecture/Section A - Title A/ESP32_USB_D-*%
X83260000Y-71890000D03*
%TO.P,U1,14,USB_D+/IO20*%
%TO.N,/Project Architecture/Section A - Title A/ESP32_USB_D+*%
X83260000Y-73160000D03*
D27*
%TO.P,U1,15,IO3*%
%TO.N,unconnected-(U1-IO3-Pad15)*%
X85025000Y-74410000D03*
%TO.P,U1,16,IO46*%
%TO.N,unconnected-(U1-IO46-Pad16)*%
X86295000Y-74410000D03*
%TO.P,U1,17,IO9*%
%TO.N,/Project Architecture/Section A - Title A/CAN2_INT*%
X87565000Y-74410000D03*
%TO.P,U1,18,IO10*%
%TO.N,/Project Architecture/Section A - Title A/CAN2_CS*%
X88835000Y-74410000D03*
%TO.P,U1,19,IO11*%
%TO.N,/Project Architecture/Section A - Title A/CAN2_MOSI*%
X90105000Y-74410000D03*
%TO.P,U1,20,IO12*%
%TO.N,/Project Architecture/Section A - Title A/CAN2_SCK*%
X91375000Y-74410000D03*
%TO.P,U1,21,IO13*%
%TO.N,/Project Architecture/Section A - Title A/CAN2_MISO*%
X92645000Y-74410000D03*
%TO.P,U1,22,IO14*%
%TO.N,/Project Architecture/Section A - Title A/CAN2_RST*%
X93915000Y-74410000D03*
%TO.P,U1,23,IO21*%
%TO.N,/Project Architecture/Section A - Title A/CAN1_RX*%
X95185000Y-74410000D03*
%TO.P,U1,24,IO47*%
%TO.N,/Project Architecture/Section A - Title A/CAN1_TX*%
X96455000Y-74410000D03*
%TO.P,U1,25,IO48*%
%TO.N,unconnected-(U1-IO48-Pad25)*%
X97725000Y-74410000D03*
%TO.P,U1,26,IO45*%
%TO.N,unconnected-(U1-IO45-Pad26)*%
X98995000Y-74410000D03*
D26*
%TO.P,U1,27,IO0*%
%TO.N,/Project Architecture/Section A - Title A/ESP32_BOOT*%
X100760000Y-73160000D03*
%TO.P,U1,28,NC*%
%TO.N,unconnected-(U1-NC-Pad28)*%
X100760000Y-71890000D03*
%TO.P,U1,29,NC*%
%TO.N,unconnected-(U1-NC-Pad29)*%
X100760000Y-70620000D03*
%TO.P,U1,30,NC*%
%TO.N,unconnected-(U1-NC-Pad30)*%
X100760000Y-69350000D03*
%TO.P,U1,31,IO38*%
%TO.N,unconnected-(U1-IO38-Pad31)*%
X100760000Y-68080000D03*
%TO.P,U1,32,MTCK/IO39*%
%TO.N,unconnected-(U1-MTCK{slash}IO39-Pad32)*%
X100760000Y-66810000D03*
%TO.P,U1,33,MTDO/IO40*%
%TO.N,unconnected-(U1-MTDO{slash}IO40-Pad33)*%
X100760000Y-65540000D03*
%TO.P,U1,34,MTDI/IO41*%
%TO.N,unconnected-(U1-MTDI{slash}IO41-Pad34)*%
X100760000Y-64270000D03*
%TO.P,U1,35,MTMS/IO42*%
%TO.N,unconnected-(U1-MTMS{slash}IO42-Pad35)*%
X100760000Y-63000000D03*
%TO.P,U1,36,RXD0/IO44*%
%TO.N,unconnected-(U1-RXD0{slash}IO44-Pad36)*%
X100760000Y-61730000D03*
%TO.P,U1,37,TXD0/IO43*%
%TO.N,unconnected-(U1-TXD0{slash}IO43-Pad37)*%
X100760000Y-60460000D03*
%TO.P,U1,38,IO2*%
%TO.N,unconnected-(U1-IO2-Pad38)*%
X100760000Y-59190000D03*
%TO.P,U1,39,IO1*%
%TO.N,/Project Architecture/Section A - Title A/LED_DOUT*%
X100760000Y-57920000D03*
%TO.P,U1,40,GND*%
%TO.N,GND*%
X100760000Y-56650000D03*
D28*
%TO.P,U1,41,GND*%
X89150000Y-60500000D03*
D29*
X89150000Y-61250000D03*
D28*
X89150000Y-62000000D03*
D29*
X89150000Y-62750000D03*
D28*
X89150000Y-63500000D03*
D29*
X89900000Y-60500000D03*
X89900000Y-62000000D03*
X89900000Y-63500000D03*
D28*
X90650000Y-60500000D03*
D29*
X90650000Y-61250000D03*
D28*
X90650000Y-62000000D03*
D29*
X90650000Y-62750000D03*
D28*
X90650000Y-63500000D03*
D29*
X91400000Y-60500000D03*
X91400000Y-62000000D03*
X91400000Y-63500000D03*
D28*
X92150000Y-60500000D03*
D29*
X92150000Y-61250000D03*
D28*
X92150000Y-62000000D03*
D29*
X92150000Y-62750000D03*
D28*
X92150000Y-63500000D03*
%TD*%
D22*
%TO.P,R7,1*%
%TO.N,/Project Architecture/Section B - Title B/CAN2_H*%
X73987500Y-117000000D03*
%TO.P,R7,2*%
%TO.N,Net-(C10-Pad1)*%
X75812500Y-117000000D03*
%TD*%
D13*
%TO.P,U4,1,VCC1*%
%TO.N,+3V3*%
X63360000Y-101575000D03*
%TO.P,U4,2,RXD*%
%TO.N,/Project Architecture/Section B - Title B/CAN2_RX*%
X60820000Y-101575000D03*
%TO.P,U4,3,TXD*%
%TO.N,/Project Architecture/Section B - Title B/CAN2_TX*%
X58280000Y-101575000D03*
%TO.P,U4,4,GND1*%
%TO.N,GND*%
X55740000Y-101575000D03*
%TO.P,U4,5,GND2*%
%TO.N,GND_CAN2*%
X55740000Y-110625000D03*
%TO.P,U4,6,CANL*%
%TO.N,/Project Architecture/Section B - Title B/CAN2_L*%
X58280000Y-110625000D03*
%TO.P,U4,7,CANH*%
%TO.N,/Project Architecture/Section B - Title B/CAN2_H*%
X60820000Y-110625000D03*
%TO.P,U4,8,VCC2*%
%TO.N,+5V_CAN2*%
X63360000Y-110625000D03*
%TD*%
D18*
%TO.P,H1,1,1*%
%TO.N,unconnected-(H1-Pad1)*%
X46400000Y-54200000D03*
%TD*%
D30*
%TO.P,S1,1,NO_1*%
%TO.N,/Project Architecture/Section A - Title A/ESP32_BOOT*%
X46750000Y-70425000D03*
%TO.P,S1,2,COM_1*%
%TO.N,GND*%
X48450000Y-70425000D03*
%TO.P,S1,3,NO_2*%
%TO.N,/Project Architecture/Section A - Title A/ESP32_BOOT*%
X46750000Y-75575000D03*
%TO.P,S1,4,COM_2*%
%TO.N,GND*%
X48450000Y-75575000D03*
D31*
%TO.P,S1,G1,GND*%
X45575000Y-73000000D03*
%TD*%
D22*
%TO.P,R10,1*%
%TO.N,+3V3*%
X75362500Y-88405000D03*
%TO.P,R10,2*%
%TO.N,/Project Architecture/Section A - Title A/SDA*%
X77187500Y-88405000D03*
%TD*%
D21*
%TO.P,R6,1*%
%TO.N,Net-(C9-Pad1)*%
X116412500Y-117200000D03*
%TO.P,R6,2*%
%TO.N,/Project Architecture/Section B - Title B/CAN1_L*%
X114587500Y-117200000D03*
%TD*%
D30*
%TO.P,S2,1,NO_1*%
%TO.N,/Project Architecture/Section A - Title A/ESP32_EN*%
X46700000Y-61550000D03*
%TO.P,S2,2,COM_1*%
%TO.N,GND*%
X48400000Y-61550000D03*
%TO.P,S2,3,NO_2*%
%TO.N,/Project Architecture/Section A - Title A/ESP32_EN*%
X46700000Y-66700000D03*
%TO.P,S2,4,COM_2*%
%TO.N,GND*%
X48400000Y-66700000D03*
D31*
%TO.P,S2,G1,GND*%
X45525000Y-64125000D03*
%TD*%
D32*
%TO.P,PS1,1,-VIN*%
%TO.N,GND_CAN1*%
X101837500Y-110007500D03*
D33*
%TO.P,PS1,2,+VIN*%
%TO.N,+5V_CAN1*%
X101837500Y-107467500D03*
%TO.P,PS1,3,-VOUT*%
%TO.N,GND*%
X101837500Y-104927500D03*
%TO.P,PS1,4,+VOUT*%
%TO.N,+5V*%
X101837500Y-102387500D03*
%TD*%
D34*
%TO.P,J1,A1_B12,GND*%
%TO.N,GND*%
X49885000Y-81500000D03*
%TO.P,J1,A4_B9,VBUS*%
%TO.N,VBUS*%
X49885000Y-82300000D03*
D35*
%TO.P,J1,A5,CC1*%
%TO.N,/Project Architecture/Section A - Title A/USB_CC1*%
X49885000Y-83450000D03*
%TO.P,J1,A6,DP1*%
%TO.N,/Project Architecture/Section A - Title A/ESP32_USB_D+*%
X49885000Y-84450000D03*
%TO.P,J1,A7,DN1*%
%TO.N,/Project Architecture/Section A - Title A/ESP32_USB_D-*%
X49885000Y-84950000D03*
%TO.P,J1,A8,SBU1*%
%TO.N,unconnected-(J1-SBU1-PadA8)*%
X49885000Y-85950000D03*
D34*
%TO.P,J1,B1_A12,GND*%
%TO.N,GND*%
X49885000Y-87900000D03*
%TO.P,J1,B4_A9,VBUS*%
%TO.N,VBUS*%
X49885000Y-87100000D03*
D35*
%TO.P,J1,B5,CC2*%
%TO.N,/Project Architecture/Section A - Title A/USB_CC2*%
X49885000Y-86450000D03*
%TO.P,J1,B6,DP2*%
%TO.N,/Project Architecture/Section A - Title A/ESP32_USB_D+*%
X49885000Y-85450000D03*
%TO.P,J1,B7,DN2*%
%TO.N,/Project Architecture/Section A - Title A/ESP32_USB_D-*%
X49885000Y-83950000D03*
%TO.P,J1,B8,SBU2*%
%TO.N,unconnected-(J1-SBU2-PadB8)*%
X49885000Y-82950000D03*
D36*
%TO.P,J1,SH1,SHIELD*%
%TO.N,GND*%
X49320000Y-80380000D03*
%TO.P,J1,SH2,SHIELD*%
X49320000Y-89020000D03*
D37*
%TO.P,J1,SH3,SHIELD*%
X45140000Y-80380000D03*
%TO.P,J1,SH4,SHIELD*%
X45140000Y-89020000D03*
%TD*%
D38*
%TO.P,R2,1*%
%TO.N,+3V3*%
X51400000Y-76412500D03*
%TO.P,R2,2*%
%TO.N,/Project Architecture/Section A - Title A/ESP32_BOOT*%
X51400000Y-74587500D03*
%TD*%
D17*
%TO.P,C11,1*%
%TO.N,+5V_CAN1*%
X93062500Y-113200000D03*
%TO.P,C11,2*%
%TO.N,GND_CAN1*%
X91337500Y-113200000D03*
%TD*%
D39*
%TO.P,J5,1,1*%
%TO.N,unconnected-(J5-Pad1)*%
X66256000Y-121960000D03*
D40*
%TO.P,J5,2,2*%
%TO.N,unconnected-(J5-Pad2)*%
X65240000Y-120180000D03*
%TO.P,J5,3,3*%
%TO.N,GND_CAN2*%
X64224000Y-121960000D03*
%TO.P,J5,4,4*%
%TO.N,unconnected-(J5-Pad4)*%
X63208000Y-120180000D03*
%TO.P,J5,5,5*%
%TO.N,unconnected-(J5-Pad5)*%
X62192000Y-121960000D03*
%TO.P,J5,6,6*%
%TO.N,unconnected-(J5-Pad6)*%
X61176000Y-120180000D03*
%TO.P,J5,7,7*%
%TO.N,/Project Architecture/Section B - Title B/CAN2_H*%
X60160000Y-121960000D03*
%TO.P,J5,8,8*%
%TO.N,/Project Architecture/Section B - Title B/CAN2_L*%
X59144000Y-120180000D03*
D41*
%TO.P,J5,SH1,SHIELD*%
%TO.N,GND_CAN2*%
X54570000Y-121070000D03*
%TO.P,J5,SH2,SHIELD*%
X70830000Y-121070000D03*
%TD*%
D17*
%TO.P,C10,1*%
%TO.N,Net-(C10-Pad1)*%
X75762500Y-120200000D03*
%TO.P,C10,2*%
%TO.N,GND_CAN2*%
X74037500Y-120200000D03*
%TD*%
D23*
%TO.P,J2,1,Pin_1*%
%TO.N,/Project Architecture/Section B - Title B/CAN1_H*%
X84950000Y-120850000D03*
D24*
%TO.P,J2,2,Pin_2*%
%TO.N,/Project Architecture/Section B - Title B/CAN1_L*%
X87450000Y-120850000D03*
%TO.P,J2,3,Pin_3*%
%TO.N,GND_CAN1*%
X89950000Y-120850000D03*
%TO.P,J2,4,Pin_4*%
%TO.N,+5V_CAN1*%
X92450000Y-120850000D03*
%TD*%
D14*
%TO.P,C22,1*%
%TO.N,+3V0*%
X89150000Y-87285000D03*
%TO.P,C22,2*%
%TO.N,GND*%
X90875000Y-87285000D03*
%TD*%
D16*
%TO.P,C17,1*%
%TO.N,+5V*%
X104287500Y-102537500D03*
%TO.P,C17,2*%
%TO.N,GND*%
X104287500Y-104262500D03*
%TD*%
D17*
%TO.P,C9,1*%
%TO.N,Net-(C9-Pad1)*%
X116362500Y-120400000D03*
%TO.P,C9,2*%
%TO.N,GND_CAN1*%
X114637500Y-120400000D03*
%TD*%
D18*
%TO.P,H4,1,1*%
%TO.N,unconnected-(H4-Pad1)*%
X118400000Y-126200000D03*
%TD*%
D42*
%TO.P,D1,1,DOUT*%
%TO.N,unconnected-(D1-DOUT-Pad1)*%
X105245000Y-52600000D03*
%TO.P,D1,2,VSS*%
%TO.N,GND*%
X105245000Y-53700000D03*
%TO.P,D1,3,DIN*%
%TO.N,/Project Architecture/Section A - Title A/LED_DOUT*%
X107075000Y-53700000D03*
%TO.P,D1,4,VDD*%
%TO.N,+5V*%
X107075000Y-52600000D03*
%TD*%
D12*
%TO.P,C1,1*%
%TO.N,+3V3*%
X81026802Y-58212500D03*
%TO.P,C1,2*%
%TO.N,GND*%
X81026802Y-56487500D03*
%TD*%
%TO.P,C20,1*%
%TO.N,+5V_CAN2*%
X68100000Y-109062500D03*
%TO.P,C20,2*%
%TO.N,GND_CAN2*%
X68100000Y-107337500D03*
%TD*%
D43*
%TO.P,U2,1,TXCAN*%
%TO.N,/Project Architecture/Section B - Title B/CAN2_TX*%
X59375000Y-92075000D03*
%TO.P,U2,2,RXCAN*%
%TO.N,/Project Architecture/Section B - Title B/CAN2_RX*%
X60025000Y-92075000D03*
%TO.P,U2,3,CLKOUT/SOF*%
%TO.N,unconnected-(U2-CLKOUT{slash}SOF-Pad3)*%
X60675000Y-92075000D03*
%TO.P,U2,4,~{TX0RTS}*%
%TO.N,unconnected-(U2-~{TX0RTS}-Pad4)*%
X61325000Y-92075000D03*
%TO.P,U2,5,~{TX1RTS}*%
%TO.N,unconnected-(U2-~{TX1RTS}-Pad5)*%
X61975000Y-92075000D03*
%TO.P,U2,6,NC*%
%TO.N,unconnected-(U2-NC-Pad6)*%
X62625000Y-92075000D03*
%TO.P,U2,7,~{TX2RTS}*%
%TO.N,unconnected-(U2-~{TX2RTS}-Pad7)*%
X63275000Y-92075000D03*
%TO.P,U2,8,OSC2*%
%TO.N,/Project Architecture/Section B - Title B/CAN_OSC2*%
X63925000Y-92075000D03*
%TO.P,U2,9,OSC1*%
%TO.N,/Project Architecture/Section B - Title B/CAN_OSC1*%
X64575000Y-92075000D03*
%TO.P,U2,10,VSS*%
%TO.N,GND*%
X65225000Y-92075000D03*
%TO.P,U2,11,~{RX1BF}*%
%TO.N,unconnected-(U2-~{RX1BF}-Pad11)*%
X65225000Y-86350000D03*
%TO.P,U2,12,~{RX0BF}*%
%TO.N,unconnected-(U2-~{RX0BF}-Pad12)*%
X64575000Y-86350000D03*
%TO.P,U2,13,~{INT}*%
%TO.N,/Project Architecture/Section A - Title A/CAN2_INT*%
X63925000Y-86350000D03*
%TO.P,U2,14,SCK*%
%TO.N,/Project Architecture/Section A - Title A/CAN2_SCK*%
X63275000Y-86350000D03*
%TO.P,U2,15,NC*%
%TO.N,unconnected-(U2-NC-Pad15)*%
X62625000Y-86350000D03*
%TO.P,U2,16,SI*%
%TO.N,/Project Architecture/Section A - Title A/CAN2_MOSI*%
X61975000Y-86350000D03*
%TO.P,U2,17,SO*%
%TO.N,/Project Architecture/Section A - Title A/CAN2_MISO*%
X61325000Y-86350000D03*
%TO.P,U2,18,~{CS}*%
%TO.N,/Project Architecture/Section A - Title A/CAN2_CS*%
X60675000Y-86350000D03*
%TO.P,U2,19,~{RESET}*%
%TO.N,/Project Architecture/Section A - Title A/CAN2_RST*%
X60025000Y-86350000D03*
%TO.P,U2,20,VDD*%
%TO.N,+3V3*%
X59375000Y-86350000D03*
%TD*%
D12*
%TO.P,C7,1*%
%TO.N,+3V3*%
X65300000Y-101562500D03*
%TO.P,C7,2*%
%TO.N,GND*%
X65300000Y-99837500D03*
%TD*%
D44*
%TO.P,J3,1*%
%TO.N,unconnected-(J3-Pad1)*%
X112900000Y-91800000D03*
%TO.P,J3,2*%
%TO.N,unconnected-(J3-Pad2)*%
X112900000Y-89300000D03*
%TO.P,J3,3*%
%TO.N,unconnected-(J3-Pad3)*%
X112900000Y-86800000D03*
%TO.P,J3,4*%
%TO.N,unconnected-(J3-Pad4)*%
X112900000Y-84300000D03*
%TO.P,J3,5*%
%TO.N,unconnected-(J3-Pad5)*%
X112900000Y-81800000D03*
%TO.P,J3,6*%
%TO.N,unconnected-(J3-Pad6)*%
X112900000Y-79300000D03*
%TO.P,J3,7*%
%TO.N,unconnected-(J3-Pad7)*%
X112900000Y-76800000D03*
%TO.P,J3,8*%
%TO.N,unconnected-(J3-Pad8)*%
X112900000Y-74300000D03*
%TO.P,J3,9*%
%TO.N,unconnected-(J3-Pad9)*%
X112900000Y-71800000D03*
%TO.P,J3,10*%
%TO.N,unconnected-(J3-Pad10)*%
X112900000Y-69300000D03*
%TO.P,J3,11*%
%TO.N,unconnected-(J3-Pad11)*%
X112900000Y-66800000D03*
%TO.P,J3,12*%
%TO.N,unconnected-(J3-Pad12)*%
X112900000Y-64300000D03*
%TD*%
D18*
%TO.P,H2,1,1*%
%TO.N,unconnected-(H2-Pad1)*%
X118400000Y-54200000D03*
%TD*%
D17*
%TO.P,C16,1*%
%TO.N,+5V*%
X99937500Y-95200000D03*
%TO.P,C16,2*%
%TO.N,GND*%
X98212500Y-95200000D03*
%TD*%
D12*
%TO.P,C21,1*%
%TO.N,+3V3*%
X95575000Y-91062500D03*
%TO.P,C21,2*%
%TO.N,GND*%
X95575000Y-89337500D03*
%TD*%
D22*
%TO.P,R9,1*%
%TO.N,/Project Architecture/Section A - Title A/SCL*%
X75362500Y-85895000D03*
%TO.P,R9,2*%
%TO.N,+3V3*%
X77187500Y-85895000D03*
%TD*%
D32*
%TO.P,PS2,1,-VIN*%
%TO.N,GND*%
X70450000Y-102250000D03*
D33*
%TO.P,PS2,2,+VIN*%
%TO.N,+5V*%
X70450000Y-104790000D03*
%TO.P,PS2,3,-VOUT*%
%TO.N,GND_CAN2*%
X70450000Y-107330000D03*
%TO.P,PS2,4,+VOUT*%
%TO.N,+5V_CAN2*%
X70450000Y-109870000D03*
%TD*%
D16*
%TO.P,C2,1*%
%TO.N,/Project Architecture/Section A - Title A/ESP32_EN*%
X51350000Y-64462500D03*
%TO.P,C2,2*%
%TO.N,GND*%
X51350000Y-66187500D03*
%TD*%
D45*
%TO.N,GND*%
X101575000Y-88800000D03*
X105260000Y-54450000D03*
X85500000Y-100000000D03*
X97275000Y-95200000D03*
X84460000Y-56650000D03*
X109360000Y-54950000D03*
X79260000Y-55650000D03*
X99560000Y-56650000D03*
X97275000Y-88300000D03*
X99975000Y-87800000D03*
X85500000Y-103300000D03*
X101960000Y-56650000D03*
X81060000Y-55650000D03*
X95575000Y-88300000D03*
%TO.N,+3V3*%
X62600000Y-101600000D03*
X107475000Y-91100000D03*
X79160000Y-59050000D03*
X94475000Y-91100000D03*
X80860000Y-59050000D03*
X105775000Y-93200000D03*
X84360000Y-57950000D03*
X66200000Y-101600000D03*
X105775000Y-89100000D03*
X98275000Y-91062500D03*
%TO.N,+5V_CAN1*%
X93100000Y-114000000D03*
X93100000Y-108900000D03*
%TO.N,+5V_CAN2*%
X63300000Y-113800000D03*
X63300000Y-109100000D03*
%TO.N,GND_CAN1*%
X113700000Y-120400000D03*
X85500000Y-112400000D03*
X91300000Y-114000000D03*
%TO.N,GND_CAN2*%
X73000000Y-120200000D03*
X55700000Y-112100000D03*
X61600000Y-113800000D03*
%TD*%
D46*
%TO.N,GND*%
X100760000Y-56650000D02*
X99560000Y-56650000D01*
X85507500Y-101650000D02*
X85507500Y-103292500D01*
X109360000Y-54012500D02*
X109360000Y-54950000D01*
X79326802Y-56487500D02*
X81026802Y-56487500D01*
X81026802Y-55683198D02*
X81060000Y-55650000D01*
X79326802Y-55716802D02*
X79260000Y-55650000D01*
X81026802Y-56487500D02*
X81026802Y-55683198D01*
X99975000Y-88800000D02*
X101575000Y-88800000D01*
D47*
X105245000Y-53700000D02*
X105245000Y-54435000D01*
D46*
X98212500Y-95200000D02*
X97275000Y-95200000D01*
D47*
X105245000Y-54435000D02*
X105260000Y-54450000D01*
D46*
X99975000Y-88800000D02*
X99975000Y-87800000D01*
X85507500Y-101650000D02*
X85507500Y-100007500D01*
X81897500Y-56487500D02*
X82060000Y-56650000D01*
X79326802Y-56487500D02*
X79326802Y-55716802D01*
X82060000Y-56650000D02*
X83260000Y-56650000D01*
X97275000Y-89337500D02*
X97275000Y-88300000D01*
X95575000Y-89337500D02*
X95575000Y-88300000D01*
X83260000Y-56650000D02*
X84460000Y-56650000D01*
X100760000Y-56650000D02*
X101960000Y-56650000D01*
X85507500Y-103292500D02*
X85500000Y-103300000D01*
X85507500Y-100007500D02*
X85500000Y-100000000D01*
X81026802Y-56487500D02*
X81897500Y-56487500D01*
%TO.N,+3V3*%
X105775000Y-91100000D02*
X105775000Y-89100000D01*
X81990000Y-57920000D02*
X83260000Y-57920000D01*
X98275000Y-91062500D02*
X99937500Y-91062500D01*
X95287500Y-101650000D02*
X95300000Y-101662500D01*
X63360000Y-101575000D02*
X65287500Y-101575000D01*
X95575000Y-91062500D02*
X94512500Y-91062500D01*
X99937500Y-91062500D02*
X99975000Y-91100000D01*
X99975000Y-91100000D02*
X105775000Y-91100000D01*
X79326802Y-58212500D02*
X79326802Y-58883198D01*
X97275000Y-91062500D02*
X98275000Y-91062500D01*
X94512500Y-91062500D02*
X94475000Y-91100000D01*
X105775000Y-91100000D02*
X107475000Y-91100000D01*
X81026802Y-58883198D02*
X80860000Y-59050000D01*
X93127500Y-101650000D02*
X95287500Y-101650000D01*
X81026802Y-58212500D02*
X79326802Y-58212500D01*
X65287500Y-101575000D02*
X65300000Y-101562500D01*
X81026802Y-58212500D02*
X81026802Y-58883198D01*
X83260000Y-57920000D02*
X84330000Y-57920000D01*
X65337500Y-101600000D02*
X66200000Y-101600000D01*
X81697500Y-58212500D02*
X81990000Y-57920000D01*
X65300000Y-101562500D02*
X65337500Y-101600000D01*
X79326802Y-58883198D02*
X79160000Y-59050000D01*
X84330000Y-57920000D02*
X84360000Y-57950000D01*
X62625000Y-101575000D02*
X62600000Y-101600000D01*
X81026802Y-58212500D02*
X81697500Y-58212500D01*
X105775000Y-91100000D02*
X105775000Y-93200000D01*
X95575000Y-91062500D02*
X97275000Y-91062500D01*
X63360000Y-101575000D02*
X62625000Y-101575000D01*
%TO.N,+5V*%
X107075000Y-52600000D02*
X109047500Y-52600000D01*
X109047500Y-52600000D02*
X109360000Y-52287500D01*
X99937500Y-95200000D02*
X99937500Y-93437500D01*
X99937500Y-93437500D02*
X99975000Y-93400000D01*
D48*
%TO.N,Net-(C9-Pad1)*%
X116362500Y-120400000D02*
X116362500Y-118850000D01*
X116412500Y-117200000D02*
X116412500Y-118800000D01*
X116362500Y-118850000D02*
X116412500Y-118800000D01*
%TO.N,Net-(C10-Pad1)*%
X75762500Y-118650000D02*
X75812500Y-118600000D01*
X75762500Y-120200000D02*
X75762500Y-118650000D01*
X75812500Y-118600000D02*
X75812500Y-117000000D01*
D46*
%TO.N,+5V_CAN1*%
X93127500Y-108927500D02*
X93100000Y-108900000D01*
X93062500Y-113200000D02*
X93100000Y-113237500D01*
X93127500Y-110700000D02*
X93127500Y-108927500D01*
X93127500Y-113135000D02*
X93062500Y-113200000D01*
X93100000Y-113237500D02*
X93100000Y-114000000D01*
X93127500Y-110700000D02*
X93127500Y-113135000D01*
%TO.N,+5V_CAN2*%
X63362500Y-113000000D02*
X63362500Y-110627500D01*
X63362500Y-113000000D02*
X63362500Y-113737500D01*
X63360000Y-110625000D02*
X63360000Y-109160000D01*
X63360000Y-109160000D02*
X63300000Y-109100000D01*
X63362500Y-113737500D02*
X63300000Y-113800000D01*
X63362500Y-110627500D02*
X63360000Y-110625000D01*
D49*
%TO.N,/Project Architecture/Section B - Title B/CAN_OSC1*%
X68375000Y-89850000D02*
X69528985Y-91003985D01*
X65175000Y-89850000D02*
X68375000Y-89850000D01*
X64575000Y-90450000D02*
X65175000Y-89850000D01*
X64575000Y-92075000D02*
X64575000Y-90450000D01*
X69528985Y-91003985D02*
X69528985Y-91350000D01*
%TO.N,/Project Architecture/Section B - Title B/CAN_OSC2*%
X65075000Y-89150000D02*
X63925000Y-90300000D01*
X67128985Y-88896015D02*
X66875000Y-89150000D01*
X66875000Y-89150000D02*
X65075000Y-89150000D01*
X67128985Y-87350000D02*
X67128985Y-88896015D01*
X63925000Y-90300000D02*
X63925000Y-92075000D01*
D47*
%TO.N,/Project Architecture/Section A - Title A/LED_DOUT*%
X107075000Y-55635000D02*
X107075000Y-53700000D01*
X100760000Y-57920000D02*
X104790000Y-57920000D01*
X104790000Y-57920000D02*
X107075000Y-55635000D01*
D49*
%TO.N,VBUS*%
X49360000Y-87100000D02*
X49885000Y-87100000D01*
X49320000Y-82300000D02*
X48440000Y-83180000D01*
X49885000Y-82300000D02*
X49320000Y-82300000D01*
X48440000Y-86180000D02*
X49360000Y-87100000D01*
X48440000Y-83180000D02*
X48440000Y-86180000D01*
%TO.N,/Project Architecture/Section A - Title A/ESP32_USB_D+*%
X49000000Y-85400000D02*
X49000000Y-84600000D01*
X81724999Y-72750000D02*
X81510000Y-72750000D01*
X49000000Y-84600000D02*
X49150000Y-84450000D01*
X83260000Y-73160000D02*
X82134999Y-73160000D01*
X49885000Y-85450000D02*
X49050000Y-85450000D01*
X50310000Y-85450000D02*
X50335000Y-85425000D01*
X82134999Y-73160000D02*
X81724999Y-72750000D01*
X49885000Y-85450000D02*
X50310000Y-85450000D01*
X49050000Y-85450000D02*
X49000000Y-85400000D01*
X49150000Y-84450000D02*
X49885000Y-84450000D01*
%TO.N,/Project Architecture/Section A - Title A/USB_CC1*%
X52085698Y-83450000D02*
X52123198Y-83487500D01*
X49885000Y-83450000D02*
X52085698Y-83450000D01*
%TO.N,/Project Architecture/Section A - Title A/ESP32_USB_D-*%
X81724999Y-72300000D02*
X81510000Y-72300000D01*
X83260000Y-71890000D02*
X82134999Y-71890000D01*
X50650000Y-83950000D02*
X50800000Y-84100000D01*
X50310000Y-84950000D02*
X50335000Y-84975000D01*
X50800000Y-84100000D02*
X50800000Y-84950000D01*
X82134999Y-71890000D02*
X81724999Y-72300000D01*
X49885000Y-84950000D02*
X50800000Y-84950000D01*
X49885000Y-84950000D02*
X50310000Y-84950000D01*
X49885000Y-83950000D02*
X50650000Y-83950000D01*
%TO.N,/Project Architecture/Section A - Title A/USB_CC2*%
X52110698Y-86450000D02*
X52123198Y-86462500D01*
X49885000Y-86450000D02*
X52110698Y-86450000D01*
%TO.N,/Project Architecture/Section B - Title B/CAN1_H*%
X89100000Y-108700000D02*
X89500000Y-109100000D01*
X86600000Y-116500000D02*
X86600000Y-109000000D01*
X101600000Y-119800000D02*
X100550000Y-120850000D01*
X84950000Y-120850000D02*
X86000000Y-121900000D01*
X86600000Y-123400000D02*
X94200000Y-123400000D01*
X86000000Y-117100000D02*
X86600000Y-116500000D01*
X89500000Y-110200000D02*
X90000000Y-110700000D01*
X99200000Y-118400000D02*
X100900000Y-118400000D01*
X101600000Y-121900000D02*
X101600000Y-122700000D01*
X102400000Y-123500000D02*
X108500000Y-123500000D01*
X113700000Y-118300000D02*
X114087500Y-118300000D01*
X84950000Y-120850000D02*
X86000000Y-119800000D01*
X89500000Y-109100000D02*
X89500000Y-110200000D01*
X100900000Y-118400000D02*
X101600000Y-119100000D01*
X101600000Y-122700000D02*
X102400000Y-123500000D01*
X86000000Y-121900000D02*
X86000000Y-122800000D01*
X86000000Y-122800000D02*
X86600000Y-123400000D01*
X100550000Y-120850000D02*
X101600000Y-121900000D01*
X86000000Y-119800000D02*
X86000000Y-117100000D01*
X101600000Y-119100000D02*
X101600000Y-119800000D01*
X108500000Y-123500000D02*
X113700000Y-118300000D01*
X94200000Y-123400000D02*
X99200000Y-118400000D01*
X90000000Y-110700000D02*
X90587500Y-110700000D01*
X86600000Y-109000000D02*
X86900000Y-108700000D01*
X86900000Y-108700000D02*
X89100000Y-108700000D01*
X114087500Y-118300000D02*
X114587500Y-118800000D01*
%TO.N,/Project Architecture/Section B - Title B/CAN1_L*%
X99000000Y-118000000D02*
X101100000Y-118000000D01*
X86400000Y-122600000D02*
X86800000Y-123000000D01*
X113987500Y-117800000D02*
X114587500Y-117200000D01*
X86400000Y-119800000D02*
X87450000Y-120850000D01*
X89100000Y-110200000D02*
X89100000Y-109350000D01*
X87200000Y-109100000D02*
X87000000Y-109300000D01*
X87000000Y-116700000D02*
X86400000Y-117300000D01*
X86800000Y-123000000D02*
X94000000Y-123000000D01*
X86400000Y-117300000D02*
X86400000Y-119800000D01*
X94000000Y-123000000D02*
X99000000Y-118000000D01*
X108200000Y-123100000D02*
X113500000Y-117800000D01*
X87450000Y-120850000D02*
X86400000Y-121900000D01*
X103050000Y-120850000D02*
X102000000Y-121900000D01*
X88047500Y-110700000D02*
X88600000Y-110700000D01*
X113500000Y-117800000D02*
X113987500Y-117800000D01*
X102000000Y-118900000D02*
X102000000Y-119800000D01*
X88600000Y-110700000D02*
X89100000Y-110200000D01*
X102600000Y-123100000D02*
X108200000Y-123100000D01*
X102000000Y-119800000D02*
X103050000Y-120850000D01*
X86400000Y-121900000D02*
X86400000Y-122600000D01*
X101100000Y-118000000D02*
X102000000Y-118900000D01*
X88850000Y-109100000D02*
X87200000Y-109100000D01*
X102000000Y-122500000D02*
X102600000Y-123100000D01*
X87000000Y-109300000D02*
X87000000Y-116700000D01*
X89100000Y-109350000D02*
X88850000Y-109100000D01*
X102000000Y-121900000D02*
X102000000Y-122500000D01*
%TO.N,/Project Architecture/Section B - Title B/CAN2_L*%
X59400000Y-116400000D02*
X61000000Y-118000000D01*
X59400000Y-110000000D02*
X59400000Y-110100000D01*
X59144000Y-121006000D02*
X58750000Y-121400000D01*
X57200000Y-109400000D02*
X58000000Y-108600000D01*
X58000000Y-108600000D02*
X59200000Y-108600000D01*
X59200000Y-108600000D02*
X59400000Y-108800000D01*
X59400000Y-110000000D02*
X59400000Y-116400000D01*
X59400000Y-108800000D02*
X59400000Y-110000000D01*
X58750000Y-121400000D02*
X57900000Y-121400000D01*
X57900000Y-121400000D02*
X57200000Y-120700000D01*
X57200000Y-120700000D02*
X57200000Y-109400000D01*
X61000000Y-118000000D02*
X73387500Y-118000000D01*
X73387500Y-118000000D02*
X73987500Y-118600000D01*
X59144000Y-120180000D02*
X59144000Y-121006000D01*
X58875000Y-110625000D02*
X58280000Y-110625000D01*
X59400000Y-110100000D02*
X58875000Y-110625000D01*
%TO.N,/Project Architecture/Section B - Title B/CAN2_H*%
X56800000Y-120900000D02*
X57700000Y-121800000D01*
X59800000Y-108634314D02*
X59365686Y-108200000D01*
X57700000Y-121800000D02*
X60000000Y-121800000D01*
X59800000Y-116200000D02*
X61200000Y-117600000D01*
X61200000Y-117600000D02*
X73387500Y-117600000D01*
X73387500Y-117600000D02*
X73987500Y-117000000D01*
X59800000Y-110100000D02*
X59800000Y-116200000D01*
X59800000Y-110100000D02*
X59800000Y-108634314D01*
X59365686Y-108200000D02*
X57767157Y-108200000D01*
X57767157Y-108200000D02*
X56800000Y-109167157D01*
X56800000Y-109167157D02*
X56800000Y-120900000D01*
X60820000Y-110625000D02*
X60325000Y-110625000D01*
X60000000Y-121800000D02*
X60160000Y-121960000D01*
X60325000Y-110625000D02*
X59800000Y-110100000D01*
D46*
%TO.N,GND_CAN1*%
X91337500Y-113962500D02*
X91300000Y-114000000D01*
X91337500Y-113200000D02*
X91337500Y-113962500D01*
X85507500Y-112392500D02*
X85500000Y-112400000D01*
D48*
X114637500Y-120400000D02*
X113700000Y-120400000D01*
D46*
X85507500Y-110700000D02*
X85507500Y-112392500D01*
%TO.N,GND_CAN2*%
X55740000Y-110625000D02*
X55740000Y-112060000D01*
X55740000Y-112060000D02*
X55700000Y-112100000D01*
X61637500Y-113762500D02*
X61600000Y-113800000D01*
D48*
X74037500Y-120200000D02*
X73000000Y-120200000D01*
D46*
X61637500Y-113000000D02*
X61637500Y-113762500D01*
%TD*%
M02*
