%TF.GenerationSoftware,KiCad,Pcbnew,9.0.7+1*%
%TF.CreationDate,Date%
%TF.ProjectId,LE_BMS_A_V2,4c455f42-4d53-45f4-915f-56322e6b6963,+ (Unreleased)*%
%TF.SameCoordinates,Original*%
%TF.FileFunction,Copper,L2,Inr*%
%TF.FilePolarity,Positive*%
%FSLAX46Y46*%
G04 Gerber Fmt 4.6, Leading zero omitted, Abs format (unit mm)*
G04 Created by KiCad*
%MOMM*%
%LPD*%
G01*
G04 APERTURE LIST*
G04 Aperture macros list*
%AMRoundRect*
0 Rectangle with rounded corners*
0 $1 Rounding radius*
0 $2 $3 $4 $5 $6 $7 $8 $9 X,Y pos of 4 corners*
0 Add a 4 corners polygon primitive as box body*
4,1,4,$2,$3,$4,$5,$6,$7,$8,$9,$2,$3,0*
0 Add four circle primitives for the rounded corners*
1,1,$1+$1,$2,$3*
1,1,$1+$1,$4,$5*
1,1,$1+$1,$6,$7*
1,1,$1+$1,$8,$9*
0 Add four rect primitives between the rounded corners*
20,1,$1+$1,$2,$3,$4,$5,0*
20,1,$1+$1,$4,$5,$6,$7,0*
20,1,$1+$1,$6,$7,$8,$9,0*
20,1,$1+$1,$8,$9,$2,$3,0*%
G04 Aperture macros list end*
%TA.AperFunction,ComponentPad*%
%ADD10C,5.600000*%
%TD*%
%TA.AperFunction,ComponentPad*%
%ADD11R,2.000000X2.000000*%
%TD*%
%TA.AperFunction,ComponentPad*%
%ADD12C,2.000000*%
%TD*%
%TA.AperFunction,ComponentPad*%
%ADD13C,2.400000*%
%TD*%
%TA.AperFunction,ComponentPad*%
%ADD14RoundRect,0.250000X-0.600000X-0.725000X0.600000X-0.725000X0.600000X0.725000X-0.600000X0.725000X0*%
%TD*%
%TA.AperFunction,ComponentPad*%
%ADD15O,1.700000X1.950000*%
%TD*%
%TA.AperFunction,HeatsinkPad*%
%ADD16C,0.600000*%
%TD*%
%TA.AperFunction,ComponentPad*%
%ADD17R,1.508000X1.508000*%
%TD*%
%TA.AperFunction,ComponentPad*%
%ADD18C,1.508000*%
%TD*%
%TA.AperFunction,ComponentPad*%
%ADD19O,2.150000X1.050000*%
%TD*%
%TA.AperFunction,ComponentPad*%
%ADD20O,1.850000X1.050000*%
%TD*%
%TA.AperFunction,ComponentPad*%
%ADD21R,1.448000X1.448000*%
%TD*%
%TA.AperFunction,ComponentPad*%
%ADD22C,1.448000*%
%TD*%
%TA.AperFunction,ComponentPad*%
%ADD23C,2.430000*%
%TD*%
%TA.AperFunction,ComponentPad*%
%ADD24C,2.100000*%
%TD*%
%TA.AperFunction,ViaPad*%
%ADD25C,0.550000*%
%TD*%
G04 APERTURE END LIST*
D10*
%TO.N,unconnected-(H3-Pad1)*%
%TO.C,H3*%
X117150000Y-122610000D03*
%TD*%
D11*
%TO.N,N/C*%
%TO.C,REF\u002A\u002A*%
X127150000Y-64210000D03*
D12*
X147950000Y-64210000D03*
%TD*%
D13*
%TO.N,+5V_CAN1*%
%TO.C,J4*%
X182950000Y-105050000D03*
%TO.N,GND_CAN1*%
X182950000Y-99970000D03*
%TD*%
D14*
%TO.N,/Project Architecture/Section B - Title B/CAN1_H*%
%TO.C,J6*%
X171300000Y-117260000D03*
D15*
%TO.N,/Project Architecture/Section B - Title B/CAN1_L*%
X173800000Y-117260000D03*
%TO.N,GND_CAN1*%
X176300000Y-117260000D03*
%TO.N,+5V_CAN1*%
X178800000Y-117260000D03*
%TD*%
D16*
%TO.N,GND*%
%TO.C,U1*%
X159900000Y-57660000D03*
X159900000Y-59160000D03*
X160650000Y-56910000D03*
X160650000Y-58410000D03*
X160650000Y-59910000D03*
X161400000Y-57660000D03*
X161400000Y-59160000D03*
X162150000Y-56910000D03*
X162150000Y-58410000D03*
X162150000Y-59910000D03*
X162900000Y-57660000D03*
X162900000Y-59160000D03*
%TD*%
D10*
%TO.N,unconnected-(H1-Pad1)*%
%TO.C,H1*%
X117150000Y-50610000D03*
%TD*%
D17*
%TO.N,GND_CAN1*%
%TO.C,PS1*%
X172587500Y-106417500D03*
D18*
%TO.N,+5V_CAN1*%
X172587500Y-103877500D03*
%TO.N,GND*%
X172587500Y-101337500D03*
%TO.N,+5V*%
X172587500Y-98797500D03*
%TD*%
D19*
%TO.N,GND*%
%TO.C,J1*%
X120070000Y-76790000D03*
X120070000Y-85430000D03*
D20*
X115890000Y-76790000D03*
X115890000Y-85430000D03*
%TD*%
D21*
%TO.N,unconnected-(J5-Pad1)*%
%TO.C,J5*%
X137006000Y-118370000D03*
D22*
%TO.N,unconnected-(J5-Pad2)*%
X135990000Y-116590000D03*
%TO.N,GND_CAN2*%
X134974000Y-118370000D03*
%TO.N,unconnected-(J5-Pad4)*%
X133958000Y-116590000D03*
%TO.N,unconnected-(J5-Pad5)*%
X132942000Y-118370000D03*
%TO.N,unconnected-(J5-Pad6)*%
X131926000Y-116590000D03*
%TO.N,/Project Architecture/Section B - Title B/CAN2_H*%
X130910000Y-118370000D03*
%TO.N,/Project Architecture/Section B - Title B/CAN2_L*%
X129894000Y-116590000D03*
D23*
%TO.N,GND_CAN2*%
X125320000Y-117480000D03*
X141580000Y-117480000D03*
%TD*%
D14*
%TO.N,/Project Architecture/Section B - Title B/CAN1_H*%
%TO.C,J2*%
X155700000Y-117260000D03*
D15*
%TO.N,/Project Architecture/Section B - Title B/CAN1_L*%
X158200000Y-117260000D03*
%TO.N,GND_CAN1*%
X160700000Y-117260000D03*
%TO.N,+5V_CAN1*%
X163200000Y-117260000D03*
%TD*%
D10*
%TO.N,unconnected-(H4-Pad1)*%
%TO.C,H4*%
X189150000Y-122610000D03*
%TD*%
D24*
%TO.N,unconnected-(J3-Pad1)*%
%TO.C,J3*%
X183650000Y-88210000D03*
%TO.N,unconnected-(J3-Pad2)*%
X183650000Y-85710000D03*
%TO.N,unconnected-(J3-Pad3)*%
X183650000Y-83210000D03*
%TO.N,unconnected-(J3-Pad4)*%
X183650000Y-80710000D03*
%TO.N,unconnected-(J3-Pad5)*%
X183650000Y-78210000D03*
%TO.N,unconnected-(J3-Pad6)*%
X183650000Y-75710000D03*
%TO.N,unconnected-(J3-Pad7)*%
X183650000Y-73210000D03*
%TO.N,unconnected-(J3-Pad8)*%
X183650000Y-70710000D03*
%TO.N,unconnected-(J3-Pad9)*%
X183650000Y-68210000D03*
%TO.N,unconnected-(J3-Pad10)*%
X183650000Y-65710000D03*
%TO.N,unconnected-(J3-Pad11)*%
X183650000Y-63210000D03*
%TO.N,unconnected-(J3-Pad12)*%
X183650000Y-60710000D03*
%TD*%
D10*
%TO.N,unconnected-(H2-Pad1)*%
%TO.C,H2*%
X189150000Y-50610000D03*
%TD*%
D17*
%TO.N,GND*%
%TO.C,PS2*%
X141200000Y-98660000D03*
D18*
%TO.N,+5V*%
X141200000Y-101200000D03*
%TO.N,GND_CAN2*%
X141200000Y-103740000D03*
%TO.N,+5V_CAN2*%
X141200000Y-106280000D03*
%TD*%
D25*
%TO.N,GND*%
X172325000Y-85210000D03*
X176010000Y-50860000D03*
X156250000Y-96410000D03*
X168025000Y-91610000D03*
X155210000Y-53060000D03*
X180110000Y-51360000D03*
X150010000Y-52060000D03*
X170310000Y-53060000D03*
X168025000Y-84710000D03*
X170725000Y-84210000D03*
X156250000Y-99710000D03*
X172710000Y-53060000D03*
X151810000Y-52060000D03*
X166325000Y-84710000D03*
%TO.N,+3V3*%
X133350000Y-98010000D03*
X178225000Y-87510000D03*
X149910000Y-55460000D03*
X165225000Y-87510000D03*
X151610000Y-55460000D03*
X176525000Y-89610000D03*
X155110000Y-54360000D03*
X136950000Y-98010000D03*
X176525000Y-85510000D03*
X169025000Y-87472500D03*
%TO.N,+5V_CAN1*%
X163850000Y-110410000D03*
X163850000Y-105310000D03*
%TO.N,+5V_CAN2*%
X134050000Y-110210000D03*
X134050000Y-105510000D03*
%TO.N,GND_CAN1*%
X184450000Y-116810000D03*
X156250000Y-108810000D03*
X162050000Y-110410000D03*
%TO.N,GND_CAN2*%
X143750000Y-116610000D03*
X126450000Y-108510000D03*
X132350000Y-110210000D03*
%TD*%
%TA.AperFunction,Conductor*%
%TO.N,GND_CAN2*%
G36*
X140446475Y-102629685D02*
G01*
X140467486Y-102653933D01*
X141070591Y-103257037D01*
X141007007Y-103274075D01*
X140892993Y-103339901D01*
X140799901Y-103432993D01*
X140734075Y-103547007D01*
X140717037Y-103610590D01*
X140153457Y-103047010D01*
X140153456Y-103047010D01*
X140127483Y-103082760D01*
X140127482Y-103082762D01*
X140037873Y-103258626D01*
X139976876Y-103446353D01*
X139946000Y-103641302D01*
X139946000Y-103838697D01*
X139976876Y-104033646D01*
X140037873Y-104221373D01*
X140127483Y-104397239D01*
X140153457Y-104432988D01*
X140153457Y-104432989D01*
X140717037Y-103869408D01*
X140734075Y-103932993D01*
X140799901Y-104047007D01*
X140892993Y-104140099D01*
X141007007Y-104205925D01*
X141070590Y-104222962D01*
X140507009Y-104786541D01*
X140507010Y-104786542D01*
X140542755Y-104812512D01*
X140542768Y-104812520D01*
X140718626Y-104902126D01*
X140906353Y-104963123D01*
X141101303Y-104994000D01*
X141298697Y-104994000D01*
X141493646Y-104963123D01*
X141681373Y-104902126D01*
X141857241Y-104812516D01*
X141892988Y-104786543D01*
X141892988Y-104786541D01*
X141329410Y-104222962D01*
X141392993Y-104205925D01*
X141507007Y-104140099D01*
X141600099Y-104047007D01*
X141665925Y-103932993D01*
X141682962Y-103869409D01*
X142246541Y-104432988D01*
X142246543Y-104432988D01*
X142272516Y-104397241D01*
X142362126Y-104221373D01*
X142423123Y-104033646D01*
X142454000Y-103838697D01*
X142454000Y-103641302D01*
X142423123Y-103446353D01*
X142362126Y-103258626D01*
X142272520Y-103082768D01*
X142272512Y-103082755D01*
X142246542Y-103047010D01*
X142246541Y-103047009D01*
X141682962Y-103610589D01*
X141665925Y-103547007D01*
X141600099Y-103432993D01*
X141507007Y-103339901D01*
X141392993Y-103274075D01*
X141329409Y-103257037D01*
X141926275Y-102660171D01*
X141960355Y-102625598D01*
X142020563Y-102610000D01*
X149026000Y-102610000D01*
X149093039Y-102629685D01*
X149138794Y-102682489D01*
X149150000Y-102734000D01*
X149150000Y-126235500D01*
X149130315Y-126302539D01*
X149077511Y-126348294D01*
X149026000Y-126359500D01*
X117153051Y-126359500D01*
X117146968Y-126359351D01*
X117124856Y-126358264D01*
X116788567Y-126341743D01*
X116776457Y-126340550D01*
X116424532Y-126288347D01*
X116412597Y-126285973D01*
X116067481Y-126199526D01*
X116055837Y-126195994D01*
X115720858Y-126076136D01*
X115709629Y-126071485D01*
X115387999Y-125919366D01*
X115377272Y-125913631D01*
X115072118Y-125730729D01*
X115062000Y-125723969D01*
X114776230Y-125512028D01*
X114766824Y-125504308D01*
X114636809Y-125386469D01*
X114503209Y-125265381D01*
X114494618Y-125256790D01*
X114255691Y-124993175D01*
X114247971Y-124983769D01*
X114036030Y-124697999D01*
X114029270Y-124687881D01*
X113984102Y-124612523D01*
X113846363Y-124382720D01*
X113840639Y-124372012D01*
X113688511Y-124050363D01*
X113683867Y-124039151D01*
X113564000Y-123704147D01*
X113560473Y-123692518D01*
X113474023Y-123347389D01*
X113471652Y-123335467D01*
X113419449Y-122983542D01*
X113418256Y-122971431D01*
X113400649Y-122613032D01*
X113400500Y-122606948D01*
X113400500Y-122441491D01*
X114149500Y-122441491D01*
X114149500Y-122778508D01*
X114187231Y-123113381D01*
X114187233Y-123113397D01*
X114262223Y-123441953D01*
X114262227Y-123441965D01*
X114373532Y-123760054D01*
X114519752Y-124063683D01*
X114519754Y-124063686D01*
X114699054Y-124349039D01*
X114909175Y-124612523D01*
X115147477Y-124850825D01*
X115410961Y-125060946D01*
X115696314Y-125240246D01*
X115999949Y-125386469D01*
X116238848Y-125470063D01*
X116318034Y-125497772D01*
X116318046Y-125497776D01*
X116646606Y-125572767D01*
X116981492Y-125610499D01*
X116981493Y-125610500D01*
X116981496Y-125610500D01*
X117318507Y-125610500D01*
X117318507Y-125610499D01*
X117653394Y-125572767D01*
X117981954Y-125497776D01*
X118300051Y-125386469D01*
X118603686Y-125240246D01*
X118889039Y-125060946D01*
X119152523Y-124850825D01*
X119390825Y-124612523D01*
X119600946Y-124349039D01*
X119780246Y-124063686D01*
X119926469Y-123760051D01*
X120037776Y-123441954D01*
X120112767Y-123113394D01*
X120150500Y-122778504D01*
X120150500Y-122441496D01*
X120112767Y-122106606D01*
X120037776Y-121778046D01*
X119926469Y-121459949D01*
X119780246Y-121156314D01*
X119600946Y-120870961D01*
X119535354Y-120788711D01*
X125249500Y-120788711D01*
X125249500Y-121031288D01*
X125281161Y-121271785D01*
X125343947Y-121506104D01*
X125436773Y-121730205D01*
X125436776Y-121730212D01*
X125558064Y-121940289D01*
X125558066Y-121940292D01*
X125558067Y-121940293D01*
X125705733Y-122132736D01*
X125705739Y-122132743D01*
X125877256Y-122304260D01*
X125877262Y-122304265D01*
X126069711Y-122451936D01*
X126279788Y-122573224D01*
X126503900Y-122666054D01*
X126738211Y-122728838D01*
X126918586Y-122752584D01*
X126978711Y-122760500D01*
X126978712Y-122760500D01*
X127221289Y-122760500D01*
X127269388Y-122754167D01*
X127461789Y-122728838D01*
X127696100Y-122666054D01*
X127920212Y-122573224D01*
X128130289Y-122451936D01*
X128322738Y-122304265D01*
X128494265Y-122132738D01*
X128641936Y-121940289D01*
X128763224Y-121730212D01*
X128856054Y-121506100D01*
X128918838Y-121271789D01*
X128950500Y-121031288D01*
X128950500Y-120788712D01*
X128950500Y-120788711D01*
X137949500Y-120788711D01*
X137949500Y-121031288D01*
X137981161Y-121271785D01*
X138043947Y-121506104D01*
X138136773Y-121730205D01*
X138136776Y-121730212D01*
X138258064Y-121940289D01*
X138258066Y-121940292D01*
X138258067Y-121940293D01*
X138405733Y-122132736D01*
X138405739Y-122132743D01*
X138577256Y-122304260D01*
X138577262Y-122304265D01*
X138769711Y-122451936D01*
X138979788Y-122573224D01*
X139203900Y-122666054D01*
X139438211Y-122728838D01*
X139618586Y-122752584D01*
X139678711Y-122760500D01*
X139678712Y-122760500D01*
X139921289Y-122760500D01*
X139969388Y-122754167D01*
X140161789Y-122728838D01*
X140396100Y-122666054D01*
X140620212Y-122573224D01*
X140830289Y-122451936D01*
X141022738Y-122304265D01*
X141194265Y-122132738D01*
X141341936Y-121940289D01*
X141463224Y-121730212D01*
X141556054Y-121506100D01*
X141618838Y-121271789D01*
X141650500Y-121031288D01*
X141650500Y-120788712D01*
X141618838Y-120548211D01*
X141556054Y-120313900D01*
X141463224Y-120089788D01*
X141341936Y-119879711D01*
X141221092Y-119722224D01*
X141194266Y-119687263D01*
X141194260Y-119687256D01*
X141022743Y-119515739D01*
X141022736Y-119515733D01*
X140830293Y-119368067D01*
X140830292Y-119368066D01*
X140830289Y-119368064D01*
X140620212Y-119246776D01*
X140620205Y-119246773D01*
X140396104Y-119153947D01*
X140161785Y-119091161D01*
X139921289Y-119059500D01*
X139921288Y-119059500D01*
X139678712Y-119059500D01*
X139678711Y-119059500D01*
X139438214Y-119091161D01*
X139203895Y-119153947D01*
X138979794Y-119246773D01*
X138979785Y-119246777D01*
X138769706Y-119368067D01*
X138577263Y-119515733D01*
X138577256Y-119515739D01*
X138405739Y-119687256D01*
X138405733Y-119687263D01*
X138258067Y-119879706D01*
X138136777Y-120089785D01*
X138136773Y-120089794D01*
X138043947Y-120313895D01*
X137981161Y-120548214D01*
X137949500Y-120788711D01*
X128950500Y-120788711D01*
X128918838Y-120548211D01*
X128856054Y-120313900D01*
X128763224Y-120089788D01*
X128641936Y-119879711D01*
X128521092Y-119722224D01*
X128494266Y-119687263D01*
X128494260Y-119687256D01*
X128322743Y-119515739D01*
X128322736Y-119515733D01*
X128130293Y-119368067D01*
X128130292Y-119368066D01*
X128130289Y-119368064D01*
X127920212Y-119246776D01*
X127920205Y-119246773D01*
X127696104Y-119153947D01*
X127461785Y-119091161D01*
X127221289Y-119059500D01*
X127221288Y-119059500D01*
X126978712Y-119059500D01*
X126978711Y-119059500D01*
X126738214Y-119091161D01*
X126503895Y-119153947D01*
X126279794Y-119246773D01*
X126279785Y-119246777D01*
X126069706Y-119368067D01*
X125877263Y-119515733D01*
X125877256Y-119515739D01*
X125705739Y-119687256D01*
X125705733Y-119687263D01*
X125558067Y-119879706D01*
X125436777Y-120089785D01*
X125436773Y-120089794D01*
X125343947Y-120313895D01*
X125281161Y-120548214D01*
X125249500Y-120788711D01*
X119535354Y-120788711D01*
X119390825Y-120607477D01*
X119152523Y-120369175D01*
X118889039Y-120159054D01*
X118603686Y-119979754D01*
X118603683Y-119979752D01*
X118300054Y-119833532D01*
X117981965Y-119722227D01*
X117981953Y-119722223D01*
X117653397Y-119647233D01*
X117653381Y-119647231D01*
X117318508Y-119609500D01*
X117318504Y-119609500D01*
X116981496Y-119609500D01*
X116981491Y-119609500D01*
X116646618Y-119647231D01*
X116646602Y-119647233D01*
X116318046Y-119722223D01*
X116318034Y-119722227D01*
X115999945Y-119833532D01*
X115696316Y-119979752D01*
X115410962Y-120159053D01*
X115147477Y-120369174D01*
X114909174Y-120607477D01*
X114699053Y-120870962D01*
X114519752Y-121156316D01*
X114373532Y-121459945D01*
X114262227Y-121778034D01*
X114262223Y-121778046D01*
X114187233Y-122106602D01*
X114187231Y-122106618D01*
X114149500Y-122441491D01*
X113400500Y-122441491D01*
X113400500Y-117367599D01*
X123605000Y-117367599D01*
X123605000Y-117592400D01*
X123605001Y-117592417D01*
X123634342Y-117815287D01*
X123634345Y-117815300D01*
X123692529Y-118032450D01*
X123778561Y-118240149D01*
X123778566Y-118240160D01*
X123890963Y-118434836D01*
X123890969Y-118434844D01*
X123943343Y-118503101D01*
X124596499Y-117849945D01*
X124602188Y-117863679D01*
X124690832Y-117996345D01*
X124803655Y-118109168D01*
X124936321Y-118197812D01*
X124950053Y-118203500D01*
X124296897Y-118856655D01*
X124296897Y-118856656D01*
X124365155Y-118909030D01*
X124365163Y-118909036D01*
X124559839Y-119021433D01*
X124559850Y-119021438D01*
X124767549Y-119107470D01*
X124984699Y-119165654D01*
X124984712Y-119165657D01*
X125207582Y-119194998D01*
X125207600Y-119195000D01*
X125432400Y-119195000D01*
X125432417Y-119194998D01*
X125655287Y-119165657D01*
X125655300Y-119165654D01*
X125872450Y-119107470D01*
X126080149Y-119021438D01*
X126080160Y-119021433D01*
X126274839Y-118909034D01*
X126274847Y-118909028D01*
X126343101Y-118856655D01*
X125689946Y-118203500D01*
X125703679Y-118197812D01*
X125836345Y-118109168D01*
X125949168Y-117996345D01*
X126037812Y-117863679D01*
X126043500Y-117849946D01*
X126696655Y-118503101D01*
X126749028Y-118434847D01*
X126749034Y-118434839D01*
X126861433Y-118240160D01*
X126861438Y-118240149D01*
X126947470Y-118032450D01*
X127005654Y-117815300D01*
X127005657Y-117815287D01*
X127034998Y-117592417D01*
X127035000Y-117592400D01*
X127035000Y-117367599D01*
X127034998Y-117367582D01*
X127005657Y-117144712D01*
X127005654Y-117144699D01*
X126947470Y-116927549D01*
X126861438Y-116719850D01*
X126861433Y-116719839D01*
X126766179Y-116554855D01*
X126766178Y-116554854D01*
X126749032Y-116525156D01*
X126749030Y-116525155D01*
X126728915Y-116498940D01*
X128969500Y-116498940D01*
X128969500Y-116681059D01*
X129005026Y-116859659D01*
X129005028Y-116859667D01*
X129074717Y-117027912D01*
X129074722Y-117027921D01*
X129175893Y-117179333D01*
X129175896Y-117179337D01*
X129304662Y-117308103D01*
X129304666Y-117308106D01*
X129456078Y-117409277D01*
X129456084Y-117409280D01*
X129456085Y-117409281D01*
X129624333Y-117478972D01*
X129747966Y-117503564D01*
X129802940Y-117514499D01*
X129802944Y-117514500D01*
X129802945Y-117514500D01*
X129985056Y-117514500D01*
X129985057Y-117514499D01*
X130050677Y-117501447D01*
X130169642Y-117477784D01*
X130169876Y-117478960D01*
X130233382Y-117478388D01*
X130292498Y-117515631D01*
X130322095Y-117578922D01*
X130312775Y-117648167D01*
X130287203Y-117685356D01*
X130191893Y-117780666D01*
X130090722Y-117932078D01*
X130090717Y-117932087D01*
X130021028Y-118100332D01*
X130021026Y-118100340D01*
X129985500Y-118278940D01*
X129985500Y-118461059D01*
X130021026Y-118639659D01*
X130021028Y-118639667D01*
X130090717Y-118807912D01*
X130090722Y-118807921D01*
X130191893Y-118959333D01*
X130191896Y-118959337D01*
X130320662Y-119088103D01*
X130320666Y-119088106D01*
X130472078Y-119189277D01*
X130472084Y-119189280D01*
X130472085Y-119189281D01*
X130640333Y-119258972D01*
X130760462Y-119282867D01*
X130818940Y-119294499D01*
X130818944Y-119294500D01*
X130818945Y-119294500D01*
X131001056Y-119294500D01*
X131001057Y-119294499D01*
X131179667Y-119258972D01*
X131347915Y-119189281D01*
X131499334Y-119088106D01*
X131628106Y-118959334D01*
X131729281Y-118807915D01*
X131798972Y-118639667D01*
X131804383Y-118612466D01*
X131836767Y-118550555D01*
X131897483Y-118515981D01*
X131967253Y-118519720D01*
X132023925Y-118560586D01*
X132047617Y-118612466D01*
X132053026Y-118639659D01*
X132053028Y-118639667D01*
X132122717Y-118807912D01*
X132122722Y-118807921D01*
X132223893Y-118959333D01*
X132223896Y-118959337D01*
X132352662Y-119088103D01*
X132352666Y-119088106D01*
X132504078Y-119189277D01*
X132504084Y-119189280D01*
X132504085Y-119189281D01*
X132672333Y-119258972D01*
X132792462Y-119282867D01*
X132850940Y-119294499D01*
X132850944Y-119294500D01*
X132850945Y-119294500D01*
X133033056Y-119294500D01*
X133033057Y-119294499D01*
X133211667Y-119258972D01*
X133379915Y-119189281D01*
X133531334Y-119088106D01*
X133660106Y-118959334D01*
X133678985Y-118931078D01*
X133732596Y-118886273D01*
X133801920Y-118877564D01*
X133864948Y-118907718D01*
X133892572Y-118943672D01*
X133927139Y-119011511D01*
X133948934Y-119041511D01*
X134515531Y-118474914D01*
X134536029Y-118551413D01*
X134597906Y-118658587D01*
X134685413Y-118746094D01*
X134792587Y-118807971D01*
X134869084Y-118828468D01*
X134302486Y-119395064D01*
X134302487Y-119395065D01*
X134332473Y-119416851D01*
X134332482Y-119416857D01*
X134504144Y-119504323D01*
X134687382Y-119563861D01*
X134687381Y-119563861D01*
X134877670Y-119594000D01*
X135070330Y-119594000D01*
X135260618Y-119563861D01*
X135443855Y-119504323D01*
X135615516Y-119416858D01*
X135645511Y-119395065D01*
X135645511Y-119395064D01*
X135078915Y-118828467D01*
X135155413Y-118807971D01*
X135262587Y-118746094D01*
X135350094Y-118658587D01*
X135411971Y-118551413D01*
X135432468Y-118474915D01*
X136014722Y-119057169D01*
X136024610Y-119059247D01*
X136074367Y-119108298D01*
X136087578Y-119144308D01*
X136093132Y-119172229D01*
X136093132Y-119172230D01*
X136137447Y-119238552D01*
X136203769Y-119282867D01*
X136203770Y-119282868D01*
X136262247Y-119294499D01*
X136262250Y-119294500D01*
X136262252Y-119294500D01*
X137749750Y-119294500D01*
X137749751Y-119294499D01*
X137764568Y-119291552D01*
X137808229Y-119282868D01*
X137808229Y-119282867D01*
X137808231Y-119282867D01*
X137874552Y-119238552D01*
X137918867Y-119172231D01*
X137918867Y-119172229D01*
X137918868Y-119172229D01*
X137930499Y-119113752D01*
X137930500Y-119113750D01*
X137930500Y-117626249D01*
X137930499Y-117626247D01*
X137918868Y-117567770D01*
X137918867Y-117567769D01*
X137874552Y-117501447D01*
X137822453Y-117466636D01*
X137822452Y-117466635D01*
X137808231Y-117457132D01*
X137808229Y-117457131D01*
X137749752Y-117445500D01*
X137749748Y-117445500D01*
X136741303Y-117445500D01*
X136674264Y-117425815D01*
X136628509Y-117373011D01*
X136627731Y-117367599D01*
X139865000Y-117367599D01*
X139865000Y-117592400D01*
X139865001Y-117592417D01*
X139894342Y-117815287D01*
X139894345Y-117815300D01*
X139952529Y-118032450D01*
X140038561Y-118240149D01*
X140038566Y-118240160D01*
X140150963Y-118434836D01*
X140150969Y-118434844D01*
X140203343Y-118503101D01*
X140856499Y-117849945D01*
X140862188Y-117863679D01*
X140950832Y-117996345D01*
X141063655Y-118109168D01*
X141196321Y-118197812D01*
X141210053Y-118203500D01*
X140556897Y-118856655D01*
X140556897Y-118856656D01*
X140625155Y-118909030D01*
X140625163Y-118909036D01*
X140819839Y-119021433D01*
X140819850Y-119021438D01*
X141027549Y-119107470D01*
X141244699Y-119165654D01*
X141244712Y-119165657D01*
X141467582Y-119194998D01*
X141467600Y-119195000D01*
X141692400Y-119195000D01*
X141692417Y-119194998D01*
X141915287Y-119165657D01*
X141915300Y-119165654D01*
X142132450Y-119107470D01*
X142340149Y-119021438D01*
X142340160Y-119021433D01*
X142534839Y-118909034D01*
X142534847Y-118909028D01*
X142603101Y-118856655D01*
X141949946Y-118203500D01*
X141963679Y-118197812D01*
X142096345Y-118109168D01*
X142209168Y-117996345D01*
X142297812Y-117863679D01*
X142303500Y-117849946D01*
X142956655Y-118503101D01*
X143009028Y-118434847D01*
X143009034Y-118434839D01*
X143121433Y-118240160D01*
X143121438Y-118240149D01*
X143207470Y-118032450D01*
X143265654Y-117815300D01*
X143265657Y-117815287D01*
X143294998Y-117592417D01*
X143295000Y-117592400D01*
X143295000Y-117367599D01*
X143294998Y-117367582D01*
X143265657Y-117144712D01*
X143265654Y-117144699D01*
X143207470Y-116927549D01*
X143121438Y-116719850D01*
X143121433Y-116719839D01*
X143009036Y-116525163D01*
X143009030Y-116525155D01*
X142956655Y-116456897D01*
X142303499Y-117110052D01*
X142297812Y-117096321D01*
X142209168Y-116963655D01*
X142096345Y-116850832D01*
X141963679Y-116762188D01*
X141949946Y-116756499D01*
X142603101Y-116103343D01*
X142603101Y-116103342D01*
X142534844Y-116050969D01*
X142534836Y-116050963D01*
X142340160Y-115938566D01*
X142340149Y-115938561D01*
X142132450Y-115852529D01*
X141915300Y-115794345D01*
X141915287Y-115794342D01*
X141692417Y-115765001D01*
X141692400Y-115765000D01*
X141467600Y-115765000D01*
X141467582Y-115765001D01*
X141244712Y-115794342D01*
X141244699Y-115794345D01*
X141027549Y-115852529D01*
X140819850Y-115938561D01*
X140819839Y-115938566D01*
X140625161Y-116050964D01*
X140625146Y-116050974D01*
X140556896Y-116103343D01*
X141210053Y-116756499D01*
X141196321Y-116762188D01*
X141063655Y-116850832D01*
X140950832Y-116963655D01*
X140862188Y-117096321D01*
X140856499Y-117110052D01*
X140203343Y-116456896D01*
X140150974Y-116525146D01*
X140150964Y-116525161D01*
X140038566Y-116719839D01*
X140038561Y-116719850D01*
X139952529Y-116927549D01*
X139894345Y-117144699D01*
X139894342Y-117144712D01*
X139865001Y-117367582D01*
X139865000Y-117367599D01*
X136627731Y-117367599D01*
X136618565Y-117303853D01*
X136647590Y-117240297D01*
X136653622Y-117233819D01*
X136708103Y-117179337D01*
X136708106Y-117179334D01*
X136809281Y-117027915D01*
X136878972Y-116859667D01*
X136914500Y-116681055D01*
X136914500Y-116498945D01*
X136878972Y-116320333D01*
X136809281Y-116152085D01*
X136809280Y-116152084D01*
X136809277Y-116152078D01*
X136708106Y-116000666D01*
X136708103Y-116000662D01*
X136579337Y-115871896D01*
X136579333Y-115871893D01*
X136427921Y-115770722D01*
X136427912Y-115770717D01*
X136259667Y-115701028D01*
X136259659Y-115701026D01*
X136081059Y-115665500D01*
X136081055Y-115665500D01*
X135898945Y-115665500D01*
X135898940Y-115665500D01*
X135720340Y-115701026D01*
X135720332Y-115701028D01*
X135552087Y-115770717D01*
X135552078Y-115770722D01*
X135400666Y-115871893D01*
X135400662Y-115871896D01*
X135271896Y-116000662D01*
X135271893Y-116000666D01*
X135170722Y-116152078D01*
X135170717Y-116152087D01*
X135101028Y-116320332D01*
X135101026Y-116320340D01*
X135095617Y-116347533D01*
X135063232Y-116409444D01*
X135002516Y-116444019D01*
X134932747Y-116440279D01*
X134876075Y-116399412D01*
X134852383Y-116347533D01*
X134846973Y-116320340D01*
X134846972Y-116320333D01*
X134777281Y-116152085D01*
X134777280Y-116152084D01*
X134777277Y-116152078D01*
X134676106Y-116000666D01*
X134676103Y-116000662D01*
X134547337Y-115871896D01*
X134547333Y-115871893D01*
X134395921Y-115770722D01*
X134395912Y-115770717D01*
X134227667Y-115701028D01*
X134227659Y-115701026D01*
X134049059Y-115665500D01*
X134049055Y-115665500D01*
X133866945Y-115665500D01*
X133866940Y-115665500D01*
X133688340Y-115701026D01*
X133688332Y-115701028D01*
X133520087Y-115770717D01*
X133520078Y-115770722D01*
X133368666Y-115871893D01*
X133368662Y-115871896D01*
X133239896Y-116000662D01*
X133239893Y-116000666D01*
X133138722Y-116152078D01*
X133138717Y-116152087D01*
X133069028Y-116320332D01*
X133069026Y-116320340D01*
X133063617Y-116347533D01*
X133031232Y-116409444D01*
X132970516Y-116444019D01*
X132900747Y-116440279D01*
X132844075Y-116399412D01*
X132820383Y-116347533D01*
X132814973Y-116320340D01*
X132814972Y-116320333D01*
X132745281Y-116152085D01*
X132745280Y-116152084D01*
X132745277Y-116152078D01*
X132644106Y-116000666D01*
X132644103Y-116000662D01*
X132515337Y-115871896D01*
X132515333Y-115871893D01*
X132363921Y-115770722D01*
X132363912Y-115770717D01*
X132195667Y-115701028D01*
X132195659Y-115701026D01*
X132017059Y-115665500D01*
X132017055Y-115665500D01*
X131834945Y-115665500D01*
X131834940Y-115665500D01*
X131656340Y-115701026D01*
X131656332Y-115701028D01*
X131488087Y-115770717D01*
X131488078Y-115770722D01*
X131336666Y-115871893D01*
X131336662Y-115871896D01*
X131207896Y-116000662D01*
X131207893Y-116000666D01*
X131106722Y-116152078D01*
X131106717Y-116152087D01*
X131037028Y-116320332D01*
X131037026Y-116320340D01*
X131031617Y-116347533D01*
X130999232Y-116409444D01*
X130938516Y-116444019D01*
X130868747Y-116440279D01*
X130812075Y-116399412D01*
X130788383Y-116347533D01*
X130782973Y-116320340D01*
X130782972Y-116320333D01*
X130713281Y-116152085D01*
X130713280Y-116152084D01*
X130713277Y-116152078D01*
X130612106Y-116000666D01*
X130612103Y-116000662D01*
X130483337Y-115871896D01*
X130483333Y-115871893D01*
X130331921Y-115770722D01*
X130331912Y-115770717D01*
X130163667Y-115701028D01*
X130163659Y-115701026D01*
X129985059Y-115665500D01*
X129985055Y-115665500D01*
X129802945Y-115665500D01*
X129802940Y-115665500D01*
X129624340Y-115701026D01*
X129624332Y-115701028D01*
X129456087Y-115770717D01*
X129456078Y-115770722D01*
X129304666Y-115871893D01*
X129304662Y-115871896D01*
X129175896Y-116000662D01*
X129175893Y-116000666D01*
X129074722Y-116152078D01*
X129074717Y-116152087D01*
X129005028Y-116320332D01*
X129005026Y-116320340D01*
X128969500Y-116498940D01*
X126728915Y-116498940D01*
X126696655Y-116456897D01*
X126043499Y-117110052D01*
X126037812Y-117096321D01*
X125949168Y-116963655D01*
X125836345Y-116850832D01*
X125703679Y-116762188D01*
X125689946Y-116756499D01*
X126343101Y-116103343D01*
X126343101Y-116103342D01*
X126274844Y-116050969D01*
X126274836Y-116050963D01*
X126080160Y-115938566D01*
X126080149Y-115938561D01*
X125872450Y-115852529D01*
X125655300Y-115794345D01*
X125655287Y-115794342D01*
X125432417Y-115765001D01*
X125432400Y-115765000D01*
X125207600Y-115765000D01*
X125207582Y-115765001D01*
X124984712Y-115794342D01*
X124984699Y-115794345D01*
X124767549Y-115852529D01*
X124559850Y-115938561D01*
X124559839Y-115938566D01*
X124365161Y-116050964D01*
X124365146Y-116050974D01*
X124296896Y-116103343D01*
X124950053Y-116756499D01*
X124936321Y-116762188D01*
X124803655Y-116850832D01*
X124690832Y-116963655D01*
X124602188Y-117096321D01*
X124596499Y-117110052D01*
X123943343Y-116456896D01*
X123890974Y-116525146D01*
X123890964Y-116525161D01*
X123778566Y-116719839D01*
X123778561Y-116719850D01*
X123692529Y-116927549D01*
X123634345Y-117144699D01*
X123634342Y-117144712D01*
X123605001Y-117367582D01*
X123605000Y-117367599D01*
X113400500Y-117367599D01*
X113400500Y-110147399D01*
X133574500Y-110147399D01*
X133574500Y-110272601D01*
X133606905Y-110393536D01*
X133669505Y-110501964D01*
X133758036Y-110590495D01*
X133866464Y-110653095D01*
X133987399Y-110685500D01*
X133987401Y-110685500D01*
X134112599Y-110685500D01*
X134112601Y-110685500D01*
X134233536Y-110653095D01*
X134341964Y-110590495D01*
X134430495Y-110501964D01*
X134493095Y-110393536D01*
X134525500Y-110272601D01*
X134525500Y-110147399D01*
X134493095Y-110026464D01*
X134430495Y-109918036D01*
X134341964Y-109829505D01*
X134233536Y-109766905D01*
X134233537Y-109766905D01*
X134193224Y-109756103D01*
X134112601Y-109734500D01*
X133987399Y-109734500D01*
X133906775Y-109756103D01*
X133866463Y-109766905D01*
X133758037Y-109829504D01*
X133758034Y-109829506D01*
X133669506Y-109918034D01*
X133669504Y-109918037D01*
X133606905Y-110026463D01*
X133606905Y-110026464D01*
X133574500Y-110147399D01*
X113400500Y-110147399D01*
X113400500Y-106185985D01*
X140245500Y-106185985D01*
X140245500Y-106374014D01*
X140282179Y-106558409D01*
X140282182Y-106558421D01*
X140354129Y-106732118D01*
X140354136Y-106732131D01*
X140458591Y-106888457D01*
X140458594Y-106888461D01*
X140591538Y-107021405D01*
X140591542Y-107021408D01*
X140747868Y-107125863D01*
X140747881Y-107125870D01*
X140921578Y-107197817D01*
X140921583Y-107197819D01*
X141105985Y-107234499D01*
X141105988Y-107234500D01*
X141105990Y-107234500D01*
X141294012Y-107234500D01*
X141294013Y-107234499D01*
X141478417Y-107197819D01*
X141652125Y-107125867D01*
X141808458Y-107021408D01*
X141941408Y-106888458D01*
X142045867Y-106732125D01*
X142117819Y-106558417D01*
X142154500Y-106374010D01*
X142154500Y-106185990D01*
X142154500Y-106185987D01*
X142154499Y-106185985D01*
X142117820Y-106001590D01*
X142117819Y-106001583D01*
X142071805Y-105890495D01*
X142045870Y-105827881D01*
X142045863Y-105827868D01*
X141941408Y-105671542D01*
X141941405Y-105671538D01*
X141808461Y-105538594D01*
X141808457Y-105538591D01*
X141652131Y-105434136D01*
X141652118Y-105434129D01*
X141478421Y-105362182D01*
X141478409Y-105362179D01*
X141294013Y-105325500D01*
X141294010Y-105325500D01*
X141105990Y-105325500D01*
X141105987Y-105325500D01*
X140921590Y-105362179D01*
X140921578Y-105362182D01*
X140747881Y-105434129D01*
X140747868Y-105434136D01*
X140591542Y-105538591D01*
X140591538Y-105538594D01*
X140458594Y-105671538D01*
X140458591Y-105671542D01*
X140354136Y-105827868D01*
X140354129Y-105827881D01*
X140282182Y-106001578D01*
X140282179Y-106001590D01*
X140245500Y-106185985D01*
X113400500Y-106185985D01*
X113400500Y-105447399D01*
X133574500Y-105447399D01*
X133574500Y-105572601D01*
X133606905Y-105693536D01*
X133669505Y-105801964D01*
X133758036Y-105890495D01*
X133866464Y-105953095D01*
X133987399Y-105985500D01*
X133987401Y-105985500D01*
X134112599Y-105985500D01*
X134112601Y-105985500D01*
X134233536Y-105953095D01*
X134341964Y-105890495D01*
X134430495Y-105801964D01*
X134493095Y-105693536D01*
X134525500Y-105572601D01*
X134525500Y-105447399D01*
X134493095Y-105326464D01*
X134430495Y-105218036D01*
X134341964Y-105129505D01*
X134233536Y-105066905D01*
X134233537Y-105066905D01*
X134193224Y-105056103D01*
X134112601Y-105034500D01*
X133987399Y-105034500D01*
X133906775Y-105056103D01*
X133866463Y-105066905D01*
X133758037Y-105129504D01*
X133758034Y-105129506D01*
X133669506Y-105218034D01*
X133669504Y-105218037D01*
X133606905Y-105326463D01*
X133606905Y-105326464D01*
X133574500Y-105447399D01*
X113400500Y-105447399D01*
X113400500Y-102734000D01*
X113420185Y-102666961D01*
X113472989Y-102621206D01*
X113524500Y-102610000D01*
X140379436Y-102610000D01*
X140446475Y-102629685D01*
G37*
%TD.AperFunction*%
%TD*%
%TA.AperFunction,Conductor*%
%TO.N,GND_CAN1*%
G36*
X192842539Y-95579685D02*
G01*
X192888294Y-95632489D01*
X192899500Y-95684000D01*
X192899500Y-122606948D01*
X192899351Y-122613033D01*
X192881743Y-122971432D01*
X192880550Y-122983542D01*
X192828347Y-123335467D01*
X192825973Y-123347402D01*
X192739526Y-123692518D01*
X192735994Y-123704162D01*
X192616142Y-124039127D01*
X192611485Y-124050370D01*
X192459366Y-124372000D01*
X192453629Y-124382732D01*
X192270729Y-124687881D01*
X192263969Y-124697999D01*
X192052028Y-124983769D01*
X192044308Y-124993175D01*
X191805388Y-125256783D01*
X191796783Y-125265388D01*
X191533175Y-125504308D01*
X191523769Y-125512028D01*
X191237999Y-125723969D01*
X191227881Y-125730729D01*
X190922732Y-125913629D01*
X190912000Y-125919366D01*
X190590370Y-126071485D01*
X190579134Y-126076139D01*
X190455442Y-126120397D01*
X190244162Y-126195994D01*
X190232518Y-126199526D01*
X189887402Y-126285973D01*
X189875467Y-126288347D01*
X189523542Y-126340550D01*
X189511432Y-126341743D01*
X189173927Y-126358324D01*
X189153031Y-126359351D01*
X189146949Y-126359500D01*
X150274000Y-126359500D01*
X150206961Y-126339815D01*
X150161206Y-126287011D01*
X150150000Y-126235500D01*
X150150000Y-122441491D01*
X186149500Y-122441491D01*
X186149500Y-122778508D01*
X186187231Y-123113381D01*
X186187233Y-123113397D01*
X186262223Y-123441953D01*
X186262227Y-123441965D01*
X186373532Y-123760054D01*
X186519752Y-124063683D01*
X186519754Y-124063686D01*
X186699054Y-124349039D01*
X186909175Y-124612523D01*
X187147477Y-124850825D01*
X187410961Y-125060946D01*
X187696314Y-125240246D01*
X187999949Y-125386469D01*
X188238848Y-125470063D01*
X188318034Y-125497772D01*
X188318046Y-125497776D01*
X188646606Y-125572767D01*
X188981492Y-125610499D01*
X188981493Y-125610500D01*
X188981496Y-125610500D01*
X189318507Y-125610500D01*
X189318507Y-125610499D01*
X189653394Y-125572767D01*
X189981954Y-125497776D01*
X190300051Y-125386469D01*
X190603686Y-125240246D01*
X190889039Y-125060946D01*
X191152523Y-124850825D01*
X191390825Y-124612523D01*
X191600946Y-124349039D01*
X191780246Y-124063686D01*
X191926469Y-123760051D01*
X192037776Y-123441954D01*
X192112767Y-123113394D01*
X192150500Y-122778504D01*
X192150500Y-122441496D01*
X192112767Y-122106606D01*
X192037776Y-121778046D01*
X191926469Y-121459949D01*
X191780246Y-121156314D01*
X191600946Y-120870961D01*
X191390825Y-120607477D01*
X191152523Y-120369175D01*
X190889039Y-120159054D01*
X190603686Y-119979754D01*
X190603683Y-119979752D01*
X190300054Y-119833532D01*
X189981965Y-119722227D01*
X189981953Y-119722223D01*
X189653397Y-119647233D01*
X189653381Y-119647231D01*
X189318508Y-119609500D01*
X189318504Y-119609500D01*
X188981496Y-119609500D01*
X188981491Y-119609500D01*
X188646618Y-119647231D01*
X188646602Y-119647233D01*
X188318046Y-119722223D01*
X188318034Y-119722227D01*
X187999945Y-119833532D01*
X187696316Y-119979752D01*
X187410962Y-120159053D01*
X187147477Y-120369174D01*
X186909174Y-120607477D01*
X186699053Y-120870962D01*
X186519752Y-121156316D01*
X186373532Y-121459945D01*
X186262227Y-121778034D01*
X186262223Y-121778046D01*
X186187233Y-122106602D01*
X186187231Y-122106618D01*
X186149500Y-122441491D01*
X150150000Y-122441491D01*
X150150000Y-116480730D01*
X154649500Y-116480730D01*
X154649500Y-118039269D01*
X154652353Y-118069699D01*
X154652353Y-118069701D01*
X154697206Y-118197880D01*
X154697207Y-118197882D01*
X154777850Y-118307150D01*
X154887118Y-118387793D01*
X154908089Y-118395131D01*
X155015299Y-118432646D01*
X155045730Y-118435500D01*
X155045734Y-118435500D01*
X156354270Y-118435500D01*
X156384699Y-118432646D01*
X156384701Y-118432646D01*
X156448790Y-118410219D01*
X156512882Y-118387793D01*
X156622150Y-118307150D01*
X156702793Y-118197882D01*
X156739648Y-118092557D01*
X156747646Y-118069701D01*
X156747646Y-118069699D01*
X156750500Y-118039269D01*
X156750500Y-117031530D01*
X157149500Y-117031530D01*
X157149500Y-117488469D01*
X157189868Y-117691412D01*
X157189870Y-117691420D01*
X157207921Y-117735000D01*
X157269059Y-117882598D01*
X157282836Y-117903217D01*
X157384024Y-118054657D01*
X157530342Y-118200975D01*
X157530345Y-118200977D01*
X157702402Y-118315941D01*
X157893580Y-118395130D01*
X158082187Y-118432646D01*
X158096530Y-118435499D01*
X158096534Y-118435500D01*
X158096535Y-118435500D01*
X158303466Y-118435500D01*
X158303467Y-118435499D01*
X158506420Y-118395130D01*
X158697598Y-118315941D01*
X158869655Y-118200977D01*
X159015977Y-118054655D01*
X159130941Y-117882598D01*
X159176748Y-117772009D01*
X159220589Y-117717606D01*
X159286883Y-117695541D01*
X159354582Y-117712820D01*
X159402193Y-117763957D01*
X159409240Y-117781144D01*
X159448904Y-117903216D01*
X159545379Y-118092557D01*
X159670272Y-118264459D01*
X159670276Y-118264464D01*
X159820535Y-118414723D01*
X159820540Y-118414727D01*
X159992442Y-118539620D01*
X160181782Y-118636095D01*
X160383871Y-118701757D01*
X160450000Y-118712231D01*
X160450000Y-117664145D01*
X160516657Y-117702630D01*
X160637465Y-117735000D01*
X160762535Y-117735000D01*
X160883343Y-117702630D01*
X160950000Y-117664145D01*
X160950000Y-118712230D01*
X161016126Y-118701757D01*
X161016129Y-118701757D01*
X161218217Y-118636095D01*
X161407557Y-118539620D01*
X161579459Y-118414727D01*
X161579464Y-118414723D01*
X161729723Y-118264464D01*
X161729727Y-118264459D01*
X161854620Y-118092557D01*
X161951095Y-117903217D01*
X161990759Y-117781144D01*
X162030196Y-117723469D01*
X162094555Y-117696270D01*
X162163401Y-117708184D01*
X162214877Y-117755428D01*
X162223251Y-117772009D01*
X162269057Y-117882596D01*
X162384024Y-118054657D01*
X162530342Y-118200975D01*
X162530345Y-118200977D01*
X162702402Y-118315941D01*
X162893580Y-118395130D01*
X163082187Y-118432646D01*
X163096530Y-118435499D01*
X163096534Y-118435500D01*
X163096535Y-118435500D01*
X163303466Y-118435500D01*
X163303467Y-118435499D01*
X163506420Y-118395130D01*
X163697598Y-118315941D01*
X163869655Y-118200977D01*
X164015977Y-118054655D01*
X164130941Y-117882598D01*
X164210130Y-117691420D01*
X164250500Y-117488465D01*
X164250500Y-117031535D01*
X164210130Y-116828580D01*
X164130941Y-116637402D01*
X164070353Y-116546725D01*
X164070352Y-116546722D01*
X164026257Y-116480730D01*
X170249500Y-116480730D01*
X170249500Y-118039269D01*
X170252353Y-118069699D01*
X170252353Y-118069701D01*
X170297206Y-118197880D01*
X170297207Y-118197882D01*
X170377850Y-118307150D01*
X170487118Y-118387793D01*
X170508089Y-118395131D01*
X170615299Y-118432646D01*
X170645730Y-118435500D01*
X170645734Y-118435500D01*
X171954270Y-118435500D01*
X171984699Y-118432646D01*
X171984701Y-118432646D01*
X172048790Y-118410219D01*
X172112882Y-118387793D01*
X172222150Y-118307150D01*
X172302793Y-118197882D01*
X172339648Y-118092557D01*
X172347646Y-118069701D01*
X172347646Y-118069699D01*
X172350500Y-118039269D01*
X172350500Y-117031530D01*
X172749500Y-117031530D01*
X172749500Y-117488469D01*
X172789868Y-117691412D01*
X172789870Y-117691420D01*
X172807921Y-117735000D01*
X172869059Y-117882598D01*
X172882836Y-117903217D01*
X172984024Y-118054657D01*
X173130342Y-118200975D01*
X173130345Y-118200977D01*
X173302402Y-118315941D01*
X173493580Y-118395130D01*
X173682187Y-118432646D01*
X173696530Y-118435499D01*
X173696534Y-118435500D01*
X173696535Y-118435500D01*
X173903466Y-118435500D01*
X173903467Y-118435499D01*
X174106420Y-118395130D01*
X174297598Y-118315941D01*
X174469655Y-118200977D01*
X174615977Y-118054655D01*
X174730941Y-117882598D01*
X174776748Y-117772009D01*
X174820589Y-117717606D01*
X174886883Y-117695541D01*
X174954582Y-117712820D01*
X175002193Y-117763957D01*
X175009240Y-117781144D01*
X175048904Y-117903216D01*
X175145379Y-118092557D01*
X175270272Y-118264459D01*
X175270276Y-118264464D01*
X175420535Y-118414723D01*
X175420540Y-118414727D01*
X175592442Y-118539620D01*
X175781782Y-118636095D01*
X175983871Y-118701757D01*
X176050000Y-118712231D01*
X176050000Y-117664145D01*
X176116657Y-117702630D01*
X176237465Y-117735000D01*
X176362535Y-117735000D01*
X176483343Y-117702630D01*
X176550000Y-117664145D01*
X176550000Y-118712230D01*
X176616126Y-118701757D01*
X176616129Y-118701757D01*
X176818217Y-118636095D01*
X177007557Y-118539620D01*
X177179459Y-118414727D01*
X177179464Y-118414723D01*
X177329723Y-118264464D01*
X177329727Y-118264459D01*
X177454620Y-118092557D01*
X177551095Y-117903217D01*
X177590759Y-117781144D01*
X177630196Y-117723469D01*
X177694555Y-117696270D01*
X177763401Y-117708184D01*
X177814877Y-117755428D01*
X177823251Y-117772009D01*
X177869057Y-117882596D01*
X177984024Y-118054657D01*
X178130342Y-118200975D01*
X178130345Y-118200977D01*
X178302402Y-118315941D01*
X178493580Y-118395130D01*
X178682187Y-118432646D01*
X178696530Y-118435499D01*
X178696534Y-118435500D01*
X178696535Y-118435500D01*
X178903466Y-118435500D01*
X178903467Y-118435499D01*
X179106420Y-118395130D01*
X179297598Y-118315941D01*
X179469655Y-118200977D01*
X179615977Y-118054655D01*
X179730941Y-117882598D01*
X179810130Y-117691420D01*
X179850500Y-117488465D01*
X179850500Y-117031535D01*
X179810130Y-116828580D01*
X179730941Y-116637402D01*
X179615977Y-116465345D01*
X179615975Y-116465342D01*
X179469657Y-116319024D01*
X179374638Y-116255535D01*
X179297598Y-116204059D01*
X179106420Y-116124870D01*
X179106412Y-116124868D01*
X178903469Y-116084500D01*
X178903465Y-116084500D01*
X178696535Y-116084500D01*
X178696530Y-116084500D01*
X178493587Y-116124868D01*
X178493579Y-116124870D01*
X178302403Y-116204058D01*
X178130342Y-116319024D01*
X177984024Y-116465342D01*
X177869057Y-116637404D01*
X177823251Y-116747990D01*
X177779409Y-116802394D01*
X177713115Y-116824458D01*
X177645416Y-116807178D01*
X177597806Y-116756041D01*
X177590759Y-116738855D01*
X177551095Y-116616782D01*
X177454620Y-116427442D01*
X177329727Y-116255540D01*
X177329723Y-116255535D01*
X177179464Y-116105276D01*
X177179459Y-116105272D01*
X177007557Y-115980379D01*
X176818215Y-115883903D01*
X176616124Y-115818241D01*
X176550000Y-115807768D01*
X176550000Y-116855854D01*
X176483343Y-116817370D01*
X176362535Y-116785000D01*
X176237465Y-116785000D01*
X176116657Y-116817370D01*
X176050000Y-116855854D01*
X176050000Y-115807768D01*
X176049999Y-115807768D01*
X175983875Y-115818241D01*
X175781784Y-115883903D01*
X175592442Y-115980379D01*
X175420540Y-116105272D01*
X175420535Y-116105276D01*
X175270276Y-116255535D01*
X175270272Y-116255540D01*
X175145379Y-116427442D01*
X175048905Y-116616781D01*
X175009240Y-116738856D01*
X174969802Y-116796531D01*
X174905443Y-116823729D01*
X174836597Y-116811814D01*
X174785121Y-116764570D01*
X174776748Y-116747990D01*
X174772964Y-116738855D01*
X174730941Y-116637402D01*
X174615977Y-116465345D01*
X174615975Y-116465342D01*
X174469657Y-116319024D01*
X174374638Y-116255535D01*
X174297598Y-116204059D01*
X174106420Y-116124870D01*
X174106412Y-116124868D01*
X173903469Y-116084500D01*
X173903465Y-116084500D01*
X173696535Y-116084500D01*
X173696530Y-116084500D01*
X173493587Y-116124868D01*
X173493579Y-116124870D01*
X173302403Y-116204058D01*
X173130342Y-116319024D01*
X172984024Y-116465342D01*
X172869058Y-116637403D01*
X172789870Y-116828579D01*
X172789868Y-116828587D01*
X172749500Y-117031530D01*
X172350500Y-117031530D01*
X172350500Y-116480730D01*
X172347646Y-116450300D01*
X172347646Y-116450298D01*
X172302793Y-116322119D01*
X172302792Y-116322117D01*
X172222150Y-116212850D01*
X172112882Y-116132207D01*
X172112880Y-116132206D01*
X171984700Y-116087353D01*
X171954270Y-116084500D01*
X171954266Y-116084500D01*
X170645734Y-116084500D01*
X170645730Y-116084500D01*
X170615300Y-116087353D01*
X170615298Y-116087353D01*
X170487119Y-116132206D01*
X170487117Y-116132207D01*
X170377850Y-116212850D01*
X170297207Y-116322117D01*
X170297206Y-116322119D01*
X170252353Y-116450298D01*
X170252353Y-116450300D01*
X170249500Y-116480730D01*
X164026257Y-116480730D01*
X164015980Y-116465349D01*
X164015974Y-116465341D01*
X163869657Y-116319024D01*
X163774638Y-116255535D01*
X163697598Y-116204059D01*
X163506420Y-116124870D01*
X163506412Y-116124868D01*
X163303469Y-116084500D01*
X163303465Y-116084500D01*
X163096535Y-116084500D01*
X163096530Y-116084500D01*
X162893587Y-116124868D01*
X162893579Y-116124870D01*
X162702403Y-116204058D01*
X162530342Y-116319024D01*
X162384024Y-116465342D01*
X162269057Y-116637404D01*
X162223251Y-116747990D01*
X162179409Y-116802394D01*
X162113115Y-116824458D01*
X162045416Y-116807178D01*
X161997806Y-116756041D01*
X161990759Y-116738855D01*
X161951095Y-116616782D01*
X161854620Y-116427442D01*
X161729727Y-116255540D01*
X161729723Y-116255535D01*
X161579464Y-116105276D01*
X161579459Y-116105272D01*
X161407557Y-115980379D01*
X161218215Y-115883903D01*
X161016124Y-115818241D01*
X160950000Y-115807768D01*
X160950000Y-116855854D01*
X160883343Y-116817370D01*
X160762535Y-116785000D01*
X160637465Y-116785000D01*
X160516657Y-116817370D01*
X160450000Y-116855854D01*
X160450000Y-115807768D01*
X160449999Y-115807768D01*
X160383875Y-115818241D01*
X160181784Y-115883903D01*
X159992442Y-115980379D01*
X159820540Y-116105272D01*
X159820535Y-116105276D01*
X159670276Y-116255535D01*
X159670272Y-116255540D01*
X159545379Y-116427442D01*
X159448905Y-116616781D01*
X159409240Y-116738856D01*
X159369802Y-116796531D01*
X159305443Y-116823729D01*
X159236597Y-116811814D01*
X159185121Y-116764570D01*
X159176748Y-116747990D01*
X159172964Y-116738855D01*
X159130941Y-116637402D01*
X159015977Y-116465345D01*
X159015975Y-116465342D01*
X158869657Y-116319024D01*
X158774638Y-116255535D01*
X158697598Y-116204059D01*
X158506420Y-116124870D01*
X158506412Y-116124868D01*
X158303469Y-116084500D01*
X158303465Y-116084500D01*
X158096535Y-116084500D01*
X158096530Y-116084500D01*
X157893587Y-116124868D01*
X157893579Y-116124870D01*
X157702403Y-116204058D01*
X157530342Y-116319024D01*
X157384024Y-116465342D01*
X157269058Y-116637403D01*
X157189870Y-116828579D01*
X157189868Y-116828587D01*
X157149500Y-117031530D01*
X156750500Y-117031530D01*
X156750500Y-116480730D01*
X156747646Y-116450300D01*
X156747646Y-116450298D01*
X156702793Y-116322119D01*
X156702792Y-116322117D01*
X156622150Y-116212850D01*
X156512882Y-116132207D01*
X156512880Y-116132206D01*
X156384700Y-116087353D01*
X156354270Y-116084500D01*
X156354266Y-116084500D01*
X155045734Y-116084500D01*
X155045730Y-116084500D01*
X155015300Y-116087353D01*
X155015298Y-116087353D01*
X154887119Y-116132206D01*
X154887117Y-116132207D01*
X154777850Y-116212850D01*
X154697207Y-116322117D01*
X154697206Y-116322119D01*
X154652353Y-116450298D01*
X154652353Y-116450300D01*
X154649500Y-116480730D01*
X150150000Y-116480730D01*
X150150000Y-110347399D01*
X163374500Y-110347399D01*
X163374500Y-110472601D01*
X163406905Y-110593536D01*
X163469505Y-110701964D01*
X163558036Y-110790495D01*
X163666464Y-110853095D01*
X163787399Y-110885500D01*
X163787401Y-110885500D01*
X163912599Y-110885500D01*
X163912601Y-110885500D01*
X164033536Y-110853095D01*
X164141964Y-110790495D01*
X164230495Y-110701964D01*
X164293095Y-110593536D01*
X164325500Y-110472601D01*
X164325500Y-110347399D01*
X164293095Y-110226464D01*
X164230495Y-110118036D01*
X164141964Y-110029505D01*
X164033536Y-109966905D01*
X164033537Y-109966905D01*
X163993224Y-109956103D01*
X163912601Y-109934500D01*
X163787399Y-109934500D01*
X163706775Y-109956103D01*
X163666463Y-109966905D01*
X163558037Y-110029504D01*
X163558034Y-110029506D01*
X163469506Y-110118034D01*
X163469504Y-110118037D01*
X163406905Y-110226463D01*
X163406905Y-110226464D01*
X163374500Y-110347399D01*
X150150000Y-110347399D01*
X150150000Y-105247399D01*
X163374500Y-105247399D01*
X163374500Y-105372601D01*
X163406905Y-105493536D01*
X163469505Y-105601964D01*
X163558036Y-105690495D01*
X163666464Y-105753095D01*
X163787399Y-105785500D01*
X163787401Y-105785500D01*
X163912599Y-105785500D01*
X163912601Y-105785500D01*
X164033536Y-105753095D01*
X164141964Y-105690495D01*
X164216804Y-105615655D01*
X171333500Y-105615655D01*
X171333500Y-106167500D01*
X172154488Y-106167500D01*
X172121575Y-106224507D01*
X172087500Y-106351674D01*
X172087500Y-106483326D01*
X172121575Y-106610493D01*
X172154488Y-106667500D01*
X171333500Y-106667500D01*
X171333500Y-107219344D01*
X171339901Y-107278872D01*
X171339903Y-107278879D01*
X171390145Y-107413586D01*
X171390149Y-107413593D01*
X171476309Y-107528687D01*
X171476312Y-107528690D01*
X171591406Y-107614850D01*
X171591413Y-107614854D01*
X171726120Y-107665096D01*
X171726127Y-107665098D01*
X171785655Y-107671499D01*
X171785672Y-107671500D01*
X172337500Y-107671500D01*
X172337500Y-106850512D01*
X172394507Y-106883425D01*
X172521674Y-106917500D01*
X172653326Y-106917500D01*
X172780493Y-106883425D01*
X172837500Y-106850512D01*
X172837500Y-107671500D01*
X173389328Y-107671500D01*
X173389344Y-107671499D01*
X173448872Y-107665098D01*
X173448879Y-107665096D01*
X173583586Y-107614854D01*
X173583593Y-107614850D01*
X173698687Y-107528690D01*
X173698690Y-107528687D01*
X173784850Y-107413593D01*
X173784854Y-107413586D01*
X173835096Y-107278879D01*
X173835098Y-107278872D01*
X173841499Y-107219344D01*
X173841500Y-107219327D01*
X173841500Y-106667500D01*
X173020512Y-106667500D01*
X173053425Y-106610493D01*
X173087500Y-106483326D01*
X173087500Y-106351674D01*
X173053425Y-106224507D01*
X173020512Y-106167500D01*
X173841500Y-106167500D01*
X173841500Y-105615672D01*
X173841499Y-105615655D01*
X173835098Y-105556127D01*
X173835096Y-105556120D01*
X173784854Y-105421413D01*
X173784850Y-105421406D01*
X173698690Y-105306312D01*
X173698687Y-105306309D01*
X173583593Y-105220149D01*
X173583586Y-105220145D01*
X173448879Y-105169903D01*
X173448872Y-105169901D01*
X173389344Y-105163500D01*
X172837500Y-105163500D01*
X172837500Y-105984488D01*
X172780493Y-105951575D01*
X172653326Y-105917500D01*
X172521674Y-105917500D01*
X172394507Y-105951575D01*
X172337500Y-105984488D01*
X172337500Y-105163500D01*
X171785655Y-105163500D01*
X171726127Y-105169901D01*
X171726120Y-105169903D01*
X171591413Y-105220145D01*
X171591406Y-105220149D01*
X171476312Y-105306309D01*
X171476309Y-105306312D01*
X171390149Y-105421406D01*
X171390145Y-105421413D01*
X171339903Y-105556120D01*
X171339901Y-105556127D01*
X171333500Y-105615655D01*
X164216804Y-105615655D01*
X164230495Y-105601964D01*
X164256963Y-105556120D01*
X164260294Y-105550351D01*
X164273401Y-105527646D01*
X164293095Y-105493536D01*
X164325500Y-105372601D01*
X164325500Y-105247399D01*
X164293095Y-105126464D01*
X164230495Y-105018036D01*
X164152237Y-104939778D01*
X181549500Y-104939778D01*
X181549500Y-105160221D01*
X181583985Y-105377952D01*
X181652103Y-105587603D01*
X181652104Y-105587606D01*
X181752187Y-105784025D01*
X181881752Y-105962358D01*
X181881756Y-105962363D01*
X182037636Y-106118243D01*
X182037641Y-106118247D01*
X182105433Y-106167500D01*
X182215978Y-106247815D01*
X182344375Y-106313237D01*
X182412393Y-106347895D01*
X182412396Y-106347896D01*
X182517221Y-106381955D01*
X182622049Y-106416015D01*
X182839778Y-106450500D01*
X182839779Y-106450500D01*
X183060221Y-106450500D01*
X183060222Y-106450500D01*
X183277951Y-106416015D01*
X183487606Y-106347895D01*
X183684022Y-106247815D01*
X183862365Y-106118242D01*
X184018242Y-105962365D01*
X184147815Y-105784022D01*
X184247895Y-105587606D01*
X184316015Y-105377951D01*
X184350500Y-105160222D01*
X184350500Y-104939778D01*
X184316015Y-104722049D01*
X184247895Y-104512394D01*
X184247895Y-104512393D01*
X184213237Y-104444375D01*
X184147815Y-104315978D01*
X184131260Y-104293192D01*
X184018247Y-104137641D01*
X184018243Y-104137636D01*
X183862363Y-103981756D01*
X183862358Y-103981752D01*
X183684025Y-103852187D01*
X183684024Y-103852186D01*
X183684022Y-103852185D01*
X183621096Y-103820122D01*
X183487606Y-103752104D01*
X183487603Y-103752103D01*
X183277952Y-103683985D01*
X183169086Y-103666742D01*
X183060222Y-103649500D01*
X182839778Y-103649500D01*
X182767201Y-103660995D01*
X182622047Y-103683985D01*
X182412396Y-103752103D01*
X182412393Y-103752104D01*
X182215974Y-103852187D01*
X182037641Y-103981752D01*
X182037636Y-103981756D01*
X181881756Y-104137636D01*
X181881752Y-104137641D01*
X181752187Y-104315974D01*
X181652104Y-104512393D01*
X181652103Y-104512396D01*
X181583985Y-104722047D01*
X181549500Y-104939778D01*
X164152237Y-104939778D01*
X164141964Y-104929505D01*
X164033536Y-104866905D01*
X164033537Y-104866905D01*
X163993224Y-104856103D01*
X163912601Y-104834500D01*
X163787399Y-104834500D01*
X163706775Y-104856103D01*
X163666463Y-104866905D01*
X163558037Y-104929504D01*
X163558034Y-104929506D01*
X163469506Y-105018034D01*
X163469504Y-105018037D01*
X163406905Y-105126463D01*
X163406905Y-105126464D01*
X163374500Y-105247399D01*
X150150000Y-105247399D01*
X150150000Y-103783485D01*
X171633000Y-103783485D01*
X171633000Y-103971514D01*
X171669679Y-104155909D01*
X171669682Y-104155921D01*
X171741629Y-104329618D01*
X171741636Y-104329631D01*
X171846091Y-104485957D01*
X171846094Y-104485961D01*
X171979038Y-104618905D01*
X171979042Y-104618908D01*
X172135368Y-104723363D01*
X172135381Y-104723370D01*
X172309078Y-104795317D01*
X172309083Y-104795319D01*
X172493485Y-104831999D01*
X172493488Y-104832000D01*
X172493490Y-104832000D01*
X172681512Y-104832000D01*
X172681513Y-104831999D01*
X172706250Y-104827078D01*
X172775579Y-104813289D01*
X172820022Y-104804448D01*
X172865917Y-104795319D01*
X173039625Y-104723367D01*
X173195958Y-104618908D01*
X173328908Y-104485958D01*
X173433367Y-104329625D01*
X173505319Y-104155917D01*
X173542000Y-103971510D01*
X173542000Y-103783490D01*
X173542000Y-103783487D01*
X173541999Y-103783485D01*
X173522207Y-103683985D01*
X173505319Y-103599083D01*
X173505317Y-103599078D01*
X173433370Y-103425381D01*
X173433363Y-103425368D01*
X173328908Y-103269042D01*
X173328905Y-103269038D01*
X173195961Y-103136094D01*
X173195957Y-103136091D01*
X173039631Y-103031636D01*
X173039618Y-103031629D01*
X172865921Y-102959682D01*
X172865909Y-102959679D01*
X172681513Y-102923000D01*
X172681510Y-102923000D01*
X172493490Y-102923000D01*
X172493487Y-102923000D01*
X172309090Y-102959679D01*
X172309078Y-102959682D01*
X172135381Y-103031629D01*
X172135368Y-103031636D01*
X171979042Y-103136091D01*
X171979038Y-103136094D01*
X171846094Y-103269038D01*
X171846091Y-103269042D01*
X171741636Y-103425368D01*
X171741629Y-103425381D01*
X171669682Y-103599078D01*
X171669679Y-103599090D01*
X171633000Y-103783485D01*
X150150000Y-103783485D01*
X150150000Y-102734000D01*
X150169685Y-102666961D01*
X150222489Y-102621206D01*
X150274000Y-102610000D01*
X180150000Y-102610000D01*
X180150000Y-99858575D01*
X181250000Y-99858575D01*
X181250000Y-100081424D01*
X181279085Y-100302354D01*
X181279088Y-100302367D01*
X181336763Y-100517618D01*
X181422045Y-100723502D01*
X181422054Y-100723520D01*
X181533464Y-100916491D01*
X181533473Y-100916504D01*
X181584040Y-100982403D01*
X181584043Y-100982403D01*
X182234152Y-100332293D01*
X182241049Y-100348942D01*
X182328599Y-100479970D01*
X182440030Y-100591401D01*
X182571058Y-100678951D01*
X182587705Y-100685846D01*
X181937595Y-101335955D01*
X181937595Y-101335956D01*
X182003507Y-101386533D01*
X182196485Y-101497949D01*
X182196497Y-101497954D01*
X182402381Y-101583236D01*
X182617632Y-101640911D01*
X182617645Y-101640914D01*
X182838575Y-101670000D01*
X183061425Y-101670000D01*
X183282354Y-101640914D01*
X183282367Y-101640911D01*
X183497618Y-101583236D01*
X183703502Y-101497954D01*
X183703514Y-101497949D01*
X183896498Y-101386530D01*
X183962403Y-101335957D01*
X183962404Y-101335956D01*
X183312294Y-100685846D01*
X183328942Y-100678951D01*
X183459970Y-100591401D01*
X183571401Y-100479970D01*
X183658951Y-100348942D01*
X183665846Y-100332294D01*
X184315956Y-100982404D01*
X184315957Y-100982403D01*
X184366530Y-100916498D01*
X184477949Y-100723514D01*
X184477954Y-100723502D01*
X184563236Y-100517618D01*
X184620911Y-100302367D01*
X184620914Y-100302354D01*
X184650000Y-100081424D01*
X184650000Y-99858575D01*
X184620914Y-99637645D01*
X184620911Y-99637632D01*
X184563236Y-99422381D01*
X184477954Y-99216497D01*
X184477949Y-99216485D01*
X184366533Y-99023507D01*
X184315956Y-98957595D01*
X184315955Y-98957595D01*
X183665846Y-99607704D01*
X183658951Y-99591058D01*
X183571401Y-99460030D01*
X183459970Y-99348599D01*
X183328942Y-99261049D01*
X183312293Y-99254152D01*
X183962403Y-98604043D01*
X183962403Y-98604040D01*
X183896504Y-98553473D01*
X183896491Y-98553464D01*
X183703520Y-98442054D01*
X183703502Y-98442045D01*
X183497618Y-98356763D01*
X183282367Y-98299088D01*
X183282354Y-98299085D01*
X183061425Y-98270000D01*
X182838575Y-98270000D01*
X182617645Y-98299085D01*
X182617632Y-98299088D01*
X182402381Y-98356763D01*
X182196497Y-98442045D01*
X182196479Y-98442054D01*
X182003511Y-98553462D01*
X181937595Y-98604042D01*
X182587706Y-99254152D01*
X182571058Y-99261049D01*
X182440030Y-99348599D01*
X182328599Y-99460030D01*
X182241049Y-99591058D01*
X182234153Y-99607706D01*
X181584042Y-98957595D01*
X181533462Y-99023511D01*
X181422054Y-99216479D01*
X181422045Y-99216497D01*
X181336763Y-99422381D01*
X181279088Y-99637632D01*
X181279085Y-99637645D01*
X181250000Y-99858575D01*
X180150000Y-99858575D01*
X180150000Y-95684000D01*
X180169685Y-95616961D01*
X180222489Y-95571206D01*
X180274000Y-95560000D01*
X192775500Y-95560000D01*
X192842539Y-95579685D01*
G37*
%TD.AperFunction*%
%TD*%
%TA.AperFunction,Conductor*%
%TO.N,GND*%
G36*
X153003039Y-46880185D02*
G01*
X153048794Y-46932989D01*
X153060000Y-46984500D01*
X153060000Y-51570000D01*
X172460000Y-51570000D01*
X172460000Y-50441491D01*
X186149500Y-50441491D01*
X186149500Y-50778508D01*
X186187231Y-51113381D01*
X186187233Y-51113397D01*
X186262223Y-51441953D01*
X186262227Y-51441965D01*
X186373532Y-51760054D01*
X186519752Y-52063683D01*
X186519754Y-52063686D01*
X186699054Y-52349039D01*
X186909175Y-52612523D01*
X187147477Y-52850825D01*
X187410961Y-53060946D01*
X187696314Y-53240246D01*
X187999949Y-53386469D01*
X188238848Y-53470063D01*
X188318034Y-53497772D01*
X188318046Y-53497776D01*
X188646606Y-53572767D01*
X188981492Y-53610499D01*
X188981493Y-53610500D01*
X188981496Y-53610500D01*
X189318507Y-53610500D01*
X189318507Y-53610499D01*
X189653394Y-53572767D01*
X189981954Y-53497776D01*
X190300051Y-53386469D01*
X190603686Y-53240246D01*
X190889039Y-53060946D01*
X191152523Y-52850825D01*
X191390825Y-52612523D01*
X191600946Y-52349039D01*
X191780246Y-52063686D01*
X191926469Y-51760051D01*
X192037776Y-51441954D01*
X192112767Y-51113394D01*
X192150500Y-50778504D01*
X192150500Y-50441496D01*
X192112767Y-50106606D01*
X192037776Y-49778046D01*
X191926469Y-49459949D01*
X191780246Y-49156314D01*
X191600946Y-48870961D01*
X191390825Y-48607477D01*
X191152523Y-48369175D01*
X190889039Y-48159054D01*
X190603686Y-47979754D01*
X190603683Y-47979752D01*
X190300054Y-47833532D01*
X189981965Y-47722227D01*
X189981953Y-47722223D01*
X189653397Y-47647233D01*
X189653381Y-47647231D01*
X189318508Y-47609500D01*
X189318504Y-47609500D01*
X188981496Y-47609500D01*
X188981491Y-47609500D01*
X188646618Y-47647231D01*
X188646602Y-47647233D01*
X188318046Y-47722223D01*
X188318034Y-47722227D01*
X187999945Y-47833532D01*
X187696316Y-47979752D01*
X187410962Y-48159053D01*
X187147477Y-48369174D01*
X186909174Y-48607477D01*
X186699053Y-48870962D01*
X186519752Y-49156316D01*
X186373532Y-49459945D01*
X186262227Y-49778034D01*
X186262223Y-49778046D01*
X186187233Y-50106602D01*
X186187231Y-50106618D01*
X186149500Y-50441491D01*
X172460000Y-50441491D01*
X172460000Y-46984500D01*
X172479685Y-46917461D01*
X172532489Y-46871706D01*
X172584000Y-46860500D01*
X189105830Y-46860500D01*
X189146949Y-46860500D01*
X189153032Y-46860648D01*
X189511433Y-46878256D01*
X189523541Y-46879448D01*
X189875475Y-46931653D01*
X189887389Y-46934023D01*
X190232520Y-47020473D01*
X190244147Y-47024000D01*
X190579151Y-47143867D01*
X190590363Y-47148511D01*
X190912012Y-47300639D01*
X190922720Y-47306363D01*
X191227881Y-47489270D01*
X191237999Y-47496030D01*
X191523769Y-47707971D01*
X191533175Y-47715691D01*
X191796790Y-47954618D01*
X191805381Y-47963209D01*
X191820375Y-47979752D01*
X192044308Y-48226824D01*
X192052028Y-48236230D01*
X192263969Y-48522000D01*
X192270729Y-48532118D01*
X192453629Y-48837267D01*
X192459364Y-48847995D01*
X192479846Y-48891300D01*
X192611485Y-49169629D01*
X192616136Y-49180858D01*
X192715997Y-49459949D01*
X192735994Y-49515837D01*
X192739526Y-49527481D01*
X192825973Y-49872597D01*
X192828347Y-49884532D01*
X192880550Y-50236457D01*
X192881743Y-50248567D01*
X192899351Y-50606966D01*
X192899500Y-50613051D01*
X192899500Y-94486000D01*
X192879815Y-94553039D01*
X192827011Y-94598794D01*
X192775500Y-94610000D01*
X179150000Y-94610000D01*
X179150000Y-101436000D01*
X179130315Y-101503039D01*
X179077511Y-101548794D01*
X179026000Y-101560000D01*
X173965500Y-101560000D01*
X173898461Y-101540315D01*
X173852706Y-101487511D01*
X173841500Y-101436000D01*
X173841500Y-101238802D01*
X173810623Y-101043853D01*
X173749626Y-100856126D01*
X173660020Y-100680268D01*
X173660012Y-100680255D01*
X173634042Y-100644510D01*
X173634041Y-100644509D01*
X173070462Y-101208089D01*
X173053425Y-101144507D01*
X172987599Y-101030493D01*
X172894507Y-100937401D01*
X172780493Y-100871575D01*
X172716909Y-100854537D01*
X173280489Y-100290957D01*
X173244739Y-100264983D01*
X173068873Y-100175373D01*
X172881146Y-100114376D01*
X172686197Y-100083500D01*
X172488803Y-100083500D01*
X172293853Y-100114376D01*
X172106126Y-100175373D01*
X171930262Y-100264982D01*
X171930260Y-100264983D01*
X171894510Y-100290956D01*
X171894510Y-100290957D01*
X172458091Y-100854537D01*
X172394507Y-100871575D01*
X172280493Y-100937401D01*
X172187401Y-101030493D01*
X172121575Y-101144507D01*
X172104537Y-101208090D01*
X171540957Y-100644510D01*
X171540956Y-100644510D01*
X171514983Y-100680260D01*
X171514982Y-100680262D01*
X171425373Y-100856126D01*
X171364376Y-101043853D01*
X171333500Y-101238802D01*
X171333500Y-101436000D01*
X171313815Y-101503039D01*
X171261011Y-101548794D01*
X171209500Y-101560000D01*
X142252686Y-101560000D01*
X142185647Y-101540315D01*
X142139892Y-101487511D01*
X142129948Y-101418353D01*
X142131069Y-101411809D01*
X142154499Y-101294014D01*
X142154500Y-101294012D01*
X142154500Y-101105987D01*
X142154499Y-101105985D01*
X142141024Y-101038242D01*
X142117819Y-100921583D01*
X142117817Y-100921578D01*
X142045870Y-100747881D01*
X142045863Y-100747868D01*
X141941408Y-100591542D01*
X141941405Y-100591538D01*
X141808458Y-100458591D01*
X141782606Y-100441318D01*
X141652130Y-100354136D01*
X141652118Y-100354129D01*
X141478421Y-100282182D01*
X141478409Y-100282179D01*
X141294013Y-100245500D01*
X141294010Y-100245500D01*
X141105990Y-100245500D01*
X141105987Y-100245500D01*
X140921590Y-100282179D01*
X140921578Y-100282182D01*
X140747881Y-100354129D01*
X140747868Y-100354136D01*
X140591542Y-100458591D01*
X140591538Y-100458594D01*
X140458594Y-100591538D01*
X140458591Y-100591542D01*
X140354136Y-100747868D01*
X140354129Y-100747881D01*
X140282182Y-100921578D01*
X140282179Y-100921590D01*
X140245500Y-101105985D01*
X140245500Y-101294014D01*
X140268931Y-101411809D01*
X140262704Y-101481400D01*
X140219841Y-101536578D01*
X140153951Y-101559822D01*
X140147314Y-101560000D01*
X113524500Y-101560000D01*
X113457461Y-101540315D01*
X113411706Y-101487511D01*
X113400500Y-101436000D01*
X113400500Y-97947399D01*
X132874500Y-97947399D01*
X132874500Y-98072601D01*
X132906905Y-98193536D01*
X132969505Y-98301964D01*
X133058036Y-98390495D01*
X133166464Y-98453095D01*
X133287399Y-98485500D01*
X133287401Y-98485500D01*
X133412599Y-98485500D01*
X133412601Y-98485500D01*
X133533536Y-98453095D01*
X133641964Y-98390495D01*
X133730495Y-98301964D01*
X133793095Y-98193536D01*
X133825500Y-98072601D01*
X133825500Y-97947399D01*
X136474500Y-97947399D01*
X136474500Y-98072601D01*
X136506905Y-98193536D01*
X136569505Y-98301964D01*
X136658036Y-98390495D01*
X136766464Y-98453095D01*
X136887399Y-98485500D01*
X136887401Y-98485500D01*
X137012599Y-98485500D01*
X137012601Y-98485500D01*
X137133536Y-98453095D01*
X137241964Y-98390495D01*
X137330495Y-98301964D01*
X137393095Y-98193536D01*
X137425500Y-98072601D01*
X137425500Y-97947399D01*
X137409301Y-97886944D01*
X137409301Y-97886942D01*
X137401587Y-97858155D01*
X139946000Y-97858155D01*
X139946000Y-98410000D01*
X140766988Y-98410000D01*
X140734075Y-98467007D01*
X140700000Y-98594174D01*
X140700000Y-98725826D01*
X140734075Y-98852993D01*
X140766988Y-98910000D01*
X139946000Y-98910000D01*
X139946000Y-99461844D01*
X139952401Y-99521372D01*
X139952403Y-99521379D01*
X140002645Y-99656086D01*
X140002649Y-99656093D01*
X140088809Y-99771187D01*
X140088812Y-99771190D01*
X140203906Y-99857350D01*
X140203913Y-99857354D01*
X140338620Y-99907596D01*
X140338627Y-99907598D01*
X140398155Y-99913999D01*
X140398172Y-99914000D01*
X140950000Y-99914000D01*
X140950000Y-99093012D01*
X141007007Y-99125925D01*
X141134174Y-99160000D01*
X141265826Y-99160000D01*
X141392993Y-99125925D01*
X141450000Y-99093012D01*
X141450000Y-99914000D01*
X142001828Y-99914000D01*
X142001844Y-99913999D01*
X142061372Y-99907598D01*
X142061379Y-99907596D01*
X142196086Y-99857354D01*
X142196093Y-99857350D01*
X142311187Y-99771190D01*
X142311190Y-99771187D01*
X142397350Y-99656093D01*
X142397354Y-99656086D01*
X142447596Y-99521379D01*
X142447598Y-99521372D01*
X142453999Y-99461844D01*
X142454000Y-99461827D01*
X142454000Y-98910000D01*
X141633012Y-98910000D01*
X141665925Y-98852993D01*
X141700000Y-98725826D01*
X141700000Y-98703485D01*
X171633000Y-98703485D01*
X171633000Y-98891514D01*
X171669679Y-99075909D01*
X171669682Y-99075921D01*
X171741629Y-99249618D01*
X171741636Y-99249631D01*
X171846091Y-99405957D01*
X171846094Y-99405961D01*
X171979038Y-99538905D01*
X171979042Y-99538908D01*
X172135368Y-99643363D01*
X172135381Y-99643370D01*
X172309078Y-99715317D01*
X172309083Y-99715319D01*
X172493485Y-99751999D01*
X172493488Y-99752000D01*
X172493490Y-99752000D01*
X172681512Y-99752000D01*
X172681513Y-99751999D01*
X172865917Y-99715319D01*
X173039625Y-99643367D01*
X173195958Y-99538908D01*
X173328908Y-99405958D01*
X173433367Y-99249625D01*
X173505319Y-99075917D01*
X173542000Y-98891510D01*
X173542000Y-98703490D01*
X173542000Y-98703487D01*
X173541999Y-98703485D01*
X173522207Y-98603985D01*
X173505319Y-98519083D01*
X173491409Y-98485500D01*
X173433370Y-98345381D01*
X173433363Y-98345368D01*
X173328908Y-98189042D01*
X173328905Y-98189038D01*
X173195961Y-98056094D01*
X173195957Y-98056091D01*
X173039631Y-97951636D01*
X173039618Y-97951629D01*
X172865921Y-97879682D01*
X172865909Y-97879679D01*
X172681513Y-97843000D01*
X172681510Y-97843000D01*
X172493490Y-97843000D01*
X172493487Y-97843000D01*
X172309090Y-97879679D01*
X172309078Y-97879682D01*
X172135381Y-97951629D01*
X172135368Y-97951636D01*
X171979042Y-98056091D01*
X171979038Y-98056094D01*
X171846094Y-98189038D01*
X171846091Y-98189042D01*
X171741636Y-98345368D01*
X171741629Y-98345381D01*
X171669682Y-98519078D01*
X171669679Y-98519090D01*
X171633000Y-98703485D01*
X141700000Y-98703485D01*
X141700000Y-98594174D01*
X141665925Y-98467007D01*
X141633012Y-98410000D01*
X142454000Y-98410000D01*
X142454000Y-97858172D01*
X142453999Y-97858155D01*
X142447598Y-97798627D01*
X142447596Y-97798620D01*
X142397354Y-97663913D01*
X142397350Y-97663906D01*
X142311190Y-97548812D01*
X142311187Y-97548809D01*
X142196093Y-97462649D01*
X142196086Y-97462645D01*
X142061379Y-97412403D01*
X142061372Y-97412401D01*
X142001844Y-97406000D01*
X141450000Y-97406000D01*
X141450000Y-98226988D01*
X141392993Y-98194075D01*
X141265826Y-98160000D01*
X141134174Y-98160000D01*
X141007007Y-98194075D01*
X140950000Y-98226988D01*
X140950000Y-97406000D01*
X140398155Y-97406000D01*
X140338627Y-97412401D01*
X140338620Y-97412403D01*
X140203913Y-97462645D01*
X140203906Y-97462649D01*
X140088812Y-97548809D01*
X140088809Y-97548812D01*
X140002649Y-97663906D01*
X140002645Y-97663913D01*
X139952403Y-97798620D01*
X139952401Y-97798627D01*
X139946000Y-97858155D01*
X137401587Y-97858155D01*
X137393096Y-97826468D01*
X137393095Y-97826464D01*
X137330495Y-97718036D01*
X137241964Y-97629505D01*
X137133536Y-97566905D01*
X137133537Y-97566905D01*
X137066013Y-97548812D01*
X137012601Y-97534500D01*
X136887399Y-97534500D01*
X136833987Y-97548812D01*
X136766463Y-97566905D01*
X136658037Y-97629504D01*
X136658034Y-97629506D01*
X136569506Y-97718034D01*
X136569504Y-97718037D01*
X136506905Y-97826463D01*
X136506905Y-97826464D01*
X136474500Y-97947399D01*
X133825500Y-97947399D01*
X133793095Y-97826464D01*
X133730495Y-97718036D01*
X133641964Y-97629505D01*
X133533536Y-97566905D01*
X133533537Y-97566905D01*
X133466013Y-97548812D01*
X133412601Y-97534500D01*
X133287399Y-97534500D01*
X133233987Y-97548812D01*
X133166463Y-97566905D01*
X133058037Y-97629504D01*
X133058034Y-97629506D01*
X132969506Y-97718034D01*
X132969504Y-97718037D01*
X132906905Y-97826463D01*
X132906905Y-97826464D01*
X132874500Y-97947399D01*
X113400500Y-97947399D01*
X113400500Y-89547399D01*
X176049500Y-89547399D01*
X176049500Y-89672601D01*
X176081905Y-89793536D01*
X176144505Y-89901964D01*
X176233036Y-89990495D01*
X176341464Y-90053095D01*
X176462399Y-90085500D01*
X176462401Y-90085500D01*
X176587599Y-90085500D01*
X176587601Y-90085500D01*
X176708536Y-90053095D01*
X176816964Y-89990495D01*
X176905495Y-89901964D01*
X176968095Y-89793536D01*
X177000500Y-89672601D01*
X177000500Y-89547399D01*
X176968095Y-89426464D01*
X176905495Y-89318036D01*
X176816964Y-89229505D01*
X176708536Y-89166905D01*
X176708537Y-89166905D01*
X176668224Y-89156103D01*
X176587601Y-89134500D01*
X176462399Y-89134500D01*
X176381775Y-89156103D01*
X176341463Y-89166905D01*
X176233037Y-89229504D01*
X176233034Y-89229506D01*
X176144506Y-89318034D01*
X176144504Y-89318037D01*
X176081905Y-89426463D01*
X176081905Y-89426464D01*
X176049500Y-89547399D01*
X113400500Y-89547399D01*
X113400500Y-87447399D01*
X164749500Y-87447399D01*
X164749500Y-87572601D01*
X164781905Y-87693536D01*
X164844505Y-87801964D01*
X164933036Y-87890495D01*
X165041464Y-87953095D01*
X165162399Y-87985500D01*
X165162401Y-87985500D01*
X165287599Y-87985500D01*
X165287601Y-87985500D01*
X165408536Y-87953095D01*
X165516964Y-87890495D01*
X165605495Y-87801964D01*
X165668095Y-87693536D01*
X165700500Y-87572601D01*
X165700500Y-87447399D01*
X165690452Y-87409899D01*
X168549500Y-87409899D01*
X168549500Y-87535101D01*
X168581905Y-87656036D01*
X168644505Y-87764464D01*
X168733036Y-87852995D01*
X168841464Y-87915595D01*
X168962399Y-87948000D01*
X168962401Y-87948000D01*
X169087599Y-87948000D01*
X169087601Y-87948000D01*
X169208536Y-87915595D01*
X169316964Y-87852995D01*
X169405495Y-87764464D01*
X169468095Y-87656036D01*
X169500500Y-87535101D01*
X169500500Y-87447399D01*
X177749500Y-87447399D01*
X177749500Y-87572601D01*
X177781905Y-87693536D01*
X177844505Y-87801964D01*
X177933036Y-87890495D01*
X178041464Y-87953095D01*
X178162399Y-87985500D01*
X178162401Y-87985500D01*
X178287599Y-87985500D01*
X178287601Y-87985500D01*
X178408536Y-87953095D01*
X178516964Y-87890495D01*
X178605495Y-87801964D01*
X178668095Y-87693536D01*
X178700500Y-87572601D01*
X178700500Y-87447399D01*
X178668095Y-87326464D01*
X178605495Y-87218036D01*
X178516964Y-87129505D01*
X178408536Y-87066905D01*
X178408537Y-87066905D01*
X178368224Y-87056103D01*
X178287601Y-87034500D01*
X178162399Y-87034500D01*
X178081775Y-87056103D01*
X178041463Y-87066905D01*
X177933037Y-87129504D01*
X177933034Y-87129506D01*
X177844506Y-87218034D01*
X177844504Y-87218037D01*
X177781905Y-87326463D01*
X177781905Y-87326464D01*
X177749500Y-87447399D01*
X169500500Y-87447399D01*
X169500500Y-87409899D01*
X169468095Y-87288964D01*
X169405495Y-87180536D01*
X169316964Y-87092005D01*
X169208536Y-87029405D01*
X169208537Y-87029405D01*
X169168224Y-87018603D01*
X169087601Y-86997000D01*
X168962399Y-86997000D01*
X168881775Y-87018603D01*
X168841463Y-87029405D01*
X168733037Y-87092004D01*
X168733034Y-87092006D01*
X168644506Y-87180534D01*
X168644504Y-87180537D01*
X168581905Y-87288963D01*
X168581905Y-87288964D01*
X168549500Y-87409899D01*
X165690452Y-87409899D01*
X165668095Y-87326464D01*
X165605495Y-87218036D01*
X165516964Y-87129505D01*
X165408536Y-87066905D01*
X165408537Y-87066905D01*
X165368224Y-87056103D01*
X165287601Y-87034500D01*
X165162399Y-87034500D01*
X165081775Y-87056103D01*
X165041463Y-87066905D01*
X164933037Y-87129504D01*
X164933034Y-87129506D01*
X164844506Y-87218034D01*
X164844504Y-87218037D01*
X164781905Y-87326463D01*
X164781905Y-87326464D01*
X164749500Y-87447399D01*
X113400500Y-87447399D01*
X113400500Y-85180000D01*
X114494647Y-85180000D01*
X115280382Y-85180000D01*
X115229936Y-85230446D01*
X115187149Y-85304555D01*
X115165000Y-85387213D01*
X115165000Y-85472787D01*
X115187149Y-85555445D01*
X115229936Y-85629554D01*
X115280382Y-85680000D01*
X114494647Y-85680000D01*
X114504387Y-85728974D01*
X114504390Y-85728983D01*
X114581652Y-85915513D01*
X114581659Y-85915526D01*
X114693829Y-86083399D01*
X114693832Y-86083403D01*
X114836596Y-86226167D01*
X114836600Y-86226170D01*
X115004473Y-86338340D01*
X115004486Y-86338347D01*
X115191016Y-86415609D01*
X115191025Y-86415612D01*
X115389041Y-86454999D01*
X115389045Y-86455000D01*
X115640000Y-86455000D01*
X115640000Y-85755000D01*
X116140000Y-85755000D01*
X116140000Y-86455000D01*
X116390955Y-86455000D01*
X116390958Y-86454999D01*
X116588974Y-86415612D01*
X116588983Y-86415609D01*
X116775513Y-86338347D01*
X116775526Y-86338340D01*
X116943399Y-86226170D01*
X116943403Y-86226167D01*
X117086167Y-86083403D01*
X117086170Y-86083399D01*
X117198340Y-85915526D01*
X117198347Y-85915513D01*
X117275609Y-85728983D01*
X117275612Y-85728974D01*
X117285353Y-85680000D01*
X116499618Y-85680000D01*
X116550064Y-85629554D01*
X116592851Y-85555445D01*
X116615000Y-85472787D01*
X116615000Y-85387213D01*
X116592851Y-85304555D01*
X116550064Y-85230446D01*
X116499618Y-85180000D01*
X117285353Y-85180000D01*
X118524647Y-85180000D01*
X119310382Y-85180000D01*
X119259936Y-85230446D01*
X119217149Y-85304555D01*
X119195000Y-85387213D01*
X119195000Y-85472787D01*
X119217149Y-85555445D01*
X119259936Y-85629554D01*
X119310382Y-85680000D01*
X118524647Y-85680000D01*
X118534387Y-85728974D01*
X118534390Y-85728983D01*
X118611652Y-85915513D01*
X118611659Y-85915526D01*
X118723829Y-86083399D01*
X118723832Y-86083403D01*
X118866596Y-86226167D01*
X118866600Y-86226170D01*
X119034473Y-86338340D01*
X119034486Y-86338347D01*
X119221016Y-86415609D01*
X119221025Y-86415612D01*
X119419041Y-86454999D01*
X119419045Y-86455000D01*
X119820000Y-86455000D01*
X119820000Y-85755000D01*
X120320000Y-85755000D01*
X120320000Y-86455000D01*
X120720955Y-86455000D01*
X120720958Y-86454999D01*
X120918974Y-86415612D01*
X120918983Y-86415609D01*
X121105513Y-86338347D01*
X121105526Y-86338340D01*
X121273399Y-86226170D01*
X121273403Y-86226167D01*
X121416167Y-86083403D01*
X121416170Y-86083399D01*
X121528340Y-85915526D01*
X121528347Y-85915513D01*
X121605609Y-85728983D01*
X121605612Y-85728974D01*
X121615353Y-85680000D01*
X120829618Y-85680000D01*
X120880064Y-85629554D01*
X120922851Y-85555445D01*
X120945000Y-85472787D01*
X120945000Y-85447399D01*
X176049500Y-85447399D01*
X176049500Y-85572601D01*
X176081905Y-85693536D01*
X176144505Y-85801964D01*
X176233036Y-85890495D01*
X176341464Y-85953095D01*
X176462399Y-85985500D01*
X176462401Y-85985500D01*
X176587599Y-85985500D01*
X176587601Y-85985500D01*
X176708536Y-85953095D01*
X176816964Y-85890495D01*
X176905495Y-85801964D01*
X176968095Y-85693536D01*
X177000500Y-85572601D01*
X177000500Y-85447399D01*
X176968095Y-85326464D01*
X176905495Y-85218036D01*
X176816964Y-85129505D01*
X176708536Y-85066905D01*
X176708537Y-85066905D01*
X176668224Y-85056103D01*
X176587601Y-85034500D01*
X176462399Y-85034500D01*
X176381775Y-85056103D01*
X176341463Y-85066905D01*
X176233037Y-85129504D01*
X176233034Y-85129506D01*
X176144506Y-85218034D01*
X176144504Y-85218037D01*
X176081905Y-85326463D01*
X176081905Y-85326464D01*
X176049500Y-85447399D01*
X120945000Y-85447399D01*
X120945000Y-85387213D01*
X120922851Y-85304555D01*
X120880064Y-85230446D01*
X120829618Y-85180000D01*
X121615353Y-85180000D01*
X121605612Y-85131025D01*
X121605609Y-85131016D01*
X121528347Y-84944486D01*
X121528340Y-84944473D01*
X121416170Y-84776600D01*
X121416167Y-84776596D01*
X121273403Y-84633832D01*
X121273399Y-84633829D01*
X121105526Y-84521659D01*
X121105513Y-84521652D01*
X120918983Y-84444390D01*
X120918974Y-84444387D01*
X120720958Y-84405000D01*
X120320000Y-84405000D01*
X120320000Y-85105000D01*
X119820000Y-85105000D01*
X119820000Y-84534049D01*
X119839685Y-84467010D01*
X119854203Y-84448535D01*
X119866522Y-84435598D01*
X119892665Y-84420505D01*
X119990505Y-84322665D01*
X120059688Y-84202836D01*
X120095500Y-84069183D01*
X120095500Y-83930817D01*
X120059688Y-83797164D01*
X119990505Y-83677335D01*
X119892665Y-83579495D01*
X119892664Y-83579494D01*
X119892661Y-83579492D01*
X119772838Y-83510313D01*
X119772837Y-83510312D01*
X119772836Y-83510312D01*
X119639183Y-83474500D01*
X119500817Y-83474500D01*
X119367164Y-83510312D01*
X119367161Y-83510313D01*
X119247338Y-83579492D01*
X119247333Y-83579496D01*
X119149496Y-83677333D01*
X119149492Y-83677338D01*
X119080313Y-83797161D01*
X119080312Y-83797164D01*
X119044500Y-83930817D01*
X119044500Y-84069182D01*
X119080312Y-84202835D01*
X119080313Y-84202838D01*
X119149315Y-84322354D01*
X119165788Y-84390255D01*
X119142935Y-84456281D01*
X119089381Y-84498915D01*
X119034483Y-84521654D01*
X119034473Y-84521659D01*
X118866600Y-84633829D01*
X118866596Y-84633832D01*
X118723832Y-84776596D01*
X118723829Y-84776600D01*
X118611659Y-84944473D01*
X118611652Y-84944486D01*
X118534390Y-85131016D01*
X118534387Y-85131025D01*
X118524647Y-85180000D01*
X117285353Y-85180000D01*
X117275612Y-85131025D01*
X117275609Y-85131016D01*
X117198347Y-84944486D01*
X117198340Y-84944473D01*
X117086170Y-84776600D01*
X117086167Y-84776596D01*
X116943403Y-84633832D01*
X116943399Y-84633829D01*
X116775526Y-84521659D01*
X116775513Y-84521652D01*
X116588983Y-84444390D01*
X116588974Y-84444387D01*
X116390958Y-84405000D01*
X116140000Y-84405000D01*
X116140000Y-85105000D01*
X115640000Y-85105000D01*
X115640000Y-84405000D01*
X115389041Y-84405000D01*
X115191025Y-84444387D01*
X115191016Y-84444390D01*
X115004486Y-84521652D01*
X115004473Y-84521659D01*
X114836600Y-84633829D01*
X114836596Y-84633832D01*
X114693832Y-84776596D01*
X114693829Y-84776600D01*
X114581659Y-84944473D01*
X114581652Y-84944486D01*
X114504390Y-85131016D01*
X114504387Y-85131025D01*
X114494647Y-85180000D01*
X113400500Y-85180000D01*
X113400500Y-76540000D01*
X114494647Y-76540000D01*
X115280382Y-76540000D01*
X115229936Y-76590446D01*
X115187149Y-76664555D01*
X115165000Y-76747213D01*
X115165000Y-76832787D01*
X115187149Y-76915445D01*
X115229936Y-76989554D01*
X115280382Y-77040000D01*
X114494647Y-77040000D01*
X114504387Y-77088974D01*
X114504390Y-77088983D01*
X114581652Y-77275513D01*
X114581659Y-77275526D01*
X114693829Y-77443399D01*
X114693832Y-77443403D01*
X114836596Y-77586167D01*
X114836600Y-77586170D01*
X115004473Y-77698340D01*
X115004486Y-77698347D01*
X115191016Y-77775609D01*
X115191025Y-77775612D01*
X115389041Y-77814999D01*
X115389045Y-77815000D01*
X115640000Y-77815000D01*
X115640000Y-77115000D01*
X116140000Y-77115000D01*
X116140000Y-77815000D01*
X116390955Y-77815000D01*
X116390958Y-77814999D01*
X116588974Y-77775612D01*
X116588983Y-77775609D01*
X116775513Y-77698347D01*
X116775526Y-77698340D01*
X116943399Y-77586170D01*
X116943403Y-77586167D01*
X117086167Y-77443403D01*
X117086170Y-77443399D01*
X117198340Y-77275526D01*
X117198347Y-77275513D01*
X117275609Y-77088983D01*
X117275612Y-77088974D01*
X117285353Y-77040000D01*
X116499618Y-77040000D01*
X116550064Y-76989554D01*
X116592851Y-76915445D01*
X116615000Y-76832787D01*
X116615000Y-76747213D01*
X116592851Y-76664555D01*
X116550064Y-76590446D01*
X116499618Y-76540000D01*
X117285353Y-76540000D01*
X118524647Y-76540000D01*
X119310382Y-76540000D01*
X119259936Y-76590446D01*
X119217149Y-76664555D01*
X119195000Y-76747213D01*
X119195000Y-76832787D01*
X119217149Y-76915445D01*
X119259936Y-76989554D01*
X119310382Y-77040000D01*
X118524647Y-77040000D01*
X118534387Y-77088974D01*
X118534390Y-77088983D01*
X118611652Y-77275513D01*
X118611659Y-77275526D01*
X118723829Y-77443399D01*
X118723832Y-77443403D01*
X118866596Y-77586167D01*
X118866600Y-77586170D01*
X119034473Y-77698340D01*
X119034480Y-77698344D01*
X119089379Y-77721083D01*
X119143783Y-77764924D01*
X119165849Y-77831218D01*
X119149316Y-77897644D01*
X119080312Y-78017163D01*
X119080312Y-78017164D01*
X119044500Y-78150817D01*
X119044500Y-78289182D01*
X119080312Y-78422835D01*
X119080313Y-78422838D01*
X119149492Y-78542661D01*
X119149494Y-78542664D01*
X119149495Y-78542665D01*
X119247335Y-78640505D01*
X119367164Y-78709688D01*
X119500817Y-78745500D01*
X119500819Y-78745500D01*
X119639181Y-78745500D01*
X119639183Y-78745500D01*
X119772836Y-78709688D01*
X119892665Y-78640505D01*
X119990505Y-78542665D01*
X120059688Y-78422836D01*
X120095500Y-78289183D01*
X120095500Y-78150817D01*
X120059688Y-78017164D01*
X120025096Y-77957249D01*
X119990507Y-77897338D01*
X119990503Y-77897333D01*
X119892664Y-77799494D01*
X119881999Y-77793337D01*
X119833784Y-77742769D01*
X119820000Y-77685950D01*
X119820000Y-77115000D01*
X120320000Y-77115000D01*
X120320000Y-77815000D01*
X120720955Y-77815000D01*
X120720958Y-77814999D01*
X120918974Y-77775612D01*
X120918983Y-77775609D01*
X121105513Y-77698347D01*
X121105526Y-77698340D01*
X121273399Y-77586170D01*
X121273403Y-77586167D01*
X121416167Y-77443403D01*
X121416170Y-77443399D01*
X121528340Y-77275526D01*
X121528347Y-77275513D01*
X121605609Y-77088983D01*
X121605612Y-77088974D01*
X121615353Y-77040000D01*
X120829618Y-77040000D01*
X120880064Y-76989554D01*
X120922851Y-76915445D01*
X120945000Y-76832787D01*
X120945000Y-76747213D01*
X120922851Y-76664555D01*
X120880064Y-76590446D01*
X120829618Y-76540000D01*
X121615353Y-76540000D01*
X121605612Y-76491025D01*
X121605609Y-76491016D01*
X121528347Y-76304486D01*
X121528340Y-76304473D01*
X121416170Y-76136600D01*
X121416167Y-76136596D01*
X121273403Y-75993832D01*
X121273399Y-75993829D01*
X121105526Y-75881659D01*
X121105513Y-75881652D01*
X120918983Y-75804390D01*
X120918974Y-75804387D01*
X120720958Y-75765000D01*
X120320000Y-75765000D01*
X120320000Y-76465000D01*
X119820000Y-76465000D01*
X119820000Y-75765000D01*
X119419041Y-75765000D01*
X119221025Y-75804387D01*
X119221016Y-75804390D01*
X119034486Y-75881652D01*
X119034473Y-75881659D01*
X118866600Y-75993829D01*
X118866596Y-75993832D01*
X118723832Y-76136596D01*
X118723829Y-76136600D01*
X118611659Y-76304473D01*
X118611652Y-76304486D01*
X118534390Y-76491016D01*
X118534387Y-76491025D01*
X118524647Y-76540000D01*
X117285353Y-76540000D01*
X117275612Y-76491025D01*
X117275609Y-76491016D01*
X117198347Y-76304486D01*
X117198340Y-76304473D01*
X117086170Y-76136600D01*
X117086167Y-76136596D01*
X116943403Y-75993832D01*
X116943399Y-75993829D01*
X116775526Y-75881659D01*
X116775513Y-75881652D01*
X116588983Y-75804390D01*
X116588974Y-75804387D01*
X116390958Y-75765000D01*
X116140000Y-75765000D01*
X116140000Y-76465000D01*
X115640000Y-76465000D01*
X115640000Y-75765000D01*
X115389041Y-75765000D01*
X115191025Y-75804387D01*
X115191016Y-75804390D01*
X115004486Y-75881652D01*
X115004473Y-75881659D01*
X114836600Y-75993829D01*
X114836596Y-75993832D01*
X114693832Y-76136596D01*
X114693829Y-76136600D01*
X114581659Y-76304473D01*
X114581652Y-76304486D01*
X114504390Y-76491016D01*
X114504387Y-76491025D01*
X114494647Y-76540000D01*
X113400500Y-76540000D01*
X113400500Y-55397399D01*
X149434500Y-55397399D01*
X149434500Y-55522601D01*
X149466905Y-55643536D01*
X149529505Y-55751964D01*
X149618036Y-55840495D01*
X149726464Y-55903095D01*
X149847399Y-55935500D01*
X149847401Y-55935500D01*
X149972599Y-55935500D01*
X149972601Y-55935500D01*
X150093536Y-55903095D01*
X150201964Y-55840495D01*
X150290495Y-55751964D01*
X150353095Y-55643536D01*
X150385500Y-55522601D01*
X150385500Y-55397399D01*
X151134500Y-55397399D01*
X151134500Y-55522601D01*
X151166905Y-55643536D01*
X151229505Y-55751964D01*
X151318036Y-55840495D01*
X151426464Y-55903095D01*
X151547399Y-55935500D01*
X151547401Y-55935500D01*
X151672599Y-55935500D01*
X151672601Y-55935500D01*
X151793536Y-55903095D01*
X151901964Y-55840495D01*
X151990495Y-55751964D01*
X152053095Y-55643536D01*
X152085500Y-55522601D01*
X152085500Y-55397399D01*
X152053095Y-55276464D01*
X151990495Y-55168036D01*
X151901964Y-55079505D01*
X151793536Y-55016905D01*
X151793537Y-55016905D01*
X151753224Y-55006103D01*
X151672601Y-54984500D01*
X151547399Y-54984500D01*
X151466775Y-55006103D01*
X151426463Y-55016905D01*
X151318037Y-55079504D01*
X151318034Y-55079506D01*
X151229506Y-55168034D01*
X151229504Y-55168037D01*
X151166905Y-55276463D01*
X151166905Y-55276464D01*
X151134500Y-55397399D01*
X150385500Y-55397399D01*
X150353095Y-55276464D01*
X150290495Y-55168036D01*
X150201964Y-55079505D01*
X150093536Y-55016905D01*
X150093537Y-55016905D01*
X150053224Y-55006103D01*
X149972601Y-54984500D01*
X149847399Y-54984500D01*
X149766775Y-55006103D01*
X149726463Y-55016905D01*
X149618037Y-55079504D01*
X149618034Y-55079506D01*
X149529506Y-55168034D01*
X149529504Y-55168037D01*
X149466905Y-55276463D01*
X149466905Y-55276464D01*
X149434500Y-55397399D01*
X113400500Y-55397399D01*
X113400500Y-54297399D01*
X154634500Y-54297399D01*
X154634500Y-54422601D01*
X154666905Y-54543536D01*
X154729505Y-54651964D01*
X154818036Y-54740495D01*
X154926464Y-54803095D01*
X155047399Y-54835500D01*
X155047401Y-54835500D01*
X155172599Y-54835500D01*
X155172601Y-54835500D01*
X155293536Y-54803095D01*
X155401964Y-54740495D01*
X155490495Y-54651964D01*
X155553095Y-54543536D01*
X155585500Y-54422601D01*
X155585500Y-54297399D01*
X155553095Y-54176464D01*
X155490495Y-54068036D01*
X155401964Y-53979505D01*
X155293536Y-53916905D01*
X155293537Y-53916905D01*
X155253224Y-53906103D01*
X155172601Y-53884500D01*
X155047399Y-53884500D01*
X154966775Y-53906103D01*
X154926463Y-53916905D01*
X154818037Y-53979504D01*
X154818034Y-53979506D01*
X154729506Y-54068034D01*
X154729504Y-54068037D01*
X154666905Y-54176463D01*
X154666905Y-54176464D01*
X154634500Y-54297399D01*
X113400500Y-54297399D01*
X113400500Y-50613051D01*
X113400649Y-50606967D01*
X113408778Y-50441491D01*
X114149500Y-50441491D01*
X114149500Y-50778508D01*
X114187231Y-51113381D01*
X114187233Y-51113397D01*
X114262223Y-51441953D01*
X114262227Y-51441965D01*
X114373532Y-51760054D01*
X114519752Y-52063683D01*
X114519754Y-52063686D01*
X114699054Y-52349039D01*
X114909175Y-52612523D01*
X115147477Y-52850825D01*
X115410961Y-53060946D01*
X115696314Y-53240246D01*
X115999949Y-53386469D01*
X116238848Y-53470063D01*
X116318034Y-53497772D01*
X116318046Y-53497776D01*
X116646606Y-53572767D01*
X116981492Y-53610499D01*
X116981493Y-53610500D01*
X116981496Y-53610500D01*
X117318507Y-53610500D01*
X117318507Y-53610499D01*
X117653394Y-53572767D01*
X117981954Y-53497776D01*
X118300051Y-53386469D01*
X118603686Y-53240246D01*
X118889039Y-53060946D01*
X119152523Y-52850825D01*
X119390825Y-52612523D01*
X119600946Y-52349039D01*
X119780246Y-52063686D01*
X119926469Y-51760051D01*
X120037776Y-51441954D01*
X120112767Y-51113394D01*
X120150500Y-50778504D01*
X120150500Y-50441496D01*
X120112767Y-50106606D01*
X120037776Y-49778046D01*
X119926469Y-49459949D01*
X119780246Y-49156314D01*
X119600946Y-48870961D01*
X119390825Y-48607477D01*
X119152523Y-48369175D01*
X118889039Y-48159054D01*
X118603686Y-47979754D01*
X118603683Y-47979752D01*
X118300054Y-47833532D01*
X117981965Y-47722227D01*
X117981953Y-47722223D01*
X117653397Y-47647233D01*
X117653381Y-47647231D01*
X117318508Y-47609500D01*
X117318504Y-47609500D01*
X116981496Y-47609500D01*
X116981491Y-47609500D01*
X116646618Y-47647231D01*
X116646602Y-47647233D01*
X116318046Y-47722223D01*
X116318034Y-47722227D01*
X115999945Y-47833532D01*
X115696316Y-47979752D01*
X115410962Y-48159053D01*
X115147477Y-48369174D01*
X114909174Y-48607477D01*
X114699053Y-48870962D01*
X114519752Y-49156316D01*
X114373532Y-49459945D01*
X114262227Y-49778034D01*
X114262223Y-49778046D01*
X114187233Y-50106602D01*
X114187231Y-50106618D01*
X114149500Y-50441491D01*
X113408778Y-50441491D01*
X113409248Y-50431933D01*
X113418256Y-50248568D01*
X113419449Y-50236457D01*
X113451240Y-50022139D01*
X113471654Y-49884520D01*
X113474022Y-49872613D01*
X113560475Y-49527473D01*
X113563998Y-49515858D01*
X113683869Y-49180840D01*
X113688508Y-49169643D01*
X113840643Y-48847979D01*
X113846358Y-48837287D01*
X114029278Y-48532105D01*
X114036021Y-48522012D01*
X114247979Y-48236219D01*
X114255682Y-48226834D01*
X114494628Y-47963198D01*
X114503198Y-47954628D01*
X114766834Y-47715682D01*
X114776219Y-47707979D01*
X115062012Y-47496021D01*
X115072105Y-47489278D01*
X115377287Y-47306358D01*
X115387979Y-47300643D01*
X115709643Y-47148508D01*
X115720840Y-47143869D01*
X116055858Y-47023998D01*
X116067473Y-47020475D01*
X116412613Y-46934022D01*
X116424520Y-46931654D01*
X116776460Y-46879448D01*
X116788564Y-46878256D01*
X117146967Y-46860648D01*
X117153051Y-46860500D01*
X117194170Y-46860500D01*
X152936000Y-46860500D01*
X153003039Y-46880185D01*
G37*
%TD.AperFunction*%
%TD*%
M02*
